<svg id="eOzYtCuLhFV1" xmlns="http://www.w3.org/2000/svg" xmlns:xlink="http://www.w3.org/1999/xlink" viewBox="0 0 1500 282" shape-rendering="geometricPrecision" text-rendering="geometricPrecision"><defs><linearGradient id="eOzYtCuLhFV4-fill" x1="1153.9752" y1="-575.0873" x2="1102.7179" y2="969.9625" spreadMethod="pad" gradientUnits="userSpaceOnUse" gradientTransform="translate(0 0)"><stop id="eOzYtCuLhFV4-fill-0" offset="0%" stop-color="#c82128"/><stop id="eOzYtCuLhFV4-fill-1" offset="21.35%" stop-color="#d32a2f"/><stop id="eOzYtCuLhFV4-fill-2" offset="56.18%" stop-color="#ee4041"/><stop id="eOzYtCuLhFV4-fill-3" offset="65.47%" stop-color="#e43838"/><stop id="eOzYtCuLhFV4-fill-4" offset="82.86%" stop-color="#d82e2d"/><stop id="eOzYtCuLhFV4-fill-5" offset="100%" stop-color="#d42b29"/></linearGradient><linearGradient id="eOzYtCuLhFV5-fill" x1="1114.8565" y1="748.735" x2="1119.7388" y2="-735.2938" spreadMethod="pad" gradientUnits="userSpaceOnUse" gradientTransform="translate(0 0)"><stop id="eOzYtCuLhFV5-fill-0" offset="0%" stop-color="#c82128"/><stop id="eOzYtCuLhFV5-fill-1" offset="21.35%" stop-color="#d32a2f"/><stop id="eOzYtCuLhFV5-fill-2" offset="56.18%" stop-color="#ee4041"/><stop id="eOzYtCuLhFV5-fill-3" offset="65.47%" stop-color="#e43838"/><stop id="eOzYtCuLhFV5-fill-4" offset="82.86%" stop-color="#d82e2d"/><stop id="eOzYtCuLhFV5-fill-5" offset="100%" stop-color="#d42b29"/></linearGradient><linearGradient id="eOzYtCuLhFV6-fill" x1="1268.4106" y1="749.2408" x2="1273.293" y2="-734.7943" spreadMethod="pad" gradientUnits="userSpaceOnUse" gradientTransform="translate(0 0)"><stop id="eOzYtCuLhFV6-fill-0" offset="0%" stop-color="#c82128"/><stop id="eOzYtCuLhFV6-fill-1" offset="21.35%" stop-color="#d32a2f"/><stop id="eOzYtCuLhFV6-fill-2" offset="56.18%" stop-color="#ee4041"/><stop id="eOzYtCuLhFV6-fill-3" offset="65.47%" stop-color="#e43838"/><stop id="eOzYtCuLhFV6-fill-4" offset="82.86%" stop-color="#d82e2d"/><stop id="eOzYtCuLhFV6-fill-5" offset="100%" stop-color="#d42b29"/></linearGradient><linearGradient id="eOzYtCuLhFV7-fill" x1="1279.1353" y1="-570.933" x2="1227.8781" y2="974.1148" spreadMethod="pad" gradientUnits="userSpaceOnUse" gradientTransform="translate(0 0)"><stop id="eOzYtCuLhFV7-fill-0" offset="0%" stop-color="#c82128"/><stop id="eOzYtCuLhFV7-fill-1" offset="21.35%" stop-color="#d32a2f"/><stop id="eOzYtCuLhFV7-fill-2" offset="56.18%" stop-color="#ee4041"/><stop id="eOzYtCuLhFV7-fill-3" offset="65.47%" stop-color="#e43838"/><stop id="eOzYtCuLhFV7-fill-4" offset="82.86%" stop-color="#d82e2d"/><stop id="eOzYtCuLhFV7-fill-5" offset="100%" stop-color="#d42b29"/></linearGradient><linearGradient id="eOzYtCuLhFV8-fill" x1="1237.812" y1="749.1393" x2="1242.6944" y2="-734.8915" spreadMethod="pad" gradientUnits="userSpaceOnUse" gradientTransform="translate(0 0)"><stop id="eOzYtCuLhFV8-fill-0" offset="0%" stop-color="#c82128"/><stop id="eOzYtCuLhFV8-fill-1" offset="21.35%" stop-color="#d32a2f"/><stop id="eOzYtCuLhFV8-fill-2" offset="56.18%" stop-color="#ee4041"/><stop id="eOzYtCuLhFV8-fill-3" offset="65.47%" stop-color="#e43838"/><stop id="eOzYtCuLhFV8-fill-4" offset="82.86%" stop-color="#d82e2d"/><stop id="eOzYtCuLhFV8-fill-5" offset="100%" stop-color="#d42b29"/></linearGradient><linearGradient id="eOzYtCuLhFV9-fill" x1="1378.2395" y1="749.6002" x2="1383.1219" y2="-734.4354" spreadMethod="pad" gradientUnits="userSpaceOnUse" gradientTransform="translate(0 0)"><stop id="eOzYtCuLhFV9-fill-0" offset="0%" stop-color="#c82128"/><stop id="eOzYtCuLhFV9-fill-1" offset="21.35%" stop-color="#d32a2f"/><stop id="eOzYtCuLhFV9-fill-2" offset="56.18%" stop-color="#ee4041"/><stop id="eOzYtCuLhFV9-fill-3" offset="65.47%" stop-color="#e43838"/><stop id="eOzYtCuLhFV9-fill-4" offset="82.86%" stop-color="#d82e2d"/><stop id="eOzYtCuLhFV9-fill-5" offset="100%" stop-color="#d42b29"/></linearGradient><linearGradient id="eOzYtCuLhFV10-fill" x1="1364.7098" y1="-568.0956" x2="1313.4526" y2="976.9527" spreadMethod="pad" gradientUnits="userSpaceOnUse" gradientTransform="translate(0 0)"><stop id="eOzYtCuLhFV10-fill-0" offset="0%" stop-color="#c82128"/><stop id="eOzYtCuLhFV10-fill-1" offset="21.35%" stop-color="#d32a2f"/><stop id="eOzYtCuLhFV10-fill-2" offset="56.18%" stop-color="#ee4041"/><stop id="eOzYtCuLhFV10-fill-3" offset="65.47%" stop-color="#e43838"/><stop id="eOzYtCuLhFV10-fill-4" offset="82.86%" stop-color="#d82e2d"/><stop id="eOzYtCuLhFV10-fill-5" offset="100%" stop-color="#d42b29"/></linearGradient><linearGradient id="eOzYtCuLhFV11-fill" x1="1300.0404" y1="-570.2416" x2="1248.783" y2="974.8102" spreadMethod="pad" gradientUnits="userSpaceOnUse" gradientTransform="translate(0 0)"><stop id="eOzYtCuLhFV11-fill-0" offset="0%" stop-color="#c82128"/><stop id="eOzYtCuLhFV11-fill-1" offset="21.35%" stop-color="#d32a2f"/><stop id="eOzYtCuLhFV11-fill-2" offset="56.18%" stop-color="#ee4041"/><stop id="eOzYtCuLhFV11-fill-3" offset="65.47%" stop-color="#e43838"/><stop id="eOzYtCuLhFV11-fill-4" offset="82.86%" stop-color="#d82e2d"/><stop id="eOzYtCuLhFV11-fill-5" offset="100%" stop-color="#d42b29"/></linearGradient><linearGradient id="eOzYtCuLhFV12-fill" x1="999.6685" y1="605.0084" x2="983.9208" y2="-1073.5897" spreadMethod="pad" gradientUnits="userSpaceOnUse" gradientTransform="translate(0 0)"><stop id="eOzYtCuLhFV12-fill-0" offset="0%" stop-color="#c82128"/><stop id="eOzYtCuLhFV12-fill-1" offset="21.35%" stop-color="#d32a2f"/><stop id="eOzYtCuLhFV12-fill-2" offset="56.18%" stop-color="#ee4041"/><stop id="eOzYtCuLhFV12-fill-3" offset="65.47%" stop-color="#e43838"/><stop id="eOzYtCuLhFV12-fill-4" offset="82.86%" stop-color="#d82e2d"/><stop id="eOzYtCuLhFV12-fill-5" offset="100%" stop-color="#d42b29"/></linearGradient><linearGradient id="eOzYtCuLhFV13-fill" x1="979.3734" y1="748.2896" x2="984.2558" y2="-735.7445" spreadMethod="pad" gradientUnits="userSpaceOnUse" gradientTransform="translate(0 0)"><stop id="eOzYtCuLhFV13-fill-0" offset="0%" stop-color="#c82128"/><stop id="eOzYtCuLhFV13-fill-1" offset="21.35%" stop-color="#d32a2f"/><stop id="eOzYtCuLhFV13-fill-2" offset="56.18%" stop-color="#ee4041"/><stop id="eOzYtCuLhFV13-fill-3" offset="65.47%" stop-color="#e43838"/><stop id="eOzYtCuLhFV13-fill-4" offset="82.86%" stop-color="#d82e2d"/><stop id="eOzYtCuLhFV13-fill-5" offset="100%" stop-color="#d42b29"/></linearGradient><linearGradient id="eOzYtCuLhFV14-fill" x1="1036.1598" y1="-578.994" x2="984.9025" y2="966.0553" spreadMethod="pad" gradientUnits="userSpaceOnUse" gradientTransform="translate(0 0)"><stop id="eOzYtCuLhFV14-fill-0" offset="0%" stop-color="#c82128"/><stop id="eOzYtCuLhFV14-fill-1" offset="21.35%" stop-color="#d32a2f"/><stop id="eOzYtCuLhFV14-fill-2" offset="56.18%" stop-color="#ee4041"/><stop id="eOzYtCuLhFV14-fill-3" offset="65.47%" stop-color="#e43838"/><stop id="eOzYtCuLhFV14-fill-4" offset="82.86%" stop-color="#d82e2d"/><stop id="eOzYtCuLhFV14-fill-5" offset="100%" stop-color="#d42b29"/></linearGradient><linearGradient id="eOzYtCuLhFV15-fill" x1="1005.7086" y1="398.5963" x2="1008.1482" y2="-1722.4911" spreadMethod="pad" gradientUnits="userSpaceOnUse" gradientTransform="translate(0 0)"><stop id="eOzYtCuLhFV15-fill-0" offset="0%" stop-color="#c82128"/><stop id="eOzYtCuLhFV15-fill-1" offset="21.35%" stop-color="#d32a2f"/><stop id="eOzYtCuLhFV15-fill-2" offset="56.18%" stop-color="#ee4041"/><stop id="eOzYtCuLhFV15-fill-3" offset="65.47%" stop-color="#e43838"/><stop id="eOzYtCuLhFV15-fill-4" offset="82.86%" stop-color="#d82e2d"/><stop id="eOzYtCuLhFV15-fill-5" offset="100%" stop-color="#d42b29"/></linearGradient><linearGradient id="eOzYtCuLhFV16-fill" x1="1002.4322" y1="-580.1127" x2="951.175" y2="964.9342" spreadMethod="pad" gradientUnits="userSpaceOnUse" gradientTransform="translate(0 0)"><stop id="eOzYtCuLhFV16-fill-0" offset="0%" stop-color="#c82128"/><stop id="eOzYtCuLhFV16-fill-1" offset="21.35%" stop-color="#d32a2f"/><stop id="eOzYtCuLhFV16-fill-2" offset="56.18%" stop-color="#ee4041"/><stop id="eOzYtCuLhFV16-fill-3" offset="65.47%" stop-color="#e43838"/><stop id="eOzYtCuLhFV16-fill-4" offset="82.86%" stop-color="#d82e2d"/><stop id="eOzYtCuLhFV16-fill-5" offset="100%" stop-color="#d42b29"/></linearGradient><linearGradient id="eOzYtCuLhFV17-fill" x1="927.6293" y1="384.5953" x2="915.4244" y2="-916.3686" spreadMethod="pad" gradientUnits="userSpaceOnUse" gradientTransform="translate(0 0)"><stop id="eOzYtCuLhFV17-fill-0" offset="0%" stop-color="#c82128"/><stop id="eOzYtCuLhFV17-fill-1" offset="21.35%" stop-color="#d32a2f"/><stop id="eOzYtCuLhFV17-fill-2" offset="56.18%" stop-color="#ee4041"/><stop id="eOzYtCuLhFV17-fill-3" offset="65.47%" stop-color="#e43838"/><stop id="eOzYtCuLhFV17-fill-4" offset="82.86%" stop-color="#d82e2d"/><stop id="eOzYtCuLhFV17-fill-5" offset="100%" stop-color="#d42b29"/></linearGradient><linearGradient id="eOzYtCuLhFV18-fill" x1="1126.8584" y1="-575.9862" x2="1075.6011" y2="969.0631" spreadMethod="pad" gradientUnits="userSpaceOnUse" gradientTransform="translate(0 0)"><stop id="eOzYtCuLhFV18-fill-0" offset="0%" stop-color="#c82128"/><stop id="eOzYtCuLhFV18-fill-1" offset="21.35%" stop-color="#d32a2f"/><stop id="eOzYtCuLhFV18-fill-2" offset="56.18%" stop-color="#ee4041"/><stop id="eOzYtCuLhFV18-fill-3" offset="65.47%" stop-color="#e43838"/><stop id="eOzYtCuLhFV18-fill-4" offset="82.86%" stop-color="#d82e2d"/><stop id="eOzYtCuLhFV18-fill-5" offset="100%" stop-color="#d42b29"/></linearGradient><linearGradient id="eOzYtCuLhFV19-fill" x1="1199.3251" y1="-573.5814" x2="1148.0678" y2="971.4684" spreadMethod="pad" gradientUnits="userSpaceOnUse" gradientTransform="translate(0 0)"><stop id="eOzYtCuLhFV19-fill-0" offset="0%" stop-color="#c82128"/><stop id="eOzYtCuLhFV19-fill-1" offset="21.35%" stop-color="#d32a2f"/><stop id="eOzYtCuLhFV19-fill-2" offset="56.18%" stop-color="#ee4041"/><stop id="eOzYtCuLhFV19-fill-3" offset="65.47%" stop-color="#e43838"/><stop id="eOzYtCuLhFV19-fill-4" offset="82.86%" stop-color="#d82e2d"/><stop id="eOzYtCuLhFV19-fill-5" offset="100%" stop-color="#d42b29"/></linearGradient><linearGradient id="eOzYtCuLhFV20-fill" x1="1167.0151" y1="748.9068" x2="1171.8975" y2="-735.1264" spreadMethod="pad" gradientUnits="userSpaceOnUse" gradientTransform="translate(0 0)"><stop id="eOzYtCuLhFV20-fill-0" offset="0%" stop-color="#c82128"/><stop id="eOzYtCuLhFV20-fill-1" offset="21.35%" stop-color="#d32a2f"/><stop id="eOzYtCuLhFV20-fill-2" offset="56.18%" stop-color="#ee4041"/><stop id="eOzYtCuLhFV20-fill-3" offset="65.47%" stop-color="#e43838"/><stop id="eOzYtCuLhFV20-fill-4" offset="82.86%" stop-color="#d82e2d"/><stop id="eOzYtCuLhFV20-fill-5" offset="100%" stop-color="#d42b29"/></linearGradient><linearGradient id="eOzYtCuLhFV21-fill" x1="822.8282" y1="387.9986" x2="810.5933" y2="-916.1674" spreadMethod="pad" gradientUnits="userSpaceOnUse" gradientTransform="translate(0 0)"><stop id="eOzYtCuLhFV21-fill-0" offset="0%" stop-color="#c82128"/><stop id="eOzYtCuLhFV21-fill-1" offset="21.35%" stop-color="#d32a2f"/><stop id="eOzYtCuLhFV21-fill-2" offset="56.18%" stop-color="#ee4041"/><stop id="eOzYtCuLhFV21-fill-3" offset="65.47%" stop-color="#e43838"/><stop id="eOzYtCuLhFV21-fill-4" offset="82.86%" stop-color="#d82e2d"/><stop id="eOzYtCuLhFV21-fill-5" offset="100%" stop-color="#d42b29"/></linearGradient><linearGradient id="eOzYtCuLhFV22-fill" x1="814.8998" y1="-586.3363" x2="763.6423" y2="958.7184" spreadMethod="pad" gradientUnits="userSpaceOnUse" gradientTransform="translate(0 0)"><stop id="eOzYtCuLhFV22-fill-0" offset="0%" stop-color="#c82128"/><stop id="eOzYtCuLhFV22-fill-1" offset="21.35%" stop-color="#d32a2f"/><stop id="eOzYtCuLhFV22-fill-2" offset="56.18%" stop-color="#ee4041"/><stop id="eOzYtCuLhFV22-fill-3" offset="65.47%" stop-color="#e43838"/><stop id="eOzYtCuLhFV22-fill-4" offset="82.86%" stop-color="#d82e2d"/><stop id="eOzYtCuLhFV22-fill-5" offset="100%" stop-color="#d42b29"/></linearGradient><linearGradient id="eOzYtCuLhFV23-fill" x1="785.9764" y1="747.6529" x2="790.8588" y2="-736.3778" spreadMethod="pad" gradientUnits="userSpaceOnUse" gradientTransform="translate(0 0)"><stop id="eOzYtCuLhFV23-fill-0" offset="0%" stop-color="#c82128"/><stop id="eOzYtCuLhFV23-fill-1" offset="21.35%" stop-color="#d32a2f"/><stop id="eOzYtCuLhFV23-fill-2" offset="56.18%" stop-color="#ee4041"/><stop id="eOzYtCuLhFV23-fill-3" offset="65.47%" stop-color="#e43838"/><stop id="eOzYtCuLhFV23-fill-4" offset="82.86%" stop-color="#d82e2d"/><stop id="eOzYtCuLhFV23-fill-5" offset="100%" stop-color="#d42b29"/></linearGradient><linearGradient id="eOzYtCuLhFV24-fill" x1="894.7387" y1="643.359" x2="882.5338" y2="-657.6049" spreadMethod="pad" gradientUnits="userSpaceOnUse" gradientTransform="translate(0 0)"><stop id="eOzYtCuLhFV24-fill-0" offset="0%" stop-color="#c82128"/><stop id="eOzYtCuLhFV24-fill-1" offset="21.35%" stop-color="#d32a2f"/><stop id="eOzYtCuLhFV24-fill-2" offset="56.18%" stop-color="#ee4041"/><stop id="eOzYtCuLhFV24-fill-3" offset="65.47%" stop-color="#e43838"/><stop id="eOzYtCuLhFV24-fill-4" offset="82.86%" stop-color="#d82e2d"/><stop id="eOzYtCuLhFV24-fill-5" offset="100%" stop-color="#d42b29"/></linearGradient><linearGradient id="eOzYtCuLhFV26-fill" x1="346.0321" y1="-575.0873" x2="397.2889" y2="969.9625" spreadMethod="pad" gradientUnits="userSpaceOnUse" gradientTransform="translate(0 0)"><stop id="eOzYtCuLhFV26-fill-0" offset="0%" stop-color="#c82128"/><stop id="eOzYtCuLhFV26-fill-1" offset="21.35%" stop-color="#d32a2f"/><stop id="eOzYtCuLhFV26-fill-2" offset="56.18%" stop-color="#ee4041"/><stop id="eOzYtCuLhFV26-fill-3" offset="65.47%" stop-color="#e43838"/><stop id="eOzYtCuLhFV26-fill-4" offset="82.86%" stop-color="#d82e2d"/><stop id="eOzYtCuLhFV26-fill-5" offset="100%" stop-color="#d42b29"/></linearGradient><linearGradient id="eOzYtCuLhFV27-fill" x1="385.1502" y1="748.735" x2="380.2684" y2="-735.2938" spreadMethod="pad" gradientUnits="userSpaceOnUse" gradientTransform="translate(0 0)"><stop id="eOzYtCuLhFV27-fill-0" offset="0%" stop-color="#c82128"/><stop id="eOzYtCuLhFV27-fill-1" offset="21.35%" stop-color="#d32a2f"/><stop id="eOzYtCuLhFV27-fill-2" offset="56.18%" stop-color="#ee4041"/><stop id="eOzYtCuLhFV27-fill-3" offset="65.47%" stop-color="#e43838"/><stop id="eOzYtCuLhFV27-fill-4" offset="82.86%" stop-color="#d82e2d"/><stop id="eOzYtCuLhFV27-fill-5" offset="100%" stop-color="#d42b29"/></linearGradient><linearGradient id="eOzYtCuLhFV28-fill" x1="231.5965" y1="749.2408" x2="226.7137" y2="-734.7943" spreadMethod="pad" gradientUnits="userSpaceOnUse" gradientTransform="translate(0 0)"><stop id="eOzYtCuLhFV28-fill-0" offset="0%" stop-color="#c82128"/><stop id="eOzYtCuLhFV28-fill-1" offset="21.35%" stop-color="#d32a2f"/><stop id="eOzYtCuLhFV28-fill-2" offset="56.18%" stop-color="#ee4041"/><stop id="eOzYtCuLhFV28-fill-3" offset="65.47%" stop-color="#e43838"/><stop id="eOzYtCuLhFV28-fill-4" offset="82.86%" stop-color="#d82e2d"/><stop id="eOzYtCuLhFV28-fill-5" offset="100%" stop-color="#d42b29"/></linearGradient><linearGradient id="eOzYtCuLhFV29-fill" x1="220.8719" y1="-570.933" x2="272.1288" y2="974.1148" spreadMethod="pad" gradientUnits="userSpaceOnUse" gradientTransform="translate(0 0)"><stop id="eOzYtCuLhFV29-fill-0" offset="0%" stop-color="#c82128"/><stop id="eOzYtCuLhFV29-fill-1" offset="21.35%" stop-color="#d32a2f"/><stop id="eOzYtCuLhFV29-fill-2" offset="56.18%" stop-color="#ee4041"/><stop id="eOzYtCuLhFV29-fill-3" offset="65.47%" stop-color="#e43838"/><stop id="eOzYtCuLhFV29-fill-4" offset="82.86%" stop-color="#d82e2d"/><stop id="eOzYtCuLhFV29-fill-5" offset="100%" stop-color="#d42b29"/></linearGradient><linearGradient id="eOzYtCuLhFV30-fill" x1="262.1952" y1="749.1393" x2="257.3123" y2="-734.8915" spreadMethod="pad" gradientUnits="userSpaceOnUse" gradientTransform="translate(0 0)"><stop id="eOzYtCuLhFV30-fill-0" offset="0%" stop-color="#c82128"/><stop id="eOzYtCuLhFV30-fill-1" offset="21.35%" stop-color="#d32a2f"/><stop id="eOzYtCuLhFV30-fill-2" offset="56.18%" stop-color="#ee4041"/><stop id="eOzYtCuLhFV30-fill-3" offset="65.47%" stop-color="#e43838"/><stop id="eOzYtCuLhFV30-fill-4" offset="82.86%" stop-color="#d82e2d"/><stop id="eOzYtCuLhFV30-fill-5" offset="100%" stop-color="#d42b29"/></linearGradient><linearGradient id="eOzYtCuLhFV31-fill" x1="121.7674" y1="749.6002" x2="116.8846" y2="-734.4354" spreadMethod="pad" gradientUnits="userSpaceOnUse" gradientTransform="translate(0 0)"><stop id="eOzYtCuLhFV31-fill-0" offset="0%" stop-color="#c82128"/><stop id="eOzYtCuLhFV31-fill-1" offset="21.35%" stop-color="#d32a2f"/><stop id="eOzYtCuLhFV31-fill-2" offset="56.18%" stop-color="#ee4041"/><stop id="eOzYtCuLhFV31-fill-3" offset="65.47%" stop-color="#e43838"/><stop id="eOzYtCuLhFV31-fill-4" offset="82.86%" stop-color="#d82e2d"/><stop id="eOzYtCuLhFV31-fill-5" offset="100%" stop-color="#d42b29"/></linearGradient><linearGradient id="eOzYtCuLhFV32-fill" x1="135.2967" y1="-568.0956" x2="186.5545" y2="976.9527" spreadMethod="pad" gradientUnits="userSpaceOnUse" gradientTransform="translate(0 0)"><stop id="eOzYtCuLhFV32-fill-0" offset="0%" stop-color="#c82128"/><stop id="eOzYtCuLhFV32-fill-1" offset="21.35%" stop-color="#d32a2f"/><stop id="eOzYtCuLhFV32-fill-2" offset="56.18%" stop-color="#ee4041"/><stop id="eOzYtCuLhFV32-fill-3" offset="65.47%" stop-color="#e43838"/><stop id="eOzYtCuLhFV32-fill-4" offset="82.86%" stop-color="#d82e2d"/><stop id="eOzYtCuLhFV32-fill-5" offset="100%" stop-color="#d42b29"/></linearGradient><linearGradient id="eOzYtCuLhFV33-fill" x1="199.9666" y1="-570.2416" x2="251.2235" y2="974.8102" spreadMethod="pad" gradientUnits="userSpaceOnUse" gradientTransform="translate(0 0)"><stop id="eOzYtCuLhFV33-fill-0" offset="0%" stop-color="#c82128"/><stop id="eOzYtCuLhFV33-fill-1" offset="21.35%" stop-color="#d32a2f"/><stop id="eOzYtCuLhFV33-fill-2" offset="56.18%" stop-color="#ee4041"/><stop id="eOzYtCuLhFV33-fill-3" offset="65.47%" stop-color="#e43838"/><stop id="eOzYtCuLhFV33-fill-4" offset="82.86%" stop-color="#d82e2d"/><stop id="eOzYtCuLhFV33-fill-5" offset="100%" stop-color="#d42b29"/></linearGradient><linearGradient id="eOzYtCuLhFV34-fill" x1="500.3387" y1="605.0084" x2="516.0858" y2="-1073.5897" spreadMethod="pad" gradientUnits="userSpaceOnUse" gradientTransform="translate(0 0)"><stop id="eOzYtCuLhFV34-fill-0" offset="0%" stop-color="#c82128"/><stop id="eOzYtCuLhFV34-fill-1" offset="21.35%" stop-color="#d32a2f"/><stop id="eOzYtCuLhFV34-fill-2" offset="56.18%" stop-color="#ee4041"/><stop id="eOzYtCuLhFV34-fill-3" offset="65.47%" stop-color="#e43838"/><stop id="eOzYtCuLhFV34-fill-4" offset="82.86%" stop-color="#d82e2d"/><stop id="eOzYtCuLhFV34-fill-5" offset="100%" stop-color="#d42b29"/></linearGradient><linearGradient id="eOzYtCuLhFV35-fill" x1="520.6336" y1="748.2896" x2="515.7508" y2="-735.7445" spreadMethod="pad" gradientUnits="userSpaceOnUse" gradientTransform="translate(0 0)"><stop id="eOzYtCuLhFV35-fill-0" offset="0%" stop-color="#c82128"/><stop id="eOzYtCuLhFV35-fill-1" offset="21.35%" stop-color="#d32a2f"/><stop id="eOzYtCuLhFV35-fill-2" offset="56.18%" stop-color="#ee4041"/><stop id="eOzYtCuLhFV35-fill-3" offset="65.47%" stop-color="#e43838"/><stop id="eOzYtCuLhFV35-fill-4" offset="82.86%" stop-color="#d82e2d"/><stop id="eOzYtCuLhFV35-fill-5" offset="100%" stop-color="#d42b29"/></linearGradient><linearGradient id="eOzYtCuLhFV36-fill" x1="463.8475" y1="-578.994" x2="515.1043" y2="966.0553" spreadMethod="pad" gradientUnits="userSpaceOnUse" gradientTransform="translate(0 0)"><stop id="eOzYtCuLhFV36-fill-0" offset="0%" stop-color="#c82128"/><stop id="eOzYtCuLhFV36-fill-1" offset="21.35%" stop-color="#d32a2f"/><stop id="eOzYtCuLhFV36-fill-2" offset="56.18%" stop-color="#ee4041"/><stop id="eOzYtCuLhFV36-fill-3" offset="65.47%" stop-color="#e43838"/><stop id="eOzYtCuLhFV36-fill-4" offset="82.86%" stop-color="#d82e2d"/><stop id="eOzYtCuLhFV36-fill-5" offset="100%" stop-color="#d42b29"/></linearGradient><linearGradient id="eOzYtCuLhFV37-fill" x1="494.2987" y1="398.5963" x2="491.8592" y2="-1722.4911" spreadMethod="pad" gradientUnits="userSpaceOnUse" gradientTransform="translate(0 0)"><stop id="eOzYtCuLhFV37-fill-0" offset="0%" stop-color="#c82128"/><stop id="eOzYtCuLhFV37-fill-1" offset="21.35%" stop-color="#d32a2f"/><stop id="eOzYtCuLhFV37-fill-2" offset="56.18%" stop-color="#ee4041"/><stop id="eOzYtCuLhFV37-fill-3" offset="65.47%" stop-color="#e43838"/><stop id="eOzYtCuLhFV37-fill-4" offset="82.86%" stop-color="#d82e2d"/><stop id="eOzYtCuLhFV37-fill-5" offset="100%" stop-color="#d42b29"/></linearGradient><linearGradient id="eOzYtCuLhFV38-fill" x1="572.3778" y1="384.5953" x2="584.5829" y2="-916.3686" spreadMethod="pad" gradientUnits="userSpaceOnUse" gradientTransform="translate(0 0)"><stop id="eOzYtCuLhFV38-fill-0" offset="0%" stop-color="#c82128"/><stop id="eOzYtCuLhFV38-fill-1" offset="21.35%" stop-color="#d32a2f"/><stop id="eOzYtCuLhFV38-fill-2" offset="56.18%" stop-color="#ee4041"/><stop id="eOzYtCuLhFV38-fill-3" offset="65.47%" stop-color="#e43838"/><stop id="eOzYtCuLhFV38-fill-4" offset="82.86%" stop-color="#d82e2d"/><stop id="eOzYtCuLhFV38-fill-5" offset="100%" stop-color="#d42b29"/></linearGradient><linearGradient id="eOzYtCuLhFV39-fill" x1="373.1483" y1="-575.9862" x2="424.4061" y2="969.0631" spreadMethod="pad" gradientUnits="userSpaceOnUse" gradientTransform="translate(0 0)"><stop id="eOzYtCuLhFV39-fill-0" offset="0%" stop-color="#c82128"/><stop id="eOzYtCuLhFV39-fill-1" offset="21.35%" stop-color="#d32a2f"/><stop id="eOzYtCuLhFV39-fill-2" offset="56.18%" stop-color="#ee4041"/><stop id="eOzYtCuLhFV39-fill-3" offset="65.47%" stop-color="#e43838"/><stop id="eOzYtCuLhFV39-fill-4" offset="82.86%" stop-color="#d82e2d"/><stop id="eOzYtCuLhFV39-fill-5" offset="100%" stop-color="#d42b29"/></linearGradient><linearGradient id="eOzYtCuLhFV40-fill" x1="300.6815" y1="-573.5814" x2="351.9393" y2="971.4684" spreadMethod="pad" gradientUnits="userSpaceOnUse" gradientTransform="translate(0 0)"><stop id="eOzYtCuLhFV40-fill-0" offset="0%" stop-color="#c82128"/><stop id="eOzYtCuLhFV40-fill-1" offset="21.35%" stop-color="#d32a2f"/><stop id="eOzYtCuLhFV40-fill-2" offset="56.18%" stop-color="#ee4041"/><stop id="eOzYtCuLhFV40-fill-3" offset="65.47%" stop-color="#e43838"/><stop id="eOzYtCuLhFV40-fill-4" offset="82.86%" stop-color="#d82e2d"/><stop id="eOzYtCuLhFV40-fill-5" offset="100%" stop-color="#d42b29"/></linearGradient><linearGradient id="eOzYtCuLhFV41-fill" x1="332.992" y1="748.9068" x2="328.1092" y2="-735.1264" spreadMethod="pad" gradientUnits="userSpaceOnUse" gradientTransform="translate(0 0)"><stop id="eOzYtCuLhFV41-fill-0" offset="0%" stop-color="#c82128"/><stop id="eOzYtCuLhFV41-fill-1" offset="21.35%" stop-color="#d32a2f"/><stop id="eOzYtCuLhFV41-fill-2" offset="56.18%" stop-color="#ee4041"/><stop id="eOzYtCuLhFV41-fill-3" offset="65.47%" stop-color="#e43838"/><stop id="eOzYtCuLhFV41-fill-4" offset="82.86%" stop-color="#d82e2d"/><stop id="eOzYtCuLhFV41-fill-5" offset="100%" stop-color="#d42b29"/></linearGradient><linearGradient id="eOzYtCuLhFV42-fill" x1="331.6024" y1="-574.6068" x2="382.8592" y2="970.44" spreadMethod="pad" gradientUnits="userSpaceOnUse" gradientTransform="translate(0 0)"><stop id="eOzYtCuLhFV42-fill-0" offset="0%" stop-color="#c82128"/><stop id="eOzYtCuLhFV42-fill-1" offset="21.35%" stop-color="#d32a2f"/><stop id="eOzYtCuLhFV42-fill-2" offset="56.18%" stop-color="#ee4041"/><stop id="eOzYtCuLhFV42-fill-3" offset="65.47%" stop-color="#e43838"/><stop id="eOzYtCuLhFV42-fill-4" offset="82.86%" stop-color="#d82e2d"/><stop id="eOzYtCuLhFV42-fill-5" offset="100%" stop-color="#d42b29"/></linearGradient><linearGradient id="eOzYtCuLhFV43-fill" x1="677.1786" y1="387.9986" x2="689.4139" y2="-916.1674" spreadMethod="pad" gradientUnits="userSpaceOnUse" gradientTransform="translate(0 0)"><stop id="eOzYtCuLhFV43-fill-0" offset="0%" stop-color="#c82128"/><stop id="eOzYtCuLhFV43-fill-1" offset="21.35%" stop-color="#d32a2f"/><stop id="eOzYtCuLhFV43-fill-2" offset="56.18%" stop-color="#ee4041"/><stop id="eOzYtCuLhFV43-fill-3" offset="65.47%" stop-color="#e43838"/><stop id="eOzYtCuLhFV43-fill-4" offset="82.86%" stop-color="#d82e2d"/><stop id="eOzYtCuLhFV43-fill-5" offset="100%" stop-color="#d42b29"/></linearGradient><linearGradient id="eOzYtCuLhFV44-fill" x1="685.1073" y1="-586.3363" x2="736.3641" y2="958.7184" spreadMethod="pad" gradientUnits="userSpaceOnUse" gradientTransform="translate(0 0)"><stop id="eOzYtCuLhFV44-fill-0" offset="0%" stop-color="#c82128"/><stop id="eOzYtCuLhFV44-fill-1" offset="21.35%" stop-color="#d32a2f"/><stop id="eOzYtCuLhFV44-fill-2" offset="56.18%" stop-color="#ee4041"/><stop id="eOzYtCuLhFV44-fill-3" offset="65.47%" stop-color="#e43838"/><stop id="eOzYtCuLhFV44-fill-4" offset="82.86%" stop-color="#d82e2d"/><stop id="eOzYtCuLhFV44-fill-5" offset="100%" stop-color="#d42b29"/></linearGradient><linearGradient id="eOzYtCuLhFV45-fill" x1="714.0301" y1="747.6529" x2="709.1483" y2="-736.3778" spreadMethod="pad" gradientUnits="userSpaceOnUse" gradientTransform="translate(0 0)"><stop id="eOzYtCuLhFV45-fill-0" offset="0%" stop-color="#c82128"/><stop id="eOzYtCuLhFV45-fill-1" offset="21.35%" stop-color="#d32a2f"/><stop id="eOzYtCuLhFV45-fill-2" offset="56.18%" stop-color="#ee4041"/><stop id="eOzYtCuLhFV45-fill-3" offset="65.47%" stop-color="#e43838"/><stop id="eOzYtCuLhFV45-fill-4" offset="82.86%" stop-color="#d82e2d"/><stop id="eOzYtCuLhFV45-fill-5" offset="100%" stop-color="#d42b29"/></linearGradient><linearGradient id="eOzYtCuLhFV46-fill" x1="605.2684" y1="643.359" x2="617.4735" y2="-657.6049" spreadMethod="pad" gradientUnits="userSpaceOnUse" gradientTransform="translate(0 0)"><stop id="eOzYtCuLhFV46-fill-0" offset="0%" stop-color="#c82128"/><stop id="eOzYtCuLhFV46-fill-1" offset="21.35%" stop-color="#d32a2f"/><stop id="eOzYtCuLhFV46-fill-2" offset="56.18%" stop-color="#ee4041"/><stop id="eOzYtCuLhFV46-fill-3" offset="65.47%" stop-color="#e43838"/><stop id="eOzYtCuLhFV46-fill-4" offset="82.86%" stop-color="#d82e2d"/><stop id="eOzYtCuLhFV46-fill-5" offset="100%" stop-color="#d42b29"/></linearGradient></defs><g transform="matrix(1.141084 0 0 1.056664-105.813016-322.08428)"><g><path d="M1109.52,558.7v-127.75l42.33-42.34v-161.31h-32.31v-229.87l34.27-31.84v-98.16h-37.54v-160.32c-2.81-.78-4.88-3.33-4.88-6.38c0-3.67,2.98-6.65,6.65-6.65s6.65,2.98,6.65,6.65c0,3.05-2.08,5.6-4.88,6.38v156.77h37.54v103.24l-34.27,31.84v224.78h32.31v166.31l-42.33,42.33v126.24c2.86.75,4.97,3.32,4.97,6.41c0,3.67-2.98,6.65-6.65,6.65s-6.65-2.98-6.65-6.65c.01-3,2.03-5.51,4.79-6.33Z" fill="url(#eOzYtCuLhFV4-fill)"/><path d="M1095.09,536.07v-105.47l42.34-42.33v-144.58h-37.2v-255.32l37.2-37.59v-66.05h-37.27v-235.94c-2.8-.78-4.88-3.33-4.88-6.38c0-3.67,2.98-6.65,6.65-6.65s6.65,2.98,6.65,6.65c0,3.06-2.07,5.6-4.88,6.38v232.4h37.26v71.04l-37.21,37.59v250.33h37.21v149.58l-42.33,42.33v103.77c3,.64,5.26,3.3,5.26,6.5c0,3.67-2.98,6.65-6.65,6.65s-6.66-2.98-6.66-6.65c.01-2.91,1.91-5.36,4.51-6.26Z" fill="url(#eOzYtCuLhFV5-fill)"/><path d="M1249.32,399.88v-121.07l42.33-42.33v-166.14h-37.2v-306.02h3.54v302.48h37.2v171.13l-42.33,42.34v119.61c2.81.77,4.88,3.32,4.88,6.38c0,3.68-2.97,6.65-6.65,6.65-3.67,0-6.65-2.97-6.65-6.65c0-3.05,2.07-5.6,4.88-6.38Z" fill="url(#eOzYtCuLhFV6-fill)"/><path d="M1234.9,370.25v-98.7l42.33-42.34v-144.57h-37.2v-327.56h3.54v324.02h37.2v149.58l-42.33,42.33v97.23c2.81.78,4.88,3.33,4.88,6.38c0,3.67-2.98,6.65-6.65,6.65s-6.65-2.97-6.65-6.65c0-3.05,2.07-5.59,4.88-6.37Z" fill="url(#eOzYtCuLhFV7-fill)"/><path d="M1218.81,364.35v-98.7l42.33-42.33v-122.03h-37.21v-350.11h3.54v346.57h37.2v127.04l-42.34,42.33v97.23c2.81.78,4.88,3.33,4.88,6.39c0,3.67-2.98,6.65-6.65,6.65s-6.65-2.98-6.65-6.65c.01-3.06,2.08-5.61,4.9-6.39Z" fill="url(#eOzYtCuLhFV8-fill)"/><path d="M1388.29,-189.44h-37.21v-327.57h3.54v324.03h37.2v149.58l-42.33,42.33v84.08h52.66c.78-2.81,3.33-4.88,6.38-4.88c3.67,0,6.65,2.97,6.65,6.65c0,3.67-2.98,6.65-6.65,6.65-3.06,0-5.61-2.08-6.38-4.88h-56.2v-89.09l42.34-42.34v-144.56Z" transform="translate(-9.63996 277.287875)" fill="url(#eOzYtCuLhFV9-fill)"/><path d="M1329.85,147.75v-156.19l42.34-42.33v-122.03h-37.2v-350.12h3.53v346.58h37.2v127.03l-42.33,42.33v154.72c2.81.78,4.88,3.32,4.88,6.37c0,3.68-2.98,6.65-6.65,6.65s-6.65-2.98-6.65-6.65c0-3.04,2.08-5.58,4.88-6.36Z" transform="translate(-8.7636 275.395125)" fill="url(#eOzYtCuLhFV10-fill)"/><path d="M1266.19,-54.97h21.11v59.5c2.81.78,4.88,3.33,4.88,6.38c0,3.67-2.98,6.65-6.65,6.65s-6.65-2.98-6.65-6.65c0-3.05,2.08-5.6,4.88-6.38v-55.95h-14.04v97.29h33.67v-124.7h-37.2v-298.75h3.54v295.21h37.2v131.77h-40.74v-104.37Z" transform="translate(0 361.51525)" fill="url(#eOzYtCuLhFV11-fill)"/><path d="M922.1,545.64v-121.08l42.33-42.33v-238.07h105.16v-443.7h3.54v447.24h-105.16v235.99l-42.33,42.34v119.61c2.81.78,4.88,3.32,4.88,6.38c0,3.67-2.98,6.65-6.65,6.65s-6.65-2.98-6.65-6.65c0-3.07,2.07-5.61,4.88-6.38Z" fill="url(#eOzYtCuLhFV12-fill)"/><path d="M907.68,516.01v-98.7l42.33-42.33v-247.03h105.16v-427.48h3.53v431.02h-105.15v244.96l-42.34,42.33v97.23c2.81.78,4.88,3.33,4.88,6.38c0,3.68-2.98,6.65-6.65,6.65-3.68,0-6.65-2.97-6.65-6.65.01-3.06,2.08-5.6,4.89-6.38Z" fill="url(#eOzYtCuLhFV13-fill)"/><path d="M1039.19,71.35c-3.05,0-5.6-2.08-6.38-4.88h-35.13v-61.33l42.33-42.34v-166.13h-37.2v-306.01h3.54v302.48h37.2v171.13L1001.22,6.6v56.33h31.59c.78-2.81,3.33-4.88,6.38-4.88c3.68,0,6.65,2.98,6.65,6.65s-2.98,6.65-6.65,6.65Z" fill="url(#eOzYtCuLhFV14-fill)"/><path d="M1029.13,-42.99L986.79,-0.65v84.08h20.07c.78-2.81,3.33-4.88,6.39-4.88c3.67,0,6.65,2.97,6.65,6.64c0,3.68-2.98,6.65-6.65,6.65-3.06,0-5.6-2.07-6.38-4.88h-23.61v-89.08l42.33-42.33v-144.58h-37.2v-327.57h3.53v324.02h37.2v149.59h.01Z" fill="url(#eOzYtCuLhFV15-fill)"/><path d="M1013.03,-48.88L970.7,-6.55v111.04c2.81.78,4.88,3.33,4.88,6.39c0,3.67-2.98,6.65-6.65,6.65-3.68,0-6.65-2.98-6.65-6.65c0-3.05,2.07-5.61,4.88-6.39v-112.51l42.34-42.34v-122.03h-37.2v-350.11h3.53v346.57h37.21v127.05h-.01Z" fill="url(#eOzYtCuLhFV16-fill)"/><path d="M944.24,49.82h-40.74v-104.36h21.11v59.49c2.81.77,4.89,3.32,4.89,6.38c0,3.67-2.97,6.64-6.65,6.64s-6.65-2.97-6.65-6.64c0-3.06,2.07-5.61,4.87-6.38v-55.95h-14.03v97.29h33.66v-124.71h-37.2v-298.74h3.54v295.21h37.2v131.77Z" fill="url(#eOzYtCuLhFV17-fill)"/><path d="M1080.96,516.68v-98.7l42.33-42.33v-122.03h-37.21v-553.15h3.54v549.61h37.2v127.04l-42.33,42.33v97.23c2.81.78,4.88,3.33,4.88,6.38c0,3.67-2.98,6.65-6.65,6.65s-6.65-2.98-6.65-6.65c.01-3.05,2.08-5.6,4.89-6.38Z" fill="url(#eOzYtCuLhFV18-fill)"/><path d="M1163.17,200.11v-174.73l42.33-42.33v-166.13h-37.2v-306.02h3.54v302.48h37.2v171.14l-42.33,42.33v173.26c2.81.78,4.88,3.33,4.88,6.39c0,3.67-2.98,6.64-6.65,6.64s-6.65-2.97-6.65-6.64c-.01-3.06,2.07-5.61,4.88-6.39Z" transform="translate(0 265.931375)" fill="url(#eOzYtCuLhFV19-fill)"/><path d="M1157.17,167.58c0,3.68-2.98,6.65-6.65,6.65s-6.65-2.98-6.65-6.65c0-3.06,2.07-5.6,4.88-6.38v-143.07l42.33-42.33v-144.58h-37.2v-327.57h3.54v324.03h37.2v149.58l-42.33,42.33v141.61c2.8.78,4.88,3.32,4.88,6.38Z" transform="translate(28.91988 277.287875)" fill="url(#eOzYtCuLhFV20-fill)"/><path d="M838.31,-64.1h-32.31v-229.86l34.27-31.85v-98.16h-37.54v-160.31c-2.81-.78-4.88-3.33-4.88-6.39c0-3.67,2.98-6.64,6.65-6.64s6.65,2.97,6.65,6.64c0,3.06-2.07,5.61-4.88,6.39v156.78h37.54v103.24l-34.27,31.84v224.79h32.31v166.31l-42.33,42.33v126.6c0,0-.49-.08,0,0c1.76.27,5.21,3.61,1.18,7.21-.38.33-1.68.98-2.86.99-.89,0-2.77-.7-3.17-1.07-3.39-3.17-.42-6.9.84-7.13.15-.03.46-.19.46-.19v-127.87L838.3,97.22v-161.32h.01Z" fill="url(#eOzYtCuLhFV21-fill)"/><path d="M823.89,-47.71h-37.2v-255.33l37.2-37.58v-66.05h-37.26v-235.94c-2.81-.78-4.88-3.33-4.88-6.38c0-3.68,2.98-6.65,6.65-6.65c3.68,0,6.65,2.98,6.65,6.65c0,3.06-2.07,5.6-4.88,6.38v232.4h37.26v71.04l-37.2,37.59v250.33h37.2v149.58L785.1,140.67v110.26h-3.53v-111.73L823.9,96.87v-144.58h-.01Z" transform="translate(0 159.937375)" fill="url(#eOzYtCuLhFV22-fill)"/><path d="M767.42,225.29v-98.7l42.33-42.33v-122.03h-37.21v-553.15h3.54v549.61h37.2v127.03l-42.33,42.33v97.23c2.81.78,4.88,3.32,4.88,6.38c0,3.68-2.98,6.65-6.65,6.65-3.68,0-6.65-2.97-6.65-6.65.01-3.05,2.08-5.59,4.89-6.37Z" transform="translate(0 165.615625)" fill="url(#eOzYtCuLhFV23-fill)"/><path d="M849.62,-91.28v-174.73l42.34-42.33v-166.13h-37.2v-306.02h3.53v302.48h37.21v171.13l-.2.2v373.9h37.21v171.14l-42.33,42.33v119.61c2.81.78,4.88,3.32,4.88,6.38c0,3.67-2.98,6.65-6.65,6.65s-6.66-2.98-6.66-6.65c0-3.06,2.08-5.6,4.88-6.38v-121.08l42.34-42.33v-166.13h-37.2v-373.91l-10.88,10.88v373.79h37.2v149.58l-42.34,42.33v97.24c2.81.78,4.88,3.32,4.88,6.38c0,3.67-2.97,6.65-6.65,6.65s-6.65-2.98-6.65-6.65c0-3.06,2.07-5.6,4.88-6.38v-98.7l42.33-42.34v-144.57h-37.2v-373.78l-12.56,12.56v374.32h37.2v127.04l-42.33,42.34v97.23c2.81.78,4.88,3.33,4.88,6.38c0,3.67-2.98,6.65-6.65,6.65s-6.65-2.97-6.65-6.65c0-3.06,2.07-5.6,4.88-6.38v-98.7l42.33-42.33v-122.03h-37.2v-374.33l-8.08,8.08v173.27c2.81.78,4.88,3.33,4.88,6.39c0,3.67-2.98,6.65-6.65,6.65s-6.64-2.98-6.64-6.65c-.01-3.07,2.07-5.62,4.87-6.4Z" transform="translate(0 69.085375)" fill="url(#eOzYtCuLhFV24-fill)"/></g><g><path d="M390.48,558.7v-127.75l-42.33-42.34v-161.31h32.31v-229.87L346.19,-34.4v-98.16h37.54v-160.32c2.81-.78,4.88-3.33,4.88-6.38c0-3.67-2.98-6.65-6.65-6.65s-6.65,2.98-6.65,6.65c0,3.05,2.08,5.6,4.88,6.38v156.77h-37.54v103.24l34.27,31.84v224.78h-32.31v166.31l42.33,42.33v126.24c-2.86.75-4.97,3.32-4.97,6.41c0,3.67,2.98,6.65,6.65,6.65s6.65-2.98,6.65-6.65c-.01-3.01-2.03-5.52-4.79-6.34Z" transform="translate(0-7.571)" fill="url(#eOzYtCuLhFV26-fill)"/><path d="M404.91,536.07v-105.47l-42.34-42.33v-144.58h37.2v-255.32l-37.2-37.59v-66.05h37.27v-235.94c2.8-.78,4.88-3.33,4.88-6.38c0-3.67-2.98-6.65-6.65-6.65s-6.65,2.98-6.65,6.65c0,3.06,2.07,5.6,4.88,6.38v232.4h-37.26v71.04l37.21,37.59v250.33h-37.21v149.58l42.33,42.33v103.77c-3,.64-5.26,3.3-5.26,6.5c0,3.67,2.98,6.65,6.65,6.65s6.66-2.98,6.66-6.65c-.01-2.91-1.91-5.36-4.51-6.26Z" transform="translate(0-12.302875)" fill="url(#eOzYtCuLhFV27-fill)"/><path d="M250.68,399.88v-121.07l-42.33-42.33v-166.14h37.2v-306.02h-3.54v302.48h-37.2v171.13l42.33,42.34v119.61c-2.81.77-4.88,3.32-4.88,6.38c0,3.68,2.97,6.65,6.65,6.65c3.67,0,6.65-2.97,6.65-6.65c0-3.05-2.07-5.6-4.88-6.38Z" transform="translate(0 66.24625)" fill="url(#eOzYtCuLhFV28-fill)"/><path d="M265.1,370.25v-98.7l-42.33-42.34v-144.57h37.2v-327.56h-3.54v324.02h-37.2v149.58l42.33,42.33v97.23c-2.81.78-4.88,3.33-4.88,6.38c0,3.67,2.98,6.65,6.65,6.65s6.65-2.97,6.65-6.65c0-3.05-2.07-5.59-4.88-6.37Z" transform="translate(0 67.192625)" fill="url(#eOzYtCuLhFV29-fill)"/><path d="M281.19,364.35v-98.7l-42.33-42.33v-122.03h37.21v-350.11h-3.54v346.57h-37.2v127.04l42.34,42.33v97.23c-2.81.78-4.88,3.33-4.88,6.39c0,3.67,2.98,6.65,6.65,6.65s6.65-2.98,6.65-6.65c-.01-3.06-2.09-5.61-4.9-6.39Z" transform="translate(0 67.192625)" fill="url(#eOzYtCuLhFV30-fill)"/><path d="M111.71,-189.44h37.21v-327.57h-3.54v324.03h-37.2v149.58l42.33,42.33v84.08h-52.66c-.78-2.81-3.33-4.88-6.38-4.88-3.67,0-6.65,2.97-6.65,6.65c0,3.67,2.98,6.65,6.65,6.65c3.06,0,5.61-2.08,6.38-4.88h56.2v-89.09l-42.34-42.34v-144.56Z" transform="translate(9.63996 284.858875)" fill="url(#eOzYtCuLhFV31-fill)"/><path d="M170.15,147.75v-156.19l-42.34-42.33v-122.03h37.2v-350.12h-3.53v346.58h-37.2v127.03l42.33,42.33v154.72c-2.81.78-4.88,3.32-4.88,6.37c0,3.68,2.98,6.65,6.65,6.65s6.65-2.98,6.65-6.65c0-3.04-2.08-5.58-4.88-6.36Z" transform="translate(7.88724 286.751625)" fill="url(#eOzYtCuLhFV32-fill)"/><path d="M233.81,-54.97h-21.11v59.5c-2.81.78-4.88,3.33-4.88,6.38c0,3.67,2.98,6.65,6.65,6.65s6.65-2.98,6.65-6.65c0-3.05-2.08-5.6-4.88-6.38v-55.95h14.04v97.29h-33.68v-124.7h37.2v-298.75h-3.54v295.21h-37.2v131.77h40.74v-104.37h.01Z" fill="url(#eOzYtCuLhFV33-fill)"/><path d="M577.9,545.64v-121.08l-42.33-42.33v-238.07h-105.16v-443.7h-3.54v447.24h105.16v235.99l42.33,42.34v119.61c-2.81.78-4.88,3.32-4.88,6.38c0,3.67,2.98,6.65,6.65,6.65s6.65-2.98,6.65-6.65c0-3.07-2.07-5.61-4.88-6.38Z" fill="url(#eOzYtCuLhFV34-fill)"/><path d="M592.32,516.01v-98.7l-42.33-42.33v-247.03h-105.17v-427.48h-3.53v431.02h105.16v244.96l42.34,42.33v97.23c-2.81.78-4.88,3.33-4.88,6.38c0,3.68,2.98,6.65,6.65,6.65c3.68,0,6.65-2.97,6.65-6.65-.01-3.06-2.08-5.6-4.89-6.38Z" transform="translate(0 1.89275)" fill="url(#eOzYtCuLhFV35-fill)"/><path d="M460.81,71.35c3.05,0,5.6-2.08,6.38-4.88h35.13v-61.33L459.99,-37.2v-166.13h37.2v-306.01h-3.54v302.48h-37.2v171.13L498.78,6.6v56.33h-31.59c-.78-2.81-3.33-4.88-6.38-4.88-3.68,0-6.65,2.98-6.65,6.65s2.98,6.65,6.65,6.65Z" transform="translate(0 336.9095)" fill="url(#eOzYtCuLhFV36-fill)"/><path d="M470.87,-42.99L513.2,-0.65v84.08h-20.07c-.78-2.81-3.33-4.88-6.39-4.88-3.67,0-6.65,2.97-6.65,6.64c0,3.68,2.98,6.65,6.65,6.65c3.06,0,5.6-2.07,6.38-4.88h23.61v-89.08L474.4,-44.45v-144.58h37.2v-327.57h-3.53v324.02h-37.2v149.59Z" transform="translate(0 336.9095)" fill="url(#eOzYtCuLhFV37-fill)"/><path d="M555.76,49.82h40.75v-104.36h-21.11v59.49c-2.81.77-4.89,3.32-4.89,6.38c0,3.67,2.97,6.64,6.65,6.64s6.65-2.97,6.65-6.64c0-3.06-2.07-5.61-4.87-6.38v-55.95h14.03v97.29h-33.67v-124.71h37.2v-298.74h-3.54v295.21h-37.2v131.77Z" fill="url(#eOzYtCuLhFV38-fill)"/><path d="M419.04,516.68v-98.7l-42.33-42.33v-122.03h37.21v-553.15h-3.54v549.61h-37.2v127.04l42.33,42.33v97.23c-2.81.78-4.88,3.33-4.88,6.38c0,3.67,2.98,6.65,6.65,6.65s6.65-2.98,6.65-6.65c-.01-3.05-2.08-5.6-4.89-6.38Z" transform="translate(0-6.624625)" fill="url(#eOzYtCuLhFV39-fill)"/><path d="M336.83,200.11v-174.73L294.5,-16.95v-166.13h37.2v-306.02h-3.54v302.48h-37.2v171.14l42.33,42.33v173.26c-2.81.78-4.88,3.33-4.88,6.39c0,3.67,2.98,6.64,6.65,6.64s6.65-2.97,6.65-6.64c.01-3.06-2.07-5.61-4.88-6.39Z" fill="url(#eOzYtCuLhFV40-fill)"/><path d="M342.83,167.58c0,3.68,2.98,6.65,6.65,6.65s6.65-2.98,6.65-6.65c0-3.06-2.07-5.6-4.88-6.38v-143.07L308.92,-24.2v-144.58h37.2v-327.57h-3.54v324.03h-37.2v149.58l42.33,42.33v141.61c-2.8.78-4.88,3.32-4.88,6.38Z" fill="url(#eOzYtCuLhFV41-fill)"/><path d="M321.48,-28.64L363.81,13.7v113.3c-2.81.78-4.88,3.33-4.88,6.38c0,3.68,2.97,6.65,6.65,6.65c3.67,0,6.65-2.98,6.65-6.65c0-3.05-2.08-5.6-4.88-6.38v-114.76L325.02,-30.1v-122.04h37.2v-350.11h-3.54v346.57h-37.21v127.04h.01Z" fill="url(#eOzYtCuLhFV42-fill)"/><path d="M661.69,-64.1h32.31v-229.86l-34.27-31.85v-98.16h37.54v-160.31c2.81-.78,4.88-3.33,4.88-6.39c0-3.67-2.98-6.64-6.65-6.64s-6.65,2.97-6.65,6.64c0,3.06,2.07,5.61,4.88,6.39v156.78h-37.53v103.24l34.27,31.84v224.79h-32.31v166.31l42.33,42.33v126.6c0,0,.49-.08,0,0-1.76.27-5.21,3.61-1.18,7.21.38.33,1.68.98,2.86.99.89,0,2.77-.7,3.17-1.07c3.39-3.17.42-6.9-.84-7.13-.15-.03-.46-.19-.46-.19v-127.87L661.71,97.22v-161.32h-.02Z" transform="translate(.000001 158.991)" fill="url(#eOzYtCuLhFV43-fill)"/><path d="M676.11,-47.71h37.2v-255.33l-37.2-37.58v-66.05h37.26v-235.94c2.81-.78,4.88-3.33,4.88-6.38c0-3.68-2.98-6.65-6.65-6.65-3.68,0-6.65,2.98-6.65,6.65c0,3.06,2.07,5.6,4.88,6.38v232.4h-37.26v71.04l37.2,37.59v250.33h-37.2v149.58l42.33,42.34v110.26h3.53v-111.73L676.1,96.87v-144.58h.01Z" transform="translate(.87636 152.366375)" fill="url(#eOzYtCuLhFV44-fill)"/><path d="M732.58,225.29v-98.7L690.25,84.26v-122.03h37.21v-553.15h-3.54v549.61h-37.2v127.03l42.33,42.33v97.23c-2.81.78-4.88,3.32-4.88,6.38c0,3.68,2.98,6.65,6.65,6.65c3.68,0,6.65-2.97,6.65-6.65-.01-3.05-2.08-5.59-4.89-6.37Z" transform="translate(1.75272 163.722875)" fill="url(#eOzYtCuLhFV45-fill)"/><path d="M650.38,-91.28v-174.73l-42.34-42.33v-166.13h37.2v-306.02h-3.53v302.48h-37.21v171.13l.2.2v373.9h-37.21v171.14l42.33,42.33v119.61c-2.81.78-4.88,3.32-4.88,6.38c0,3.67,2.98,6.65,6.65,6.65s6.66-2.98,6.66-6.65c0-3.06-2.08-5.6-4.88-6.38v-121.08l-42.34-42.33v-166.13h37.2v-373.91l10.88,10.88v373.79h-37.2v149.58l42.34,42.33v97.24c-2.81.78-4.88,3.32-4.88,6.38c0,3.67,2.97,6.65,6.65,6.65s6.65-2.98,6.65-6.65c0-3.06-2.07-5.6-4.88-6.38v-98.7l-42.33-42.34v-144.57h37.2v-373.78l12.56,12.56v374.32h-37.2v127.04l42.33,42.34v97.23c-2.81.78-4.88,3.33-4.88,6.38c0,3.67,2.98,6.65,6.65,6.65s6.65-2.97,6.65-6.65c0-3.06-2.07-5.6-4.88-6.38v-98.7l-42.33-42.33v-122.03h37.2v-374.33l8.08,8.08v173.27c-2.81.78-4.88,3.33-4.88,6.39c0,3.67,2.98,6.65,6.65,6.65s6.64-2.98,6.64-6.65c.01-3.07-2.07-5.62-4.87-6.4Z" transform="translate(0 66.24625)" fill="url(#eOzYtCuLhFV46-fill)"/></g></g></svg>
