<svg xmlns="http://www.w3.org/2000/svg" viewBox="0 0 946 808" width="946" height="808" preserveAspectRatio="xMidYMid meet" style="width: 100%; height: 100%; transform: translate3d(0px, 0px, 0px); content-visibility: visible;"><defs><clipPath id="__lottie_element_59"><rect width="946" height="808" x="0" y="0"></rect></clipPath><clipPath id="__lottie_element_61"><path d="M0,0 L1080,0 L1080,1080 L0,1080z"></path></clipPath><clipPath id="__lottie_element_90"><path d="M0,0 L1080,0 L1080,1080 L0,1080z"></path></clipPath></defs><g clip-path="url(#__lottie_element_59)"><g clip-path="url(#__lottie_element_61)" transform="matrix(1,0,0,1,-72,-132)" opacity="1" style="display: none;"><g transform="matrix(1,0,0,1,540,540)" opacity="1" style="display: block;"><g opacity="1" transform="matrix(1,0,0,1,0,0)"><path fill="rgb(67,26,0)" fill-opacity="1" d=" M234.63999938964844,109.66600036621094 C234.63999938964844,238.8719940185547 129.9010009765625,343.6050109863281 0.7039999961853027,343.6050109863281 C-128.4929962158203,343.6050109863281 -233.23300170898438,238.8719940185547 -233.23300170898438,109.66600036621094 C-233.23300170898438,-19.535999298095703 -128.4929962158203,-124.27300262451172 0.7039999961853027,-124.27300262451172 C129.9010009765625,-124.27300262451172 234.63999938964844,-19.535999298095703 234.63999938964844,109.66600036621094z"></path></g><g opacity="1" transform="matrix(1,0,0,1,0,0)"><g opacity="1" transform="matrix(1,0,0,1,0,0)"><g opacity="1" transform="matrix(1,0,0,1,0,0)"><path fill="rgb(67,26,0)" fill-opacity="1" d=" M-417.2040100097656,122.36199951171875 C-417.2040100097656,122.36199951171875 -298.99200439453125,-38.21099853515625 -298.99200439453125,-38.21099853515625 C-298.99200439453125,-38.21099853515625 -232.11199951171875,-38.21099853515625 -232.11199951171875,-38.21099853515625 C-232.11199951171875,-38.21099853515625 -232.11199951171875,122.36199951171875 -232.11199951171875,122.36199951171875 C-232.11199951171875,122.36199951171875 -209.64100646972656,122.36199951171875 -209.64100646972656,122.36199951171875 C-209.64100646972656,122.36199951171875 -209.64100646972656,160.78700256347656 -209.64100646972656,160.78700256347656 C-209.64100646972656,160.78700256347656 -232.11199951171875,160.78700256347656 -232.11199951171875,160.78700256347656 C-232.11199951171875,160.78700256347656 -232.11199951171875,215.39199829101562 -232.11199951171875,215.39199829101562 C-232.11199951171875,215.39199829101562 -298.9989929199219,215.39199829101562 -298.9989929199219,215.39199829101562 C-298.9989929199219,215.39199829101562 -298.9989929199219,160.78700256347656 -298.9989929199219,160.78700256347656 C-298.9989929199219,160.78700256347656 -417.2040100097656,160.78700256347656 -417.2040100097656,160.78700256347656 C-417.2040100097656,160.78700256347656 -417.2040100097656,122.36199951171875 -417.2040100097656,122.36199951171875z M-298.9989929199219,122.36199951171875 C-298.9989929199219,122.36199951171875 -298.9989929199219,43.15800094604492 -298.9989929199219,43.15800094604492 C-298.9989929199219,43.15800094604492 -354.2359924316406,122.36199951171875 -354.2359924316406,122.36199951171875 C-354.2359924316406,122.36199951171875 -298.9989929199219,122.36199951171875 -298.9989929199219,122.36199951171875z"></path></g><g opacity="1" transform="matrix(1,0,0,1,0,0)"><path fill="rgb(67,26,0)" fill-opacity="1" d=" M208.3040008544922,122.36199951171875 C208.3040008544922,122.36199951171875 326.5119934082031,-38.21099853515625 326.5119934082031,-38.21099853515625 C326.5119934082031,-38.21099853515625 393.39300537109375,-38.21099853515625 393.39300537109375,-38.21099853515625 C393.39300537109375,-38.21099853515625 393.39300537109375,122.36199951171875 393.39300537109375,122.36199951171875 C393.39300537109375,122.36199951171875 417.2040100097656,122.36199951171875 417.2040100097656,122.36199951171875 C417.2040100097656,122.36199951171875 417.2040100097656,160.78700256347656 417.2040100097656,160.78700256347656 C417.2040100097656,160.78700256347656 393.39300537109375,160.78700256347656 393.39300537109375,160.78700256347656 C393.39300537109375,160.78700256347656 393.39300537109375,215.39199829101562 393.39300537109375,215.39199829101562 C393.39300537109375,215.39199829101562 326.5090026855469,215.39199829101562 326.5090026855469,215.39199829101562 C326.5090026855469,215.39199829101562 326.5090026855469,160.78700256347656 326.5090026855469,160.78700256347656 C326.5090026855469,160.78700256347656 208.3040008544922,160.78700256347656 208.3040008544922,160.78700256347656 C208.3040008544922,160.78700256347656 208.3040008544922,122.36199951171875 208.3040008544922,122.36199951171875z M326.5090026855469,122.36199951171875 C326.5090026855469,122.36199951171875 326.5090026855469,43.15800094604492 326.5090026855469,43.15800094604492 C326.5090026855469,43.15800094604492 271.2690124511719,122.36199951171875 271.2690124511719,122.36199951171875 C271.2690124511719,122.36199951171875 326.5090026855469,122.36199951171875 326.5090026855469,122.36199951171875z"></path></g></g></g></g><g transform="matrix(1,0,0,1,540,552)" opacity="1" style="display: block;"><g opacity="1" transform="matrix(1,0,0,1,0,0)"><g opacity="1" transform="matrix(1,0,0,1,0,0)"><path fill="rgb(67,26,0)" fill-opacity="1" d=" M173.3179931640625,-69.29100036621094 C152.70599365234375,-78.0719985961914 114.66799926757812,-75.13200378417969 98.71399688720703,-31.03499984741211 C98.71399688720703,-31.03499984741211 179.2989959716797,29.95400047302246 179.2989959716797,29.95400047302246 C216.73800659179688,6.151000022888184 214.63999938964844,-50.96200180053711 173.3179931640625,-69.29100036621094z M158.9340057373047,0.003000000026077032 C158.9340057373047,0.003000000026077032 130.74099731445312,-21.333999633789062 130.74099731445312,-21.333999633789062 C136.32200622558594,-36.76100158691406 149.6300048828125,-37.79100036621094 156.843994140625,-34.71799850463867 C171.29800415039062,-28.30500030517578 172.0330047607422,-8.324999809265137 158.9340057373047,0.003000000026077032z"></path></g><g opacity="1" transform="matrix(1,0,0,1,0,0)"><path fill="rgb(255,60,0)" fill-opacity="1" d=" M156.843994140625,-34.71799850463867 C149.6300048828125,-37.79100036621094 136.32200622558594,-36.76100158691406 130.74099731445312,-21.333999633789062 C130.74099731445312,-21.333999633789062 158.9340057373047,0.003000000026077032 158.9340057373047,0.003000000026077032 C172.0330047607422,-8.324999809265137 171.29800415039062,-28.30500030517578 156.843994140625,-34.71799850463867z"></path></g><g opacity="1" transform="matrix(1,0,0,1,0,0)"><path fill="rgb(67,26,0)" fill-opacity="1" d=" M-170.20199584960938,-69.29100036621094 C-211.52699279785156,-50.96200180053711 -213.62100219726562,6.151000022888184 -176.18699645996094,29.95400047302246 C-176.18699645996094,29.95400047302246 -95.59700012207031,-31.03499984741211 -95.59700012207031,-31.03499984741211 C-111.5530014038086,-75.13200378417969 -149.58999633789062,-78.0719985961914 -170.20199584960938,-69.29100036621094z M-155.82000732421875,0.003000000026077032 C-168.91600036621094,-8.324999809265137 -168.1840057373047,-28.30500030517578 -153.72500610351562,-34.71799850463867 C-146.51800537109375,-37.79100036621094 -133.20799255371094,-36.76100158691406 -127.625,-21.333999633789062 C-127.625,-21.333999633789062 -155.82000732421875,0.003000000026077032 -155.82000732421875,0.003000000026077032z"></path></g><g opacity="1" transform="matrix(1,0,0,1,0,0)"><path fill="rgb(255,60,0)" fill-opacity="1" d=" M-153.72500610351562,-34.71799850463867 C-168.1840057373047,-28.30500030517578 -168.91600036621094,-8.324999809265137 -155.82000732421875,0.003000000026077032 C-155.82000732421875,0.003000000026077032 -127.625,-21.333999633789062 -127.625,-21.333999633789062 C-133.20799255371094,-36.76100158691406 -146.51800537109375,-37.79100036621094 -153.72500610351562,-34.71799850463867z"></path></g></g><g opacity="1" transform="matrix(1,0,0,1,0,0)"><path fill="rgb(67,26,0)" fill-opacity="1" d=" M166.77000427246094,-61.47200012207031 C182.8509979248047,-57.055999755859375 194.91400146484375,-41.20600128173828 194.90899658203125,-25.121999740600586 C194.90699768066406,-16.246000289916992 186.57000732421875,-11.842000007629395 175.9709930419922,-36.00699996948242 C168.04800415039062,-54.07500076293945 147.12600708007812,-53.75899887084961 149.71499633789062,-58.71500015258789 C151.78900146484375,-62.680999755859375 160.82699584960938,-63.10200119018555 166.77000427246094,-61.47200012207031z"></path></g><g opacity="1" transform="matrix(1,0,0,1,0,0)"><path fill="rgb(67,26,0)" fill-opacity="1" d=" M-163.6529998779297,-61.47200012207031 C-179.73599243164062,-57.055999755859375 -191.8000030517578,-41.20600128173828 -191.7949981689453,-25.121999740600586 C-191.79299926757812,-16.246000289916992 -183.45399475097656,-11.842000007629395 -172.85699462890625,-36.00699996948242 C-164.9320068359375,-54.07500076293945 -144.00900268554688,-53.75899887084961 -146.59800720214844,-58.71500015258789 C-148.6739959716797,-62.680999755859375 -157.71200561523438,-63.10200119018555 -163.6529998779297,-61.47200012207031z"></path></g></g><g transform="matrix(1,0,0,1,540,520)" opacity="1" style="display: block;"><g opacity="1" transform="matrix(1,0,0,1,0,0)"><g opacity="1" transform="matrix(1,0,0,1,0,0)"><path fill="rgb(255,60,0)" fill-opacity="1" d=" M98.18800354003906,168.33399963378906 C139.66099548339844,137.23399353027344 180.66799926757812,148.09500122070312 202.9810028076172,158.45599365234375 C205.2740020751953,142.1280059814453 225,-67 1.590999960899353,-62.20500183105469 C1.590999960899353,-62.20500183105469 1.590999960899353,-62.20800018310547 1.590999960899353,-62.20800018310547 C1.5490000247955322,-62.20800018310547 1.5080000162124634,-62.20500183105469 1.465999960899353,-62.20500183105469 C1.4259999990463257,-62.20500183105469 1.3880000114440918,-62.20800018310547 1.3459999561309814,-62.20800018310547 C1.3459999561309814,-62.20800018310547 1.3459999561309814,-62.20500183105469 1.3459999561309814,-62.20500183105469 C-211,-65 -198.34100341796875,140.39999389648438 -196.04800415039062,156.72799682617188 C-173.73199462890625,146.36399841308594 -132.72300720214844,135.50900268554688 -91.25,166.60699462890625 C-49.529998779296875,197.88600158691406 -60.0989990234375,276.53900146484375 -65.15699768066406,303.31500244140625 C-57,308 -22.051000595092773,313.32598876953125 1.937999963760376,313.43701171875 C1.9800000190734863,313.43701171875 2.0179998874664307,313.43701171875 2.058000087738037,313.43701171875 C2.0999999046325684,313.43701171875 2.140000104904175,313.43798828125 2.181999921798706,313.43701171875 C45.5,312.5 60,308.5 71.27300262451172,303.31500244140625 C66.22200012207031,276.53900146484375 56.465999603271484,199.61300659179688 98.18800354003906,168.33399963378906z"></path></g><g opacity="1" transform="matrix(1,0,0,1,0,0)"><path fill="rgb(255,60,0)" fill-opacity="1" d=" M-91.25,166.6060028076172 C-132.72300720214844,135.50799560546875 -173.73199462890625,146.36399841308594 -196.04800415039062,156.72799682617188 C-186.50599670410156,224.66400146484375 -136.14100646972656,290.6000061035156 -65.15699768066406,303.31500244140625 C-60.0989990234375,276.53900146484375 -49.529998779296875,197.88499450683594 -91.25,166.6060028076172z"></path></g><g opacity="1" transform="matrix(1,0,0,1,0,0)"><path fill="rgb(255,60,0)" fill-opacity="1" d=" M202.9810028076172,158.45599365234375 C180.66799926757812,148.09500122070312 139.66000366210938,137.23399353027344 98.18699645996094,168.33399963378906 C56.46500015258789,199.61300659179688 66.22200012207031,276.53900146484375 71.27300262451172,303.31500244140625 C142.25900268554688,290.6000061035156 193.4459991455078,226.39199829101562 202.9810028076172,158.45599365234375z"></path></g></g><g opacity="1" transform="matrix(1,0,0,1,0,0)"><path fill="rgb(255,60,0)" fill-opacity="1" d=" M-91.25,166.6060028076172 C-132.72300720214844,135.50799560546875 -173.73199462890625,146.36399841308594 -196.04800415039062,156.72799682617188 C-186.50599670410156,224.66400146484375 -136.14100646972656,290.6000061035156 -65.15699768066406,303.31500244140625 C-60.0989990234375,276.53900146484375 -49.529998779296875,197.88499450683594 -91.25,166.6060028076172z"></path></g><g opacity="1" transform="matrix(1,0,0,1,0,0)"><path fill="rgb(255,60,0)" fill-opacity="1" d=" M202.9810028076172,158.45599365234375 C180.66799926757812,148.09500122070312 139.66000366210938,137.23399353027344 98.18699645996094,168.33399963378906 C56.46500015258789,199.61300659179688 66.22200012207031,276.53900146484375 71.27300262451172,303.31500244140625 C142.25900268554688,290.6000061035156 193.4459991455078,226.39199829101562 202.9810028076172,158.45599365234375z"></path></g></g><g transform="matrix(1,0,0,1,540,480)" opacity="1" style="display: block;"><g opacity="1" transform="matrix(1,0,0,1,0,0)"><g opacity="1" transform="matrix(1,0,0,1,0,0)"><path fill="rgb(67,26,0)" fill-opacity="1" d=" M2.572999954223633,127.36399841308594 C-2.986999988555908,127.65299987792969 -12.928999900817871,128.24000549316406 -11.756999969482422,135.8419952392578 C-10.880999565124512,142.2729949951172 -2.986999988555908,149.29200744628906 1.784000039100647,149.29200744628906 C9.58899974822998,149.29200744628906 26.259000778198242,127.31199645996094 2.572999954223633,127.36399841308594z"></path></g></g></g><g transform="matrix(0.9659258127212524,0.258819043636322,-0.258819043636322,0.9659258127212524,565.9376220703125,501.8242492675781)" opacity="1" style="display: block;"><g opacity="1" transform="matrix(1,0,0,1,0,0)"><path fill="rgb(67,26,0)" fill-opacity="1" d=" M-29.89699935913086,69.13099670410156 C-15.6850004196167,89.03399658203125 -30.364999771118164,123.87999725341797 -62.6870002746582,146.96099853515625 C-95.00800323486328,170.03700256347656 -132.72500610351562,172.61199951171875 -146.93899536132812,152.70899963378906 C-161.14599609375,132.80599975585938 -146.4709930419922,97.95500183105469 -114.14700317382812,74.87799835205078 C-81.8280029296875,51.801998138427734 -44.106998443603516,49.22700119018555 -29.89699935913086,69.13099670410156z"></path></g><g opacity="1" transform="matrix(1,0,0,1,0,0)"><path fill="rgb(255,60,0)" fill-opacity="1" d=" M-69.4000015258789,95.81600189208984 C-77.0469970703125,95.81600189208984 -83.2490005493164,102.01599884033203 -83.2490005493164,109.66400146484375 C-83.2490005493164,117.31400299072266 -77.0469970703125,123.51300048828125 -69.4000015258789,123.51300048828125 C-61.75299835205078,123.51300048828125 -55.55799865722656,117.31400299072266 -55.55799865722656,109.66400146484375 C-55.55799865722656,102.01599884033203 -61.75299835205078,95.81600189208984 -69.4000015258789,95.81600189208984z M-69.4000015258789,113.33300018310547 C-71.43099975585938,113.33300018310547 -73.0719985961914,111.68800354003906 -73.0719985961914,109.66400146484375 C-73.0719985961914,107.63700103759766 -71.43099975585938,105.99500274658203 -69.4000015258789,105.99500274658203 C-67.37799835205078,105.99500274658203 -65.73500061035156,107.63700103759766 -65.73500061035156,109.66400146484375 C-65.73500061035156,111.68800354003906 -67.37799835205078,113.33300018310547 -69.4000015258789,113.33300018310547z"></path></g></g><g transform="matrix(0.9659258127212524,-0.258819043636322,0.258819043636322,0.9659258127212524,514.1282348632812,502.3245544433594)" opacity="1" style="display: block;"><g opacity="1" transform="matrix(1,0,0,1,0,0)"><path fill="rgb(67,26,0)" fill-opacity="1" d=" M32.83000183105469,69.13099670410156 C18.618000030517578,89.03399658203125 33.29899978637695,123.87999725341797 65.61799621582031,146.96099853515625 C97.94000244140625,170.03700256347656 135.66299438476562,172.61199951171875 149.8699951171875,152.70899963378906 C164.08200073242188,132.80599975585938 149.4040069580078,97.95500183105469 117.08200073242188,74.87799835205078 C84.76300048828125,51.801998138427734 47.040000915527344,49.22700119018555 32.83000183105469,69.13099670410156z"></path></g><g opacity="1" transform="matrix(1,0,0,1,0,0)"><path fill="rgb(255,60,0)" fill-opacity="1" d=" M72.33799743652344,95.81600189208984 C64.69300079345703,95.81600189208984 58.49300003051758,102.01599884033203 58.49300003051758,109.66400146484375 C58.49300003051758,117.31400299072266 64.69300079345703,123.51300048828125 72.33799743652344,123.51300048828125 C79.98799896240234,123.51300048828125 86.18699645996094,117.31400299072266 86.18699645996094,109.66400146484375 C86.18699645996094,102.01599884033203 79.98799896240234,95.81600189208984 72.33799743652344,95.81600189208984z M72.33799743652344,113.33300018310547 C70.31600189208984,113.33300018310547 68.6729965209961,111.68800354003906 68.6729965209961,109.66400146484375 C68.6729965209961,107.63700103759766 70.31600189208984,105.99500274658203 72.33799743652344,105.99500274658203 C74.36699676513672,105.99500274658203 76.00499725341797,107.63700103759766 76.00499725341797,109.66400146484375 C76.00499725341797,111.68800354003906 74.36699676513672,113.33300018310547 72.33799743652344,113.33300018310547z"></path></g></g><g transform="matrix(1,0,0,1,540,480)" opacity="1" style="display: block;"><g opacity="1" transform="matrix(1,0,0,1,0,0)"><path fill="rgb(255,60,0)" fill-opacity="1" d=" M-41.98500061035156,230.1490020751953 C-38.03099822998047,244.10699462890625 -16.974000930786133,252.20700073242188 1.628000020980835,252.20700073242188 C14.170000076293945,252.20700073242188 35.81800079345703,249.82400512695312 42.972999572753906,242.46400451660156 C24.60300064086914,227.2830047607422 -22.297000885009766,221.49600219726562 -41.98500061035156,230.1490020751953z"></path></g><g opacity="1" transform="matrix(1,0,0,1,0,0)"><path fill="rgb(67,26,0)" fill-opacity="1" d=" M51.222999572753906,223.20700073242188 C51.222999572753906,205.89100646972656 23.722000122070312,197.5 2.128000020980835,197.5 C-19.461000442504883,197.5 -42.9640007019043,205.86199951171875 -42.9640007019043,223.17799377441406 C-42.9640007019043,225.5749969482422 -42.61800003051758,227.9040069580078 -41.98500061035156,230.1490020751953 C-22.297000885009766,221.49600219726562 24.60300064086914,227.2830047607422 42.972999572753906,242.46400451660156 C48.13600158691406,237.14999389648438 51.222999572753906,230.4720001220703 51.222999572753906,223.20700073242188z"></path></g></g><g transform="matrix(1,0,0,1,540,540)" opacity="1" style="display: none;"><g opacity="1" transform="matrix(1,0,0,1,0,0)"><path fill="rgb(67,26,0)" fill-opacity="1" d=" M0.7039999961853027,-73.26599884033203 C12.274999618530273,-170.51400756835938 124.66899871826172,-150.1790008544922 210.41799926757812,-151.92999267578125 C279.72900390625,-153.34500122070312 316.74798583984375,-160.71600341796875 311.93701171875,-235.37399291992188 C310.24200439453125,-261.68499755859375 333.90899658203125,-354.54998779296875 194.0919952392578,-342.1679992675781 C54.277000427246094,-329.7869873046875 -93.13300323486328,-345.97698974609375 -182.16099548339844,-343.29998779296875 C-271.1889953613281,-340.6199951171875 -303.3949890136719,-322.0469970703125 -305.0920104980469,-241.56700134277344 C-306.78900146484375,-161.08399963378906 -294.5830078125,-146.2100067138672 -164.25599670410156,-153.34500122070312 C5.361999988555908,-162.6320037841797 0.7039999961853027,-73.26599884033203 0.7039999961853027,-73.26599884033203z"></path></g><g opacity="1" transform="matrix(1,0,0,1,0,0)"><g opacity="1" transform="matrix(1,0,0,1,0,0)"><path fill="rgb(255,60,0)" fill-opacity="1" d=" M-187.11199951171875,-288.1440124511719 C-182.35000610351562,-282.6659851074219 -179.3040008544922,-276.18798828125 -177.96800231933594,-268.71099853515625 C-176.63600158691406,-261.23199462890625 -175.9669952392578,-252.77999877929688 -175.9669952392578,-243.35000610351562 C-175.9669952392578,-235.7270050048828 -177.11199951171875,-227.8939971923828 -179.39700317382812,-219.84500122070312 C-181.6840057373047,-211.79400634765625 -185.20799255371094,-205.0070037841797 -189.9709930419922,-199.48399353027344 C-194.73500061035156,-193.96099853515625 -200.59300231933594,-191.1959991455078 -207.5449981689453,-191.1959991455078 C-221.16799926757812,-191.1959991455078 -230.2169952392578,-196.9340057373047 -234.6929931640625,-208.41400146484375 C-239.1719970703125,-219.89199829101562 -241.4080047607422,-232.20399475097656 -241.4080047607422,-245.35000610351562 C-241.4080047607422,-258.0169982910156 -239.6719970703125,-268.1610107421875 -236.19400024414062,-275.78399658203125 C-232.71800231933594,-283.40399169921875 -228.47799682617188,-288.7380065917969 -223.4759979248047,-291.7869873046875 C-218.47500610351562,-294.8340148925781 -213.4980010986328,-296.3590087890625 -208.5449981689453,-296.3590087890625 C-199.02099609375,-296.3590087890625 -191.8769989013672,-293.6199951171875 -187.11199951171875,-288.1440124511719z M-202.97300720214844,-231.7760009765625 C-201.73599243164062,-234.63299560546875 -201.11599731445312,-238.06300354003906 -201.11599731445312,-242.06300354003906 C-201.11599731445312,-245.87100219726562 -201.71099853515625,-249.20799255371094 -202.9010009765625,-252.06500244140625 C-204.09300231933594,-254.9219970703125 -205.68699645996094,-256.35198974609375 -207.68699645996094,-256.35198974609375 C-210.07000732421875,-256.35198974609375 -211.8560028076172,-254.70899963378906 -213.04600524902344,-251.4219970703125 C-214.23800659179688,-248.13600158691406 -214.83200073242188,-244.58700561523438 -214.83200073242188,-240.77699279785156 C-214.83200073242188,-236.87100219726562 -214.4530029296875,-233.67999267578125 -213.68899536132812,-231.20399475097656 C-212.92799377441406,-228.72500610351562 -211.26100158691406,-227.48899841308594 -208.68800354003906,-227.48899841308594 C-206.11700439453125,-227.48899841308594 -204.21200561523438,-228.91700744628906 -202.97300720214844,-231.7760009765625z"></path></g><g opacity="1" transform="matrix(1,0,0,1,0,0)"><path fill="rgb(255,60,0)" fill-opacity="1" d=" M-82.87999725341797,-278.6419982910156 C-79.40399932861328,-272.1629943847656 -76.9749984741211,-265.8529968261719 -75.59300231933594,-259.7090148925781 C-74.21299743652344,-253.5659942626953 -73.5199966430664,-248.7310028076172 -73.5199966430664,-245.20700073242188 C-73.5199966430664,-239.3000030517578 -74.4489974975586,-232.4409942626953 -76.30699920654297,-224.63099670410156 C-78.16400146484375,-216.81900024414062 -82.14299774169922,-209.5570068359375 -88.23699951171875,-202.8419952392578 C-94.33399963378906,-196.1269989013672 -103.14700317382812,-192.76800537109375 -114.6709976196289,-192.76800537109375 C-130.48500061035156,-192.76800537109375 -141.7259979248047,-201.9600067138672 -148.39199829101562,-220.34500122070312 C-151.3459930419922,-228.63099670410156 -153.01400756835938,-237.8699951171875 -153.3939971923828,-248.06399536132812 C-153.3939971923828,-256.4460144042969 -151.6320037841797,-264.42498779296875 -148.1060028076172,-271.99798583984375 C-144.58399963378906,-279.57000732421875 -139.93899536132812,-285.64300537109375 -134.1750030517578,-290.2149963378906 C-128.41299438476562,-294.7879943847656 -122.48300170898438,-297.0740051269531 -116.38600158691406,-297.0740051269531 C-110.86299896240234,-297.0740051269531 -106.74099731445312,-296.9309997558594 -104.0260009765625,-296.6449890136719 C-101.31099700927734,-296.3590087890625 -98.86100006103516,-295.50299072265625 -96.66799926757812,-294.072998046875 C-90.9520034790039,-290.2619934082031 -86.35800170898438,-285.1180114746094 -82.87999725341797,-278.6419982910156z M-92.80999755859375,-213.4149932861328 C-87.85800170898438,-221.8459930419922 -85.37999725341797,-232.4409942626953 -85.37999725341797,-245.20700073242188 C-85.37999725341797,-253.01699829101562 -86.5469970703125,-260.23199462890625 -88.88099670410156,-266.85400390625 C-91.21600341796875,-273.4729919433594 -94.50299835205078,-278.760986328125 -98.73999786376953,-282.7139892578125 C-102.9800033569336,-286.6659851074219 -107.86199951171875,-288.6440124511719 -113.38600158691406,-288.6440124511719 C-113.86399841308594,-288.6440124511719 -115.1240005493164,-288.6440124511719 -117.1719970703125,-288.6440124511719 C-119.22200012207031,-288.6440124511719 -121.00700378417969,-288.3089904785156 -122.52999877929688,-287.6440124511719 C-124.05500030517578,-286.97698974609375 -125.43699645996094,-285.9750061035156 -126.67400360107422,-284.6419982910156 C-129.81700134277344,-281.4989929199219 -132.46099853515625,-278.61700439453125 -134.60400390625,-275.99798583984375 C-136.7469940185547,-273.37701416015625 -138.88999938964844,-269.49700927734375 -141.03399658203125,-264.3529968261719 C-143.177001953125,-259.2090148925781 -144.2480010986328,-253.2550048828125 -144.2480010986328,-246.4929962158203 C-144.2480010986328,-238.49099731445312 -143.2729949951172,-231.03700256347656 -141.31900024414062,-224.13099670410156 C-139.3679962158203,-217.2239990234375 -136.24600219726562,-211.60400390625 -131.9600067138672,-207.27099609375 C-127.67400360107422,-202.93499755859375 -122.1500015258789,-200.7689971923828 -115.38500213623047,-200.7689971923828 C-105.29000091552734,-200.7689971923828 -97.76300048828125,-204.98500061035156 -92.80999755859375,-213.4149932861328z"></path></g><g opacity="1" transform="matrix(1,0,0,1,0,0)"><path fill="rgb(255,60,0)" fill-opacity="1" d=" M3.3489999771118164,-288.1440124511719 C8.111000061035156,-282.6659851074219 11.159000396728516,-276.18798828125 12.494000434875488,-268.71099853515625 C13.829000473022461,-261.23199462890625 14.494000434875488,-252.77999877929688 14.494000434875488,-243.35000610351562 C14.494000434875488,-235.7270050048828 13.352999687194824,-227.8939971923828 11.0649995803833,-219.84500122070312 C8.779999732971191,-211.79400634765625 5.254000186920166,-205.0070037841797 0.492000013589859,-199.48399353027344 C-4.271999835968018,-193.96099853515625 -10.130000114440918,-191.1959991455078 -17.082000732421875,-191.1959991455078 C-30.704999923706055,-191.1959991455078 -39.75400161743164,-196.9340057373047 -44.22999954223633,-208.41400146484375 C-48.70899963378906,-219.89199829101562 -50.94599914550781,-232.20399475097656 -50.94599914550781,-245.35000610351562 C-50.94599914550781,-258.0169982910156 -49.20899963378906,-268.1610107421875 -45.73099899291992,-275.78399658203125 C-42.255001068115234,-283.40399169921875 -38.01599884033203,-288.7380065917969 -33.013999938964844,-291.7869873046875 C-28.01300048828125,-294.8340148925781 -23.035999298095703,-296.3590087890625 -18.08300018310547,-296.3590087890625 C-8.559000015258789,-296.3590087890625 -1.4149999618530273,-293.6199951171875 3.3489999771118164,-288.1440124511719z M-12.510000228881836,-231.7760009765625 C-11.27299976348877,-234.63299560546875 -10.652999877929688,-238.06300354003906 -10.652999877929688,-242.06300354003906 C-10.652999877929688,-245.87100219726562 -11.248000144958496,-249.20799255371094 -12.437999725341797,-252.06500244140625 C-13.630000114440918,-254.9219970703125 -15.225000381469727,-256.35198974609375 -17.225000381469727,-256.35198974609375 C-19.607999801635742,-256.35198974609375 -21.39299964904785,-254.70899963378906 -22.58300018310547,-251.4219970703125 C-23.774999618530273,-248.13600158691406 -24.368999481201172,-244.58700561523438 -24.368999481201172,-240.77699279785156 C-24.368999481201172,-236.87100219726562 -23.990999221801758,-233.67999267578125 -23.226999282836914,-231.20399475097656 C-22.465999603271484,-228.72500610351562 -20.79800033569336,-227.48899841308594 -18.225000381469727,-227.48899841308594 C-15.654000282287598,-227.48899841308594 -13.74899959564209,-228.91700744628906 -12.510000228881836,-231.7760009765625z"></path></g><g opacity="1" transform="matrix(1,0,0,1,0,0)"><path fill="rgb(255,60,0)" fill-opacity="1" d=" M104.44000244140625,-283.5 C106.20099639892578,-281.40399169921875 107.55899810791016,-279.07000732421875 108.51200103759766,-276.4989929199219 C109.46299743652344,-273.9280090332031 109.94100189208984,-271.1629943847656 109.94100189208984,-268.21099853515625 C109.94100189208984,-260.3039855957031 107.62999725341797,-253.97000122070312 103.01200103759766,-249.20799255371094 C98.38899993896484,-244.4429931640625 92.55599975585938,-240.82400512695312 85.50700378417969,-238.34800720214844 C77.88600158691406,-235.77699279785156 69.74099731445312,-234.44200134277344 61.07500076293945,-234.34800720214844 C61.07500076293945,-234.34800720214844 60.78799819946289,-218.7729949951172 60.78799819946289,-218.7729949951172 C60.78799819946289,-218.7729949951172 60.50299835205078,-198.62600708007812 60.50299835205078,-198.62600708007812 C60.50299835205078,-195.7689971923828 59.35900115966797,-194.33999633789062 57.07400131225586,-194.33999633789062 C56.50199890136719,-194.33999633789062 55.93000030517578,-194.38699340820312 55.358001708984375,-194.48199462890625 C54.78799819946289,-194.5760040283203 54.310001373291016,-194.62600708007812 53.92900085449219,-194.62600708007812 C53.92900085449219,-194.62600708007812 48.500999450683594,-194.33999633789062 48.500999450683594,-194.33999633789062 C48.500999450683594,-194.33999633789062 42.928001403808594,-194.0540008544922 42.928001403808594,-194.0540008544922 C41.87799835205078,-194.0540008544922 41.165000915527344,-194.4340057373047 40.7859992980957,-195.19700622558594 C40.402000427246094,-195.95799255371094 40.2140007019043,-197.1020050048828 40.2140007019043,-198.62600708007812 C40.2140007019043,-199.1009979248047 40.23500061035156,-200.00599670410156 40.284000396728516,-201.34100341796875 C40.33100128173828,-202.6739959716797 40.35499954223633,-204.6739959716797 40.35499954223633,-207.3419952392578 C40.641998291015625,-221.91600036621094 40.7859992980957,-229.29800415039062 40.7859992980957,-229.49000549316406 C40.7859992980957,-229.49000549316406 40.7859992980957,-268.6390075683594 40.7859992980957,-268.6390075683594 C40.7859992980957,-272.4490051269531 40.9739990234375,-276.5929870605469 41.35499954223633,-281.0710144042969 C41.35499954223633,-281.0710144042969 41.926998138427734,-290.5010070800781 41.926998138427734,-290.5010070800781 C41.926998138427734,-292.02398681640625 42.09199905395508,-292.9049987792969 42.42900085449219,-293.1440124511719 C42.76100158691406,-293.3810119628906 43.5,-293.50201416015625 44.64400100708008,-293.50201416015625 C45.40399932861328,-293.50201416015625 47.68899917602539,-293.6919860839844 51.5,-294.072998046875 C56.45199966430664,-294.6449890136719 60.40599822998047,-294.9309997558594 63.36000061035156,-294.9309997558594 C71.36000061035156,-294.9309997558594 77.48100280761719,-294.80999755859375 81.72200012207031,-294.572998046875 C85.95899963378906,-294.3340148925781 89.7699966430664,-293.6659851074219 93.1520004272461,-292.572998046875 C96.53199768066406,-291.47601318359375 99.2239990234375,-289.7380065917969 101.2249984741211,-287.3580017089844 C101.60399627685547,-286.8800048828125 102.67500305175781,-285.5950012207031 104.44000244140625,-283.5z M96.79499816894531,-252.27999877929688 C98.41400146484375,-254.9949951171875 99.2249984741211,-258.63800048828125 99.2249984741211,-263.2099914550781 C99.2249984741211,-266.8290100097656 98.84400177001953,-270.59100341796875 98.08100128173828,-274.49798583984375 C97.31800079345703,-278.40301513671875 95.1729965209961,-281.40399169921875 91.6520004272461,-283.5 C88.1259994506836,-285.5950012207031 83.88700103759766,-286.97698974609375 78.93499755859375,-287.6440124511719 C76.36199951171875,-288.02398681640625 73.31199645996094,-288.2149963378906 69.79100036621094,-288.2149963378906 C68.26599884033203,-288.2149963378906 65.69300079345703,-288.1189880371094 62.07500076293945,-287.92999267578125 C62.07500076293945,-287.92999267578125 61.215999603271484,-241.77699279785156 61.215999603271484,-241.77699279785156 C64.93299865722656,-241.6820068359375 68.50399780273438,-241.8249969482422 71.93299865722656,-242.20599365234375 C79.74299621582031,-242.7779998779297 85.50599670410156,-243.96800231933594 89.2229995727539,-245.7790069580078 C92.6520004272461,-247.39700317382812 95.1729965209961,-249.56500244140625 96.79499816894531,-252.27999877929688z"></path></g><g opacity="1" transform="matrix(1,0,0,1,0,0)"><path fill="rgb(255,60,0)" fill-opacity="1" d=" M182.02499389648438,-291.42999267578125 C187.88299560546875,-287.8580017089844 192.43099975585938,-284.45001220703125 195.6719970703125,-281.2139892578125 C196.05099487304688,-280.8320007324219 196.24400329589844,-280.40301513671875 196.24400329589844,-279.9280090332031 C196.24400329589844,-279.6419982910156 196.12100219726562,-279.28399658203125 195.88600158691406,-278.8559875488281 C195.64599609375,-278.4280090332031 195.47799682617188,-278.1159973144531 195.38400268554688,-277.927001953125 C194.906005859375,-277.260009765625 194.1199951171875,-276.0920104980469 193.0279998779297,-274.427001953125 C191.93099975585938,-272.75799560546875 191.0489959716797,-271.54400634765625 190.38499450683594,-270.78399658203125 C190.09800720214844,-270.4020080566406 189.78700256347656,-269.99700927734375 189.4550018310547,-269.5690002441406 C189.12100219726562,-269.1390075683594 188.83399963378906,-268.8299865722656 188.5989990234375,-268.6390075683594 C188.35899353027344,-268.4469909667969 188.0030059814453,-268.3550109863281 187.5279998779297,-268.3550109863281 C187.3350067138672,-268.3550109863281 186.8820037841797,-268.6619873046875 186.16900634765625,-269.2829895019531 C185.4530029296875,-269.9010009765625 184.76199340820312,-270.447998046875 184.09800720214844,-270.9259948730469 C180.28500366210938,-274.2590026855469 176.5709991455078,-277.11700439453125 172.9530029296875,-279.5 C169.33099365234375,-281.8800048828125 165.85400390625,-283.0710144042969 162.52099609375,-283.0710144042969 C159.85400390625,-283.0710144042969 157.66400146484375,-282.4750061035156 155.9499969482422,-281.2850036621094 C154.23399353027344,-280.0929870605469 153.3769989013672,-277.40301513671875 153.3769989013672,-273.2130126953125 C153.3769989013672,-269.114990234375 154.89999389648438,-265.9259948730469 157.9499969482422,-263.6390075683594 C160.99600219726562,-261.35198974609375 165.04400634765625,-259.1610107421875 170.09300231933594,-257.0660095214844 C170.5709991455078,-256.8739929199219 173.3560028076172,-255.6840057373047 178.45399475097656,-253.49400329589844 C183.54800415039062,-251.30099487304688 188.07400512695312,-247.11099243164062 192.0279998779297,-240.92100524902344 C195.97999572753906,-234.7270050048828 197.95700073242188,-227.3470001220703 197.95700073242188,-218.7729949951172 C197.95700073242188,-209.62899780273438 194.5279998779297,-202.77000427246094 187.66900634765625,-198.197998046875 C180.80999755859375,-193.62600708007812 171.33200073242188,-191.33900451660156 159.23599243164062,-191.33900451660156 C145.51800537109375,-191.33900451660156 136.802001953125,-193.98199462890625 133.08799743652344,-199.27000427246094 C129.37100219726562,-204.5570068359375 127.41999816894531,-207.29400634765625 127.22899627685547,-207.48599243164062 C126.8479995727539,-207.96099853515625 126.65699768066406,-208.43600463867188 126.65699768066406,-208.91400146484375 C126.65699768066406,-209.1999969482422 127.03600311279297,-209.8179931640625 127.8010025024414,-210.77099609375 C129.03700256347656,-212.48599243164062 130.8470001220703,-214.53399658203125 133.2310028076172,-216.91600036621094 C133.61000061035156,-217.2949981689453 133.99200439453125,-217.48699951171875 134.3730010986328,-217.48699951171875 C134.84800720214844,-217.48699951171875 135.3730010986328,-217.1300048828125 135.94500732421875,-216.41600036621094 C136.51699829101562,-215.70199584960938 136.9929962158203,-215.15199279785156 137.37399291992188,-214.7729949951172 C142.99200439453125,-209.1510009765625 149.375,-206.3419952392578 156.5189971923828,-206.3419952392578 C160.13900756835938,-206.3419952392578 163.28399658203125,-207.03199768066406 165.9510040283203,-208.41400146484375 C168.6179962158203,-209.79299926757812 169.95199584960938,-212.38999938964844 169.95199584960938,-216.2010040283203 C169.95199584960938,-222.7740020751953 164.75900268554688,-229.77499389648438 154.3769989013672,-237.2050018310547 C152.66099548339844,-238.34800720214844 151.04200744628906,-239.3000030517578 149.5189971923828,-240.06300354003906 C145.51800537109375,-242.2530059814453 142.08799743652344,-244.39599609375 139.2310028076172,-246.4929962158203 C136.37399291992188,-248.58700561523438 133.84800720214844,-251.3520050048828 131.65899658203125,-254.781005859375 C129.46499633789062,-258.2090148925781 128.3730010986328,-262.2099914550781 128.3730010986328,-266.7820129394531 C128.3730010986328,-272.49798583984375 130.15699768066406,-277.6409912109375 133.72999572753906,-282.2130126953125 C137.30299377441406,-286.7860107421875 141.58999633789062,-290.3590087890625 146.58900451660156,-292.92999267578125 C151.59100341796875,-295.50299072265625 155.9499969482422,-296.7879943847656 159.66400146484375,-296.7879943847656 C168.71200561523438,-296.7879943847656 176.16700744628906,-295.00299072265625 182.02499389648438,-291.42999267578125z"></path></g><g opacity="1" transform="matrix(1,0,0,1,0,0)"><path fill="rgb(255,60,0)" fill-opacity="1" d=" M227.1739959716797,-295.8590087890625 C227.88999938964844,-295.906005859375 228.53199768066406,-295.9309997558594 229.10400390625,-295.9309997558594 C229.10400390625,-295.9309997558594 232.38999938964844,-295.9309997558594 232.38999938964844,-295.9309997558594 C234.96299743652344,-295.9309997558594 237.00799560546875,-295.8810119628906 238.5330047607422,-295.7869873046875 C239.677001953125,-295.6919860839844 240.48399353027344,-295.4530029296875 240.96200561523438,-295.072998046875 C241.43699645996094,-294.6919860839844 241.67799377441406,-294.1669921875 241.67799377441406,-293.50201416015625 C241.67799377441406,-293.02398681640625 241.6280059814453,-292.50201416015625 241.53399658203125,-291.92999267578125 C241.43800354003906,-291.3590087890625 241.34100341796875,-290.8340148925781 241.24899291992188,-290.3590087890625 C240.96200561523438,-287.1189880371094 240.77200317382812,-284.1189880371094 240.67799377441406,-281.35699462890625 C240.58200073242188,-277.16400146484375 240.1529998779297,-269.114990234375 239.38999938964844,-257.2099914550781 C239.38999938964844,-257.2099914550781 239.24899291992188,-249.4929962158203 239.24899291992188,-249.4929962158203 C239.24899291992188,-249.4929962158203 239.38999938964844,-243.35000610351562 239.38999938964844,-243.35000610351562 C239.677001953125,-239.63499450683594 239.77099609375,-237.5850067138672 239.677001953125,-237.2050018310547 C239.58099365234375,-236.82400512695312 239.53399658203125,-235.822998046875 239.53399658203125,-234.2050018310547 C239.53399658203125,-234.2050018310547 239.677001953125,-226.20399475097656 239.677001953125,-226.20399475097656 C239.77099609375,-224.96499633789062 239.8209991455078,-223.48899841308594 239.8209991455078,-221.7740020751953 C239.91299438476562,-220.53500366210938 239.5570068359375,-219.74899291992188 238.7469940185547,-219.41700744628906 C237.93699645996094,-219.08200073242188 236.86700439453125,-218.96299743652344 235.53199768066406,-219.0590057373047 C235.53199768066406,-219.0590057373047 228.2449951171875,-219.0590057373047 228.2449951171875,-219.0590057373047 C226.8159942626953,-218.96299743652344 225.91000366210938,-219.2729949951172 225.531005859375,-219.98699951171875 C225.14999389648438,-220.7010040283203 224.91000366210938,-221.86700439453125 224.8159942626953,-223.48899841308594 C224.625,-224.44000244140625 224.531005859375,-226.58299255371094 224.531005859375,-229.91799926757812 C224.531005859375,-229.91799926757812 224.531005859375,-235.63400268554688 224.531005859375,-235.63400268554688 C224.531005859375,-235.63400268554688 224.24600219726562,-246.7790069580078 224.24600219726562,-246.7790069580078 C224.14999389648438,-253.54100036621094 223.57699584960938,-261.8280029296875 222.52999877929688,-271.6400146484375 C221.57699584960938,-281.07000732421875 221.1009979248047,-286.3089904785156 221.1009979248047,-287.3580017089844 C221.1009979248047,-287.3580017089844 221.1009979248047,-290.5010070800781 221.1009979248047,-290.5010070800781 C221.1009979248047,-294.21600341796875 222.052001953125,-296.072998046875 223.95899963378906,-296.072998046875 C224.4340057373047,-296.072998046875 224.8159942626953,-296.02398681640625 225.10299682617188,-295.9309997558594 C225.7689971923828,-295.8349914550781 226.46099853515625,-295.80999755859375 227.1739959716797,-295.8590087890625z M239.17599487304688,-208.8419952392578 C240.7480010986328,-206.79299926757812 241.53399658203125,-204.6280059814453 241.53399658203125,-202.34100341796875 C241.53399658203125,-201.6739959716797 241.48500061035156,-201.19900512695312 241.39100646972656,-200.91299438476562 C241.39100646972656,-199.86300659179688 240.91299438476562,-198.6479949951172 239.96200561523438,-197.2689971923828 C239.00900268554688,-195.88699340820312 237.77099609375,-194.69700622558594 236.2480010986328,-193.69700622558594 C234.72300720214844,-192.69700622558594 233.10400390625,-192.19700622558594 231.38999938964844,-192.19700622558594 C229.00799560546875,-192.19700622558594 226.93600463867188,-193.26800537109375 225.17300415039062,-195.41200256347656 C223.41000366210938,-197.55499267578125 222.52999877929688,-200.0540008544922 222.52999877929688,-202.91299438476562 C222.52999877929688,-203.77000427246094 222.5780029296875,-204.43499755859375 222.6739959716797,-204.91299438476562 C223.531005859375,-209.57899475097656 226.7220001220703,-211.91400146484375 232.24600219726562,-211.91400146484375 C235.29400634765625,-211.91400146484375 237.6060028076172,-210.88999938964844 239.17599487304688,-208.8419952392578z"></path></g></g></g></g><g clip-path="url(#__lottie_element_90)" transform="matrix(1,0,0,1,-72,-132)" opacity="1" style="display: block;"><g transform="matrix(1,0,0,1,540,540)" opacity="1" style="display: block;"><g opacity="1" transform="matrix(1,0,0,1,0,0)"><path fill="rgb(67,26,0)" fill-opacity="1" d=" M234.63999938964844,109.66600036621094 C234.63999938964844,238.8719940185547 129.9010009765625,343.6050109863281 0.7039999961853027,343.6050109863281 C-128.4929962158203,343.6050109863281 -233.23300170898438,238.8719940185547 -233.23300170898438,109.66600036621094 C-233.23300170898438,-19.535999298095703 -128.4929962158203,-124.27300262451172 0.7039999961853027,-124.27300262451172 C129.9010009765625,-124.27300262451172 234.63999938964844,-19.535999298095703 234.63999938964844,109.66600036621094z"></path></g><g opacity="1" transform="matrix(1,0,0,1,0,0)"><g opacity="1" transform="matrix(1,0,0,1,0,0)"><g opacity="1" transform="matrix(1,0,0,1,0,0)"><path fill="rgb(67,26,0)" fill-opacity="1" d=" M-417.2040100097656,122.36199951171875 C-417.2040100097656,122.36199951171875 -298.99200439453125,-38.21099853515625 -298.99200439453125,-38.21099853515625 C-298.99200439453125,-38.21099853515625 -232.11199951171875,-38.21099853515625 -232.11199951171875,-38.21099853515625 C-232.11199951171875,-38.21099853515625 -232.11199951171875,122.36199951171875 -232.11199951171875,122.36199951171875 C-232.11199951171875,122.36199951171875 -209.64100646972656,122.36199951171875 -209.64100646972656,122.36199951171875 C-209.64100646972656,122.36199951171875 -209.64100646972656,160.78700256347656 -209.64100646972656,160.78700256347656 C-209.64100646972656,160.78700256347656 -232.11199951171875,160.78700256347656 -232.11199951171875,160.78700256347656 C-232.11199951171875,160.78700256347656 -232.11199951171875,215.39199829101562 -232.11199951171875,215.39199829101562 C-232.11199951171875,215.39199829101562 -298.9989929199219,215.39199829101562 -298.9989929199219,215.39199829101562 C-298.9989929199219,215.39199829101562 -298.9989929199219,160.78700256347656 -298.9989929199219,160.78700256347656 C-298.9989929199219,160.78700256347656 -417.2040100097656,160.78700256347656 -417.2040100097656,160.78700256347656 C-417.2040100097656,160.78700256347656 -417.2040100097656,122.36199951171875 -417.2040100097656,122.36199951171875z M-298.9989929199219,122.36199951171875 C-298.9989929199219,122.36199951171875 -298.9989929199219,43.15800094604492 -298.9989929199219,43.15800094604492 C-298.9989929199219,43.15800094604492 -354.2359924316406,122.36199951171875 -354.2359924316406,122.36199951171875 C-354.2359924316406,122.36199951171875 -298.9989929199219,122.36199951171875 -298.9989929199219,122.36199951171875z"></path></g><g opacity="1" transform="matrix(1,0,0,1,0,0)"><path fill="rgb(67,26,0)" fill-opacity="1" d=" M208.3040008544922,122.36199951171875 C208.3040008544922,122.36199951171875 326.5119934082031,-38.21099853515625 326.5119934082031,-38.21099853515625 C326.5119934082031,-38.21099853515625 393.39300537109375,-38.21099853515625 393.39300537109375,-38.21099853515625 C393.39300537109375,-38.21099853515625 393.39300537109375,122.36199951171875 393.39300537109375,122.36199951171875 C393.39300537109375,122.36199951171875 417.2040100097656,122.36199951171875 417.2040100097656,122.36199951171875 C417.2040100097656,122.36199951171875 417.2040100097656,160.78700256347656 417.2040100097656,160.78700256347656 C417.2040100097656,160.78700256347656 393.39300537109375,160.78700256347656 393.39300537109375,160.78700256347656 C393.39300537109375,160.78700256347656 393.39300537109375,215.39199829101562 393.39300537109375,215.39199829101562 C393.39300537109375,215.39199829101562 326.5090026855469,215.39199829101562 326.5090026855469,215.39199829101562 C326.5090026855469,215.39199829101562 326.5090026855469,160.78700256347656 326.5090026855469,160.78700256347656 C326.5090026855469,160.78700256347656 208.3040008544922,160.78700256347656 208.3040008544922,160.78700256347656 C208.3040008544922,160.78700256347656 208.3040008544922,122.36199951171875 208.3040008544922,122.36199951171875z M326.5090026855469,122.36199951171875 C326.5090026855469,122.36199951171875 326.5090026855469,43.15800094604492 326.5090026855469,43.15800094604492 C326.5090026855469,43.15800094604492 271.2690124511719,122.36199951171875 271.2690124511719,122.36199951171875 C271.2690124511719,122.36199951171875 326.5090026855469,122.36199951171875 326.5090026855469,122.36199951171875z"></path></g></g></g></g><g transform="matrix(1,0,0,1,540,548.0802001953125)" opacity="1" style="display: block;"><g opacity="1" transform="matrix(1,0,0,1,0,0)"><g opacity="1" transform="matrix(1,0,0,1,0,0)"><path fill="rgb(67,26,0)" fill-opacity="1" d=" M173.3179931640625,-69.29100036621094 C152.70599365234375,-78.0719985961914 114.66799926757812,-75.13200378417969 98.71399688720703,-31.03499984741211 C98.71399688720703,-31.03499984741211 179.2989959716797,29.95400047302246 179.2989959716797,29.95400047302246 C216.73800659179688,6.151000022888184 214.63999938964844,-50.96200180053711 173.3179931640625,-69.29100036621094z M158.9340057373047,0.003000000026077032 C158.9340057373047,0.003000000026077032 130.74099731445312,-21.333999633789062 130.74099731445312,-21.333999633789062 C136.32200622558594,-36.76100158691406 149.6300048828125,-37.79100036621094 156.843994140625,-34.71799850463867 C171.29800415039062,-28.30500030517578 172.0330047607422,-8.324999809265137 158.9340057373047,0.003000000026077032z"></path></g><g opacity="1" transform="matrix(1,0,0,1,0,0)"><path fill="rgb(255,60,0)" fill-opacity="1" d=" M156.843994140625,-34.71799850463867 C149.6300048828125,-37.79100036621094 136.32200622558594,-36.76100158691406 130.74099731445312,-21.333999633789062 C130.74099731445312,-21.333999633789062 158.9340057373047,0.003000000026077032 158.9340057373047,0.003000000026077032 C172.0330047607422,-8.324999809265137 171.29800415039062,-28.30500030517578 156.843994140625,-34.71799850463867z"></path></g><g opacity="1" transform="matrix(1,0,0,1,0,0)"><path fill="rgb(67,26,0)" fill-opacity="1" d=" M-170.20199584960938,-69.29100036621094 C-211.52699279785156,-50.96200180053711 -213.62100219726562,6.151000022888184 -176.18699645996094,29.95400047302246 C-176.18699645996094,29.95400047302246 -95.59700012207031,-31.03499984741211 -95.59700012207031,-31.03499984741211 C-111.5530014038086,-75.13200378417969 -149.58999633789062,-78.0719985961914 -170.20199584960938,-69.29100036621094z M-155.82000732421875,0.003000000026077032 C-168.91600036621094,-8.324999809265137 -168.1840057373047,-28.30500030517578 -153.72500610351562,-34.71799850463867 C-146.51800537109375,-37.79100036621094 -133.20799255371094,-36.76100158691406 -127.625,-21.333999633789062 C-127.625,-21.333999633789062 -155.82000732421875,0.003000000026077032 -155.82000732421875,0.003000000026077032z"></path></g><g opacity="1" transform="matrix(1,0,0,1,0,0)"><path fill="rgb(255,60,0)" fill-opacity="1" d=" M-153.72500610351562,-34.71799850463867 C-168.1840057373047,-28.30500030517578 -168.91600036621094,-8.324999809265137 -155.82000732421875,0.003000000026077032 C-155.82000732421875,0.003000000026077032 -127.625,-21.333999633789062 -127.625,-21.333999633789062 C-133.20799255371094,-36.76100158691406 -146.51800537109375,-37.79100036621094 -153.72500610351562,-34.71799850463867z"></path></g></g><g opacity="1" transform="matrix(1,0,0,1,0,0)"><path fill="rgb(67,26,0)" fill-opacity="1" d=" M166.77000427246094,-61.47200012207031 C182.8509979248047,-57.055999755859375 194.91400146484375,-41.20600128173828 194.90899658203125,-25.121999740600586 C194.90699768066406,-16.246000289916992 186.57000732421875,-11.842000007629395 175.9709930419922,-36.00699996948242 C168.04800415039062,-54.07500076293945 147.12600708007812,-53.75899887084961 149.71499633789062,-58.71500015258789 C151.78900146484375,-62.680999755859375 160.82699584960938,-63.10200119018555 166.77000427246094,-61.47200012207031z"></path></g><g opacity="1" transform="matrix(1,0,0,1,0,0)"><path fill="rgb(67,26,0)" fill-opacity="1" d=" M-163.6529998779297,-61.47200012207031 C-179.73599243164062,-57.055999755859375 -191.8000030517578,-41.20600128173828 -191.7949981689453,-25.121999740600586 C-191.79299926757812,-16.246000289916992 -183.45399475097656,-11.842000007629395 -172.85699462890625,-36.00699996948242 C-164.9320068359375,-54.07500076293945 -144.00900268554688,-53.75899887084961 -146.59800720214844,-58.71500015258789 C-148.6739959716797,-62.680999755859375 -157.71200561523438,-63.10200119018555 -163.6529998779297,-61.47200012207031z"></path></g></g><g transform="matrix(1,0,0,1,540,526.532958984375)" opacity="1" style="display: block;"><g opacity="1" transform="matrix(1,0,0,1,0,0)"><g opacity="1" transform="matrix(1,0,0,1,0,0)"><path fill="rgb(255,60,0)" fill-opacity="1" d=" M101.45448303222656,168.4228515625 C142.92747497558594,137.32284545898438 183.93447875976562,148.18385314941406 206.2474822998047,158.5448455810547 C208.5404815673828,142.2168426513672 227.7105255126953,-63.147186279296875 1.590999960899353,-59.91846466064453 C1.590999960899353,-59.91846466064453 1.590999960899353,-59.92146301269531 1.590999960899353,-59.92146301269531 C1.5490000247955322,-59.92146301269531 1.5080000162124634,-59.91846466064453 1.465999960899353,-59.91846466064453 C1.4259999990463257,-59.91846466064453 1.3880000114440918,-59.92146301269531 1.3459999561309814,-59.92146301269531 C1.3459999561309814,-59.92146301269531 1.3459999561309814,-59.91846466064453 1.3459999561309814,-59.91846466064453 C-216.43934631347656,-61.800479888916016 -202.91407775878906,141.0532989501953 -200.62107849121094,157.3813018798828 C-178.30506896972656,147.01730346679688 -137.29608154296875,136.16197204589844 -95.82307434082031,167.2599639892578 C-54.10307312011719,198.53897094726562 -61.598968505859375,266.73956298828125 -66.65696716308594,293.51556396484375 C-53.661983489990234,298.0150146484375 -22.244375228881836,302.219970703125 1.7446242570877075,302.3309631347656 C1.7866243124008179,302.3309631347656 1.8246243000030518,302.3309631347656 1.864624261856079,302.3309631347656 C1.9066243171691895,302.3309631347656 1.946950912475586,302.3316345214844 1.9889509677886963,302.3309631347656 C38.993167877197266,301.6637878417969 56.640750885009766,298.3516845703125 71.73291778564453,293.51556396484375 C66.68192291259766,266.73956298828125 59.73248291015625,199.70184326171875 101.45448303222656,168.4228515625z"></path></g><g opacity="1" transform="matrix(1,0,0,1,0,0)"><path fill="rgb(255,60,0)" fill-opacity="1" d=" M-95.82307434082031,167.25929260253906 C-137.29608154296875,136.1613006591797 -178.30506896972656,147.01730346679688 -200.62107849121094,157.3813018798828 C-191.07907104492188,225.31729125976562 -137.64097595214844,280.8005676269531 -66.65696716308594,293.51556396484375 C-61.598968505859375,266.73956298828125 -54.10307312011719,198.53829956054688 -95.82307434082031,167.25929260253906z"></path></g><g opacity="1" transform="matrix(1,0,0,1,0,0)"><path fill="rgb(255,60,0)" fill-opacity="1" d=" M206.2474822998047,158.5448455810547 C183.93447875976562,148.18385314941406 142.92648315429688,137.32284545898438 101.45348358154297,168.4228515625 C59.731483459472656,199.70184326171875 66.68192291259766,266.73956298828125 71.73291778564453,293.51556396484375 C142.7189178466797,280.8005676269531 196.7124786376953,226.48085021972656 206.2474822998047,158.5448455810547z"></path></g></g><g opacity="1" transform="matrix(1,0,0,1,0,0)"><path fill="rgb(255,60,0)" fill-opacity="1" d=" M-95.82307434082031,167.25929260253906 C-137.29608154296875,136.1613006591797 -178.30506896972656,147.01730346679688 -200.62107849121094,157.3813018798828 C-191.07907104492188,225.31729125976562 -137.64097595214844,280.8005676269531 -66.65696716308594,293.51556396484375 C-61.598968505859375,266.73956298828125 -54.10307312011719,198.53829956054688 -95.82307434082031,167.25929260253906z"></path></g><g opacity="1" transform="matrix(1,0,0,1,0,0)"><path fill="rgb(255,60,0)" fill-opacity="1" d=" M206.2474822998047,158.5448455810547 C183.93447875976562,148.18385314941406 142.92648315429688,137.32284545898438 101.45348358154297,168.4228515625 C59.731483459472656,199.70184326171875 66.68192291259766,266.73956298828125 71.73291778564453,293.51556396484375 C142.7189178466797,280.8005676269531 196.7124786376953,226.48085021972656 206.2474822998047,158.5448455810547z"></path></g></g><g transform="matrix(1,0,0,1,540,499.598876953125)" opacity="1" style="display: block;"><g opacity="1" transform="matrix(1,0,0,1,0,0)"><g opacity="1" transform="matrix(1,0,0,1,0,0)"><path fill="rgb(67,26,0)" fill-opacity="1" d=" M2.572999954223633,127.36399841308594 C-2.986999988555908,127.65299987792969 -12.928999900817871,128.24000549316406 -11.756999969482422,135.8419952392578 C-10.880999565124512,142.2729949951172 -2.986999988555908,149.29200744628906 1.784000039100647,149.29200744628906 C9.58899974822998,149.29200744628906 26.259000778198242,127.31199645996094 2.572999954223633,127.36399841308594z"></path></g></g></g><g transform="matrix(0.9845023155212402,0.17537149786949158,-0.17537149786949158,0.9845023155212402,558.1055908203125,513.5560913085938)" opacity="1" style="display: block;"><g opacity="1" transform="matrix(1,0,0,1,0,0)"><path fill="rgb(67,26,0)" fill-opacity="1" d=" M-29.89699935913086,69.13099670410156 C-15.6850004196167,89.03399658203125 -30.364999771118164,123.87999725341797 -62.6870002746582,146.96099853515625 C-95.00800323486328,170.03700256347656 -132.72500610351562,172.61199951171875 -146.93899536132812,152.70899963378906 C-161.14599609375,132.80599975585938 -146.4709930419922,97.95500183105469 -114.14700317382812,74.87799835205078 C-81.8280029296875,51.801998138427734 -44.106998443603516,49.22700119018555 -29.89699935913086,69.13099670410156z"></path></g><g opacity="1" transform="matrix(1,0,0,1,0,0)"><path fill="rgb(255,60,0)" fill-opacity="1" d=" M-69.4000015258789,95.81600189208984 C-77.0469970703125,95.81600189208984 -83.2490005493164,102.01599884033203 -83.2490005493164,109.66400146484375 C-83.2490005493164,117.31400299072266 -77.0469970703125,123.51300048828125 -69.4000015258789,123.51300048828125 C-61.75299835205078,123.51300048828125 -55.55799865722656,117.31400299072266 -55.55799865722656,109.66400146484375 C-55.55799865722656,102.01599884033203 -61.75299835205078,95.81600189208984 -69.4000015258789,95.81600189208984z M-69.4000015258789,113.33300018310547 C-71.43099975585938,113.33300018310547 -73.0719985961914,111.68800354003906 -73.0719985961914,109.66400146484375 C-73.0719985961914,107.63700103759766 -71.43099975585938,105.99500274658203 -69.4000015258789,105.99500274658203 C-67.37799835205078,105.99500274658203 -65.73500061035156,107.63700103759766 -65.73500061035156,109.66400146484375 C-65.73500061035156,111.68800354003906 -67.37799835205078,113.33300018310547 -69.4000015258789,113.33300018310547z"></path></g></g><g transform="matrix(0.9845023155212402,-0.17537149786949158,0.17537149786949158,0.9845023155212402,521.9243774414062,513.8950805664062)" opacity="1" style="display: block;"><g opacity="1" transform="matrix(1,0,0,1,0,0)"><path fill="rgb(67,26,0)" fill-opacity="1" d=" M32.83000183105469,69.13099670410156 C18.618000030517578,89.03399658203125 33.29899978637695,123.87999725341797 65.61799621582031,146.96099853515625 C97.94000244140625,170.03700256347656 135.66299438476562,172.61199951171875 149.8699951171875,152.70899963378906 C164.08200073242188,132.80599975585938 149.4040069580078,97.95500183105469 117.08200073242188,74.87799835205078 C84.76300048828125,51.801998138427734 47.040000915527344,49.22700119018555 32.83000183105469,69.13099670410156z"></path></g><g opacity="1" transform="matrix(1,0,0,1,0,0)"><path fill="rgb(255,60,0)" fill-opacity="1" d=" M72.33799743652344,95.81600189208984 C64.69300079345703,95.81600189208984 58.49300003051758,102.01599884033203 58.49300003051758,109.66400146484375 C58.49300003051758,117.31400299072266 64.69300079345703,123.51300048828125 72.33799743652344,123.51300048828125 C79.98799896240234,123.51300048828125 86.18699645996094,117.31400299072266 86.18699645996094,109.66400146484375 C86.18699645996094,102.01599884033203 79.98799896240234,95.81600189208984 72.33799743652344,95.81600189208984z M72.33799743652344,113.33300018310547 C70.31600189208984,113.33300018310547 68.6729965209961,111.68800354003906 68.6729965209961,109.66400146484375 C68.6729965209961,107.63700103759766 70.31600189208984,105.99500274658203 72.33799743652344,105.99500274658203 C74.36699676513672,105.99500274658203 76.00499725341797,107.63700103759766 76.00499725341797,109.66400146484375 C76.00499725341797,111.68800354003906 74.36699676513672,113.33300018310547 72.33799743652344,113.33300018310547z"></path></g></g><g transform="matrix(1,0,0,1,540,499.598876953125)" opacity="1" style="display: block;"><g opacity="1" transform="matrix(1,0,0,1,0,0)"><path fill="rgb(255,60,0)" fill-opacity="1" d=" M-39.55277633666992,229.83018493652344 C-35.67031478881836,243.53602600097656 -16.6907958984375,252.20700073242188 1.5750830173492432,252.20700073242188 C13.890715599060059,252.20700073242188 31.907367706298828,249.14065551757812 38.93334197998047,241.91360473632812 C20.89521598815918,227.00698852539062 -20.220497131347656,221.3333282470703 -39.55277633666992,229.83018493652344z"></path></g><g opacity="1" transform="matrix(1,0,0,1,0,0)"><path fill="rgb(67,26,0)" fill-opacity="1" d=" M47.03406524658203,223.0044708251953 C47.03406524658203,206.00108337402344 23.115741729736328,196.01963806152344 1.9117588996887207,196.01963806152344 C-19.28722381591797,196.01963806152344 -40.514137268066406,205.98155212402344 -40.514137268066406,222.98495483398438 C-40.514137268066406,225.3385009765625 -40.174346923828125,227.62570190429688 -39.55277633666992,229.83018493652344 C-20.220497131347656,221.3333282470703 20.89521598815918,227.00698852539062 38.93334197998047,241.91360473632812 C44.00292205810547,236.6953125 47.03406524658203,230.13816833496094 47.03406524658203,223.0044708251953z"></path></g></g><g transform="matrix(0.4768050014972687,0,0,0.4768050014972687,541.9007568359375,501.6676025390625)" opacity="1" style="display: block;"><g opacity="1" transform="matrix(1,0,0,1,0,0)"><path fill="rgb(67,26,0)" fill-opacity="1" d=" M0.7039999961853027,-73.26599884033203 C12.274999618530273,-170.51400756835938 124.66899871826172,-150.1790008544922 210.41799926757812,-151.92999267578125 C279.72900390625,-153.34500122070312 316.74798583984375,-160.71600341796875 311.93701171875,-235.37399291992188 C310.24200439453125,-261.68499755859375 333.90899658203125,-354.54998779296875 194.0919952392578,-342.1679992675781 C54.277000427246094,-329.7869873046875 -93.13300323486328,-345.97698974609375 -182.16099548339844,-343.29998779296875 C-271.1889953613281,-340.6199951171875 -303.3949890136719,-322.0469970703125 -305.0920104980469,-241.56700134277344 C-306.78900146484375,-161.08399963378906 -294.5830078125,-146.2100067138672 -164.25599670410156,-153.34500122070312 C5.361999988555908,-162.6320037841797 0.7039999961853027,-73.26599884033203 0.7039999961853027,-73.26599884033203z"></path></g><g opacity="1" transform="matrix(1,0,0,1,0,0)"><g opacity="1" transform="matrix(1,0,0,1,0,0)"><path fill="rgb(255,60,0)" fill-opacity="1" d=" M-187.11199951171875,-288.1440124511719 C-182.35000610351562,-282.6659851074219 -179.3040008544922,-276.18798828125 -177.96800231933594,-268.71099853515625 C-176.63600158691406,-261.23199462890625 -175.9669952392578,-252.77999877929688 -175.9669952392578,-243.35000610351562 C-175.9669952392578,-235.7270050048828 -177.11199951171875,-227.8939971923828 -179.39700317382812,-219.84500122070312 C-181.6840057373047,-211.79400634765625 -185.20799255371094,-205.0070037841797 -189.9709930419922,-199.48399353027344 C-194.73500061035156,-193.96099853515625 -200.59300231933594,-191.1959991455078 -207.5449981689453,-191.1959991455078 C-221.16799926757812,-191.1959991455078 -230.2169952392578,-196.9340057373047 -234.6929931640625,-208.41400146484375 C-239.1719970703125,-219.89199829101562 -241.4080047607422,-232.20399475097656 -241.4080047607422,-245.35000610351562 C-241.4080047607422,-258.0169982910156 -239.6719970703125,-268.1610107421875 -236.19400024414062,-275.78399658203125 C-232.71800231933594,-283.40399169921875 -228.47799682617188,-288.7380065917969 -223.4759979248047,-291.7869873046875 C-218.47500610351562,-294.8340148925781 -213.4980010986328,-296.3590087890625 -208.5449981689453,-296.3590087890625 C-199.02099609375,-296.3590087890625 -191.8769989013672,-293.6199951171875 -187.11199951171875,-288.1440124511719z M-202.97300720214844,-231.7760009765625 C-201.73599243164062,-234.63299560546875 -201.11599731445312,-238.06300354003906 -201.11599731445312,-242.06300354003906 C-201.11599731445312,-245.87100219726562 -201.71099853515625,-249.20799255371094 -202.9010009765625,-252.06500244140625 C-204.09300231933594,-254.9219970703125 -205.68699645996094,-256.35198974609375 -207.68699645996094,-256.35198974609375 C-210.07000732421875,-256.35198974609375 -211.8560028076172,-254.70899963378906 -213.04600524902344,-251.4219970703125 C-214.23800659179688,-248.13600158691406 -214.83200073242188,-244.58700561523438 -214.83200073242188,-240.77699279785156 C-214.83200073242188,-236.87100219726562 -214.4530029296875,-233.67999267578125 -213.68899536132812,-231.20399475097656 C-212.92799377441406,-228.72500610351562 -211.26100158691406,-227.48899841308594 -208.68800354003906,-227.48899841308594 C-206.11700439453125,-227.48899841308594 -204.21200561523438,-228.91700744628906 -202.97300720214844,-231.7760009765625z"></path></g><g opacity="1" transform="matrix(1,0,0,1,0,0)"><path fill="rgb(255,60,0)" fill-opacity="1" d=" M-82.87999725341797,-278.6419982910156 C-79.40399932861328,-272.1629943847656 -76.9749984741211,-265.8529968261719 -75.59300231933594,-259.7090148925781 C-74.21299743652344,-253.5659942626953 -73.5199966430664,-248.7310028076172 -73.5199966430664,-245.20700073242188 C-73.5199966430664,-239.3000030517578 -74.4489974975586,-232.4409942626953 -76.30699920654297,-224.63099670410156 C-78.16400146484375,-216.81900024414062 -82.14299774169922,-209.5570068359375 -88.23699951171875,-202.8419952392578 C-94.33399963378906,-196.1269989013672 -103.14700317382812,-192.76800537109375 -114.6709976196289,-192.76800537109375 C-130.48500061035156,-192.76800537109375 -141.7259979248047,-201.9600067138672 -148.39199829101562,-220.34500122070312 C-151.3459930419922,-228.63099670410156 -153.01400756835938,-237.8699951171875 -153.3939971923828,-248.06399536132812 C-153.3939971923828,-256.4460144042969 -151.6320037841797,-264.42498779296875 -148.1060028076172,-271.99798583984375 C-144.58399963378906,-279.57000732421875 -139.93899536132812,-285.64300537109375 -134.1750030517578,-290.2149963378906 C-128.41299438476562,-294.7879943847656 -122.48300170898438,-297.0740051269531 -116.38600158691406,-297.0740051269531 C-110.86299896240234,-297.0740051269531 -106.74099731445312,-296.9309997558594 -104.0260009765625,-296.6449890136719 C-101.31099700927734,-296.3590087890625 -98.86100006103516,-295.50299072265625 -96.66799926757812,-294.072998046875 C-90.9520034790039,-290.2619934082031 -86.35800170898438,-285.1180114746094 -82.87999725341797,-278.6419982910156z M-92.80999755859375,-213.4149932861328 C-87.85800170898438,-221.8459930419922 -85.37999725341797,-232.4409942626953 -85.37999725341797,-245.20700073242188 C-85.37999725341797,-253.01699829101562 -86.5469970703125,-260.23199462890625 -88.88099670410156,-266.85400390625 C-91.21600341796875,-273.4729919433594 -94.50299835205078,-278.760986328125 -98.73999786376953,-282.7139892578125 C-102.9800033569336,-286.6659851074219 -107.86199951171875,-288.6440124511719 -113.38600158691406,-288.6440124511719 C-113.86399841308594,-288.6440124511719 -115.1240005493164,-288.6440124511719 -117.1719970703125,-288.6440124511719 C-119.22200012207031,-288.6440124511719 -121.00700378417969,-288.3089904785156 -122.52999877929688,-287.6440124511719 C-124.05500030517578,-286.97698974609375 -125.43699645996094,-285.9750061035156 -126.67400360107422,-284.6419982910156 C-129.81700134277344,-281.4989929199219 -132.46099853515625,-278.61700439453125 -134.60400390625,-275.99798583984375 C-136.7469940185547,-273.37701416015625 -138.88999938964844,-269.49700927734375 -141.03399658203125,-264.3529968261719 C-143.177001953125,-259.2090148925781 -144.2480010986328,-253.2550048828125 -144.2480010986328,-246.4929962158203 C-144.2480010986328,-238.49099731445312 -143.2729949951172,-231.03700256347656 -141.31900024414062,-224.13099670410156 C-139.3679962158203,-217.2239990234375 -136.24600219726562,-211.60400390625 -131.9600067138672,-207.27099609375 C-127.67400360107422,-202.93499755859375 -122.1500015258789,-200.7689971923828 -115.38500213623047,-200.7689971923828 C-105.29000091552734,-200.7689971923828 -97.76300048828125,-204.98500061035156 -92.80999755859375,-213.4149932861328z"></path></g><g opacity="1" transform="matrix(1,0,0,1,0,0)"><path fill="rgb(255,60,0)" fill-opacity="1" d=" M3.3489999771118164,-288.1440124511719 C8.111000061035156,-282.6659851074219 11.159000396728516,-276.18798828125 12.494000434875488,-268.71099853515625 C13.829000473022461,-261.23199462890625 14.494000434875488,-252.77999877929688 14.494000434875488,-243.35000610351562 C14.494000434875488,-235.7270050048828 13.352999687194824,-227.8939971923828 11.0649995803833,-219.84500122070312 C8.779999732971191,-211.79400634765625 5.254000186920166,-205.0070037841797 0.492000013589859,-199.48399353027344 C-4.271999835968018,-193.96099853515625 -10.130000114440918,-191.1959991455078 -17.082000732421875,-191.1959991455078 C-30.704999923706055,-191.1959991455078 -39.75400161743164,-196.9340057373047 -44.22999954223633,-208.41400146484375 C-48.70899963378906,-219.89199829101562 -50.94599914550781,-232.20399475097656 -50.94599914550781,-245.35000610351562 C-50.94599914550781,-258.0169982910156 -49.20899963378906,-268.1610107421875 -45.73099899291992,-275.78399658203125 C-42.255001068115234,-283.40399169921875 -38.01599884033203,-288.7380065917969 -33.013999938964844,-291.7869873046875 C-28.01300048828125,-294.8340148925781 -23.035999298095703,-296.3590087890625 -18.08300018310547,-296.3590087890625 C-8.559000015258789,-296.3590087890625 -1.4149999618530273,-293.6199951171875 3.3489999771118164,-288.1440124511719z M-12.510000228881836,-231.7760009765625 C-11.27299976348877,-234.63299560546875 -10.652999877929688,-238.06300354003906 -10.652999877929688,-242.06300354003906 C-10.652999877929688,-245.87100219726562 -11.248000144958496,-249.20799255371094 -12.437999725341797,-252.06500244140625 C-13.630000114440918,-254.9219970703125 -15.225000381469727,-256.35198974609375 -17.225000381469727,-256.35198974609375 C-19.607999801635742,-256.35198974609375 -21.39299964904785,-254.70899963378906 -22.58300018310547,-251.4219970703125 C-23.774999618530273,-248.13600158691406 -24.368999481201172,-244.58700561523438 -24.368999481201172,-240.77699279785156 C-24.368999481201172,-236.87100219726562 -23.990999221801758,-233.67999267578125 -23.226999282836914,-231.20399475097656 C-22.465999603271484,-228.72500610351562 -20.79800033569336,-227.48899841308594 -18.225000381469727,-227.48899841308594 C-15.654000282287598,-227.48899841308594 -13.74899959564209,-228.91700744628906 -12.510000228881836,-231.7760009765625z"></path></g><g opacity="1" transform="matrix(1,0,0,1,0,0)"><path fill="rgb(255,60,0)" fill-opacity="1" d=" M104.44000244140625,-283.5 C106.20099639892578,-281.40399169921875 107.55899810791016,-279.07000732421875 108.51200103759766,-276.4989929199219 C109.46299743652344,-273.9280090332031 109.94100189208984,-271.1629943847656 109.94100189208984,-268.21099853515625 C109.94100189208984,-260.3039855957031 107.62999725341797,-253.97000122070312 103.01200103759766,-249.20799255371094 C98.38899993896484,-244.4429931640625 92.55599975585938,-240.82400512695312 85.50700378417969,-238.34800720214844 C77.88600158691406,-235.77699279785156 69.74099731445312,-234.44200134277344 61.07500076293945,-234.34800720214844 C61.07500076293945,-234.34800720214844 60.78799819946289,-218.7729949951172 60.78799819946289,-218.7729949951172 C60.78799819946289,-218.7729949951172 60.50299835205078,-198.62600708007812 60.50299835205078,-198.62600708007812 C60.50299835205078,-195.7689971923828 59.35900115966797,-194.33999633789062 57.07400131225586,-194.33999633789062 C56.50199890136719,-194.33999633789062 55.93000030517578,-194.38699340820312 55.358001708984375,-194.48199462890625 C54.78799819946289,-194.5760040283203 54.310001373291016,-194.62600708007812 53.92900085449219,-194.62600708007812 C53.92900085449219,-194.62600708007812 48.500999450683594,-194.33999633789062 48.500999450683594,-194.33999633789062 C48.500999450683594,-194.33999633789062 42.928001403808594,-194.0540008544922 42.928001403808594,-194.0540008544922 C41.87799835205078,-194.0540008544922 41.165000915527344,-194.4340057373047 40.7859992980957,-195.19700622558594 C40.402000427246094,-195.95799255371094 40.2140007019043,-197.1020050048828 40.2140007019043,-198.62600708007812 C40.2140007019043,-199.1009979248047 40.23500061035156,-200.00599670410156 40.284000396728516,-201.34100341796875 C40.33100128173828,-202.6739959716797 40.35499954223633,-204.6739959716797 40.35499954223633,-207.3419952392578 C40.641998291015625,-221.91600036621094 40.7859992980957,-229.29800415039062 40.7859992980957,-229.49000549316406 C40.7859992980957,-229.49000549316406 40.7859992980957,-268.6390075683594 40.7859992980957,-268.6390075683594 C40.7859992980957,-272.4490051269531 40.9739990234375,-276.5929870605469 41.35499954223633,-281.0710144042969 C41.35499954223633,-281.0710144042969 41.926998138427734,-290.5010070800781 41.926998138427734,-290.5010070800781 C41.926998138427734,-292.02398681640625 42.09199905395508,-292.9049987792969 42.42900085449219,-293.1440124511719 C42.76100158691406,-293.3810119628906 43.5,-293.50201416015625 44.64400100708008,-293.50201416015625 C45.40399932861328,-293.50201416015625 47.68899917602539,-293.6919860839844 51.5,-294.072998046875 C56.45199966430664,-294.6449890136719 60.40599822998047,-294.9309997558594 63.36000061035156,-294.9309997558594 C71.36000061035156,-294.9309997558594 77.48100280761719,-294.80999755859375 81.72200012207031,-294.572998046875 C85.95899963378906,-294.3340148925781 89.7699966430664,-293.6659851074219 93.1520004272461,-292.572998046875 C96.53199768066406,-291.47601318359375 99.2239990234375,-289.7380065917969 101.2249984741211,-287.3580017089844 C101.60399627685547,-286.8800048828125 102.67500305175781,-285.5950012207031 104.44000244140625,-283.5z M96.79499816894531,-252.27999877929688 C98.41400146484375,-254.9949951171875 99.2249984741211,-258.63800048828125 99.2249984741211,-263.2099914550781 C99.2249984741211,-266.8290100097656 98.84400177001953,-270.59100341796875 98.08100128173828,-274.49798583984375 C97.31800079345703,-278.40301513671875 95.1729965209961,-281.40399169921875 91.6520004272461,-283.5 C88.1259994506836,-285.5950012207031 83.88700103759766,-286.97698974609375 78.93499755859375,-287.6440124511719 C76.36199951171875,-288.02398681640625 73.31199645996094,-288.2149963378906 69.79100036621094,-288.2149963378906 C68.26599884033203,-288.2149963378906 65.69300079345703,-288.1189880371094 62.07500076293945,-287.92999267578125 C62.07500076293945,-287.92999267578125 61.215999603271484,-241.77699279785156 61.215999603271484,-241.77699279785156 C64.93299865722656,-241.6820068359375 68.50399780273438,-241.8249969482422 71.93299865722656,-242.20599365234375 C79.74299621582031,-242.7779998779297 85.50599670410156,-243.96800231933594 89.2229995727539,-245.7790069580078 C92.6520004272461,-247.39700317382812 95.1729965209961,-249.56500244140625 96.79499816894531,-252.27999877929688z"></path></g><g opacity="1" transform="matrix(1,0,0,1,0,0)"><path fill="rgb(255,60,0)" fill-opacity="1" d=" M182.02499389648438,-291.42999267578125 C187.88299560546875,-287.8580017089844 192.43099975585938,-284.45001220703125 195.6719970703125,-281.2139892578125 C196.05099487304688,-280.8320007324219 196.24400329589844,-280.40301513671875 196.24400329589844,-279.9280090332031 C196.24400329589844,-279.6419982910156 196.12100219726562,-279.28399658203125 195.88600158691406,-278.8559875488281 C195.64599609375,-278.4280090332031 195.47799682617188,-278.1159973144531 195.38400268554688,-277.927001953125 C194.906005859375,-277.260009765625 194.1199951171875,-276.0920104980469 193.0279998779297,-274.427001953125 C191.93099975585938,-272.75799560546875 191.0489959716797,-271.54400634765625 190.38499450683594,-270.78399658203125 C190.09800720214844,-270.4020080566406 189.78700256347656,-269.99700927734375 189.4550018310547,-269.5690002441406 C189.12100219726562,-269.1390075683594 188.83399963378906,-268.8299865722656 188.5989990234375,-268.6390075683594 C188.35899353027344,-268.4469909667969 188.0030059814453,-268.3550109863281 187.5279998779297,-268.3550109863281 C187.3350067138672,-268.3550109863281 186.8820037841797,-268.6619873046875 186.16900634765625,-269.2829895019531 C185.4530029296875,-269.9010009765625 184.76199340820312,-270.447998046875 184.09800720214844,-270.9259948730469 C180.28500366210938,-274.2590026855469 176.5709991455078,-277.11700439453125 172.9530029296875,-279.5 C169.33099365234375,-281.8800048828125 165.85400390625,-283.0710144042969 162.52099609375,-283.0710144042969 C159.85400390625,-283.0710144042969 157.66400146484375,-282.4750061035156 155.9499969482422,-281.2850036621094 C154.23399353027344,-280.0929870605469 153.3769989013672,-277.40301513671875 153.3769989013672,-273.2130126953125 C153.3769989013672,-269.114990234375 154.89999389648438,-265.9259948730469 157.9499969482422,-263.6390075683594 C160.99600219726562,-261.35198974609375 165.04400634765625,-259.1610107421875 170.09300231933594,-257.0660095214844 C170.5709991455078,-256.8739929199219 173.3560028076172,-255.6840057373047 178.45399475097656,-253.49400329589844 C183.54800415039062,-251.30099487304688 188.07400512695312,-247.11099243164062 192.0279998779297,-240.92100524902344 C195.97999572753906,-234.7270050048828 197.95700073242188,-227.3470001220703 197.95700073242188,-218.7729949951172 C197.95700073242188,-209.62899780273438 194.5279998779297,-202.77000427246094 187.66900634765625,-198.197998046875 C180.80999755859375,-193.62600708007812 171.33200073242188,-191.33900451660156 159.23599243164062,-191.33900451660156 C145.51800537109375,-191.33900451660156 136.802001953125,-193.98199462890625 133.08799743652344,-199.27000427246094 C129.37100219726562,-204.5570068359375 127.41999816894531,-207.29400634765625 127.22899627685547,-207.48599243164062 C126.8479995727539,-207.96099853515625 126.65699768066406,-208.43600463867188 126.65699768066406,-208.91400146484375 C126.65699768066406,-209.1999969482422 127.03600311279297,-209.8179931640625 127.8010025024414,-210.77099609375 C129.03700256347656,-212.48599243164062 130.8470001220703,-214.53399658203125 133.2310028076172,-216.91600036621094 C133.61000061035156,-217.2949981689453 133.99200439453125,-217.48699951171875 134.3730010986328,-217.48699951171875 C134.84800720214844,-217.48699951171875 135.3730010986328,-217.1300048828125 135.94500732421875,-216.41600036621094 C136.51699829101562,-215.70199584960938 136.9929962158203,-215.15199279785156 137.37399291992188,-214.7729949951172 C142.99200439453125,-209.1510009765625 149.375,-206.3419952392578 156.5189971923828,-206.3419952392578 C160.13900756835938,-206.3419952392578 163.28399658203125,-207.03199768066406 165.9510040283203,-208.41400146484375 C168.6179962158203,-209.79299926757812 169.95199584960938,-212.38999938964844 169.95199584960938,-216.2010040283203 C169.95199584960938,-222.7740020751953 164.75900268554688,-229.77499389648438 154.3769989013672,-237.2050018310547 C152.66099548339844,-238.34800720214844 151.04200744628906,-239.3000030517578 149.5189971923828,-240.06300354003906 C145.51800537109375,-242.2530059814453 142.08799743652344,-244.39599609375 139.2310028076172,-246.4929962158203 C136.37399291992188,-248.58700561523438 133.84800720214844,-251.3520050048828 131.65899658203125,-254.781005859375 C129.46499633789062,-258.2090148925781 128.3730010986328,-262.2099914550781 128.3730010986328,-266.7820129394531 C128.3730010986328,-272.49798583984375 130.15699768066406,-277.6409912109375 133.72999572753906,-282.2130126953125 C137.30299377441406,-286.7860107421875 141.58999633789062,-290.3590087890625 146.58900451660156,-292.92999267578125 C151.59100341796875,-295.50299072265625 155.9499969482422,-296.7879943847656 159.66400146484375,-296.7879943847656 C168.71200561523438,-296.7879943847656 176.16700744628906,-295.00299072265625 182.02499389648438,-291.42999267578125z"></path></g><g opacity="1" transform="matrix(1,0,0,1,0,0)"><path fill="rgb(255,60,0)" fill-opacity="1" d=" M227.1739959716797,-295.8590087890625 C227.88999938964844,-295.906005859375 228.53199768066406,-295.9309997558594 229.10400390625,-295.9309997558594 C229.10400390625,-295.9309997558594 232.38999938964844,-295.9309997558594 232.38999938964844,-295.9309997558594 C234.96299743652344,-295.9309997558594 237.00799560546875,-295.8810119628906 238.5330047607422,-295.7869873046875 C239.677001953125,-295.6919860839844 240.48399353027344,-295.4530029296875 240.96200561523438,-295.072998046875 C241.43699645996094,-294.6919860839844 241.67799377441406,-294.1669921875 241.67799377441406,-293.50201416015625 C241.67799377441406,-293.02398681640625 241.6280059814453,-292.50201416015625 241.53399658203125,-291.92999267578125 C241.43800354003906,-291.3590087890625 241.34100341796875,-290.8340148925781 241.24899291992188,-290.3590087890625 C240.96200561523438,-287.1189880371094 240.77200317382812,-284.1189880371094 240.67799377441406,-281.35699462890625 C240.58200073242188,-277.16400146484375 240.1529998779297,-269.114990234375 239.38999938964844,-257.2099914550781 C239.38999938964844,-257.2099914550781 239.24899291992188,-249.4929962158203 239.24899291992188,-249.4929962158203 C239.24899291992188,-249.4929962158203 239.38999938964844,-243.35000610351562 239.38999938964844,-243.35000610351562 C239.677001953125,-239.63499450683594 239.77099609375,-237.5850067138672 239.677001953125,-237.2050018310547 C239.58099365234375,-236.82400512695312 239.53399658203125,-235.822998046875 239.53399658203125,-234.2050018310547 C239.53399658203125,-234.2050018310547 239.677001953125,-226.20399475097656 239.677001953125,-226.20399475097656 C239.77099609375,-224.96499633789062 239.8209991455078,-223.48899841308594 239.8209991455078,-221.7740020751953 C239.91299438476562,-220.53500366210938 239.5570068359375,-219.74899291992188 238.7469940185547,-219.41700744628906 C237.93699645996094,-219.08200073242188 236.86700439453125,-218.96299743652344 235.53199768066406,-219.0590057373047 C235.53199768066406,-219.0590057373047 228.2449951171875,-219.0590057373047 228.2449951171875,-219.0590057373047 C226.8159942626953,-218.96299743652344 225.91000366210938,-219.2729949951172 225.531005859375,-219.98699951171875 C225.14999389648438,-220.7010040283203 224.91000366210938,-221.86700439453125 224.8159942626953,-223.48899841308594 C224.625,-224.44000244140625 224.531005859375,-226.58299255371094 224.531005859375,-229.91799926757812 C224.531005859375,-229.91799926757812 224.531005859375,-235.63400268554688 224.531005859375,-235.63400268554688 C224.531005859375,-235.63400268554688 224.24600219726562,-246.7790069580078 224.24600219726562,-246.7790069580078 C224.14999389648438,-253.54100036621094 223.57699584960938,-261.8280029296875 222.52999877929688,-271.6400146484375 C221.57699584960938,-281.07000732421875 221.1009979248047,-286.3089904785156 221.1009979248047,-287.3580017089844 C221.1009979248047,-287.3580017089844 221.1009979248047,-290.5010070800781 221.1009979248047,-290.5010070800781 C221.1009979248047,-294.21600341796875 222.052001953125,-296.072998046875 223.95899963378906,-296.072998046875 C224.4340057373047,-296.072998046875 224.8159942626953,-296.02398681640625 225.10299682617188,-295.9309997558594 C225.7689971923828,-295.8349914550781 226.46099853515625,-295.80999755859375 227.1739959716797,-295.8590087890625z M239.17599487304688,-208.8419952392578 C240.7480010986328,-206.79299926757812 241.53399658203125,-204.6280059814453 241.53399658203125,-202.34100341796875 C241.53399658203125,-201.6739959716797 241.48500061035156,-201.19900512695312 241.39100646972656,-200.91299438476562 C241.39100646972656,-199.86300659179688 240.91299438476562,-198.6479949951172 239.96200561523438,-197.2689971923828 C239.00900268554688,-195.88699340820312 237.77099609375,-194.69700622558594 236.2480010986328,-193.69700622558594 C234.72300720214844,-192.69700622558594 233.10400390625,-192.19700622558594 231.38999938964844,-192.19700622558594 C229.00799560546875,-192.19700622558594 226.93600463867188,-193.26800537109375 225.17300415039062,-195.41200256347656 C223.41000366210938,-197.55499267578125 222.52999877929688,-200.0540008544922 222.52999877929688,-202.91299438476562 C222.52999877929688,-203.77000427246094 222.5780029296875,-204.43499755859375 222.6739959716797,-204.91299438476562 C223.531005859375,-209.57899475097656 226.7220001220703,-211.91400146484375 232.24600219726562,-211.91400146484375 C235.29400634765625,-211.91400146484375 237.6060028076172,-210.88999938964844 239.17599487304688,-208.8419952392578z"></path></g></g></g></g></g></svg>