<svg xmlns="http://www.w3.org/2000/svg" viewBox="0 0 174.18 127.16"><defs><style>.cls-1{font-size:17.33px;font-family:BaiJamjuree-Medium, Bai Jamjuree;font-weight:500;letter-spacing:0em;}.cls-2{fill:#ea2127;}.cls-3{fill:#00a44f;}.cls-4{fill:#ffca05;}</style></defs><title>Asset 21</title><g id="Layer_2" data-name="Layer 2"><g id="Layer_1-2" data-name="Layer 1"><text class="cls-1" transform="translate(0 97.49)">Ministry of Liberation<tspan x="42.08" y="20.8">War Affairs</tspan></text><circle class="cls-2" cx="87.09" cy="37.24" r="24.19"/><polygon class="cls-2" points="61.92 46.47 59.85 46.17 58.92 44.3 57.99 46.17 55.92 46.47 57.42 47.94 57.07 50 58.92 49.02 60.77 50 60.42 47.94 61.92 46.47"/><polygon class="cls-2" points="64.79 55.22 63.87 53.34 62.94 55.22 60.87 55.52 62.37 56.98 62.01 59.05 63.87 58.07 65.72 59.05 65.37 56.98 66.86 55.52 64.79 55.22"/><polygon class="cls-2" points="118.25 46.47 116.18 46.17 115.25 44.3 114.33 46.17 112.26 46.47 113.76 47.94 113.4 50 115.25 49.02 117.11 50 116.75 47.94 118.25 46.47"/><polygon class="cls-2" points="111.23 55.22 110.31 53.34 109.38 55.22 107.31 55.52 108.81 56.98 108.45 59.05 110.31 58.07 112.16 59.05 111.81 56.98 113.31 55.52 111.23 55.22"/><path class="cls-3" d="M121.4,22.75a37.32,37.32,0,1,0,2.93,14.49A37,37,0,0,0,121.4,22.75ZM120,51.12a35.8,35.8,0,1,1,2.8-13.88A35.61,35.61,0,0,1,120,51.12Z"/><path class="cls-3" d="M79.6,68.56l-.15-.1a.7.7,0,0,0-.17-.09,1.63,1.63,0,0,0-.37-.13,1.59,1.59,0,0,0-.81,0,.56.56,0,0,0-.43.36.58.58,0,0,0,.22.57,1.64,1.64,0,0,0,.82.42,1.8,1.8,0,0,0,.5,0,1.08,1.08,0,0,0,.42-.11c.26-.13.36-.3.33-.51A.76.76,0,0,0,79.6,68.56Z"/><path class="cls-3" d="M102.51,65.62a.84.84,0,0,0-.58-.13,1.78,1.78,0,0,0-.73.2,1.18,1.18,0,0,0-.19.11l-.17.12a1.37,1.37,0,0,0-.26.28.56.56,0,0,0-.1.55.61.61,0,0,0,.54.3,1.61,1.61,0,0,0,.9-.2,1.35,1.35,0,0,0,.67-.64.64.64,0,0,0,.06-.18.43.43,0,0,0,0-.16A.4.4,0,0,0,102.51,65.62Z"/><path class="cls-3" d="M103.36,60l.89-.65-1.42.08a28,28,0,0,1-6.33,3.35l-.31.11-.18.07-.39.14L95.4,63a2.33,2.33,0,0,1-.41-.5l-.68-.15a13.71,13.71,0,0,0,.59,1.59,2.64,2.64,0,0,0-.29-.15,1.92,1.92,0,0,0-.32-.09,1.94,1.94,0,0,0-.72,0,7,7,0,0,0-.69.14l-.44.11-.16,0a29.42,29.42,0,0,1-4,.53,28.94,28.94,0,0,1-4.56-.08,28.47,28.47,0,0,1-3.53-.56l-.49-.12-.25-.06-.25-.06-1-.28-.78-.25h0c-.36-.13-.72-.25-1.07-.39l-.06,0a28.41,28.41,0,0,1-7.22-4.08c.13.38.27.78.42,1.17,0,.07.09.13.13.19a1.57,1.57,0,0,0,.37.79l.28.23c.14.1.32.23.54.37l.24.18a1.53,1.53,0,0,1,.18.18,1.21,1.21,0,0,1,.26.39,1.23,1.23,0,0,1,0,.9c-.53.09-1,.15-1.25.17a1.21,1.21,0,0,1-.54,0,.75.75,0,0,1-.24-.56A1.06,1.06,0,0,1,69.6,62L68.49,62a6.12,6.12,0,0,0,.22,1.22,1.5,1.5,0,0,0,.35.64,1,1,0,0,0,.23.24l.19.15.11.07.13.08.33.18a2.07,2.07,0,0,0,.85,0,11.29,11.29,0,0,0,1.62-.34,1.23,1.23,0,0,1,.87,0,.87.87,0,0,1,.26.18,1.55,1.55,0,0,1,.25.26.86.86,0,0,1,.25.49l-1,2.36c.15.23.3.45.46.67a2.75,2.75,0,0,0,.23.33l.25.33,2.13-5.45.53.2.13.05.14,0,.27.09c.36.12.72.24,1.09.34h0A28.37,28.37,0,0,0,82,65l0,.18c-1.66.08-3.45.25-5.48.43l.46.74.23.37.25.36a5.89,5.89,0,0,1,.59.21l.28.12.27.11.53.26.26.15.25.15a5.23,5.23,0,0,1,.75.52c.11.09.21.19.31.29a3.58,3.58,0,0,1,.27.29c.06.07.34.47.89,1.22.11.09.23.16.34.24l.35.23.66-5.71.9.09.79,0,.23,0h.23a29.2,29.2,0,0,0,3.74-.09l0,.24c-1.73.53-3.36,1.09-4.94,1.75l.67.57.17.14.18.14.35.27a5.59,5.59,0,0,1,.59.08l.29,0,.29.05a8.22,8.22,0,0,1,1.11.29,5.58,5.58,0,0,1,1.14.53,3.71,3.71,0,0,1,.74.52,5.51,5.51,0,0,1,.5.61l.39.16a3.33,3.33,0,0,0,.4.16l-.6-4.53a3.29,3.29,0,0,1,1.72.17,1.27,1.27,0,0,1,.76.59l-.24,0a1.82,1.82,0,0,0-.52,0,3.39,3.39,0,0,0-.59.17c-.36.25-.53.5-.5.74s.2.37.51.48a1.6,1.6,0,0,0,.48.11,3.23,3.23,0,0,0,.53,0,2.51,2.51,0,0,0,.67-.23,1.59,1.59,0,0,0,.49-.39A1,1,0,0,0,94,67a1.45,1.45,0,0,0-.2-.45,2.1,2.1,0,0,0-.56-.55,3.44,3.44,0,0,0-.38-.22l-.46-.21a5.16,5.16,0,0,0-.52-.16l-.26,0-.26,0a3.56,3.56,0,0,0-1,0l0-.17a30.28,30.28,0,0,0,3.29-.62,2.3,2.3,0,0,1,.63,0,1.77,1.77,0,0,1,.63.19.72.72,0,0,1,.35.44l1.22,4,1.56.36-2-5.65,1.09-.4.27-.11,0,0,.76-.31h0a26.15,26.15,0,0,0,3.33-1.71l.1.15-.23.21-.23.22-.47.44c-.31.3-.63.6-1,.93l-.49.47-.25.25a3.07,3.07,0,0,1-.25.26l-.52.51c-.17.17-.34.36-.52.53.27.1.55.18.83.27l.85.25.14,0,.15-.06.29-.1c.19-.07.39-.13.58-.18l.29-.07.28-.07.58-.1.47,0,.45,0a4.5,4.5,0,0,1,.83.07l.43.11c.24.07.58.15,1,.26l.42,0h.21l.21,0-3.23-4.79C102.76,60.38,103.07,60.18,103.36,60ZM74.5,64.41c-.1-.17-.19-.33-.28-.47s-.09-.14-.14-.2a.83.83,0,0,0-.13-.18,1.47,1.47,0,0,0-.51-.45.33.33,0,0,0-.13,0l-.21,0L72.44,63h0a1,1,0,0,0,.12-.63,1.15,1.15,0,0,0-.09-.34,2.41,2.41,0,0,0-.18-.36c.22.13.46.25.69.37l.35.18c.12.06.23.13.35.18.48.22.94.46,1.43.65Zm7,4.23a5.08,5.08,0,0,0-.5-.54,6.35,6.35,0,0,0-.61-.54L80,67.31l-.37-.26c-.25-.17-.53-.34-.82-.5l.75-.11.38,0,.37,0,.77-.08h.19l.19,0,.39,0Zm5.15-1.16.88-.4.16-.06.18-.08.41-.15.46-.16.52-.18.21,2.32A8.58,8.58,0,0,0,86.6,67.48Zm16.8-3.09-.18,0-.18,0-.38,0a5.44,5.44,0,0,0-.81,0h-.44l-.45,0-.46.06-.24,0-.25,0a3.33,3.33,0,0,1,.25-.28l.24-.29c.17-.18.34-.37.52-.55l.26-.27.27-.28.27-.26.28-.27Z"/><path class="cls-3" d="M57.5,26.36c.06-.18.13-.35.2-.53l.2-.52.22-.52-.56.35-.56.37c-.12.29-.22.59-.33.88a2.36,2.36,0,0,1-.33.29.59.59,0,0,1-.37.07,1.08,1.08,0,0,0-.48.23l-.39.31a12,12,0,0,0,1.66.53l.75.13a3.18,3.18,0,0,0-.73.29,2.45,2.45,0,0,0-.53.42l-.14.17a3.22,3.22,0,0,0-.21.29,2.18,2.18,0,0,0-.23.57,5.29,5.29,0,0,0-.1.62,2.69,2.69,0,0,0,0,.57,2.12,2.12,0,0,0,.26.84l-.22.21-.47.49c-.07.37-.11.73-.15,1.08a.55.55,0,0,1-.1.23c-.24.12-.43.12-.56,0l-.33.39-.31.39a15.32,15.32,0,0,0,1.79.1h.73a1.72,1.72,0,0,0-.58.38,1.74,1.74,0,0,0-.44.61,3.22,3.22,0,0,0-.28.86c0,.16-.06.33-.08.51s0,.38,0,.58a3.21,3.21,0,0,0,.24,1.3,2,2,0,0,0,.62.76,1.15,1.15,0,0,0,.77.27c.35,0,.6-.26.77-.7a.61.61,0,0,0,.06-.33,2.46,2.46,0,0,0-.25-.77,2.72,2.72,0,0,1-.23-.67c0-.17,0-.25.13-.25s.3.24.67.69.51.65.67.86q.42-.53.87-1c-.22-.26-.42-.48-.61-.67a5.44,5.44,0,0,0-.51-.48,1.22,1.22,0,0,0-.83-.34,1,1,0,0,0-.75.46,2.14,2.14,0,0,0-.26,1.14,3.67,3.67,0,0,0,0,.52,1.94,1.94,0,0,1-.47-1.87A1.62,1.62,0,0,1,56,36a1.75,1.75,0,0,1,.32-.41,3.34,3.34,0,0,1,.45-.35,1.57,1.57,0,0,1,.9-.28l3,.31.24-.23.25-.23.49-.43-5.83-.72c0-.37.09-.74.15-1.1L56,32V32a1.43,1.43,0,0,0,.4.38,1.5,1.5,0,0,0,.64.26,1.6,1.6,0,0,0,.62,0,1,1,0,0,0,.29-.11,1.56,1.56,0,0,0,.28-.16,2.18,2.18,0,0,0,.51-.54,2.37,2.37,0,0,0,.19-.35,3.89,3.89,0,0,0,.16-.41,2.36,2.36,0,0,0,.09-.52,1.87,1.87,0,0,0,0-.53,1,1,0,0,0-.07-.25,1.14,1.14,0,0,0-.1-.19.63.63,0,0,0-.33-.22.61.61,0,0,0-.3,0,1,1,0,0,0-.72.79c-.13.55,0,.87.33.94l.22.05a.47.47,0,0,1-.27.19,1.09,1.09,0,0,1-.58,0,.85.85,0,0,1-.55-.49,1,1,0,0,1-.15-.45,1.51,1.51,0,0,1,0-.51,1.8,1.8,0,0,1,.72-1.05,1.41,1.41,0,0,1,1.29-.27l2.93.93.55-.34.55-.31-5.4-1.93C57.36,26.71,57.43,26.53,57.5,26.36Z"/><path class="cls-3" d="M67.87,16.24a1.37,1.37,0,0,0-.54-.35,2.21,2.21,0,0,0-.78-.12,1.5,1.5,0,0,0-.55.1h0a.39.39,0,0,0-.21.11c0,.06-.1.19-.19.39a6,6,0,0,1-.53,1.08c-.18.2-.33.24-.46.12a1.4,1.4,0,0,1-.25-.73,1.3,1.3,0,0,1,.06-.8c.33,0,.51,0,.56,0a3,3,0,0,0,1.25-.54,10.48,10.48,0,0,0,1.21-.85A3.42,3.42,0,0,0,68.14,16a4.68,4.68,0,0,0,.9.72c.33.21.65.43,1,.65,0,0,.17,0,.35-.1a1.52,1.52,0,0,0,.35-.19.37.37,0,0,0,.09-.2A4,4,0,0,1,69.39,16a3.08,3.08,0,0,1-.35-.55,1.79,1.79,0,0,1-.32-1,3.22,3.22,0,0,1,.1-1.17H68l-.74,0-.3.4-.25.33c-.15.19-.26.33-.34.41a.86.86,0,0,1-.14.13l-.18.15-.46.3c-.38.23-.61.31-.69.23s0-.05,0-.1a2.05,2.05,0,0,1,.18-.41c.61-.6,1.24-1.17,1.89-1.73l.92-.74a1.57,1.57,0,0,1,.55-.27,1.22,1.22,0,0,1,.6,0,.7.7,0,0,1,.45.31l2.38,3.42.59.08.58.1-3.25-5c.28-.19.57-.38.87-.56l.1-.06c.31.24.65.48,1,.74l1.2.8a6.94,6.94,0,0,0,1.23.57,4.92,4.92,0,0,0,.86.26,3.13,3.13,0,0,0,.44,0,2.77,2.77,0,0,0,.49,0,3.25,3.25,0,0,0,.47-.1,2.71,2.71,0,0,0,.43-.14,4,4,0,0,0,1.24-.88,2.93,2.93,0,0,0,.37-.45,2.1,2.1,0,0,0,.23-.48,1.63,1.63,0,0,0,0-1A1.79,1.79,0,0,0,78.34,9a2.67,2.67,0,0,0-.51-.5,2.19,2.19,0,0,0-.59-.3A2.09,2.09,0,0,0,76.58,8h-.35l-.37.06-.38.09-.31.11a2.3,2.3,0,0,0-1.08.86A1.06,1.06,0,0,0,74,10.25a1,1,0,0,0,.16.25,1.16,1.16,0,0,0,.69.39,1.81,1.81,0,0,0,.4,0,2.24,2.24,0,0,0,.46-.15,1.67,1.67,0,0,0,.77-.56.8.8,0,0,0,.06-.74A.87.87,0,0,0,76.13,9l.21-.1a1,1,0,0,1,.89.07,1.08,1.08,0,0,1,.5.58,1,1,0,0,1-.22.93A3.1,3.1,0,0,1,77,11a2,2,0,0,1-.54.34,3.27,3.27,0,0,1-2.55,0,8,8,0,0,1-1.24-.59l-1.16-.7c-.27.06-.53.14-.8.21l.09-.06.28-.17.14-.08.34-.2h0a31.62,31.62,0,0,1,6.92-2.91h0c.91-.26,1.83-.48,2.75-.66s1.87-.3,2.8-.4a.45.45,0,0,1,.32.06.8.8,0,0,1,.24.4.64.64,0,0,1-.1.44.87.87,0,0,1-.37.3,2.32,2.32,0,0,0-.43-.23A7.56,7.56,0,0,0,83,6.52a2.72,2.72,0,0,0-1.33-.09c-.79.14-1.21.52-1.26,1.11a.71.71,0,0,0,.34.7l.2.1a.86.86,0,0,0,.23.06,1.8,1.8,0,0,0,.51,0A1,1,0,0,0,82.29,8a.79.79,0,0,0,.21-.62.41.41,0,0,0-.13-.24,3.09,3.09,0,0,1,.66.19l.16.08-.14.08-.27.18a4.24,4.24,0,0,0-.51.65,1.08,1.08,0,0,0-.14.74,1.7,1.7,0,0,0,.15.41.82.82,0,0,0,.45.34,1.37,1.37,0,0,0,.65.08,1.29,1.29,0,0,0,.67-.28.61.61,0,0,0,.28-.55.59.59,0,0,0-.24-.4.69.69,0,0,0-.52-.12l-.14,0a.79.79,0,0,1,.18-.32L83.87,8l.2-.14a1.44,1.44,0,0,1,.31-.09h0l.11,0s0,0,0,.14a1,1,0,0,1,.13.3l.16,2-.1-.07a1.75,1.75,0,0,0-1.11-.15l-.39,0-.58.13-.47.08-.35,0a.69.69,0,0,1-.59-.28,1,1,0,0,1-.19-.43,1.93,1.93,0,0,1,0-.71l-.46-.14a.19.19,0,0,0-.23.15A2,2,0,0,0,80.33,10,1.82,1.82,0,0,0,81,11a1.53,1.53,0,0,0,.85.31,2.89,2.89,0,0,0,1,0l.66-.19a3.79,3.79,0,0,1,.66-.16,1.28,1.28,0,0,1,.49,0l.2.07.17.12a2.93,2.93,0,0,1,.33.43l.25.17.24.17-.15-3.19a5.64,5.64,0,0,0-.11-1.08,1.27,1.27,0,0,0-.21-.29l.09-.09a.91.91,0,0,0,.32-.65A2.05,2.05,0,0,0,85.52,6a1.58,1.58,0,0,0-.18-.27c.76,0,1.52-.06,2.28,0l-.09,5,.43.4.21.2.21.21.29-5.82.59,0,.59,0,.59.06.59.07c-.16-.16-.33-.3-.49-.45L90,5l-.66,0-.67,0-.15-.45A2.85,2.85,0,0,0,88,3.63a3.35,3.35,0,0,0-.88-.71,3,3,0,0,0-.4-.2l-.37-.16a3.45,3.45,0,0,0-.67-.19L85,2.28l-.59,0a6.19,6.19,0,0,0-1,0,5.81,5.81,0,0,0-.58.09c-.19,0-.38.08-.57.14a5.27,5.27,0,0,0-.56.19l-.27.11-.27.14c-.61.31-.88.64-.81,1a.7.7,0,0,0,.24.41,1.37,1.37,0,0,0,.53.23,5.5,5.5,0,0,0,.67.11,4.42,4.42,0,0,0,.63,0l.38,0,1-.08a4.5,4.5,0,0,1,.51,0l.36,0q.28,0,.3.18s-.07.12-.2.22a32.26,32.26,0,0,0-6.68,1.18L78,6.2l-.49.15-.31.09,0,0h0l-.57.19-.6.21c-.8.3-1.59.62-2.37,1a31.65,31.65,0,0,0-3.39,1.83h0l-.43.27-.14.09-.17.11-.24.16-.24,0a2.25,2.25,0,0,1-.51-.37L67.8,10a14.37,14.37,0,0,0,1,1.33,1.3,1.3,0,0,0-.62,0,1.8,1.8,0,0,0-.56.2h0l0,0h0c-.15.1-.34.23-.55.4l-.32.28-.12.11a32.36,32.36,0,0,0-5.83,6.31l-.14.19L60.5,19l-.2.12a.49.49,0,0,1-.4-.08l-.13,0c-.24.13-.47.28-.7.42l1.71,1,.53.24a2.88,2.88,0,0,0-.78.1,3,3,0,0,0-.75.32,3.33,3.33,0,0,0-.72.58c-.1.12-.2.24-.29.37l-.13.2-.12.22a3.43,3.43,0,0,0-.06,3.26.58.58,0,0,0,.27.27.5.5,0,0,0,.47-.08.79.79,0,0,0,.35-.46c0-.13,0-.25.05-.36l0-.27a2.25,2.25,0,0,1,.06-.25c.09-.21.27-.25.53-.12q.16.07.18.18l.06.25.06.24.12.48.45-.52.46-.5a26.61,26.61,0,0,1-.46-3,1.82,1.82,0,0,1,1.14-.09l1.62,1.14-.09,0a3.58,3.58,0,0,0-.54.31,1.07,1.07,0,0,0-.16.14l-.15.15-.27.31c-.09.11-.17.22-.25.34s-.16.23-.23.35l-.2.36-.18.31c-.1.2-.2.36-.28.5a2.49,2.49,0,0,1-.31.5c-.4.41-.79.55-1.15.41a.62.62,0,0,1-.2-.2,2.3,2.3,0,0,0-.59.42.12.12,0,0,0,0,.13.48.48,0,0,0,.21.13A5.18,5.18,0,0,0,60,27a1.75,1.75,0,0,0,1.13.06,1.49,1.49,0,0,0,.48-.22,2.27,2.27,0,0,0,.45-.38,5.19,5.19,0,0,0,.36-.46,4.3,4.3,0,0,0,.28-.52l.11-.25.1-.22.19-.4.29-.54a4.2,4.2,0,0,1,.24-.38,1.8,1.8,0,0,1,.25-.29,1.38,1.38,0,0,1,.51-.34h.75a2.41,2.41,0,0,0,1-.14l-.47-.3L61.1,19.45l.15-.23.16-.22.26-.37.33-.44.13-.17q.6-.76,1.23-1.5c0,.09,0,.16,0,.21a2.59,2.59,0,0,0,.11.81,1,1,0,0,0,.3.48,1.41,1.41,0,0,0,.3.19,1.36,1.36,0,0,0,.64.12,2.56,2.56,0,0,0,.76-.17,2.7,2.7,0,0,0,.33-.22,2.43,2.43,0,0,0,.29-.26,2.53,2.53,0,0,0,.32-.43c0-.08.11-.17.16-.27s.11-.2.17-.32a.35.35,0,0,1,.06-.09.18.18,0,0,1,.21,0,.37.37,0,0,1,.2.12c.14.14.12.39,0,.74l-.1.18-.12.19a4.5,4.5,0,0,1-.28.37,1.49,1.49,0,0,1-.45.37,2.17,2.17,0,0,1-.62.25,4.28,4.28,0,0,1-.59.1,2.42,2.42,0,0,1-.54,0,4.81,4.81,0,0,1-.82-.26,2.39,2.39,0,0,1-.89-.56,3.77,3.77,0,0,0-.69.39,6.39,6.39,0,0,0,2,1.19,3.93,3.93,0,0,0,1.39.17,3.08,3.08,0,0,0,2.12-1,2.45,2.45,0,0,0,.38-.5,2.92,2.92,0,0,0,.21-.56,1.88,1.88,0,0,0-.07-1.13A1.31,1.31,0,0,0,67.87,16.24ZM84.69,3.75a2.7,2.7,0,0,0-.41-.06l-.48,0h-.2l-.4,0-.6,0-.79.1q-.6.09-.63-.06c0-.07,0-.15.19-.23l.26-.12L82,3.33a6.7,6.7,0,0,1,1.21-.25c.22,0,.44,0,.64-.05h.59l.54,0,.5.08.44.11a3.52,3.52,0,0,1,.39.16,2.45,2.45,0,0,1,.63.41,2.25,2.25,0,0,1,.65.79l.09.29H85.87a.45.45,0,0,0,0-.16,1,1,0,0,0-.55-.8A1.78,1.78,0,0,0,84.69,3.75ZM59.63,23.64a1.18,1.18,0,0,0-.49.46,1.46,1.46,0,0,1-.07-.7,3,3,0,0,1,.29-.84,1.59,1.59,0,0,1,.28-.36,2.32,2.32,0,0,1,.42-.32c0,.29.07.58.1.87s.08.57.12.85A1,1,0,0,0,59.63,23.64Z"/><path class="cls-3" d="M96.25,7c.77.24,1.54.51,2.3.8L98.48,8a13.56,13.56,0,0,0-2.68-.08,7.62,7.62,0,0,0-.93.13l-.56.12-.62.16.38.68c.12.22.24.45.35.68l.29.11a1.69,1.69,0,0,1,.27.12,2.69,2.69,0,0,1,.5.28,3.39,3.39,0,0,1,.42.33,3,3,0,0,1,.35.37,3.32,3.32,0,0,1,.69,1.92c0,.15.09.29.13.44l.12.44,2.33-5.47.68.31a1.42,1.42,0,0,1,.79.89.71.71,0,0,1-.07.54L99,13.72c.14.38.26.75.38,1.13l2.86-5.24c.31.17.62.36.92.54l.46.28.23.14h0a1.12,1.12,0,0,0-.9.5,1.27,1.27,0,0,0-.06,1.13,2.1,2.1,0,0,0,.32.59,2.5,2.5,0,0,0,.5.47,1.92,1.92,0,0,0,.66.33,1.89,1.89,0,0,0,.85,0,1.14,1.14,0,0,0,.65-.39,1.09,1.09,0,0,0,.22-.49,1.69,1.69,0,0,0-.05-.62,1.85,1.85,0,0,0-.29-.62,1.55,1.55,0,0,0-.24-.27,1.59,1.59,0,0,0-.13-.13.91.91,0,0,0-.16-.11,2,2,0,0,0-.62-.3,2.48,2.48,0,0,0-.61-.07l-.06-.16-.13-.31c-.08-.2-.17-.41-.26-.61l-.51-.3-.51-.29-.07-.23A2.51,2.51,0,0,1,102.6,8l-.39-.6A14.42,14.42,0,0,0,101.52,9a1.58,1.58,0,0,0-.09-.31,1.24,1.24,0,0,0-.17-.27,1.71,1.71,0,0,0-.22-.25L100.81,8V8l0,0h0a4.65,4.65,0,0,0-.6-.31l-.4-.16-.19-.06c-.84-.36-1.7-.69-2.57-1l-.49-.15L96,6.16c-.33-.1-.66-.18-1-.27l-.5-.12L94,5.65l-1-.2c.31.31.61.64.9,1C94.69,6.6,95.47,6.8,96.25,7Zm1,4.24a4.93,4.93,0,0,0-1.66-2.12,9.88,9.88,0,0,1,2.52-.1Zm7.11.33a1.51,1.51,0,0,1,.85.2.31.31,0,0,1,.08.49c-.1.14-.17.22-.23.24a1.19,1.19,0,0,1-.61,0,1.71,1.71,0,0,1-.63-.2.26.26,0,0,1-.07-.41A.7.7,0,0,1,104.33,11.61Z"/><path class="cls-3" d="M103.75,15.64c0-.26-.08-.48-.12-.67a4.22,4.22,0,0,0-.12-.46c-.06-.21-.12-.42-.19-.61s-.13-.37-.2-.55-.13-.33-.2-.49-.13-.31-.2-.44l-.81,1.3a13.37,13.37,0,0,1,1.29,3.19l.12.63c0,.21.07.42.1.63l.5-.6c0-.19,0-.38,0-.55s0-.35,0-.51C103.82,16.19,103.78,15.89,103.75,15.64Z"/><path class="cls-3" d="M119.19,38.14l-1.25.12.17-.15c.21-.18.39-.35.55-.51a3.5,3.5,0,0,0,.38-.45,1.23,1.23,0,0,0,.3-.73,2.5,2.5,0,0,0-.07-.39,4.7,4.7,0,0,0-.16-.49,3.73,3.73,0,0,0-.2-.4,1.83,1.83,0,0,0-.24-.31,1.49,1.49,0,0,0-.28-.23,1.23,1.23,0,0,0,.29-.36s.09-.16.23-.45a2.11,2.11,0,0,0,.12-.51,3.71,3.71,0,0,0,0-.57c-.1-.67-.22-1.33-.36-2v0c0-.05,0-.11,0-.17-.07-.35-.16-.69-.24-1,0-.17-.1-.34-.14-.51l-.15-.52-.15-.51-.16-.51-.09-.25-.08-.26-.18-.5-.19-.5-.09-.25-.1-.25-.2-.49-.22-.49-.1-.24L116.4,24l-.21-.44c-.42-.93-.88-1.84-1.39-2.73v0c-.19-.34-.4-.67-.61-1,0-.1,0-.18,0-.24a2.25,2.25,0,0,1,.37-.51c0-.24,0-.48-.06-.72a14.37,14.37,0,0,0-1.33,1,1.57,1.57,0,0,0-.2-1.28v0h0l-.06-.08-.1-.15-.22-.3-.27-.32a32.33,32.33,0,0,0-5.86-5.77l.21.65.2.65a32.53,32.53,0,0,1,4.18,4.12l-.7.6a.86.86,0,0,0,0-.16c0-.1,0-.22,0-.35a1.6,1.6,0,0,0-.36-.76,1.06,1.06,0,0,0-.5-.3,1.29,1.29,0,0,0-.56-.06v-.14a2.74,2.74,0,0,0-.09-.39,1.89,1.89,0,0,0-.16-.36,2.37,2.37,0,0,0-.22-.33,2.81,2.81,0,0,0-.29-.31,3.24,3.24,0,0,0-.31-.24,2.41,2.41,0,0,0-.33-.15,1.7,1.7,0,0,0-.71-.09,1.46,1.46,0,0,0-1,.56,1.53,1.53,0,0,0-.33,1.31,1.89,1.89,0,0,0,.27.7,3.39,3.39,0,0,0,.23.34c.09.11.2.21.31.32a1.79,1.79,0,0,0,.31.25l.15.08.15.07a1.12,1.12,0,0,0,.63,0c.14,0,.27-.21.37-.53a.88.88,0,0,0-.25-1,1.2,1.2,0,0,0-.3-.23,1,1,0,0,0-.33-.1.6.6,0,0,0-.55.18.51.51,0,0,0-.12.23.62.62,0,0,1,0-.79.7.7,0,0,1,.66-.21,1.37,1.37,0,0,1,.77.38,1.45,1.45,0,0,1,.48.86,2.32,2.32,0,0,1,0,.55.34.34,0,0,1-.28.28l.64.38c.2-.29.37-.44.49-.47a.41.41,0,0,1,.36.16.82.82,0,0,1,.21.54.52.52,0,0,1-.13.46l-2.34,2c0,.39,0,.79,0,1.18l4.51-3.62.32.42h0v0l.15.2a1.7,1.7,0,0,1,.27.56,1.56,1.56,0,0,1,0,.61.7.7,0,0,1-.31.44l-3.41,2.39c0,.19,0,.39-.09.59s-.06.39-.1.58l5-3.24.21.33v0c.36.59.69,1.2,1,1.81a3.28,3.28,0,0,0-2.94.1,3,3,0,0,0-1.55,2.33,1.53,1.53,0,0,0,0,.52,2.06,2.06,0,0,0,.19.56,1.59,1.59,0,0,0,.26.41,1.43,1.43,0,0,0,.36.29.88.88,0,0,0,.81.08.69.69,0,0,0,.45-.71.78.78,0,0,0-.05-.49,1,1,0,0,0-.12-.19,1.29,1.29,0,0,0-.16-.18c-.34-.28-.63-.32-.88-.13a1,1,0,0,0-.21.31l0,.07a.16.16,0,0,1,0-.08,2.2,2.2,0,0,1,.26-1,1.74,1.74,0,0,1,.7-.67,6,6,0,0,1,.77-.31,2.12,2.12,0,0,1,1.49,0,2.86,2.86,0,0,1,.73.42,4.76,4.76,0,0,1,.71.71,5.1,5.1,0,0,1,.61,1l-2.8,1.18-.21.69c-.08.23-.15.46-.23.68a3.31,3.31,0,0,1,.83.17,3.12,3.12,0,0,1,.39.15,3.24,3.24,0,0,1,.36.2,3.38,3.38,0,0,1,.67.54c.1.1.2.22.3.34s.18.25.27.39a4.93,4.93,0,0,0-1.26.19,11.48,11.48,0,0,0-2.13,1c0,.25-.09.51-.13.76.77-.34,1.19-.53,1.27-.54a3.27,3.27,0,0,1,.47-.16,3.42,3.42,0,0,1,1.25-.05,5.65,5.65,0,0,1,1.52.44l.24-.81.21-.82a9.59,9.59,0,0,0-.73-1.08,5.2,5.2,0,0,0-.7-.75l-.31-.25-.27-.21-.42-.3,1.86-.71a32.38,32.38,0,0,1,1.62,6.28,2,2,0,0,1,0,.35,1.37,1.37,0,0,1-.08.35,2.08,2.08,0,0,1-.27.36,2.16,2.16,0,0,0-.61-.76,1,1,0,0,0-.77-.29.86.86,0,0,0-.57.37.85.85,0,0,0-.16.35,1.17,1.17,0,0,0,0,.42,1.18,1.18,0,0,0,.08.31,1.15,1.15,0,0,0,.15.32,1.3,1.3,0,0,0,.42.47,1.49,1.49,0,0,0-.42,1.09,2.9,2.9,0,0,0,0,.34,1,1,0,0,0,.09.28.73.73,0,0,0,.32.35,2,2,0,0,0,.42.09.74.74,0,0,0,.52-.28,3,3,0,0,0,.56-.87.35.35,0,0,1,.2.2.76.76,0,0,1,.06.18,1.5,1.5,0,0,1,0,.24c0,.24-.13.54-.49.87s-.54.43-.68.43l-3.46-.1c-.26.31-.53.61-.8.89l5.74.28c0,.66-.09,1.32-.16,2,.29-.33.58-.67.86-1,0-.24,0-.49,0-.73a.61.61,0,0,1,.22-.35h.15a.47.47,0,0,0,.26-.11,8.57,8.57,0,0,0,.54-.79Zm-8.44-12.7.11.12S110.79,25.53,110.75,25.44Z"/><path class="cls-4" d="M78,25.26h0Z"/><path class="cls-4" d="M100.93,52.6c0-.12-.21-.65-.28-.87a10.74,10.74,0,0,1-.14-1.08,10.29,10.29,0,0,1,0-1.45,5.43,5.43,0,0,0,0-.84c0-.19-.19-.47-.25-.71s.16-.33.28-.58-.1-.63-.21-.85a2.23,2.23,0,0,1-.13-.9,1.16,1.16,0,0,0,0-.58,2.48,2.48,0,0,0-.12-.38,2.65,2.65,0,0,1-.07-.6c0-.34-.11-.3-.21-.33s0,0-.06-.32a1.94,1.94,0,0,0-.4-.87c-.2-.22-.14-.22-.11-.6a.68.68,0,0,0-.09-.52,3.36,3.36,0,0,1,0-1.15,3.31,3.31,0,0,0,0-.62,6.32,6.32,0,0,0-.37-1.24c-.11-.36-.13-.23-.17-.46s.07-.27,0-.48-.17-.14-.17-.14l-.11.12s-.08,0-.32,0-.05,0-.1-.11a.43.43,0,0,0-.12-.1.48.48,0,0,0-.15.12.78.78,0,0,1-.23.29c-.13.1-.25,0-.38,0s0,0-.13-.16-.15,0-.22,0-.19.12-.24.22a4,4,0,0,0,0,.84c0,.09,0,.14,0,.25a.44.44,0,0,1,0,.18c0,.07-.24.18-.53.43a2.34,2.34,0,0,0-.49.6c-.14.21,0,.7,0,1s.09.38,0,.57-.22.22-.37.43a.62.62,0,0,1-.81.2c-.3-.19-.22-.23-.28-.53s-.18-.51-.3-.92-.13-.32-.13-.32c-.61-.28-.46.25-.46.55s0,.52-.06.51-.16-.14-.25-.3,0-.18-.15-.56a5.3,5.3,0,0,1-.13-1.13A4.8,4.8,0,0,0,92.17,38c-.12-.29-.09-.25,0-.55s.08-.07.1-.16a.67.67,0,0,1-.09-.19c0-.06,0-.08.08-.18s.11-.14.24-.34a1.71,1.71,0,0,0,.21-.81c0-.27.08-.25.13-.37s.2,0,.44-.1.13-.11.17-.24a2.84,2.84,0,0,1,.16-.46c.09-.18.16,0,.23,0a1.92,1.92,0,0,0,.76.12c.27,0,.29,0,.29,0a1,1,0,0,1,0-.2,1.68,1.68,0,0,1,.1-.29c0-.12,0-.1,0-.16a.1.1,0,0,1,.07-.07l.11.08a1.08,1.08,0,0,0,.41.21c.27.07.11,0,.15-.17s0,0-.07-.13-.08-.2-.08-.2l.18-.07.19,0c.1,0,.11.09.2.27s.13.28.27.29.25-.2.29-.32a1.4,1.4,0,0,0,.06-.25,2.11,2.11,0,0,1,.1-.4c0-.14,0,0,.11-.06s.14,0,.15,0a.21.21,0,0,0,.08-.19c0-.13-.07-.06-.07-.06v-.29a2,2,0,0,0,.46,0c.28,0,.27-.08.27-.08s.07-.37.07-.4a2.43,2.43,0,0,1,.12-.36c0-.12.07-.12.07-.12a1.56,1.56,0,0,0,.32,0,.4.4,0,0,0,.2-.06,4.31,4.31,0,0,0,0-.89c0-.18,0-.19.1-.32a.77.77,0,0,0,.06-.48c0-.24-.06-.16-.12-.32s0-.22.12-.24.2.07.62.21.57-.13.67-.32-.49-.72-.64-.91-.44-.23-.84-.36a4,4,0,0,1-.85-.44,3.29,3.29,0,0,0-1.4-.18,2.34,2.34,0,0,0-1.09.26c-.43.13-.29-.16-.39-.24s-.36,0-.45.16-.34.07-.52-.05a.47.47,0,0,0-.44,0s-.08,0-.45-.21-.42-.11-.51-.05-.17.09-.48,0-.3,0-.77,0-.33.1-.57.23a1.64,1.64,0,0,1-1-.09,2,2,0,0,0-1.23.09c-.09.09-.33.07-.33.07a3.69,3.69,0,0,1-.88-.17,4,4,0,0,0-.59-.21c-.22-.08-.52-.1-.79-.17l-.23-.06a2.84,2.84,0,0,0-.28-.26,1,1,0,0,0-.56-.09,2.14,2.14,0,0,1-.46-.06c-.18,0-.15-.08-.18-.1s0-.07,0-.16a3.11,3.11,0,0,1,0-.34,2.3,2.3,0,0,0,.12-.59c0-.34.07-.32.21-.68s0-.48-.17-.68-.09-.27,0-.5.38-.4.45-.71-.09-.42-.36-.63a2.36,2.36,0,0,1-.44-.5c-.1-.12-.06-.23-.08-.38a.54.54,0,0,0-.08-.25c0-.06-.17-.1-.23-.19a1.16,1.16,0,0,0-.2-.25c-.09-.09-.1,0-.24.07a.81.81,0,0,0-.34.53c0,.19.09.22.09.29a1.37,1.37,0,0,0-.07.41c0,.24-.74.17-1,.06a6.31,6.31,0,0,0-.6-.21,4.22,4.22,0,0,1-1-.94c-.06-.1-.15-.73-.22-1a1,1,0,0,0-.4-.54.85.85,0,0,0-.69-.07c-.15.06-.1.33-.07.42s.31.22.45.31.26.26.25.32-.17.07-.37.07-.24-.15-.37-.25-.21,0-.28.11-.14.1-.14.1-.55-.66-.85-1a5.65,5.65,0,0,0-1.1-.84,2.21,2.21,0,0,1-.45-.29s0-.41,0-.44,0-.06-.14-.06a.26.26,0,0,0-.26.21,2,2,0,0,1-.24.43.85.85,0,0,0-.1.59c0,.09.25.06.32,0s.15-.14.32-.1.27.23.32.42-.18.34-.39.44-.28.21-.43.42a1.12,1.12,0,0,1-.66.56c-.43.14-.54.9-.57,1.1s-.19.24-.3.43a1.69,1.69,0,0,0,0,.84c0,.23.31.33.5.3a.49.49,0,0,0,.29-.2.65.65,0,0,1,.19.17,3,3,0,0,0,.73.59c.34.2.52.71.82,1a1.24,1.24,0,0,0,1,.42c.15-.09.22-.2.43-.19a.63.63,0,0,0,.2,0h0s0,.25.08.56.11.22.24.36a2.77,2.77,0,0,1,.28.36,2.17,2.17,0,0,1,0,.74c-.07.17-.72.06-.83.06s-.13,0-.33-.17-.42.06-.68.13a.26.26,0,0,1-.34-.1,4.58,4.58,0,0,0-.62,0,4,4,0,0,1-.06.65,1.45,1.45,0,0,1-.25.7c-.15.18-.34.21-.45.31s.08.29.07.37-.23.05-.56-.2a.64.64,0,0,0-.59-.15s0,.05,0,.42a1.68,1.68,0,0,1-.44.85,1.16,1.16,0,0,0-.28.68c0,.23.24.37.49.66a7,7,0,0,0,1.65,1.14,3.58,3.58,0,0,0,1,.45,3,3,0,0,1,.87.19c.16.09.18.39.18.64s-.15.23-.25.39,0,.24.11.5.11.28.05.52-.25.24-.45.43a2,2,0,0,0-.54.77,2.16,2.16,0,0,0,0,1c.05.41.63.69.63.69s.51.26.52.32a.43.43,0,0,1-.07.25c-.06.09-.17.32-.23.44a.82.82,0,0,0,0,.51c0,.29.2.34.2.34h1.29a1.24,1.24,0,0,1,0,.2c0,.08-.11.13-.2.17a1.92,1.92,0,0,0-.35.35,1.07,1.07,0,0,0-.18.6,1.27,1.27,0,0,0,.1.4,1,1,0,0,0,.13.26,2,2,0,0,1,.07.26,1.62,1.62,0,0,0,.19.29.31.31,0,0,1,.09.28c0,.14,0,.18-.2.26a.22.22,0,0,0-.06.31s.2.07.25.15,0,.15-.07.27a.64.64,0,0,0-.08.47.85.85,0,0,0,.27.38,1.22,1.22,0,0,1,0,.61,2.73,2.73,0,0,0-.07.51,2,2,0,0,0,.18.7,3.73,3.73,0,0,0,.32.42.32.32,0,0,1,0,.3,1,1,0,0,0-.06.38,1,1,0,0,0,.13.46.53.53,0,0,1,0,.35c0,.08-.07,0-.19.2s-.07.73,0,.88a.68.68,0,0,0,.25.36c.14.1.3.21.43.13s.08-.34,0-.46-.24-.15-.28-.21a2.59,2.59,0,0,1,0-.69c0-.09.14-.05.14,0s0,.22,0,.43.07.3.09.31.21,0,.23,0a.1.1,0,0,1,0-.07s0,0,.08,0,0,0,0,.07,0,0,0,0l.09,0v1s.09.11.16.12a.38.38,0,0,0,.27-.17.46.46,0,0,0,.08-.23.19.19,0,0,0,0-.13h0s0,0,0,0a.4.4,0,0,0,0-.11s0-.07.06-.1,0-.7,0-.8a.32.32,0,0,0-.08-.24c-.06-.06-.13-.05-.24-.42a1.51,1.51,0,0,1,.22-.91h.32a1.7,1.7,0,0,1,0,.24s0,0-.08.07,0,.12,0,.22a1.3,1.3,0,0,0,.37.42.51.51,0,0,1,.14.17v.51h-.51v.35a1,1,0,0,0,.2.06c.11,0,.06.09.1.2s0,.16.1.24.31,0,.49,0a.44.44,0,0,0,.19-.42c0-.09,0-.08-.1-.14a.3.3,0,0,1-.08-.16,1.76,1.76,0,0,1,0-.33l.35,0s0-.21,0-.38,0-.18,0-.2L81.8,48a1.08,1.08,0,0,1-.11-.18c0-.07,0-.14,0-.25s.12-.08.14-.08a.35.35,0,0,1,.07.12s0,.14,0,.18a.66.66,0,0,0,.1.18s0,.1.08.11.07,0,.08,0a.23.23,0,0,1,.08-.12s0-.07,0-.07v-.38h.77a.25.25,0,0,0,.08.09s.23,0,.28,0,.08.11.09.13l.08.09s.1,0,.1-.06a.22.22,0,0,0-.09-.14s-.06-.12-.06-.12l.1,0,.15.06a.61.61,0,0,0,0,.11s0,.09.06.1a.28.28,0,0,0,.15,0s0-.18,0-.23.16-.07.18-.07,0,.06,0,.13v.28c0,.07,0,.08-.09.12s0,.12,0,.12.07,0,.09.07,0,.15,0,.19a.43.43,0,0,0,0,.15h.07V48.3a.21.21,0,0,1,0-.12.65.65,0,0,1,.49.1s.06.49.1.61.13.19.28.24a2.44,2.44,0,0,0,.85.24c.27,0,.37-.38.45-.44s.15,0,.19.12.26,0,.26,0l0-.39a1.91,1.91,0,0,0,.49,0c.18,0,.34-.29.41-.41a1.5,1.5,0,0,1,.46-.3c.13.37.59.11.59.11a2.2,2.2,0,0,0,1.19-1.7c0-.61.32-.5.32-.5.23.26,0,.86,0,.86a1.06,1.06,0,0,0-.34.89.26.26,0,0,0,.34,0c.63-.53.42-3,.42-3h1.33l.31-.16c.25-.12.21-.08.32-.2a2.16,2.16,0,0,0,.22-.48c0-.09.14,0,.25,0s.12-.08.28-.22.36,0,.37.06a6.86,6.86,0,0,1,.55.73c.07.13.52.83.65,1.14a4.14,4.14,0,0,1,.27,1,2.6,2.6,0,0,0,.43.9c.11.14.06.4.1.71a.8.8,0,0,1-.14.66.67.67,0,0,1-.16.06s0,.93,0,1.15.12.24.28.52a.86.86,0,0,1,0,.76c-.09.12-.09.13,0,.31s.44.09.52.28,0,.15.18.38S97,53,97,53.3a2.31,2.31,0,0,0,.44.82,2.1,2.1,0,0,1,.34.56c.09.2.28.53.43.79a11.49,11.49,0,0,0,.58,1c.15.21.3.22.34.08a1.64,1.64,0,0,0-.26-.76c-.11-.2-.13-.39-.26-.7a1.76,1.76,0,0,1-.17-.67,2.5,2.5,0,0,0-.39-.76.74.74,0,0,1-.09-.51,2.64,2.64,0,0,1,.07-.55c0-.24.65-.65.65-.65.45-.39.6.47.6.47s0,.13.29,0,.27-.13.38-.13.18.31.21.43a.64.64,0,0,0,.4.32C100.77,53.09,100.94,52.72,100.93,52.6Zm-12.6-5.14a1.54,1.54,0,0,1-.17.13,1.47,1.47,0,0,0-.25.25.57.57,0,0,1-.35.21c-.18,0-.27,0-.47,0s-.19.2-.35.23a1,1,0,0,1-.61,0c-.17-.09,0-.43.08-.57s.49,0,.55.07.19,0,.22-.08.1,0,.24,0a1.43,1.43,0,0,0,.79-.34.33.33,0,0,1,.32-.11.14.14,0,0,1,.08.11C88.42,47.45,88.33,47.46,88.33,47.46Z"/><path class="cls-4" d="M84.12,48.22,84.07,48,84,48s-.24,0-.24,0a.39.39,0,0,0-.12.34c0,.18,0,.3.06.42a.29.29,0,0,0,.32.15c.1,0,.24,0,.25-.12a1,1,0,0,0,0-.3S84.14,48.28,84.12,48.22Z"/><path class="cls-4" d="M83.29,48.46c0-.14.1-.3.14-.37s0-.28,0-.28a2.09,2.09,0,0,0-.35,0c-.15,0-.16.1-.19.19a1.34,1.34,0,0,0,0,.84.5.5,0,0,0,.59.33c.16,0,.13-.19,0-.36A1,1,0,0,1,83.29,48.46Z"/><path class="cls-4" d="M83.05,49.24c-.14-.09-.25-.22-.32-.26s-.16-.45-.16-.45-.26-.09-.34,0,0,.21,0,.28,0,.18-.08.19-.06.13-.08.15a.64.64,0,0,0,0,.14.41.41,0,0,0,.08.14c0,.06,0,.13,0,.22a.32.32,0,0,0,.12.31c.09.07.26-.1.24-.23a.81.81,0,0,0-.15-.31c-.06-.09,0-.14,0-.14l.18.18s.31.22.46.2S83.19,49.34,83.05,49.24Z"/><path class="cls-4" d="M80.94,49.93s0-.07,0-.08l-.23,0s-.06.1,0,.1.09,0,.09,0a.11.11,0,0,1,0,0s0,.09.07.09l.15,0s0,0,0,0L81,50S81,50,80.94,49.93Z"/><path class="cls-4" d="M88,49.07a2.1,2.1,0,0,0-.26,0c-.14,0-.1-.12-.14-.15a1.24,1.24,0,0,0-.19.07c-.08,0,0,.12,0,.16s.16.13.2.15a1.19,1.19,0,0,0,.29,0,.5.5,0,0,0,.2-.08c.07,0,0-.07,0-.12S88,49.1,88,49.07Z"/><path class="cls-4" d="M88.25,48.3l-.21.09s-.07,0-.06.12,0,.16,0,.22.18.15.25.11.1-.13.15-.15a.39.39,0,0,0,.06-.32A.28.28,0,0,0,88.25,48.3Z"/><path class="cls-4" d="M89.19,48.54s.07-.19,0-.22a.35.35,0,0,0-.2-.07l-.21.1-.17.1s-.1.19,0,.27.18.13.3.05A1.18,1.18,0,0,0,89.19,48.54Z"/><path class="cls-4" d="M89.3,48.65a1.08,1.08,0,0,0-.08.2c0,.13-.07.12-.15.17a.24.24,0,0,0-.14.16c0,.07,0,.19.07.22s.41.07.48,0,.19-.33.13-.47S89.48,48.61,89.3,48.65Z"/><path class="cls-4" d="M91.87,44.89a1.36,1.36,0,0,0-.34-.11c-.08,0-.22,0-.25.15s0,1.86,0,2-.11.63-.11.63-.4.12-.39.22-.1.47.19.36.26-.25.41-.35a2.21,2.21,0,0,0,.72-1,2.09,2.09,0,0,0-.15-.93c-.06-.18-.12-.31-.12-.34s0-.12,0-.11.07.2.19.29a.41.41,0,0,0,.32,0s0-.46-.09-.54A1.5,1.5,0,0,0,91.87,44.89Z"/><path class="cls-4" d="M94,44.46a.78.78,0,0,0-.28-.41s-.23-.15-.28.2a1.59,1.59,0,0,0,.07,1.18c.25.49.34.66.6.51s.41-.29.23-.7A3.76,3.76,0,0,1,94,44.46Z"/></g></g></svg>