<svg xmlns="http://www.w3.org/2000/svg" viewBox="0 0 139.78 137.22"><defs><style>.cls-1{fill:#e92628;}.cls-2{fill:#0e8844;}</style></defs><title>Asset 14</title><g id="Layer_2" data-name="Layer 2"><g id="Layer_1-2" data-name="Layer 1"><path class="cls-1" d="M13.79,49.71a5.14,5.14,0,0,0-2.93-4.78,12.73,12.73,0,0,0-1.53-.7,3.59,3.59,0,0,0-3.65.49.8.8,0,0,0-.17.32,1.26,1.26,0,0,0,0,.15c-.14,0-.19-.17-.18-.56-.06.17-.06.26,0,.29a3.38,3.38,0,0,1,.47-.11,2.51,2.51,0,0,1,.71-.06,1.39,1.39,0,0,1,1.14,1.3,1.57,1.57,0,0,1-.06.76,1,1,0,0,1-.54.62,1.49,1.49,0,0,1-1.6.27,1.92,1.92,0,0,1-1.15-1.13,2.26,2.26,0,0,1,0-1.66,2.78,2.78,0,0,1,1.18-1.52,6.21,6.21,0,0,1,5.48-.28,8.57,8.57,0,0,1,4.34,3.74l1-2.82,2-.93-2.92,8L13.41,52A6.68,6.68,0,0,0,13.79,49.71Z"/><path class="cls-1" d="M17.62,54.59v0q0,.09-.12,1a5.8,5.8,0,0,1-1.08,3.09,2.81,2.81,0,0,1-2.86,1l-.22,1.09L11.43,62l1.65-8.25L6,52.35c-.38-.08-.61.1-.7.52a2.77,2.77,0,0,0,.63,1.93,4.47,4.47,0,0,0,1.57,1.57V56.3a1.66,1.66,0,0,1,.63-1.07A1.34,1.34,0,0,1,9.26,55a2.13,2.13,0,0,1,.43.13A1.63,1.63,0,0,1,10.63,57a1.86,1.86,0,0,1-1.06,1.37,2.59,2.59,0,0,1-1.81.2,4.81,4.81,0,0,1-2.92-1.84c-1.18-1.7-1.69-3-1.52-3.77a2.54,2.54,0,0,1,2.61-2.1,8.25,8.25,0,0,1,1.63.23l5.81,1.17.33-1.63,1.78-.94-1.69,8.48.39.11c.61,0,.94-.41,1-1.22q.16-.81.33-2.19c0-.39.08-.65.11-.8a4.44,4.44,0,0,1,1.12-2.26A2.3,2.3,0,0,1,19,51a1.75,1.75,0,0,1,1,.6.61.61,0,0,1,.21.65.33.33,0,0,1-.16.25,2.25,2.25,0,0,1-.6-.06.77.77,0,0,0-.43-.36c-.44-.08-.8.15-1.08.7A7.82,7.82,0,0,0,17.62,54.59Z"/><path class="cls-1" d="M15,71.31a6.13,6.13,0,0,0,1.49-3.7,4.72,4.72,0,0,0-.75-2.6,8.89,8.89,0,0,0-.85-.79c-.42-.36-.7-.53-.84-.53l-.83.33-.12,2L11.4,67.49l.21-3.12L0,63.63l1.62-1.49,10.09.64.09-1.5,1.66-1.46-.18,2.9c.2-.18.42-.36.65-.53a1.07,1.07,0,0,1,.74-.23,2.17,2.17,0,0,1,1,.31,7.77,7.77,0,0,1,1.41,1.23A6.18,6.18,0,0,1,18,65.13a3.62,3.62,0,0,1,.22,1.56,9.16,9.16,0,0,1-1.84,4.61,13.73,13.73,0,0,1-1.94,2l-1.48.4Z"/><path class="cls-1" d="M12.13,76.6.38,77.6l1.38-1.72L8,75.35a1.18,1.18,0,0,0,.79-.46A1.19,1.19,0,0,0,9.15,74a.58.58,0,0,0-.39-.51,2.85,2.85,0,0,0-1.38.11l-.51-1.08a.82.82,0,0,0,.8-.07,4.55,4.55,0,0,0,.73-.66,1.91,1.91,0,0,0,.43-1.48,1.78,1.78,0,0,0-.61-1.21A1.57,1.57,0,0,0,7,68.69a1.2,1.2,0,0,0-1.16.88,1.48,1.48,0,0,1,.51-.13,1.34,1.34,0,0,1,1.06.34,1.55,1.55,0,0,1,.49,1,1.41,1.41,0,0,1-1,1.47,1.78,1.78,0,0,1-1.27.29A1.86,1.86,0,0,1,4.24,70.8,3.32,3.32,0,0,1,5,68.27a3.41,3.41,0,0,1,2.38-1.12,3.79,3.79,0,0,1,2.26.48,2.34,2.34,0,0,1,1.26,1.86,3,3,0,0,1-.75,2.3L9.93,72a2.12,2.12,0,0,1,.8.58,1.27,1.27,0,0,1,.4.79,1.85,1.85,0,0,1-.37,1.22L10.3,75a1.62,1.62,0,0,1-.18.2L12,75l-.72-8.49,1.42-1.74L13.8,77.94l-1.42,1.73Z"/><path class="cls-1" d="M13.69,84.71a5.14,5.14,0,0,0-5.13-2.26,12.47,12.47,0,0,0-1.66.3,3.62,3.62,0,0,0-2.73,2.48.88.88,0,0,0,0,.36l0,.16c-.1.08-.25,0-.46-.37,0,.17.1.25.18.23a3.27,3.27,0,0,1,.32-.35,2.14,2.14,0,0,1,.55-.45,1.38,1.38,0,0,1,1.68.42,1.62,1.62,0,0,1,.39.66,1.12,1.12,0,0,1-.09.81,1.47,1.47,0,0,1-1.16,1.13,1.87,1.87,0,0,1-1.59-.27,2.27,2.27,0,0,1-1-1.36,2.71,2.71,0,0,1,.1-1.92,6.2,6.2,0,0,1,4.35-3.34,8.5,8.5,0,0,1,5.7.6l-.75-2.9,1.12-1.91L15.77,85l-1.09,1.85A7,7,0,0,0,13.69,84.71Z"/><path class="cls-1" d="M17.79,93.89,7,98.6l.46-1.18a8.86,8.86,0,0,0,1.87-3,4.33,4.33,0,0,0,.26-1.87,7,7,0,0,0-.51-1.85l1.27-2.4a35.42,35.42,0,0,1,3.93,1.84c0-.21.06-.41.08-.59a11.08,11.08,0,0,0-.2-1.63,3.28,3.28,0,0,1,0-1.65l.22-.44.78-2,4.73,10.85-.8,2.08Zm-.64-1.46-1.3-3a14.57,14.57,0,0,1-1.2,3.11,16.45,16.45,0,0,1-1.75-.7,10.79,10.79,0,0,0-1.67-.64,7.38,7.38,0,0,1-1.05,4.24Z"/><path class="cls-1" d="M20.14,97.12c.84-.62,1.8-1.26,2.86-1.92l-.16,1.11a6.37,6.37,0,0,0-.86.9c-.05.1-.1.23-.16.38L22.69,99l-.52,2.14L20.54,98.5l-10.3,6.35.61-2.16,7.2-4.44a1.73,1.73,0,0,0,.75-.78,1.91,1.91,0,0,0,0-1.86l-.19-.3L19,93.18a9.85,9.85,0,0,1,1.24,1.92A2.18,2.18,0,0,1,20.14,97.12Z"/><path class="cls-1" d="M25.91,107.49l1.07-1c.58-.56,1.5-1.37,2.75-2.42l-.12,1.62a1.3,1.3,0,0,0-.82.8c0,.06,0,.18.1.36.32.37.65.76,1,1.18l-.2,2.21-2.07-2.47-9.19,7.72L18.7,113l4.75-3.87a4,4,0,0,0,1-1.55,4.17,4.17,0,0,0,.37-1.86,2.16,2.16,0,0,0-.45-1.28,2.28,2.28,0,0,0-2.19-.91,4.57,4.57,0,0,1,.54.54,2.15,2.15,0,0,1,0,3.14c-.65.7-2.16,1-4.57.86l.35-2.4c.46.06,1.1.13,1.91.18a4.14,4.14,0,0,0,1.72-.07c.13-.11.12-.27,0-.46a3.9,3.9,0,0,0-1-.47,3.1,3.1,0,0,1-1.12-.6.93.93,0,0,1-.2-.48,1.86,1.86,0,0,1,.64-1.82,3.12,3.12,0,0,1,1.49-.62,3.28,3.28,0,0,1,1.64.1,3.7,3.7,0,0,1,1.53,1.14Q27.31,105.13,25.91,107.49Z"/><path class="cls-1" d="M30.9,110.21c.62-.84,1.35-1.73,2.18-2.66l.17,1.11a5.34,5.34,0,0,0-.57,1.11c0,.1,0,.24,0,.41l1.24,1.1.12,2.2-2.32-2.06-8,9,0-2.24,5.62-6.33a1.79,1.79,0,0,0,.5-1,1.9,1.9,0,0,0-.58-1.77l-.27-.24-.16-2.18a10.07,10.07,0,0,1,1.73,1.48A2.23,2.23,0,0,1,30.9,110.21Z"/><path class="cls-1" d="M38.24,116.84a5.17,5.17,0,0,0-5.38,1.6,14.81,14.81,0,0,0-1.08,1.3,3.62,3.62,0,0,0-.47,3.66.83.83,0,0,0,.27.24l.13.09c0,.14-.21.14-.59,0,.15.1.24.12.29.06a3.49,3.49,0,0,1,0-.48,2.22,2.22,0,0,1,.13-.7,1.38,1.38,0,0,1,1.55-.77,1.52,1.52,0,0,1,.72.26,1,1,0,0,1,.45.67,1.46,1.46,0,0,1-.15,1.62,1.88,1.88,0,0,1-1.38.81,2.24,2.24,0,0,1-1.61-.4A2.8,2.8,0,0,1,30,123.29a6.19,6.19,0,0,1,1.16-5.36,8.45,8.45,0,0,1,4.73-3.23L33.41,113,33,110.79,40,115.68l.37,2.12A7.42,7.42,0,0,0,38.24,116.84Z"/><path class="cls-1" d="M47.3,121.21l-5.2,10.57-.41-1.19a8.6,8.6,0,0,0-.51-3.49,4.31,4.31,0,0,0-1-1.59,6.91,6.91,0,0,0-1.58-1.08L38,121.77a38.11,38.11,0,0,1,4.19-1.13q-.16-.27-.33-.51a10.2,10.2,0,0,0-1.2-1.11,3.42,3.42,0,0,1-1.08-1.25l-.11-.48-.68-2,10.62,5.21.73,2.11Zm-1.43-.71L43,119.07a14.67,14.67,0,0,1,1.09,3.16,18.72,18.72,0,0,1-1.79.59,11.52,11.52,0,0,0-1.68.59,7.39,7.39,0,0,1,1.93,3.92Z"/><path class="cls-1" d="M51.18,122.15c.24-1,.55-2.12.94-3.32l.6,1a5.11,5.11,0,0,0-.08,1.25,2.66,2.66,0,0,0,.12.39l1.58.52,1,2-2.95-1-3.76,11.5-.93-2,2.62-8a1.72,1.72,0,0,0,.07-1.08,1.88,1.88,0,0,0-1.23-1.39l-.34-.11-1-1.94a10.43,10.43,0,0,1,2.18.67A2.22,2.22,0,0,1,51.18,122.15Z"/><path class="cls-1" d="M62.28,126.32l.14-1.5c.07-.8.25-2,.52-3.63l1,1.32a1.33,1.33,0,0,0-.11,1.14c0,.06.12.13.31.21.48.07,1,.15,1.52.26l1.28,1.8-3.17-.54-2,11.84-1.4-2.07,1.11-6a3.85,3.85,0,0,0-.23-1.84,4.25,4.25,0,0,0-.92-1.66,2.16,2.16,0,0,0-1.18-.68,2.31,2.31,0,0,0-2.26.73,4.22,4.22,0,0,1,.76.06,2.14,2.14,0,0,1,2.07,2.37q-.06,1.43-2.92,3.61l-1.29-2.05c.39-.25.92-.62,1.57-1.1.82-.62,1.24-1,1.27-1.17s-.08-.28-.33-.32a4,4,0,0,0-1.08.29,3.07,3.07,0,0,1-1.24.26.81.81,0,0,1-.46-.23,1.86,1.86,0,0,1-.69-1.8,3,3,0,0,1,.73-1.44,3.3,3.3,0,0,1,1.31-1,3.62,3.62,0,0,1,1.9-.13C60.69,123.42,62,124.51,62.28,126.32Z"/><path class="cls-1" d="M82.4,120.8a6.15,6.15,0,0,0-3.88-.89,4.75,4.75,0,0,0-2.45,1.16,7.44,7.44,0,0,0-.65,1c-.28.48-.41.78-.38.91l.45.77,2-.19,1.7,1.41-3.11.3,1.1,11.57-1.72-1.36-1-10.07-1.51.15-1.69-1.42,2.89-.27c-.21-.18-.42-.36-.62-.56a1.1,1.1,0,0,1-.35-.7,2.13,2.13,0,0,1,.15-1.07,7.65,7.65,0,0,1,1-1.59,6.05,6.05,0,0,1,1.47-1.11,3.4,3.4,0,0,1,1.51-.46,9.12,9.12,0,0,1,4.84,1.08A13.26,13.26,0,0,1,84.43,121l.63,1.4Z"/><path class="cls-1" d="M83.12,128a3.41,3.41,0,0,1,.74.88,4,4,0,0,1,.16.49,1.48,1.48,0,0,1-.19,1.23,1.76,1.76,0,0,1-1.13.72,2.07,2.07,0,0,1-2.83-1.73,2.59,2.59,0,0,1,.37-2.12,3,3,0,0,1,1.83-1.24q2.1-.5,4.2,1.76l.19.21-1.12-4.7-7.27,1.73-1.88-1.16L88,121.24l2,1.15-3.09.74,2.81,11.79L88.6,134c0-.1,0-.22-.09-.37a8.09,8.09,0,0,0-.94-2.1,11.83,11.83,0,0,0-1.21-1.88,5.5,5.5,0,0,0-1.43-1.19A2.76,2.76,0,0,0,83.12,128Z"/><path class="cls-1" d="M96.61,119.11,101.46,130l-1.19-.53c-.66-.55-1.09-.9-1.3-1a6.58,6.58,0,0,0-1.48-.73,5.08,5.08,0,0,0-2-.38,7.29,7.29,0,0,0-2,.53l-2.4-1.27a30,30,0,0,1,1.2-2.79c.08-.16.29-.54.61-1.16a1,1,0,0,0-.28-.09,8.16,8.16,0,0,0-2,.32,2.61,2.61,0,0,1-2-.2l-2-.78L97.44,117l2.13.76Zm-1.44.65L92.3,121l.75.18c.16.06.93.41,2.31,1.07a10.21,10.21,0,0,1-.68,1.7,15.41,15.41,0,0,0-.61,1.72,7.32,7.32,0,0,1,4.21,1Zm1.58,11.07a1.42,1.42,0,0,1-1.14,0,1.36,1.36,0,0,1-.8-.76,1.32,1.32,0,0,1,0-1,1.27,1.27,0,0,1,.71-.76,1.43,1.43,0,0,1,1.13,0,1.39,1.39,0,0,1,.83,1.78A1.22,1.22,0,0,1,96.75,130.83Z"/><path class="cls-1" d="M104.26,116.94a1.11,1.11,0,0,1,.42.36,1.81,1.81,0,0,1,.3,1.23,1.39,1.39,0,0,1-.54,1.06,1.66,1.66,0,0,1-1.51.27,1.8,1.8,0,0,1-1.13-1.08,2,2,0,0,1,.78-2.64,3.46,3.46,0,0,1,1.92-.63,7.79,7.79,0,0,1,2,.07,1.37,1.37,0,0,0-.15-1.6,1.8,1.8,0,0,0-.75-.51.51.51,0,0,0-.47.12l-6.71,4.79-2.23-.32,11.46-8.19,2.2.35-3.47,2.48-.26-.36c.14-.1.51.06,1.1.48a4.24,4.24,0,0,1,1,.84,2,2,0,0,1,.3,1.35,13.3,13.3,0,0,1-.17,1.41,3.69,3.69,0,0,1-1.81.5l0,0a5,5,0,0,1-1.26-.06A4.53,4.53,0,0,0,104.26,116.94Z"/><path class="cls-1" d="M108.89,115.83h0a2.19,2.19,0,0,0-.27.43,5.29,5.29,0,0,0-.16,1,1.67,1.67,0,0,0,.15.66l.17-.15a1,1,0,0,1,.83-.28,1.29,1.29,0,0,1,1.12,1.55,1.85,1.85,0,0,1-.58,1.08,1.81,1.81,0,0,1-1,.44,1.42,1.42,0,0,1-1-.16,3.28,3.28,0,0,1-.69-.57,2.69,2.69,0,0,1-.67-1.32c0-.19-.06-.68-.08-1.48q.14-.42.36-1.17a1.79,1.79,0,0,1,.72-1.12,2,2,0,0,1,2.44-.23,13.14,13.14,0,0,1,1.54,1.55l4.37,4.77H115a8.06,8.06,0,0,0-1-.31,1.81,1.81,0,0,0-1.48.54,6,6,0,0,0-.76.92c-.35.45-.6.77-.76.93a4.06,4.06,0,0,1-1.43.92,2.54,2.54,0,0,1-1.64.16,3.94,3.94,0,0,1-2.05-1.18,4.86,4.86,0,0,1-1-1.87c-.07-.23,0-.37.17-.42l.82-.09a4.54,4.54,0,0,0,.74,1.2,1.77,1.77,0,0,0,1.54.72c.45,0,1.17-.63,2.14-1.73l.5-.45a2.66,2.66,0,0,1,1.71-.85h.22l-2.79-3a2,2,0,0,0-.54-.35c-.18-.11-.25-.17-.21-.2Z"/><path class="cls-1" d="M114.88,110.19l-.35-.32c-.55-.48-.54-1,0-1.68a1.68,1.68,0,0,1,2.25-.1,1.5,1.5,0,0,1,.49,1.46,2.49,2.49,0,0,1-.78,1.5,3.12,3.12,0,0,1-2.39.91,3.66,3.66,0,0,1-2.23-1,4.13,4.13,0,0,1-1.36-2.34,3.32,3.32,0,0,1,.91-3,2,2,0,0,1,.67-.53c.42-.15.7-.25.84-.28a5.56,5.56,0,0,1,2.54.21l-1.24-.89a32.6,32.6,0,0,1-2.68-2.37l.79,0a2.24,2.24,0,0,1,.94.14,1.4,1.4,0,0,0,.67.24,2.66,2.66,0,0,0,.68-.12l.88-1,2.21-.14-2.15,2.43,8.76,7.75-2.38.13L117.26,107a3.31,3.31,0,0,0-2.41-.85,2.39,2.39,0,0,0-1.82.74,1.66,1.66,0,0,0-.39,1.43,2.05,2.05,0,0,0,.63,1.27,3,3,0,0,0,1,.57A1,1,0,0,0,114.88,110.19Z"/><path class="cls-1" d="M124,88.4l.33.14a3.78,3.78,0,0,1,2.12-2,5,5,0,0,1,2.89-.37,4.74,4.74,0,0,1,1,.28,2.54,2.54,0,0,1,1.29,1.12,1.8,1.8,0,0,1,.12,1.68,1.7,1.7,0,0,1-.88.89,1.44,1.44,0,0,1-1.23,0,1.71,1.71,0,0,1-1-1.2,2.3,2.3,0,0,1,.17-.75,1.75,1.75,0,0,1,1-.93.25.25,0,0,1,.22,0q.24.08,0,.63a1.18,1.18,0,0,0-.33-.31,2.43,2.43,0,0,0-1.92.07,2.8,2.8,0,0,0-1.64,1.61l8.53,3.59-1.08.44a10.78,10.78,0,0,0-1.41-.06,5.8,5.8,0,0,0-1.4.28,5.92,5.92,0,0,0-1.62.73,6.76,6.76,0,0,0-1.94,2.15l-2.63.78a19.26,19.26,0,0,1-.76-7.2l-.45-.19L120.84,96l-2.06.84,5.64-13.42,2-.81Zm1.84,4.87c0,.2.15.64.3,1.32a7.91,7.91,0,0,1,3.92-2l-4.34-1.82A12.7,12.7,0,0,0,125.86,93.27Z"/><path class="cls-1" d="M124.35,72.91a6.08,6.08,0,0,0-2.1,3.38,4.62,4.62,0,0,0,.29,2.69,7,7,0,0,0,.7.93c.36.42.6.64.73.65l.87-.18.48-1.95,1.88-1.16-.73,3L137.78,83l-1.85,1.18-9.83-2.36-.36,1.46-1.88,1.15.68-2.83a7.53,7.53,0,0,1-.73.41,1.06,1.06,0,0,1-.77.1,2.25,2.25,0,0,1-1-.48,7.82,7.82,0,0,1-1.18-1.46,6.35,6.35,0,0,1-.58-1.75,3.52,3.52,0,0,1,.06-1.57A9.11,9.11,0,0,1,123,72.66a13.15,13.15,0,0,1,2.25-1.6l1.52-.13Z"/><path class="cls-1" d="M128.3,77.55v0a2.37,2.37,0,0,1-.76.62l-.49.2-1.6,1.33,1.15-12.31,1.75-1.43-.3,3.25,11.73,1.1-1.07.8a5.33,5.33,0,0,0-2.8,1,8.49,8.49,0,0,0-1.28,1.38,2.38,2.38,0,0,1,.82,2.08,2.17,2.17,0,0,1-1.25,1.83,2.5,2.5,0,0,0-.51,0,2.5,2.5,0,0,1-.48,0,2,2,0,0,1-1.56-.91,3,3,0,0,1-.25-2.36,2.51,2.51,0,0,0-1.88.9,7.53,7.53,0,0,0-.62,1.33A4.66,4.66,0,0,1,128.3,77.55Zm-.4-6.84L127.5,75a20.35,20.35,0,0,1,1.5-1.41,4,4,0,0,1,1.83-.86,7.6,7.6,0,0,1,2.12-.11q.63-.51,1.83-1.29Z"/><path class="cls-1" d="M127.15,56.76l11.67-1.23-1.41,1.75-7,.67a3.07,3.07,0,0,0-1.31.79c-.68.57-1,1-.89,1.38.11.51.33.8.66.85.72-1.2,1.42-1.83,2.09-1.9a4,4,0,0,1,.87.06,1.45,1.45,0,0,1,1,1.42A2,2,0,0,1,132,62.3a2.36,2.36,0,0,1,.85.71,2,2,0,0,1,.43,1,1.4,1.4,0,0,1-.44,1.21,2.09,2.09,0,0,1-1.23.56,2.42,2.42,0,0,1-1.51-.44,3.41,3.41,0,0,1-1.17-1.12,6.21,6.21,0,0,0-.59.54,1.83,1.83,0,0,0-.24,1.1c0-.43,0,0,.13,1.22l-1.39,1.72-.3-2.82a2.45,2.45,0,0,1,.31-1.54l.52-.67a2.42,2.42,0,0,1,.59-.53,3.44,3.44,0,0,1-1.8-1.95,3.58,3.58,0,0,1-.17-.54c0-.55.7-1.44,2.27-2.67l.33-.26-2.52.48-2.61.4c.37-.51.69-.91,1-1.21a1.24,1.24,0,0,1,.49-.22l.32,0a.85.85,0,0,0,.35-.55l-.11-1,1.39-1.71Z"/><path class="cls-1" d="M129.3,49.91a3.38,3.38,0,0,1,.83-.8,3.26,3.26,0,0,1,.48-.2,1.52,1.52,0,0,1,1.24.1,1.83,1.83,0,0,1,.79,1.09A2.07,2.07,0,0,1,131.1,53a2.55,2.55,0,0,1-2.14-.23,3,3,0,0,1-1.36-1.74Q127,49,129.07,46.76l.2-.2L124.66,48l2.22,7.13-1,2-3.62-11.61,1-2,1,3,11.57-3.6L134.9,44l-.36.12a8.23,8.23,0,0,0-2,1.07,12.35,12.35,0,0,0-1.8,1.35,5.25,5.25,0,0,0-1.09,1.5A2.83,2.83,0,0,0,129.3,49.91Z"/><path class="cls-1" d="M39,11.77,45.42,22l-1.63-.69a6.34,6.34,0,0,0-7.12-.69l-2.61-1.07a23.32,23.32,0,0,1,1.48-3.19,27.5,27.5,0,0,1,2.34-3.4l-.2-.32-6,3.78-2.14-.5,9.89-6.25,2.14.51Zm.11,3.05A19.93,19.93,0,0,0,37,18.35a9.41,9.41,0,0,1,4.64.56Z"/><path class="cls-1" d="M43.26,9.28c-.51-.92-1-1.94-1.53-3.09l1.08.3a5.67,5.67,0,0,0,.77,1l.36.21L45.46,7l2,.79L44.67,9.06l4.95,11-2.06-.89L44.1,11.5a1.77,1.77,0,0,0-.68-.85,1.89,1.89,0,0,0-1.85-.19l-.33.14-2.05-.75a10.62,10.62,0,0,1,2.06-1A2.21,2.21,0,0,1,43.26,9.28Z"/><path class="cls-1" d="M53.07,10.7a2.23,2.23,0,0,1-1,.59,2.66,2.66,0,0,1-2.13-.21,2.77,2.77,0,0,1-1.4-1.66,2.71,2.71,0,0,1,.21-2.09A2.5,2.5,0,0,1,50.24,6a2.46,2.46,0,0,1,2.09.25,2.79,2.79,0,0,1,1.39,3.15A2.94,2.94,0,0,1,53.07,10.7Zm3.68,6a45.17,45.17,0,0,0-5.83-2.09l-.94-3c1,.38,2.15.91,3.56,1.58a57.4,57.4,0,0,1,4.88,3l.48,1.51ZM51.29,7.26a2.09,2.09,0,0,0-.95,1,1.66,1.66,0,0,0-.09,1.33c.11.39.3.54.59.45a2,2,0,0,0,.79-.68,2,2,0,0,0,.51-.92A2.4,2.4,0,0,0,52,7.76C51.85,7.33,51.62,7.15,51.29,7.26Z"/><path class="cls-1" d="M65.86,3.79,67.4,15.48l-1.77-1.3L64.81,8a1.2,1.2,0,0,0-.5-.77,1.17,1.17,0,0,0-.88-.29.59.59,0,0,0-.49.4,3.05,3.05,0,0,0,.18,1.38l-1,.57a.86.86,0,0,0-.1-.8,3.72,3.72,0,0,0-.71-.7,1.89,1.89,0,0,0-1.49-.36A1.82,1.82,0,0,0,58.58,8a1.59,1.59,0,0,0-.38,1.28,1.21,1.21,0,0,0,.94,1.12,1.28,1.28,0,0,1-.16-.5,1.39,1.39,0,0,1,.3-1.08,1.53,1.53,0,0,1,1-.54,1.44,1.44,0,0,1,1.52.91,1.87,1.87,0,0,1,.35,1.26,1.85,1.85,0,0,1-1.71,1.44,3.26,3.26,0,0,1-2.56-.61A3.38,3.38,0,0,1,56.65,9,3.79,3.79,0,0,1,57,6.72a2.38,2.38,0,0,1,1.8-1.34A3,3,0,0,1,61.16,6l.18.18a2.18,2.18,0,0,1,.55-.83,1.24,1.24,0,0,1,.77-.43,1.91,1.91,0,0,1,1.24.32l.44.43.2.18L64.29,4,55.84,5.12,54.05,3.78,67.13,2.06l1.8,1.34Z"/><path class="cls-1" d="M71,3.45c-.07-1.05-.08-2.2-.06-3.45l.85.74A5.7,5.7,0,0,0,72.07,2c.06.09.14.21.24.34l1.66,0,1.51,1.6-3.1-.07L72.09,16l-1.48-1.69.2-8.46a1.8,1.8,0,0,0-.24-1,1.92,1.92,0,0,0-1.59-1h-.36L67.09,2.21a10,10,0,0,1,2.28,0A2.22,2.22,0,0,1,71,3.45Z"/><path class="cls-1" d="M81.25,5.13a5.13,5.13,0,0,0-4,3.9,15.59,15.59,0,0,0-.36,1.64,3.64,3.64,0,0,0,1.26,3.47.9.9,0,0,0,.35.09l.16,0c.05.13-.12.22-.51.29.18,0,.27,0,.28-.07a3.09,3.09,0,0,1-.2-.43,2.42,2.42,0,0,1-.21-.68A1.4,1.4,0,0,1,79,12a1.59,1.59,0,0,1,.76-.1,1,1,0,0,1,.71.39,1.45,1.45,0,0,1,.61,1.5,1.88,1.88,0,0,1-.85,1.37,2.25,2.25,0,0,1-1.61.38,2.76,2.76,0,0,1-1.74-.83,6.2,6.2,0,0,1-1.46-5.29,8.58,8.58,0,0,1,2.71-5.05l-3-.4L73.83,2.17,82.25,3.3,83.56,5A7.22,7.22,0,0,0,81.25,5.13Z"/><path class="cls-1" d="M86.41,5.88,85.23,9.75c.44-.2,1.08-.5,2-.87a12.56,12.56,0,0,1,3.59-.73l1.61,2.21A11.85,11.85,0,0,0,89.32,15a7.39,7.39,0,0,0-.24,1c-.06.15-.2,1.08-.43,2.79l-1-1a24.94,24.94,0,0,1,.74-4.73,13.55,13.55,0,0,1,1-2.38,7.19,7.19,0,0,0-5.19,3L83,11.38l1.83-6-1-.29-1.06-2L94.32,6.67l1.06,2Z"/><path class="cls-1" d="M105,14,99.28,24.3l-.62-2.16L102.15,16a3.16,3.16,0,0,0,.11-1.53c-.07-.88-.28-1.38-.61-1.52-.49-.2-.85-.18-1.08.05.57,1.28.69,2.21.36,2.8a5,5,0,0,1-.56.68,1.46,1.46,0,0,1-1.75,0,2,2,0,0,1-1-1.67,2.3,2.3,0,0,1-1.07.29,1.94,1.94,0,0,1-1-.21,1.36,1.36,0,0,1-.73-1.05,2,2,0,0,1,.24-1.33,2.37,2.37,0,0,1,1.23-1,3.42,3.42,0,0,1,1.58-.32,4.52,4.52,0,0,0-.09-.79A1.91,1.91,0,0,0,97,9.6L95.92,9l-.6-2.13L97.8,8.25a2.47,2.47,0,0,1,1.08,1.14c.16.51.24.78.24.8a2.09,2.09,0,0,1,.1.8,3.42,3.42,0,0,1,2.63-.36,2.7,2.7,0,0,1,.54.18c.49.27.78,1.39.88,3.39l0,.41,1-2.33,1.17-2.36a14.54,14.54,0,0,1,.45,1.46,1.25,1.25,0,0,1-.1.54l-.16.27a.85.85,0,0,0,.25.61l.9.5.61,2.13Z"/><polygon class="cls-2" points="63.71 56.68 59.45 56.68 60.97 21.6 63.71 56.68"/><path class="cls-2" d="M62.94,116.27a5.41,5.41,0,0,1-5.82-5c0-.21,0-.45,0-.66L58.3,83.15h4.33V63.91h1.64l3.64,46.55A5.42,5.42,0,0,1,62.94,116.27Z"/><path class="cls-2" d="M48.37,58.92A7.42,7.42,0,0,0,44.79,57l1.3-28.78Z"/><path class="cls-2" d="M49.16,69.45l-.3-.31a2.85,2.85,0,0,0,.25-.33Z"/><path class="cls-2" d="M47.57,110.59a4.63,4.63,0,0,1-5-4.27c0-.18,0-.39,0-.56l1-22.69a8.23,8.23,0,0,0,6.26-3.89l2,26.45A4.63,4.63,0,0,1,47.57,110.59Z"/><path class="cls-2" d="M107.8,95.05a4.26,4.26,0,0,1-4.58-3.91,5.3,5.3,0,0,1,0-.69l.71-8.53a10.57,10.57,0,0,0,4.44-7.25l.33-1.82h-4L105.2,67h3.39l-.22-1.73a10.87,10.87,0,0,0-2.53-5.9L107.64,38l4.07,52.5A4.26,4.26,0,0,1,107.8,95.05Z"/><path class="cls-2" d="M33.35,98.12a4.25,4.25,0,0,1-4.66-3.8,5.17,5.17,0,0,1,0-.68l3.13-53.41,1.65,16.45H31.38V83.15h4.74l1,10.31A4.25,4.25,0,0,1,33.35,98.12Z"/><polygon class="cls-2" points="38.22 83.15 41.24 83.15 40.3 103.51 38.22 83.15"/><path class="cls-2" d="M41.37,72.89h.35l-.15,3.25h-2.7V72.89Z"/><path class="cls-2" d="M41.62,63.67a2.68,2.68,0,0,1,.52,0L42,65.87a4.33,4.33,0,0,1-.55,0H38.87V63.67Z"/><path class="cls-2" d="M43.43,35.82l-1,20.87h-7L33.41,36.1a5,5,0,1,1,10-1A4.61,4.61,0,0,1,43.43,35.82Z"/><polygon class="cls-2" points="55.28 83.15 55.91 83.15 54.76 112.33 51.03 63.91 55.28 63.91 55.28 83.15"/><path class="cls-2" d="M58.17,26.09,57,56.68H50.48l-2.34-30.4a5,5,0,0,1,10-.78C58.17,25.7,58.17,25.9,58.17,26.09Z"/><path class="cls-2" d="M74.66,23.44,73.09,56.68H68.86V83.15h3L70.49,112l-3.18-48h1.28V56.68H66.83L64.64,23.53a5,5,0,0,1,10-.66A5.42,5.42,0,0,1,74.66,23.44Z"/><path class="cls-2" d="M90.45,26.69l-1.8,37.06h0a18.24,18.24,0,0,0-1,6.27,20,20,0,0,0,.49,4.57h0l-1.85,37.9-2-29.36H87.5L87,81.23a21.75,21.75,0,0,1-.24-4.09V76a9.36,9.36,0,0,0-1.51-5.78,7.87,7.87,0,0,0,1.93-5.57,7.5,7.5,0,0,0-4.7-7.34L80.43,26.79a5,5,0,1,1,10-.68A5.61,5.61,0,0,1,90.45,26.69Z"/><path class="cls-2" d="M99,83.46a10.44,10.44,0,0,0,3-.57l-1.43,20.62Z"/><path class="cls-2" d="M103.07,67l-.41,5.86H101.4L101.09,74c-.47,1.73-1.21,2.44-2.54,2.44H98.4l-1-12.8a2.39,2.39,0,0,1,1.06-.23c1,0,2.16.28,2.64,2.4l.27,1.2Z"/><path class="cls-2" d="M105.22,35.93l-1.5,21.69a10.06,10.06,0,0,0-5.15-1.28,11.07,11.07,0,0,0-1.75.14L95.2,36a5,5,0,0,1,10-.79C105.23,35.43,105.23,35.7,105.22,35.93Z"/><path class="cls-2" d="M22.85,55.16l1.34,22a1.55,1.55,0,0,1-3.09.19,1.62,1.62,0,0,1,0-.22Z"/><path class="cls-2" d="M28.47,49.91l-2.13,38-2.5-38a2.32,2.32,0,1,1,4.62-.31A2.81,2.81,0,0,1,28.47,49.91Z"/><path class="cls-2" d="M114.9,49.91l-2.13,38-2.5-38a2.32,2.32,0,1,1,4.62-.31A2.81,2.81,0,0,1,114.9,49.91Z"/><path class="cls-2" d="M116.32,55.16l1.34,22a1.55,1.55,0,0,1-3.09.19,1.62,1.62,0,0,1,0-.22Z"/><path class="cls-2" d="M90.32,60.54l1.54-32.31L94,57.38A10.09,10.09,0,0,0,90.32,60.54Z"/><path class="cls-2" d="M93.17,109.82a4.63,4.63,0,0,1-5-4.28,3.51,3.51,0,0,1,0-.56l1.28-26.73a10.49,10.49,0,0,0,.69,1.12,9.4,9.4,0,0,0,5.7,3.84l1.59,21.66A4.63,4.63,0,0,1,93.17,109.82Z"/><path class="cls-2" d="M78.24,63.79c1.34,0,1.58.48,1.58,1.42s-.15,1.47-1.68,1.47h-2V63.79Z"/><path class="cls-2" d="M79.06,56.68h-3.2l1.77-35.81,2.54,35.87A10,10,0,0,0,79.06,56.68Z"/><path class="cls-2" d="M79,116.27a5.41,5.41,0,0,1-5.78-5,4.73,4.73,0,0,1,0-.65l1.36-27.46h1.56V73.79h1.25c1.4,0,1.79.27,1.88.38a3.39,3.39,0,0,1,.3,1.84v.34A19.59,19.59,0,0,0,80,82.1l.35,1.05h1.66L84,110.49A5.41,5.41,0,0,1,79,116.27Z"/><path class="cls-1" d="M32.91,58.22H42c5,0,6.93,3,6.93,6a5.44,5.44,0,0,1-2.65,5.07,5.54,5.54,0,0,1,3.25,5.32c0,4-2.8,7-7.23,7h-9.4Zm8.58,9.22c2.14,0,3-1.08,3-2.72s-1.16-2.6-2.9-2.6H37.34v5.32ZM37.33,77.7h4.06c2.44,0,3.54-1.14,3.54-3.26,0-1.89-1.09-3.09-3.56-3.09h-4Z"/><path class="cls-1" d="M56.82,62.36h-6V58.22H67.05v4.14h-6V81.6H56.82V62.36Z"/><path class="cls-1" d="M74.56,72.24V81.6H70.4V58.22h8.66c4.29,0,6.61,2.8,6.61,6.42,0,3.14-1.44,4.83-2.87,5.53,1,.43,2.45,1.63,2.45,5.82v1.15a22.2,22.2,0,0,0,.28,4.46h-4a19.67,19.67,0,0,1-.41-5.25V76c0-2.55-.54-3.76-3.72-3.76Zm0-4h3.57c2.33,0,3.23-1,3.23-3s-1-3-3.13-3H74.56v6Z"/><path class="cls-1" d="M106.86,74.4c-.79,4.36-3.56,7.53-8.49,7.53-6.25,0-9.2-5.24-9.2-11.9,0-6.41,3-12.15,9.4-12.15,5.25,0,7.79,3.66,8.27,7.57h-4.26c-.41-1.81-1.47-3.6-4.14-3.6-3.51,0-4.87,3.75-4.87,8,0,4,1.17,8.11,5,8.11,2.78,0,3.66-2.21,4-3.57Z"/></g></g></svg>