<svg xmlns="http://www.w3.org/2000/svg" viewBox="0 0 250.36 104.1"><defs><style>.cls-1{fill:#dc3226;}.cls-2{fill:#fff;}.cls-3{fill:#006e50;}.cls-4{fill:#66686a;}</style></defs><title>Asset 11</title><g id="Layer_2" data-name="Layer 2"><g id="Layer_1-2" data-name="Layer 1"><rect class="cls-1" x="0.01" width="71.65" height="81.28"/><polyline class="cls-2" points="69.61 77.62 58.88 2.01 55.38 29.1"/><polyline class="cls-2" points="62.4 77.62 48.55 3.35 47.77 32.3"/><polyline class="cls-2" points="58.5 77.62 40.16 13.44 38.99 37.63"/><polyline class="cls-2" points="54.01 77.62 31.38 25.25 30.21 48.48"/><polyline class="cls-2" points="48.16 77.43 21.63 38.01 20.66 57.05"/><polyline class="cls-2" points="42.7 77.81 12.65 51.72 11.68 69.81"/><polyline class="cls-2" points="39.53 79.31 3.69 69.78 1.93 78.39"/><path class="cls-3" d="M0,104.1V87.31H10.72a5.21,5.21,0,0,1,3.27,1,3.14,3.14,0,0,1,1.22,2.59v2a3,3,0,0,1-1.82,2.76,2.51,2.51,0,0,1,1.82,2.56v1.57a4,4,0,0,1-1.3,3,4.84,4.84,0,0,1-3.54,1.33Zm3.05-9.56h7a2.39,2.39,0,0,0,1.5-.45,1.45,1.45,0,0,0,.59-1.18V91.3c0-.87-.59-1.38-1.77-1.52l-.38,0h-7Zm0,7.14H10a2.32,2.32,0,0,0,1.56-.52,1.58,1.58,0,0,0,.62-1.26V98.32c0-.48-.39-.87-1.15-1.17A2.88,2.88,0,0,0,10,97h-7Z"/><rect class="cls-3" x="22.31" y="87.31" width="3.05" height="16.79"/><path class="cls-3" d="M32.7,104.1V87.31H43.43a4.5,4.5,0,0,1,3.22,1.13,3.66,3.66,0,0,1,1.2,2.77v9.3a3,3,0,0,1-1.47,2.59,6,6,0,0,1-3.49,1Zm3-2.42h7c1.41,0,2.11-.68,2.11-2V91.3c0-1-.72-1.56-2.17-1.56H35.75Z"/><path class="cls-3" d="M52.72,104.1l7-15.23a2.54,2.54,0,0,1,2.38-1.72,2.48,2.48,0,0,1,1.85.63,4,4,0,0,1,.7,1.11l7,15.21H68.41l-1.64-3.5H57.59L56,104.1Zm6-5.92h7l-3.55-7.67Z"/><path class="cls-4" d="M88.72,34.3a4.15,4.15,0,0,0,4.07-2.43,11.86,11.86,0,0,0,1-5c0-3.39-1.06-5.36-2.13-6.15a7.75,7.75,0,0,0,1.72-5.33,8.73,8.73,0,0,0-1-4.43,3.41,3.41,0,0,0-3.28-1.91,6.82,6.82,0,0,0-2.71.53l-.17.07V33.94l.2.06A8.11,8.11,0,0,0,88.72,34.3Zm.5-14.79h-1V12.18a3.24,3.24,0,0,1,1-.12c1.41,0,2.12,1.23,2.12,3.67C91.32,18,90.48,19.51,89.22,19.51Zm-1,11.69V22.46h.88c1.62,0,2.55,1.6,2.55,4.39s-.9,4.43-2.53,4.43A4.07,4.07,0,0,1,88.23,31.2Z"/><path class="cls-4" d="M99.35,32.78l.06,1.31h1.9l0-.32c-.08-1.05-.13-2.41-.13-4.15V23.11c0-4.86-1.13-7.42-3.29-7.42A3.54,3.54,0,0,0,95,17.36l-.07.1.46,2.91.41-.59a2.38,2.38,0,0,1,1.82-1.17c1.31,0,1.5,2.34,1.5,3.74v.07a4.38,4.38,0,0,0-3,1.23c-1.16,1.15-1.74,3-1.74,5.54s.84,5.29,2.7,5.29A2.72,2.72,0,0,0,99.35,32.78Zm-2.93-4a4,4,0,0,1,.93-3,2.62,2.62,0,0,1,1.84-.65v2.74a6.65,6.65,0,0,1-.08,1c-.21,1.33-.79,2.67-1.63,2.67C97,31.56,96.42,30.72,96.42,28.83Z"/><path class="cls-4" d="M102.89,21.09v13h2V23.32a9.55,9.55,0,0,1,.09-1.43c.24-1.74.94-3,1.65-3,1,0,1.53,1.77,1.53,4.86V34.09h2V23.4c0-7.15-2.36-7.71-3.08-7.71-1.08,0-1.88.9-2.4,2l0-1.64h-1.86v.29C102.88,17.73,102.89,19.13,102.89,21.09Z"/><path class="cls-4" d="M115,34a2.67,2.67,0,0,0,2.26-1.71v.45c0,3.74-.8,5.8-2.26,5.8A2.79,2.79,0,0,1,113,37.3l-.42-.58L112.05,40l.07.09A3.51,3.51,0,0,0,115,41.61a3.46,3.46,0,0,0,3.14-2.25c.8-1.58,1.15-4.07,1.15-8.09V21.16c0-2.08,0-3.45.06-4.78l0-.29h-1.84l0,1.37a2.59,2.59,0,0,0-2.24-1.77c-1.92,0-3.85,3.28-3.85,9.54C111.38,30.32,112.92,34,115,34Zm-1.62-9c0-4.13,1-6.3,2.06-6.3.78,0,1.46,1.22,1.72,3.1a8.78,8.78,0,0,1,.08,1.4v3.13a10.45,10.45,0,0,1-.11,1.65c-.27,1.76-1,3-1.71,3C114.25,31,113.41,28.56,113.41,25.05Z"/><rect class="cls-4" x="121.07" y="7.95" width="2.02" height="26.13"/><path class="cls-4" d="M126.05,23.65c-1.15,1.15-1.75,3-1.75,5.54s.85,5.29,2.71,5.29a2.72,2.72,0,0,0,2.24-1.7l.07,1.31h1.89l0-.32c-.09-1.05-.13-2.41-.13-4.15V23.11c0-4.86-1.14-7.42-3.3-7.42a3.55,3.55,0,0,0-2.83,1.67l-.07.1.46,2.91.41-.59a2.41,2.41,0,0,1,1.82-1.17c1.31,0,1.5,2.34,1.5,3.74v.07A4.38,4.38,0,0,0,126.05,23.65Zm3,1.54v2.74a6.65,6.65,0,0,1-.08,1c-.2,1.33-.79,2.67-1.62,2.67-.53,0-1.07-.84-1.07-2.73a4.07,4.07,0,0,1,.93-3A2.62,2.62,0,0,1,129.09,25.19Z"/><path class="cls-4" d="M135.89,34.48c1,0,1.88-.76,2.47-2.09l0,1.7h1.87v-.31c-.06-1.37-.06-3.4-.06-4.48V8h-2v9.23a2.5,2.5,0,0,0-2.12-1.49,2.25,2.25,0,0,0-1.58.73c-1.42,1.43-2.27,4.77-2.26,8.92C132.22,30.72,133.73,34.48,135.89,34.48Zm-1.64-9.29c0-3.79.86-6.44,2.08-6.44.83,0,1.58,1.44,1.79,3.42a11.7,11.7,0,0,1,.06,1.3v3a12.77,12.77,0,0,1-.06,1.34c-.27,2.42-1.13,3.52-1.82,3.52C135.1,31.35,134.25,28.82,134.25,25.19Z"/><path class="cls-4" d="M145.6,34.44a4,4,0,0,0,2.84-1.16l.1-.1-.33-3-.42.4a2.7,2.7,0,0,1-2,.82c-1.12,0-2.33-1.44-2.42-5.47h5.54l0-.42c0-.33,0-.78,0-1.34,0-1.42-.17-8.5-3.55-8.5-2.4,0-4,3.89-4,9.68C141.43,31,143,34.44,145.6,34.44Zm-.29-15.9a.89.89,0,0,1,.67.3c.74.74,1,2.7,1,4.26h-3.6C143.58,20.79,144.26,18.54,145.31,18.54Z"/><path class="cls-4" d="M151.8,20.73c0-1,.32-2.08,1-2.08a2,2,0,0,1,1.39.88l.41.57.48-3.12-.07-.1a2.86,2.86,0,0,0-2.17-1.19c-1.78,0-3,2.22-3,5.4A6.29,6.29,0,0,0,152,26.25a3.26,3.26,0,0,1,1.37,3c0,1.12-.33,2.31-1.25,2.31a2.45,2.45,0,0,1-1.65-1.14l-.42-.6-.48,3.26.07.1a3.15,3.15,0,0,0,2.45,1.3c2,0,3.25-2.17,3.25-5.51,0-2.56-.66-4.2-2.18-5.48A3,3,0,0,1,151.8,20.73Z"/><path class="cls-4" d="M160.89,15.69a2.25,2.25,0,0,0-1.69,1,4.7,4.7,0,0,0-.54.86V8h-2V34.09h2V23.29a7.91,7.91,0,0,1,.09-1.47c.26-1.69.94-2.92,1.64-2.92,1,0,1.54,1.82,1.54,4.89v10.3h2V23.43C163.94,17.73,162.37,15.69,160.89,15.69Z"/><rect class="cls-4" x="172.67" y="9.25" width="2" height="24.84"/><path class="cls-4" d="M180.91,15.69c-1.08,0-1.89.9-2.4,2l0-1.64h-1.85v.29c0,1.35.06,2.75.06,4.71v13h2V23.32a9.55,9.55,0,0,1,.09-1.43c.25-1.74.93-3,1.64-3,1,0,1.54,1.77,1.54,4.86V34.09h2V23.4C184,16.25,181.63,15.69,180.91,15.69Z"/><path class="cls-4" d="M189.46,34.09l3.2-18h-2.09l-1.57,10c-.16.9-.28,1.72-.4,2.5-.11-.77-.24-1.59-.39-2.5l-1.59-10H184.5l3.1,18Z"/><path class="cls-4" d="M196.82,34.44a4,4,0,0,0,2.84-1.16l.09-.1-.32-3-.42.4a2.71,2.71,0,0,1-2,.82c-1.13,0-2.33-1.44-2.42-5.47h5.53l0-.42c0-.33,0-.78,0-1.34,0-1.42-.18-8.5-3.56-8.5-2.39,0-4,3.89-4,9.68C192.65,31,194.24,34.44,196.82,34.44ZM194.63,23.1c.17-2.31.85-4.56,1.9-4.56a.9.9,0,0,1,.67.3c.73.74,1,2.7,1,4.26Z"/><path class="cls-4" d="M203.38,31.53a2.45,2.45,0,0,1-1.65-1.14l-.42-.6-.48,3.26.07.1a3.15,3.15,0,0,0,2.45,1.3c2,0,3.24-2.17,3.24-5.51,0-2.56-.65-4.2-2.17-5.48a3,3,0,0,1-1.4-2.73c0-1,.32-2.08,1-2.08a1.94,1.94,0,0,1,1.38.88l.42.57.48-3.12-.07-.1a2.84,2.84,0,0,0-2.18-1.19c-1.77,0-3,2.22-3,5.4a6.29,6.29,0,0,0,2.19,5.16,3.28,3.28,0,0,1,1.37,3C204.63,30.34,204.3,31.53,203.38,31.53Z"/><path class="cls-4" d="M212.05,33.94l.1-.09-.08-3-.43.26a1.32,1.32,0,0,1-.69.17c-.52,0-.78-1-.78-3.09v-9.1h2.05v-3h-2.05V10.86l-2,1.17v4H207v3h1.22v9.21a12.62,12.62,0,0,0,.58,4.64,2,2,0,0,0,1.82,1.52A2.22,2.22,0,0,0,212.05,33.94Z"/><path class="cls-4" d="M220.19,34.09V23a10.94,10.94,0,0,1,.11-1.54c.24-1.52.84-2.63,1.41-2.63.89,0,1.43,1.9,1.43,5.07V34.09h2V23.54c0-7.28-2.21-7.85-2.88-7.85a2.27,2.27,0,0,0-2,1.36,7.53,7.53,0,0,0-.61,1.33c-.47-1.7-1.29-2.69-2.29-2.69s-1.7.67-2.28,2l0-1.59h-1.85l0,.29c0,1.35.06,2.75.06,4.71v13h2V23.29a9.43,9.43,0,0,1,.11-1.51c.25-1.66.89-2.92,1.5-2.92.81,0,1.35,1.81,1.35,4.5V34.09Z"/><path class="cls-4" d="M233.81,25.53c0-.33,0-.78,0-1.34,0-1.42-.17-8.5-3.55-8.5-2.39,0-4,3.89-4,9.68,0,5.6,1.6,9.07,4.18,9.07a4,4,0,0,0,2.83-1.16l.09-.1-.32-3-.42.4a2.7,2.7,0,0,1-2,.82c-1.12,0-2.33-1.44-2.41-5.47h5.53Zm-3.63-7a.89.89,0,0,1,.67.3c.74.74,1,2.7,1,4.26h-3.6C228.45,20.79,229.14,18.54,230.18,18.54Z"/><path class="cls-4" d="M235.05,21.09v13h2V23.32a9.55,9.55,0,0,1,.09-1.43c.24-1.74.93-3,1.64-3,1,0,1.54,1.77,1.54,4.86V34.09h2V23.4c0-7.15-2.36-7.71-3.08-7.71-1.09,0-1.89.9-2.4,2l0-1.64H235l0,.29C235,17.73,235.05,19.13,235.05,21.09Z"/><path class="cls-4" d="M244.37,28.29a12.62,12.62,0,0,0,.58,4.64,2,2,0,0,0,1.82,1.52,2.22,2.22,0,0,0,1.47-.51l.09-.09-.08-3-.43.26a1.28,1.28,0,0,1-.68.17c-.52,0-.79-1-.79-3.09v-9.1h2.06v-3h-2.06V10.86l-2,1.17v4h-1.22v3h1.22Z"/><path class="cls-4" d="M89.54,44.45a9.94,9.94,0,0,0-3.11.52l-.2.07v24.3l.22,0a10.73,10.73,0,0,0,2.65.3A5.55,5.55,0,0,0,94.22,66a23.58,23.58,0,0,0,1.61-9.55c0-3.8-.51-6.69-1.57-8.84A5,5,0,0,0,89.54,44.45Zm4.23,12.14c0,6.35-1.6,10-4.39,10a5,5,0,0,1-1.15-.1V47.74a3.88,3.88,0,0,1,1.38-.22,2.89,2.89,0,0,1,2.11.88C93.07,49.76,93.78,52.59,93.77,56.59Z"/><path class="cls-4" d="M100.54,51.07c-2.39,0-4,3.9-4,9.69,0,5.6,1.6,9.07,4.18,9.07a3.94,3.94,0,0,0,2.83-1.16l.1-.1-.32-3-.43.39a2.66,2.66,0,0,1-2,.83c-1.12,0-2.32-1.45-2.41-5.47H104l0-.42c0-.33,0-.78,0-1.35C104.09,58.15,103.92,51.07,100.54,51.07Zm-.11,2.85a.94.94,0,0,1,.67.3c.73.74,1,2.7,1,4.27h-3.6C98.69,56.17,99.38,53.92,100.43,53.92Z"/><path class="cls-4" d="M110.33,51.47l-1.57,10c-.15.89-.28,1.72-.4,2.5-.11-.77-.24-1.59-.39-2.5l-1.59-10h-2.12l3.1,18h1.86l3.2-18Z"/><path class="cls-4" d="M116.4,51.07c-2.39,0-4,3.9-4,9.69,0,5.6,1.6,9.07,4.17,9.07a3.92,3.92,0,0,0,2.83-1.16l.1-.1-.32-3-.42.39a2.68,2.68,0,0,1-2,.83c-1.12,0-2.33-1.45-2.42-5.47h5.53l0-.42c0-.33,0-.78,0-1.35C120,58.15,119.79,51.07,116.4,51.07Zm-.11,2.85a.92.92,0,0,1,.67.3c.73.74,1,2.7,1,4.27H114.4C114.56,56.17,115.25,53.92,116.29,53.92Z"/><rect class="cls-4" x="121.16" y="43.34" width="2.02" height="26.13"/><path class="cls-4" d="M128.65,51.08c-2.52,0-4.21,3.83-4.21,9.54,0,5.53,1.63,9.25,4.07,9.25,2.11,0,4.23-3,4.23-9.54C132.74,54.79,131.09,51.08,128.65,51.08Zm2,9.36c0,4-1.07,6.47-2.11,6.47s-2.11-2.39-2.11-6.4c0-3.22.73-6.48,2.14-6.48S130.69,57.33,130.69,60.44Z"/><path class="cls-4" d="M138.39,51.08q-1.62,0-2.58,2.16l0-1.77H133.9v.3c0,1.74.07,3.49.07,5.68V76.6h2V68.28a2.6,2.6,0,0,0,2.18,1.59c1.93,0,3.88-3,3.88-9.65C142,54.84,140.53,51.08,138.39,51.08ZM140,60.36c0,3.86-.85,6.45-2.11,6.45-.84,0-1.63-1.45-1.87-3.45,0-.39-.06-.81-.06-1.27v-3a11.84,11.84,0,0,1,.09-1.26c.28-2.38,1.18-3.67,1.89-3.67C139.14,54.17,140,56.78,140,60.36Z"/><path class="cls-4" d="M152.23,51.08a2.28,2.28,0,0,0-2,1.36,8.34,8.34,0,0,0-.6,1.33c-.47-1.71-1.3-2.69-2.3-2.69s-1.7.66-2.27,2l0-1.6h-1.84v.3c.05,1.34.07,2.75.07,4.71v13h2V58.67a8.28,8.28,0,0,1,.11-1.5c.24-1.67.88-2.92,1.49-2.92.82,0,1.36,1.81,1.36,4.5V69.47h2v-11a10.94,10.94,0,0,1,.11-1.54c.24-1.52.83-2.63,1.41-2.63.89,0,1.42,1.9,1.42,5.07V69.47h2V58.93C155.11,51.64,152.91,51.08,152.23,51.08Z"/><path class="cls-4" d="M160.29,51.07c-2.39,0-4,3.9-4,9.69,0,5.6,1.6,9.07,4.17,9.07a3.92,3.92,0,0,0,2.83-1.16l.1-.1-.32-3-.42.39a2.68,2.68,0,0,1-2,.83c-1.12,0-2.33-1.45-2.42-5.47h5.53l0-.42c0-.33,0-.78,0-1.35C163.85,58.15,163.68,51.07,160.29,51.07Zm-.11,2.85a.92.92,0,0,1,.67.3c.73.74,1,2.7,1,4.27h-3.6C158.45,56.17,159.13,53.92,160.18,53.92Z"/><path class="cls-4" d="M169.27,51.08c-1.08,0-1.88.9-2.4,2l0-1.64H165v.3c.05,1.34.07,2.75.07,4.71v13h2V58.71a11,11,0,0,1,.09-1.43c.25-1.74.94-3,1.65-3,1,0,1.53,1.78,1.53,4.86V69.47h2V58.78C172.35,51.63,170,51.08,169.27,51.08Z"/><path class="cls-4" d="M176.35,46.25l-2,1.17v4h-1.23v3h1.23v9.22a12.71,12.71,0,0,0,.57,4.64,2,2,0,0,0,1.82,1.51,2.2,2.2,0,0,0,1.47-.5l.1-.09-.08-3-.43.26a1.31,1.31,0,0,1-.68.17c-.52,0-.79-1-.79-3.09V54.46h2.06v-3h-2.06Z"/><path class="cls-4" d="M189.36,44.64l-3.83,24.83h2.05l1.15-7.63h3.4l1.18,7.63h2.1l-3.84-24.83Zm2.39,14.18h-2.64l1-6.69c.09-.67.19-1.36.28-2.12q.14,1,.3,2.16Z"/><path class="cls-4" d="M203.35,64.43v-13h-2v11a10.89,10.89,0,0,1-.12,1.57c-.24,1.27-.85,2.64-1.61,2.64s-1.48-.91-1.48-5.25V51.47h-2V62c0,6.89,1.88,7.92,3,7.92s1.93-1.05,2.4-2.06l0,1.66h1.85v-.3C203.37,67.94,203.35,66.43,203.35,64.43Z"/><path class="cls-4" d="M207.46,46.25l-2,1.17v4h-1.22v3h1.22v9.22a12.66,12.66,0,0,0,.58,4.64,2,2,0,0,0,1.82,1.51,2.21,2.21,0,0,0,1.47-.5l.1-.09-.09-3-.42.26a1.31,1.31,0,0,1-.68.17c-.53,0-.79-1-.79-3.09V54.46h2v-3h-2Z"/><path class="cls-4" d="M214.81,51.08a2.23,2.23,0,0,0-1.69,1,4.62,4.62,0,0,0-.55.87V43.34h-2V69.47h2V58.67a7.91,7.91,0,0,1,.09-1.47c.26-1.69,1-2.92,1.64-2.92,1,0,1.54,1.83,1.54,4.9V69.47h2V58.82C217.86,53.11,216.28,51.08,214.81,51.08Z"/><path class="cls-4" d="M223.25,51.08c-2.52,0-4.21,3.83-4.21,9.54,0,5.53,1.64,9.25,4.08,9.25,2.1,0,4.22-3,4.22-9.54C227.34,54.79,225.69,51.08,223.25,51.08Zm0,3c1.35,0,2.08,3.3,2.08,6.41,0,4-1.07,6.47-2.11,6.47s-2.11-2.39-2.11-6.4C221.07,57.29,221.81,54,223.21,54Z"/><path class="cls-4" d="M232.36,51.08c-.81,0-1.51.77-2,2.09l0-1.7H228.5v.3c0,1.49.06,3.16.06,5.43V69.47h2V59.89c0-.53,0-1,.06-1.44.19-2.24.86-3.81,1.64-3.81a.75.75,0,0,1,.37.08l.41.21V51.31l-.15-.09A1,1,0,0,0,232.36,51.08Z"/><path class="cls-4" d="M235,44.6c-.7,0-1.19.93-1.19,2.27s.48,2.23,1.16,2.23a.91.91,0,0,0,.64-.28,2.81,2.81,0,0,0,.56-2C236.15,45.51,235.68,44.6,235,44.6Z"/><rect class="cls-4" x="233.97" y="51.47" width="2.02" height="18"/><path class="cls-4" d="M240.1,46.25l-2,1.17v4H236.9v3h1.22v9.22a12.66,12.66,0,0,0,.58,4.64,2,2,0,0,0,1.82,1.51,2.19,2.19,0,0,0,1.46-.5l.1-.09-.08-3-.43.26a1.31,1.31,0,0,1-.68.17c-.52,0-.79-1-.79-3.09V54.46h2.06v-3H240.1Z"/><path class="cls-4" d="M248.25,51.47l-1.61,10.47c-.08.54-.16,1.1-.23,1.64-.08-.52-.16-1.06-.24-1.57L244.4,51.47h-2.16l3,16.39a5.31,5.31,0,0,1,.1.78,4.71,4.71,0,0,1-.11.7A12.37,12.37,0,0,1,244,72.79a4.22,4.22,0,0,1-1.17,1.45l-.14.1.43,3.21.35-.14a4.29,4.29,0,0,0,1.91-2.19c.94-1.8,1.63-4.57,2.74-11l2.21-12.76Z"/></g></g></svg>