<svg xmlns="http://www.w3.org/2000/svg" viewBox="0 0 142.98 103.92"><defs><style>.cls-1{font-size:17.33px;font-family:BaiJamjuree-Medium, Bai Jamjuree;font-weight:500;letter-spacing:0em;}.cls-2,.cls-4{fill:#ffcc02;}.cls-3{fill:#006b50;}.cls-4,.cls-5{stroke:#ffcc02;stroke-width:0px;}.cls-5{fill:#b29e32;}</style></defs><title>Asset 5</title><g id="Layer_2" data-name="Layer 2"><g id="Layer_1-2" data-name="Layer 1"><text class="cls-1" transform="translate(0 95.04)">Bangladesh Army</text><circle class="cls-2" cx="72.96" cy="37.26" r="37.26" transform="translate(20.67 100.32) rotate(-77.38)"/><path class="cls-3" d="M106.73,37.26A33.77,33.77,0,1,1,73,3.2,33.91,33.91,0,0,1,106.73,37.26Z"/><g id="g3879"><g id="g3062"><g id="g3047"><g id="g3041"><path id="path3037" class="cls-2" d="M64.21,47.56c16-10.26,24.07-18.93,29.27-26.48-1.8,8.93-11.54,18.5-27.72,28.6a11.32,11.32,0,0,0-1.24,1,3.06,3.06,0,0,1-.67.28c-1.27.4-2.78,2.53-5.1,2.85A2.42,2.42,0,0,1,56.42,56c-2.56,4.46-6.68-1.39-1.46-1.75a2.34,2.34,0,0,1,2.92-1.6c1.34-2.29,2.88-2.55,4.38-3.65Z"/><path id="rect3039" class="cls-2" d="M62.76,45.57l4.3,5.89a1,1,0,0,1-.21,1.37h0a1,1,0,0,1-1.38-.21l-4.3-5.89a1,1,0,0,1,.21-1.38h0A1,1,0,0,1,62.76,45.57Z"/><path id="path3854" class="cls-2" d="M81.71,47.56c-16-10.26-24.06-18.93-29.26-26.48C54.24,30,64,39.58,80.17,49.68a11.21,11.21,0,0,1,1.23,1,2.94,2.94,0,0,0,.68.28c1.26.4,2.77,2.53,5.09,2.85A2.42,2.42,0,0,0,89.5,56c2.56,4.46,6.68-1.39,1.46-1.75a2.33,2.33,0,0,0-2.91-1.6c-1.35-2.29-2.89-2.55-4.38-3.65Z"/><path id="rect3856" class="cls-2" d="M83.17,45.57l-4.31,5.89a1,1,0,0,0,.21,1.37h0a1,1,0,0,0,1.38-.21l4.31-5.89a1,1,0,0,0-.22-1.38h0A1,1,0,0,0,83.17,45.57Z"/></g></g><path id="path3060" class="cls-2" d="M64.19,49.29c.55.86-.41,2.47-2.15,3.6s-3.6,1.35-4.16.49.41-2.47,2.15-3.6,3.6-1.35,4.16-.49Z"/><path id="path3858" class="cls-2" d="M81.74,49.29c-.56.86.4,2.47,2.14,3.6s3.6,1.35,4.16.49-.4-2.47-2.14-3.6-3.61-1.35-4.16-.49Z"/></g></g><path id="_125609632" data-name=" 125609632" class="cls-4" d="M72.93,25.71a2.14,2.14,0,0,1-.67-.45c-.14-.13-.73-.34-.09-1.82,1-2.35,3.15-6,5.52-7.78L72.93,25.71Z"/><path id="_125594880" data-name=" 125594880" class="cls-5" d="M72.93,25.71c.52.29,1.34.84,2.36-1.2a19,19,0,0,0,2.38-8.81Z"/><path id="_116914736" data-name=" 116914736" class="cls-4" d="M73.29,25.51c-.21-.18-.18,0-.32-.25A1.77,1.77,0,0,1,73.38,23c1.74-1.89,5.34-4.74,8.18-5.68l-8.27,8.19Z"/><path id="_125479936" data-name=" 125479936" class="cls-5" d="M73.29,25.51c.39.44,1,1.27,3.08-.61,1.87-1.73,4.31-4.48,5.15-7.54Z"/><path id="_125284296" data-name=" 125284296" class="cls-4" d="M73.72,26.39c-.25.12-.06.17-.35.19a1.77,1.77,0,0,1-1.94-1.23c-1.07-2.32-2.34-6.74-2.11-9.73l4.4,10.77Z"/><path id="_125284336" data-name=" 125284336" class="cls-5" d="M73.72,26.39c.56-.19,1.58-.49.61-3.08-.88-2.39-2.49-5.69-5-7.64l4.39,10.72Z"/><path id="_129736672" data-name=" 129736672" class="cls-4" d="M73.17,25.58a2,2,0,0,1-.66.47c-.17.07-.57.55-1.73-.56-1.84-1.78-4.43-5.08-5.29-7.94l7.68,8Z"/><path id="_124035040" data-name=" 124035040" class="cls-5" d="M73.17,25.58c.46-.38,1.27-.95-.27-2.62a18.68,18.68,0,0,0-7.39-5.38l7.66,8Z"/><path id="_100815240" data-name=" 100815240" class="cls-5" d="M71.61,24.24c-.55-.26-1.21-.67-1.91-1a26.5,26.5,0,0,0-7.88-2l9.94,4.61a6.27,6.27,0,0,1-.15-1.59Z"/><path id="_24584688" data-name=" 24584688" class="cls-4" d="M73.46,27.48V14.31c-1.58,2.56-2,7.29-1.87,9.83a6.38,6.38,0,0,0,.17,1.69l-9.94-4.61c1.24,2.17,4.71,4.13,5,4.33a4.52,4.52,0,0,0,2.86,1.25c.52,0,2.75-.11,2.94-.09s.49.17.53.43a3.09,3.09,0,0,1,0,.33Z"/><path id="_95478192" data-name=" 95478192" class="cls-5" d="M73.78,27.5a3.46,3.46,0,0,1,0-.36c0-.26.24-.38.52-.43s2.42.08,2.94.09a4.54,4.54,0,0,0,2.86-1.25c.25-.2,3.67-2.39,5-4.33l-10,4.61a6.49,6.49,0,0,0,.16-1.69c.12-2.54-.29-7.27-1.86-9.83V27.48l.32,0Z"/><path id="_101019448" data-name=" 101019448" class="cls-4" d="M75.32,24.24c.54-.26,1.2-.67,1.9-1a26.32,26.32,0,0,1,7.89-2l-10,4.61a6.94,6.94,0,0,0,.16-1.59Z"/></g></g></svg>