<svg xmlns="http://www.w3.org/2000/svg" viewBox="0 0 205 42"><defs><style>.cls-1{fill:#00adee;}</style></defs><title>Asset 1</title><g id="Layer_2" data-name="Layer 2"><g id="Layer_1-2" data-name="Layer 1"><path class="cls-1" d="M188.37,36.67a5.73,5.73,0,0,0,1.53-1.06c.92-.81,1.07-1.89,1.9-2.92a34.86,34.86,0,0,1,2.87-3,25.17,25.17,0,0,1-1.16,3.66,5.21,5.21,0,0,1-1.74,2.21,1.12,1.12,0,0,0,1.07,0,4.12,4.12,0,0,1,2.18-.51,4.94,4.94,0,0,0,3.23-.54c1.15-.68,2.18-1.35,2.18-1.35a6.39,6.39,0,0,1-3.62,3.45,6.88,6.88,0,0,1-4.72.4A3,3,0,0,0,190,36.7a4.48,4.48,0,0,1-1.65,0"/><path class="cls-1" d="M197.7,24.84a27.49,27.49,0,0,0,.16,2.9,4.28,4.28,0,0,1-.34,2.38c-.3.72-.82,1.74-.45,1.94s.51-.61,1.33-1.19,2.31-1.34,3.12-1.83a8.69,8.69,0,0,0,2.3-2.26,8.84,8.84,0,0,1-3.38,5.28c-1.86,1.28-5.54,1.61-5.54,1.61a2.54,2.54,0,0,0,.59-1.24c.2-.88.3-2.75.67-3.95s1.54-3.64,1.54-3.64"/><path class="cls-1" d="M199.22,20a35.08,35.08,0,0,1,1.19,3.41,18.3,18.3,0,0,1-.07,3,11.44,11.44,0,0,0,1.73-2.14c.67-1.06,1.63-1.43,2.18-2.29l.75-1.19a26.66,26.66,0,0,1-1.13,3.75c-1,2.31-4.94,4.74-4.94,4.74a10.08,10.08,0,0,0,.31-2,21.88,21.88,0,0,0-.33-3.86,21.35,21.35,0,0,1,.31-3.41"/><path class="cls-1" d="M199.15,14.52a14.72,14.72,0,0,1,1,1.4c.65,1,1.5,2.1,1.53,2.72S202,20,202.18,20s.21-.73.51-1.79,1.22-2.1,1.37-2.88.37-1.53.37-1.53a13.22,13.22,0,0,1-.1,4.87,7.84,7.84,0,0,1-2.07,3.51c-.21.27-.59.65-.59.65s.2.2-.4-1.16-1-2.21-1.58-3.21a16.91,16.91,0,0,1-.54-3.91"/><path class="cls-1" d="M197.79,10a11.76,11.76,0,0,1,2.16,1.6c.77.83,1.62,2.37,1.9,2.3s0-1.37.05-1.88a22.39,22.39,0,0,0,.17-3.42c-.11-.61-.29-1.48-.29-1.48s1.69,2.48,1.66,4.25.05,2.16-.75,3.54a8.26,8.26,0,0,0-.68,1.74,7.18,7.18,0,0,0-.83-1.24,14.46,14.46,0,0,1-2.28-3c-.44-1.09-1.11-2.38-1.11-2.38"/><path class="cls-1" d="M195.54,5.68a11.11,11.11,0,0,0,1.11.87,18.13,18.13,0,0,1,2,1.27c.47.48,1.07,1,1.31.9s-.07-.57-.44-1.59a24.19,24.19,0,0,0-.68-2.48,6.6,6.6,0,0,1-.58-1.31s1.87,1.45,2.21,2.65a28.52,28.52,0,0,1,.3,4.94,5,5,0,0,0-1-.95c-.65-.47-2.28-1.66-2.83-2.09a4.9,4.9,0,0,1-1.43-2.21"/><path class="cls-1" d="M194,1.68a7.54,7.54,0,0,1,2.46,1.22A9.32,9.32,0,0,1,198.22,6,12,12,0,0,1,196,4.57a21.6,21.6,0,0,1-2-2.89"/><path class="cls-1" d="M165.05,37.9a7.09,7.09,0,0,0,3,.79,29.52,29.52,0,0,0,4.76-1.11,12.79,12.79,0,0,1,4.87-.52c1,.17,2.72.4,2.72.4s2.24-.35,4-.45a10.4,10.4,0,0,1,3.38.62,22.39,22.39,0,0,0,4.87,1.16,7.82,7.82,0,0,0,3.33-.72s-.19,1.39-4.74,1.83c-2.71.25-3.82.05-5-.72a9,9,0,0,0-3.08-1.43,13.46,13.46,0,0,0-1.49,0A11.37,11.37,0,0,1,184.15,39l2.91,2.37-.52.6a9.69,9.69,0,0,0-2.15-2.15,10.71,10.71,0,0,0-3.89-1.93,10,10,0,0,0-4.42,2.39,9.6,9.6,0,0,0-1.56,1.63L174,41.4a18.34,18.34,0,0,1,2.49-2,30.73,30.73,0,0,1,2.94-1.68s0-.14-.92-.07a5.83,5.83,0,0,0-3,1.09A6.59,6.59,0,0,1,172.13,40a12.51,12.51,0,0,1-5.26-.73c-1.51-.64-1.82-1.38-1.82-1.38"/><path class="cls-1" d="M160.48,33a24.33,24.33,0,0,0,2,1.46c1.44.81,2.69.44,3.6.57a8.44,8.44,0,0,1,2,.47c.28.12,1.09.19,1.17.05s-.74-.52-1.36-1.61a17.8,17.8,0,0,1-1.43-4.22,13.54,13.54,0,0,1,2.58,2.6c1.24,1.63,1.07,2.43,1.93,3.16a10.12,10.12,0,0,0,1.75,1.18,12.49,12.49,0,0,0-1.94-.05,24.26,24.26,0,0,1-3.43.61A7,7,0,0,1,161.94,35a7.2,7.2,0,0,1-1.46-2"/><path class="cls-1" d="M157,26.89a13.08,13.08,0,0,0,2,2.05c1.18,1,3,1.53,3.6,2.22s.88,1.26,1.23,1.09-.21-.77-.44-1.68a14.69,14.69,0,0,1-.23-4.29,5.46,5.46,0,0,0,.06-1.24s.54.93,1.19,2.37.54,3.63.81,4.64a5.08,5.08,0,0,0,.83,1.77,12,12,0,0,1-2.74-.44c-.91-.34-3.47-1.28-4.44-2.86A39.23,39.23,0,0,1,157,26.89"/><path class="cls-1" d="M155.9,20.8a4.86,4.86,0,0,0,1,1.51A16,16,0,0,1,158.51,24c.49.57,1.64,2.77,2,2.71s-.15-1.18,0-2.3a14.16,14.16,0,0,1,1.39-4.13,29.56,29.56,0,0,1,.2,3.72c-.07,1.38-.54,2.93-.37,3.73s.27,1.77.27,1.77a32.28,32.28,0,0,1-3.09-2.36,12.76,12.76,0,0,1-2.66-4.5,12.41,12.41,0,0,1-.32-1.8"/><path class="cls-1" d="M156.39,13.89a20.89,20.89,0,0,0,.2,5A9,9,0,0,0,159.2,23a8.43,8.43,0,0,1,.59-1.76c.42-.88,1.09-1.77,1.36-2.48a17.15,17.15,0,0,0,.64-3.93s-.46.71-.89,1.28a10.52,10.52,0,0,0-1.33,2.2c-.4.94-.45,1.81-.89,1.85-.62.06-.1-.83-.62-2.05a24.57,24.57,0,0,1-1.33-3,4.73,4.73,0,0,0-.34-1.19"/><path class="cls-1" d="M159.09,7.27a9.12,9.12,0,0,0-1.56,3.55,6.64,6.64,0,0,0,.6,4.2,6,6,0,0,1,.58,1.9,4.32,4.32,0,0,1,.8-1.21A15.28,15.28,0,0,0,161.75,13a23,23,0,0,0,1.31-2.74,11.35,11.35,0,0,0-1.73,1.19A12.35,12.35,0,0,0,159,14.23a1,1,0,0,1-.3-1,6.79,6.79,0,0,0,.18-2.08,6,6,0,0,1-.13-1.8c.13-.79.33-2.12.33-2.12"/><path class="cls-1" d="M162.79,3.44a6.18,6.18,0,0,0-2.32,2.49,17.83,17.83,0,0,0-.4,3.28,4.82,4.82,0,0,0,.05,1.88,5.57,5.57,0,0,1,.8-1,14,14,0,0,1,2.36-1.62,6.85,6.85,0,0,0,2.22-2.78,11.67,11.67,0,0,1-1.33,1.06,17.85,17.85,0,0,0-1.89,1.09,3.42,3.42,0,0,0-.82,1.25A1.22,1.22,0,0,1,161.09,8a15.41,15.41,0,0,0,.61-1.63,8.32,8.32,0,0,1,.55-1.9c.23-.41.54-1,.54-1"/><path class="cls-1" d="M164.11,3.35a11.46,11.46,0,0,1,2.81-1.48,15.68,15.68,0,0,1-1.85,2.47,9.83,9.83,0,0,1-2.52,1.82,5.69,5.69,0,0,1,1.56-2.81"/><path class="cls-1" d="M173.79,5.79c1.91,0,5.75,2.06,5.75,4.82a4.18,4.18,0,0,1-1.34,2.88,4.66,4.66,0,0,1-.08,1.26c-.25.55-.51.39-.84.89s-.47,1.27-1.86,1.27-1.36-.44-2-.44a1.55,1.55,0,0,0-1.11.64v5s.14.64,1.39,1.31a8.9,8.9,0,0,0,2.61,1.08c.39,0,.39-.44.86-.44s2.39,0,2.39.89-.94,1.49-4.39,1.49a37.25,37.25,0,0,1-4.89-.27c-.39,0-.44.08-.44.61s0,1.28,0,1.28a4.27,4.27,0,0,0,1.28,1.28,3.45,3.45,0,0,0,1.86.55,8,8,0,0,0,2.89-.67,7.15,7.15,0,0,1,2.95-.66c1.08,0,3-.25,3-1.36s-.42-1.5-.42-2.36.14-1.62-.28-2-2.25-1.74-2.25-2.49.67-1.09.75-1.5,0-.67.31-.75a4,4,0,0,0,.5-.2l.14-.69a2.86,2.86,0,0,0,.55-.34c.2-.16.36-.27.36-.27a1,1,0,0,1,.14-.87,1.23,1.23,0,0,1,1-.25c.3,0,1.25-.11,1.25-.11a2.94,2.94,0,0,1,.64-.8c.56-.42,2.08-.64,2.47-.95s.81-1.05,1.84-1.05c4.22,0,7.05,3.81,7.05,5.86,0,3.56-2.3,7.86-5.52,7.86-2.53,0-2.37.75-2.37,1.58a2.36,2.36,0,0,0,1.9,2.31,16.19,16.19,0,0,1-8.59,3A15.85,15.85,0,0,1,169.38,28a14.1,14.1,0,0,1-3.81-9.86v-2a15.22,15.22,0,0,1,1.85-1.25c.7-.35,2.25-1.26,2.25-2a23.43,23.43,0,0,1-.29-2.6,5.26,5.26,0,0,1,.84-2.93,4.4,4.4,0,0,1,3.57-1.62"/><path class="cls-1" d="M180.61,1.22A16.79,16.79,0,1,0,197.4,18,16.79,16.79,0,0,0,180.61,1.22ZM193.14,7.6a10.86,10.86,0,0,1,1.27,1.77,5.1,5.1,0,0,1-1.26.91c-.67.32-1.93.79-1.93.79a22.14,22.14,0,0,0-.83-2.19c-.37-.76-.75-1.66-.75-1.66l.92-.64a9.92,9.92,0,0,0,.91-.72,22.43,22.43,0,0,1,1.67,1.74ZM187.6,3.28a11.84,11.84,0,0,1,1.91,1.07c.76.56,1.64,1.25,1.64,1.25a2.25,2.25,0,0,1-.56.56,6.75,6.75,0,0,1-1.05.6s-.56-.79-1-1.39-1.36-1.63-1.36-1.63a3.71,3.71,0,0,0,.3-.32.57.57,0,0,1,.16-.14Zm-2.19,3.5a6,6,0,0,0-.61-1.5A13.08,13.08,0,0,0,186,4.64c.46-.3.83-.6.83-.6s.8.8,1.38,1.52a13.89,13.89,0,0,1,1,1.42l-1.58.72a8.34,8.34,0,0,1-1.92.55,11.94,11.94,0,0,0-.24-1.47Zm.42,5.73a10.27,10.27,0,0,1-1.69.16c-1.31.05-2.47,0-2.47,0V8.94s1,.06,1.76.06a15.44,15.44,0,0,0,2-.22s.07.58.22,1.52a17.56,17.56,0,0,1,.18,2.21Zm.42-9.81a5.13,5.13,0,0,1,1,.45l-.48.38s-.35-.32-.65-.62a3,3,0,0,0-1.06-.56s.73.23,1.19.35Zm-1.32-.13a6.47,6.47,0,0,1,1.51,1.22s-.32.21-.77.53a3.12,3.12,0,0,1-1.06.45s-.39-.93-.67-1.46a10,10,0,0,0-1.13-1.41,7.74,7.74,0,0,1,2.12.67ZM181.6,1.8s.92-.24,1.76,1.34c.43.83.83,1.76.83,1.76a8,8,0,0,1-1.3.27,5.57,5.57,0,0,1-1.29,0V1.8Zm0,3.81a8.63,8.63,0,0,0,1.36,0,9.7,9.7,0,0,0,1.43-.2,3.23,3.23,0,0,1,.49,1.32c.21,1,.32,1.64.32,1.64a10.34,10.34,0,0,1-1.87.28,7.69,7.69,0,0,1-1.73-.05v-3ZM181.1,1.8l.06,3.39A4.86,4.86,0,0,1,179.64,5a4.38,4.38,0,0,1-1.17-.45,13.25,13.25,0,0,1,1-1.59c1.21-1.66,1.66-1.19,1.66-1.19Zm-1-.09A6.54,6.54,0,0,0,179,3.12a11.74,11.74,0,0,1-.82,1.31,6.26,6.26,0,0,1-1-.56,5.89,5.89,0,0,1-.63-.52,4.83,4.83,0,0,1,1.85-1.18,7.05,7.05,0,0,1,1.73-.46Zm-3.15.39A8.29,8.29,0,0,1,178,1.91a8.12,8.12,0,0,0-1.08.64,7,7,0,0,1-.73.52,1.11,1.11,0,0,1-.28-.28,1.27,1.27,0,0,1-.13-.34,7.62,7.62,0,0,1,1.1-.35Zm3.72,32.18A16.33,16.33,0,0,1,164.31,18c0-12.11,11-15.44,11-15.44l.66.62a7.42,7.42,0,0,0-1.06.89,7.91,7.91,0,0,0-.75.92l.28.27a6.4,6.4,0,0,1,.73-.89c.39-.39.95-.84.95-.84a6.91,6.91,0,0,0,.93.8c.36.21.88.45.88.45a2.63,2.63,0,0,1-.19.62c-.15.35-.3.8-.3.8l.34.19s.24-.66.37-.92.23-.52.23-.52a10.15,10.15,0,0,0,1.54.5,5.55,5.55,0,0,0,1.23.13V8.51h-1.06V9h1.09v3.62h-.91V13h.89v1.34h.44V13.08s.58,0,2.09-.05a24.24,24.24,0,0,0,2.48-.21s0-1.38-.17-2.39a13.78,13.78,0,0,0-.35-1.8,7.66,7.66,0,0,0,1.81-.49c1-.39,1.77-.75,1.77-.75a9.21,9.21,0,0,1,.89,1.76c.38,1,.75,2.09.75,2.09l-.64.28.11.33.74-.22.22.45.28-.13-.21-.46a10.09,10.09,0,0,0,1.77-.74,16.85,16.85,0,0,0,1.53-.93A16.19,16.19,0,0,1,196.92,18c0,7.38-5.71,16.27-16.28,16.27"/><path class="cls-1" d="M18.85,40.6V36.36l-.11-.11c-2.07,3.4-4.58,5.18-9.26,5.18-4.29,0-9.48-2.06-9.48-9v-21H4.91V30.78c0,4.8,2.45,6.41,5.63,6.41,6.19,0,8-5.46,8-9.7V11.43h4.91V40.6H18.85"/><path class="cls-1" d="M54.6,40.6H49.69v-18c0-5.07-1.45-7.64-6.25-7.64-2.78,0-7.69,1.78-7.69,9.7V40.6H30.84V11.43h4.63v4.13h.11a10.58,10.58,0,0,1,8.81-5c4.52,0,10.21,1.84,10.21,10.16V40.6"/><path class="cls-1" d="M62,6.13V.56h4.91V6.13ZM66.87,40.6H62V11.43h4.91V40.6"/><path class="cls-1" d="M92.47,21.25c-.62-3.91-2.8-6.25-6.92-6.25-6.08,0-8,5.8-8,11,0,5,1.23,11.2,8,11.2,3.29,0,6.14-2.45,7-6.91H97.2c-.5,4.63-3.34,11.15-11.87,11.15-8.2,0-13-6.19-13-14.61,0-9,4.35-16.23,14-16.23,7.64,0,10.55,5.58,10.93,10.66H92.47"/><path class="cls-1" d="M126.87,31.45a12.61,12.61,0,0,1-5.18,8c-1.34.89-3.24,2-7.92,2-8.2,0-13-6.19-13-14.61,0-9,4.35-16.23,14-16.23,8.42,0,12.55,6.7,12.55,17H106c0,6.08,2.84,9.59,8.48,9.59,4.63,0,7.36-3.57,7.52-5.74Zm-4.68-7.75c-.28-4.52-2.18-8.7-8.14-8.7-4.52,0-8.09,4.18-8.09,8.7h16.23"/><path class="cls-1" d="M139.2,15.5V40.6h-4.91V15.5h-4V11.43h4v-5c0-4.4,2.79-6.41,7.58-6.41.73,0,1.46.05,2.24.11V4.52c-.62-.06-1.4-.12-2-.12-2.12,0-2.9,1.06-2.9,3.4v3.63h4.91V15.5H139.2"/></g></g></svg>