<svg xmlns="http://www.w3.org/2000/svg" xmlns:xlink="http://www.w3.org/1999/xlink" viewBox="0 0 119.25 119.25"><defs><style>.cls-1,.cls-10,.cls-2,.cls-3,.cls-5,.cls-6,.cls-7,.cls-9{fill:none;}.cls-1,.cls-3,.cls-6,.cls-7{stroke:#231f20;}.cls-1,.cls-10,.cls-9{stroke-width:1.26px;}.cls-2{stroke:#00a551;stroke-width:2.52px;}.cls-3{stroke-width:0.76px;}.cls-4{fill:#00a551;}.cls-5{stroke:#230000;}.cls-5,.cls-7{stroke-width:0.7px;}.cls-10,.cls-6{stroke-linecap:round;}.cls-6{stroke-width:0.6px;}.cls-8{clip-path:url(#clip-path);}.cls-10,.cls-9{stroke:#ec1c24;}.cls-11{fill:#231f20;}</style><clipPath id="clip-path"><polyline class="cls-1" points="50.15 37.6 50.15 76.09 60.22 85.22 70.29 75.77 70.62 36.58"/></clipPath></defs><title>Asset 15</title><g id="Layer_2" data-name="Layer 2"><g id="Layer_1-2" data-name="Layer 1"><circle class="cls-2" cx="59.63" cy="59.63" r="58.37" transform="translate(-12.1 103.96) rotate(-76.72)"/><path class="cls-3" d="M55.7,45c1-.89,1.72-2.15,3.65-2.15s2.65,1.38,3.77,2.27"/><path class="cls-4" d="M70.73,26.37c-.84-.45,3.06-2.9,2.14-5.44-1.3.47-3.38.89-4.78,1.35a11.86,11.86,0,0,0,1.11-5.6,18.37,18.37,0,0,0-5.9,3.06,14.91,14.91,0,0,0-3.87-6h0a14.91,14.91,0,0,0-3.87,6,18.4,18.4,0,0,0-5.89-3.06,11.59,11.59,0,0,0,1.1,5.6c-1.4-.46-3.48-.88-4.78-1.35-.92,2.54,3,5,2.15,5.44-.52-.18-4.44-1.06-6.18-.69.31,1.13,2,4.45,8.09,6.75.83.31,1.73.6,2.72.87a1.65,1.65,0,0,0,.21.05,11.56,11.56,0,0,0,1.47.33h3.92v2.86h2.29V33.68h4.22A9.61,9.61,0,0,0,67,33a26,26,0,0,0,2.47-.88c5.56-2.28,7.13-5.39,7.43-6.48C75.16,25.31,71.24,26.19,70.73,26.37Zm-27,0c5-.26,11.91,4,12,4.78S50.21,30.53,43.73,26.34Zm4.21-4c1.77.07,7.56,2.8,7.63,3.64s.2,2.19.2,2.19S47.25,22.92,47.94,22.35Zm2.39-4.63c1.77.06,5.17,2.75,5.24,3.59s.2,3,.2,3S49.63,18.28,50.33,17.72ZM57,30.3v-.47h0c-.12-3.35-.19-12.69,2.68-14.87l.15-.1h0V30.3c0,.48,0,2.21,0,2.73S57.05,32.63,57,30.3Zm6.26-9c.07-.84,3.47-3.53,5.24-3.59.7.56-5.44,6.59-5.44,6.59S63.23,22.14,63.29,21.31Zm0,4.68c.07-.84,5.86-3.57,7.63-3.64.7.57-7.83,5.83-7.83,5.83S63.23,26.83,63.29,26Zm-.14,5.13c.07-.75,7-5,12-4.78C68.65,30.53,63.09,31.89,63.15,31.12Z"/><path class="cls-5" d="M71.2,36.78c-3,0-3,2.34-5.92,2.34s-3-2.58-5.93-2.58-3,2.58-6,2.58-1.59-1.57-4.57-1.57"/><path class="cls-6" d="M59.35,42.89c-1.93,0-2.34,1.38-3.38,2.27a23.49,23.49,0,0,0,3.86.21,25.38,25.38,0,0,0,3.29-.21c-1.12-.89-1.77-2.27-3.77-2.27Z"/><path class="cls-7" d="M71.2,38.68h0c-3,0-3,2.59-5.92,2.59s-3-2.59-5.93-2.59-3.73,2.65-6.71,2.65"/><path class="cls-7" d="M53.71,43.4c3,0,2.66-2.58,5.64-2.58s3,2.59,5.93,2.59"/><g class="cls-8"><polyline class="cls-1" points="30 22.27 59.59 53.12 90.12 21.64"/><polyline class="cls-1" points="30 26.37 59.59 57.21 90.12 25.73"/><polyline class="cls-1" points="30 30.46 59.59 61.3 90.12 29.83"/><polyline class="cls-1" points="30 34.55 59.59 65.39 90.12 33.92"/><polyline class="cls-1" points="30 38.64 59.59 69.48 90.12 38.01"/><polyline class="cls-1" points="30 42.73 59.59 73.57 90.12 42.1"/><polyline class="cls-1" points="30 46.82 59.59 77.66 90.12 46.19"/><polyline class="cls-1" points="30 50.91 59.59 81.76 90.12 50.28"/><polyline class="cls-1" points="30 55 59.59 85.85 90.12 54.38"/><polyline class="cls-1" points="30 59.09 59.59 89.94 90.12 58.47"/><polyline class="cls-1" points="30 63.19 59.59 94.03 90.12 62.56"/><polyline class="cls-1" points="30 67.28 59.59 98.12 90.12 66.65"/></g><polyline class="cls-1" points="50.15 37.6 50.15 76.09 60.22 85.22 70.29 75.77 70.62 36.58"/><polyline class="cls-9" points="25.27 13.45 59.59 49.02 95.32 12.82"/><path class="cls-10" d="M37.56,38.44V88.77H54.68l6.12,3.76,4.75-3.76H83.69V38.44"/><path class="cls-5" d="M78.58,38.13V68.85A17.22,17.22,0,0,1,61.37,86.06h0a17.21,17.21,0,0,1-17.2-17.21V38.13"/><path class="cls-10" d="M78.58,38.13s2.28-5.69,5.11,0"/><path class="cls-10" d="M70.65,37.82s3.94-5.14,7.93.31"/><path class="cls-11" d="M14.57,45.51l1.3-.76A47,47,0,0,1,19.51,37l-1.42.51a47,47,0,0,0-2.32,4.79l-.22-.09a39.54,39.54,0,0,0,.23-5.68L13.87,37A7,7,0,0,1,12,39.05a4.64,4.64,0,0,1-2.31,1,12.15,12.15,0,0,0-1.55.55l7.16,2.77C15.08,44.07,14.8,44.78,14.57,45.51Zm-3.2-5.06a8.93,8.93,0,0,0,2.92-1.92,27.6,27.6,0,0,1-.08,3.1Z"/><path class="cls-11" d="M16.15,44.12c.05-.18.15-.48.31-1l-1.33.73-.08.21a1.59,1.59,0,0,1-.7.87,1.12,1.12,0,0,1-1,.12L8.26,43.34l-1.4.91,7.36,2.27c-.22.74-.44,1.49-.63,2.24l1.27-.85.34-1.15a1.75,1.75,0,0,1,1.06-.1l.63-.44c-.77-.26-1.46-.47-2.08-.62A2.21,2.21,0,0,0,16.15,44.12Z"/><path class="cls-11" d="M10.81,51.08a1.68,1.68,0,0,0,.92.59,1.76,1.76,0,0,0,1.35-.35A2.09,2.09,0,0,0,13.92,50a2.19,2.19,0,0,0-.21-1.47,1.67,1.67,0,0,0-1-.92,1.57,1.57,0,0,0-1.39.29,2.19,2.19,0,0,0-.89,1.4,2.33,2.33,0,0,0-.08.67A1.72,1.72,0,0,0,10.81,51.08Zm-6.3,1,1,.15C7.79,50.41,9.61,49,11,47.74L9,47.23Zm7.81-1.53a1,1,0,0,1-.41-.14,1.41,1.41,0,0,1-.32-.66,1.88,1.88,0,0,1-.08-.8c.05-.22.21-.3.45-.24a1.13,1.13,0,0,1,.69.6,1.28,1.28,0,0,1,.19,1C12.78,50.52,12.61,50.62,12.32,50.56Z"/><path class="cls-11" d="M12.25,62.29l.94-1.22A44.51,44.51,0,0,1,14,51.43l-1.21,1a46.77,46.77,0,0,0-.65,6.37l-1.19,0a1.7,1.7,0,0,0,.85-1.36,1,1,0,0,0-.18-.58,2,2,0,0,0-.46-.53,2.58,2.58,0,0,0,.9-1.67A2.06,2.06,0,0,0,11.63,53a2.13,2.13,0,0,0-1.32-.74,1.83,1.83,0,0,0-1.66.48,2.89,2.89,0,0,0-.85,1.92,2,2,0,0,0,.14,1c.15.4.38.6.67.63a1.37,1.37,0,0,0,.88-.25,1.24,1.24,0,0,0,.56-.93,1.36,1.36,0,0,0-.15-.86.81.81,0,0,0-.62-.43.74.74,0,0,0-.33,0,.76.76,0,0,1,.87-.5,1,1,0,0,1,.72.52,1.55,1.55,0,0,1,.2,1,2,2,0,0,1-.31.9,3,3,0,0,1-.7.59c-.14.09-.22.14-.26.13l-.26-.07.21.82.59-.06a.48.48,0,0,1,.5.56,1.12,1.12,0,0,1-.28.65.71.71,0,0,1-.55.28l-4-.14-1,1.33,7.49.07C12.13,60.75,12.22,61.52,12.25,62.29Z"/><path class="cls-11" d="M13.18,60.49c0-.22,0-.57,0-1.05l-1,1.16v.22a1.51,1.51,0,0,1-.31,1.06,1.12,1.12,0,0,1-.87.45l-5.39.21-1,1.35,7.68-.48c.06.78,0,1.56.16,2.32.26-.41.59-.83.9-1.23l-.05-1.2a1.67,1.67,0,0,1,1-.47l.42-.64q-1.22,0-2.16.15A2,2,0,0,0,13.18,60.49Z"/><path class="cls-11" d="M8.4,66.75a4.41,4.41,0,0,1,2.45.3A4.07,4.07,0,0,1,12.7,69a11.17,11.17,0,0,1,.58,1.62A13.89,13.89,0,0,1,14,69.3a46.36,46.36,0,0,1-.72-6.2l-.93,1.23a14,14,0,0,0,.24,2.23A5.46,5.46,0,0,0,9,65.39a3.63,3.63,0,0,0-2.22,1,3,3,0,0,0-.87,2.75,2.37,2.37,0,0,0,.57,1.26,1,1,0,0,0,1,.37,1,1,0,0,0,.78-.83,1,1,0,0,0,.09-.65,1.58,1.58,0,0,0-.41-.85.83.83,0,0,0-.72-.32,3.35,3.35,0,0,0-.59.31A2,2,0,0,1,8.4,66.75Z"/><path class="cls-11" d="M15.54,78l.52-1.46a27.07,27.07,0,0,1-1.33-4.21A29,29,0,0,1,13.81,68L13,69.34l.12.75-3.91.81-.79,1.7A5.72,5.72,0,0,1,12,75.07a7.72,7.72,0,0,0-1.62.31A11.6,11.6,0,0,0,7.6,76.8l0,1.14a15.31,15.31,0,0,1,1.55-.87l.31-.14.31-.13a7.25,7.25,0,0,1,3.66.08l.4-1.91a11.5,11.5,0,0,0-1.7-2.08l-1.21-1,2.55-.59.88,3.4Z"/><path class="cls-11" d="M19.39,85.6l.24-1.5-.4-.66c-.09-.14-.06-.29.1-.44a1.62,1.62,0,0,0,.34-.36c.06-.17.08-.49.2-1-.87.5-1.8,1.07-2.76,1.71.67-1.34.93-2.16.73-2.57a1.45,1.45,0,0,0-.12-.19A2.94,2.94,0,0,0,16,79.43a2.3,2.3,0,0,0,.4-1,2.25,2.25,0,0,0-.09-1.16l-.72-2-.53,1.42c.2.56.25.69.28.76a1.44,1.44,0,0,1-.14,1.43,2.25,2.25,0,0,0-1-.62,1.42,1.42,0,0,0-1-.11,1.12,1.12,0,0,0-.63.58,1.25,1.25,0,0,0,0,1,1.62,1.62,0,0,0,1.23,1,1.63,1.63,0,0,0,0,1.46c.38.8.9,1,1.54.71.39-.2.63-.81.73-1.79a.51.51,0,0,1,.34.15,1,1,0,0,1,.29.34,1.5,1.5,0,0,1-.13,1.09,1.75,1.75,0,0,1-.59.93l-4,2a16.75,16.75,0,0,0-.21,1.68l6.51-3.67Z"/><path class="cls-11" d="M18.44,93.31a2.83,2.83,0,0,1,.89-1.15,3.64,3.64,0,0,1,2.55-.77,4.35,4.35,0,0,1,2.93,1.24l0-1.49A3.9,3.9,0,0,0,22.13,90a4.59,4.59,0,0,0-2.59.51,5.22,5.22,0,0,0-.62.39,3.78,3.78,0,0,0-1.41,2,2.87,2.87,0,0,0,.65,2.88,2.16,2.16,0,0,0,1.18.71,1.15,1.15,0,0,0,1.08-.25,1,1,0,0,0,.25-.67,1,1,0,0,0-.25-.78c-.68-.75-1.27-.91-1.77-.5a.58.58,0,0,0-.19.46A1.72,1.72,0,0,1,18.44,93.31Z"/><path class="cls-11" d="M31.76,98.83l-.36-1.52a46,46,0,0,1-7-6.64l.05,1.55A47.26,47.26,0,0,0,29,96.7l-.77.91a1.74,1.74,0,0,0-.52-1.53,1,1,0,0,0-.57-.22,1.77,1.77,0,0,0-.7,0,2.52,2.52,0,0,0-.79-1.71,1.9,1.9,0,0,0-1.55-.68,2.17,2.17,0,0,0-1.39.57,1.9,1.9,0,0,0-.66,1.61,3,3,0,0,0,1,1.89,2.24,2.24,0,0,0,.93.51.84.84,0,0,0,.92-.15,1.33,1.33,0,0,0,.34-.84,1.21,1.21,0,0,0-.39-1,1.7,1.7,0,0,0-.79-.4.77.77,0,0,0-.7.21.8.8,0,0,0-.2.28.81.81,0,0,1,.16-1,.94.94,0,0,1,.85-.23,2,2,0,0,1,1.45,1.26,3.19,3.19,0,0,1,0,.91.82.82,0,0,1-.05.29l-.22.15.77.35.32-.51a.47.47,0,0,1,.75,0,1.06,1.06,0,0,1,.32.63.66.66,0,0,1-.12.6l-2.59,3.07a13.07,13.07,0,0,0,.42,1.61l4.69-5.84Z"/><path class="cls-11" d="M31,96.94c-.17-.13-.47-.32-.89-.57l.33,1.46.18.13a1.57,1.57,0,0,1,.63.93,1.19,1.19,0,0,1-.19,1l-3.18,4.37.43,1.63,4.39-6.33a21,21,0,0,0,2,1.25l-.44-1.44a7.47,7.47,0,0,1-1-.67,1.77,1.77,0,0,1,.23-1l-.23-.74c-.47.65-.88,1.24-1.22,1.79A2.07,2.07,0,0,0,31,96.94Z"/><path class="cls-11" d="M38.83,106.2a2.49,2.49,0,0,0-.58-.18,1.07,1.07,0,0,0-.9.51.83.83,0,0,0,.06.83,1.63,1.63,0,0,0,.74.68,1.58,1.58,0,0,0,1.32.08,1.47,1.47,0,0,0,.79-.8,2.93,2.93,0,0,0-.11-2.22,3.18,3.18,0,0,0-1.61-1.89l.11-.22A31.13,31.13,0,0,0,43,104.86l-.72-1.31c-1.66-.63-3.22-1.5-4.84-2.25-1.5-1-3.1-1.78-4.52-2.85.13.49.24,1,.4,1.49,1.44.84,2.83,1.8,4.32,2.55l-.15.28a20.68,20.68,0,0,0-5.22-.49l.47,1.87a5.81,5.81,0,0,1,2,2.81,4.42,4.42,0,0,1,.27,1c0,.1,0,.41,0,.92l.41.79L38,104.35l.07,0a2.65,2.65,0,0,1,1.1,1,1.68,1.68,0,0,1,.27,1.29A1.87,1.87,0,0,0,38.83,106.2Zm-3.36.36a7.6,7.6,0,0,0-1.32-2.83c1.21,0,2.08.14,2.71.18Z"/><path class="cls-11" d="M45.25,110.35l.33-1.13a43,43,0,0,1-4.52-1.54l-.43,1.09A47.46,47.46,0,0,0,45.25,110.35Z"/><path class="cls-11" d="M52.61,107a3.2,3.2,0,0,0-1.74-.84,4.1,4.1,0,0,0-3.57.91.78.78,0,0,0-.28.4.67.67,0,0,0,.12.54.81.81,0,0,0,.49.37,1.81,1.81,0,0,0,.63,0,1.72,1.72,0,0,1,.57,0c.26.06.34.29.26.67,0,.16-.21.32-.52.49l-.76.32,1.55.91c1.16-.64,2.27-1.28,3.34-1.93a2.5,2.5,0,0,1,.43.67,1.32,1.32,0,0,1,.2.61l-.6,3.67A9.23,9.23,0,0,0,54,115l.74-7.29,2.37.11-1.07-1-.36-.05-.76,0a.72.72,0,0,1-.33-.66l-.06-.14-.67-.58a24.21,24.21,0,0,0-.22,3.23A4.06,4.06,0,0,0,52.61,107Zm-1.7.22a1.41,1.41,0,0,1,1,.54l-1.79,1a1.24,1.24,0,0,0-.24-.71,1.35,1.35,0,0,0-.64-.54A2.31,2.31,0,0,1,50.91,107.26Z"/><path class="cls-11" d="M54,115.6a3.76,3.76,0,0,0,0-1.31,5.14,5.14,0,0,0-.79-1.27,4,4,0,0,0-2-1.3c-.39-.14-1.24-.26-2.52-.62a4.51,4.51,0,0,1-1.07-.41c-.63-.45-.87-.91-.74-1.4a.68.68,0,0,1,.2-.3l-.55-.67a.18.18,0,0,0-.22.07,4.93,4.93,0,0,0-.41,1.12,1.91,1.91,0,0,0,.49,1.85,3.93,3.93,0,0,0,2,1.15,5.28,5.28,0,0,0,1.18.2l1.18.16a4.39,4.39,0,0,1,1.44.43,1.71,1.71,0,0,1,.73.75c.25.47.4.77.47.89A2.33,2.33,0,0,0,54,115.6Z"/><path class="cls-11" d="M65.72,107.51l-1.26-.8-.76.05c-.18,0-.3-.09-.37-.3a1.94,1.94,0,0,0-.18-.47,8.8,8.8,0,0,0-.85-.62c.1,1,.23,2.07.41,3.21-.94-1.14-1.58-1.7-2-1.67a1.11,1.11,0,0,0-.23,0A3.23,3.23,0,0,0,58.69,108a2.07,2.07,0,0,0-.77-.82,2.16,2.16,0,0,0-1.09-.37l-2.08-.11c.34.37.7.69,1.07,1.05l.8,0a1.42,1.42,0,0,1,1.26.68,2.26,2.26,0,0,0-1,.64,1.58,1.58,0,0,0-.52.9,1.11,1.11,0,0,0,.27.81,1.25,1.25,0,0,0,.93.43,1.71,1.71,0,0,0,1.46-.64,1.49,1.49,0,0,0,1.32.64c.89,0,1.32-.43,1.29-1.15,0-.44-.48-.9-1.32-1.37a.55.55,0,0,1,.27-.25,1,1,0,0,1,.43-.14,1.47,1.47,0,0,1,.94.54,1.73,1.73,0,0,1,.6.91l.18,4.47,1.44.93-.61-7.45A14,14,0,0,0,65.72,107.51Z"/><path class="cls-11" d="M63.89,106.69c-.22,0-.56,0-1,.12l1.24.91h.22a1.62,1.62,0,0,1,1.09.22,1.15,1.15,0,0,1,.53.82l.69,5.35,1.43.85-1.17-7.61,2.31-.35-1.33-.82-1.18.18a1.78,1.78,0,0,1-.56-.91l-.67-.36c.11.8.22,1.52.35,2.14A2.23,2.23,0,0,0,63.89,106.69Z"/><path class="cls-11" d="M77.32,104.48,75.87,104l-2.25.83c-.76.24-1.55.41-2.32.61L69,106l-2.37.36a9.35,9.35,0,0,0,1.42.78,1.57,1.57,0,0,0,.87.44,3.51,3.51,0,0,0,1-.13,1.32,1.32,0,0,1,1.08.14,1.88,1.88,0,0,1,.58.87c-.52,1.05-.9,1.6-1.08,1.65s-.3,0-.49-.25a1.68,1.68,0,0,1-.43-.68l-.78.86.77.77a1.6,1.6,0,0,0,1,.51,1.57,1.57,0,0,0,.83-.06l.36-.11a1.57,1.57,0,0,0,.65-.71s.17-.33.42-.85c.38-.81.71-1.25,1-1.33a1.33,1.33,0,0,1,.71.07c.3.07.47.16.51.28l1,3.16,1.6.62-2.47-7.12Zm-6.29,2c1-.28,2.06-.49,3.06-.82l.6,1.87A2.84,2.84,0,0,0,73,107a2.91,2.91,0,0,0-.79.65A1.69,1.69,0,0,0,71,106.49Z"/><path class="cls-11" d="M82.7,106.57a5.33,5.33,0,0,1,2,1.94l.11.21,1,.34-3.68-6.81,2-1.23-1.54-.22a46.71,46.71,0,0,1-8.13,3.66L76,105a39.82,39.82,0,0,0,5.15-2.23l1.39,2.74a3.66,3.66,0,0,0-3.49-.39,3.13,3.13,0,0,0-1.29,1,1.5,1.5,0,0,0-.18,1.41c.35.93,1.14,1.18,2.35.73a2,2,0,0,0,.81-.68.83.83,0,0,0,.06-.86,1.15,1.15,0,0,0-.82-.68A3,3,0,0,1,82.7,106.57Z"/><path class="cls-11" d="M91,95.59a3.14,3.14,0,0,0-1.74.82,3.83,3.83,0,0,0-1.59,3.32.78.78,0,0,0,.13.48.66.66,0,0,0,.49.24.83.83,0,0,0,.59-.14,2,2,0,0,0,.41-.49,1.86,1.86,0,0,1,.35-.45c.21-.16.44-.08.68.22a.93.93,0,0,1,0,.72c-.08.28-.16.54-.23.8l1.67-.63c.32-1.22.48-2.56.67-3.78a2.41,2.41,0,0,1,.79.09,1.23,1.23,0,0,1,.59.24l2.44,2.81A9.45,9.45,0,0,0,98,99.56l-5.14-5.23c.59-.52,1.07-1.15,1.62-1.72L93,92.77a3.07,3.07,0,0,0-.26.25,5.71,5.71,0,0,1-.54.55.74.74,0,0,1-.72-.18l-.15,0-.87.15a26.28,26.28,0,0,0,2.35,2.24A3.85,3.85,0,0,0,91,95.59Zm-.9,1.46a1.45,1.45,0,0,1,1-.4c-.11.67-.19,1.39-.35,2a1.47,1.47,0,0,0-1.55-.14A2.09,2.09,0,0,1,90.11,97.05Z"/><path class="cls-11" d="M98.49,100a3.68,3.68,0,0,0-1-.82,4.93,4.93,0,0,0-1.46-.2,4,4,0,0,0-2.29.76c-.35.22-1,.79-2.11,1.51a4,4,0,0,1-1,.57c-.74.21-1.25.11-1.55-.3a.91.91,0,0,1-.1-.35H88.1a.19.19,0,0,0-.08.22,4.72,4.72,0,0,0,.6,1,1.88,1.88,0,0,0,1.73.79,3.91,3.91,0,0,0,2.17-.86l.93-.74.87-.82a4.68,4.68,0,0,1,1.24-.84,1.74,1.74,0,0,1,1-.08l1,.2A2.44,2.44,0,0,0,98.49,100Z"/><path class="cls-11" d="M98.3,85.81l-1-.21a7.71,7.71,0,0,0-4.56,2.53,3.48,3.48,0,0,0-.68,3.37,1.3,1.3,0,0,0,.37.59,1.22,1.22,0,0,0,1,.16A16,16,0,0,1,92,93.76a14.89,14.89,0,0,0,1.52-.11l.76-.84L99,97.2l1.64-.36-5.54-4.92a19.81,19.81,0,0,0,1.53-1.77,12,12,0,0,1-1.5.27l-1,1.11-.54-.16a1,1,0,0,1-.15-.4,3.08,3.08,0,0,1,.62-2.71,5.38,5.38,0,0,1,2.63-1.82A15.39,15.39,0,0,0,98.3,85.81Z"/><path class="cls-11" d="M101.4,83.08l-1.46.51-.4.65a.35.35,0,0,1-.45.13,1.43,1.43,0,0,0-.48-.12,6.35,6.35,0,0,0-1,.33c.87.51,1.81,1,2.84,1.55-1.46.1-2.24.33-2.53.67a1.17,1.17,0,0,0-.12.2,2.78,2.78,0,0,0-.19,2,2,2,0,0,0-1.09.16,2.13,2.13,0,0,0-.91.7c-.44.53-.93,1-1.39,1.55l1.53-.21.54-.6A1.33,1.33,0,0,1,97.56,90a2.41,2.41,0,0,0,0,1.18,1.65,1.65,0,0,0,.43,1,1.09,1.09,0,0,0,.81.25,1.19,1.19,0,0,0,.87-.52,1.77,1.77,0,0,0,.3-1.59,1.72,1.72,0,0,0,1.32-.68c.55-.7.46-1.29-.14-1.69-.37-.24-1-.12-1.92.24a.49.49,0,0,1,0-.36,1,1,0,0,1,.16-.41,1.51,1.51,0,0,1,1-.45,1.69,1.69,0,0,1,1.07,0l3.73,2.47,1.57-.65-6.4-3.86Z"/><path class="cls-11" d="M102,83.06l0,.09a1,1,0,0,0,.54,1.16,1.15,1.15,0,0,0,.85.08,1.05,1.05,0,0,0,.7-.62,1.3,1.3,0,0,0,.11-.89,1,1,0,0,0-.44-.69.6.6,0,0,1,.05-.29,1,1,0,0,1,.54-.5.85.85,0,0,1,.7,0,.57.57,0,0,1,.18.12,1.72,1.72,0,0,0-.23,1.08,1,1,0,0,0,.5.8c.63.31,1.14.06,1.54-.77a1.39,1.39,0,0,0,0-1.46,3.3,3.3,0,0,1,1.49-.8,15.1,15.1,0,0,1,1.54-.16l1-.5-5.1-1.91a2.53,2.53,0,0,1,.14-.56c.35-1,.74-1.37,1.16-1.23a.2.2,0,0,1,.08,0,1.89,1.89,0,0,0-.6.93.74.74,0,0,0,.09.6.84.84,0,0,0,.38.42.8.8,0,0,0,.89-.3,2.57,2.57,0,0,0,.52-.9,1.19,1.19,0,0,0-.06-1.11,1.42,1.42,0,0,0-.78-.53,1.84,1.84,0,0,0-1.65.29A3.1,3.1,0,0,0,104.94,77l-.14.38-.75-.28a30.84,30.84,0,0,0,1.41-4.43l-1.24.88a45.57,45.57,0,0,1-4.91,11l1.41-.43.67-1.09a1,1,0,0,1,.31-.12,1,1,0,0,1,.38-.06A.78.78,0,0,1,102,83.06Zm5.42-3.34a4,4,0,0,0-1.21.69,2.83,2.83,0,0,0-1.86.12,3.59,3.59,0,0,0-1.65,1.16c-.14.18-.23.27-.27.28h-.55l.7-1.46a2.33,2.33,0,0,0,1.65-.23A2.75,2.75,0,0,0,105.58,79Zm-2.94-1.18-.06.21c-.26.78-.74,1-1.19.81a.64.64,0,0,1-.15-.08,9.75,9.75,0,0,0,.54-1.29Z"/><path class="cls-11" d="M105,70.69a2.79,2.79,0,0,0,.19,2.13,2.5,2.5,0,0,0,1.55,1.23,1.9,1.9,0,0,0,1.65-.29,2.82,2.82,0,0,0,1.09-1.68,2.49,2.49,0,0,0,0-1.18,1,1,0,0,0-.72-.75.89.89,0,0,0-.76.22,1.37,1.37,0,0,0-.51.77c-.16.64,0,1,.43,1.13l.25,0h.06c-.17.32-.55.4-1.13.25a1.07,1.07,0,0,1-.69-.62,1.41,1.41,0,0,1-.13-1,2.41,2.41,0,0,1,1-1.3,2,2,0,0,1,1.45-.34l3.92.7,1.28-1.27-7.35-1.11.36-2.39c-.37.35-.77.7-1.15,1l-.15,1a1.09,1.09,0,0,1-.55.42l-.24,0a8,8,0,0,0-1,.63l1.31.27a13.75,13.75,0,0,0,1.88.19A3.09,3.09,0,0,0,105,70.69Z"/><path class="cls-11" d="M112.33,59.8a2.69,2.69,0,0,1-1.39.36,3.75,3.75,0,0,1-2.52-.95,4.51,4.51,0,0,1-1.51-2.79l-.88,1.2a3.55,3.55,0,0,0,1.38,2.52,4.6,4.6,0,0,0,2.34,1.19c.27,0,.52.06.72.07a3.9,3.9,0,0,0,2.39-.75A3,3,0,0,0,114.11,58a2.11,2.11,0,0,0-.47-1.29,1.18,1.18,0,0,0-1-.47,1,1,0,0,0-.61.38,1.09,1.09,0,0,0-.29.77c.06,1,.4,1.5,1,1.48a.61.61,0,0,0,.44-.25A1.78,1.78,0,0,1,112.33,59.8Z"/><path class="cls-11" d="M108.6,49a2.15,2.15,0,0,0,.22.57,1.06,1.06,0,0,0,1,.4.85.85,0,0,0,.62-.55,1.7,1.7,0,0,0,.07-1,1.61,1.61,0,0,0-.79-1.09,1.39,1.39,0,0,0-1.09-.13,2.79,2.79,0,0,0-1.69,1.44,3.26,3.26,0,0,0-.48,2.42l-.24.05c-.32-1.54-.69-3.07-1.15-4.58l-.63,1.38a46.34,46.34,0,0,1,1.67,10.54l.93-1.23a49.05,49.05,0,0,0-.61-5l.31-.06a22.73,22.73,0,0,0,2.8,4.44l1.23-1.51A6,6,0,0,1,112.31,51l.76-.54.38-.81-5.78,1.16v-.07a2.59,2.59,0,0,1,.13-1.5,1.55,1.55,0,0,1,.84-1A1.94,1.94,0,0,0,108.6,49Zm2.32,2.45a6.89,6.89,0,0,0-1.42,2.77A25.44,25.44,0,0,1,108,52Z"/><path class="cls-11" d="M106.54,43.69l.27-.58a3.87,3.87,0,0,1,1-.52l.49-1.51-4.6,1.84-.17-.43L103.09,44a42.43,42.43,0,0,1,1.66,5.31l.67-1.36c-.38-1.34-.79-2.67-1.29-4l1.51-.56a2.53,2.53,0,0,0-.21,2,2.16,2.16,0,0,0,.8,1.1,1.3,1.3,0,0,0,1.17.23c.68-.19.9-.74.62-1.62a1.68,1.68,0,0,0-.52-.77.72.72,0,0,0-1.08.06A1.37,1.37,0,0,1,106.54,43.69Z"/><path class="cls-11" d="M100.6,36.48,100.32,38a46.29,46.29,0,0,1,3.53,8.11l.55-1.44-.26-.71,3.75-1.39c.21-.6.39-1.2.57-1.82a6.12,6.12,0,0,1-3.9-1.89,8.28,8.28,0,0,0,1.56-.55,11.35,11.35,0,0,0,2.48-1.82l-.12-1.14a15.51,15.51,0,0,1-1.41,1.1l-.29.18-.28.17a7,7,0,0,1-3.6.47c-.05.67-.08,1.32-.16,2a12.49,12.49,0,0,0,2,1.78l1.34.81-2.43,1A47.85,47.85,0,0,0,100.6,36.48Z"/><path class="cls-11" d="M109.61,34.49l-6,3.12,1.35.6,3.51-1.73v0a3.51,3.51,0,0,0,.22,2l.75,2a5.64,5.64,0,0,1,.46,1.84.88.88,0,0,1-.6,1,.73.73,0,0,1-.63,0l-.31.84a4.89,4.89,0,0,0,1.63,0c1.2-.39,1.52-1.63.77-3.66s-1.25-3.07-1.3-3.22a1.73,1.73,0,0,1-.18-.93,6.94,6.94,0,0,1,.24-.75A4,4,0,0,0,109.61,34.49Z"/><path class="cls-9" d="M44.17,39.12s1.74-5.6,5.72-.14"/><path class="cls-10" d="M37.56,38.44s2.62-4.77,6.61.68"/><path class="cls-11" d="M42.14,15.54c.78-.31,1.81-.66,2.76-.94L47,14a3.29,3.29,0,0,0,1.12-.6,2.29,2.29,0,0,0,.62-.87,1.7,1.7,0,0,0,.09-1,1.34,1.34,0,0,0-.67-.91,2.69,2.69,0,0,0-1.45-.31,2.2,2.2,0,0,0,.82-.81,1.33,1.33,0,0,0,.16-1,1.21,1.21,0,0,0-.47-.73,2.32,2.32,0,0,0-.89-.39,3.28,3.28,0,0,0-1.09,0,17.68,17.68,0,0,0-1.76.41c-1.34.41-2.55.77-4,1.36ZM43,9.17a17.06,17.06,0,0,1,1.67-.46,1.34,1.34,0,0,1,.79,0,.61.61,0,0,1,.38.43.67.67,0,0,1-.15.6,1.59,1.59,0,0,1-.7.44l-1.37.42L42.4,11l-.5-1.51Zm1.25,2.5a9.15,9.15,0,0,1,1.67-.37,1.18,1.18,0,0,1,.66.15.74.74,0,0,1,.33.46.68.68,0,0,1-.12.62,1.37,1.37,0,0,1-.59.44c-.16.07-.57.19-1.22.38l-1.64.51-.57-1.72Z"/><path class="cls-11" d="M52.57,12.89l-.39-2.57,1.23-.18c.85-.14,1.51-.19,2-.31a3.35,3.35,0,0,0,1-.41,2.72,2.72,0,0,0,.76-.75,1.68,1.68,0,0,0,.26-1.08,1.72,1.72,0,0,0-.66-1.32,2.75,2.75,0,0,0-1.49-.55,12,12,0,0,0-2.44.16c-1.08.16-2.17.29-3.24.51l1.25,6.8Q51.66,13,52.57,12.89Zm.1-5.81a7.89,7.89,0,0,1,1.44-.14,1.62,1.62,0,0,1,.83.23.8.8,0,0,1,.38.6.78.78,0,0,1-.17.56,1.38,1.38,0,0,1-.58.39A11.45,11.45,0,0,1,53.06,9L52,9.16l-.29-1.95Z"/><path class="cls-11" d="M63,5.42l-2.2,0a70.54,70.54,0,0,0-3.51,7l1.95-.07.72-1.6c1.24,0,2.48,0,3.72.08l.67,1.64,1.93.18A61.44,61.44,0,0,0,63,5.42ZM60.52,9.53,61.86,7,63.11,9.6Z"/><path class="cls-11" d="M70.07,13.21l1.16-5.62,2.88.71.31-1.13a51,51,0,0,0-8-1.49L66.3,6.85a26.44,26.44,0,0,1,2.93.4l-.93,5.67Z"/><path class="cls-11" d="M79,14.59a2.2,2.2,0,0,1-1.29-.2,2.4,2.4,0,0,1-1.34-1.07,2.45,2.45,0,0,1,0-2,2.1,2.1,0,0,1,1.24-1.47,2.74,2.74,0,0,1,1.92.09,3,3,0,0,1,1.14.86A1.5,1.5,0,0,1,81,11.9l1.94.53a2.41,2.41,0,0,0-.38-1.57A5.57,5.57,0,0,0,80,8.91a5.44,5.44,0,0,0-3.61-.28,2.93,2.93,0,0,0-2,2.17,3.36,3.36,0,0,0,.38,2.84,4.58,4.58,0,0,0,2.44,1.86A4.55,4.55,0,0,0,79.6,16a3.44,3.44,0,0,0,2-1l-1.48-1.12A2.08,2.08,0,0,1,79,14.59Z"/></g></g></svg>