<svg xmlns="http://www.w3.org/2000/svg" viewBox="0 0 183.33 104.46"><defs><style>.cls-1{font-size:17.33px;font-family:BaiJamjuree-Medium, Bai Jamjuree;font-weight:500;letter-spacing:0em;}.cls-2{fill:#fff;}.cls-3{fill:#2e3191;}.cls-4{fill:#c3161c;}.cls-5{fill:#e0c77f;}</style></defs><title>Asset 6</title><g id="Layer_2" data-name="Layer 2"><g id="Layer_1-2" data-name="Layer 1"><text class="cls-1" transform="translate(0 95.58)">University of Rajshahi </text><path class="cls-2" d="M128.64,37.94a37,37,0,1,1-37-37A37,37,0,0,1,128.64,37.94Z"/><path class="cls-3" d="M128.64,37.94h-1a36,36,0,1,1-10.55-25.47,36,36,0,0,1,10.55,25.47h1.92A37.94,37.94,0,1,0,91.67,75.87,37.93,37.93,0,0,0,129.6,37.94h-1"/><path class="cls-4" d="M91.67,17.16l.26.4a10.46,10.46,0,0,1,5.63-1.65,10.82,10.82,0,0,1,2.84.38,7.56,7.56,0,0,1,.81.25l.21.08,0,0h0l0,0h0a11.33,11.33,0,0,0,3.21.42,22.7,22.7,0,0,0,8.59-2l-.21-.43h-.48l-.45,47.62h.48l-.32-.36h0a8.45,8.45,0,0,1-5.43,1.74,11.92,11.92,0,0,1-3.2-.45A18.15,18.15,0,0,0,99,62.55a13.37,13.37,0,0,0-7.59,2.13l.3.38.29-.38a13.32,13.32,0,0,0-7.58-2.13,18.16,18.16,0,0,0-4.79.67,11.82,11.82,0,0,1-3.2.45,9.24,9.24,0,0,1-4.07-.89,7.9,7.9,0,0,1-1-.6L71,62,71,61.94h0l-.33.36h.48l-.45-47.62h-.48l-.2.43a22.62,22.62,0,0,0,8.58,2,11.33,11.33,0,0,0,3.21-.42h0l0,0h0a10.61,10.61,0,0,1,9.55.92l.26.16.26-.16-.26-.4.26-.41A11.32,11.32,0,0,0,85.78,15a11.44,11.44,0,0,0-4.33.82l.2.44-.14-.46a10.69,10.69,0,0,1-2.94.38,19.45,19.45,0,0,1-5.64-1,17.31,17.31,0,0,1-1.85-.66c-.22-.08-.39-.16-.51-.21l-.17-.08-.7-.33v.77l.45,47.62v.21l.15.14a9.24,9.24,0,0,0,6.08,2,13,13,0,0,0,3.46-.49,17,17,0,0,1,4.53-.63,13.73,13.73,0,0,1,5.2,1,10,10,0,0,1,1.35.66,3.46,3.46,0,0,1,.34.22l.09.05v0l.3.22.29-.22,0,0a12.48,12.48,0,0,1,7-1.91,16.94,16.94,0,0,1,4.52.63,13,13,0,0,0,3.46.49,9.24,9.24,0,0,0,6.08-2l.16-.14v-.21l.44-47.62v-.77l-.69.33-.18.08a21.66,21.66,0,0,1-8,1.83,10.69,10.69,0,0,1-2.94-.38l-.14.46.2-.44a11.56,11.56,0,0,0-10.47,1l.26.41.26-.41-.26.41"/><path class="cls-5" d="M91.67,19.69l.26.41a9,9,0,0,1,4.89-1.43,9.76,9.76,0,0,1,2.47.32c.3.08.54.16.7.22l.18.07,0,0h0l0,0a12.9,12.9,0,0,0,3.47.44,22.54,22.54,0,0,0,6.85-1.18l-.17-.45H110l-.39,41.74h.48l-.26-.41.06.09,0-.09h0l.06.09,0-.09a8,8,0,0,1-4,.87,13.49,13.49,0,0,1-3.6-.51,15.68,15.68,0,0,0-4.11-.57,11.45,11.45,0,0,0-6.76,2l.3.37.29-.37a11.43,11.43,0,0,0-6.75-2,15.69,15.69,0,0,0-4.12.57,13.48,13.48,0,0,1-3.59.51,9.59,9.59,0,0,1-3-.44,4.44,4.44,0,0,1-.74-.31l-.18-.09,0,0h0l-.05.09.05-.09h0l-.05.09.05-.09-.26.41h.48l-.39-41.74h-.48l-.17.45a22.62,22.62,0,0,0,6.85,1.18A12.85,12.85,0,0,0,83,19.33l0,0h0a9.24,9.24,0,0,1,8.29.8l.26.16.26-.16-.26-.41.26-.41a10,10,0,0,0-5.41-1.58,10.21,10.21,0,0,0-3.82.72l.21.44-.14-.46a11.8,11.8,0,0,1-3.2.41A20.67,20.67,0,0,1,75,18.25c-.6-.15-1.1-.29-1.45-.39l-.39-.13-.14-.05-.65-.23v.69l.39,41.74v.26l.22.14a8.86,8.86,0,0,0,4.48,1,14.69,14.69,0,0,0,3.85-.55,14.53,14.53,0,0,1,3.86-.54,11.82,11.82,0,0,1,4.58.89,9,9,0,0,1,1.19.61l.3.19.07.05h0l.3.24L92,62h0a10.78,10.78,0,0,1,6.15-1.74,14.63,14.63,0,0,1,3.86.54,14.58,14.58,0,0,0,3.85.55,8.79,8.79,0,0,0,4.47-1l.23-.14v-.26l.39-41.74v-.69l-.65.23-.13.05a22,22,0,0,1-6.39,1.08,11.8,11.8,0,0,1-3.2-.41l-.13.46.2-.44a10.12,10.12,0,0,0-3.81-.72,10,10,0,0,0-5.41,1.58l.26.41.26-.41-.26.41"/><path class="cls-3" d="M91.71,22.52a9.41,9.41,0,0,1,7.65-1.12,19.32,19.32,0,0,0,8.38.09L107.4,58s-1.41.31-6.29-.89a11.17,11.17,0,0,0-9.4,1.58s-3.24-3.09-9.12-1.46c-4.7,1.3-6.66.77-6.66.77l-.34-36.51a19.83,19.83,0,0,0,8.48-.09A9.39,9.39,0,0,1,91.71,22.52Z"/><path class="cls-2" d="M103.22,39.86c0,.48-5.44.52-5.51,1s5.05,2.31,4.89,2.78-5.32-1.26-5.56-.83,4,3.84,3.71,4.22-4.58-3-4.9-2.68,2.63,4.88,2.23,5.15-3.42-4.26-3.82-4.07,1.1,5.41.67,5.54-2-5.09-2.44-5-.42,5.49-.82,5.49-.52-5.44-1-5.52S88.38,51,87.91,50.79s1.26-5.32.83-5.56-3.84,4-4.22,3.71,3-4.57,2.68-4.89-4.88,2.63-5.15,2.22,4.26-3.42,4.07-3.82-5.41,1.1-5.54.68,5.08-2,5-2.45-5.5-.42-5.5-.82,5.44-.52,5.52-1-5-2.31-4.89-2.78,5.32,1.25,5.56.82-4-3.83-3.71-4.22,4.57,3,4.9,2.69-2.64-4.88-2.23-5.15,3.41,4.26,3.82,4.07S88,28.9,88.4,28.78s2,5.08,2.44,5,.43-5.49.83-5.49.51,5.44,1,5.51,2.31-5.05,2.78-4.89-1.26,5.32-.82,5.56,3.83-4,4.22-3.71-3,4.57-2.69,4.9,4.88-2.63,5.15-2.23S97,36.87,97.21,37.27s5.42-1.1,5.54-.67-5.08,2-5,2.44S103.22,39.46,103.22,39.86Z"/></g></g></svg>