<svg xmlns="http://www.w3.org/2000/svg" viewBox="0 0 136.22 132.71"><defs><style>.cls-1{fill:#231f20;}</style></defs><title>Asset 12</title><g id="Layer_2" data-name="Layer 2"><g id="Layer_1-2" data-name="Layer 1"><path class="cls-1" d="M42.33,131.19l-5.82-17.12-.37,1.06c.28-.17,28.31-17.27,65.5.22l-.49-1.08-4.84,16.47,1.17-.6c-.31-.11-31.15-10.49-56.38.51Zm55.72.06,4.85-16.47.22-.74-.71-.34c-19.9-9.36-37.1-8.9-48-6.87-11.86,2.21-18.91,6.58-19.21,6.77l-.61.38.23.68,5.82,17.11.32.94.9-.39c24.58-10.72,54.75-.57,55.05-.46l.9.31Z"/><path class="cls-1" d="M37.16,110.9l13.4-9.69-1.42-.91c-.55,2.74-1.66,7.44-2.29,8.39l.41-.33-10.81,4.35,1.24.8-.16-3.39Zm0,3.5L47.94,110l.26-.11.16-.23c1-1.52,2.31-7.8,2.56-9l.45-2.28-1.88,1.36-13.4,9.69-.4.29,0,.49.16,3.39.06,1.28Z"/><path class="cls-1" d="M34.58,96.61l.17,17.76v.14l0,.14,2.58,7.91.29-1-7.75,6.3,1.3.16-10.5-13.89-.29,1.35c.31-.17,7.44-4.18,13.8-17.7l-.5.47,2.1-.81Zm-2,.41c-6.07,12.92-12.95,16.83-13,16.87l-.91.51.63.84,10.49,13.88.57.75.73-.59,7.75-6.3.49-.39-.2-.59-2.58-7.92,0,.28L36.4,96.59V95.28l-1.22.47-2.1.81-.34.13Z"/><path class="cls-1" d="M26,107.61h0s-4.55-5-3.64-10.65c.58-3.6,3.25-6.75,7.94-9.36l-1.27-.41c.24.51,5.69,12.69-4.25,20.32ZM29.45,86c-5.2,2.9-8.18,6.49-8.85,10.67-1,6.5,3.89,11.94,4.11,12.16l.56.61.66-.5c11.1-8.53,4.85-22.39,4.79-22.53l-.41-.89Z"/><path class="cls-1" d="M28.31,93.12c-.17.38-3.95,9.31-3.85,16.95l1.82,0c-.1-7.26,3.66-16.12,3.7-16.21Z"/><path class="cls-1" d="M23.59,110.34h0c-.11,0-10.94-.65-15.72-7.22C5.49,99.85,5,95.6,6.33,90.48l-1.13.64c.15,0,15.7,4.88,17.44,20.23ZM4.58,90c-1.51,5.67-.9,10.44,1.82,14.18,5.31,7.27,16.62,7.93,17.1,8l1.07,0-.13-1.06C22.57,94.59,5.88,89.43,5.72,89.38l-.9-.27Z"/><path class="cls-1" d="M15,93.42h0A25.73,25.73,0,0,1,2,68.16L1,69A16.16,16.16,0,0,1,14.29,79.79c0,.07,2.52,7.29-.51,14.07Zm1-14.25a18.27,18.27,0,0,0-14.89-12L.22,67.1.14,68C-1.62,86.79,14,95,14.2,95l.85.43.39-.87C18.78,87.14,16.12,79.5,16,79.17Z"/><path class="cls-1" d="M10.78,96.57C11,97,15.8,106.63,23,112l1.08-1.46c-6.85-5.08-11.63-14.65-11.67-14.74Z"/><path class="cls-1" d="M4.76,77.92h0c3.83,4.52,9.75,11.62,10.35,12.67l1.58-.9c-.88-1.53-9.55-11.78-10.54-13Z"/><path class="cls-1" d="M7.55,69.37h0c-.25-.48-6-11.84,3.41-21.88l-1.16.13c.52.35,12.75,8.78,3.24,28l1.63.8c5.33-10.77,4-18.43,2-22.95a18,18,0,0,0-5.86-7.38l-.64-.43-.52.56c-10.34,11-3.76,23.85-3.7,24Z"/><rect class="cls-1" x="11.17" y="56.5" width="1.82" height="19.28" transform="matrix(0.98, -0.18, 0.18, 0.98, -11.98, 3.36)"/><path class="cls-1" d="M23.06,92.71h0s-4.86-3.15-4.93-8c-.05-4.1,3.14-8.34,9.47-12.62l-1.32-.35c.18.38,4.35,9.38-4.44,21.24Zm3.53-22.16C19.7,75.19,16.25,80,16.32,84.71c.08,5.88,5.54,9.39,5.77,9.54l.71.45.5-.68c9.48-12.78,4.81-22.7,4.61-23.12L27.45,70Z"/><path class="cls-1" d="M24.08,77.06c-.14.43-3.27,10.52-3.38,15.75l1.81,0c.11-5,3.27-15.15,3.3-15.25Z"/><path class="cls-1" d="M25.32,110.51h0c-.07-.15-7.57-15-8.41-31.29a55.3,55.3,0,0,1,5.83-23.88l0,0a37,37,0,0,1,14.36-13.2l-.81-1.63A38.22,38.22,0,0,0,21.14,54.49v0a55.76,55.76,0,0,0-6,24.77c.86,16.7,8.53,31.88,8.6,32Z"/><path class="cls-1" d="M18.27,67.48h0c.11-.32,2.68-8,13.1-9l-1-.73c.06.32,1.36,8.12-7.87,15.93l1.17,1.39c10.08-8.54,8.56-17.29,8.49-17.66L32,56.65l-.81.07c-11.67,1-14.56,9.84-14.68,10.22Z"/><path class="cls-1" d="M26.87,61.53A34.18,34.18,0,0,0,15.55,80.25l1.77.41A33,33,0,0,1,28,63Z"/><path class="cls-1" d="M16.74,53.72h0c-.19-.43-4.35-10.73,5.15-19.43l-1.32-.1c.05.06,5.14,6.48,6.16,14l1.8-.25c-1.09-8-6.32-14.59-6.54-14.87l-.61-.75-.71.65a19.7,19.7,0,0,0-5.61,21.48Z"/><rect class="cls-1" x="20.16" y="38.46" width="1.82" height="17.77" transform="translate(-1.14 0.52) rotate(-1.39)"/><path class="cls-1" d="M26.32,50.63h0c.05,0,5.62-3.82,10.08-2.36l-.6-1.1c0,.07-1.71,6.48-5.14,9.81l1.27,1.3c3.8-3.69,5.55-10.37,5.63-10.65l.21-.83L37,46.54C31.64,44.8,25.54,49,25.29,49.13Z"/><path class="cls-1" d="M31.61,49.62A24.36,24.36,0,0,0,22,60l1.66.74c2.74-6.09,8.8-9.44,8.86-9.48l-.09,0Z"/><path class="cls-1" d="M17.91,58.33h0c0-.07,3.57-7.41,15.12-10.37l-.45-1.76c-12.45,3.19-16.17,11-16.32,11.37Z"/><path class="cls-1" d="M26,39.64h0c0-.1,1.22-10,7.54-12.73l-1-.23a12,12,0,0,1,2.07,11.38l.59-.58c-.29.1-7.16,2.31-9,5.94l1.62.84c1.27-2.47,6.18-4.48,8-5.05l.44-.14.15-.43A13.88,13.88,0,0,0,33.8,25.48L33.36,25l-.6.26C25.47,28.44,24.2,39,24.15,39.44Z"/><path class="cls-1" d="M31.07,32.16a105.38,105.38,0,0,0-5.77,9.92l1.65.74a109.32,109.32,0,0,1,5.64-9.67Z"/><path class="cls-1" d="M36.55,32.54h0A10.27,10.27,0,0,1,42.75,29l-1.06-.85a15.58,15.58,0,0,1-2.82,9.3l.87-.34a9.45,9.45,0,0,0-5.07.61l.78,1.65a7.77,7.77,0,0,1,4-.47L40,39l.33-.43a17.08,17.08,0,0,0,3.2-10.51l0-1-1,.17a11.85,11.85,0,0,0-7.37,4.23Z"/><path class="cls-1" d="M39,37.74h0c0,.06-.65,6.67-4,8.67L36,48c4.12-2.47,4.82-9.76,4.85-10.07Z"/><path class="cls-1" d="M37.45,38.15h0a14.5,14.5,0,0,1,3.1-5.82L39.26,31a16.26,16.26,0,0,0-3.57,6.67Z"/><path class="cls-1" d="M102.26,108.8,88.34,99.86l-2-1.25.58,2.24c.32,1.23,2,7.42,3,8.89l.17.23.27.09,11,3.75,1.21.42V113l0-3.4v-.49Zm-.17,3.3-11-3.76.44.31c-.69-.91-2-5.55-2.75-8.25l-1.37,1,13.92,8.93-.42-.75,0,3.39Z"/><path class="cls-1" d="M101.24,96l.82,17.74,0-.28L100,121.51l-.16.6.5.37,8.09,5.86.76.55.52-.78,9.72-14.44.59-.88-1-.45c-.07,0-7.16-3.56-13.93-16.13l-.17-.32-.35-.11-2.14-.69-1.25-.4Zm2.25,1.08c7.09,13.14,14.44,16.75,14.75,16.9l-.37-1.33-9.71,14.45,1.28-.23L101.36,121l.34,1,2.15-8,0-.13v-.14l-.82-17.75-1.19.91,2.14.69Z"/><path class="cls-1" d="M113.6,107.58c.19-.24,4.82-5.93,3.42-12.36-.9-4.15-4.07-7.57-9.42-10.17l-.88-.43-.36.91c-.06.14-5.54,14.32,6,22.23l.69.46Zm-6.8-20.9c4.83,2.35,7.67,5.35,8.45,8.92,1.21,5.58-3,10.78-3.06,10.83l1.22-.17C103,99.17,108,86.33,108,86.2Z"/><path class="cls-1" d="M107.51,92.89h0c0,.09,4.28,8.74,4.58,16l1.81-.07c-.31-7.64-4.58-16.35-4.77-16.72Z"/><path class="cls-1" d="M115,110.82c.48,0,11.74-1.33,16.63-8.88,2.52-3.88,2.87-8.68,1-14.26l-.28-.89-.89.31c-.16.06-16.54,6.13-17.5,22.76l-.06,1.07Zm16-22.58c1.64,5,1.36,9.31-.84,12.7-4.42,6.83-15.19,8.06-15.3,8.07l-.19,0-.16.1,1.36.84c.89-15.45,16.14-21.1,16.3-21.16Z"/><path class="cls-1" d="M123.33,93.22c.15-.08,15.34-9.1,12.55-27.78l-.14-.89-.88.12a18.3,18.3,0,0,0-14.21,12.81c-.09.33-2.33,8.11,1.42,15.37l.43.85ZM122.39,78a16.4,16.4,0,0,1,12.7-11.53l-1-.77c2.61,17.48-11.52,25.87-11.66,26l1.26.37C120.28,85.42,122.37,78.07,122.39,78Z"/><path class="cls-1" d="M125.16,93.85h0c0,.1-4.3,9.92-10.85,15.37l1.16,1.39c6.89-5.73,11.18-15.63,11.36-16Z"/><path class="cls-1" d="M130.36,74.51c-.93,1.22-9,11.93-9.81,13.51l1.62.81c.54-1.08,6.06-8.5,9.63-13.22l-.07.08Z"/><path class="cls-1" d="M130.2,68c.06-.13,5.92-13.32-5-23.73l-.55-.53-.62.45a18.34,18.34,0,0,0-5.44,7.7c-1.78,4.63-2.66,12.34,3.25,22.81l1.58-.9C112.85,55.1,124.6,46,125.11,45.63l0,0-1.13-.1c10,9.51,4.83,21.17,4.61,21.67Z"/><rect class="cls-1" x="114.21" y="63.33" width="19.28" height="1.82" transform="translate(44.07 178.7) rotate(-82.54)"/><path class="cls-1" d="M115.41,92.86c.22-.16,5.47-4,5.23-9.84-.19-4.75-3.9-9.32-11-13.57l-.9-.54-.41,1c-.18.42-4.29,10.58,5.88,22.82l.54.65ZM108.68,71c6.56,3.92,10,8,10.15,12.07.2,4.89-4.43,8.27-4.48,8.3l-.06.05-.05,0,1.34.06c-9.43-11.35-5.76-20.57-5.6-21Z"/><path class="cls-1" d="M110.77,76.45h0c0,.1,3.76,10.08,4.13,15l1.82-.14c-.4-5.23-4.09-15.13-4.25-15.55Z"/><path class="cls-1" d="M114.73,110c.07-.15,6.89-15.73,6.83-32.44a55.76,55.76,0,0,0-7.37-24.41v0l0,0A38.25,38.25,0,0,0,98.28,40l-.71,1.67A37.1,37.1,0,0,1,112.64,54.1l0,0a54.94,54.94,0,0,1,7.13,23.53c.06,16.3-6.6,31.54-6.67,31.69Z"/><path class="cls-1" d="M119.44,65.29c-.14-.37-3.51-9-15.22-9.39l-.82,0-.1.81c0,.37-1.1,9.2,9.44,17.16l1.1-1.45c-9.65-7.29-8.78-15.14-8.74-15.47v-.12l-.93.91c10.5.33,13.54,8.13,13.57,8.21Z"/><path class="cls-1" d="M107.82,62h0A33,33,0,0,1,119.42,79l1.74-.5a34.18,34.18,0,0,0-12.33-18.07Z"/><path class="cls-1" d="M120.23,52.72a19.71,19.71,0,0,0-6.78-21.14L112.7,31l-.57.79c-.2.29-5.06,7.14-5.71,15.21l1.81.14c.61-7.55,5.33-14.23,5.38-14.29L112.3,33c10,8.16,6.37,18.67,6.22,19.12Z"/><rect class="cls-1" x="112.93" y="37.1" width="1.82" height="17.77" transform="translate(-1.37 3.54) rotate(-1.77)"/><path class="cls-1" d="M109.73,48c-.27-.16-6.58-4-11.8-1.94l-.8.31.26.81c.09.28,2.21,6.85,6.21,10.33l1.19-1.38c-3.61-3.14-5.65-9.44-5.67-9.5l-.53,1.12c4.38-1.7,10.13,1.77,10.19,1.8Z"/><path class="cls-1" d="M102.66,50.47h0c.06,0,6.3,3.05,9.37,9l1.61-.84a24.31,24.31,0,0,0-10.21-9.78Z"/><path class="cls-1" d="M119.21,55.93c-.17-.33-4.32-8-16.92-10.46l-.36,1.78c11.76,2.33,15.63,9.45,15.67,9.52Z"/><path class="cls-1" d="M110.33,38.25c-.08-.44-1.93-10.91-9.38-13.69l-.62-.23-.41.52a13.84,13.84,0,0,0-1.71,13.28l.17.43.44.11c1.82.47,6.84,2.21,8.24,4.6l1.57-.92c-2.07-3.53-9.06-5.36-9.35-5.44l.61.55A12,12,0,0,1,101.34,26l-1,.29c6.47,2.41,8.21,12.19,8.23,12.29Z"/><path class="cls-1" d="M101.55,32.44h0a106.33,106.33,0,0,1,6.16,9.35l1.62-.84A111.19,111.19,0,0,0,103,31.36Z"/><path class="cls-1" d="M99,30.9a11.89,11.89,0,0,0-7.6-3.82l-1-.12v1A17.17,17.17,0,0,0,94.15,38.3l.36.41.53-.12a7.64,7.64,0,0,1,4,.24l.69-1.68a9.46,9.46,0,0,0-5.1-.33l.9.29A15.55,15.55,0,0,1,92.19,28l-1,.9a10.11,10.11,0,0,1,6.38,3.17Z"/><path class="cls-1" d="M93.61,37.64c0,.3,1.15,7.54,5.39,9.78l.85-1.61c-2.85-1.5-4.18-6.6-4.45-8.44Z"/><path class="cls-1" d="M98.71,37.16a16.13,16.13,0,0,0-3.94-6.46l-1.21,1.35A14.67,14.67,0,0,1,97,37.7Z"/><path class="cls-1" d="M30.62,72.81c.26.17,6.69,4.35,35.07,4.35,1.06,0,25.88-.23,36.93-6.24l-1.34-.83c0,.16-.55,16.16-6.49,21.65l.31-.19A34.25,34.25,0,0,1,88.2,93c-.28,0-26.11,3.49-46.23-.47h0c-.11,0-2.85-.52-5-4.38l0,.07A93,93,0,0,1,32,71.87ZM35.34,89c2.61,4.7,6.17,5.28,6.32,5.3h0c20.42,4,46.54.53,46.8.5a35.94,35.94,0,0,0,7.29-1.5l.17-.06.14-.13c6.5-6,7-22.24,7.08-22.93l0-1.58-1.39.76c-10.65,5.8-35.81,6-36.07,6-16.72,0-28.85-1.46-34.14-4.11l-1.69-.84.39,1.84a93.71,93.71,0,0,0,5.07,16.65v0Z"/><path class="cls-1" d="M31.88,77.24a79.16,79.16,0,0,0,21,5.57,91.94,91.94,0,0,0,49.05-6.69l-.72-1.67C64.83,90.26,33,75.74,32.65,75.59Z"/><path class="cls-1" d="M34.86,86.15c.31.11,30.89,10.8,65.18,0l-.55-1.73c-33.69,10.6-63.71.12-64,0Z"/><path class="cls-1" d="M45.33,75.41h0c0-.19-.3-4.67,7.06-8.59.08,0,9.37-4.6,26-3.45l-.14,0c.37.08,9,2.12,8.44,11.11l1.82.12c.68-10.56-9.76-13-9.87-13l-.06,0h-.07C61.34,60.38,52,65,51.55,65.22c-8.53,4.55-8,10.14-8,10.37Z"/><path class="cls-1" d="M77.19,62.11h0a40.9,40.9,0,0,1-2.08,4.06A13.61,13.61,0,0,0,73.58,76l1.77-.41a11.81,11.81,0,0,1,1.28-8.45,42.24,42.24,0,0,0,2.22-4.33Z"/><path class="cls-1" d="M51.5,66.11h0c-.2,1.36-1,5.14-2.22,6.38l1.28,1.28c1.88-1.88,2.65-6.84,2.73-7.4Z"/><rect class="cls-1" x="57.35" y="64.94" width="1.82" height="3.57" transform="translate(-13.47 118.71) rotate(-84.81)"/><rect class="cls-1" x="55.52" y="68.56" width="4.41" height="1.82"/><rect class="cls-1" x="54.55" y="71.31" width="4.09" height="1.82" transform="translate(-1.89 1.52) rotate(-1.52)"/><rect class="cls-1" x="62.84" y="65.98" width="4.63" height="1.82"/><rect class="cls-1" x="63.16" y="68.13" width="3.66" height="1.82"/><rect class="cls-1" x="61.76" y="70.72" width="4.63" height="1.82"/><rect class="cls-1" x="60.9" y="73.52" width="3.88" height="1.82"/><rect class="cls-1" x="69.51" y="64.36" width="3.55" height="1.82"/><rect class="cls-1" x="69.19" y="68.24" width="3.44" height="1.82"/><rect class="cls-1" x="67.57" y="71.04" width="4.63" height="1.82"/><rect class="cls-1" x="66.93" y="73.3" width="4.41" height="1.82"/><rect class="cls-1" x="78.99" y="65.98" width="3.98" height="1.82"/><rect class="cls-1" x="79.2" y="68.46" width="5.06" height="1.82"/><rect class="cls-1" x="77.48" y="72.12" width="8.29" height="1.82"/><path class="cls-1" d="M91.35,74.43c.19-.48,4.48-12,3.67-31l0-.38-.28-.25c-.35-.32-8.72-7.66-28.22-7.66-.62,0-14.77.4-26.47,7.39l-.54.33.12.62c0,.08,1.58,8.65.79,23.36l1.81.1c.79-14.61-.72-23.64-.88-24L41,44.09C52.26,37.35,66.38,37,66.52,37c18.71,0,26.91,7.13,27,7.2l-.3-.64C94,62.13,89.7,73.66,89.66,73.78Z"/><path class="cls-1" d="M93.39,59.55a107.84,107.84,0,0,0-23-3.3c-16.37-.43-28,4-33.68,12.89l1.54,1c12.89-20.19,54.28-8.93,54.7-8.82Z"/><path class="cls-1" d="M93.71,61.17a108.72,108.72,0,0,0-23.56-3.33C53.52,57.49,42,62.26,36.8,71.62l1.59.88c11.79-21.26,54.4-9.7,54.83-9.58Z"/><rect class="cls-1" x="65.99" y="56.87" width="1.82" height="5.65" transform="translate(-1.68 1.93) rotate(-1.63)"/><path class="cls-1" d="M41.3,46.18l.07,0A51.81,51.81,0,0,1,58.2,39.63,48.24,48.24,0,0,1,93.8,46l1-1.55a50.07,50.07,0,0,0-36.91-6.62A54,54,0,0,0,40.4,44.6l-.06,0Z"/><path class="cls-1" d="M31.19,73.13s-2.8-2.26-.86-4.95c0,0,2.26-.65,2.36-4.63,0,0-1.18-6.78,3.56-6.46,0,0,6.13.43,2.26,7a5.06,5.06,0,0,1-1.73.54s-.64,3.23,1.08,3.23c0,0,3.34,4.3.32,6l-7-1.83Z"/><path class="cls-1" d="M66.5,31.1h-2l.85.57C65.24,31.53,60,17.93,67.64,2l-1.51.2c.08.1,8.46,10.27,3.79,29.34l.88-.7H67.6l-.08,0-1.18.21Zm1.18,1.6h3.84l.17-.69c4.9-20-3.81-30.52-4.18-30.95L66.61,0,66,1.25c-8,16.64-2.62,30.51-2.39,31.1l.23.57h2.74l.08,0,1.18-.21Z"/><rect class="cls-1" x="65.53" y="30.5" width="2.58" height="5.71"/><rect class="cls-1" x="66.02" y="1.65" width="1.82" height="29.5" transform="translate(-0.12 0.49) rotate(-0.42)"/><path class="cls-1" d="M72,11.17h0c0-.05,1.72-5.4,8.26-8.71L79,1.85s1.11,4.87-.19,8.77l1.72.57c1.47-4.39.29-9.53.24-9.75L80.47.31l-1,.53c-7.26,3.68-9.11,9.56-9.18,9.8Z"/><path class="cls-1" d="M72.93,17.81h0c.06-.08,6.45-8.27,17-8.58L89,8.12c0,.07-1.83,7.68-5.5,11.76l1.35,1.22c4-4.43,5.84-12.24,5.91-12.57L91,7.38l-1.18,0c-11.39.34-18.07,8.93-18.35,9.3Z"/><path class="cls-1" d="M72.43,28.31h0c.07-.1,6.63-9.54,27.6-7.89l-.62-1.5c-.13.15-13.31,15-28.84,11.77l-.37,1.78c16.59,3.4,30-11.71,30.58-12.35L102,18.76l-1.8-.15c-22.14-1.74-29,8.27-29.25,8.7Z"/><path class="cls-1" d="M72.58,30.55c.32,0,8-.54,23.62-8.61l-.84-1.61c-15.19,7.85-22.81,8.4-22.89,8.4Z"/><path class="cls-1" d="M72.62,27.39h0c0-.07,2.9-7,14.64-15.2l-1-1.49C74,19.26,71.05,26.42,70.93,26.72Z"/><path class="cls-1" d="M73.21,16.1h0S73.92,12,79,6L77.65,4.83c-5.49,6.47-6.21,10.82-6.24,11Z"/><path class="cls-1" d="M64.15,10.63c-.08-.25-2-6.09-9.36-9.64l-1-.5L53.5,1.62c0,.22-1.12,5.38.42,9.74l1.71-.6c-1.37-3.87-.36-8.71-.35-8.76L54,2.63c6.63,3.21,8.4,8.5,8.42,8.55Z"/><path class="cls-1" d="M63,16.71c-.28-.36-7.12-8.83-18.52-9l-1.17,0,.28,1.15c.09.33,2.08,8.1,6.15,12.45l1.32-1.24c-3.74-4-5.69-11.58-5.71-11.66l-.89,1.13c10.54.12,17,8.19,17.12,8.27Z"/><path class="cls-1" d="M63.8,27.3c-.29-.42-7.3-10.31-29.41-8.16l-1.79.18,1.21,1.34c.58.63,14.28,15.49,30.8,11.79l-.4-1.78c-15.47,3.48-28.92-11.09-29-11.23L34.57,21c20.93-2,27.67,7.29,27.73,7.38Z"/><path class="cls-1" d="M62.26,28.75h0c-.08,0-7.71-.4-23-8l-.81,1.63c16.09,8,23.74,8.17,23.81,8.17Z"/><path class="cls-1" d="M63.77,26.72c-.13-.3-3.18-7.41-15.58-15.74l-1,1.5c12,8,14.88,14.86,14.91,14.93Z"/><path class="cls-1" d="M63.08,15.83c0-.18-.83-4.51-6.43-10.88l-1.36,1.2c5.22,5.93,6,10,6,10Z"/><path class="cls-1" d="M42.81,97.73h0a32.44,32.44,0,0,1,6.44.61l.48-1.75a34.1,34.1,0,0,0-6.92-.68Z"/><rect class="cls-1" x="54.44" y="97.15" width="7.43" height="1.82" transform="translate(-1.41 0.85) rotate(-0.83)"/><rect class="cls-1" x="51.96" y="99.03" width="6.78" height="1.82"/><rect class="cls-1" x="56.76" y="99.45" width="1.82" height="5.82" transform="translate(-47.73 154.27) rotate(-86.82)"/><rect class="cls-1" x="53.57" y="103.77" width="9.07" height="1.82" transform="translate(-7.31 4.41) rotate(-4.09)"/><rect class="cls-1" x="68.66" y="95.42" width="1.82" height="5.71" transform="translate(-29.99 165.99) rotate(-88.93)"/><rect class="cls-1" x="65.52" y="100.7" width="6.16" height="1.82" transform="translate(-8.61 6.38) rotate(-5.01)"/><rect class="cls-1" x="69.19" y="103.23" width="4.95" height="1.82"/><rect class="cls-1" x="78.44" y="96.5" width="5.5" height="1.82" transform="translate(-5.58 4.94) rotate(-3.37)"/><path class="cls-1" d="M78.19,102.25c1.63.06,5.54.12,6.75-.85L83.8,100h0c-.45.35-3,.56-5.53.45Z"/><path class="cls-1" d="M88.55,98.26h0c3.65-.35,8.11-.45,9,0l.85-1.6c-1.72-.92-8.08-.39-10-.21Z"/><path class="cls-1" d="M80.05,105.56h0s3.71-.81,5.85-.32l.4-1.77c-2.53-.58-6.47.28-6.64.32Z"/><path class="cls-1" d="M53.54,116.1l-.39-.72-.78-2.62,1.54.19a1.09,1.09,0,0,0,.19.1.67.67,0,0,0,.41.45l.45,0,.6-.06c.76.22,1.52.45,2.27.69-.94.14-1.87.3-2.79.47q.72,3.87,1.45,7.73a16,16,0,0,1-2.26-.58c-.21-1.3-.42-2.61-.62-3.92a3.22,3.22,0,0,0-1.63-.94q-2.19,1.84-4.15,3.81-1.41.16-2.82.39c.41-.46.83-.91,1.26-1.36a.31.31,0,0,0,.07-.36c-.13-.39-.4-.51-.83-.37a5.79,5.79,0,0,0-.81.4,11.16,11.16,0,0,1-1.06.58,2.24,2.24,0,0,1-.94.12c-.39,0-.62-.14-.68-.31s.09-.68.58-1.33a7.64,7.64,0,0,1,1.32-1.34,10.31,10.31,0,0,1,3.31-1.59,8.75,8.75,0,0,1,3.68-.38A5.74,5.74,0,0,1,53.54,116.1Zm-5.88,2.37c.77-.72,1.55-1.43,2.36-2.13a4.52,4.52,0,0,0-2,.09A4.75,4.75,0,0,0,45.43,118a2.65,2.65,0,0,1,1.36,0A1.61,1.61,0,0,1,47.66,118.47Z"/><path class="cls-1" d="M59.5,124.47a.65.65,0,0,1-.39-.06,10.79,10.79,0,0,0-2.65-.92,4.94,4.94,0,0,1-.68-.22l-.22-.08c-.47.4-.81.68-1,.82a4.3,4.3,0,0,1-1.35.59,6.47,6.47,0,0,1-1.78.21c-.67,0-1.08-.18-1.23-.51a1.05,1.05,0,0,1,.36-1.27,4.2,4.2,0,0,1,1.9-1,5.54,5.54,0,0,1,2,0,1.72,1.72,0,0,0-.15-.51c-.1-.26-.17-.43-.19-.52a.91.91,0,0,1,.32-.17,1.48,1.48,0,0,1,1.14.27,1.33,1.33,0,0,1,.62.66c0,.09,0,.17,0,.25a1.72,1.72,0,0,0,.08.28,6.3,6.3,0,0,1,1.32.39,3.73,3.73,0,0,1,2.22,1.4.22.22,0,0,1,0,.16A.48.48,0,0,1,59.5,124.47Zm-6.84-1.33c-.61.18-.89.34-.85.5s.23.18.57.09a5.47,5.47,0,0,0,.85-.34c.36-.18.54-.28.52-.34A2.1,2.1,0,0,0,52.66,123.14Z"/><path class="cls-1" d="M70.38,110.79a13.6,13.6,0,0,0-5.46-.79,10.87,10.87,0,0,0-3.62.89,8,8,0,0,0-1,.71c-.43.35-.62.57-.59.66l.59.48,1.57-.16c.76.3,1.52.61,2.26.93-1,.06-2.08.14-3.11.25l.81,7.86c-.67-.28-1.36-.54-2-.8q-.45-3.41-.91-6.81l-2.08.31q-1.15-.36-2.34-.69c1.34-.26,2.69-.48,4-.66l-.85-.3c-.29-.11-.44-.25-.47-.43a.84.84,0,0,1,.28-.76,9.8,9.8,0,0,1,1.1-1,11.13,11.13,0,0,1,2.56-1.13,9.51,9.51,0,0,1,2.25-.39,16.69,16.69,0,0,1,9.85,2.24l.63,1C72.71,111.73,71.55,111.24,70.38,110.79Z"/><path class="cls-1" d="M76.79,113.82c-.3,2.65-.59,5.3-.89,8-.6-.41-1.21-.82-1.83-1.22.12-1.41.23-2.83.35-4.25,0-.19-.16-.39-.53-.6a2.48,2.48,0,0,0-1.11-.35.94.94,0,0,0-.72.19c-.16.14-.18.45,0,.94l-1.49.23c.19-.21.2-.39,0-.54a3.74,3.74,0,0,0-.79-.57,4.11,4.11,0,0,0-1.93-.36,3.85,3.85,0,0,0-1.52.28,1.35,1.35,0,0,0-.8.72.67.67,0,0,0-.08.29c0,.4.39.65,1.11.78a.72.72,0,0,1-.13-.37c0-.27.17-.51.56-.71a2.82,2.82,0,0,1,1.38-.32,2.07,2.07,0,0,1,1.84.77c.3.41.37.71.21.88a3.05,3.05,0,0,1-2.44.81,7.75,7.75,0,0,1-3.16-.52,1.76,1.76,0,0,1-.59-3.17,4.42,4.42,0,0,1,2.7-.88,6,6,0,0,1,3.06.64l.21.14a3.23,3.23,0,0,1,.92-.48,2.61,2.61,0,0,1,1.13-.19,4.06,4.06,0,0,1,1.6.42c.18.14.34.27.5.38l.23.16c0-.42.07-.84.1-1.25a72.89,72.89,0,0,0-11.82,0c-.77-.31-1.55-.6-2.35-.88a74.27,74.27,0,0,1,17.25.12c.71.45,1.4.91,2.08,1.38C78.8,114.07,77.8,113.94,76.79,113.82Z"/><path class="cls-1" d="M92.81,117.46c-.88,2.52-1.76,5-2.63,7.55-.51-.56-1-1.11-1.57-1.66q.73-2.28,1.49-4.57c.06-.18-.12-.57-.56-1.16a2.7,2.7,0,0,0-1.47-1.15c-.68-.14-1.12-.12-1.31,0a11.82,11.82,0,0,1,1.3,1c.39.4.53.76.44,1.07a.72.72,0,0,1-.37.52,2.78,2.78,0,0,1-2.07,0,4,4,0,0,1-2-1.14,3.9,3.9,0,0,1-2.5.23A2.2,2.2,0,0,1,79.74,117a.58.58,0,0,1,0-.33,1.12,1.12,0,0,1,.78-.83,10.27,10.27,0,0,1,1.64-.41,1.87,1.87,0,0,1,.35,0,4.67,4.67,0,0,0-.55-.55,4.36,4.36,0,0,0-1.43-.5c.59.11,0,0-1.69-.25-.66-.46-1.34-.91-2-1.35,1.32.14,2.65.32,4,.54a5.72,5.72,0,0,1,2,.69c.49.36.73.56.75.57a2.4,2.4,0,0,1,.55.58,5.35,5.35,0,0,1,3.16-.4,6.69,6.69,0,0,1,.78.13c.76.2,1.7,1.07,2.74,2.61l.24.35c.08-.58.14-1.17.21-1.76s.23-1.19.35-1.78c.57.48,1,.88,1.31,1.19,0,.2.06.42.09.64s.44.4,1.09.67c.58.58,1.13,1.18,1.68,1.78C94.74,118.16,93.78,117.8,92.81,117.46Z"/></g></g></svg>