<svg xmlns="http://www.w3.org/2000/svg" viewBox="0 0 200.44 98.96"><defs><style>.cls-1{fill:#1f5fab;}.cls-2{fill:#fff;}</style></defs><title>Asset 13</title><g id="Layer_2" data-name="Layer 2"><g id="Layer_1-2" data-name="Layer 1"><rect class="cls-1" x="101.58" width="47.95" height="47.95"/><path class="cls-2" d="M113.71,7.86V26.71c0,10,5,13.7,11.52,13.7,6.94,0,12.13-4,12.13-13.81V7.86h-4.21v19c0,7.05-3.11,10.16-7.81,10.16-4.26,0-7.48-3.06-7.48-10.16v-19Z"/><rect class="cls-1" x="152.48" width="47.95" height="47.95"/><path class="cls-2" d="M168.32,40V26.27c0-5.3,0-9.18-.27-13.22l.16-.05a102.06,102.06,0,0,0,6,10.7L184.32,40h4.21V8h-3.88V21.41c0,5,.11,8.85.49,13.11l-.21,0a93.73,93.73,0,0,0-5.68-10.43L169,7.92h-4.59v32h3.88Z"/><rect class="cls-1" x="152.48" y="50.9" width="47.95" height="47.95"/><path class="cls-2" d="M183.23,68.32c0-4.26-3-6.33-7.53-6.33a18.47,18.47,0,0,0-3.88.33V74.77a14.82,14.82,0,0,0,3.44.33c5,.05,8-2.46,8-6.78m4.15-.43a9.27,9.27,0,0,1-2.51,6.82c-2.18,2.3-5.73,3.5-9.78,3.5a15.79,15.79,0,0,1-3.33-.27V90.82h-4.15V59.2a42.79,42.79,0,0,1,7.92-.65c4.1,0,7.1.93,9,2.67A8.24,8.24,0,0,1,187.38,67.89Z"/><rect class="cls-1" x="101.53" y="50.96" width="47.95" height="47.95"/><path class="cls-2" d="M135.44,74.11c.06-7.64-4.26-12.34-13-12.34a20.86,20.86,0,0,0-4.86.44V87.55a31.82,31.82,0,0,0,4.2.16c8.85.06,13.65-4.91,13.65-13.6m4.37-.11c0,5.25-1.63,9.51-4.58,12.46S127.25,91,121,91a60.13,60.13,0,0,1-7.54-.38V59.15a60.69,60.69,0,0,1,8.85-.66c5.95,0,10.16,1.31,13,3.93S139.81,68.81,139.81,74Z"/><rect class="cls-1" width="98.96" height="98.96"/><path class="cls-2" d="M74.66,70.51c-2.24.6-4.7.82-6.88,1.58,3.71-3.22,3.55-8.14,6-12C74.6,59,75.26,58,76.13,56.91c-1.53,3.06-.87,7-2.62,9.94a13.55,13.55,0,0,1-2.67,3.22c.32,0,.65-.33.92-.49,2.84-2.84,6.56-3.61,9.62-5.9A9.41,9.41,0,0,0,84.27,60c-.55,4.7-5.24,9.07-9.61,10.49"/><path class="cls-2" d="M84.87,51.56c-1.36,2-3.06,3.82-4.31,5.79a11.2,11.2,0,0,0-.28-5,40.74,40.74,0,0,1-2.29-10L78,40.91c.82,3.6,4.37,6.11,4.16,10.15a10.44,10.44,0,0,1-.39,2.68l.06.06.16-.17a44.16,44.16,0,0,1,1.59-6c1.14-2.68,2.62-5.41,2-8.63,1.69,3.82,1.14,8.9-.77,12.51"/><path class="cls-2" d="M82.69,31a12.35,12.35,0,0,1,1.14,11.85,18.57,18.57,0,0,0-1.31,4.86c-.11-.27-.16-.71-.27-1-.93-3.55-4.31-6.07-5.68-9.45a18,18,0,0,1-1-3.44C77,36.54,80.67,38,81.65,41a18.85,18.85,0,0,1,.65,2.51.11.11,0,0,0,.11-.11A34.32,34.32,0,0,1,82.52,34a7.45,7.45,0,0,0-1.09-4.53A7.12,7.12,0,0,1,82.69,31"/><path class="cls-2" d="M81,30.37c.6,2.78-.27,5.46.28,8.24h0c-1.53-3-4.7-4.37-6.94-6.72a9.2,9.2,0,0,1-2.13-5c1.26,3.05,4.64,3.71,6.61,6.28a9.83,9.83,0,0,1,1.31,2.07l0-.05c-1.14-2.41-1.52-5.08-2.29-7.65a6,6,0,0,0-2.24-2.89A7.79,7.79,0,0,1,81,30.37"/><path class="cls-2" d="M74.17,24a12.29,12.29,0,0,1,3.38,6.28l.33.77a28.69,28.69,0,0,1-7.15-7.6l-2.19-2.23c1.91.81,4,1.31,5.63,2.78"/><path class="cls-2" d="M29.82,21.63a31.44,31.44,0,0,0-4.7,5.84,44.26,44.26,0,0,1-4.42,4c.76-1.64.82-3.6,1.91-5.08,1.64-2.78,4.59-3.76,7.21-4.8"/><path class="cls-2" d="M19.22,27.53a6.86,6.86,0,0,1,3.5-2.35c-2.62,1.8-2.46,5-3.28,7.7-.27,1-.71,1.91-.93,2.89l.06.06a9.28,9.28,0,0,1,2.13-3.17c1.86-1.69,4.59-2.79,5.52-5.3-.06,3.5-3,6.28-5.79,8.25a11.63,11.63,0,0,0-2.9,3.49c-.05-.87.11-1.8.06-2.73-.28-3.06-.55-6.55,1.63-8.84"/><path class="cls-2" d="M13.93,38.07a12.06,12.06,0,0,1,3.06-8c.05,0,.1-.05.16-.05-2,3.06-.33,6.88-.44,10.37L16.44,44s0,.11.11.11a10.1,10.1,0,0,0,.22-1.2C17.26,40,19.72,38,21.9,36A5.34,5.34,0,0,0,23,34.35a14.7,14.7,0,0,1-1.2,4.21c-1.69,3.27-4.8,6-5.41,9.77-.21-3.71-2.67-6.44-2.45-10.26"/><path class="cls-2" d="M12.45,42.49a13.24,13.24,0,0,1,.82-2.89c-.82,4.09,2,7.1,2.9,10.65a34.65,34.65,0,0,0,1,4c.06,0,.11,0,.11-.06-1.36-3.82.6-7.32,2.57-10.27a8.9,8.9,0,0,0,1-2.62,20.77,20.77,0,0,1-.49,5.46c-.49,2.3-1.2,4.43-1.8,6.61a10.71,10.71,0,0,0-.11,4.37l-.22-.16c-1.42-2.68-4.31-4.7-5.13-7.65a15.7,15.7,0,0,1-.66-7.48"/><path class="cls-2" d="M12.29,50.52c.33,4.37,5,6.66,7.21,10.27A12.32,12.32,0,0,0,21.14,63c-.11-.44-.55-.87-.71-1.31a9.56,9.56,0,0,1-.88-5.13c.22-2.24,1.15-4.32.77-6.67,1.91,4.15,1.31,9.29,2.4,13.77a25.32,25.32,0,0,0,1.2,2.78c-3.93-2.67-9.28-5.24-11-10.1a13.49,13.49,0,0,1-.6-5.79"/><path class="cls-2" d="M14.64,60.57c2.18,5,7.7,5.35,11.36,8.41a9,9,0,0,0,2.13,1.47l.05,0a13.9,13.9,0,0,1-2.4-2.62c-2.13-3-1.42-7.21-3-10.43a22.44,22.44,0,0,1,3.66,5.57c1.31,3.22,1.81,6.93,4.86,9.34-3.27-1.1-7.15-.77-10-2.79-3.17-2-6-5.3-6.61-8.9"/><path class="cls-2" d="M20.26,69.8c3.5,4,9.23,2.67,13.93,3.71a5.81,5.81,0,0,0,2,.27c-.54-.38-1.31-.32-1.91-.65C30.58,71.82,30,67.89,28,65.21a57.71,57.71,0,0,1,7,6.17A12.29,12.29,0,0,0,40.91,74c-.5.17-1.21.11-1.75.28C35.34,75.2,31,76.79,27,75.37a12.28,12.28,0,0,1-6.72-5.57"/><path class="cls-2" d="M67.94,79.14c-3.93,1.47-8.08-.06-11.2-2.41-1.25-.82-2.34-2-4-1.85a5.35,5.35,0,0,0-1.64.16,31.54,31.54,0,0,1,8.36,5.79A13.54,13.54,0,0,1,58,82.2a28.86,28.86,0,0,0-8.25-6.67,5.21,5.21,0,0,0-1.69.71,26.67,26.67,0,0,0-6.78,6.06L39.65,81A28.57,28.57,0,0,1,48.06,75c-3-.93-5,1.58-7.26,2.84a10.62,10.62,0,0,1-14.37-1.69,10.23,10.23,0,0,0,9.18.76c3.88-1.69,7.86-3.82,12.51-2.78.71,0,1.42.76,2.13.11a15,15,0,0,1,10.37,1.31l3.06,1.2a10.16,10.16,0,0,0,9-1,10.74,10.74,0,0,1-4.7,3.33"/><path class="cls-2" d="M72.2,75C67.78,76.73,63.3,74.66,59,74l-.82-.11h0a12.18,12.18,0,0,0,5.62-2.51A60.54,60.54,0,0,1,71,64.88c-2,2.51-2.19,6.12-5.41,7.76a24.6,24.6,0,0,1-2.67,1,34.73,34.73,0,0,0,3.44-.5c4.37-.71,9.34,0,12.39-3.71A12.17,12.17,0,0,1,72.2,75"/><path class="cls-2" d="M80.28,62.53C78.54,63.68,76.73,64.77,75,66v-.16c2.57-4.32,1.31-10.22,2.9-14.91l.6-1.59c-.33,3,.92,5.46.87,8.41a9.78,9.78,0,0,1-1.58,4.81H78c1.26-1.64,2.24-3.44,3.71-5,2.3-2.24,4.65-4.47,4.92-7.53.76,5.08-2.08,9.61-6.34,12.5"/><path class="cls-2" d="M74.55,46.53a25.47,25.47,0,0,1-6.61,16.11l-.11.22a24.49,24.49,0,0,0-3-2.89,7.76,7.76,0,0,0,1.53-1.7,21.27,21.27,0,0,0,4.21-11.68l-.11-.39.22.17h3.76l.22-.11ZM50.35,70.67l-.27.17a26.26,26.26,0,0,0,0-4.16,6.59,6.59,0,0,0,2.08,0l2-.38c1,.22,1.69,1.8,2.84.82.38-.44,1-.44,1.31-1,.65-.21.82-.87,1.25-1.31.44-1.25,1.86-1.42,2.68-2.29a7.89,7.89,0,0,0,1.8-1.75l.06.33,2.78,2.68A25.66,25.66,0,0,1,50.35,70.67Zm-.05-8.41c.49.22,1.31-.22,1.58.33-.16.33-.38.6-.27.93.22.49.49,1.14,1.09,1.2a1,1,0,0,0,.6.33,20.54,20.54,0,0,0-3.16.43,32.42,32.42,0,0,0,0-3.27l-.22-.28A1.21,1.21,0,0,1,50.3,62.26Zm-1-6.72a1.17,1.17,0,0,1-.77-.11c-.11,0,0-.16-.11-.21.39,0,.55-.44,1-.39.21-.22.27-.54.6-.71-.11-.32.32-.11.38-.32s.27-.22.44-.11c.27.38.82.21,1.09.65.11.06.16-.11.16-.16V54c.44,0,.66.55,1.09.17a.31.31,0,0,0,0-.38.12.12,0,0,1-.1-.11c.32-.17.49.43.87.27s.49-.55.93-.55l.11.11c0,.77-.6,1.26-1.2,1.64-.39.16-1.1.11-1,.71-.44.38-.82-.22-1.37,0-.27-.11,0-.5-.38-.55C50.41,55.43,49.75,54.94,49.32,55.54Zm-3.17,15a26.56,26.56,0,0,1-14-6.56l2.73-2.73.06-.16a20.8,20.8,0,0,0,13.43,5.79l.39-.11-.11.22v3.55l.22.33A21.76,21.76,0,0,0,46.15,70.51ZM27.58,58a27,27,0,0,1-3.22-11.58H28l.38-.11a3.45,3.45,0,0,0,0,.77V47c-.11.06,0,.11,0,.22a18.08,18.08,0,0,0,.66,4l.16.27a7.45,7.45,0,0,1-.6-.82,1.6,1.6,0,0,0-.88.33c.17.38-.21.27-.38.38a.59.59,0,0,0-.27-.27.74.74,0,0,0-.71.33c.05.22-.16.27-.27.43-.06.6-.28,1.37.16,1.86a1.41,1.41,0,0,0,.55,1.09.39.39,0,0,0,.27-.11c.38.28.55.93,1.09.77.17-.06.11-.22.17-.38.27.27.38.82.92.76.11.11.22.38.44.38.55-.16.38.66.76.88s.5.65.93.43l.17-.21c.16.1,0,.38.16.49a1.69,1.69,0,0,0,1.09.82A10.22,10.22,0,0,0,34,59.91L33.7,60l-2.62,2.73A27.63,27.63,0,0,1,27.58,58ZM24.52,42.6a26,26,0,0,1,6.77-14.42l.11.38c.88.88,1.81,1.81,2.68,2.62a10.31,10.31,0,0,0-1.75,2,21.2,21.2,0,0,0-3.93,11.3l.11.49a25.51,25.51,0,0,0-4.1,0A18.76,18.76,0,0,1,24.52,42.6Zm9.83-17.09a25.83,25.83,0,0,1,14.2-5l-.16.33,0,3.17.11.32A21.07,21.07,0,0,0,35.06,30l-.05.17a23.9,23.9,0,0,0-2.9-2.79H32C32.82,26.87,33.53,26.05,34.35,25.51Zm14.26,9.33a6.15,6.15,0,0,0-2,.22,12.83,12.83,0,0,0-4,2.08.54.54,0,0,1-.22.27c-.93-.82-1.8-1.91-2.78-2.62a15.38,15.38,0,0,1,8.79-3.71l.22-.11A14.75,14.75,0,0,0,48.61,34.84Zm-1,4.26c-.06-.16.16-.38-.06-.49-.6.28-.38.93-.76,1.37,0,.33-.49.16-.71.38a.52.52,0,0,0-.71-.11c-.33,0-.38-.65-.71-.33-.11.11,0,.33-.27.28-.06-.11-.17-.11-.22-.17,0-.22.33-.16.22-.38-.22-.44-.77-.38-1.1-.66h-.32a9.28,9.28,0,0,1,5.62-2.67,8.46,8.46,0,0,0,.22,2.89C48.44,38.78,48,39.27,47.57,39.1ZM43.91,49.81a2.4,2.4,0,0,0,.55-.88l.43.22c-.43.06-.65.49-1,.66Zm4.21,4c-.17.32-.06.76-.11,1.09a10.53,10.53,0,0,1-4.76-2.19,21.4,21.4,0,0,0,2.46-2.62c.06.44.6.6.93.82a3,3,0,0,0,2.35.49l-.16.17c.21.21-.17.43.1.65.06.17-.16.17-.16.27s-.05.66.33.77c.11.11,0,.33-.17.33S48.28,53.52,48.12,53.8ZM40,39.6a2.85,2.85,0,0,0-.88.92c-.32.22-.71.17-1,.55,0,.16.16.33,0,.44-.33.27-.93-.06-1.09.49s-.66.76-.6,1.31c-.33.22-.28.6-.22.93s-.06.6.22.76a3.35,3.35,0,0,0-1.64.06,12.27,12.27,0,0,0,.33-2,15.77,15.77,0,0,1,3.55-7.32c.93.88,1.91,2,2.89,2.73C40.8,38.5,40.8,39.6,40,39.6Zm-1.8,15.56-.11-.82c-.77-.65-.5-1.86-.66-2.67-.55-.44-.11-1.1-.49-1.59,0-.76-1.2-1-.82-1.86-.16-.21-.33-.49-.16-.76s.76,0,.92-.38l.11-.71c.28-.17.66.22.82-.17.28-.65-1-1.47.11-1.8.38,0,.82-.11,1,.33a3,3,0,0,1,0,1.53c.32.11,0,.44,0,.65-.22.11-.38.33-.66.22-.1-.16-.27-.49-.54-.43-.22.27,0,.54,0,.87,0,.16,0,.38-.11.55a.53.53,0,0,0-.32-.11c-.22.11-.06.38,0,.49s.38.38.71.38l.11-.16c-.06-.44.16-.77.16-1.15l.38.22a13,13,0,0,0,2,4.53l.49.49a42.12,42.12,0,0,0-3.38,3.44h0s-.06-.27-.22-.16C37.52,55.6,38.34,55.76,38.18,55.16Zm8.41,4.7.65.27a16.24,16.24,0,0,1-6.72-3c-.32-.22-.54-.66-1-.66a20,20,0,0,0,2.62-2.67c.33.65,1.09,1,1.64,1.42,1,.43,2,1.31,3.22,1.09A2,2,0,0,0,46,57c-.16.39-.11.88-.6,1C45.44,58.66,46.09,59.31,46.59,59.86ZM42.65,49.54a.22.22,0,0,0,.33.16c.17-.22-.33-.55,0-.66.22.22.11.66.22.93a.57.57,0,0,1,.11.49,6.27,6.27,0,0,0-1.09,1.31c-.22-.6-.77-1.09-1-1.69-.38-.71-.6-1.47-.92-2.13.32.38,1.14-.05,1.14.71.06.06.11,0,.22,0s.11-.11.27,0,.39.22.11.32A.86.86,0,0,0,42.65,49.54Zm5.9-19.88a6.31,6.31,0,0,0-2.07.16,15.87,15.87,0,0,0-7.92,4l-.11-.28a18.62,18.62,0,0,0-2.68-2.45c.82-.5,1.59-1.26,2.41-1.81A20.08,20.08,0,0,1,48.5,25.83,30.6,30.6,0,0,0,48.55,29.66ZM33.59,45l-.33-.11-3.6.06A20.72,20.72,0,0,1,33.42,34l1.42-1.8V32a27.13,27.13,0,0,0,2.79,2.78,15.79,15.79,0,0,0-4.21,9.89C33.48,44.78,33.48,45,33.59,45Zm-2.68,6.12c-.38.05-.27.44-.38.65A16.5,16.5,0,0,0,30,49l-.28-2.4-.16-.22c1.15.17,2.46.06,3.66.11l.27-.11a2.53,2.53,0,0,0,.28,1.91c-.17-.16-.39-.6-.71-.6-.66.06-.71.93-1.42.93a2.57,2.57,0,0,0-.77,1.75C31.18,50.57,30.75,50.85,30.91,51.12Zm4-4.53-.17-.33a1.46,1.46,0,0,0,1.26.11c-.65.22-.38,1-.65,1.47-.06.22.32.33.27.55-.33.16-.38.49-.49.76A10.56,10.56,0,0,0,34.9,46.59Zm13.82,19-.39-.27a21,21,0,0,1-12.78-5.46c.6-.06.82.71,1.48.54s1.25-.65,2-.54c.38,0,.82,0,1-.38s-.33-.61-.39-.93a15,15,0,0,0,8.52,3.16l.33-.1V65.1Zm.6-24.47.22.11c-.28,0-.61-.16-.82.06s-.06.33,0,.49c.49.16.6,1,1.2.66.27.05.6.1.71.38.38.16.43.82.93.65,0,.28-.11.71.21.88-.05.22-.38.32-.38.6a.33.33,0,0,0,0,.33c.49,0,.43.6.71.92a.82.82,0,0,0,.38,1,4.22,4.22,0,0,1-.44,1.2c-.49.27-1.36-.38-1.53.54-.27.33-.05,1-.6,1A4.34,4.34,0,0,1,47,49.21c.54-.28,1.47.11,1.64-.71a.36.36,0,0,0,.11-.49,3.88,3.88,0,0,0,.49-.88c-.22-.22-.11-.33-.06-.54-.54-.55-1.25-.28-2-.28-.44.22,0,.71-.28,1-.54.05-.54.6-.92.87a.74.74,0,0,1-.39-.6h.06a.16.16,0,0,0,.11.22c.49.05.32-.49.49-.77s.82-.76.22-1c-.06-.11.05-.33-.11-.38s-.49.05-.49.38a.55.55,0,0,1-.22.66h-.11a.27.27,0,0,0-.17-.33c-.32,0-.54.22-.87.16a5.35,5.35,0,0,1-1.31.17c-.05-.28.33-.17.44-.39-.06-.38.22-.65.38-.93.11-.1.33-.05.44,0s.21.22.38.17l.11-.22c.38.22.16,1.37.93.87a7.53,7.53,0,0,1,.21-1.53c-.16-.43.28-.6.39-.87.38.06.38-.44.54-.65a2.65,2.65,0,0,0,1.7-1c-.17-.33-.06-.82-.33-1.09C48.66,41,49.1,40.91,49.32,41.12Zm2.24-15.18A21.23,21.23,0,0,1,58,27.8c.32.44.87.71,1,1.26-.33.81,1.09.76.44,1.58-.06.27.16.38.27.6s-.06.55.22.71c.49.11.65-.55,1.14-.38a2.19,2.19,0,0,1,.77,1.85,1.21,1.21,0,0,0,.82.88c.76-.22.44.65.93.87.6.06.93.88,1.58.77a20.17,20.17,0,0,1,1.48,1.58.29.29,0,0,0,.16.27c.33.06.49-.16.76-.16a17.77,17.77,0,0,1,1.7,6.83l.11.27c-1.26,0-2.57,0-3.88.11a4.58,4.58,0,0,0-.38-2.13,2.37,2.37,0,0,0,.21-1.37c-.05-.22-.27,0-.32,0-.44.39-.49,1-.71,1.48A2,2,0,0,0,64,44.67l.16.17H62.7c.38-.22-.33-.66,0-1l.66-.11c.22-.49.76-.82.71-1.42A1.33,1.33,0,0,0,64.45,41c-.33-.71.54-1.47-.11-2.13a.37.37,0,0,0-.33-.49c-.22-.06-.44,0-.44-.27s.44-.39.33-.66-.38,0-.6,0c-.06-.33.54-.66,0-.93-.38-.06-.55.38-.93.22-.16-.11-.27-.39-.11-.55l-.76-1c-.06-.11-.33.05-.33-.11,0-.77-.88-1.2-.93-2-.27-.27-.05-.76-.44-1a.75.75,0,0,0-.76-.22,9.18,9.18,0,0,0-1.15-1.37c-.11,0-.22.06-.27.11.05.39.49.6.49,1a.2.2,0,0,0-.16.05,1.82,1.82,0,0,0,.6.93,16,16,0,0,0-7.1-2.84,4.63,4.63,0,0,0-1.53-.05C50,28.51,50,27.2,50,26l-.11-.28A6.06,6.06,0,0,0,51.56,25.94Zm1-5.3a24.61,24.61,0,0,1,14,6.61l-.44.17a9.5,9.5,0,0,0-2,2.29c0-.27-.43-.44-.54-.65a2.79,2.79,0,0,0-1.42-1.81c-.5-.11-.66-.87-1.26-.65-.55-.44-1.2-.11-1.69.11v.05A19.71,19.71,0,0,0,51,24.25c-.17,0-.22.11-.39.11.17-.11.06-.44.06-.6a.33.33,0,0,0-.44-.17.86.86,0,0,0-.11.33,20.2,20.2,0,0,0,0-3.66A12.14,12.14,0,0,0,52.59,20.64Zm2.46,34a13.18,13.18,0,0,1,3.28.76.84.84,0,0,0,.71-.21c-.06-.44.44-.66.38-1.1.22-.38.06-.87.38-1.2a1.61,1.61,0,0,0-.32-1.31c-.28-.16-.55.06-.82.11-.33.22-.22.93-.77.76a.47.47,0,0,1-.54.11c-.06-.05-.11-.05-.11-.16.38-.22,1.09,0,1.14-.71.28-.27.77-.16,1-.44a4.57,4.57,0,0,1,.55-.87c0-.11.05-.27.05-.38.06.16.06.43.33.54s.44-.16.55-.38.05-.27.16-.16c.33.27.76,0,1.15,0a3.35,3.35,0,0,1,1-.16A11.92,11.92,0,0,1,61.33,54c-.33.39-.6.82-1,1.26-.11-.33-.11-.71-.38-1l-.17.05c-.22.44-.65.77-.6,1.26-.33.49-1.09,0-1.58.33s-.88-.39-1.31-.5a10.52,10.52,0,0,1-1.53-.49C54.89,54.78,54.94,54.67,55.05,54.67Zm3.61-19.55a28.36,28.36,0,0,0-2.19,2.35l-.11-.28a11.22,11.22,0,0,0-5.9-2.4l-.32.05V31.29L50,31a28,28,0,0,1,4.26.87A16.16,16.16,0,0,1,59,34.63l.33.1Zm5.51,11.19c-.22.71-.22,1.53-.38,2.24,0,.11,0,.28-.11.38a2.86,2.86,0,0,0-.93-1.31c-.43-.21-.16-.82-.54-1.09l-.39-.38A5.42,5.42,0,0,0,64.17,46.31Zm-2.35-7c.44.11.71.6,1.15.71a8.76,8.76,0,0,1,.77,2c-.39.38-.39,1.25-1.15,1.15-.17-.44.33-.66.22-1.1.11-.11.32-.16.38-.38-.06-.38-.55-.33-.6-.71-.17-.22-.44-.22-.66-.27-.49-.22-1,1-1.09,0,.16-.11.27-.33.11-.49-.44-.22-.49-.82-.93-1.1A7.38,7.38,0,0,0,58.16,39c-.38-.1-.87-.38-1.2.06,0,.33-.22.6-.27.93a.93.93,0,0,1-.38-.38C57.45,38.28,58.82,37,60,35.72l.06-.17a17.16,17.16,0,0,1,1.74,2.35C62,38.45,61,39,61.82,39.32ZM54.4,51.94c0,.49-.71.44-1,.76-.17-.05-.06-.27,0-.38C53.69,52.16,53.9,51.88,54.4,51.94ZM53.25,41c-.22,0-.44.21-.66.1a1.73,1.73,0,0,0-.87-.6c-.27.06-.44.39-.71.22.49-.49,1.31-.6,1.69-1.31a2.37,2.37,0,0,0,.17-1c-.11-.16-.33-.32-.49-.16-.28.44-.88.55-1.15,1l-.93-.32c-.16-.88.05-2-.16-2.74a12.24,12.24,0,0,0,1.58.33,13.77,13.77,0,0,1,3.77,1.7,2.75,2.75,0,0,0-.77.65c0,.22.28.16.33.33l.27-.11C54.78,40.09,53.41,39.92,53.25,41ZM60.62,61.5c-.71-.66.44-1.15.66-1.75-.11-.6-.82-1-1.31-1.15-.28-.16-.17-.44-.17-.65a2.09,2.09,0,0,0,.6-.77l.11.27,1.64,1.7c0,.38.06.71.44.87.16.06.38-.05.54,0H63a15.64,15.64,0,0,1-2.35,2l-.17.27C60.35,61.93,60.84,61.77,60.62,61.5Zm3.12-3.83c-.33-.32-.33-.93-.93-.93-.22,0-.28.17-.28.33s.06.22-.05.28l-1.2-1a6,6,0,0,0,1.42-1.59,17.26,17.26,0,0,0,2.29-5,.45.45,0,0,0,.71-.55l-.38-.54a11.91,11.91,0,0,0,.16-2.35l.28.11c1.2,0,2.45.05,3.66-.06l-.17.22A19.6,19.6,0,0,1,64,59.09C64.12,58.6,63.68,58.16,63.74,57.67ZM74.49,43.42c.06.44,0,1,.22,1.36l-3.82.06a.86.86,0,0,1-.33.11l.11-.17a20.23,20.23,0,0,0-2-8.19c-.05-1.15-1.15-1.91-1.58-2.89-.82-.6-1.1-1.59-2.08-2.13-.16-.22-.27-.55-.54-.6l.43-.11A25.47,25.47,0,0,0,67.5,28,26,26,0,0,1,74.49,43.42Zm-1.25-9.34A26.45,26.45,0,0,0,49.48,19a27.37,27.37,0,0,0-12,2.84,27,27,0,0,0-13.6,16.49C21,49.59,24.9,61,34.52,67.56c6.93,5,18,5.9,25.77,2.13,6.94-2.9,12.84-10,14.64-17.1A26.08,26.08,0,0,0,73.24,34.08Z"/><path class="cls-2" d="M61.17,25.78a.46.46,0,0,0,.11.38c.54.22.6,1,1.31.82.22-.22-.11-.49-.06-.82a.91.91,0,0,0-.6-.49c-.32.33-.54-.16-.76.11"/><path class="cls-2" d="M50.63,23.54c.71.87,1.91.38,2.78.22a1.63,1.63,0,0,0,1.7-.44v-.11A2.54,2.54,0,0,0,53,22.45l-1.91.82c-.16-.06-.44-.17-.55.05s0,.16.06.22"/></g></g></svg>