<svg xmlns="http://www.w3.org/2000/svg" viewBox="0 0 175.12 136.81"><defs><style>.cls-1{fill:#fff;}.cls-2{fill:#c79b39;}.cls-3{fill:#268c44;}.cls-4{fill:#268b45;}</style></defs><title>Asset 16</title><g id="Layer_2" data-name="Layer 2"><g id="Layer_1-2" data-name="Layer 1"><ellipse class="cls-1" cx="87.56" cy="68.41" rx="87.56" ry="68.41"/><path class="cls-2" d="M90.58,45.74c-.3,0-.51.07-.73.07H86.66c-.71,0-.77-.08-.7-.77s-.1-.78-.66-.84-1.37-.11-2.06-.12l-10.77-.17L66,43.77l-6.32-.15c-.9,0-1.81-.07-2.72-.08s-1,.16-.84,1a55.84,55.84,0,0,0,1.65,7q1.2,4.48,2.26,9c1,4.08,1.89,8.18,2.86,12.26.55,2.35,1.18,4.67,1.74,7a28.34,28.34,0,0,1,.89,6.48A8.24,8.24,0,0,1,65.1,89a3.92,3.92,0,0,1-2.19,2.29,17.92,17.92,0,0,1-4.66,1.23,32.85,32.85,0,0,1-6.5.27,19.31,19.31,0,0,1-7.4-1.62,4.51,4.51,0,0,1-2.64-3.29,6,6,0,0,1,.16-2.7c1.27-4.78,2.49-9.58,3.82-14.34Q48,62.6,50.47,54.41c.83-2.73,1.85-5.4,2.74-8.1a10.56,10.56,0,0,0,.42-2.07c.07-.69-.06-.79-.75-.89l-.2,0-.13-.08V41.67c.56-.05,1.09-.12,1.61-.13l13.76-.39,9.57-.27,6.84-.22h.2a1.74,1.74,0,0,0,1.81-1.27c.37-1.05.76-2.08,1.15-3.12l.92-2.55a4.1,4.1,0,0,1,.28.54c.59,1.83,1.16,3.66,1.74,5.5,0,.06,0,.13,0,.19.33,1,.48,1.11,1.56,1.15,2.53.11,5,.25,7.57.37l3.19.15,3.92.18,6.24.28,8.29.4c.84,0,1.68.1,2.52.16.56,0,.7.17.73.72,0,.28,0,.57.06.83,0,.06-.06.11-.09.12-.82.29-.82.29-.79,1.16a15.63,15.63,0,0,0,.68,3.57q1.65,6,3.26,12L132,77.16c.58,2.13,1.19,4.25,1.72,6.4a11.77,11.77,0,0,1,.38,4.34A5,5,0,0,1,131.2,92a26,26,0,0,1-5.6,1.83,21.81,21.81,0,0,1-6.34.4,16.76,16.76,0,0,1-6.08-1.56,5.4,5.4,0,0,1-3.12-6.3c1-4.29,1.93-8.58,3-12.83,1.63-6.21,3.4-12.4,5.14-18.58a62.71,62.71,0,0,1,2.54-7.4,4.25,4.25,0,0,0,.25-2c0-.42-.16-.52-.53-.53l-10.24-.17L105,44.75l-8.38-.14-5-.12a2.34,2.34,0,0,0-.53,0c-.4.06-.53.21-.55.61C90.57,45.29,90.58,45.46,90.58,45.74Zm30.83,3-.17,0a8.63,8.63,0,0,0-.41.94c-.19.64-.35,1.28-.52,1.93-1.12,4.22-2.25,8.44-3.36,12.67-1.23,4.68-2.46,9.36-3.66,14a25.82,25.82,0,0,0-.64,3.38A1.45,1.45,0,0,0,114,83.43a14.53,14.53,0,0,0,3.89.28A3.31,3.31,0,0,0,121.28,81a10.13,10.13,0,0,0,.38-3q0-6.58,0-13.17v-14A8.3,8.3,0,0,0,121.41,48.71Zm-67.9,0a4.27,4.27,0,0,0-.35.67c-.14.42-.24.85-.35,1.28l-5,18.77c-1,3.77-2.1,7.52-2.86,11.36a1.17,1.17,0,0,0,.43,1.28,7,7,0,0,0,1.07.66,9.51,9.51,0,0,0,3.37.92,3.2,3.2,0,0,0,3-1.29,4.39,4.39,0,0,0,.78-1.88,20.26,20.26,0,0,0,.22-2.58c0-3.43,0-6.86,0-10.3q0-8.44,0-16.88A3.74,3.74,0,0,0,53.51,48.74Zm69.71,0a9.71,9.71,0,0,0-.23,2.43V68.85c0,3.22,0,6.43,0,9.64a12.77,12.77,0,0,0,.4,2.75,2.89,2.89,0,0,0,2.1,2.27,4.12,4.12,0,0,0,1.24.2c1.1,0,2.2-.13,3.29-.28a1.43,1.43,0,0,0,1.36-1.6,4.73,4.73,0,0,0-.08-1c-.25-1.27-.51-2.55-.82-3.81q-1.51-6.36-3.07-12.69-1.83-7.41-3.68-14.8A1,1,0,0,0,123.22,48.74Zm-67.57,0-.22,0a14.12,14.12,0,0,0-.15,1.57q0,14,0,28A12.94,12.94,0,0,0,55.59,81a3.08,3.08,0,0,0,2.47,2.64,11,11,0,0,0,4.59-.25,1.11,1.11,0,0,0,.9-.88A3.89,3.89,0,0,0,63.61,81c-.28-1.49-.6-3-1-4.46-.74-3.16-1.5-6.31-2.27-9.47-.62-2.53-1.26-5.06-1.9-7.58Q57.23,54.46,56,49.41A4.1,4.1,0,0,0,55.65,48.73Z"/><path class="cls-3" d="M85.78,134.54c-.72-.06-1.45-.15-2.17-.19-1.44-.08-2.88-.1-4.31-.22-1.75-.14-3.5-.33-5.24-.53-1.34-.16-2.68-.31-4-.56-2.6-.49-5.19-1-7.77-1.6a79.9,79.9,0,0,1-9.45-2.78c-2.3-.82-4.56-1.78-6.81-2.72-1.43-.6-2.84-1.24-4.21-2-1.77-.9-3.51-1.86-5.23-2.85q-2.21-1.26-4.34-2.66a57.82,57.82,0,0,1-5.75-4.23c-1.41-1.2-2.84-2.38-4.2-3.64-1.17-1.07-2.3-2.21-3.38-3.38S17,105,16.07,103.85s-1.91-2.33-2.77-3.55a48.16,48.16,0,0,1-4-6.46c-.9-1.79-1.78-3.6-2.58-5.44a39.32,39.32,0,0,1-2.06-6.06c-.41-1.6-.75-3.21-1.08-4.82-.15-.75-.21-1.52-.32-2.28-.06-.5-.15-1-.21-1.5a39.26,39.26,0,0,1-.3-6.5c.06-1.68.12-3.36.34-5,.29-2.08.67-4.16,1.13-6.22A44.73,44.73,0,0,1,7.1,47.42c.8-1.77,1.6-3.54,2.54-5.24a58.39,58.39,0,0,1,5.67-8.52l2.42-3c.18-.22.4-.41.6-.62.9-.95,1.78-1.91,2.7-2.83.73-.74,1.48-1.47,2.28-2.14C25,23.7,26.67,22.31,28.4,21c1.46-1.11,3-2.14,4.47-3.17,1.92-1.32,3.92-2.47,6-3.59A88.66,88.66,0,0,1,48.63,9.6,97.07,97.07,0,0,1,59,6.08,90.49,90.49,0,0,1,68.25,4c1.67-.28,3.34-.57,5-.82,1-.15,1.93-.22,2.89-.31,1.51-.15,3-.31,4.53-.42,1.13-.09,2.26-.13,3.39-.14,2.61,0,5.23,0,7.85,0,1.54,0,3.09.16,4.63.27.92.06,1.84.15,2.75.26,1.58.2,3.16.39,4.73.64,2.22.36,4.44.73,6.64,1.19,1.87.39,3.73.88,5.57,1.4,2.07.59,4.14,1.21,6.18,1.9,1.67.57,3.3,1.25,4.94,1.91,1.16.47,2.32,1,3.46,1.5A80.82,80.82,0,0,1,139,15.69c2,1.25,4,2.5,5.94,3.84,1.55,1.08,3,2.29,4.51,3.46.83.66,1.66,1.31,2.43,2,1.3,1.2,2.59,2.42,3.82,3.69,1,1.07,2,2.2,3,3.37,1.29,1.61,2.57,3.25,3.75,4.94,1.07,1.53,2.05,3.13,3,4.76a42.69,42.69,0,0,1,3.09,6.43c.6,1.64,1.25,3.25,1.78,4.91a42.26,42.26,0,0,1,1.48,6.29,32.52,32.52,0,0,1,.55,4.71,2.32,2.32,0,0,0,.13.58v7.18a3.67,3.67,0,0,0-.13.71,36.6,36.6,0,0,1-.64,5.11,54.9,54.9,0,0,1-4.35,13.53,47.5,47.5,0,0,1-3.39,6.13c-.95,1.44-1.91,2.87-2.93,4.24s-2,2.49-3,3.69c-.87,1-1.79,2-2.7,3-.17.2-.39.35-.57.55a51.58,51.58,0,0,1-5.62,5.14c-1.81,1.46-3.69,2.87-5.61,4.19a77.41,77.41,0,0,1-8.13,4.84q-2.76,1.44-5.6,2.71T124.1,128c-1.77.67-3.56,1.29-5.37,1.84-2.09.62-4.19,1.2-6.32,1.69-2.51.57-5,1-7.58,1.52-.76.14-1.53.24-2.29.34-1.2.16-2.4.32-3.61.45-1,.11-1.92.21-2.88.27-1.37.08-2.74.13-4.11.21-.59,0-1.18.13-1.77.19Zm1.72-2.64c2.51-.1,4.7-.18,6.89-.29.94,0,1.89-.17,2.84-.25s2.19-.15,3.28-.29c1.44-.18,2.87-.43,4.3-.65a79.19,79.19,0,0,0,8.66-1.8c2.68-.72,5.34-1.52,8-2.4a84.86,84.86,0,0,0,11.73-5,83.8,83.8,0,0,0,10.58-6.43,68.42,68.42,0,0,0,7.55-6.25,72.32,72.32,0,0,0,7.35-8.2,58,58,0,0,0,5.47-8.58,51.7,51.7,0,0,0,3.92-10,44.73,44.73,0,0,0,1.29-6.25q.18-1.35.3-2.7c.1-1.16.22-2.33.25-3.5a41.92,41.92,0,0,0-.39-7.08c-.23-1.56-.44-3.13-.79-4.67a51.32,51.32,0,0,0-2.86-8.85,62.14,62.14,0,0,0-4.46-8.47,58.44,58.44,0,0,0-5.82-7.72,68.57,68.57,0,0,0-5.09-5.14,70.48,70.48,0,0,0-6.77-5.45c-1.91-1.35-3.89-2.6-5.88-3.84a66.16,66.16,0,0,0-7.65-4.1q-3.47-1.58-7-3A81,81,0,0,0,114,8.15c-2.78-.72-5.58-1.3-8.4-1.8-.95-.16-1.91-.32-2.86-.45s-1.75-.18-2.62-.28c-1.1-.12-2.18-.28-3.28-.38S94.66,5.08,93.56,5c-2-.1-4-.25-6-.24-2.46,0-4.91.15-7.37.26-.84,0-1.67.14-2.51.23l-3,.35c-.85.1-1.71.16-2.55.29-1.61.26-3.22.51-4.81.87-2.72.61-5.44,1.26-8.13,2a81.21,81.21,0,0,0-11.35,4,85.39,85.39,0,0,0-10.43,5.34,83.71,83.71,0,0,0-9.75,6.85,73.37,73.37,0,0,0-5.83,5.32,65.93,65.93,0,0,0-4.9,5.67,59.23,59.23,0,0,0-5.31,8.23,54.54,54.54,0,0,0-3.9,9.18,36.54,36.54,0,0,0-1.49,6.13c-.24,1.72-.6,3.43-.71,5.16a30.36,30.36,0,0,0-.09,5.31c.12,1.07.09,2.17.22,3.24.19,1.55.47,3.08.72,4.63a41.59,41.59,0,0,0,1.75,6.75A53.33,53.33,0,0,0,13.56,96a66.07,66.07,0,0,0,5.79,7.74,68,68,0,0,0,5.56,5.7c.85.8,1.76,1.55,2.67,2.29,1.33,1.06,2.65,2.14,4,3.13a77.56,77.56,0,0,0,8.07,5.08c2.63,1.46,5.33,2.77,8.09,4a81.33,81.33,0,0,0,8.79,3.26c2.35.72,4.73,1.37,7.12,1.93s4.75,1,7.13,1.45c1.51.27,3,.39,4.57.57,1.18.13,2.36.31,3.55.38C81.89,131.65,84.85,131.77,87.5,131.9Z"/><path class="cls-3" d="M118.08,112c-.81.66-1.54,1.24-2.25,1.83L114,115.32a1.34,1.34,0,0,1-1.43.23c-.4-.16-.83-.28-1.24-.44a1.28,1.28,0,0,1-.87-1.28c0-1.26-.08-2.52-.12-3.78,0-.55-.18-.75-.72-.71a13.65,13.65,0,0,0-3.65.59,2.62,2.62,0,0,0-1.58,1.51,10.57,10.57,0,0,0-.7,4.94,1.89,1.89,0,0,0,.09.38c.2.86.4,1,1.24.72a2.38,2.38,0,0,1,1.54-.11,1.78,1.78,0,0,1,1.24,2,1.55,1.55,0,0,1-1.56,1.27,3.75,3.75,0,0,1-2.3-.45,3.31,3.31,0,0,1-1.68-2.49c-.07-.52-.09-1-.13-1.57l-.24-3.37c0-.33,0-.67,0-1,0-.51-.19-.65-.71-.66-1.24,0-1.42.16-1.42,1.41v8.38c0,.22,0,.44,0,.66s-.14.5-.48.49-.67,0-1,0-.63-.17-.64-.64c0-.89,0-1.78,0-2.66l0-6.45c0-1.17-.21-1.34-1.38-1.24-.48,0-1,0-1.46,0-.22,0-.44,0-.66,0a.62.62,0,0,0-.69.57,3,3,0,0,0-.06.73q0,4.29.08,8.58a6.07,6.07,0,0,1-.06.85c-.07.42-.2.55-.6.54a4.2,4.2,0,0,1-1.12-.15c-.31-.09-.29-.42-.29-.68,0-1.11,0-2.21,0-3.32a1.41,1.41,0,0,0-.79-1.47,3.17,3.17,0,0,0-.41-.21c-1.11-.46-1.49-.56-2.48.57a9.17,9.17,0,0,1-1,1,1.42,1.42,0,0,1-1.89.07A14.8,14.8,0,0,1,83.51,117a5.19,5.19,0,0,0-2.67-1.39,6,6,0,0,0-2.75.13,1.61,1.61,0,0,0-.49,2.64,3.2,3.2,0,0,0,2.08.89c.7.1,1.4.16,2.09.27.49.09.64.31.72.8a1.84,1.84,0,0,1-2,2.28A7.62,7.62,0,0,1,75,120.1a3.47,3.47,0,0,1-.76-3.11c.44-2.38,2-3.54,4.29-4a4.66,4.66,0,0,1,3.76,1c.67.47,1.33.95,2,1.4a.83.83,0,0,0,1.23-.15,6.65,6.65,0,0,1,1-.81,3.52,3.52,0,0,1,3.25-.19c.47.17.93.39,1.45.62a1.72,1.72,0,0,0,.12-.44c0-.89,0-1.77,0-2.66,0-.63-.16-.78-.79-.78-3.88,0-7.76,0-11.64,0a3.55,3.55,0,0,0-.46,0c-.49.07-.6,0-.68-.45A3.13,3.13,0,0,1,78,109c1.34,0,2.69.08,4,.08,2.53,0,5,0,7.58,0l.79,0c2.13-.09,4.25-.16,6.38-.27,1.57-.08,3.13-.19,4.7-.33,1-.09,2-.25,3-.38s2-.26,3.07-.42a64.92,64.92,0,0,0,7-1.49,32.52,32.52,0,0,0,5.1-1.81c1.06-.49,2.1-1,3.13-1.6a17.56,17.56,0,0,1,4.34-1.92,13.34,13.34,0,0,1,2.09-.31,1,1,0,0,0,1-.82,13.84,13.84,0,0,1,1-2.23,4.09,4.09,0,0,1,3.39-2.13,7.32,7.32,0,0,1,.93-.09,1.6,1.6,0,0,0,1.58-1,10.1,10.1,0,0,1,2.34-2.94,5.91,5.91,0,0,1,.93-.64c.49-.27.75-.19,1.06.26l.45.66c.24.39.17.63-.24.86a13.11,13.11,0,0,0-1.35.82.83.83,0,0,0-.22,1.33c.4.61.85,1.18,1.3,1.75,1.09,1.37,2.2,2.72,3.29,4.09.41.51.39.56-.09,1-.24.2-.51.36-.76.53a.46.46,0,0,1-.7-.11,6.8,6.8,0,0,1-.52-.68,12.39,12.39,0,0,0-1.87-2.4,5,5,0,0,0-4.68-1.38,8.21,8.21,0,0,0-1.81.61,2.24,2.24,0,0,0-1.24,2.66,2.2,2.2,0,0,0,1.57,1.94,2.86,2.86,0,0,0,1.87-.17c.46-.17.25-.55.28-.89.25,0,.48-.09.72-.1a.86.86,0,0,1,1,.67A2.19,2.19,0,0,1,137,105a5,5,0,0,1-2.42.18,7.39,7.39,0,0,0-.92-.1c-.41,0-.47,0-.56.48a8.21,8.21,0,0,1-.72,2.25,3.64,3.64,0,0,1-3,1.93,14.64,14.64,0,0,1-2.64-.12c-.61-.07-.8-.31-.81-.93a14.89,14.89,0,0,1,.12-1.52l1.51-.07a6.13,6.13,0,0,0,.85-.09,1.65,1.65,0,0,0,1.44-2,10.67,10.67,0,0,0-.32-1.49c-.24-.95-.25-.95-1.24-.94a5.21,5.21,0,0,0-3,1,28.93,28.93,0,0,1-7,3.56,25,25,0,0,1-4.79,1.24,3.81,3.81,0,0,0-.45.13c-.45.12-.56.26-.59.74,0,.26,0,.53,0,.8s-.08.83-.12,1.24c0,0,0,.09,0,.14,0,.33-.07.71.27.89s.58-.07.83-.26a34.65,34.65,0,0,1,6-3.6,6.31,6.31,0,0,1,2.78-.75,1.37,1.37,0,0,1,.45.07c1,.39,1.29,1.18.58,2.14a4.32,4.32,0,0,1-.54.5,5.86,5.86,0,0,0-1.51,2.07,1.59,1.59,0,0,0,.55,2.06,2.19,2.19,0,0,0,1.55.16c.63-.09,1.26-.2,1.89-.25s.65.09.62.66a2.13,2.13,0,0,1-1.58,2A5.84,5.84,0,0,1,121,117a3.27,3.27,0,0,1-2.23-2.09,18.68,18.68,0,0,1-.5-2C118.21,112.63,118.16,112.37,118.08,112Z"/><path class="cls-3" d="M135.31,27.44l-3.89-2.62a2.87,2.87,0,0,0-.36.39l-5,8.52c-.08.13-.17.26-.26.38a.36.36,0,0,1-.52.11l-.34-.22c-.83-.57-.88-.71-.39-1.55,1-1.71,2-3.4,3-5.09.52-.9,1.07-1.78,1.58-2.68.32-.55.28-.7-.29-1-1.32-.66-2.66-1.31-4-2l-3.68-1.69a5.58,5.58,0,0,0-.67-.28,1,1,0,0,0-1.26.44c-.67,1-.85.82.1,1.62a10.42,10.42,0,0,0,1.4,1,7.77,7.77,0,0,1,2,1.42,3.62,3.62,0,0,1,.93,2.3,2,2,0,0,1-.75,1.71,2.64,2.64,0,0,1-3.18.23,2.43,2.43,0,0,1-.55-.56,1.09,1.09,0,0,1,.7-1.81c.58-.1.74-.3.66-.79a2.65,2.65,0,0,0-1.43-2.17c-.7-.33-1-.23-1.28.5-.62,1.56-1.22,3.12-1.82,4.69-.38,1-.49,1-1.5.6a11.72,11.72,0,0,1-2.58-1.83c-1.83-1.43-3.64-2.89-5.46-4.33a2.52,2.52,0,0,1-1.17-1.84c0-.27,0-.54,0-.84l.6,0,6.72.1,3.79,0a1.11,1.11,0,0,0,1.2-.92.41.41,0,0,0-.26-.57,2.78,2.78,0,0,0-.38-.12c-2-.5-3.91-1.06-5.89-1.48-1.78-.38-3.6-.64-5.41-.9-.91-.14-1.84-.19-2.76-.27-.7-.06-1.41-.09-2.11-.14a.57.57,0,0,0-.63.36c-.51,1-1,1.92-1.54,2.87A6.81,6.81,0,0,0,97.93,22a3.64,3.64,0,0,0,.21,1.16,1.2,1.2,0,0,0,1,.86,12.66,12.66,0,0,0,1.38.15c.55,0,.66.14.67.68,0,.37,0,.75,0,1.13s-.17.47-.45.42a6.4,6.4,0,0,1-2.55-.8,4.25,4.25,0,0,1-2-3.45A5.83,5.83,0,0,1,97,18.57c.38-.6.78-1.18,1.15-1.78.18-.29.51-.59.3-1s-.59-.35-.95-.35h-.6a2.53,2.53,0,0,1-.07-1.41c0-.41.2-.54.62-.51.89,0,1.76.13,2.64.21.62.06,1.23.13,1.85.21,1.55.18,3.11.33,4.65.58,2.76.45,5.49,1,8.2,1.75a65.35,65.35,0,0,1,8.9,3c2,.83,3.93,1.82,5.85,2.81a39.33,39.33,0,0,1,6.28,4.09c.35.27.67.57,1,.85a3.88,3.88,0,0,0,1.82.76c.32.05.47-.08.43-.4a3,3,0,0,0-.26-.88,8.42,8.42,0,0,0-1.9-2.53,15.47,15.47,0,0,0-3.06-2.21,2.69,2.69,0,0,1-.29-.16,1.14,1.14,0,0,1-.52-1.62c.38.18.75.33,1.1.54a17.91,17.91,0,0,1,4.37,3.32A10.91,10.91,0,0,1,141,28.17a.59.59,0,0,1,0,.13c.25.93.3,1,1.31,1,.58,0,1.15,0,1.73,0h4.06a1.66,1.66,0,0,1,.08.37c0,1-.09,1.11-1.11,1.17-.62,0-1.23.14-1.84.21-.26,0-.53,0-.79.05s-.45.08-.8.14l1.23,1.29c.36.36.74.7,1.1,1.06s.4.54,0,.95-.49.46-.93.1l-2.9-2.33L138.05,29l-.38-.27c-.42-.28-.66-.28-1,.08-.86,1-1.7,1.93-2.53,2.91-.42.51-.82,1-1.21,1.58a4.69,4.69,0,0,0-.82,4,3.47,3.47,0,0,0,2.48,2.54,13.78,13.78,0,0,0,2.12.45c.7.1.89-.12.93-.85a7.39,7.39,0,0,1,.19-1.77,3,3,0,0,1,3-2,2.82,2.82,0,0,1,2.58,2.13,4.21,4.21,0,0,1-3,5,7.38,7.38,0,0,1-3.21-.15,10.45,10.45,0,0,1-5.94-3.5,4.92,4.92,0,0,1-1.23-3.73,4.12,4.12,0,0,1,.61-1.74,30.69,30.69,0,0,1,4.11-5.52c.11-.11.21-.23.31-.35S135.18,27.63,135.31,27.44Zm-26.6-4.85-.13.24a3.29,3.29,0,0,1,.44.28c.44.34.86.69,1.29,1,1.1.88,2.2,1.77,3.31,2.64a.74.74,0,0,0,1.24-.33,4.48,4.48,0,0,0,.21-.55c.27-.77.48-1.56.82-2.29.5-1.05.17-1.11-.79-1.1l-5.83,0A5.07,5.07,0,0,0,108.71,22.59Z"/><path class="cls-3" d="M67,27.52,65.08,22c-.29.27-.51.44-.69.64-1.34,1.51-2.65,3-4,4.54a2.57,2.57,0,0,1-1.54,1.08,1.51,1.51,0,0,1-.91-.14c0-.45,0-.87,0-1.29a.64.64,0,0,0-.32-.61,3.47,3.47,0,0,0-2.41-.55c-.54.09-1,.26-1.15.91a5.09,5.09,0,0,1-1.91-.12c-.26,0-.34-.23-.32-.49a4.87,4.87,0,0,1,.73-2.18A7.81,7.81,0,0,1,56,20.76a6.47,6.47,0,0,1,3.45-.37,29.21,29.21,0,0,0,4.28.38c.18,0,.35,0,.49,0,.24-.27.09-.49,0-.71s-.22-.58-.36-.85a.41.41,0,0,1,.2-.6,5.45,5.45,0,0,1,.77-.37l3.61-1.5c.16-.06.3-.15.49-.24a4.25,4.25,0,0,0-1.33-1.25,6.43,6.43,0,0,0-7.12.39,12,12,0,0,0-2.33,2.17,1.24,1.24,0,0,1-1.52.45c-.47-.16-1-.22-1.57-.36a13.69,13.69,0,0,1,.84-1.16A11.34,11.34,0,0,1,62,12.93a8.93,8.93,0,0,1,7.77,1.65c.28.21.55.44.82.67A1.56,1.56,0,0,0,72,15.6c1.72-.38,3.45-.73,5.18-1,1.45-.25,2.92-.41,4.38-.59,1.27-.15,2.54-.35,3.82-.41,2.21-.1,4.43-.12,6.64-.14.55,0,1.1.09,1.65.12a.53.53,0,0,1,.54.55c0,.38,0,.75,0,1.13a.61.61,0,0,1-.66.19c-.67-.12-1,.14-1,.83s0,1.15,0,1.72c0,2.29.07,4.57.09,6.85,0,.47-.08.54-.54.56s-.62,0-.93,0-.53-.14-.48-.48c.11-.72-.28-1.08-.85-1.4a8.35,8.35,0,0,1-1.2-1,6.84,6.84,0,0,0-4.42-1.7,9.75,9.75,0,0,0-2.69.31,2.49,2.49,0,0,0-1.87,2.94,1,1,0,0,0,.67.85,3.61,3.61,0,0,0,3.08,0c.47-.24,1-.43,1.5-.67l.85,1.74c-.09.11-.12.18-.17.21a10.33,10.33,0,0,1-5.18,1.38,2.25,2.25,0,0,1-1.94-1.08,5.22,5.22,0,0,1,.08-5.7A6.75,6.75,0,0,1,80,19.68a6.58,6.58,0,0,1,.73-.42c0-.12,0-.2-.07-.24-.68-.7-1.32-1.43-2-2.07a2,2,0,0,0-1.7-.37l-2.78.56-1.16.2c-.69.1-.81.24-.62.9.52,1.86,1.07,3.72,1.61,5.58.24.84.5,1.68.74,2.52a3,3,0,0,1,.08.6.47.47,0,0,1-.4.53c-.45.05-.83.52-1.31.22a.83.83,0,0,1-.25-.46q-1.27-4.08-2.56-8.18a2.5,2.5,0,0,0-.24-.61.67.67,0,0,0-.85-.33c-.78.25-1.56.5-2.32.79-.54.2-.65.46-.46,1,.78,2.41,1.58,4.81,2.37,7.22a3.39,3.39,0,0,1,.17.84.75.75,0,0,1-.67.91c-.6.13-1.21.18-1.82.28A3.76,3.76,0,0,0,64,30.62a14.07,14.07,0,0,1-1.89,2,4.53,4.53,0,0,1-3.78,1l-.13,0c-.83-.12-.83-.12-.82-1v-.27c0-.65.2-.81.85-.84A4.9,4.9,0,0,0,61,30.7,6.54,6.54,0,0,0,61.8,30a7.33,7.33,0,0,1,3.72-2.18C66,27.68,66.38,27.62,67,27.52ZM91.23,19h0c0-.68,0-1.37,0-2.06,0-1.28,0-1.33-1.33-1.31l-6.69.11H81.6a2.37,2.37,0,0,0-.46,0c-.37.07-.49.26-.35.61a4.69,4.69,0,0,0,.44.79,8.5,8.5,0,0,1,.7,1c.32.68.4.78,1.14.76a13.23,13.23,0,0,1,3,.28A5.64,5.64,0,0,1,89.31,21c.25.28.49.57.76.83s.59.45.89.26.25-.5.26-.76C91.25,20.57,91.23,19.77,91.23,19ZM55.12,23.84c.24.05.5.11.75.15A5,5,0,0,1,59,25.53c.37.43.45.43.85.07.81-.73,1.62-1.45,2.41-2.19a5.69,5.69,0,0,0,.55-.74,5.66,5.66,0,0,0-.75-.4,11.42,11.42,0,0,0-4.39-.39A3.31,3.31,0,0,0,55.37,23,.76.76,0,0,0,55.12,23.84Z"/><path class="cls-3" d="M50.22,115.3l-1.58-1.37a49.66,49.66,0,0,0-6.83-5.15,9.85,9.85,0,0,0-3.55-1.57c-.37-.06-.4-.28-.4-.57,0-.93,0-1.86,0-2.79v-2.33a6.44,6.44,0,0,1,.76.1l11.18,3.22c.52.15.61.13.77-.2.29-.61.26-1-.11-1.24a3.88,3.88,0,0,0-.52-.3l-8.62-4.41c-.8-.41-.84-.48-.49-1.33.46-1.13.46-1,1.42-.54s2.17,1.18,3.26,1.77l10.61,5.75,2.69,1.45c.65.34.73.51.48,1.21-.46,1.24-.94,2.47-1.39,3.71q-1,2.67-1.93,5.35c-.41,1.15-.44,1.17-1.53.63-.85-.42-.93-.6-.62-1.51q1.22-3.53,2.45-7.05c0-.1.08-.2.12-.3.28-.86.18-1.06-.66-1.41l-2.05-.92c-.69-.32-.84-.27-1,.45-.46,1.85-.91,3.71-1.38,5.56-.28,1.13-.58,2.26-.88,3.39A2.73,2.73,0,0,1,50.22,115.3Zm-1.4-3.88c.11-.61.19-1.1.28-1.59l.63-3.23a.39.39,0,0,0-.36-.52l-1.61-.27c-1.39-.24-2.78-.5-4.18-.69-.5-.06-1-.34-1.53-.08a1.51,1.51,0,0,0,.79,1.92c.57.34,1.14.67,1.7,1a20.64,20.64,0,0,1,3.86,3.11A3.85,3.85,0,0,0,48.82,111.42Z"/><path class="cls-3" d="M39.73,36.21l-.78.3c-.87.37-1.73.79-2.62,1.09a1.64,1.64,0,0,1-2.22-1c-.23-.47-.34-1-.89-1.29a8.33,8.33,0,0,0-2,1.29c-.22.15-.43.31-.66.44a.89.89,0,0,1-1.35-.19,5.62,5.62,0,0,1-.48-.64c.41-.34.76-.64,1.13-.91,2.09-1.53,4.17-3.06,6.27-4.57a94.37,94.37,0,0,1,8.59-5.53c.87-.48,1.74-1,2.62-1.42.55-.3.68-.26,1,.32.21.41.37.84.59,1.32l-1.49.82c-.15.09-.32.16-.47.24-.37.22-.41.32-.24.69a3.3,3.3,0,0,0,.23.41l3.78,6.16a1.52,1.52,0,0,0,1.6.79c.79-.07,1.59,0,2.4,0a2.46,2.46,0,0,1,0,1.92c-.07.32-.43.34-.72.38s-.83.1-1.25.14a.65.65,0,0,0-.69.58,1.77,1.77,0,0,1-1.76,1.52A7.57,7.57,0,0,1,48.77,39c-1.27-.12-2.17-1.91-1.67-3.22a1.88,1.88,0,0,1,1.17-1.1c.24-.1.5-.17.81-.27a2.68,2.68,0,0,0-.24-.48c-.52-.71-1.05-1.43-1.59-2.13-.32-.42-.43-.43-.87-.13-.65.45-1.31.91-2,1.35a4,4,0,0,0-1.89,3.51,10.72,10.72,0,0,1-1.1,4.79,3.34,3.34,0,0,1-3.14,2.06c-1,0-1.89.1-2.84.12-.61,0-.81-.16-.83-.77,0-1-.16-1.17,1-1.16A13.72,13.72,0,0,0,38,41.4a1.94,1.94,0,0,0,1.78-2.11C39.74,38.32,39.73,37.35,39.73,36.21Zm-2.62-.77c.2,0,.48-.1.76-.14A4.4,4.4,0,0,0,40,34.47l4.2-3.14a9.93,9.93,0,0,0,.86-.72.7.7,0,0,0,.21-.89c-.18-.35-.32-.73-.51-1.07-.4-.69-.68-.77-1.35-.38-1.51.88-3,1.75-4.5,2.66-1,.59-1.88,1.24-2.82,1.87a1.3,1.3,0,0,0-.63,1C35.36,34.64,35.87,35.41,37.11,35.44Zm11.86,2a1.88,1.88,0,0,0,1.74-.74c.32-.41.18-.8-.31-1a1.89,1.89,0,0,0-2.15,1,.58.58,0,0,0,.46.78A1,1,0,0,0,49,37.42Z"/><path class="cls-3" d="M67.67,113.27a5.75,5.75,0,0,1-4.53-1.93,2.84,2.84,0,0,1-.4-3.24,3.37,3.37,0,0,1,1.19-1.21A5.74,5.74,0,0,1,71,108.15c1.18,1.53.92,3.06-.7,4.29A4.68,4.68,0,0,1,67.67,113.27Zm-.48-1.76a5.84,5.84,0,0,0,.73-.05A1.6,1.6,0,0,0,69,108.84a2.91,2.91,0,0,0-3.67-.51,1.47,1.47,0,0,0-.39,2.08A2.59,2.59,0,0,0,67.19,111.51Z"/><path class="cls-3" d="M69.89,120.06a2.45,2.45,0,0,1-.28-.16,8.63,8.63,0,0,0-5-2l-1.51-.13a2.52,2.52,0,0,1-2.26-2.37,1.75,1.75,0,0,1,2-1.6,7.16,7.16,0,0,1,3.33,1.67c1,.8,1.94,1.68,2.92,2.51A2,2,0,0,1,69.89,120.06Z"/><polygon class="cls-4" points="22.03 52.98 23.97 56.7 28.14 57.21 25.2 60.21 26.01 64.33 22.25 62.46 18.58 64.5 19.19 60.35 16.12 57.49 20.26 56.79 22.03 52.98"/><polygon class="cls-4" points="22.03 72.11 23.97 75.83 28.14 76.34 25.2 79.34 26.01 83.46 22.25 81.59 18.58 83.63 19.19 79.48 16.12 76.62 20.26 75.92 22.03 72.11"/><polygon class="cls-4" points="154.13 52.98 156.07 56.7 160.24 57.21 157.3 60.21 158.11 64.33 154.35 62.46 150.68 64.5 151.29 60.35 148.22 57.49 152.36 56.79 154.13 52.98"/><polygon class="cls-4" points="154.13 72.11 156.07 75.83 160.24 76.34 157.3 79.34 158.11 83.46 154.35 81.59 150.68 83.63 151.29 79.48 148.22 76.62 152.36 75.92 154.13 72.11"/></g></g></svg>