<svg xmlns="http://www.w3.org/2000/svg" xmlns:xlink="http://www.w3.org/1999/xlink" viewBox="0 0 273.51 109.25"><defs><style>.cls-1{font-size:17.33px;font-family:BaiJamjuree-Medium, Bai Jamjuree;font-weight:500;letter-spacing:0em;}.cls-2{letter-spacing:0em;}.cls-3,.cls-4{fill-rule:evenodd;}.cls-3{fill:url(#radial-gradient);}.cls-4{fill:#e4f1e1;}.cls-5,.cls-6,.cls-7{fill:none;stroke:#fff;stroke-linecap:round;stroke-linejoin:round;}.cls-5{stroke-width:0.28px;}.cls-6{stroke-width:0.24px;}.cls-7{stroke-width:0.12px;}.cls-8{fill:#067a3e;}</style><radialGradient id="radial-gradient" cx="-383.58" cy="521.73" r="12.05" gradientTransform="matrix(-1.07, 1.86, 1.58, 0.91, -1139.69, 256.07)" gradientUnits="userSpaceOnUse"><stop offset="0" stop-color="#a0cd5a"/><stop offset="1" stop-color="#0b5137"/></radialGradient></defs><title>Asset 2</title><g id="Layer_2" data-name="Layer 2"><g id="Layer_1-2" data-name="Layer 1"><text class="cls-1" transform="translate(0 79.57)">Bangladesh Telecommunications <tspan class="cls-2"><tspan x="33.87" y="20.8">Company Limited (BTCL) </tspan></tspan></text><g id="layer1"><g id="g1569"><g id="g3742"><g id="g3532"><g id="g7991"><path id="path297" class="cls-3" d="M117.59,30.88A21.26,21.26,0,1,1,96.34,9.63a21.25,21.25,0,0,1,21.25,21.25Z"/><path id="circle3888" class="cls-4" d="M95.16,22.59a3.42,3.42,0,1,1-6.83,0h0a3.45,3.45,0,0,1,3.42-3.48h0a3.45,3.45,0,0,1,3.41,3.48Z"/><path id="circle3894" class="cls-4" d="M93.08,23a1.09,1.09,0,1,1-2.17,0h0A1.09,1.09,0,0,1,92,21.87h0A1.09,1.09,0,0,1,93.08,23Z"/></g><path id="path8056" class="cls-5" d="M81.63,45.3l-.86-.74a11,11,0,0,0-1.42-2.62v-3.7l-.82-2.18,0-1.53.68-.76.06-.63,1-.94.11-1,.77-.94v-.76L81.5,29l.06-.94,2.55-2.43-.42-.77c-.38.11-.87.45-1.09.2l-1.42-1.83V20.93l-1.35,1A3.26,3.26,0,0,1,79,22l-.5-.51h-.79"/><path id="path8192" class="cls-5" d="M80.52,40.33l.41-.48a10.63,10.63,0,0,1,.14-1.56h.38a1,1,0,0,1,.33.48v1.35l.45.75-.17,2.38a7,7,0,0,1-.89-.6A6.46,6.46,0,0,0,80.52,40.33Z"/><path id="path8194" class="cls-5" d="M107.35,48.77l-1.13,0-1.52-1.6-.54.38-3.06.18-.58.31-.85-.27-.1-.91-.51-1,.59-1.63,1.44-.35.25-.4h.7l.8-.32.25-.64a3.4,3.4,0,0,0,1.57-1.14c.31,0,.52.2,1-.18.44.3.95.58,1.16-.25l.13-.51a7.36,7.36,0,0,1,2.14.09,4.58,4.58,0,0,1-.36.87,1.38,1.38,0,0,0,1.17.6,6.91,6.91,0,0,0,1-1.92,1.92,1.92,0,0,0,.41,1.31L111,42.57l.3.85a2.85,2.85,0,0,1,0,1l-.89,2"/><path id="path316" class="cls-5" d="M90.1,10.82l.2.31A11.42,11.42,0,0,0,92.4,11l1.28-.35.82.49a5.9,5.9,0,0,0,1.68,0l.45-.54,1.72,0,.66-.51c.35.09.7.13,1.28.25"/><path id="path437" class="cls-5" d="M106.54,12.53l.43.91a16.08,16.08,0,0,1,1.66.41l1,1.11a14.92,14.92,0,0,0-.27,3,1.63,1.63,0,0,0-.9,1,5.52,5.52,0,0,0-.91-.05,6.8,6.8,0,0,0-.08,1l.74,1.26-.54,1.38-1,1.1-.8,0-.35.27h-1.41l-.91.63,0,.84L104.46,27l-.13,1.15-1.75,1.5-.91-.07v.68l.62.81.11.79-.56.45A12.37,12.37,0,0,0,104,34.69l.9-.55.09-.56-.34-.48.16-.75.73-.2,2.15-2.54.24-1.83c.06-.49.77-.48.78.12v1.21l.3.38,0,2.05.89,1.26c-.26.12-.81.15-.81.27s.41.22.59.33a.87.87,0,0,1-.23.85l.25.35-.46.12-.14.44-1.66,1-1-.62-.6.62.25.27.68-.06,1.07.65-1.59-.36h-.62a5.18,5.18,0,0,1-1.55-.47l-.64,0,0-.7-.77,0-1.15-1.1-.8-1.08-.16-.6-.74-.64-.66-1.23h.38l0-.78L99,29.27v-.51l-.46-.43-.11-.8-.62-.42-.45-.06L97,26.79h-.83l-.49-.45-.09-.57-.2-.19-.71.07-.68.4-.5,1.34-.62.24-1.06,1.45-1,.05-.51.52,0,2.08c-.2.24-.46.45-.5.74l-.09.29a1.33,1.33,0,0,1-.52-.67l0-.7-.14-.52,0-1.08-.36-.58-.1-2.32-1-.08-.3-.74-.83.09-.78-1-.55,0L82.58,22l-.91-1.78,0-.77.7-.51-1.3.47c-.25.12-.36.08-.28-.15l.14-.47,1.68-1.25"/><path id="path439" class="cls-5" d="M103.4,35.4l1.34.08,1.08.65"/><path id="path495" class="cls-6" d="M90.8,33.28c0-.34.16-.65.41-.65s.4.27.25.7c-.06.19-.13.4-.34.41S90.8,33.51,90.8,33.28Z"/><path id="path1051" class="cls-6" d="M104.15,25.06a1.06,1.06,0,0,1,.59-.46.91.91,0,0,1,.28.34,1.19,1.19,0,0,1,0,.47.89.89,0,0,1-.56,0A1.27,1.27,0,0,1,104.15,25.06Z"/><path id="path1053" class="cls-6" d="M108.85,25.91c-.54.26.08,1.29.39,1.11C109.75,26.73,109.18,25.75,108.85,25.91Z"/><path id="path1057" class="cls-6" d="M108.69,26.05l-.36-.33a1.75,1.75,0,0,0,.78-.54l-.11.73"/><path id="path3449" class="cls-7" d="M94,25.82a2.13,2.13,0,0,1-.2-.39c0-.12,0-.26,0-.38s-.15-.16-.16-.26.12-.23.07-.33-.2-.08-.29-.14a1.08,1.08,0,0,1-.11-.11l0-.14.14,0,.07-.11.07-.1.16,0-.16-.16-.14-.1v-.09l-.13,0s0-.07,0-.13l.14-.08,0-.15c0-.15.09,0,0-.16l.13.13.15.13,0-.06.11.18.18.06.07,0,.07.07.07.22,0,.2.21.11.21,0,.28,0h.18a.66.66,0,0,1,.31,0l.23-.05c.11.08.07.23,0,.31l-.15.12,0,.12-.21.16-.18.07-.08.15v.19l0,.17.05.13.21-.05,0-.22.12-.14v-.08l.16,0v.2l.09.21-.06.11,0,.21,0,.28,0,.21-.69-.43-.17-.14-.14-.34,0-.24,0,.16,0,.2.07.2v.16l-.16.16-.21,0c-.16-.54-.3.35-.43.1Z"/></g><path id="path3534" d="M75.21,52.65a11.89,11.89,0,0,1-4.88-2.4,6.24,6.24,0,0,1-2.15-4.89c-.06-2.25,1-5.28,3.65-9,2.88-4.1,6.8-7.68,10.85-11.23a117.22,117.22,0,0,1,16.39-11,115.52,115.52,0,0,1,18.77-8.42,62,62,0,0,1,16.27-3.43,17.44,17.44,0,0,1,9,1.65,6.17,6.17,0,0,1,3.1,5.48c-.12,4-2,7.78-4.78,11.56a25.61,25.61,0,0,0,4.73-7,10.6,10.6,0,0,0,1.15-6.3,7.68,7.68,0,0,0-4.83-6c-4.82-2.23-10.84-1.84-17-.71a85.44,85.44,0,0,0-23.64,8.5A105,105,0,0,0,81.37,23.07c-5.26,4.53-8.84,8.65-11.14,12.52-1.92,3.22-3.34,6.43-3.15,9.76a7.05,7.05,0,0,0,2.85,5.32A10.77,10.77,0,0,0,75.21,52.65Z"/></g><path id="path976" class="cls-8" d="M184.72,22.68a18.58,18.58,0,0,0-10.7,3,16.3,16.3,0,0,0-7.33,14.1c0,7.45,5.17,12,12.85,12a20.23,20.23,0,0,0,7.68-1.26l-.51-4.85a15.61,15.61,0,0,1-5.53.92c-5.13,0-7.72-3-7.72-7.49a11.27,11.27,0,0,1,4-9.08,10.61,10.61,0,0,1,6.65-2.17,13.15,13.15,0,0,1,5.26.92l1.68-4.9A14.19,14.19,0,0,0,184.72,22.68Zm-47.6.25a44.23,44.23,0,0,0-7.63.67L124.15,51a40.89,40.89,0,0,0,7.33.54c4.82,0,8.48-.71,10.94-2.3a7.85,7.85,0,0,0,4-6.7,6.12,6.12,0,0,0-4.57-6.15v-.12c3.15-.88,5.86-3.14,5.86-6.7a5.68,5.68,0,0,0-3.36-5.14C142.37,23.31,140.13,22.93,137.12,22.93Zm11.82.21-1.07,5.27h7.63l-4.42,22.93h6.17l4.42-22.93h7.71l1-5.27Zm44.67,0-5.5,28.2h17.31l1-5.27H195.32l4.47-22.93Zm-56.36,4.48c2.37,0,4.09.88,4.09,2.93,0,2.38-2.33,3.8-5.73,3.8h-2.07l1.3-6.52A10.36,10.36,0,0,1,137.25,27.62ZM132.6,38.75h1.93c2.89,0,5.3.83,5.3,3.64,0,3.13-3.06,4.43-6.42,4.43A21.3,21.3,0,0,1,131,46.7Z"/></g></g></g></g></svg>