<svg xmlns="http://www.w3.org/2000/svg" viewBox="0 0 305.4 123.26"><defs><style>.cls-1{font-size:17.33px;font-family:BaiJamjuree-Medium, Bai Jamjuree;font-weight:500;letter-spacing:0em;}.cls-2{letter-spacing:0em;}.cls-3{fill:#ea2127;}.cls-4{fill:#00a44f;}.cls-5{fill:#ffca05;}</style></defs><title>Asset 22</title><g id="Layer_2" data-name="Layer 2"><g id="Layer_1-2" data-name="Layer 1"><text class="cls-1" transform="translate(12.43 93.59)">Bangladesh Bureau of Educational<tspan class="cls-2"><tspan x="-12.43" y="20.8">Information and Statistics ( BANBEIS)</tspan></tspan></text><circle class="cls-3" cx="152.76" cy="37.24" r="24.19"/><polygon class="cls-3" points="127.58 46.47 125.51 46.17 124.59 44.3 123.66 46.17 121.59 46.47 123.09 47.94 122.73 50 124.59 49.02 126.44 50 126.09 47.94 127.58 46.47"/><polygon class="cls-3" points="130.46 55.22 129.53 53.34 128.61 55.22 126.54 55.52 128.03 56.98 127.68 59.05 129.53 58.07 131.39 59.05 131.03 56.98 132.53 55.52 130.46 55.22"/><polygon class="cls-3" points="183.92 46.47 181.85 46.17 180.92 44.3 180 46.17 177.93 46.47 179.42 47.94 179.07 50 180.92 49.02 182.78 50 182.42 47.94 183.92 46.47"/><polygon class="cls-3" points="176.9 55.22 175.98 53.34 175.05 55.22 172.98 55.52 174.48 56.98 174.12 59.05 175.98 58.07 177.83 59.05 177.47 56.98 178.97 55.52 176.9 55.22"/><path class="cls-4" d="M187.07,22.75A37.32,37.32,0,1,0,190,37.24,37.14,37.14,0,0,0,187.07,22.75Zm-1.45,28.37a35.8,35.8,0,1,1,2.8-13.88A35.61,35.61,0,0,1,185.62,51.12Z"/><path class="cls-4" d="M145.27,68.56l-.16-.1a.65.65,0,0,0-.16-.09,1.63,1.63,0,0,0-.37-.13,1.59,1.59,0,0,0-.81,0,.54.54,0,0,0-.43.36.6.6,0,0,0,.21.57,1.68,1.68,0,0,0,.83.42,1.77,1.77,0,0,0,.5,0,1.19,1.19,0,0,0,.42-.11c.26-.13.36-.3.33-.51A.84.84,0,0,0,145.27,68.56Z"/><path class="cls-4" d="M168.18,65.62a.84.84,0,0,0-.58-.13,1.74,1.74,0,0,0-.73.2,1.18,1.18,0,0,0-.19.11l-.17.12a1.37,1.37,0,0,0-.26.28.53.53,0,0,0-.1.55.6.6,0,0,0,.54.3,1.61,1.61,0,0,0,.9-.2,1.39,1.39,0,0,0,.67-.64.64.64,0,0,0,.06-.18.43.43,0,0,0,0-.16A.4.4,0,0,0,168.18,65.62Z"/><path class="cls-4" d="M169,60l.88-.65-1.41.08a28.08,28.08,0,0,1-6.34,3.35l-.3.11-.18.07-.39.14-.23-.1a2.65,2.65,0,0,1-.4-.5l-.68-.15a12.09,12.09,0,0,0,.59,1.59,2.1,2.1,0,0,0-.3-.15,1.68,1.68,0,0,0-.32-.09,2,2,0,0,0-.72,0,6.37,6.37,0,0,0-.68.14l-.44.11L158,64a29.42,29.42,0,0,1-4,.53,28.92,28.92,0,0,1-4.56-.08,27.89,27.89,0,0,1-3.53-.56l-.5-.12-.24-.06-.25-.06-1-.28-.78-.25h0c-.36-.13-.72-.25-1.07-.39l-.06,0a28.25,28.25,0,0,1-7.22-4.08c.13.38.27.78.42,1.17a1.27,1.27,0,0,0,.13.19,1.57,1.57,0,0,0,.37.79L136,61c.14.1.32.23.54.37a2.31,2.31,0,0,1,.23.18,1.66,1.66,0,0,1,.19.18,1,1,0,0,1,.25.39,1.18,1.18,0,0,1,0,.9c-.52.09-.94.15-1.24.17a1.21,1.21,0,0,1-.54,0,.72.72,0,0,1-.24-.56,1.06,1.06,0,0,1,.11-.56L134.16,62a6.12,6.12,0,0,0,.22,1.22,1.4,1.4,0,0,0,.34.64,1.34,1.34,0,0,0,.24.24l.19.15.11.07.13.08.33.18a2.07,2.07,0,0,0,.85,0,11.29,11.29,0,0,0,1.62-.34,1.2,1.2,0,0,1,.86,0,.91.91,0,0,1,.27.18,1.55,1.55,0,0,1,.25.26.86.86,0,0,1,.25.49l-1,2.36.45.67q.12.18.24.33l.25.33,2.12-5.45.54.2.13.05.14,0,.27.09c.36.12.72.24,1.08.34h0a28.89,28.89,0,0,0,3.69.81l0,.18c-1.66.08-3.46.25-5.48.43l.45.74.24.37.25.36a5.71,5.71,0,0,1,.58.21l.28.12.28.11.53.26.25.15a2.07,2.07,0,0,1,.25.15,5.34,5.34,0,0,1,.76.52c.11.09.21.19.31.29a3.58,3.58,0,0,1,.27.29c.06.07.33.47.89,1.22a4.15,4.15,0,0,0,.34.24l.35.23.66-5.71.9.09.78,0,.24,0H151a29.35,29.35,0,0,0,3.75-.09l0,.24a52.05,52.05,0,0,0-4.94,1.75l.67.57.17.14.17.14.36.27c.2,0,.39,0,.59.08l.29,0,.29.05a8.22,8.22,0,0,1,1.11.29,5.58,5.58,0,0,1,1.14.53,4,4,0,0,1,.74.52,5.51,5.51,0,0,1,.5.61l.39.16a3.2,3.2,0,0,0,.39.16l-.59-4.53a3.29,3.29,0,0,1,1.72.17,1.3,1.3,0,0,1,.76.59l-.24,0a1.8,1.8,0,0,0-.52,0,3.39,3.39,0,0,0-.59.17c-.37.25-.54.5-.5.74s.2.37.51.48a1.53,1.53,0,0,0,.48.11,3.12,3.12,0,0,0,.52,0,2.59,2.59,0,0,0,.68-.23,1.68,1.68,0,0,0,.48-.39,1,1,0,0,0,.25-.89,1.73,1.73,0,0,0-.2-.45,2.1,2.1,0,0,0-.56-.55,3.61,3.61,0,0,0-.39-.22l-.45-.21c-.18-.06-.35-.12-.52-.16l-.26,0-.26,0a3.62,3.62,0,0,0-1,0l0-.17a30.28,30.28,0,0,0,3.29-.62,2.3,2.3,0,0,1,.63,0,1.83,1.83,0,0,1,.63.19.72.72,0,0,1,.35.44l1.22,4,1.56.36-2-5.65,1.09-.4.27-.11.05,0,.75-.31h0a26.83,26.83,0,0,0,3.33-1.71l.09.15a2.29,2.29,0,0,1-.23.21l-.23.22-.46.44c-.31.3-.63.6-.95.93l-.49.47-.25.25-.25.26-.52.51c-.17.17-.34.36-.53.53l.83.27.85.25.15,0,.15-.06.29-.1a5.58,5.58,0,0,1,.58-.18l.29-.07.28-.07.58-.1.47,0,.44,0a4.43,4.43,0,0,1,.83.07l.43.11,1,.26.42,0h.21l.21,0-3.22-4.79Zm-28.86,4.44c-.1-.17-.19-.33-.28-.47s-.09-.14-.14-.2a1.4,1.4,0,0,0-.13-.18,1.47,1.47,0,0,0-.51-.45.33.33,0,0,0-.13,0l-.21,0-.66-.06h0a1,1,0,0,0,.12-.63,2.46,2.46,0,0,0-.09-.34,4,4,0,0,0-.18-.36c.22.13.46.25.69.37l.35.18a3.84,3.84,0,0,0,.35.18c.47.22.94.46,1.43.65Zm7,4.23a4.3,4.3,0,0,0-.51-.54,5.22,5.22,0,0,0-.6-.54l-.35-.25-.37-.26c-.26-.17-.53-.34-.82-.5l.75-.11.37,0,.38,0,.76-.08h.19l.2,0,.38,0Zm5.15-1.16c.46-.2.75-.34.87-.4l.17-.06.18-.08.41-.15.46-.16.52-.18.21,2.32A8.68,8.68,0,0,0,152.27,67.48Zm16.8-3.09-.18,0-.19,0-.38,0a5.44,5.44,0,0,0-.81,0h-.43l-.45,0-.47.06-.24,0-.24,0,.24-.28.25-.29c.17-.18.34-.37.52-.55l.26-.27.27-.28.27-.26.28-.27Z"/><path class="cls-4" d="M123.16,26.36l.2-.53.21-.52.22-.52-.56.35-.56.37c-.12.29-.22.59-.33.88a3.18,3.18,0,0,1-.33.29.59.59,0,0,1-.37.07,1.15,1.15,0,0,0-.49.23l-.38.31a11.63,11.63,0,0,0,1.66.53l.74.13a2.93,2.93,0,0,0-.72.29,2.23,2.23,0,0,0-.53.42l-.14.17a3.22,3.22,0,0,0-.21.29,2.18,2.18,0,0,0-.23.57,5.29,5.29,0,0,0-.1.62,3.61,3.61,0,0,0,0,.57,2.13,2.13,0,0,0,.27.84l-.22.21-.47.49c-.07.37-.11.73-.15,1.08,0,.13-.07.21-.11.23-.24.12-.42.12-.56,0l-.32.39-.32.39a15.53,15.53,0,0,0,1.79.1h.74a1.86,1.86,0,0,0-.59.38,2,2,0,0,0-.44.61,2.9,2.9,0,0,0-.27.86,3.89,3.89,0,0,0-.08.51c0,.18,0,.38,0,.58a3.21,3.21,0,0,0,.25,1.3,1.88,1.88,0,0,0,.62.76,1.15,1.15,0,0,0,.77.27c.34,0,.59-.26.77-.7a.88.88,0,0,0,.06-.33,2.78,2.78,0,0,0-.25-.77,3,3,0,0,1-.24-.67c0-.17.05-.25.14-.25s.3.24.66.69l.68.86c.28-.35.57-.69.86-1a8.46,8.46,0,0,0-.6-.67,4.47,4.47,0,0,0-.52-.48,1.19,1.19,0,0,0-.82-.34,1,1,0,0,0-.75.46,2.14,2.14,0,0,0-.26,1.14,3.8,3.8,0,0,0,0,.52,1.69,1.69,0,0,1-.53-1.44,1.33,1.33,0,0,1,.07-.43,1.62,1.62,0,0,1,.19-.43,1.75,1.75,0,0,1,.32-.41,2.81,2.81,0,0,1,.45-.35,1.57,1.57,0,0,1,.9-.28l3,.31.24-.23.24-.23.5-.43-5.83-.72c0-.37.09-.74.15-1.1l.09-.55V32a1.43,1.43,0,0,0,.4.38,1.45,1.45,0,0,0,.64.26,1.61,1.61,0,0,0,.62,0,1.15,1.15,0,0,0,.29-.11,2,2,0,0,0,.28-.16,2.18,2.18,0,0,0,.51-.54,2.37,2.37,0,0,0,.19-.35,2.48,2.48,0,0,0,.15-.41,1.91,1.91,0,0,0,.1-.52,1.87,1.87,0,0,0,0-.53,1.82,1.82,0,0,0-.07-.25.72.72,0,0,0-.11-.19.6.6,0,0,0-.32-.22.65.65,0,0,0-.31,0,1,1,0,0,0-.72.79c-.13.55,0,.87.34.94l.22.05a.51.51,0,0,1-.27.19,1.09,1.09,0,0,1-.58,0,.86.86,0,0,1-.56-.49,1.18,1.18,0,0,1-.14-.45,1.49,1.49,0,0,1,0-.51,1.86,1.86,0,0,1,.73-1.05,1.4,1.4,0,0,1,1.29-.27l2.93.93.55-.34.54-.31L123,26.89C123,26.71,123.1,26.53,123.16,26.36Z"/><path class="cls-4" d="M133.54,16.24a1.37,1.37,0,0,0-.54-.35,2.28,2.28,0,0,0-.78-.12,1.61,1.61,0,0,0-.56.1h0a.37.37,0,0,0-.2.11,2.33,2.33,0,0,0-.19.39,6.86,6.86,0,0,1-.53,1.08c-.18.2-.33.24-.46.12a1.4,1.4,0,0,1-.25-.73,1.3,1.3,0,0,1,.06-.8c.33,0,.51,0,.56,0a3,3,0,0,0,1.25-.54,9.56,9.56,0,0,0,1.2-.85,3.42,3.42,0,0,0,.7,1.39,4.68,4.68,0,0,0,.9.72c.33.21.65.43,1,.65,0,0,.17,0,.35-.1a1.52,1.52,0,0,0,.35-.19.37.37,0,0,0,.09-.2,4,4,0,0,1-1.41-.91,3.75,3.75,0,0,1-.36-.55,2,2,0,0,1-.32-1,3.46,3.46,0,0,1,.11-1.17h-.86l-.74,0-.3.4c-.1.12-.18.23-.25.33s-.26.33-.34.41a.64.64,0,0,1-.15.13l-.17.15-.47.3c-.37.23-.6.31-.68.23s0-.05,0-.1a3,3,0,0,1,.17-.41c.61-.6,1.25-1.17,1.9-1.73l.92-.74a1.57,1.57,0,0,1,.55-.27,1.21,1.21,0,0,1,.6,0,.66.66,0,0,1,.44.31l2.39,3.42.59.08.58.1-3.25-5,.86-.56.11-.06c.31.24.65.48,1,.74l1.2.8a6.94,6.94,0,0,0,1.23.57,5.15,5.15,0,0,0,.85.26,3.27,3.27,0,0,0,.45,0,2.74,2.74,0,0,0,.48,0,3.39,3.39,0,0,0,.48-.1,3.09,3.09,0,0,0,.43-.14,4,4,0,0,0,1.24-.88,2.93,2.93,0,0,0,.37-.45,2.1,2.1,0,0,0,.23-.48,1.7,1.7,0,0,0,0-1A2,2,0,0,0,144,9a3,3,0,0,0-.51-.5,2.35,2.35,0,0,0-.59-.3,2.09,2.09,0,0,0-.66-.13h-.35a2.38,2.38,0,0,0-.37.06l-.39.09-.3.11a2.3,2.3,0,0,0-1.08.86,1.06,1.06,0,0,0-.15,1.09,1.59,1.59,0,0,0,.17.25,1.16,1.16,0,0,0,.68.39,1.89,1.89,0,0,0,.41,0,2.24,2.24,0,0,0,.46-.15,1.73,1.73,0,0,0,.77-.56.8.8,0,0,0,.06-.74A.87.87,0,0,0,141.8,9a1.25,1.25,0,0,1,.21-.1,1,1,0,0,1,.89.07,1,1,0,0,1,.28,1.51,4.06,4.06,0,0,1-.51.56,2.11,2.11,0,0,1-.54.34,3.29,3.29,0,0,1-2.56,0,8.47,8.47,0,0,1-1.24-.59l-1.15-.7c-.27.06-.53.14-.8.21l.09-.06.27-.17.15-.08.33-.2h0a31.62,31.62,0,0,1,6.92-2.91h0c.9-.26,1.82-.48,2.75-.66s1.86-.3,2.8-.4a.45.45,0,0,1,.32.06.8.8,0,0,1,.24.4.7.7,0,0,1-.1.44.85.85,0,0,1-.38.3,1.91,1.91,0,0,0-.42-.23,7.56,7.56,0,0,0-.71-.26,2.72,2.72,0,0,0-1.33-.09c-.79.14-1.21.52-1.26,1.11a.71.71,0,0,0,.34.7l.2.1a.9.9,0,0,0,.22.06,1.85,1.85,0,0,0,.52,0A1,1,0,0,0,148,8a.79.79,0,0,0,.21-.62.47.47,0,0,0-.13-.24,3,3,0,0,1,.65.19l.16.08-.13.08-.27.18a5.6,5.6,0,0,0-.52.65,1.15,1.15,0,0,0,0,1.15.75.75,0,0,0,.45.34,1.36,1.36,0,0,0,.65.08,1.29,1.29,0,0,0,.67-.28.6.6,0,0,0,.27-.55.54.54,0,0,0-.23-.4.7.7,0,0,0-.52-.12l-.14,0a.9.9,0,0,1,.17-.32l.27-.22.2-.14a1.44,1.44,0,0,1,.31-.09h0l.12,0s0,0,0,.14a.74.74,0,0,1,.12.3l.17,2-.1-.07a1.77,1.77,0,0,0-1.11-.15l-.4,0-.58.13-.46.08-.35,0a.78.78,0,0,1-.24,0,.73.73,0,0,1-.35-.25,1,1,0,0,1-.19-.43,1.93,1.93,0,0,1,0-.71l-.46-.14a.19.19,0,0,0-.23.15A2,2,0,0,0,146,10a1.77,1.77,0,0,0,.67,1,1.5,1.5,0,0,0,.85.31,2.83,2.83,0,0,0,1,0c.13,0,.35-.09.66-.19a4.08,4.08,0,0,1,.67-.16,1.3,1.3,0,0,1,.49,0l.2.07.17.12a2.93,2.93,0,0,1,.33.43l.24.17.24.17-.15-3.19a4.23,4.23,0,0,0-.11-1.08,1,1,0,0,0-.2-.29l.08-.09a.89.89,0,0,0,.33-.65,1.91,1.91,0,0,0-.26-.62,1.59,1.59,0,0,0-.17-.27c.76,0,1.52-.06,2.28,0l-.09,5,.43.4.21.2.21.21.29-5.82.59,0,.59,0,.59.06.58.07-.48-.45-.5-.44-.66,0-.67,0-.15-.45a2.85,2.85,0,0,0-.55-.86,3.24,3.24,0,0,0-.89-.71,2.4,2.4,0,0,0-.39-.2L152,2.56a3.27,3.27,0,0,0-.67-.19l-.64-.09-.59,0a6.16,6.16,0,0,0-1,0,5.4,5.4,0,0,0-.58.09,4.75,4.75,0,0,0-.57.14,5.27,5.27,0,0,0-.56.19l-.27.11-.27.14c-.62.31-.88.64-.81,1a.7.7,0,0,0,.24.41,1.37,1.37,0,0,0,.53.23,5.67,5.67,0,0,0,.66.11,4.58,4.58,0,0,0,.64,0l.37,0,1-.08a4.37,4.37,0,0,1,.5,0l.37,0c.19,0,.29.09.29.18s-.06.12-.19.22a32.26,32.26,0,0,0-6.68,1.18l-.16,0-.5.15-.3.09,0,0h0l-.57.19c-.2.06-.4.14-.6.21-.8.3-1.59.62-2.37,1a31.65,31.65,0,0,0-3.39,1.83h0l-.44.27-.13.09-.17.11-.25.16-.23,0a2,2,0,0,1-.51-.37l-.72.07a16.29,16.29,0,0,0,1,1.33,1.34,1.34,0,0,0-.63,0,1.75,1.75,0,0,0-.55.2h0l-.05,0h0a5.63,5.63,0,0,0-.55.4l-.33.28a1.14,1.14,0,0,1-.11.11,32.41,32.41,0,0,0-5.84,6.31l-.13.19-.11.16-.21.12a.47.47,0,0,1-.39-.08l-.13,0c-.24.13-.47.28-.71.42l1.72,1,.52.24a2.91,2.91,0,0,0-1.52.42,3.33,3.33,0,0,0-.72.58c-.1.12-.2.24-.29.37l-.14.2-.11.22a3.4,3.4,0,0,0-.06,3.26.54.54,0,0,0,.27.27.5.5,0,0,0,.47-.08.77.77,0,0,0,.34-.46l.06-.36,0-.27a2.25,2.25,0,0,1,.06-.25c.09-.21.27-.25.53-.12s.17.11.18.18l.06.25.06.24.12.48.45-.52.46-.5a26.61,26.61,0,0,1-.46-3,1.82,1.82,0,0,1,1.14-.09l1.62,1.14-.09,0a3.15,3.15,0,0,0-.54.31,1.07,1.07,0,0,0-.16.14l-.15.15c-.09.1-.19.2-.28.31s-.17.22-.25.34l-.22.35-.2.36a3.49,3.49,0,0,0-.18.31l-.28.5a3.12,3.12,0,0,1-.31.5c-.41.41-.79.55-1.15.41a.62.62,0,0,1-.2-.2,2.3,2.3,0,0,0-.59.42.12.12,0,0,0,0,.13.63.63,0,0,0,.21.13c.25.13.43.21.53.25a1.75,1.75,0,0,0,1.13.06,1.49,1.49,0,0,0,.48-.22,3,3,0,0,0,.45-.38,5.19,5.19,0,0,0,.36-.46,4.3,4.3,0,0,0,.28-.52l.11-.25.1-.22.19-.4c.12-.23.21-.41.29-.54a2.75,2.75,0,0,1,.24-.38,2.47,2.47,0,0,1,.24-.29,1.33,1.33,0,0,1,.52-.34h.75a2.41,2.41,0,0,0,.95-.14l-.47-.3-4.55-3.17.16-.23.15-.22.27-.37.33-.44.13-.17q.58-.76,1.23-1.5a1.79,1.79,0,0,0,0,.21,2.59,2.59,0,0,0,.11.81,1,1,0,0,0,.3.48,1.62,1.62,0,0,0,.29.19,1.42,1.42,0,0,0,.65.12,2.56,2.56,0,0,0,.76-.17,3.78,3.78,0,0,0,.33-.22,2.43,2.43,0,0,0,.29-.26,3.2,3.2,0,0,0,.32-.43l.16-.27c.05-.1.11-.2.16-.32l.07-.09a.16.16,0,0,1,.2,0,.37.37,0,0,1,.21.12c.14.14.12.39-.05.74l-.11.18-.11.19a4.68,4.68,0,0,1-.29.37,1.34,1.34,0,0,1-.44.37,2.17,2.17,0,0,1-.62.25,4.55,4.55,0,0,1-.59.1,2.38,2.38,0,0,1-.54,0,4.31,4.31,0,0,1-.82-.26,2.39,2.39,0,0,1-.89-.56,3.77,3.77,0,0,0-.69.39,6.39,6.39,0,0,0,2,1.19,3.91,3.91,0,0,0,1.39.17,3.1,3.1,0,0,0,2.12-1,2.8,2.8,0,0,0,.37-.5,2.41,2.41,0,0,0,.22-.56,2,2,0,0,0-.07-1.13A1.31,1.31,0,0,0,133.54,16.24ZM150.36,3.75a2.65,2.65,0,0,0-.42-.06l-.47,0h-.2l-.4,0-.6,0-.79.1c-.41.06-.61,0-.63-.06s.05-.15.19-.23a1.62,1.62,0,0,1,.26-.12l.38-.12a6.7,6.7,0,0,1,1.21-.25c.22,0,.43,0,.64-.05h.59l.54,0,.49.08.45.11a3.52,3.52,0,0,1,.39.16,2.64,2.64,0,0,1,.63.41,2.25,2.25,0,0,1,.65.79l.09.29h-1.82a.92.92,0,0,0,0-.16A1,1,0,0,0,151,4,1.85,1.85,0,0,0,150.36,3.75ZM125.3,23.64a1.13,1.13,0,0,0-.49.46,1.46,1.46,0,0,1-.07-.7,3,3,0,0,1,.29-.84,1.59,1.59,0,0,1,.28-.36,2.32,2.32,0,0,1,.42-.32c0,.29.06.58.1.87s.08.57.12.85A1,1,0,0,0,125.3,23.64Z"/><path class="cls-4" d="M161.92,7c.77.24,1.54.51,2.29.8l-.06.18a13.56,13.56,0,0,0-2.68-.08,8,8,0,0,0-.94.13l-.55.12-.62.16.38.68c.12.22.24.45.35.68l.29.11.27.12a2.6,2.6,0,0,1,.49.28,2.88,2.88,0,0,1,.43.33,4,4,0,0,1,.35.37,3.32,3.32,0,0,1,.69,1.92c0,.15.09.29.13.44l.12.44,2.33-5.47.68.31a1.42,1.42,0,0,1,.79.89.71.71,0,0,1-.08.54l-1.87,3.73c.13.38.26.75.38,1.13L168,9.61c.31.17.61.36.92.54l.46.28.22.14h0a1.1,1.1,0,0,0-.89.5,1.24,1.24,0,0,0-.06,1.13,1.88,1.88,0,0,0,.32.59,2.26,2.26,0,0,0,.5.47,1.92,1.92,0,0,0,.66.33,1.89,1.89,0,0,0,.85,0,1.14,1.14,0,0,0,.65-.39,1.08,1.08,0,0,0,.21-.49,1.49,1.49,0,0,0,0-.62,2.07,2.07,0,0,0-.29-.62,1.55,1.55,0,0,0-.24-.27.86.86,0,0,0-.14-.13l-.15-.11a2,2,0,0,0-.62-.3,2.48,2.48,0,0,0-.61-.07l-.06-.16-.13-.31c-.09-.2-.17-.41-.26-.61l-.51-.3-.51-.29-.07-.23a1.84,1.84,0,0,1,.09-.63l-.4-.6A16.48,16.48,0,0,0,167.19,9a1.58,1.58,0,0,0-.09-.31,1.24,1.24,0,0,0-.17-.27,1.71,1.71,0,0,0-.22-.25L166.48,8V8l-.06,0h0a5.43,5.43,0,0,0-.6-.31l-.41-.16-.18-.06c-.84-.36-1.7-.69-2.57-1l-.49-.15-.49-.15c-.33-.1-.67-.18-1-.27-.16,0-.33-.08-.5-.12s-.33-.09-.5-.12l-1-.2c.31.31.6.64.89,1C160.36,6.6,161.14,6.8,161.92,7Zm1,4.24a4.83,4.83,0,0,0-1.65-2.12,9.81,9.81,0,0,1,2.51-.1Zm7.12.33a1.51,1.51,0,0,1,.85.2.31.31,0,0,1,.08.49.74.74,0,0,1-.23.24,1.19,1.19,0,0,1-.61,0,1.78,1.78,0,0,1-.64-.2.25.25,0,0,1-.06-.41A.7.7,0,0,1,170,11.61Z"/><path class="cls-4" d="M169.41,15.64c0-.26-.08-.48-.11-.67a4.22,4.22,0,0,0-.12-.46c-.06-.21-.12-.42-.19-.61s-.13-.37-.2-.55-.14-.33-.2-.49l-.2-.44-.81,1.3a13.37,13.37,0,0,1,1.29,3.19l.12.63c0,.21.07.42.1.63l.5-.6c0-.19,0-.38,0-.55s0-.35,0-.51C169.49,16.19,169.45,15.89,169.41,15.64Z"/><path class="cls-4" d="M184.86,38.14l-1.25.12.17-.15c.21-.18.39-.35.55-.51a4.56,4.56,0,0,0,.38-.45,1.38,1.38,0,0,0,.3-.73c0-.07,0-.21-.07-.39a4.7,4.7,0,0,0-.16-.49,3.73,3.73,0,0,0-.2-.4,2.55,2.55,0,0,0-.24-.31,1.49,1.49,0,0,0-.28-.23,1.23,1.23,0,0,0,.29-.36s.09-.16.23-.45a1.72,1.72,0,0,0,.11-.51,2.21,2.21,0,0,0,0-.57c-.09-.67-.22-1.33-.35-2v0c0-.05,0-.11,0-.17-.07-.35-.16-.69-.25-1,0-.17-.09-.34-.13-.51l-.15-.52-.15-.51-.17-.51-.08-.25-.09-.26-.17-.5-.19-.5-.09-.25-.1-.25-.21-.49-.21-.49-.1-.24-.12-.25-.2-.44c-.42-.93-.89-1.84-1.39-2.73v0c-.2-.34-.41-.67-.61-1,0-.1,0-.18,0-.24a2,2,0,0,1,.37-.51l-.06-.72a14.37,14.37,0,0,0-1.33,1,1.57,1.57,0,0,0-.2-1.28v0h0l-.06-.08a1.3,1.3,0,0,0-.1-.15l-.22-.3-.27-.32a32.33,32.33,0,0,0-5.86-5.77l.21.65c.07.22.13.43.19.65a31.3,31.3,0,0,1,4.18,4.12l-.69.6a.86.86,0,0,0,0-.16c0-.1,0-.22,0-.35a1.7,1.7,0,0,0-.36-.76,1.12,1.12,0,0,0-.5-.3,1.32,1.32,0,0,0-.57-.06v-.14a2.74,2.74,0,0,0-.09-.39,2.83,2.83,0,0,0-.16-.36,2.37,2.37,0,0,0-.22-.33c-.09-.11-.19-.21-.29-.31a3.24,3.24,0,0,0-.31-.24,2.07,2.07,0,0,0-.34-.15,1.63,1.63,0,0,0-.7-.09,1.5,1.5,0,0,0-1,.56,1.52,1.52,0,0,0-.32,1.31,1.89,1.89,0,0,0,.27.7,2.26,2.26,0,0,0,.23.34c.09.11.2.21.31.32a2.21,2.21,0,0,0,.3.25l.16.08.15.07a1.09,1.09,0,0,0,.62,0c.15,0,.28-.21.38-.53a.9.9,0,0,0-.25-1,1.08,1.08,0,0,0-.31-.23.91.91,0,0,0-.33-.1.59.59,0,0,0-.54.18A.65.65,0,0,0,172,16a.64.64,0,0,1,0-.79.72.72,0,0,1,.66-.21,1.37,1.37,0,0,1,.78.38,1.51,1.51,0,0,1,.48.86,2.32,2.32,0,0,1,0,.55c0,.14-.12.23-.29.28.22.12.43.25.64.38.21-.29.37-.44.5-.47a.41.41,0,0,1,.36.16.82.82,0,0,1,.21.54.5.5,0,0,1-.14.46l-2.34,2c0,.39,0,.79,0,1.18l4.51-3.62.32.42h0v0l.15.2a1.49,1.49,0,0,1,.26.56,1.39,1.39,0,0,1,0,.61.68.68,0,0,1-.32.44l-3.4,2.39c0,.19-.06.39-.09.59s-.06.39-.1.58l5-3.24.21.33v0c.36.59.69,1.2,1,1.81a3.28,3.28,0,0,0-2.94.1A3,3,0,0,0,176,24.87a1.31,1.31,0,0,0,0,.52,2.41,2.41,0,0,0,.18.56,1.94,1.94,0,0,0,.27.41,1.43,1.43,0,0,0,.36.29.88.88,0,0,0,.81.08.69.69,0,0,0,.45-.71.72.72,0,0,0-.06-.49.93.93,0,0,0-.11-.19,1.29,1.29,0,0,0-.16-.18c-.34-.28-.63-.32-.89-.13a1.26,1.26,0,0,0-.2.31l-.05.07a.31.31,0,0,1,0-.08,2.2,2.2,0,0,1,.26-1,1.68,1.68,0,0,1,.7-.67,5.79,5.79,0,0,1,.76-.31,2.15,2.15,0,0,1,1.5,0,2.86,2.86,0,0,1,.73.42,5.28,5.28,0,0,1,.71.71,5.1,5.1,0,0,1,.61,1l-2.8,1.18-.21.69c-.08.23-.15.46-.23.68a3.31,3.31,0,0,1,.83.17,2.5,2.5,0,0,1,.38.15,2.64,2.64,0,0,1,.37.2,3.33,3.33,0,0,1,.66.54,2.43,2.43,0,0,1,.3.34,2.7,2.7,0,0,1,.27.39,4.85,4.85,0,0,0-1.25.19,11.19,11.19,0,0,0-2.13,1c0,.25-.09.51-.13.76.77-.34,1.19-.53,1.27-.54a3.27,3.27,0,0,1,.47-.16,3.41,3.41,0,0,1,1.25-.05,5.75,5.75,0,0,1,1.52.44c.08-.27.16-.54.23-.81s.15-.54.22-.82a9.59,9.59,0,0,0-.73-1.08,5.2,5.2,0,0,0-.7-.75l-.31-.25-.27-.21-.42-.3,1.85-.71a31.7,31.7,0,0,1,1.63,6.28,2,2,0,0,1,0,.35,1.37,1.37,0,0,1-.08.35,4.13,4.13,0,0,1-.27.36,2.08,2.08,0,0,0-.62-.76,1,1,0,0,0-.76-.29.9.9,0,0,0-.58.37,1.23,1.23,0,0,0-.16.35,1.17,1.17,0,0,0,0,.42,1.16,1.16,0,0,0,.07.31,2.3,2.3,0,0,0,.15.32,1.41,1.41,0,0,0,.43.47,1.45,1.45,0,0,0-.42,1.09,2.9,2.9,0,0,0,0,.34,1,1,0,0,0,.09.28.73.73,0,0,0,.32.35,1.85,1.85,0,0,0,.42.09.75.75,0,0,0,.52-.28,3.27,3.27,0,0,0,.56-.87.35.35,0,0,1,.2.2,1.89,1.89,0,0,1,.06.18,1.5,1.5,0,0,1,0,.24c0,.24-.13.54-.49.87s-.54.43-.68.43l-3.46-.1c-.26.31-.53.61-.8.89l5.73.28q0,1-.15,2c.29-.33.58-.67.86-1,0-.24,0-.49,0-.73a.6.6,0,0,1,.21-.35h.16a.47.47,0,0,0,.26-.11c.14-.19.33-.45.54-.79Zm-8.44-12.7a.65.65,0,0,0,.11.12S176.46,25.53,176.42,25.44Z"/><path class="cls-5" d="M143.71,25.26h0Z"/><path class="cls-5" d="M166.59,52.6c0-.12-.21-.65-.27-.87a10.74,10.74,0,0,1-.14-1.08,12,12,0,0,1,0-1.45,4.38,4.38,0,0,0,0-.84c0-.19-.18-.47-.24-.71s.15-.33.27-.58-.09-.63-.2-.85a2.28,2.28,0,0,1-.14-.9,1,1,0,0,0,0-.58,1.77,1.77,0,0,0-.11-.38,2.18,2.18,0,0,1-.07-.6c0-.34-.11-.3-.21-.33s0,0-.06-.32a1.85,1.85,0,0,0-.41-.87c-.19-.22-.13-.22-.1-.6a.68.68,0,0,0-.09-.52,3.34,3.34,0,0,1,0-1.15,2.66,2.66,0,0,0,.06-.62,6.32,6.32,0,0,0-.37-1.24c-.12-.36-.13-.23-.17-.46s.07-.27,0-.48-.18-.14-.18-.14l-.1.12s-.08,0-.32,0,0,0-.11-.11a.34.34,0,0,0-.11-.1.48.48,0,0,0-.15.12,1.07,1.07,0,0,1-.23.29c-.13.1-.25,0-.38,0s0,0-.13-.16-.15,0-.22,0-.19.12-.24.22a3.4,3.4,0,0,0,0,.84c0,.09,0,.14,0,.25a.33.33,0,0,1,0,.18c0,.07-.24.18-.53.43a2.34,2.34,0,0,0-.49.6c-.15.21,0,.7,0,1s.1.38,0,.57-.21.22-.36.43a.63.63,0,0,1-.82.2c-.29-.19-.21-.23-.28-.53s-.17-.51-.29-.92-.13-.32-.13-.32c-.61-.28-.47.25-.47.55s0,.52,0,.51-.16-.14-.25-.3,0-.18-.15-.56a5.3,5.3,0,0,1-.13-1.13,5.23,5.23,0,0,0-.53-1.15c-.13-.29-.1-.25,0-.55s.08-.07.09-.16a.71.71,0,0,1-.08-.19c0-.06,0-.08.08-.18s.1-.14.24-.34a1.7,1.7,0,0,0,.2-.81c0-.27.09-.25.14-.37s.2,0,.44-.1.13-.11.16-.24a4.74,4.74,0,0,1,.17-.46c.08-.18.16,0,.23,0a1.89,1.89,0,0,0,.76.12c.27,0,.29,0,.29,0a1,1,0,0,1,0-.2,3,3,0,0,1,.09-.29.8.8,0,0,0,0-.16.1.1,0,0,1,.07-.07l.11.08a1.08,1.08,0,0,0,.41.21c.27.07.1,0,.15-.17s0,0-.07-.13a.84.84,0,0,1-.08-.2l.18-.07.19,0c.1,0,.11.09.2.27s.13.28.27.29.25-.2.28-.32a1,1,0,0,0,.07-.25,3,3,0,0,1,.09-.4c0-.14.06,0,.12-.06s.13,0,.15,0,.09-.06.07-.19-.06-.06-.06-.06v-.29a2,2,0,0,0,.46,0c.27,0,.27-.08.27-.08s.06-.37.06-.4a2.85,2.85,0,0,1,.13-.36c0-.12.07-.12.07-.12a1.56,1.56,0,0,0,.32,0,.4.4,0,0,0,.2-.06,3.81,3.81,0,0,0,0-.89c0-.18,0-.19.11-.32a.77.77,0,0,0,.06-.48c0-.24-.07-.16-.12-.32s0-.22.12-.24.2.07.62.21.57-.13.67-.32-.5-.72-.65-.91-.43-.23-.83-.36a4,4,0,0,1-.85-.44,3.34,3.34,0,0,0-1.4-.18,2.41,2.41,0,0,0-1.1.26c-.42.13-.28-.16-.38-.24s-.36,0-.45.16-.35.07-.53-.05a.45.45,0,0,0-.43,0s-.08,0-.45-.21-.42-.11-.52-.05-.16.09-.47,0-.3,0-.77,0-.34.1-.57.23a1.64,1.64,0,0,1-1-.09,2,2,0,0,0-1.23.09c-.09.09-.33.07-.33.07a3.61,3.61,0,0,1-.88-.17,4,4,0,0,0-.59-.21c-.22-.08-.52-.1-.79-.17l-.23-.06a2.84,2.84,0,0,0-.28-.26,1,1,0,0,0-.56-.09,2.14,2.14,0,0,1-.46-.06c-.18,0-.16-.08-.19-.1s0-.07,0-.16a3.11,3.11,0,0,1,0-.34,2.86,2.86,0,0,0,.12-.59c0-.34.07-.32.21-.68a.54.54,0,0,0-.17-.68c-.19-.21-.09-.27,0-.5s.38-.4.44-.71-.09-.42-.35-.63a2.09,2.09,0,0,1-.44-.5c-.1-.12-.07-.23-.08-.38a.52.52,0,0,0-.09-.25c0-.06-.16-.1-.22-.19a1.16,1.16,0,0,0-.2-.25c-.09-.09-.1,0-.24.07a.78.78,0,0,0-.34.53c0,.19.09.22.09.29a1.37,1.37,0,0,0-.07.41c0,.24-.74.17-1,.06a5.37,5.37,0,0,0-.59-.21,4.28,4.28,0,0,1-1-.94c-.06-.1-.15-.73-.21-1a1,1,0,0,0-.4-.54.85.85,0,0,0-.69-.07c-.15.06-.1.33-.07.42s.31.22.44.31.27.26.26.32-.17.07-.37.07-.24-.15-.38-.25-.2,0-.27.11-.14.1-.14.1-.55-.66-.85-1a5.65,5.65,0,0,0-1.1-.84,2.46,2.46,0,0,1-.46-.29s0-.41,0-.44,0-.06-.15-.06a.25.25,0,0,0-.25.21,2,2,0,0,1-.24.43.85.85,0,0,0-.1.59c0,.09.25.06.32,0s.14-.14.32-.1.26.23.32.42-.18.34-.4.44-.28.21-.42.42a1.12,1.12,0,0,1-.66.56c-.43.14-.54.9-.57,1.1s-.19.24-.3.43a1.81,1.81,0,0,0,0,.84.45.45,0,0,0,.51.3.49.49,0,0,0,.29-.2.82.82,0,0,1,.19.17,3,3,0,0,0,.73.59c.34.2.51.71.82,1a1.24,1.24,0,0,0,1,.42c.15-.09.22-.2.43-.19a.66.66,0,0,0,.2,0h0s0,.25.08.56.11.22.23.36a2.77,2.77,0,0,1,.28.36,2.39,2.39,0,0,1,0,.74c-.08.17-.72.06-.83.06s-.13,0-.33-.17-.42.06-.68.13a.29.29,0,0,1-.35-.1,4.36,4.36,0,0,0-.61,0,3.48,3.48,0,0,1-.07.65,1.45,1.45,0,0,1-.24.7c-.15.18-.35.21-.45.31s.08.29.07.37-.24.05-.56-.2a.64.64,0,0,0-.59-.15s0,.05-.05.42a1.61,1.61,0,0,1-.44.85,1.31,1.31,0,0,0-.28.68c0,.23.25.37.5.66a7.19,7.19,0,0,0,1.64,1.14,3.83,3.83,0,0,0,1,.45,2.84,2.84,0,0,1,.87.19c.17.09.18.39.18.64s-.14.23-.24.39,0,.24.11.5.1.28,0,.52-.26.24-.45.43a2,2,0,0,0-.54.77,2.16,2.16,0,0,0,0,1c0,.41.63.69.63.69a3.81,3.81,0,0,1,.52.32.39.39,0,0,1-.08.25c-.05.09-.16.32-.22.44a.82.82,0,0,0,0,.51c0,.29.2.34.2.34h1.29a1.24,1.24,0,0,1,0,.2c0,.08-.11.13-.2.17a1.92,1.92,0,0,0-.35.35,1.07,1.07,0,0,0-.18.6,1.27,1.27,0,0,0,.1.4.79.79,0,0,0,.13.26,2,2,0,0,1,.07.26,1.21,1.21,0,0,0,.19.29.28.28,0,0,1,.08.28c0,.14,0,.18-.19.26a.22.22,0,0,0-.06.31s.19.07.25.15,0,.15-.07.27a.56.56,0,0,0-.08.47.85.85,0,0,0,.27.38,1.22,1.22,0,0,1,0,.61,3.89,3.89,0,0,0-.08.51,2.21,2.21,0,0,0,.19.7,3.73,3.73,0,0,0,.32.42.35.35,0,0,1,0,.3,1.29,1.29,0,0,0-.07.38.86.86,0,0,0,.14.46.53.53,0,0,1,0,.35c0,.08-.07,0-.19.2s-.07.73,0,.88a.63.63,0,0,0,.25.36c.14.1.3.21.43.13s.08-.34,0-.46-.25-.15-.29-.21a3.11,3.11,0,0,1,0-.69c0-.09.13-.05.13,0s0,.22.05.43a.63.63,0,0,0,.08.31s.22,0,.23,0a.17.17,0,0,1,0-.07l.09,0s0,0,0,.07,0,0,0,0l.09,0v1s.09.11.16.12a.43.43,0,0,0,.27-.17.46.46,0,0,0,.08-.23.19.19,0,0,0,0-.13h-.05s0,0,0,0v-.11s0-.07.06-.1,0-.7,0-.8a.29.29,0,0,0-.09-.24c-.06-.06-.12-.05-.23-.42a1.51,1.51,0,0,1,.22-.91h.32a1.7,1.7,0,0,1,0,.24s0,0-.08.07,0,.12,0,.22a1.6,1.6,0,0,0,.37.42.48.48,0,0,1,.15.17v.51h-.52v.35a1.24,1.24,0,0,0,.21.06c.11,0,.05.09.1.2s.05.16.1.24.31,0,.49,0,.19-.33.19-.42,0-.08-.11-.14a.29.29,0,0,1-.07-.16,1.76,1.76,0,0,1,0-.33l.35,0s0-.21,0-.38,0-.18-.05-.2a1.09,1.09,0,0,0-.09-.11,1.08,1.08,0,0,1-.11-.18c0-.07,0-.14,0-.25s.12-.08.14-.08a.35.35,0,0,1,.07.12,1.08,1.08,0,0,1,0,.18.47.47,0,0,0,.1.18s0,.1.08.11.06,0,.08,0a.23.23,0,0,1,.08-.12s0-.07,0-.07v-.38h.77a.25.25,0,0,0,.08.09s.23,0,.28,0,.08.11.09.13l.07.09s.11,0,.11-.06a.2.2,0,0,0-.1-.14s0-.12,0-.12l.1,0,.15.06a.52.52,0,0,0,0,.11s0,.09.07.1a.28.28,0,0,0,.15,0s0-.18,0-.23.16-.07.18-.07.05.06.05.13v.28c0,.07,0,.08-.09.12s0,.12,0,.12.07,0,.1.07,0,.15,0,.19a.39.39,0,0,0,0,.15h.07V48.3a.21.21,0,0,1,0-.12.65.65,0,0,1,.49.1s.06.49.1.61.12.19.28.24a2.38,2.38,0,0,0,.85.24c.27,0,.37-.38.45-.44s.15,0,.19.12.26,0,.26,0l0-.39a1.84,1.84,0,0,0,.48,0c.18,0,.34-.29.42-.41a1.5,1.5,0,0,1,.46-.3c.12.37.59.11.59.11a2.23,2.23,0,0,0,1.19-1.7c0-.61.31-.5.31-.5.24.26,0,.86,0,.86a1.06,1.06,0,0,0-.34.89.26.26,0,0,0,.34,0c.63-.53.41-3,.41-3H158l.32-.16c.25-.12.21-.08.32-.2a2.16,2.16,0,0,0,.22-.48c0-.09.14,0,.25,0s.12-.08.28-.22.35,0,.37.06.48.6.55.73.52.83.65,1.14a4.64,4.64,0,0,1,.27,1,2.43,2.43,0,0,0,.43.9c.11.14.05.4.1.71a.84.84,0,0,1-.14.66.67.67,0,0,1-.16.06,10.82,10.82,0,0,0,0,1.15c0,.22.12.24.27.52a.8.8,0,0,1,0,.76c-.08.12-.08.13,0,.31s.45.09.53.28,0,.15.18.38.15.78.22,1.07a2.31,2.31,0,0,0,.44.82,2.4,2.4,0,0,1,.34.56c.09.2.28.53.42.79s.44.8.59,1,.3.22.34.08a1.76,1.76,0,0,0-.26-.76c-.11-.2-.13-.39-.26-.7a1.76,1.76,0,0,1-.17-.67,2.5,2.5,0,0,0-.39-.76.74.74,0,0,1-.09-.51,2.64,2.64,0,0,1,.07-.55c.05-.24.65-.65.65-.65.45-.39.59.47.59.47s0,.13.3,0,.27-.13.38-.13.18.31.21.43a.64.64,0,0,0,.4.32C166.44,53.09,166.61,52.72,166.59,52.6ZM154,47.46a1.54,1.54,0,0,1-.17.13,1.47,1.47,0,0,0-.25.25.57.57,0,0,1-.35.21c-.19,0-.27,0-.47,0s-.19.2-.35.23a1,1,0,0,1-.62,0c-.16-.09,0-.43.09-.57s.49,0,.55.07.19,0,.22-.08.1,0,.23,0a1.42,1.42,0,0,0,.8-.34.33.33,0,0,1,.32-.11.14.14,0,0,1,.07.11A.08.08,0,0,1,154,47.46Z"/><path class="cls-5" d="M149.79,48.22l0-.22-.09,0s-.24,0-.24,0a.41.41,0,0,0-.13.34c.05.18,0,.3.06.42a.31.31,0,0,0,.33.15c.1,0,.24,0,.25-.12a1,1,0,0,0,0-.3S149.8,48.28,149.79,48.22Z"/><path class="cls-5" d="M149,48.46c0-.14.1-.3.14-.37s0-.28,0-.28a2.25,2.25,0,0,0-.36,0c-.14,0-.15.1-.18.19a1.34,1.34,0,0,0,0,.84.5.5,0,0,0,.59.33c.16,0,.13-.19,0-.36A1,1,0,0,1,149,48.46Z"/><path class="cls-5" d="M148.72,49.24c-.14-.09-.25-.22-.32-.26s-.16-.45-.16-.45-.26-.09-.34,0,0,.21,0,.28-.05.18-.08.19-.06.13-.08.15,0,.1,0,.14a.41.41,0,0,0,.08.14c0,.06,0,.13,0,.22a.37.37,0,0,0,.12.31c.1.07.27-.1.25-.23a.71.71,0,0,0-.16-.31c-.05-.09.06-.14.06-.14l.18.18s.31.22.46.2S148.86,49.34,148.72,49.24Z"/><path class="cls-5" d="M146.61,49.93l0-.08-.24,0s0,.1,0,.1a.16.16,0,0,1,.1,0s0,0,0,0,0,.09.08.09l.15,0s0,0,0,0l-.08-.08S146.62,50,146.61,49.93Z"/><path class="cls-5" d="M153.63,49.07a2.24,2.24,0,0,0-.27,0c-.13,0-.09-.12-.13-.15A1.24,1.24,0,0,0,153,49c-.08,0,0,.12,0,.16s.16.13.2.15a1.12,1.12,0,0,0,.29,0,.5.5,0,0,0,.2-.08c.07,0,0-.07,0-.12S153.67,49.1,153.63,49.07Z"/><path class="cls-5" d="M153.92,48.3l-.21.09a.11.11,0,0,0-.07.12c0,.08,0,.16,0,.22s.18.15.26.11.09-.13.15-.15a.39.39,0,0,0,.06-.32A.28.28,0,0,0,153.92,48.3Z"/><path class="cls-5" d="M154.86,48.54s.06-.19,0-.22a.35.35,0,0,0-.2-.07,1.16,1.16,0,0,0-.22.1l-.16.1s-.1.19,0,.27.18.13.3.05A1.18,1.18,0,0,0,154.86,48.54Z"/><path class="cls-5" d="M155,48.65a1.08,1.08,0,0,0-.08.2c0,.13-.07.12-.15.17a.22.22,0,0,0-.14.16c0,.07,0,.19.06.22s.42.07.49,0,.19-.33.13-.47S155.15,48.61,155,48.65Z"/><path class="cls-5" d="M157.54,44.89a1.31,1.31,0,0,0-.35-.11c-.07,0-.21,0-.24.15s0,1.86,0,2-.11.63-.11.63-.4.12-.39.22-.1.47.19.36.26-.25.41-.35a2.21,2.21,0,0,0,.72-1,2.09,2.09,0,0,0-.15-.93c-.06-.18-.12-.31-.12-.34s0-.12,0-.11.07.2.19.29a.41.41,0,0,0,.32,0s0-.46-.09-.54A1.71,1.71,0,0,0,157.54,44.89Z"/><path class="cls-5" d="M159.64,44.46a.78.78,0,0,0-.28-.41s-.23-.15-.29.2a1.6,1.6,0,0,0,.08,1.18c.25.49.34.66.59.51s.41-.29.24-.7A3.76,3.76,0,0,1,159.64,44.46Z"/></g></g></svg>