<?xml version="1.0" encoding="utf-8"?>
<!-- Generator: Adobe Illustrator 23.0.3, SVG Export Plug-In . SVG Version: 6.00 Build 0)  -->
<svg version="1.1" id="Layer_1" xmlns="http://www.w3.org/2000/svg" xmlns:xlink="http://www.w3.org/1999/xlink" x="0px" y="0px"
	 viewBox="0 0 432 288" style="enable-background:new 0 0 432 288;" xml:space="preserve">
<style type="text/css">
	.st0{fill:url(#SVGID_1_);}
	.st1{fill:url(#SVGID_2_);}
	.st2{fill:url(#SVGID_3_);}
	.st3{fill:url(#SVGID_4_);}
	.st4{fill:url(#SVGID_5_);}
	.st5{fill:url(#SVGID_6_);}
	.st6{fill:url(#SVGID_7_);}
	.st7{fill:url(#SVGID_8_);}
	.st8{fill:url(#SVGID_9_);}
	.st9{fill:url(#SVGID_10_);}
	.st10{fill:url(#SVGID_11_);}
	.st11{fill:url(#SVGID_12_);}
	.st12{fill:url(#SVGID_13_);}
	.st13{fill:url(#SVGID_14_);}
	.st14{fill:url(#SVGID_15_);}
	.st15{fill:url(#SVGID_16_);}
	.st16{fill:url(#SVGID_17_);}
	.st17{fill:url(#SVGID_18_);}
	.st18{fill:url(#SVGID_19_);}
	.st19{fill:url(#SVGID_20_);}
	.st20{fill:url(#SVGID_21_);}
	.st21{fill:url(#SVGID_22_);}
	.st22{fill:url(#SVGID_23_);}
	.st23{fill:url(#SVGID_24_);}
	.st24{fill:url(#SVGID_25_);}
	.st25{fill:url(#SVGID_26_);}
	.st26{fill:#F36E21;}
	.st27{fill:url(#SVGID_27_);}
	.st28{fill:url(#SVGID_28_);}
	.st29{fill:url(#SVGID_29_);}
	.st30{fill:url(#SVGID_30_);}
	.st31{fill:url(#SVGID_31_);}
</style>
<g>
	<g>
		<linearGradient id="SVGID_1_" gradientUnits="userSpaceOnUse" x1="72.4768" y1="144.9749" x2="158.7222" y2="144.9749">
			<stop  offset="0" style="stop-color:#B52025"/>
			<stop  offset="0.1234" style="stop-color:#B92325"/>
			<stop  offset="0.2486" style="stop-color:#C62E26"/>
			<stop  offset="0.3744" style="stop-color:#DC3F29"/>
			<stop  offset="0.4382" style="stop-color:#F04C2A"/>
			<stop  offset="0.5306" style="stop-color:#CF3E29"/>
			<stop  offset="0.7438" style="stop-color:#9B2523"/>
			<stop  offset="0.9071" style="stop-color:#7E161C"/>
			<stop  offset="1" style="stop-color:#74101A"/>
		</linearGradient>
		<path class="st0" d="M74.49,147.09h3.16c0.01,0.34,0.04,0.58,0.08,0.71c0.07,0.23,0.22,0.39,0.44,0.47
			c0.18,0.07,0.47,0.11,0.87,0.12l1.25,0.04c0.19,0.01,0.98-0.01,2.37-0.03c0.56-0.01,0.96-0.06,1.19-0.15
			c0.42-0.16,0.64-0.48,0.64-0.95c0-0.59-0.31-0.93-0.93-1.02c-0.16-0.04-0.7-0.05-1.63-0.05h-2.92c-1.44,0-2.41-0.09-2.92-0.26
			c-0.64-0.22-1.09-0.63-1.35-1.24c-0.2-0.46-0.29-1.12-0.29-1.97c0-1.36,0.29-2.3,0.86-2.81c0.48-0.43,1.37-0.72,2.67-0.85
			c0.52-0.05,1.55-0.08,3.09-0.08c2.2,0,3.58,0.07,4.15,0.21c0.75,0.18,1.28,0.53,1.59,1.04c0.28,0.46,0.43,1.13,0.43,2.01v0.4H84.1
			c-0.01-0.6-0.3-0.97-0.87-1.1c-0.12-0.03-0.64-0.04-1.54-0.04c-1.27,0-2.24,0.03-2.93,0.09c-0.37,0.03-0.64,0.09-0.8,0.2
			c-0.23,0.15-0.34,0.41-0.34,0.78c0,0.49,0.23,0.81,0.68,0.94c0.2,0.06,0.63,0.09,1.3,0.09h3c0.2,0,0.73,0.01,1.58,0.03
			c0.99,0.04,1.69,0.15,2.1,0.34c0.93,0.43,1.39,1.49,1.39,3.19c0,1.57-0.39,2.59-1.16,3.06c-0.73,0.44-2.61,0.66-5.64,0.66
			c-2.31,0-3.83-0.08-4.55-0.25c-0.7-0.16-1.19-0.5-1.48-1.02c-0.25-0.45-0.37-1.09-0.37-1.93
			C74.48,147.62,74.49,147.42,74.49,147.09z"/>
		<linearGradient id="SVGID_2_" gradientUnits="userSpaceOnUse" x1="72.4768" y1="146.7223" x2="158.7222" y2="146.7223">
			<stop  offset="0" style="stop-color:#B52025"/>
			<stop  offset="0.1234" style="stop-color:#B92325"/>
			<stop  offset="0.2486" style="stop-color:#C62E26"/>
			<stop  offset="0.3744" style="stop-color:#DC3F29"/>
			<stop  offset="0.4382" style="stop-color:#F04C2A"/>
			<stop  offset="0.5306" style="stop-color:#CF3E29"/>
			<stop  offset="0.7438" style="stop-color:#9B2523"/>
			<stop  offset="0.9071" style="stop-color:#7E161C"/>
			<stop  offset="1" style="stop-color:#74101A"/>
		</linearGradient>
		<path class="st1" d="M96.97,150.83v-1.45c-0.21,0.76-0.67,1.25-1.38,1.47c-0.36,0.11-1.04,0.16-2.06,0.16
			c-1.64,0-2.68-0.18-3.13-0.53c-0.49-0.39-0.74-1.1-0.74-2.13c0-1.05,0.25-1.76,0.74-2.15c0.39-0.3,1.01-0.49,1.86-0.57
			c0.26-0.02,0.92-0.03,1.97-0.03c0.74,0,1.24,0.03,1.51,0.1c0.6,0.14,0.98,0.45,1.14,0.94v-0.9c0-0.38-0.03-0.65-0.09-0.81
			c-0.11-0.3-0.45-0.49-1.02-0.55c-0.12-0.02-0.53-0.03-1.22-0.03c-0.72,0-1.1,0-1.13,0.01c-0.46,0.07-0.71,0.28-0.74,0.64h-2.73
			c0.03-0.51,0.11-0.91,0.26-1.2c0.17-0.32,0.44-0.59,0.83-0.82c0.45-0.26,1.11-0.43,1.98-0.5c0.36-0.03,1.04-0.04,2.05-0.04
			c1.77,0,2.95,0.18,3.55,0.53c0.54,0.32,0.88,0.88,1.02,1.69c0.03,0.15,0.04,0.51,0.04,1.07v5.1H96.97z M94.52,147.27
			c-0.67,0-1.11,0.02-1.3,0.06c-0.56,0.11-0.84,0.4-0.84,0.86c0,0.48,0.28,0.78,0.83,0.88c0.19,0.03,0.71,0.05,1.56,0.05
			c0.7,0,1.17-0.03,1.42-0.08c0.49-0.1,0.73-0.39,0.73-0.87c0-0.48-0.32-0.77-0.97-0.87C95.82,147.29,95.34,147.27,94.52,147.27z"/>
		<linearGradient id="SVGID_3_" gradientUnits="userSpaceOnUse" x1="72.4768" y1="144.8703" x2="158.7222" y2="144.8703">
			<stop  offset="0" style="stop-color:#B52025"/>
			<stop  offset="0.1234" style="stop-color:#B92325"/>
			<stop  offset="0.2486" style="stop-color:#C62E26"/>
			<stop  offset="0.3744" style="stop-color:#DC3F29"/>
			<stop  offset="0.4382" style="stop-color:#F04C2A"/>
			<stop  offset="0.5306" style="stop-color:#CF3E29"/>
			<stop  offset="0.7438" style="stop-color:#9B2523"/>
			<stop  offset="0.9071" style="stop-color:#7E161C"/>
			<stop  offset="1" style="stop-color:#74101A"/>
		</linearGradient>
		<path class="st2" d="M103.04,150.83v-6.15h-1.46v-2.06h1.46v-0.27c0-0.9,0.1-1.57,0.3-2c0.29-0.64,0.8-1.06,1.52-1.26
			c0.41-0.11,1.08-0.17,2-0.17c0.39,0,0.9,0.03,1.51,0.09v1.97c-0.49-0.02-0.85-0.03-1.07-0.03c-0.55,0-0.93,0.09-1.14,0.26
			c-0.26,0.21-0.39,0.6-0.39,1.17v0.24h2.77v2.06h-2.77v6.15H103.04z"/>
		<linearGradient id="SVGID_4_" gradientUnits="userSpaceOnUse" x1="72.4768" y1="144.8703" x2="158.7222" y2="144.8703">
			<stop  offset="0" style="stop-color:#B52025"/>
			<stop  offset="0.1234" style="stop-color:#B92325"/>
			<stop  offset="0.2486" style="stop-color:#C62E26"/>
			<stop  offset="0.3744" style="stop-color:#DC3F29"/>
			<stop  offset="0.4382" style="stop-color:#F04C2A"/>
			<stop  offset="0.5306" style="stop-color:#CF3E29"/>
			<stop  offset="0.7438" style="stop-color:#9B2523"/>
			<stop  offset="0.9071" style="stop-color:#7E161C"/>
			<stop  offset="1" style="stop-color:#74101A"/>
		</linearGradient>
		<path class="st3" d="M111.42,150.83v-6.15h-1.46v-2.06h1.46v-0.27c0-0.9,0.1-1.57,0.3-2c0.29-0.64,0.8-1.06,1.52-1.26
			c0.41-0.11,1.08-0.17,2-0.17c0.39,0,0.9,0.03,1.51,0.09v1.97c-0.49-0.02-0.85-0.03-1.07-0.03c-0.55,0-0.93,0.09-1.14,0.26
			c-0.26,0.21-0.39,0.6-0.39,1.17v0.24h2.77v2.06h-2.77v6.15H111.42z"/>
		<linearGradient id="SVGID_5_" gradientUnits="userSpaceOnUse" x1="72.4768" y1="146.6326" x2="158.7222" y2="146.6326">
			<stop  offset="0" style="stop-color:#B52025"/>
			<stop  offset="0.1234" style="stop-color:#B92325"/>
			<stop  offset="0.2486" style="stop-color:#C62E26"/>
			<stop  offset="0.3744" style="stop-color:#DC3F29"/>
			<stop  offset="0.4382" style="stop-color:#F04C2A"/>
			<stop  offset="0.5306" style="stop-color:#CF3E29"/>
			<stop  offset="0.7438" style="stop-color:#9B2523"/>
			<stop  offset="0.9071" style="stop-color:#7E161C"/>
			<stop  offset="1" style="stop-color:#74101A"/>
		</linearGradient>
		<path class="st4" d="M118.54,150.83v-8.21h2.63v1.83c0.12-0.37,0.21-0.63,0.28-0.76c0.12-0.26,0.28-0.47,0.46-0.63
			c0.49-0.42,1.25-0.63,2.3-0.63c1.18,0,2,0.3,2.45,0.91c0.33,0.45,0.5,1.24,0.5,2.38c0,0.09,0,0.27-0.01,0.53h-2.54
			c0-0.06,0-0.1,0-0.13c0-0.51-0.14-0.87-0.41-1.08c-0.22-0.17-0.57-0.25-1.06-0.25c-0.78,0-1.31,0.24-1.6,0.72
			c-0.19,0.31-0.28,0.82-0.28,1.52v3.79H118.54z"/>
		<linearGradient id="SVGID_6_" gradientUnits="userSpaceOnUse" x1="72.4768" y1="146.7223" x2="158.7222" y2="146.7223">
			<stop  offset="0" style="stop-color:#B52025"/>
			<stop  offset="0.1234" style="stop-color:#B92325"/>
			<stop  offset="0.2486" style="stop-color:#C62E26"/>
			<stop  offset="0.3744" style="stop-color:#DC3F29"/>
			<stop  offset="0.4382" style="stop-color:#F04C2A"/>
			<stop  offset="0.5306" style="stop-color:#CF3E29"/>
			<stop  offset="0.7438" style="stop-color:#9B2523"/>
			<stop  offset="0.9071" style="stop-color:#7E161C"/>
			<stop  offset="1" style="stop-color:#74101A"/>
		</linearGradient>
		<path class="st5" d="M133.8,142.44c1.33,0,2.39,0.08,3.19,0.23c0.95,0.18,1.57,0.64,1.86,1.36c0.18,0.45,0.27,1.27,0.27,2.47
			c0,1.46-0.1,2.43-0.3,2.93c-0.31,0.75-1.07,1.24-2.3,1.45c-0.51,0.09-1.46,0.13-2.85,0.13c-2.21,0-3.63-0.27-4.26-0.81
			c-0.41-0.35-0.68-0.89-0.79-1.62c-0.05-0.33-0.08-0.96-0.08-1.9c0-1.37,0.13-2.31,0.4-2.83c0.34-0.65,1.08-1.08,2.22-1.28
			C131.7,142.48,132.57,142.44,133.8,142.44z M133.78,144.68c-1,0-1.65,0.09-1.94,0.27c-0.38,0.24-0.57,0.83-0.57,1.76
			c0,0.48,0.02,0.81,0.05,1c0.07,0.37,0.23,0.64,0.49,0.81c0.29,0.19,0.96,0.28,2.03,0.28c1.12,0,1.81-0.11,2.09-0.32
			c0.32-0.25,0.48-0.81,0.48-1.71c0-0.53-0.02-0.89-0.07-1.09c-0.12-0.51-0.47-0.83-1.06-0.95
			C135.09,144.7,134.59,144.68,133.78,144.68z"/>
		<linearGradient id="SVGID_7_" gradientUnits="userSpaceOnUse" x1="72.4768" y1="146.6326" x2="158.7222" y2="146.6326">
			<stop  offset="0" style="stop-color:#B52025"/>
			<stop  offset="0.1234" style="stop-color:#B92325"/>
			<stop  offset="0.2486" style="stop-color:#C62E26"/>
			<stop  offset="0.3744" style="stop-color:#DC3F29"/>
			<stop  offset="0.4382" style="stop-color:#F04C2A"/>
			<stop  offset="0.5306" style="stop-color:#CF3E29"/>
			<stop  offset="0.7438" style="stop-color:#9B2523"/>
			<stop  offset="0.9071" style="stop-color:#7E161C"/>
			<stop  offset="1" style="stop-color:#74101A"/>
		</linearGradient>
		<path class="st6" d="M141.16,150.83v-8.21h2.66v1.91c0.18-0.75,0.48-1.28,0.91-1.57c0.51-0.35,1.35-0.52,2.52-0.52
			c1.6,0,2.7,0.39,3.31,1.17c0.45,0.58,0.67,1.53,0.67,2.87v4.36h-2.72v-4.23c0-0.79-0.21-1.31-0.63-1.55
			c-0.29-0.17-0.84-0.25-1.65-0.25c-0.86,0-1.46,0.15-1.79,0.44c-0.37,0.33-0.56,0.96-0.56,1.89v3.71H141.16z"/>
	</g>
	<g>
		<linearGradient id="SVGID_8_" gradientUnits="userSpaceOnUse" x1="232.5018" y1="144.358" x2="396.8532" y2="162.2019">
			<stop  offset="0" style="stop-color:#B52025"/>
			<stop  offset="0.1234" style="stop-color:#B92325"/>
			<stop  offset="0.2486" style="stop-color:#C62E26"/>
			<stop  offset="0.3744" style="stop-color:#DC3F29"/>
			<stop  offset="0.4382" style="stop-color:#F04C2A"/>
			<stop  offset="0.5306" style="stop-color:#CF3E29"/>
			<stop  offset="0.7438" style="stop-color:#9B2523"/>
			<stop  offset="0.9071" style="stop-color:#7E161C"/>
			<stop  offset="1" style="stop-color:#74101A"/>
		</linearGradient>
		<path class="st7" d="M244.91,146.76h3.11v0.53c0,1.1-0.12,1.9-0.35,2.4c-0.3,0.66-0.88,1.1-1.74,1.32
			c-0.42,0.11-1.05,0.18-1.88,0.22c-0.57,0.02-1.7,0.03-3.38,0.03c-1.38,0-2.43-0.05-3.16-0.15c-1.38-0.19-2.24-0.87-2.6-2.03
			c-0.25-0.8-0.37-2.15-0.37-4.03c0-1.47,0.08-2.49,0.23-3.07c0.28-1.05,0.88-1.76,1.79-2.15c0.72-0.3,2.18-0.46,4.38-0.46
			c2.77,0,4.47,0.1,5.08,0.31c0.73,0.25,1.24,0.69,1.53,1.33c0.22,0.5,0.33,1.22,0.33,2.14v0.4h-3.08
			c-0.03-0.39-0.08-0.66-0.16-0.82c-0.16-0.31-0.63-0.49-1.4-0.55c-0.06-0.01-0.57-0.01-1.54-0.01c-1.54,0-2.45,0.03-2.73,0.09
			c-0.75,0.15-1.15,0.7-1.21,1.65c-0.02,0.32-0.03,0.83-0.03,1.53c0,1.29,0.15,2.11,0.44,2.44c0.24,0.27,0.7,0.44,1.39,0.51
			c0.23,0.02,0.73,0.03,1.5,0.03c1.81,0,2.88-0.08,3.21-0.23C244.69,148,244.9,147.52,244.91,146.76z"/>
		<linearGradient id="SVGID_9_" gradientUnits="userSpaceOnUse" x1="232.4772" y1="144.5846" x2="396.8286" y2="162.4284">
			<stop  offset="0" style="stop-color:#B52025"/>
			<stop  offset="0.1234" style="stop-color:#B92325"/>
			<stop  offset="0.2486" style="stop-color:#C62E26"/>
			<stop  offset="0.3744" style="stop-color:#DC3F29"/>
			<stop  offset="0.4382" style="stop-color:#F04C2A"/>
			<stop  offset="0.5306" style="stop-color:#CF3E29"/>
			<stop  offset="0.7438" style="stop-color:#9B2523"/>
			<stop  offset="0.9071" style="stop-color:#7E161C"/>
			<stop  offset="1" style="stop-color:#74101A"/>
		</linearGradient>
		<path class="st8" d="M255.27,142.78c1.33,0,2.39,0.08,3.19,0.23c0.95,0.18,1.57,0.64,1.86,1.36c0.18,0.45,0.27,1.27,0.27,2.47
			c0,1.46-0.1,2.43-0.3,2.93c-0.31,0.75-1.07,1.24-2.3,1.45c-0.51,0.09-1.46,0.13-2.85,0.13c-2.21,0-3.63-0.27-4.26-0.81
			c-0.41-0.35-0.68-0.89-0.79-1.62c-0.05-0.33-0.08-0.96-0.08-1.9c0-1.37,0.13-2.31,0.4-2.83c0.34-0.65,1.08-1.08,2.22-1.28
			C253.17,142.82,254.05,142.78,255.27,142.78z M255.26,145.02c-1,0-1.65,0.09-1.94,0.27c-0.38,0.24-0.57,0.83-0.57,1.76
			c0,0.48,0.02,0.81,0.05,1c0.07,0.37,0.23,0.64,0.49,0.81c0.29,0.19,0.96,0.28,2.03,0.28c1.12,0,1.81-0.11,2.09-0.32
			c0.32-0.25,0.48-0.81,0.48-1.71c0-0.53-0.02-0.89-0.07-1.09c-0.12-0.51-0.47-0.83-1.06-0.95
			C256.56,145.04,256.06,145.02,255.26,145.02z"/>
		<linearGradient id="SVGID_10_" gradientUnits="userSpaceOnUse" x1="232.6068" y1="143.3904" x2="396.9583" y2="161.2343">
			<stop  offset="0" style="stop-color:#B52025"/>
			<stop  offset="0.1234" style="stop-color:#B92325"/>
			<stop  offset="0.2486" style="stop-color:#C62E26"/>
			<stop  offset="0.3744" style="stop-color:#DC3F29"/>
			<stop  offset="0.4382" style="stop-color:#F04C2A"/>
			<stop  offset="0.5306" style="stop-color:#CF3E29"/>
			<stop  offset="0.7438" style="stop-color:#9B2523"/>
			<stop  offset="0.9071" style="stop-color:#7E161C"/>
			<stop  offset="1" style="stop-color:#74101A"/>
		</linearGradient>
		<path class="st9" d="M262.63,151.17v-8.21h2.63v1.83c0.12-0.37,0.21-0.63,0.28-0.76c0.12-0.26,0.28-0.47,0.46-0.63
			c0.49-0.42,1.25-0.63,2.3-0.63c1.18,0,2,0.3,2.45,0.91c0.33,0.45,0.5,1.24,0.5,2.38c0,0.09,0,0.27-0.01,0.53h-2.54
			c0-0.06,0-0.1,0-0.13c0-0.51-0.14-0.87-0.41-1.08c-0.22-0.17-0.57-0.25-1.06-0.25c-0.78,0-1.31,0.24-1.6,0.72
			c-0.19,0.31-0.28,0.82-0.28,1.52v3.79H262.63z"/>
		<linearGradient id="SVGID_11_" gradientUnits="userSpaceOnUse" x1="232.5382" y1="144.0224" x2="396.8897" y2="161.8662">
			<stop  offset="0" style="stop-color:#B52025"/>
			<stop  offset="0.1234" style="stop-color:#B92325"/>
			<stop  offset="0.2486" style="stop-color:#C62E26"/>
			<stop  offset="0.3744" style="stop-color:#DC3F29"/>
			<stop  offset="0.4382" style="stop-color:#F04C2A"/>
			<stop  offset="0.5306" style="stop-color:#CF3E29"/>
			<stop  offset="0.7438" style="stop-color:#9B2523"/>
			<stop  offset="0.9071" style="stop-color:#7E161C"/>
			<stop  offset="1" style="stop-color:#74101A"/>
		</linearGradient>
		<path class="st10" d="M275.53,142.96v1.74c0.21-0.9,0.64-1.48,1.3-1.72c0.35-0.13,1.08-0.2,2.17-0.2c2.29,0,3.66,0.52,4.11,1.56
			c0.23,0.53,0.34,1.42,0.34,2.67c0,0.83-0.04,1.45-0.11,1.87c-0.12,0.73-0.38,1.26-0.76,1.61c-0.62,0.57-1.84,0.86-3.65,0.86
			c-0.9,0-1.57-0.08-2.03-0.23c-0.75-0.25-1.21-0.74-1.37-1.47v5.1h-2.72v-11.8H275.53z M278.28,145.02
			c-1.26-0.01-2.02,0.09-2.27,0.3c-0.32,0.26-0.48,0.84-0.48,1.74c0,0.47,0.02,0.8,0.06,0.99c0.08,0.36,0.25,0.61,0.51,0.75
			c0.31,0.17,1.01,0.25,2.11,0.25c1.08,0,1.74-0.1,1.98-0.32c0.3-0.26,0.44-0.86,0.44-1.79c0-0.85-0.19-1.4-0.57-1.66
			C279.8,145.12,279.21,145.03,278.28,145.02z"/>
		<linearGradient id="SVGID_12_" gradientUnits="userSpaceOnUse" x1="232.8863" y1="140.8163" x2="397.2378" y2="158.6602">
			<stop  offset="0" style="stop-color:#B52025"/>
			<stop  offset="0.1234" style="stop-color:#B92325"/>
			<stop  offset="0.2486" style="stop-color:#C62E26"/>
			<stop  offset="0.3744" style="stop-color:#DC3F29"/>
			<stop  offset="0.4382" style="stop-color:#F04C2A"/>
			<stop  offset="0.5306" style="stop-color:#CF3E29"/>
			<stop  offset="0.7438" style="stop-color:#9B2523"/>
			<stop  offset="0.9071" style="stop-color:#7E161C"/>
			<stop  offset="1" style="stop-color:#74101A"/>
		</linearGradient>
		<path class="st11" d="M290.39,142.78c1.33,0,2.39,0.08,3.19,0.23c0.95,0.18,1.57,0.64,1.86,1.36c0.18,0.45,0.27,1.27,0.27,2.47
			c0,1.46-0.1,2.43-0.3,2.93c-0.31,0.75-1.07,1.24-2.3,1.45c-0.51,0.09-1.46,0.13-2.85,0.13c-2.21,0-3.63-0.27-4.26-0.81
			c-0.41-0.35-0.68-0.89-0.79-1.62c-0.05-0.33-0.08-0.96-0.08-1.9c0-1.37,0.13-2.31,0.4-2.83c0.34-0.65,1.08-1.08,2.22-1.28
			C288.29,142.82,289.16,142.78,290.39,142.78z M290.37,145.02c-1,0-1.65,0.09-1.94,0.27c-0.38,0.24-0.57,0.83-0.57,1.76
			c0,0.48,0.02,0.81,0.05,1c0.07,0.37,0.23,0.64,0.49,0.81c0.29,0.19,0.96,0.28,2.03,0.28c1.12,0,1.81-0.11,2.09-0.32
			c0.32-0.25,0.48-0.81,0.48-1.71c0-0.53-0.02-0.89-0.07-1.09c-0.12-0.51-0.47-0.83-1.06-0.95
			C291.68,145.04,291.18,145.02,290.37,145.02z"/>
		<linearGradient id="SVGID_13_" gradientUnits="userSpaceOnUse" x1="233.0159" y1="139.6222" x2="397.3674" y2="157.466">
			<stop  offset="0" style="stop-color:#B52025"/>
			<stop  offset="0.1234" style="stop-color:#B92325"/>
			<stop  offset="0.2486" style="stop-color:#C62E26"/>
			<stop  offset="0.3744" style="stop-color:#DC3F29"/>
			<stop  offset="0.4382" style="stop-color:#F04C2A"/>
			<stop  offset="0.5306" style="stop-color:#CF3E29"/>
			<stop  offset="0.7438" style="stop-color:#9B2523"/>
			<stop  offset="0.9071" style="stop-color:#7E161C"/>
			<stop  offset="1" style="stop-color:#74101A"/>
		</linearGradient>
		<path class="st12" d="M297.75,151.17v-8.21h2.63v1.83c0.12-0.37,0.21-0.63,0.28-0.76c0.12-0.26,0.28-0.47,0.46-0.63
			c0.49-0.42,1.25-0.63,2.3-0.63c1.18,0,2,0.3,2.45,0.91c0.33,0.45,0.5,1.24,0.5,2.38c0,0.09,0,0.27-0.01,0.53h-2.54
			c0-0.06,0-0.1,0-0.13c0-0.51-0.14-0.87-0.41-1.08c-0.22-0.17-0.57-0.25-1.06-0.25c-0.78,0-1.31,0.24-1.6,0.72
			c-0.19,0.31-0.28,0.82-0.28,1.52v3.79H297.75z"/>
		<linearGradient id="SVGID_14_" gradientUnits="userSpaceOnUse" x1="233.1415" y1="138.4655" x2="397.493" y2="156.3094">
			<stop  offset="0" style="stop-color:#B52025"/>
			<stop  offset="0.1234" style="stop-color:#B92325"/>
			<stop  offset="0.2486" style="stop-color:#C62E26"/>
			<stop  offset="0.3744" style="stop-color:#DC3F29"/>
			<stop  offset="0.4382" style="stop-color:#F04C2A"/>
			<stop  offset="0.5306" style="stop-color:#CF3E29"/>
			<stop  offset="0.7438" style="stop-color:#9B2523"/>
			<stop  offset="0.9071" style="stop-color:#7E161C"/>
			<stop  offset="1" style="stop-color:#74101A"/>
		</linearGradient>
		<path class="st13" d="M314.94,151.17v-1.45c-0.21,0.76-0.67,1.25-1.38,1.47c-0.36,0.11-1.04,0.16-2.06,0.16
			c-1.64,0-2.68-0.18-3.13-0.53c-0.49-0.39-0.74-1.1-0.74-2.13c0-1.05,0.25-1.76,0.74-2.15c0.39-0.3,1.01-0.49,1.86-0.57
			c0.26-0.02,0.92-0.03,1.97-0.03c0.74,0,1.24,0.03,1.51,0.1c0.6,0.14,0.98,0.45,1.14,0.94v-0.9c0-0.38-0.03-0.65-0.09-0.81
			c-0.11-0.3-0.45-0.49-1.02-0.55c-0.12-0.02-0.53-0.03-1.22-0.03c-0.72,0-1.1,0-1.13,0.01c-0.46,0.07-0.71,0.28-0.74,0.64h-2.73
			c0.03-0.51,0.11-0.91,0.26-1.2c0.17-0.32,0.44-0.59,0.83-0.82c0.45-0.26,1.11-0.43,1.98-0.5c0.36-0.03,1.04-0.04,2.05-0.04
			c1.77,0,2.95,0.18,3.55,0.53c0.54,0.32,0.88,0.88,1.02,1.69c0.03,0.15,0.04,0.51,0.04,1.07v5.1H314.94z M312.49,147.62
			c-0.67,0-1.11,0.02-1.3,0.06c-0.56,0.11-0.84,0.4-0.84,0.86c0,0.48,0.28,0.78,0.83,0.88c0.19,0.03,0.71,0.05,1.56,0.05
			c0.7,0,1.17-0.03,1.42-0.08c0.49-0.1,0.73-0.39,0.73-0.87c0-0.48-0.32-0.77-0.97-0.87C313.78,147.63,313.31,147.62,312.49,147.62z
			"/>
		<linearGradient id="SVGID_15_" gradientUnits="userSpaceOnUse" x1="233.3681" y1="136.3786" x2="397.7196" y2="154.2225">
			<stop  offset="0" style="stop-color:#B52025"/>
			<stop  offset="0.1234" style="stop-color:#B92325"/>
			<stop  offset="0.2486" style="stop-color:#C62E26"/>
			<stop  offset="0.3744" style="stop-color:#DC3F29"/>
			<stop  offset="0.4382" style="stop-color:#F04C2A"/>
			<stop  offset="0.5306" style="stop-color:#CF3E29"/>
			<stop  offset="0.7438" style="stop-color:#9B2523"/>
			<stop  offset="0.9071" style="stop-color:#7E161C"/>
			<stop  offset="1" style="stop-color:#74101A"/>
		</linearGradient>
		<path class="st14" d="M326.02,147.65h2.09v0.65c0,1.15-0.18,1.92-0.54,2.29c-0.49,0.51-1.41,0.76-2.76,0.76
			c-0.81,0-1.37-0.02-1.69-0.07c-0.67-0.1-1.18-0.31-1.55-0.64c-0.48-0.43-0.72-1.2-0.72-2.29v-3.34h-1.4v-2.06h1.4v-1.94h2.78v1.94
			h4.48v2.06h-4.48v2.7c0,0.55,0.07,0.93,0.21,1.13c0.17,0.24,0.49,0.35,0.98,0.35c0.46,0,0.78-0.07,0.94-0.22
			c0.18-0.17,0.27-0.5,0.27-1V147.65z"/>
		<linearGradient id="SVGID_16_" gradientUnits="userSpaceOnUse" x1="233.5521" y1="134.6838" x2="397.9036" y2="152.5277">
			<stop  offset="0" style="stop-color:#B52025"/>
			<stop  offset="0.1234" style="stop-color:#B92325"/>
			<stop  offset="0.2486" style="stop-color:#C62E26"/>
			<stop  offset="0.3744" style="stop-color:#DC3F29"/>
			<stop  offset="0.4382" style="stop-color:#F04C2A"/>
			<stop  offset="0.5306" style="stop-color:#CF3E29"/>
			<stop  offset="0.7438" style="stop-color:#9B2523"/>
			<stop  offset="0.9071" style="stop-color:#7E161C"/>
			<stop  offset="1" style="stop-color:#74101A"/>
		</linearGradient>
		<path class="st15" d="M330.14,141.67v-2.21h2.72v2.21H330.14z M330.14,151.17v-8.21h2.72v8.21H330.14z"/>
		<linearGradient id="SVGID_17_" gradientUnits="userSpaceOnUse" x1="233.4657" y1="135.4793" x2="397.8172" y2="153.3232">
			<stop  offset="0" style="stop-color:#B52025"/>
			<stop  offset="0.1234" style="stop-color:#B92325"/>
			<stop  offset="0.2486" style="stop-color:#C62E26"/>
			<stop  offset="0.3744" style="stop-color:#DC3F29"/>
			<stop  offset="0.4382" style="stop-color:#F04C2A"/>
			<stop  offset="0.5306" style="stop-color:#CF3E29"/>
			<stop  offset="0.7438" style="stop-color:#9B2523"/>
			<stop  offset="0.9071" style="stop-color:#7E161C"/>
			<stop  offset="1" style="stop-color:#74101A"/>
		</linearGradient>
		<path class="st16" d="M340.12,142.78c1.33,0,2.39,0.08,3.19,0.23c0.95,0.18,1.57,0.64,1.86,1.36c0.18,0.45,0.27,1.27,0.27,2.47
			c0,1.46-0.1,2.43-0.3,2.93c-0.31,0.75-1.07,1.24-2.3,1.45c-0.51,0.09-1.46,0.13-2.85,0.13c-2.21,0-3.63-0.27-4.26-0.81
			c-0.41-0.35-0.68-0.89-0.79-1.62c-0.05-0.33-0.08-0.96-0.08-1.9c0-1.37,0.13-2.31,0.4-2.83c0.34-0.65,1.08-1.08,2.22-1.28
			C338.02,142.82,338.9,142.78,340.12,142.78z M340.11,145.02c-1,0-1.65,0.09-1.94,0.27c-0.38,0.24-0.57,0.83-0.57,1.76
			c0,0.48,0.02,0.81,0.05,1c0.07,0.37,0.23,0.64,0.49,0.81c0.29,0.19,0.96,0.28,2.03,0.28c1.12,0,1.81-0.11,2.09-0.32
			c0.32-0.25,0.48-0.81,0.48-1.71c0-0.53-0.02-0.89-0.07-1.09c-0.12-0.51-0.47-0.83-1.06-0.95
			C341.42,145.04,340.92,145.02,340.11,145.02z"/>
		<linearGradient id="SVGID_18_" gradientUnits="userSpaceOnUse" x1="233.5986" y1="134.2557" x2="397.9501" y2="152.0995">
			<stop  offset="0" style="stop-color:#B52025"/>
			<stop  offset="0.1234" style="stop-color:#B92325"/>
			<stop  offset="0.2486" style="stop-color:#C62E26"/>
			<stop  offset="0.3744" style="stop-color:#DC3F29"/>
			<stop  offset="0.4382" style="stop-color:#F04C2A"/>
			<stop  offset="0.5306" style="stop-color:#CF3E29"/>
			<stop  offset="0.7438" style="stop-color:#9B2523"/>
			<stop  offset="0.9071" style="stop-color:#7E161C"/>
			<stop  offset="1" style="stop-color:#74101A"/>
		</linearGradient>
		<path class="st17" d="M347.48,151.17v-8.21h2.66v1.91c0.18-0.75,0.48-1.28,0.91-1.57c0.51-0.35,1.35-0.52,2.52-0.52
			c1.6,0,2.7,0.39,3.31,1.17c0.45,0.58,0.67,1.53,0.67,2.87v4.36h-2.72v-4.23c0-0.79-0.21-1.31-0.63-1.55
			c-0.29-0.17-0.84-0.25-1.65-0.25c-0.86,0-1.46,0.15-1.79,0.44c-0.37,0.33-0.56,0.96-0.56,1.89v3.71H347.48z"/>
	</g>
	<g>
		<linearGradient id="SVGID_19_" gradientUnits="userSpaceOnUse" x1="161.3831" y1="153.8354" x2="214.071" y2="108.9285">
			<stop  offset="0" style="stop-color:#010101"/>
			<stop  offset="3.923885e-03" style="stop-color:#050504"/>
			<stop  offset="0.0833" style="stop-color:#3D2F28"/>
			<stop  offset="0.1624" style="stop-color:#684A3B"/>
			<stop  offset="0.2395" style="stop-color:#946349"/>
			<stop  offset="0.3142" style="stop-color:#B97854"/>
			<stop  offset="0.3858" style="stop-color:#D7885C"/>
			<stop  offset="0.453" style="stop-color:#EB9360"/>
			<stop  offset="0.5112" style="stop-color:#F69862"/>
			<stop  offset="0.5537" style="stop-color:#E7915F"/>
			<stop  offset="0.6158" style="stop-color:#CD8259"/>
			<stop  offset="0.6901" style="stop-color:#A56D4F"/>
			<stop  offset="0.7737" style="stop-color:#74513F"/>
			<stop  offset="0.8652" style="stop-color:#41322A"/>
			<stop  offset="0.9607" style="stop-color:#010101"/>
		</linearGradient>
		<path class="st18" d="M166.88,161.54c0,0-3.04-9.56,0.87-19.27c3.91-9.71,12.1-17.02,22.24-20.57c10.14-3.55,20.46-2.6,27.25,2.6
			l-0.81-4.18l-9.21-6.46c0,0-17.77-3.86-33.72,11.97s-14.62,22.46-13.37,27.96C161.38,159.09,166.88,161.54,166.88,161.54z"/>
		<linearGradient id="SVGID_20_" gradientUnits="userSpaceOnUse" x1="189.6354" y1="139.0122" x2="189.6354" y2="120.4277">
			<stop  offset="0.2247" style="stop-color:#F09F64"/>
			<stop  offset="0.318" style="stop-color:#CF8B5C"/>
			<stop  offset="0.5128" style="stop-color:#8B6348"/>
			<stop  offset="0.7901" style="stop-color:#392E27"/>
			<stop  offset="0.9607" style="stop-color:#010101"/>
		</linearGradient>
		<path class="st19" d="M180.78,137.29c0,0,4.37-5.88,11.36-8.18c6.99-2.3,13.57-0.72,15.83,1.43l-0.39-2.43
			c0,0-2.13-4.64-6.33-5.78c-4.2-1.14-14.11-0.14-20.47,4.92c-6.37,5.06-8.88,9.01-9.43,10.77c-0.55,1.75,2.96,1.65,3.68,1.38
			C175.76,139.11,180.78,137.29,180.78,137.29z"/>
		<linearGradient id="SVGID_21_" gradientUnits="userSpaceOnUse" x1="218.0014" y1="124.0364" x2="218.0014" y2="114.856">
			<stop  offset="0" style="stop-color:#F09F64"/>
			<stop  offset="0.0939" style="stop-color:#DB925F"/>
			<stop  offset="0.2676" style="stop-color:#B07954"/>
			<stop  offset="0.502" style="stop-color:#735440"/>
			<stop  offset="0.785" style="stop-color:#332923"/>
			<stop  offset="0.9607" style="stop-color:#010101"/>
		</linearGradient>
		<polygon class="st20" points="218.45,115.58 213.7,119.35 217.24,124.3 222.3,120.72 		"/>
		<linearGradient id="SVGID_22_" gradientUnits="userSpaceOnUse" x1="208.78" y1="130.2805" x2="208.78" y2="121.4082">
			<stop  offset="0" style="stop-color:#F09F64"/>
			<stop  offset="0.0939" style="stop-color:#DB925F"/>
			<stop  offset="0.2676" style="stop-color:#B07954"/>
			<stop  offset="0.502" style="stop-color:#735440"/>
			<stop  offset="0.785" style="stop-color:#332923"/>
			<stop  offset="0.9607" style="stop-color:#010101"/>
		</linearGradient>
		<polygon class="st21" points="212.81,127.07 209.05,122.11 204.75,125.51 207.97,130.53 		"/>
		<linearGradient id="SVGID_23_" gradientUnits="userSpaceOnUse" x1="174.1772" y1="152.955" x2="204.4601" y2="127.1442">
			<stop  offset="0" style="stop-color:#262525"/>
			<stop  offset="0.0202" style="stop-color:#302D2B"/>
			<stop  offset="0.1099" style="stop-color:#5D493D"/>
			<stop  offset="0.1986" style="stop-color:#8A644C"/>
			<stop  offset="0.2845" style="stop-color:#B17B56"/>
			<stop  offset="0.3669" style="stop-color:#D18D5D"/>
			<stop  offset="0.4442" style="stop-color:#E69961"/>
			<stop  offset="0.5112" style="stop-color:#F09F64"/>
			<stop  offset="0.5537" style="stop-color:#E39760"/>
			<stop  offset="0.6158" style="stop-color:#C9885A"/>
			<stop  offset="0.6901" style="stop-color:#A27150"/>
			<stop  offset="0.7737" style="stop-color:#725340"/>
			<stop  offset="0.8652" style="stop-color:#40332A"/>
			<stop  offset="0.9607" style="stop-color:#010101"/>
		</linearGradient>
		<path class="st22" d="M165.98,144.15l3.64,5.2l35.72-7.17c0,0,3.94-6.03,1.79-6.87c-2.15-0.84-25.57,3.94-28.5,4.6
			S165.98,144.15,165.98,144.15z"/>
		<linearGradient id="SVGID_24_" gradientUnits="userSpaceOnUse" x1="177.5544" y1="164.0279" x2="218.1028" y2="129.4678">
			<stop  offset="0" style="stop-color:#010101"/>
			<stop  offset="3.923885e-03" style="stop-color:#050504"/>
			<stop  offset="0.0833" style="stop-color:#3C3028"/>
			<stop  offset="0.1624" style="stop-color:#674C3B"/>
			<stop  offset="0.2395" style="stop-color:#91664A"/>
			<stop  offset="0.3142" style="stop-color:#B67D55"/>
			<stop  offset="0.3858" style="stop-color:#D48E5D"/>
			<stop  offset="0.453" style="stop-color:#E79961"/>
			<stop  offset="0.5112" style="stop-color:#F09F64"/>
			<stop  offset="0.5574" style="stop-color:#E39760"/>
			<stop  offset="0.625" style="stop-color:#C9885A"/>
			<stop  offset="0.7058" style="stop-color:#A27150"/>
			<stop  offset="0.7967" style="stop-color:#725340"/>
			<stop  offset="0.8961" style="stop-color:#40332A"/>
			<stop  offset="1" style="stop-color:#010101"/>
		</linearGradient>
		<path class="st23" d="M168.72,155.44c0,0,4.66,9.26,14.88,9.02c10.22-0.24,16.01-3.11,23.42-9.44s9.8-14.88,9.98-18.76l-3.11-5.26
			c0,0-6.33,16.25-14.1,21.51c-7.77,5.26-15.35,5.44-20.61,5.08S168.72,155.44,168.72,155.44z"/>
		<linearGradient id="SVGID_25_" gradientUnits="userSpaceOnUse" x1="166.6902" y1="152.9199" x2="219.7024" y2="139.176">
			<stop  offset="0" style="stop-color:#D62A29"/>
			<stop  offset="0.1207" style="stop-color:#D72C2A"/>
			<stop  offset="0.2433" style="stop-color:#DC312F"/>
			<stop  offset="0.3663" style="stop-color:#E63A39"/>
			<stop  offset="0.4382" style="stop-color:#EF4041"/>
			<stop  offset="0.5774" style="stop-color:#E13637"/>
			<stop  offset="0.8465" style="stop-color:#D0262A"/>
			<stop  offset="1" style="stop-color:#CA2027"/>
		</linearGradient>
		<path class="st24" d="M181.76,136.36l2.94,4.29l21.78-4.08c0,0-2.27,12.19-14.99,16.61c-12.72,4.42-17.98-2.39-17.98-2.39
			l-4.78,4.66c0,0,6.57,7.77,19.3,4.6s19.95-11.89,22.82-17.44c2.87-5.56,3.05-11.59,3.05-11.59L181.76,136.36z"/>
		<linearGradient id="SVGID_26_" gradientUnits="userSpaceOnUse" x1="163.8476" y1="137.9709" x2="184.062" y2="132.7301">
			<stop  offset="0" style="stop-color:#CA2027"/>
			<stop  offset="0.1535" style="stop-color:#D0262A"/>
			<stop  offset="0.4226" style="stop-color:#E13637"/>
			<stop  offset="0.5618" style="stop-color:#EF4041"/>
			<stop  offset="0.6337" style="stop-color:#E63A39"/>
			<stop  offset="0.7567" style="stop-color:#DC312F"/>
			<stop  offset="0.8793" style="stop-color:#D72C2A"/>
			<stop  offset="1" style="stop-color:#D62A29"/>
		</linearGradient>
		<path class="st25" d="M172.25,137.94c0,0,2.34-4.03,6.46-7.93l-0.42-3.87c-1.47,1.12-2.89,2.35-4.25,3.73
			c-7.47,7.59-8.01,12.9-8.06,14.28l18.73-3.51l-2.94-4.29L172.25,137.94z"/>
		<path class="st26" d="M184.2,125.81c7.47-4.42,15.53-4.12,20.55-0.3l4.3-3.41c0,0-2.09-3.64-10.04-3.52
			c-6.51,0.1-14.09,2.52-20.73,7.56l0.42,3.87C180.29,128.52,182.13,127.04,184.2,125.81z"/>
		<linearGradient id="SVGID_27_" gradientUnits="userSpaceOnUse" x1="177.3119" y1="127.9778" x2="210.6549" y2="119.3333">
			<stop  offset="0" style="stop-color:#CA2027"/>
			<stop  offset="0.1535" style="stop-color:#D0262A"/>
			<stop  offset="0.4226" style="stop-color:#E13637"/>
			<stop  offset="0.5618" style="stop-color:#EF4041"/>
			<stop  offset="0.6337" style="stop-color:#E63A39"/>
			<stop  offset="0.7567" style="stop-color:#DC312F"/>
			<stop  offset="0.8793" style="stop-color:#D72C2A"/>
			<stop  offset="1" style="stop-color:#D62A29"/>
		</linearGradient>
		<path class="st27" d="M184.2,125.81c7.47-4.42,15.53-4.12,20.55-0.3l4.3-3.41c0,0-2.09-3.64-10.04-3.52
			c-6.51,0.1-14.09,2.52-20.73,7.56l0.42,3.87C180.29,128.52,182.13,127.04,184.2,125.81z"/>
		<linearGradient id="SVGID_28_" gradientUnits="userSpaceOnUse" x1="171.8168" y1="175.5915" x2="230.2577" y2="125.7812">
			<stop  offset="0" style="stop-color:#010101"/>
			<stop  offset="0.062" style="stop-color:#2E2621"/>
			<stop  offset="0.1469" style="stop-color:#5B4537"/>
			<stop  offset="0.2296" style="stop-color:#886147"/>
			<stop  offset="0.3081" style="stop-color:#B17954"/>
			<stop  offset="0.3814" style="stop-color:#D18C5C"/>
			<stop  offset="0.4474" style="stop-color:#E69961"/>
			<stop  offset="0.5" style="stop-color:#F09F64"/>
			<stop  offset="0.5365" style="stop-color:#E29760"/>
			<stop  offset="0.5924" style="stop-color:#C68659"/>
			<stop  offset="0.6609" style="stop-color:#9C6D4E"/>
			<stop  offset="0.7392" style="stop-color:#694E3C"/>
			<stop  offset="0.8246" style="stop-color:#362B25"/>
			<stop  offset="0.8933" style="stop-color:#010101"/>
		</linearGradient>
		<path class="st28" d="M158.67,160.51c-1-0.65,1.51,3.73,2.08,4.81c6.65,12.56,27.65,15.05,45.83,5.42
			c15.91-8.43,25.4-23.1,22.64-35.25l-3.3-5.46c0,0-6.8,21.72-19.11,28.29C194.5,164.9,180.33,174.67,158.67,160.51z"/>
		<linearGradient id="SVGID_29_" gradientUnits="userSpaceOnUse" x1="153.6986" y1="152.7192" x2="231.9927" y2="132.4207">
			<stop  offset="0" style="stop-color:#D62A29"/>
			<stop  offset="0.1207" style="stop-color:#D72C2A"/>
			<stop  offset="0.2433" style="stop-color:#DC312F"/>
			<stop  offset="0.3663" style="stop-color:#E63A39"/>
			<stop  offset="0.4382" style="stop-color:#EF4041"/>
			<stop  offset="0.5774" style="stop-color:#E13637"/>
			<stop  offset="0.8465" style="stop-color:#D0262A"/>
			<stop  offset="1" style="stop-color:#CA2027"/>
		</linearGradient>
		<path class="st29" d="M219.34,130.34c1.17,9.51-5.81,21.2-17.98,28.6c-14.9,9.06-31.94,8.25-38.05-1.81
			c-6.04-9.95,0.86-25.21,15.43-34.31l-0.79-3.31c-17.49,10.28-26.4,28.53-19.67,40.89c6.79,12.47,27.01,14.57,45.15,4.69
			c15.66-8.52,24.66-23.18,22.48-35.05L219.34,130.34z"/>
		<linearGradient id="SVGID_30_" gradientUnits="userSpaceOnUse" x1="177.0811" y1="122.9249" x2="220.4762" y2="111.6743">
			<stop  offset="0" style="stop-color:#F36E21"/>
			<stop  offset="0.2785" style="stop-color:#F37022"/>
			<stop  offset="0.4617" style="stop-color:#F47723"/>
			<stop  offset="0.6174" style="stop-color:#F58226"/>
			<stop  offset="0.7578" style="stop-color:#F7902C"/>
			<stop  offset="0.8866" style="stop-color:#FAA435"/>
			<stop  offset="1" style="stop-color:#FDBB40"/>
		</linearGradient>
		<path class="st30" d="M199.97,115.14c10.75-0.06,13.73,4.21,13.73,4.21l4.77-3.75c-1.91-2.55-12.24-6.14-24.51-2.97
			c-4.44,1.15-10.43,3.2-16.01,6.88l0.31,3.62C185.81,118.15,192.82,115.18,199.97,115.14z"/>
		<linearGradient id="SVGID_31_" gradientUnits="userSpaceOnUse" x1="177.081" y1="122.9249" x2="220.4762" y2="111.6742">
			<stop  offset="0" style="stop-color:#D62A29"/>
			<stop  offset="0.1207" style="stop-color:#D72C2A"/>
			<stop  offset="0.2433" style="stop-color:#DC312F"/>
			<stop  offset="0.3663" style="stop-color:#E63A39"/>
			<stop  offset="0.4382" style="stop-color:#EF4041"/>
			<stop  offset="0.5774" style="stop-color:#E13637"/>
			<stop  offset="0.8465" style="stop-color:#D0262A"/>
			<stop  offset="1" style="stop-color:#CA2027"/>
		</linearGradient>
		<path class="st31" d="M199.97,115.14c10.75,0,13.73,4.21,13.73,4.21l4.77-3.75c-1.91-2.55-12.23-6.13-24.51-2.97
			c-4.44,1.14-10.43,3.2-16.01,6.88l0.31,3.62C186.1,118.02,192.86,115.14,199.97,115.14z"/>
	</g>
</g>
</svg>
