<svg xmlns="http://www.w3.org/2000/svg" xmlns:xlink="http://www.w3.org/1999/xlink" viewBox="0 0 400 400"><defs><style>.cls-1{isolation:isolate;}.cls-2{fill:url(#linear-gradient);}.cls-3{fill:url(#linear-gradient-2);}.cls-4{fill:url(#linear-gradient-3);}.cls-5{fill:url(#linear-gradient-4);}.cls-6{fill:none;stroke:#fff;stroke-miterlimit:10;stroke-width:6.6005px;stroke-dasharray:1.1001 2.2002;opacity:0.47;mix-blend-mode:overlay;}.cls-7{fill:url(#linear-gradient-5);}.cls-8{fill:url(#linear-gradient-6);}.cls-9{font-size:19px;font-family:Rubik-Medium, Rubik;font-weight:500;}.cls-11,.cls-9{fill:#fff;}.cls-10{fill:url(#linear-gradient-7);}.cls-12{fill:#d11d27;}.cls-13{fill:#424242;}.cls-14{fill:#5b5b5b;}</style><linearGradient id="linear-gradient" x1="334.3495" y1="76.9643" x2="20.8257" y2="364.0858" gradientUnits="userSpaceOnUse"><stop offset="0" stop-color="#b37624"/><stop offset="0.1362" stop-color="#f1bd4a"/><stop offset="0.148" stop-color="#f2c253"/><stop offset="0.1671" stop-color="#f6d06b"/><stop offset="0.1909" stop-color="#fbe691"/><stop offset="0.2054" stop-color="#fff5ac"/><stop offset="0.263" stop-color="#fae189"/><stop offset="0.3549" stop-color="#f1bd4a"/><stop offset="0.3921" stop-color="#e9b445"/><stop offset="0.4521" stop-color="#d59c39"/><stop offset="0.5268" stop-color="#b37624"/><stop offset="0.6853" stop-color="#f1bd4a"/><stop offset="0.7085" stop-color="#f2c253"/><stop offset="0.7461" stop-color="#f6d06b"/><stop offset="0.793" stop-color="#fbe691"/><stop offset="0.8214" stop-color="#fff5ac"/><stop offset="0.8529" stop-color="#f8df89"/><stop offset="0.9063" stop-color="#eab646"/><stop offset="1" stop-color="#b37624"/></linearGradient><linearGradient id="linear-gradient-2" x1="71.3126" y1="55.2261" x2="449.7801" y2="481.0027" xlink:href="#linear-gradient"/><linearGradient id="linear-gradient-3" x1="117.1901" y1="59.3795" x2="335.3342" y2="429.8123" gradientTransform="translate(200 -82.8427) rotate(45)" xlink:href="#linear-gradient"/><linearGradient id="linear-gradient-4" x1="304.3286" y1="48.7586" x2="35.6811" y2="438.2071" xlink:href="#linear-gradient"/><linearGradient id="linear-gradient-5" x1="112.4645" y1="72.1111" x2="414.6371" y2="513.5834" gradientUnits="userSpaceOnUse"><stop offset="0" stop-color="#74000e"/><stop offset="0.0991" stop-color="#97151e"/><stop offset="0.3176" stop-color="#ef4948"/><stop offset="0.3549" stop-color="#ff524f"/><stop offset="0.4123" stop-color="#f74948"/><stop offset="0.5046" stop-color="#e33237"/><stop offset="0.5692" stop-color="#d11d27"/><stop offset="0.7946" stop-color="#ff524f"/><stop offset="0.8346" stop-color="#f74948"/><stop offset="0.8991" stop-color="#e03135"/><stop offset="0.9797" stop-color="#bb0b17"/><stop offset="1" stop-color="#b1000e"/></linearGradient><linearGradient id="linear-gradient-6" x1="200" y1="42.7325" x2="200" y2="437.3673" gradientUnits="userSpaceOnUse"><stop offset="0" stop-color="#d11d27"/><stop offset="0.6505" stop-color="#910916"/><stop offset="1" stop-color="#74000e"/></linearGradient><linearGradient id="linear-gradient-7" x1="78" y1="200" x2="322" y2="200" gradientUnits="userSpaceOnUse"><stop offset="0.1464" stop-color="#f2f2f2"/><stop offset="0.505" stop-color="#e6e6e6"/><stop offset="0.8123" stop-color="#ccc"/><stop offset="1" stop-color="#e2e2e2"/></linearGradient></defs><title>about-batch</title><g class="cls-1"><g id="Layer_1" data-name="Layer 1"><path class="cls-2" d="M247.5783,19.2925l0,0a68.3133,68.3133,0,0,0,46.5579,19.2848h0a68.314,68.314,0,0,1,67.2859,67.286v0a68.3146,68.3146,0,0,0,19.285,46.5579h0a68.3136,68.3136,0,0,1,0,95.1567h0a68.3143,68.3143,0,0,0-19.285,46.5581h0a68.3138,68.3138,0,0,1-67.2859,67.286h0a68.3129,68.3129,0,0,0-46.5579,19.2849h0a68.3136,68.3136,0,0,1-95.1567,0h0a68.3141,68.3141,0,0,0-46.5579-19.2849h0a68.3138,68.3138,0,0,1-67.2858-67.286h0a68.3143,68.3143,0,0,0-19.285-46.5581h0a68.3142,68.3142,0,0,1,0-95.1567h0a68.3146,68.3146,0,0,0,19.285-46.5579v0a68.314,68.314,0,0,1,67.2858-67.286h0a68.3144,68.3144,0,0,0,46.5579-19.2848v0A68.3142,68.3142,0,0,1,247.5783,19.2925Z"/><path class="cls-3" d="M200,395.6a63.5806,63.5806,0,0,1-44.5138-18.05A72.4614,72.4614,0,0,0,105.929,357.022,63.61,63.61,0,0,1,42.9781,294.07,72.4444,72.4444,0,0,0,22.45,244.5145a63.6156,63.6156,0,0,1,0-89.03,72.4442,72.4442,0,0,0,20.5279-49.5555,63.61,63.61,0,0,1,62.9509-62.952,72.453,72.453,0,0,0,49.5576-20.5257,63.9113,63.9113,0,0,1,89.0266,0,72.4585,72.4585,0,0,0,49.5576,20.5257,63.61,63.61,0,0,1,62.951,62.952A72.4432,72.4432,0,0,0,377.55,155.4847a63.6139,63.6139,0,0,1,0,89.03A72.4434,72.4434,0,0,0,357.0218,294.07a63.61,63.61,0,0,1-62.951,62.9521A72.4648,72.4648,0,0,0,244.5132,377.55,63.58,63.58,0,0,1,200,395.6Z"/><circle class="cls-4" cx="200" cy="200" r="171.0701" transform="translate(-82.8427 200) rotate(-45)"/><circle class="cls-5" cx="200" cy="199.9999" r="168.6111"/><circle class="cls-6" cx="200" cy="199.9999" r="162.2303"/><circle class="cls-7" cx="200" cy="199.9999" r="155.8131"/><circle class="cls-8" cx="200" cy="199.9999" r="147.7001"/><text class="cls-9" transform="translate(71.0292 182.7462) rotate(-79.7602)">S</text><text class="cls-9" transform="translate(74.2294 166.4796) rotate(-72.1902)">A</text><text class="cls-9" transform="translate(80.0004 149.6857) rotate(-64.6985)">F</text><text class="cls-9" transform="translate(87.101 135.3317) rotate(-57.6264)">F</text><text class="cls-9" transform="translate(95.8808 121.9513) rotate(-50.2969)">R</text><text class="cls-9" transform="matrix(0.736, -0.677, 0.677, 0.736, 107.182, 108.7965)">O</text><text class="cls-9" transform="matrix(0.8215, -0.5702, 0.5702, 0.8215, 120.4687, 96.9884)">N</text><text class="cls-9" transform="translate(135.5863 87.0788) rotate(-28.7941)"> </text><text class="cls-9" transform="translate(143.518 82.7404) rotate(-22.8825)">C</text><text class="cls-9" transform="matrix(0.9657, -0.2595, 0.2595, 0.9657, 159.8095, 76.1955)">O</text><text class="cls-9" transform="translate(177.0546 71.8991) rotate(-7.2671)">R</text><text class="cls-9" transform="translate(194.2919 69.9391) rotate(0.9288)">P</text><text class="cls-9" transform="translate(211.433 70.3669) rotate(7.8759)">O</text><text class="cls-9" transform="matrix(0.9629, 0.2698, -0.2698, 0.9629, 228.9887, 73.1217)">R</text><text class="cls-9" transform="translate(245.6147 78.091) rotate(23.4418)">A</text><text class="cls-9" transform="matrix(0.8631, 0.505, -0.505, 0.8631, 260.5775, 84.8468)">T</text><text class="cls-9" transform="translate(274.3266 93.34) rotate(36.1693)">I</text><text class="cls-9" transform="matrix(0.739, 0.6737, -0.6737, 0.739, 282.6469, 99.4836)">O</text><text class="cls-9" transform="matrix(0.6404, 0.7681, -0.7681, 0.6404, 295.5629, 111.6676)">N</text><text class="cls-9" transform="translate(306.7865 125.8761) rotate(56.14)"> </text><text class="cls-9" transform="matrix(0.4757, 0.8796, -0.8796, 0.4757, 311.7719, 133.4225)">L</text><text class="cls-9" transform="translate(318.1 145.3752) rotate(67.6881)">T</text><text class="cls-9" transform="translate(323.9867 160.3576) rotate(75.2472)">D</text><text class="cls-9" transform="matrix(0.1512, 0.9885, -0.9885, 0.1512, 328.0756, 177.6662)">.</text><circle class="cls-10" cx="200" cy="200" r="122"/><circle class="cls-11" cx="200" cy="200" r="114"/><path class="cls-12" d="M140.6846,221.1631a3.38,3.38,0,0,1-3.4312-3.4307v-58.061l-16.4946,12.6675a3.4928,3.4928,0,0,1-2.5728.5278,4.0765,4.0765,0,0,1-2.31-1.5835l-9.6328-12.5356a4.1337,4.1337,0,0,1-.462-2.6392,2.9859,2.9859,0,0,1,1.5176-2.2432l31.1421-24.1484a3.9487,3.9487,0,0,1,1.3193-.7256,5.5577,5.5577,0,0,1,1.5835-.1977h20.7173a3.5451,3.5451,0,0,1,2.5073.9892,3.218,3.218,0,0,1,1.0557,2.4414v85.5083a3.2149,3.2149,0,0,1-1.0557,2.4414,3.5474,3.5474,0,0,1-2.5073.9893Z"/><path class="cls-12" d="M224.2129,221.1631a3.3805,3.3805,0,0,1-3.4316-3.4307V204.668H180.5347a3.38,3.38,0,0,1-3.4307-3.43V185.5347a5.7308,5.7308,0,0,1,.4619-2.4409,8.14,8.14,0,0,1,.9893-1.65l37.8716-50.4072a6.012,6.012,0,0,1,4.8828-2.2431H244.666a3.3789,3.3789,0,0,1,3.4307,3.4306v49.22H259.709a3.2635,3.2635,0,0,1,2.5068.99,3.4512,3.4512,0,0,1,.9238,2.4414v16.3633a3.3789,3.3789,0,0,1-3.4306,3.43H248.0967v13.0644a3.3791,3.3791,0,0,1-3.4307,3.4307Zm-20.7178-38.5313h18.0781V157.56Z"/><path class="cls-13" d="M168.0117,244.0537a.4451.4451,0,0,1-.4472-.4463V239.4l-4.3926-7.7813a.6891.6891,0,0,1-.0381-.0927.3763.3763,0,0,1-.0186-.1123.3822.3822,0,0,1,.1123-.2793.3571.3571,0,0,1,.2608-.1114h1.6562a.5653.5653,0,0,1,.3633.1114.6427.6427,0,0,1,.1953.2422l3.1641,5.4169,3.1465-5.4169a.86.86,0,0,1,.2138-.2422.5636.5636,0,0,1,.3633-.1114h1.6377a.3806.3806,0,0,1,.3906.3907.7324.7324,0,0,1-.0087.1123.1724.1724,0,0,1-.0469.0927L170.1709,239.4v4.207a.431.431,0,0,1-.1309.3164.4525.4525,0,0,1-.3349.13Z"/><path class="cls-13" d="M178.8447,244.24a4.4668,4.4668,0,0,1-3.2763-1.1914,4.8431,4.8431,0,0,1-1.3028-3.3877c-.0127-.124-.0185-.2822-.0185-.4756a4.2979,4.2979,0,0,1,.0185-.456,5.5082,5.5082,0,0,1,.6416-2.4287,3.9338,3.9338,0,0,1,1.5733-1.5635,4.8549,4.8549,0,0,1,2.3642-.55,4.7829,4.7829,0,0,1,2.5313.624,3.9515,3.9515,0,0,1,1.5449,1.7315,5.9424,5.9424,0,0,1,.5215,2.5595v.3907a.4343.4343,0,0,1-.13.3164.4564.4564,0,0,1-.3359.13h-6.18v.1494a3.2867,3.2867,0,0,0,.251,1.2,2.0779,2.0779,0,0,0,.6894.8847,1.7856,1.7856,0,0,0,1.0889.335,2.0644,2.0644,0,0,0,1.4521-.5215,2.3819,2.3819,0,0,0,.3164-.335.8891.8891,0,0,1,.27-.2695.7687.7687,0,0,1,.3066-.0469h1.6016a.4352.4352,0,0,1,.3066.1114.3123.3123,0,0,1,.1025.2793,1.5734,1.5734,0,0,1-.3066.7265,3.631,3.631,0,0,1-.8291.8369,4.6277,4.6277,0,0,1-1.35.68A5.8508,5.8508,0,0,1,178.8447,244.24Zm-2.0478-5.8642h4.1142V238.32a3.1433,3.1433,0,0,0-.2422-1.2754,1.9264,1.9264,0,0,0-.708-.8554,2.18,2.18,0,0,0-2.2334,0,1.8709,1.8709,0,0,0-.6982.8554,3.248,3.248,0,0,0-.2324,1.2754Z"/><path class="cls-13" d="M188.2266,244.24a3.9374,3.9374,0,0,1-1.7491-.3818,3.1972,3.1972,0,0,1-1.2382-1.0244,2.5408,2.5408,0,0,1,.6045-3.5176,6.2586,6.2586,0,0,1,2.7744-1.0332l2.55-.3721V237.52a1.7317,1.7317,0,0,0-.3907-1.21,1.7559,1.7559,0,0,0-1.3408-.4278,1.9829,1.9829,0,0,0-1.0888.27,1.6578,1.6578,0,0,0-.6231.7168.474.474,0,0,1-.4287.2422h-1.4707a.3957.3957,0,0,1-.3066-.1114.4244.4244,0,0,1-.1026-.2978,1.8472,1.8472,0,0,1,.251-.7266,2.97,2.97,0,0,1,.708-.8281,4.0908,4.0908,0,0,1,1.2373-.68,5.398,5.398,0,0,1,1.8428-.2793,5.9387,5.9387,0,0,1,1.9824.2891,3.4216,3.4216,0,0,1,1.2939.7724,2.9441,2.9441,0,0,1,.7081,1.1358,4.2308,4.2308,0,0,1,.2226,1.3769v5.8457a.4435.4435,0,0,1-.4463.4463H191.708a.424.424,0,0,1-.3262-.13.4469.4469,0,0,1-.1211-.3164v-.7265a3.2056,3.2056,0,0,1-.6513.6513,3.297,3.297,0,0,1-.9961.5117A4.3761,4.3761,0,0,1,188.2266,244.24Zm.6328-1.7685a2.5076,2.5076,0,0,0,1.1826-.2793,1.99,1.99,0,0,0,.8379-.8653,3.1842,3.1842,0,0,0,.3066-1.48v-.3906l-1.8613.2978a3.9933,3.9933,0,0,0-1.6377.54,1.0852,1.0852,0,0,0-.54.9122,1.0258,1.0258,0,0,0,.2509.6972,1.4958,1.4958,0,0,0,.6426.4287A2.4216,2.4216,0,0,0,188.8594,242.4717Z"/><path class="cls-13" d="M196.4922,244.0537a.4435.4435,0,0,1-.4473-.4463V234.84a.4525.4525,0,0,1,.13-.3349.432.432,0,0,1,.3174-.1309h1.5068a.4636.4636,0,0,1,.3262.1309.4381.4381,0,0,1,.14.3349v.7627a2.7923,2.7923,0,0,1,1.1075-.9121,3.691,3.691,0,0,1,1.5732-.3164h.7627a.4247.4247,0,0,1,.3262.1309.4508.4508,0,0,1,.1211.3164v1.34a.4507.4507,0,0,1-.1211.3164.4236.4236,0,0,1-.3262.13H200.457a1.7169,1.7169,0,0,0-1.8808,1.8809v5.1191a.43.43,0,0,1-.13.3164.4527.4527,0,0,1-.335.13Z"/><path class="cls-13" d="M207.4736,244.24a6.1391,6.1391,0,0,1-1.9082-.2607,4.2869,4.2869,0,0,1-1.2929-.6514,3.0766,3.0766,0,0,1-.7452-.7822,1.5429,1.5429,0,0,1-.2607-.6514.3628.3628,0,0,1,.1211-.3261.4611.4611,0,0,1,.3076-.1211h1.4707a.4348.4348,0,0,1,.13.0185.4487.4487,0,0,1,.1484.1123q.2418.205.5127.4278a2.5677,2.5677,0,0,0,.6416.3818,2.764,2.764,0,0,0,2.15-.13.912.912,0,0,0,.4932-.8291.9212.9212,0,0,0-.2139-.6328,1.88,1.88,0,0,0-.791-.4375,15.2957,15.2957,0,0,0-1.6387-.4189,6.9323,6.9323,0,0,1-1.73-.6143,2.58,2.58,0,0,1-1.0244-.9307,2.5442,2.5442,0,0,1,.1025-2.6894,3.2232,3.2232,0,0,1,1.3027-1.0889,4.8324,4.8324,0,0,1,2.15-.4287,5.4728,5.4728,0,0,1,1.75.252,4.3474,4.3474,0,0,1,1.2373.623,3.3477,3.3477,0,0,1,.7539.7539,1.4081,1.4081,0,0,1,.2793.6611.3731.3731,0,0,1-.1113.3262.4276.4276,0,0,1-.2979.12h-1.3779a.3589.3589,0,0,1-.167-.0371.95.95,0,0,1-.1494-.0928q-.205-.186-.4463-.4a2.1875,2.1875,0,0,0-.5869-.3623,2.2915,2.2915,0,0,0-.9023-.1495,1.6574,1.6574,0,0,0-1.08.3077.959.959,0,0,0-.3721.7724.8788.8788,0,0,0,.1768.5488,1.6312,1.6312,0,0,0,.7168.4375,11.223,11.223,0,0,0,1.6377.4278,5.9905,5.9905,0,0,1,1.9824.6611,2.7266,2.7266,0,0,1,1.043,1.0049,2.5975,2.5975,0,0,1,.3066,1.2568,2.48,2.48,0,0,1-.4932,1.5078,3.224,3.224,0,0,1-1.4521,1.0518A6.4534,6.4534,0,0,1,207.4736,244.24Z"/><path class="cls-13" d="M223.2021,244.24a6.7548,6.7548,0,0,1-2.8476-.55,4.0962,4.0962,0,0,1-1.8613-1.6933,5.9713,5.9713,0,0,1-.7266-2.8575c-.0117-.5332-.0186-1.0615-.0186-1.582s.0069-1.0547.0186-1.6015a5.7457,5.7457,0,0,1,.7451-2.8291,4.3857,4.3857,0,0,1,1.89-1.7129,6.4065,6.4065,0,0,1,2.8007-.5772,6.48,6.48,0,0,1,2.8116.5772,4.3809,4.3809,0,0,1,1.8984,1.7129,5.7467,5.7467,0,0,1,.7442,2.8291q.038.82.0371,1.6015c0,.52-.0118,1.0488-.0371,1.582a5.9838,5.9838,0,0,1-.7256,2.8575A4.09,4.09,0,0,1,226.06,243.69,6.8208,6.8208,0,0,1,223.2021,244.24Zm0-2.1406a2.7683,2.7683,0,0,0,1.9737-.7168,3.2509,3.2509,0,0,0,.8193-2.3369q.0366-.8188.0371-1.5166t-.0371-1.498a4.0474,4.0474,0,0,0-.4-1.76,2.2494,2.2494,0,0,0-.9775-.9863,3.1175,3.1175,0,0,0-1.4151-.3077,3.0741,3.0741,0,0,0-1.3955.3077,2.2447,2.2447,0,0,0-.9775.9863,4.0192,4.0192,0,0,0-.4,1.76q-.019.8-.0185,1.498t.0185,1.5166a3.247,3.247,0,0,0,.8193,2.3369A2.7412,2.7412,0,0,0,223.2021,242.1Z"/><path class="cls-13" d="M232.3984,244.0537a.4451.4451,0,0,1-.4472-.4463v-7.26h-1.5069a.4318.4318,0,0,1-.3173-.1309.4522.4522,0,0,1-.13-.335v-1.06a.4452.4452,0,0,1,.4472-.4473h1.5069v-.7627a3.7664,3.7664,0,0,1,.41-1.8525,2.59,2.59,0,0,1,1.21-1.1074,4.82,4.82,0,0,1,2.0293-.3721h1.2656a.423.423,0,0,1,.3252.13.4465.4465,0,0,1,.1211.3164v1.0615a.4706.4706,0,0,1-.1211.335.423.423,0,0,1-.3252.13h-1.1914a1.21,1.21,0,0,0-1.0244.372,1.7846,1.7846,0,0,0-.2793,1.08v.67H236.68a.4247.4247,0,0,1,.3262.1309.4513.4513,0,0,1,.1211.3164v1.06a.4753.4753,0,0,1-.1211.335.4247.4247,0,0,1-.3262.1309h-2.3086v7.26a.4435.4435,0,0,1-.4463.4463Z"/><path class="cls-13" d="M270.6563,175.6694a1.4618,1.4618,0,0,1-1.4854-1.4848v-9.8252h-9.54a1.4642,1.4642,0,0,1-1.4854-1.4854v-5.1982a1.4642,1.4642,0,0,1,1.4854-1.4854h9.54v-9.54a1.4618,1.4618,0,0,1,1.4854-1.4849h5.8261a1.4634,1.4634,0,0,1,1.4854,1.4849v9.54h9.4248a1.4642,1.4642,0,0,1,1.4853,1.4854v5.1982a1.4642,1.4642,0,0,1-1.4853,1.4854h-9.4248v9.8252a1.4634,1.4634,0,0,1-1.4854,1.4848Z"/><path class="cls-14" d="M133.8433,273.2314V248.3467h11.1826v3.748h-5.6836v6.1758h4.332v3.81h-4.332v7.4345h5.7451v3.7168Z"/><path class="cls-14" d="M146.07,273.2314l3.7788-9.7382-3.5942-8.0186h5.0381l1.9048,4.27,1.6894-4.27h3.84l-3.5025,8.7559,4.0249,9.0009h-5.1l-2.15-4.8847-1.7817,4.8847Z"/><path class="cls-14" d="M160.8774,279.0684V255.4746h5.0074v1.29a6.3327,6.3327,0,0,1,1.9048-1.1982,5.2925,5.2925,0,0,1,1.9355-.3994,3.5433,3.5433,0,0,1,1.7358.3994,3.2669,3.2669,0,0,1,1.1827,1.1221,5.2267,5.2267,0,0,1,.6757,1.6738,9.2009,9.2009,0,0,1,.2154,2.0273v7.65a8.4789,8.4789,0,0,1-.4458,2.8886,4.2514,4.2514,0,0,1-1.3057,1.92,3.2747,3.2747,0,0,1-2.12.6914,4.5658,4.5658,0,0,1-1.92-.4463,7.8985,7.8985,0,0,1-1.8589-1.2129v7.1885Zm6.3287-8.7559a1.038,1.038,0,0,0,.768-.2764,1.72,1.72,0,0,0,.4146-.7216,3.3568,3.3568,0,0,0,.1382-.9981v-8.2949a3.3137,3.3137,0,0,0-.1226-.9375,1.393,1.393,0,0,0-.3994-.66,1.0251,1.0251,0,0,0-.707-.2461,1.7263,1.7263,0,0,0-.7525.169,2.8073,2.8073,0,0,0-.6606.4453v11.0605a3.6636,3.6636,0,0,0,.6606.3379A1.8355,1.8355,0,0,0,167.2061,270.3125Z"/><path class="cls-14" d="M182.1978,273.5391a7.3488,7.3488,0,0,1-3.3179-.6914,4.8287,4.8287,0,0,1-2.12-2.0284,6.5465,6.5465,0,0,1-.7374-3.21v-6.5127a6.5311,6.5311,0,0,1,.7374-3.2256,4.8311,4.8311,0,0,1,2.1352-2.0127,7.368,7.368,0,0,1,3.3023-.6914,7.0815,7.0815,0,0,1,3.2719.6758,4.43,4.43,0,0,1,1.9663,1.997,7.2433,7.2433,0,0,1,.66,3.2569V264.66h-7.1274v3.41a3.3294,3.3294,0,0,0,.1538,1.1055,1.1839,1.1839,0,0,0,.43.6152,1.1409,1.1409,0,0,0,.6451.1836,1.29,1.29,0,0,0,.6606-.1689,1.1463,1.1463,0,0,0,.4609-.5371,2.4894,2.4894,0,0,0,.169-1.0137v-1.874h4.6079v1.72a5.1126,5.1126,0,0,1-1.5669,4.0713A6.37,6.37,0,0,1,182.1978,273.5391Zm-1.229-11.2139h2.52v-1.7813a2.9232,2.9232,0,0,0-.169-1.1064,1.0591,1.0591,0,0,0-.4609-.5527,1.4643,1.4643,0,0,0-.6914-.1534,1.0628,1.0628,0,0,0-.63.1836,1.235,1.235,0,0,0-.4145.63,4.091,4.091,0,0,0-.1538,1.2754Z"/><path class="cls-14" d="M190.8916,273.2314V255.4746h5.0073v2.9492a9.8918,9.8918,0,0,1,1.7207-2.3506,2.9291,2.9291,0,0,1,2.0889-.8134q.2454,0,.43.0146a1.1882,1.1882,0,0,1,.3379.0772v4.9765a4.7614,4.7614,0,0,0-.753-.2607,3.4924,3.4924,0,0,0-.8755-.1074,2.9552,2.9552,0,0,0-1.5976.4609,5.1755,5.1755,0,0,0-1.3516,1.26v11.5507Z"/><path class="cls-14" d="M202.5957,252.4639v-3.4717h5.0391v3.4717Zm.0313,20.7675V255.4746h5.0078v17.7568Z"/><path class="cls-14" d="M216.543,273.5391a7.3436,7.3436,0,0,1-3.3174-.6914,4.8273,4.8273,0,0,1-2.12-2.0284,6.552,6.552,0,0,1-.7373-3.21v-6.5127a6.5365,6.5365,0,0,1,.7373-3.2256,4.8352,4.8352,0,0,1,2.1347-2.0127,7.3694,7.3694,0,0,1,3.3028-.6914,7.0786,7.0786,0,0,1,3.2715.6758,4.4244,4.4244,0,0,1,1.9668,1.997,7.238,7.238,0,0,1,.66,3.2569V264.66h-7.1269v3.41a3.3308,3.3308,0,0,0,.1533,1.1055,1.1913,1.1913,0,0,0,.43.6152,1.1422,1.1422,0,0,0,.6455.1836,1.2855,1.2855,0,0,0,.66-.1689,1.1383,1.1383,0,0,0,.461-.5371,2.49,2.49,0,0,0,.1689-1.0137v-1.874h4.6084v1.72a5.1157,5.1157,0,0,1-1.5664,4.0713A6.3713,6.3713,0,0,1,216.543,273.5391Zm-1.2285-11.2139h2.5185v-1.7813a2.9234,2.9234,0,0,0-.1689-1.1064,1.0526,1.0526,0,0,0-.461-.5527,1.46,1.46,0,0,0-.69-.1534,1.0618,1.0618,0,0,0-.63.1836,1.2324,1.2324,0,0,0-.415.63,4.0934,4.0934,0,0,0-.1533,1.2754Z"/><path class="cls-14" d="M225.1758,273.2314V255.4746h5.0078v1.7822a8.4151,8.4151,0,0,1,2.043-1.5361,4.7482,4.7482,0,0,1,2.2275-.5537,2.9785,2.9785,0,0,1,1.8281.5381,3.2851,3.2851,0,0,1,1.09,1.4746,5.7889,5.7889,0,0,1,.3691,2.1348v13.9169h-4.9766v-13.21a1.84,1.84,0,0,0-.2158-.9834.8738.8738,0,0,0-.7978-.3379,1.9712,1.9712,0,0,0-.7227.1689,4.2072,4.2072,0,0,0-.8447.4766v13.8857Z"/><path class="cls-14" d="M246.5273,273.5391a7.1205,7.1205,0,0,1-3.3027-.7071,4.9559,4.9559,0,0,1-2.1045-2.0273,6.4678,6.4678,0,0,1-.7373-3.1953v-6.5127a6.5365,6.5365,0,0,1,.7373-3.2256,4.8665,4.8665,0,0,1,2.1045-2.0127,7.2476,7.2476,0,0,1,3.3027-.6914,8.0894,8.0894,0,0,1,3.2413.584,4.3323,4.3323,0,0,1,2.0429,1.7666,5.7692,5.7692,0,0,1,.7061,2.9951v1.874h-4.8233v-2.0273a3.3487,3.3487,0,0,0-.1386-1.0908.9761.9761,0,0,0-.3985-.5372,1.2242,1.2242,0,0,0-.63-.1543.947.947,0,0,0-.6152.2,1.2247,1.2247,0,0,0-.3682.6446,4.9071,4.9071,0,0,0-.123,1.2441v7.3731a3.1429,3.1429,0,0,0,.292,1.6289.957.957,0,0,0,.8447.43,1.1156,1.1156,0,0,0,.6455-.169,1.0206,1.0206,0,0,0,.3682-.5527,3.4812,3.4812,0,0,0,.123-1.0293v-2.3653h4.8233v2.15a5.7748,5.7748,0,0,1-.7217,2.9952,4.4455,4.4455,0,0,1-2.0586,1.8125A7.8084,7.8084,0,0,1,246.5273,273.5391Z"/><path class="cls-14" d="M260.9346,273.5391a7.3436,7.3436,0,0,1-3.3174-.6914,4.8273,4.8273,0,0,1-2.12-2.0284,6.552,6.552,0,0,1-.7373-3.21v-6.5127a6.5365,6.5365,0,0,1,.7373-3.2256,4.8352,4.8352,0,0,1,2.1347-2.0127,7.3694,7.3694,0,0,1,3.3028-.6914,7.0786,7.0786,0,0,1,3.2715.6758,4.4244,4.4244,0,0,1,1.9668,1.997,7.238,7.238,0,0,1,.66,3.2569V264.66h-7.1269v3.41a3.3308,3.3308,0,0,0,.1533,1.1055,1.1913,1.1913,0,0,0,.43.6152,1.1422,1.1422,0,0,0,.6455.1836,1.2855,1.2855,0,0,0,.66-.1689,1.1383,1.1383,0,0,0,.461-.5371,2.49,2.49,0,0,0,.1689-1.0137v-1.874h4.6084v1.72a5.1157,5.1157,0,0,1-1.5664,4.0713A6.3713,6.3713,0,0,1,260.9346,273.5391Zm-1.2285-11.2139h2.5185v-1.7813a2.9234,2.9234,0,0,0-.1689-1.1064,1.0526,1.0526,0,0,0-.461-.5527,1.46,1.46,0,0,0-.69-.1534,1.0618,1.0618,0,0,0-.63.1836,1.2324,1.2324,0,0,0-.415.63,4.0934,4.0934,0,0,0-.1533,1.2754Z"/><polygon class="cls-14" points="200 299.148 202.113 295.275 206.45 294.462 203.42 291.255 203.986 286.879 200 288.77 196.014 286.879 196.58 291.255 193.55 294.462 197.887 295.275 200 299.148"/><polygon class="cls-14" points="178.692 296.854 180.411 293.705 183.936 293.044 181.473 290.437 181.933 286.879 178.692 288.417 175.451 286.879 175.912 290.437 173.448 293.044 176.974 293.705 178.692 296.854"/><polygon class="cls-14" points="162.263 294.989 163.66 292.429 166.526 291.891 164.523 289.772 164.898 286.879 162.263 288.129 159.628 286.879 160.003 289.772 158 291.891 160.866 292.429 162.263 294.989"/><polygon class="cls-14" points="221.308 296.854 219.589 293.705 216.064 293.044 218.527 290.437 218.067 286.879 221.308 288.417 224.548 286.879 224.088 290.437 226.551 293.044 223.026 293.705 221.308 296.854"/><polygon class="cls-14" points="237.737 294.989 236.34 292.429 233.474 291.891 235.476 289.772 235.102 286.879 237.737 288.129 240.372 286.879 239.997 289.772 242 291.891 239.134 292.429 237.737 294.989"/></g></g></svg>