<svg xmlns="http://www.w3.org/2000/svg" xmlns:xlink="http://www.w3.org/1999/xlink" viewBox="0 0 93.43 75.75"><defs><style>.cls-1{fill:url(#linear-gradient);}</style><linearGradient id="linear-gradient" x1="-495.46" y1="37.87" x2="266.58" y2="37.87" gradientUnits="userSpaceOnUse"><stop offset="0" stop-color="#b42025"/><stop offset="0.11" stop-color="#b82325"/><stop offset="0.23" stop-color="#c42c26"/><stop offset="0.34" stop-color="#d93b28"/><stop offset="0.44" stop-color="#ef4b2a"/><stop offset="0.57" stop-color="#cc3a25"/><stop offset="0.76" stop-color="#9c231f"/><stop offset="0.91" stop-color="#7f151b"/><stop offset="1" stop-color="#741019"/></linearGradient></defs><title>Asset 7</title><g id="Layer_2" data-name="Layer 2"><g id="Layer_1-2" data-name="Layer 1"><path class="cls-1" d="M46.37,0Q64,0,74.59,2.05,87.13,4.47,91,14.09q2.4,5.91,2.4,21.81,0,19.32-2.67,25.91-4,10-20.35,12.8-6.72,1.14-25.14,1.14-29.24,0-37.6-7.13-5.47-4.68-7-14.31Q0,50,0,37.49q0-18.17,3.49-25Q7.95,3.86,23.15,1.21,30.14,0,46.37,0Zm-.14,19.79q-13.29,0-17.16,2.43Q24,25.4,24,37.74a54.67,54.67,0,0,0,.48,8.86c.64,3.28,2.07,5.66,4.29,7.12q3.81,2.49,17.92,2.49,14.82,0,18.48-2.8,4.22-3.24,4.22-15.06a49.68,49.68,0,0,0-.62-9.62q-1.61-6.81-9.34-8.4Q57,19.79,46.23,19.79Z"/></g></g></svg>