<svg xmlns="http://www.w3.org/2000/svg" xmlns:xlink="http://www.w3.org/1999/xlink" viewBox="0 0 116.92 105.04"><defs><style>.cls-1{fill:url(#linear-gradient);}</style><linearGradient id="linear-gradient" x1="-17.46" y1="52.52" x2="744.58" y2="52.52" gradientUnits="userSpaceOnUse"><stop offset="0" stop-color="#b42025"/><stop offset="0.11" stop-color="#b82325"/><stop offset="0.23" stop-color="#c42c26"/><stop offset="0.34" stop-color="#d93b28"/><stop offset="0.44" stop-color="#ef4b2a"/><stop offset="0.57" stop-color="#cc3a25"/><stop offset="0.76" stop-color="#9c231f"/><stop offset="0.91" stop-color="#7f151b"/><stop offset="1" stop-color="#741019"/></linearGradient></defs><title>Asset 2</title><g id="Layer_2" data-name="Layer 2"><g id="Layer_1-2" data-name="Layer 1"><path class="cls-1" d="M.34,71.25h28A26.7,26.7,0,0,0,29,77.54a6.13,6.13,0,0,0,3.9,4.14,25.36,25.36,0,0,0,7.68,1.07l11,.38q2.48.08,21-.3c5-.1,8.47-.53,10.49-1.29q5.61-2.12,5.62-8.4,0-7.78-8.23-9-2.06-.46-14.39-.47H40.3q-19,0-25.77-2.27A19,19,0,0,1,2.6,50.47Q0,44.34,0,33,0,15,7.6,8.19,13.9,2.43,31.24.68,38.08,0,58.5,0,87.68,0,95.15,1.82q9.93,2.43,14,9.16Q113,17.12,113,28.7v3.56H85.25q-.07-8-7.69-9.72c-1.09-.24-5.65-.37-13.65-.37q-16.8,0-25.85.79c-3.3.26-5.65.84-7.07,1.75q-3,2-3,6.87c0,4.37,2,7.13,6,8.3q2.6.76,11.52.76H72.07q2.67,0,14,.27,13.16.53,18.58,3,12.27,5.69,12.28,28.2,0,20.85-10.28,27.06Q97,105,56.81,105q-30.63,0-40.16-2.2-9.25-2.13-13.09-9Q.27,87.89.27,76.72C.27,75.91.29,74.09.34,71.25Z"/></g></g></svg>