<?xml version="1.0" encoding="utf-8"?>
<!-- Generator: Adobe Illustrator 19.0.0, SVG Export Plug-In . SVG Version: 6.00 Build 0)  -->
<svg version="1.1" id="Layer_1" xmlns="http://www.w3.org/2000/svg" xmlns:xlink="http://www.w3.org/1999/xlink" x="0px" y="0px"
	 viewBox="0 0 488.1 311.2" style="enable-background:new 0 0 488.1 311.2;" xml:space="preserve">
<style type="text/css">
	.st0{fill:url(#XMLID_101_);}
	.st1{fill:url(#XMLID_102_);}
	.st2{fill:url(#XMLID_103_);}
	.st3{fill:url(#XMLID_104_);}
	.st4{fill:url(#XMLID_105_);}
	.st5{fill:url(#XMLID_106_);}
	.st6{fill:url(#XMLID_107_);}
	.st7{fill:url(#XMLID_108_);}
	.st8{fill:url(#XMLID_109_);}
	.st9{fill:url(#XMLID_110_);}
	.st10{fill:url(#XMLID_111_);}
	.st11{fill:url(#XMLID_112_);}
	.st12{fill:url(#XMLID_113_);}
	.st13{fill:url(#XMLID_114_);}
	.st14{fill:url(#XMLID_115_);}
	.st15{fill:url(#XMLID_116_);}
	.st16{fill:url(#XMLID_117_);}
	.st17{fill:url(#XMLID_118_);}
	.st18{fill:url(#XMLID_119_);}
	.st19{fill:url(#XMLID_120_);}
	.st20{fill:url(#XMLID_121_);}
	.st21{fill:url(#XMLID_122_);}
	.st22{fill:url(#XMLID_123_);}
	.st23{fill:url(#XMLID_124_);}
	.st24{fill:url(#XMLID_125_);}
	.st25{fill:url(#XMLID_126_);}
	.st26{fill:url(#XMLID_127_);}
	.st27{fill:url(#XMLID_128_);}
	.st28{fill:url(#XMLID_129_);}
	.st29{fill:url(#XMLID_130_);}
	.st30{fill:url(#XMLID_131_);}
	.st31{fill:url(#XMLID_132_);}
	.st32{fill:url(#XMLID_133_);}
	.st33{fill:url(#XMLID_134_);}
	.st34{fill:url(#XMLID_135_);}
	.st35{fill:url(#XMLID_136_);}
	.st36{opacity:0.66;fill:url(#XMLID_137_);enable-background:new    ;}
	.st37{fill:url(#XMLID_138_);}
	.st38{fill:url(#XMLID_139_);}
	.st39{fill:url(#XMLID_140_);}
	.st40{fill:url(#XMLID_141_);}
	.st41{fill:url(#XMLID_142_);}
	.st42{fill:url(#XMLID_143_);}
	.st43{fill:url(#XMLID_144_);}
	.st44{opacity:0.34;fill:url(#XMLID_145_);enable-background:new    ;}
	.st45{fill:url(#XMLID_146_);}
	.st46{fill:url(#XMLID_147_);}
</style>
<linearGradient id="XMLID_101_" gradientUnits="userSpaceOnUse" x1="1002.9807" y1="1747.021" x2="1094.6929" y2="1747.021" gradientTransform="matrix(-0.9789 0.2042 0.2042 0.9789 992.2404 -1735.0594)">
	<stop  offset="0" style="stop-color:#05A2D9"/>
	<stop  offset="0.2" style="stop-color:#31378B"/>
	<stop  offset="0.4" style="stop-color:#E21983"/>
	<stop  offset="0.6" style="stop-color:#E63130"/>
	<stop  offset="0.8" style="stop-color:#F7E423"/>
	<stop  offset="1" style="stop-color:#0C9B54"/>
</linearGradient>
<path id="XMLID_47_" class="st0" d="M362.6,169.8c-6.2,18.3-29.4,39.9-82.4,42.7c53-2.8,93-27,83.2-48.4
	C363.3,166,363,167.9,362.6,169.8z"/>
<linearGradient id="XMLID_102_" gradientUnits="userSpaceOnUse" x1="978.6183" y1="1748.4216" x2="1144.4513" y2="1748.4216" gradientTransform="matrix(-0.9789 0.2042 0.2042 0.9789 992.2404 -1735.0594)">
	<stop  offset="0" style="stop-color:#05A2D9"/>
	<stop  offset="0.2" style="stop-color:#31378B"/>
	<stop  offset="0.4" style="stop-color:#E21983"/>
	<stop  offset="0.6" style="stop-color:#E63130"/>
	<stop  offset="0.8" style="stop-color:#F7E423"/>
	<stop  offset="1" style="stop-color:#0C9B54"/>
</linearGradient>
<path id="XMLID_46_" class="st1" d="M253.8,238.8c118.1-8.1,159-59.7,122.5-96.7c41.8,41.4-24.6,92.6-141.5,96.4
	C238.2,238.7,244.4,238.9,253.8,238.8z"/>
<linearGradient id="XMLID_103_" gradientUnits="userSpaceOnUse" x1="987.413" y1="1748.4431" x2="1159.8364" y2="1748.4431" gradientTransform="matrix(-0.9789 0.2042 0.2042 0.9789 992.2404 -1735.0594)">
	<stop  offset="0" style="stop-color:#05A2D9"/>
	<stop  offset="0.2" style="stop-color:#31378B"/>
	<stop  offset="0.4" style="stop-color:#E21983"/>
	<stop  offset="0.6" style="stop-color:#E63130"/>
	<stop  offset="0.8" style="stop-color:#F7E423"/>
	<stop  offset="1" style="stop-color:#0C9B54"/>
</linearGradient>
<path id="XMLID_45_" class="st2" d="M372.2,149.7c35.4,41-52.4,91.4-154.9,80.4c102.5,11,182.1-38,156.7-78.6
	C373.8,151.5,373.2,150.9,372.2,149.7z"/>
<linearGradient id="XMLID_104_" gradientUnits="userSpaceOnUse" x1="983.8936" y1="1758.2102" x2="1195.7976" y2="1758.2102" gradientTransform="matrix(-0.9789 0.2042 0.2042 0.9789 992.2404 -1735.0594)">
	<stop  offset="0" style="stop-color:#05A2D9"/>
	<stop  offset="0.2" style="stop-color:#31378B"/>
	<stop  offset="0.4" style="stop-color:#E21983"/>
	<stop  offset="0.6" style="stop-color:#E63130"/>
	<stop  offset="0.8" style="stop-color:#F7E423"/>
	<stop  offset="1" style="stop-color:#0C9B54"/>
</linearGradient>
<path id="XMLID_44_" class="st3" d="M382.1,161.6c16.3,49.4-92.2,94.2-201.7,67.9C286.1,247.9,384.1,207.1,383,163
	C382.9,163.2,382.6,162.9,382.1,161.6z"/>
<linearGradient id="XMLID_105_" gradientUnits="userSpaceOnUse" x1="992.5488" y1="1745.9185" x2="1160.2253" y2="1745.9185" gradientTransform="matrix(-0.9789 0.2042 0.2042 0.9789 992.2404 -1735.0594)">
	<stop  offset="0" style="stop-color:#05A2D9"/>
	<stop  offset="0.2" style="stop-color:#31378B"/>
	<stop  offset="0.4" style="stop-color:#E21983"/>
	<stop  offset="0.6" style="stop-color:#E63130"/>
	<stop  offset="0.8" style="stop-color:#F7E423"/>
	<stop  offset="1" style="stop-color:#0C9B54"/>
</linearGradient>
<path id="XMLID_43_" class="st4" d="M370.4,158.8c12.3,36.2-58.9,68.6-154.8,64.7c95.9,3.9,183.9-31.3,153.6-69.1
	C369.6,155.8,370.1,157.3,370.4,158.8z"/>
<linearGradient id="XMLID_106_" gradientUnits="userSpaceOnUse" x1="956.843" y1="1724.8577" x2="1098.0327" y2="1724.8577" gradientTransform="matrix(-0.9789 0.2042 0.2042 0.9789 992.2404 -1735.0594)">
	<stop  offset="0" style="stop-color:#05A2D9"/>
	<stop  offset="0.2" style="stop-color:#31378B"/>
	<stop  offset="0.4" style="stop-color:#E21983"/>
	<stop  offset="0.6" style="stop-color:#E63130"/>
	<stop  offset="0.8" style="stop-color:#F7E423"/>
	<stop  offset="1" style="stop-color:#0C9B54"/>
</linearGradient>
<path id="XMLID_42_" class="st5" d="M254.7,106.6c63.2-1.9,138.1,20.8,153.2,54.4c15.6,27,2.3,61.9-66.7,75.8
	c104.7-21.1,75.9-81.2,33.5-107.3c-30.5-13.3-66-21.8-109.9-22.8C258.5,106.6,254.7,106.6,254.7,106.6z"/>
<linearGradient id="XMLID_107_" gradientUnits="userSpaceOnUse" x1="950.7382" y1="1722.4037" x2="1117.9664" y2="1722.4037" gradientTransform="matrix(-0.9789 0.2042 0.2042 0.9789 992.2404 -1735.0594)">
	<stop  offset="0" style="stop-color:#05A2D9"/>
	<stop  offset="0.2" style="stop-color:#31378B"/>
	<stop  offset="0.4" style="stop-color:#E21983"/>
	<stop  offset="0.6" style="stop-color:#E63130"/>
	<stop  offset="0.8" style="stop-color:#F7E423"/>
	<stop  offset="1" style="stop-color:#0C9B54"/>
</linearGradient>
<path id="XMLID_41_" class="st6" d="M234.1,105.5c66.5-5.6,145,12.4,174,43.4c14.5,23.6,18.9,50.3-16.7,77.8
	c37.8-33.9,39-73-10.6-97.9c-36.2-17.4-91.4-28-143-23.6C236.6,105.4,235.3,105.5,234.1,105.5z"/>
<linearGradient id="XMLID_108_" gradientUnits="userSpaceOnUse" x1="949.1702" y1="1725.5139" x2="1103.3464" y2="1725.5139" gradientTransform="matrix(-0.9789 0.2042 0.2042 0.9789 992.2404 -1735.0594)">
	<stop  offset="0" style="stop-color:#05A2D9"/>
	<stop  offset="0.2" style="stop-color:#31378B"/>
	<stop  offset="0.4" style="stop-color:#E21983"/>
	<stop  offset="0.6" style="stop-color:#E63130"/>
	<stop  offset="0.8" style="stop-color:#F7E423"/>
	<stop  offset="1" style="stop-color:#0C9B54"/>
</linearGradient>
<path id="XMLID_40_" class="st7" d="M381,233.9c43.5-27.8,46.8-57.2,31.4-81.7c-24.4-32.5-98.9-51.3-163.8-48.3
	c64.9-2.9,137.1,18.7,163.8,48.3c15.4,24.5,12.1,53.9-30,80.5C381.6,233.3,380.8,233.8,381,233.9z"/>
<linearGradient id="XMLID_109_" gradientUnits="userSpaceOnUse" x1="929.4351" y1="1700.543" x2="1235.2753" y2="1700.543" gradientTransform="matrix(-0.9789 0.2042 0.2042 0.9789 992.2404 -1735.0594)">
	<stop  offset="0" style="stop-color:#05A2D9"/>
	<stop  offset="0.2" style="stop-color:#31378B"/>
	<stop  offset="0.4" style="stop-color:#E21983"/>
	<stop  offset="0.6" style="stop-color:#E63130"/>
	<stop  offset="0.8" style="stop-color:#F7E423"/>
	<stop  offset="1" style="stop-color:#0C9B54"/>
</linearGradient>
<path id="XMLID_39_" class="st8" d="M441.8,179.8c-1.7-35.1-63.5-66.8-126-77c-69-10.2-145.1,0.7-196.1,28.6
	c50.4-31.8,159.6-40.9,227.9-22.6c44,13.2,81.7,33.8,93.2,67.1C441.5,178.5,441.8,179.8,441.8,179.8z"/>
<linearGradient id="XMLID_110_" gradientUnits="userSpaceOnUse" x1="932.4031" y1="1763.6101" x2="1327.1722" y2="1763.6101" gradientTransform="matrix(-0.9789 0.2042 0.2042 0.9789 992.2404 -1735.0594)">
	<stop  offset="0" style="stop-color:#05A2D9"/>
	<stop  offset="0.2" style="stop-color:#31378B"/>
	<stop  offset="0.4" style="stop-color:#E21983"/>
	<stop  offset="0.6" style="stop-color:#E63130"/>
	<stop  offset="0.8" style="stop-color:#F7E423"/>
	<stop  offset="1" style="stop-color:#0C9B54"/>
</linearGradient>
<path id="XMLID_38_" class="st9" d="M43.2,193.4c-16.9,78.8,147.5,114.7,284.2,82.7c129.4-30.3,132.8-118.3,55.9-150.4
	c66.5,25.4,74.1,74.3,20.3,114.5c-40.8,27.6-88.6,38.8-157.5,44.2C127.9,289.6,32.8,254.6,43.6,198
	C43.3,194.9,43.2,193.4,43.2,193.4z"/>
<linearGradient id="XMLID_111_" gradientUnits="userSpaceOnUse" x1="960.3237" y1="1713.78" x2="1264.948" y2="1713.78" gradientTransform="matrix(-0.9789 0.2042 0.2042 0.9789 992.2404 -1735.0594)">
	<stop  offset="0" style="stop-color:#05A2D9"/>
	<stop  offset="0.2" style="stop-color:#31378B"/>
	<stop  offset="0.4" style="stop-color:#E21983"/>
	<stop  offset="0.6" style="stop-color:#E63130"/>
	<stop  offset="0.8" style="stop-color:#F7E423"/>
	<stop  offset="1" style="stop-color:#0C9B54"/>
</linearGradient>
<path id="XMLID_37_" class="st10" d="M403,143.4c-30.8-34.6-136.9-48.6-204.6-35.8c-62.1,11.7-108.4,41.9-96.8,76.4
	c28.5,61.4,176.3,74.2,264.3,26.3c46.9-31.3,23.3-69.9-28.1-88.4c-30.5-9.7-74.1-15.1-115.9-7.2c-55.2,9.7-87,33.6-78.3,59.5
	c-8.2-35.7,50.3-59.6,117.1-62.7c12.4-1,28.4,2.3,42.8,3.4c55.4,7.6,91.2,35.6,81.2,63.4c-13.7,37.7-79.9,57.7-165.6,58.6
	c-88.3-6.1-140.9-45.1-112-82.3c21.6-34.8,96.2-51.6,159.3-52.2c51.5,2.2,106.9,16,135.9,40.5C402.6,143.1,402.8,143.3,403,143.4z"
	/>
<linearGradient id="XMLID_112_" gradientUnits="userSpaceOnUse" x1="963.2073" y1="1723.1646" x2="1236.3405" y2="1723.1646" gradientTransform="matrix(-0.9789 0.2042 0.2042 0.9789 992.2404 -1735.0594)">
	<stop  offset="0" style="stop-color:#05A2D9"/>
	<stop  offset="0.2" style="stop-color:#31378B"/>
	<stop  offset="0.4" style="stop-color:#E21983"/>
	<stop  offset="0.6" style="stop-color:#E63130"/>
	<stop  offset="0.8" style="stop-color:#F7E423"/>
	<stop  offset="1" style="stop-color:#0C9B54"/>
</linearGradient>
<path id="XMLID_36_" class="st11" d="M247.4,118.3c43.8-2.3,96.1,8.6,112.2,29.3c12,18.6,9.1,33.3-16.3,48.2
	c-46.1,27-139.2,29.6-188.6,6.6c-59.7-34.9-10.9-81.2,65.1-92c69.6-9.6,147.8,8.7,174.9,40.3c46.5,52.3-60.6,113.9-198.6,98.4
	c149.5,12.8,245.1-46.2,198.6-98.5c-20-21.2-59-36.1-103.5-41.6c-48.6-4.7-105.4,1.7-139.5,22.2c-46.1,31-31.8,82.1,75,90.3
	c95,3.8,146.4-36.1,136.4-70.6c-3.8-10.2-29.6-20.1-44.1-27.1c-36.2-9.4-84-10.1-114.1,2.6c5.2-5.7,28.5-2.6,31.8-6.9
	C241.5,118.9,247.4,118.3,247.4,118.3z"/>
<linearGradient id="XMLID_113_" gradientUnits="userSpaceOnUse" x1="965.5084" y1="1722.3824" x2="1291.1167" y2="1722.3824" gradientTransform="matrix(-0.9789 0.2042 0.2042 0.9789 992.2404 -1735.0594)">
	<stop  offset="0" style="stop-color:#05A2D9"/>
	<stop  offset="0.2" style="stop-color:#31378B"/>
	<stop  offset="0.4" style="stop-color:#E21983"/>
	<stop  offset="0.6" style="stop-color:#E63130"/>
	<stop  offset="0.8" style="stop-color:#F7E423"/>
	<stop  offset="1" style="stop-color:#0C9B54"/>
</linearGradient>
<path id="XMLID_35_" class="st12" d="M395,206.1c-49.3,55.8-208.3,71.2-289,22c-56.6-46.8-19.1-96.7,58.9-117.9
	c-60.6,17-111.6,62-80.5,102.5c73.6,70.6,296.1,61.1,323.1-22c-8.2,1.4-2.9,6.4-6.9,9C398.9,202,397,204.1,395,206.1z"/>
<linearGradient id="XMLID_114_" gradientUnits="userSpaceOnUse" x1="914.686" y1="1763.6025" x2="1354.3201" y2="1763.6025" gradientTransform="matrix(-0.9789 0.2042 0.2042 0.9789 992.2404 -1735.0594)">
	<stop  offset="0" style="stop-color:#05A2D9"/>
	<stop  offset="0.2" style="stop-color:#31378B"/>
	<stop  offset="0.4" style="stop-color:#E21983"/>
	<stop  offset="0.6" style="stop-color:#E63130"/>
	<stop  offset="0.8" style="stop-color:#F7E423"/>
	<stop  offset="1" style="stop-color:#0C9B54"/>
</linearGradient>
<path id="XMLID_34_" class="st13" d="M449.7,171.9c35.6,58.6-55.3,120.8-197.2,133.1C94.9,307.1-20.3,248.4,29.1,179.3
	c-64,95.2,131.2,161.2,303.6,106.1C424.4,263,486,222.3,450.7,173C450.5,172.9,450.3,173,449.7,171.9z"/>
<linearGradient id="XMLID_115_" gradientUnits="userSpaceOnUse" x1="1006.8182" y1="1727.5375" x2="1054.6864" y2="1727.5375" gradientTransform="matrix(-0.9789 0.2042 0.2042 0.9789 992.2404 -1735.0594)">
	<stop  offset="0" style="stop-color:#05A2D9"/>
	<stop  offset="0.2" style="stop-color:#31378B"/>
	<stop  offset="0.4" style="stop-color:#E21983"/>
	<stop  offset="0.6" style="stop-color:#E63130"/>
	<stop  offset="0.8" style="stop-color:#F7E423"/>
	<stop  offset="1" style="stop-color:#0C9B54"/>
</linearGradient>
<path id="XMLID_33_" class="st14" d="M331.4,131.6c31.8,19.3,37.3,49.3-11.8,74.1c45.2-19,54.4-52.4,14.4-72.8
	C332.4,132.1,331.4,131.6,331.4,131.6z"/>
<linearGradient id="XMLID_116_" gradientUnits="userSpaceOnUse" x1="990.041" y1="1714.2974" x2="1078.6537" y2="1714.2974" gradientTransform="matrix(-0.9789 0.2042 0.2042 0.9789 992.2404 -1735.0594)">
	<stop  offset="0" style="stop-color:#05A2D9"/>
	<stop  offset="0.2" style="stop-color:#31378B"/>
	<stop  offset="0.4" style="stop-color:#E21983"/>
	<stop  offset="0.6" style="stop-color:#E63130"/>
	<stop  offset="0.8" style="stop-color:#F7E423"/>
	<stop  offset="1" style="stop-color:#0C9B54"/>
</linearGradient>
<path id="XMLID_32_" class="st15" d="M276.1,114.4c15.1,1.7,29.6,2.9,46.8,6.4c52.6,14.8,67.9,47.1,42.5,77.2
	c35.5-35.9-9.5-77.8-84.5-83.5C279.3,114.6,277.7,114.5,276.1,114.4z"/>
<linearGradient id="XMLID_117_" gradientUnits="userSpaceOnUse" x1="979.5224" y1="1713.8756" x2="1080.8049" y2="1713.8756" gradientTransform="matrix(-0.9789 0.2042 0.2042 0.9789 992.2404 -1735.0594)">
	<stop  offset="0" style="stop-color:#05A2D9"/>
	<stop  offset="0.2" style="stop-color:#31378B"/>
	<stop  offset="0.4" style="stop-color:#E21983"/>
	<stop  offset="0.6" style="stop-color:#E63130"/>
	<stop  offset="0.8" style="stop-color:#F7E423"/>
	<stop  offset="1" style="stop-color:#0C9B54"/>
</linearGradient>
<path id="XMLID_31_" class="st16" d="M379.8,194.9c32.7-42.8-29.7-79.3-106.7-84.3c77,5,137.2,45.9,101.9,88.9
	C376.7,198.1,378.3,196.6,379.8,194.9z"/>
<linearGradient id="XMLID_118_" gradientUnits="userSpaceOnUse" x1="954.1841" y1="1730.8214" x2="1308.8896" y2="1730.8214" gradientTransform="matrix(-0.9789 0.2042 0.2042 0.9789 992.2404 -1735.0594)">
	<stop  offset="0" style="stop-color:#05A2D9"/>
	<stop  offset="0.2" style="stop-color:#31378B"/>
	<stop  offset="0.4" style="stop-color:#E21983"/>
	<stop  offset="0.6" style="stop-color:#E63130"/>
	<stop  offset="0.8" style="stop-color:#F7E423"/>
	<stop  offset="1" style="stop-color:#0C9B54"/>
</linearGradient>
<path id="XMLID_30_" class="st17" d="M419.1,190.5c-1.3,96-244.9,110.1-339.3,41.9C35.9,187.6,56.6,143,136.4,117
	c-58.1,15.2-79.7,46.9-79.6,72.8c2.3,26.6,33.4,55.1,86.3,69.3c119.8,32.1,246.3-7,275.5-65.3C418.7,192.6,418.8,191.5,419.1,190.5z
	"/>
<linearGradient id="XMLID_119_" gradientUnits="userSpaceOnUse" x1="942.7517" y1="1731.7905" x2="1319.6575" y2="1731.7905" gradientTransform="matrix(-0.9789 0.2042 0.2042 0.9789 992.2404 -1735.0594)">
	<stop  offset="0" style="stop-color:#05A2D9"/>
	<stop  offset="0.2" style="stop-color:#31378B"/>
	<stop  offset="0.4" style="stop-color:#E21983"/>
	<stop  offset="0.6" style="stop-color:#E63130"/>
	<stop  offset="0.8" style="stop-color:#F7E423"/>
	<stop  offset="1" style="stop-color:#0C9B54"/>
</linearGradient>
<path id="XMLID_29_" class="st18" d="M128.5,117.2c-94.6,34.5-126,113.9,14.7,150.5c155.4,37.8,286.8-24.7,284.7-91
	c12.3,103.9-285,155-368.6,39.8c-19-38.4,14.5-71.8,63.9-97C126.8,117.8,128.5,117.2,128.5,117.2z"/>
<linearGradient id="XMLID_120_" gradientUnits="userSpaceOnUse" x1="985.1755" y1="1711.5797" x2="1250.5042" y2="1711.5797" gradientTransform="matrix(-0.9789 0.2042 0.2042 0.9789 992.2404 -1735.0594)">
	<stop  offset="0" style="stop-color:#05A2D9"/>
	<stop  offset="0.2" style="stop-color:#31378B"/>
	<stop  offset="0.4" style="stop-color:#E21983"/>
	<stop  offset="0.6" style="stop-color:#E63130"/>
	<stop  offset="0.8" style="stop-color:#F7E423"/>
	<stop  offset="1" style="stop-color:#0C9B54"/>
</linearGradient>
<path id="XMLID_28_" class="st19" d="M172.3,181.4c12.3,1.3,13.1,6.1,13.9,11.1c-61.3-32.3-12.9-73.7,63.3-77.7
	c45.7-1.5,100.3,11.4,120.7,35.2c8.8,15.1,6.5,29.6-13.7,49.4c-58.9,46.1-175.2,37-224.2,0.7c-45.3-39.6,11.5-78.9,80-91.4
	c52.6-8.1,118.3,1.5,162.4,20.7c-21.8-11.6-49.8-18.7-79.6-22.9c-61-5.7-123,5.3-159.6,29.1c-29.1,22.8-33.9,48.5,7.9,74.2
	c94.5,47.8,251.6,8.7,227.4-52.1c-5.6-30.3-85.6-48.2-141.1-41.2c-62.7,10.5-95.4,42.6-56.9,65.8C172.6,182,172.2,181.6,172.3,181.4
	z"/>
<linearGradient id="XMLID_121_" gradientUnits="userSpaceOnUse" x1="913.6329" y1="1737.5753" x2="1215.8423" y2="1737.5753" gradientTransform="matrix(-0.9789 0.2042 0.2042 0.9789 992.2404 -1735.0594)">
	<stop  offset="0" style="stop-color:#05A2D9"/>
	<stop  offset="0.2" style="stop-color:#31378B"/>
	<stop  offset="0.4" style="stop-color:#E21983"/>
	<stop  offset="0.6" style="stop-color:#E63130"/>
	<stop  offset="0.8" style="stop-color:#F7E423"/>
	<stop  offset="1" style="stop-color:#0C9B54"/>
</linearGradient>
<path id="XMLID_27_" class="st20" d="M400.6,267.7c124.6-68.1,27.2-154.6-89.1-168.6c-59.3-6.9-122.7-0.8-175,17.9
	c58.5-19.1,126.7-25.5,190.2-15.1c57.1,10.6,116.2,35.5,130,70.2c7.5,33.1-7.5,66.6-55.9,95.6C401,267.5,400.3,267.9,400.6,267.7z"
	/>
<linearGradient id="XMLID_122_" gradientUnits="userSpaceOnUse" x1="916.8149" y1="1733.0037" x2="1219.9344" y2="1733.0037" gradientTransform="matrix(-0.9789 0.2042 0.2042 0.9789 992.2404 -1735.0594)">
	<stop  offset="0" style="stop-color:#05A2D9"/>
	<stop  offset="0.2" style="stop-color:#31378B"/>
	<stop  offset="0.4" style="stop-color:#E21983"/>
	<stop  offset="0.6" style="stop-color:#E63130"/>
	<stop  offset="0.8" style="stop-color:#F7E423"/>
	<stop  offset="1" style="stop-color:#0C9B54"/>
</linearGradient>
<path id="XMLID_26_" class="st21" d="M132.9,119.8C182.6,98.7,253.5,93.9,306,99.5c107.8,12.6,211.2,89.1,111,155.5
	c85.8-57.4,19.8-129.5-74.7-150.2c-61.6-12.8-154.6-10.1-206.9,13.7C134.9,118.8,134.5,119.1,132.9,119.8z"/>
<linearGradient id="XMLID_123_" gradientUnits="userSpaceOnUse" x1="1047.8596" y1="1744.1049" x2="1193.5723" y2="1744.1049" gradientTransform="matrix(-0.9789 0.2042 0.2042 0.9789 992.2404 -1735.0594)">
	<stop  offset="0" style="stop-color:#05A2D9"/>
	<stop  offset="0.2" style="stop-color:#31378B"/>
	<stop  offset="0.4" style="stop-color:#E21983"/>
	<stop  offset="0.6" style="stop-color:#E63130"/>
	<stop  offset="0.8" style="stop-color:#F7E423"/>
	<stop  offset="1" style="stop-color:#0C9B54"/>
</linearGradient>
<path id="XMLID_25_" class="st22" d="M207.3,210.6c52.1,5.4,82.9,0.1,117.8-11.9c-41.8,19.7-121.1,26.6-148.6,0.4
	c0.7,5.5,1.5,11.2,21.2,9.3C200.8,209.4,203.9,210,207.3,210.6z"/>
<linearGradient id="XMLID_124_" gradientUnits="userSpaceOnUse" x1="969.9464" y1="1720.4581" x2="1125.7212" y2="1720.4581" gradientTransform="matrix(-0.9789 0.2042 0.2042 0.9789 992.2404 -1735.0594)">
	<stop  offset="0" style="stop-color:#05A2D9"/>
	<stop  offset="0.2" style="stop-color:#31378B"/>
	<stop  offset="0.4" style="stop-color:#E21983"/>
	<stop  offset="0.6" style="stop-color:#E63130"/>
	<stop  offset="0.8" style="stop-color:#F7E423"/>
	<stop  offset="1" style="stop-color:#0C9B54"/>
</linearGradient>
<path id="XMLID_24_" class="st23" d="M227.3,111.1c36.3-4.2,83.6-1.5,116.6,10.3c66.4,23.6,83,77.9-7.4,108.6
	c82.1-29.2,71.5-81.1,19.4-104.3c-34.5-12.3-80.3-19.7-120.6-15.3C230.4,110.7,227.3,111.1,227.3,111.1z"/>
<linearGradient id="XMLID_125_" gradientUnits="userSpaceOnUse" x1="908.2838" y1="1744.8088" x2="1176.5359" y2="1744.8088" gradientTransform="matrix(-0.9789 0.2042 0.2042 0.9789 992.2404 -1735.0594)">
	<stop  offset="0" style="stop-color:#05A2D9"/>
	<stop  offset="0.2" style="stop-color:#31378B"/>
	<stop  offset="0.4" style="stop-color:#E21983"/>
	<stop  offset="0.6" style="stop-color:#E63130"/>
	<stop  offset="0.8" style="stop-color:#F7E423"/>
	<stop  offset="1" style="stop-color:#0C9B54"/>
</linearGradient>
<path id="XMLID_23_" class="st24" d="M174.1,105c60.2-13.3,126.1-10.7,184.4,2.8c63.1,16.6,108.1,49,106.8,90.6
	c-6.9,38.1-47.5,88-139.9,100.2c136.2-23.8,170-99.6,118-146.7c-25.3-21.3-56.4-37.3-95.7-47.5c-52.9-9.7-113.4-12.7-171.9,0.1
	C175.2,104.7,174.6,104.9,174.1,105z"/>
<linearGradient id="XMLID_126_" gradientUnits="userSpaceOnUse" x1="919.328" y1="1733.3831" x2="1220.6982" y2="1733.3831" gradientTransform="matrix(-0.9789 0.2042 0.2042 0.9789 992.2404 -1735.0594)">
	<stop  offset="0" style="stop-color:#05A2D9"/>
	<stop  offset="0.2" style="stop-color:#31378B"/>
	<stop  offset="0.4" style="stop-color:#E21983"/>
	<stop  offset="0.6" style="stop-color:#E63130"/>
	<stop  offset="0.8" style="stop-color:#F7E423"/>
	<stop  offset="1" style="stop-color:#0C9B54"/>
</linearGradient>
<path id="XMLID_22_" class="st25" d="M132.3,120.8c57.1-20.6,125.4-28.9,188.9-18.4c103.6,16.2,181.8,89,95.9,152.7
	c70.1-47.7,32.7-104-25.6-133.1c-35.7-16.2-82.1-24.6-129.6-25c-41.9,1-91.3,6.5-126.1,22.3L132.3,120.8z"/>
<linearGradient id="XMLID_127_" gradientUnits="userSpaceOnUse" x1="985.1539" y1="1712.0094" x2="1254.3129" y2="1712.0094" gradientTransform="matrix(-0.9789 0.2042 0.2042 0.9789 992.2404 -1735.0594)">
	<stop  offset="0" style="stop-color:#05A2D9"/>
	<stop  offset="0.2" style="stop-color:#31378B"/>
	<stop  offset="0.4" style="stop-color:#E21983"/>
	<stop  offset="0.6" style="stop-color:#E63130"/>
	<stop  offset="0.8" style="stop-color:#F7E423"/>
	<stop  offset="1" style="stop-color:#0C9B54"/>
</linearGradient>
<path id="XMLID_21_" class="st26" d="M172.5,184.6c-28.9-14.5-20.1-38,3.1-52.6c19.7-12.4,52.9-17.7,86.7-18.2
	c61.6,1.8,116.7,24.6,117.8,60.4c-10,29-54,57.8-126.3,56.6c-73.4-1.3-122-19.1-141.5-48c-14.7-27,15.1-49.3,53.7-63.3
	c32.4-11.8,64.2-14.2,102-15c38.6,1.2,79.3,9,106.6,25c-21.7-16.5-68.1-23.8-99.1-23.5c-59.8-3.7-139.2,11-158.7,44.3
	c-27.3,40.2,26.4,85.6,136.9,80.5c68-5.3,112.1-20.4,122.9-51.1c9.9-35.4-46.9-64.6-108.1-66.4c-40.1,1-80.4,6.8-100.4,22.3
	c-15.7,14.4-34.4,35.7,1.6,48.1C169.9,183.4,170.7,183.6,172.5,184.6z"/>
<linearGradient id="XMLID_128_" gradientUnits="userSpaceOnUse" x1="883.4247" y1="1739.9619" x2="1355.6" y2="1739.9619" gradientTransform="matrix(-0.9789 0.2042 0.2042 0.9789 992.2404 -1735.0594)">
	<stop  offset="0" style="stop-color:#05A2D9"/>
	<stop  offset="0.2" style="stop-color:#31378B"/>
	<stop  offset="0.4" style="stop-color:#E21983"/>
	<stop  offset="0.6" style="stop-color:#E63130"/>
	<stop  offset="0.8" style="stop-color:#F7E423"/>
	<stop  offset="1" style="stop-color:#0C9B54"/>
</linearGradient>
<path id="XMLID_20_" class="st27" d="M488.1,174.8c-33.9-54-148.9-88.4-243.8-85.5c-63.5,2.3-142.7,18.9-186.2,50.4
	c-46.4,33-58.7,73.4-25.3,114.9c92.8,81.2,290.3,70.1,394.5-2c51.9-43.7,35-103.3-32.2-128.3c61,25.8,84.9,77.7,35,118.6
	c-115.6,98.6-372.2,83.9-410.3-20.8c-8.1-49.4,33.8-90.7,103-113.2c58-17.3,123.4-24.5,186-17c75.4,9.4,153.4,36.7,177.7,80.7
	C487.1,173.5,487.7,174.3,488.1,174.8z"/>
<linearGradient id="XMLID_129_" gradientUnits="userSpaceOnUse" x1="-85.7054" y1="181.5666" x2="-18.0775" y2="181.5666" gradientTransform="matrix(-0.3782 0.9257 0.9257 0.3782 88.7858 184.4518)">
	<stop  offset="0" style="stop-color:#05A2D9"/>
	<stop  offset="0.2" style="stop-color:#31378B"/>
	<stop  offset="0.4" style="stop-color:#E21983"/>
	<stop  offset="0.6" style="stop-color:#E63130"/>
	<stop  offset="0.8" style="stop-color:#F7E423"/>
	<stop  offset="1" style="stop-color:#0C9B54"/>
</linearGradient>
<path id="XMLID_19_" class="st28" d="M227.1,216.4c48.8,10.3,79.4-14.6,116.2-20.6c-33.2,11.5-78.3,32.9-133.5,18.5
	C215.4,215.2,221,215.9,227.1,216.4z"/>
<linearGradient id="XMLID_130_" gradientUnits="userSpaceOnUse" x1="-131.3957" y1="194.1853" x2="6.5357" y2="194.1853" gradientTransform="matrix(-0.3782 0.9257 0.9257 0.3782 88.7858 184.4518)">
	<stop  offset="0" style="stop-color:#05A2D9"/>
	<stop  offset="0.2" style="stop-color:#31378B"/>
	<stop  offset="0.4" style="stop-color:#E21983"/>
	<stop  offset="0.6" style="stop-color:#E63130"/>
	<stop  offset="0.8" style="stop-color:#F7E423"/>
	<stop  offset="1" style="stop-color:#0C9B54"/>
</linearGradient>
<path id="XMLID_18_" class="st29" d="M384.1,163.3c8.9,42.1-86.5,82.3-190.5,71c104,11.3,204.9-23.3,191.1-70.9
	C384.6,164.1,384.4,164.1,384.1,163.3z"/>
<linearGradient id="XMLID_131_" gradientUnits="userSpaceOnUse" x1="-141.1354" y1="217.2318" x2="-19.5649" y2="217.2318" gradientTransform="matrix(-0.3782 0.9257 0.9257 0.3782 88.7858 184.4518)">
	<stop  offset="0" style="stop-color:#05A2D9"/>
	<stop  offset="0.2" style="stop-color:#31378B"/>
	<stop  offset="0.4" style="stop-color:#E21983"/>
	<stop  offset="0.6" style="stop-color:#E63130"/>
	<stop  offset="0.8" style="stop-color:#F7E423"/>
	<stop  offset="1" style="stop-color:#0C9B54"/>
</linearGradient>
<path id="XMLID_17_" class="st30" d="M367.6,145.9c37.5,34.4-25.6,75.8-113.7,84.9c88.2-9.1,151.3-50.4,115.3-83.8
	C369.1,147.2,368.6,146.8,367.6,145.9z"/>
<linearGradient id="XMLID_132_" gradientUnits="userSpaceOnUse" x1="-129.5862" y1="182.6592" x2="-6.6561" y2="182.6592" gradientTransform="matrix(-0.3782 0.9257 0.9257 0.3782 88.7858 184.4518)">
	<stop  offset="0" style="stop-color:#05A2D9"/>
	<stop  offset="0.2" style="stop-color:#31378B"/>
	<stop  offset="0.4" style="stop-color:#E21983"/>
	<stop  offset="0.6" style="stop-color:#E63130"/>
	<stop  offset="0.8" style="stop-color:#F7E423"/>
	<stop  offset="1" style="stop-color:#0C9B54"/>
</linearGradient>
<path id="XMLID_16_" class="st31" d="M189.5,218.4c100.5,13,189.4-16.8,185.3-57.1c-0.8,35.1-70.1,74.8-170.4,59.6
	C194.6,219.4,189.5,218.4,189.5,218.4z"/>
<linearGradient id="XMLID_133_" gradientUnits="userSpaceOnUse" x1="-157.2635" y1="149.8486" x2="0.6977" y2="149.8486" gradientTransform="matrix(-0.3782 0.9257 0.9257 0.3782 88.7858 184.4518)">
	<stop  offset="0" style="stop-color:#05A2D9"/>
	<stop  offset="0.2" style="stop-color:#31378B"/>
	<stop  offset="0.4" style="stop-color:#E21983"/>
	<stop  offset="0.6" style="stop-color:#E63130"/>
	<stop  offset="0.8" style="stop-color:#F7E423"/>
	<stop  offset="1" style="stop-color:#0C9B54"/>
</linearGradient>
<path id="XMLID_15_" class="st32" d="M162.7,164.8c-10.9-30.7,59.1-50,107.6-49.3c50,3,88.9,18.7,100.5,42.3
	c7,32.4-49,67.6-130.7,68.3c-96.8,2.7-138.5-42-114.1-76.8c17.8-22.8,66.5-39,111.7-42.5c32-0.4,63.2-0.7,92.1,8.3
	c32.2,9.9,61.9,21.8,73.5,42.4c-17.6-34.9-108.4-57.1-178.2-49.7c-66.8,7.5-125.8,40.9-102.7,78.4c33.8,54.7,208.2,52.8,246.2-5.3
	c13.5-20.5-5.8-37.2-28.5-50.7c-30.6-15.8-79.5-18.5-122.9-10.1c-49.8,9.7-73.6,38-42.7,64c-0.6-4.6-1.2-9.1-8.5-13.5
	C164.8,168.7,163.7,166.8,162.7,164.8z"/>
<linearGradient id="XMLID_134_" gradientUnits="userSpaceOnUse" x1="-107.9666" y1="210.398" x2="-50.5791" y2="210.398" gradientTransform="matrix(-0.3782 0.9257 0.9257 0.3782 88.7858 184.4518)">
	<stop  offset="0" style="stop-color:#05A2D9"/>
	<stop  offset="0.2" style="stop-color:#31378B"/>
	<stop  offset="0.4" style="stop-color:#E21983"/>
	<stop  offset="0.6" style="stop-color:#E63130"/>
	<stop  offset="0.8" style="stop-color:#F7E423"/>
	<stop  offset="1" style="stop-color:#0C9B54"/>
</linearGradient>
<path id="XMLID_14_" class="st33" d="M350,174.5c-10.8,16.3-34.1,25.9-72.8,32.2c29.3-4.9,66.1-10.9,69.6-28
	C348.9,176.2,350,174.5,350,174.5z"/>
<linearGradient id="XMLID_135_" gradientUnits="userSpaceOnUse" x1="979.2192" y1="1688.4869" x2="1070.9329" y2="1688.4869" gradientTransform="matrix(-0.9789 0.2042 0.2042 0.9789 992.2404 -1735.0594)">
	<stop  offset="0" style="stop-color:#05A2D9"/>
	<stop  offset="0.2" style="stop-color:#31378B"/>
	<stop  offset="0.4" style="stop-color:#E21983"/>
	<stop  offset="0.6" style="stop-color:#E63130"/>
	<stop  offset="0.8" style="stop-color:#F7E423"/>
	<stop  offset="1" style="stop-color:#0C9B54"/>
</linearGradient>
<path id="XMLID_13_" class="st34" d="M373.9,107.6c-6.2,18.3-29.4,39.9-82.4,42.7c53-2.8,93-27,83.2-48.4
	C374.6,103.9,374.3,105.8,373.9,107.6z"/>
<linearGradient id="XMLID_136_" gradientUnits="userSpaceOnUse" x1="968.7847" y1="1687.3679" x2="1136.4613" y2="1687.3679" gradientTransform="matrix(-0.9789 0.2042 0.2042 0.9789 992.2404 -1735.0594)">
	<stop  offset="0" style="stop-color:#05A2D9"/>
	<stop  offset="0.2" style="stop-color:#31378B"/>
	<stop  offset="0.4" style="stop-color:#E21983"/>
	<stop  offset="0.6" style="stop-color:#E63130"/>
	<stop  offset="0.8" style="stop-color:#F7E423"/>
	<stop  offset="1" style="stop-color:#0C9B54"/>
</linearGradient>
<path id="XMLID_12_" class="st35" d="M381.7,96.6c12.3,36.2-58.9,68.6-154.8,64.7c95.9,3.9,183.9-31.3,153.6-69.1
	C381,93.7,381.4,95.1,381.7,96.6z"/>
<linearGradient id="XMLID_137_" gradientUnits="userSpaceOnUse" x1="939.4364" y1="1664.5647" x2="1212.5455" y2="1664.5647" gradientTransform="matrix(-0.9789 0.2042 0.2042 0.9789 992.2404 -1735.0594)">
	<stop  offset="0" style="stop-color:#E21983"/>
	<stop  offset="0.48" style="stop-color:#E63130"/>
	<stop  offset="1" style="stop-color:#F7E423"/>
</linearGradient>
<path id="XMLID_11_" class="st36" d="M258.7,56.1c43.8-2.3,96.1,8.6,112.2,29.3c12,18.6,9.1,33.3-16.3,48.2
	c-46.1,27-139.2,29.6-188.6,6.6c-59.7-34.9-10.9-81.2,65.1-92c69.6-9.6,147.8,8.6,174.9,40.2c46.5,52.3-60.6,113.9-198.6,98.4
	C357,199.7,452.6,140.7,406,88.4c-20-21.2-59-36.2-103.5-41.6c-48.6-4.7-105.4,1.8-139.5,22.2c-46,31.1-31.8,82.1,75.1,90.3
	c95,3.8,146.4-36.2,136.4-70.6c-3.8-10.2-29.6-20.1-44.1-27.1c-36.2-9.4-84-10.1-114.1,2.6c5.2-5.7,28.5-2.6,31.8-6.9
	C252.8,56.7,258.7,56.1,258.7,56.1z"/>
<linearGradient id="XMLID_138_" gradientUnits="userSpaceOnUse" x1="958.3811" y1="1671.7476" x2="1231.4882" y2="1671.7476" gradientTransform="matrix(-0.9789 0.2042 0.2042 0.9789 992.2404 -1735.0594)">
	<stop  offset="0" style="stop-color:#E21983"/>
	<stop  offset="0.48" style="stop-color:#E63130"/>
	<stop  offset="1" style="stop-color:#F7E423"/>
</linearGradient>
<path id="XMLID_10_" class="st37" d="M241.6,67c43.8-2.3,96.1,8.6,112.2,29.3c12,18.6,9.1,33.3-16.3,48.2
	c-46.1,27-139.2,29.6-188.6,6.6c-59.7-34.9-10.9-81.2,65.1-92c69.6-9.6,147.8,8.7,174.9,40.3c46.5,52.3-60.6,113.9-198.6,98.4
	c149.5,12.8,245.1-46.2,198.6-98.5c-20-21.2-59-36.2-103.5-41.6C236.8,53,180,59.5,145.9,79.9c-46,31.1-31.8,82.1,75.1,90.3
	c95,3.8,146.4-36.2,136.4-70.6c-3.8-10.2-29.6-20.1-44.1-27.1c-36.2-9.4-84-10.1-114.1,2.6c5.2-5.7,28.5-2.6,31.8-6.9
	C235.7,67.6,241.6,67,241.6,67z"/>
<linearGradient id="XMLID_139_" gradientUnits="userSpaceOnUse" x1="983.0424" y1="1668.9174" x2="1030.908" y2="1668.9174" gradientTransform="matrix(-0.9789 0.2042 0.2042 0.9789 992.2404 -1735.0594)">
	<stop  offset="0" style="stop-color:#05A2D9"/>
	<stop  offset="0.2" style="stop-color:#31378B"/>
	<stop  offset="0.4" style="stop-color:#E21983"/>
	<stop  offset="0.6" style="stop-color:#E63130"/>
	<stop  offset="0.8" style="stop-color:#F7E423"/>
	<stop  offset="1" style="stop-color:#0C9B54"/>
</linearGradient>
<path id="XMLID_9_" class="st38" d="M342.7,69.4c31.8,19.3,37.3,49.3-11.8,74.1c45.2-19,54.4-52.4,14.4-72.8
	C343.7,69.9,342.7,69.4,342.7,69.4z"/>
<linearGradient id="XMLID_140_" gradientUnits="userSpaceOnUse" x1="1024.0916" y1="1685.5365" x2="1169.8047" y2="1685.5365" gradientTransform="matrix(-0.9789 0.2042 0.2042 0.9789 992.2404 -1735.0594)">
	<stop  offset="0" style="stop-color:#E21983"/>
	<stop  offset="0.48" style="stop-color:#E63130"/>
	<stop  offset="1" style="stop-color:#F7E423"/>
</linearGradient>
<path id="XMLID_8_" class="st39" d="M218.6,148.5c52,5.4,82.9,0.1,117.8-11.9c-41.8,19.7-121.1,26.7-148.6,0.4
	c0.7,5.5,1.5,11.2,21.2,9.4C212.1,147.2,215.3,147.8,218.6,148.5z"/>
<linearGradient id="XMLID_141_" gradientUnits="userSpaceOnUse" x1="-147.5541" y1="168.5186" x2="-79.9262" y2="168.5186" gradientTransform="matrix(-0.3782 0.9257 0.9257 0.3782 88.7858 184.4518)">
	<stop  offset="0" style="stop-color:#05A2D9"/>
	<stop  offset="0.2" style="stop-color:#31378B"/>
	<stop  offset="0.4" style="stop-color:#E21983"/>
	<stop  offset="0.6" style="stop-color:#E63130"/>
	<stop  offset="0.8" style="stop-color:#F7E423"/>
	<stop  offset="1" style="stop-color:#0C9B54"/>
</linearGradient>
<path id="XMLID_7_" class="st40" d="M238.4,154.2c48.8,10.3,79.4-14.6,116.2-20.6c-33.2,11.5-78.3,32.9-133.5,18.5
	C226.7,153,232.3,153.7,238.4,154.2z"/>
<linearGradient id="XMLID_142_" gradientUnits="userSpaceOnUse" x1="-191.4442" y1="169.6259" x2="-68.5254" y2="169.6259" gradientTransform="matrix(-0.3782 0.9257 0.9257 0.3782 88.7858 184.4518)">
	<stop  offset="0" style="stop-color:#05A2D9"/>
	<stop  offset="0.2" style="stop-color:#31378B"/>
	<stop  offset="0.4" style="stop-color:#E21983"/>
	<stop  offset="0.6" style="stop-color:#E63130"/>
	<stop  offset="0.8" style="stop-color:#F7E423"/>
	<stop  offset="1" style="stop-color:#0C9B54"/>
</linearGradient>
<path id="XMLID_6_" class="st41" d="M200.9,156.2c100.5,12.9,189.4-16.8,185.3-57.1c-0.8,35.1-70.1,74.8-170.4,59.6
	C205.9,157.2,200.9,156.2,200.9,156.2z"/>
<linearGradient id="XMLID_143_" gradientUnits="userSpaceOnUse" x1="-219.1215" y1="136.7937" x2="-61.1292" y2="136.7937" gradientTransform="matrix(-0.3782 0.9257 0.9257 0.3782 88.7858 184.4518)">
	<stop  offset="0" style="stop-color:#E21983"/>
	<stop  offset="0.48" style="stop-color:#E63130"/>
	<stop  offset="1" style="stop-color:#F7E423"/>
</linearGradient>
<path id="XMLID_5_" class="st42" d="M174,102.6c-10.9-30.7,59.2-50,107.6-49.3c50,2.9,88.9,18.7,100.5,42.3
	c7,32.4-49,67.7-130.7,68.3c-96.8,2.7-138.5-42-114.1-76.9c17.8-22.8,66.5-39,111.8-42.5c32-0.4,63.2-0.7,92.1,8.3
	c32.2,9.9,61.9,21.8,73.5,42.4C397,60.4,306.3,38.1,236.5,45.6C169.6,53,110.6,86.4,133.8,124c33.8,54.7,208.2,52.8,246.2-5.3
	c13.5-20.5-5.8-37.2-28.5-50.7C320.8,52.2,272,49.4,228.6,57.9c-49.8,9.7-73.6,38-42.7,64c-0.6-4.6-1.2-9.1-8.5-13.5
	C176.1,106.5,175,104.6,174,102.6z"/>
<linearGradient id="XMLID_144_" gradientUnits="userSpaceOnUse" x1="956.7242" y1="1619.2997" x2="1133.1239" y2="1619.2997" gradientTransform="matrix(-0.9789 0.2042 0.2042 0.9789 992.2404 -1735.0594)">
	<stop  offset="0" style="stop-color:#05A2D9"/>
	<stop  offset="1" style="stop-color:#E21983"/>
</linearGradient>
<path id="XMLID_4_" class="st43" d="M286.9,26c28.3-1.5,62.1,5.5,72.5,18.9c7.7,12,5.9,21.5-10.5,31.1
	c-29.8,17.4-89.9,19.1-121.8,4.3c-38.6-22.6-7-52.4,42.1-59.4c45-6.2,95.4,5.6,113,26c30,33.7-39.2,73.6-128.3,63.6
	c96.6,8.3,158.3-29.8,128.2-63.6C369.2,33.2,344,23.5,315.3,20c-31.4-3.1-68.1,1.1-90.1,14.3c-29.7,20.1-20.6,53,48.5,58.3
	c61.4,2.5,94.5-23.3,88.1-45.6c-2.5-6.6-19.1-13-28.5-17.5c-23.4-6.1-54.3-6.5-73.7,1.7c3.4-3.7,18.4-1.7,20.5-4.5
	C283.2,26.4,286.9,26,286.9,26z"/>
<linearGradient id="XMLID_145_" gradientUnits="userSpaceOnUse" x1="802.9348" y1="1758.879" x2="979.3281" y2="1758.879" gradientTransform="matrix(0.91 0.22 -0.24 0.97 -118.5395 -1841.4904)">
	<stop  offset="0" style="stop-color:#05A2D9"/>
	<stop  offset="1" style="stop-color:#E21983"/>
</linearGradient>
<path id="XMLID_3_" class="st44" d="M284.4,23.7c-26.5-2.1-58.5,4-68.8,17.1c-7.8,11.8-6.4,21.3,8.6,31.3
	c27.2,18.1,83.5,21.2,114.1,7.2c37.1-21.5,8.8-52-37-60.2c-41.9-7.3-89.7,3.3-107,23.2c-29.6,32.9,33.6,74.2,117.6,66.4
	c-90.9,5.9-147.2-33.5-117.6-66.4c12.7-13.3,36.7-22.3,63.8-25.1c29.6-2.3,63.9,2.8,83.9,16.5C369,54.2,359,86.9,294,90.4
	c-57.7,1-87.7-25.6-80.7-47.6c2.6-6.5,18.4-12.5,27.4-16.8c22.2-5.4,51.2-5.2,69,3.5c-3-3.8-17.2-2.1-19.1-4.9
	C287.9,24.2,284.4,23.7,284.4,23.7z"/>
<linearGradient id="XMLID_146_" gradientUnits="userSpaceOnUse" x1="-247.3491" y1="140.6515" x2="-145.3373" y2="140.6515" gradientTransform="matrix(-0.3782 0.9257 0.9257 0.3782 88.7858 184.4518)">
	<stop  offset="0" style="stop-color:#05A2D9"/>
	<stop  offset="1" style="stop-color:#E21983"/>
</linearGradient>
<path id="XMLID_2_" class="st45" d="M232.3,53.4c-7-19.8,38.2-32.3,69.5-31.9c32.3,1.9,57.4,12.1,64.9,27.3
	c4.5,20.9-31.7,43.7-84.4,44.1c-62.5,1.8-89.4-27.1-73.7-49.6c11.5-14.7,43-25.2,72.2-27.5c20.6-0.2,40.8-0.4,59.5,5.4
	c20.8,6.4,40,14.1,47.5,27.4c-11.4-22.5-70-36.9-115.1-32.1c-43.2,4.8-81.3,26.4-66.3,50.6c21.8,35.3,134.4,34.1,159-3.4
	c8.7-13.3-3.8-24-18.4-32.8c-19.8-10.2-51.3-12-79.4-6.5c-32.2,6.3-47.6,24.6-27.6,41.3c-0.4-3-0.8-5.9-5.5-8.7
	C233.6,55.9,232.9,54.7,232.3,53.4z"/>
<linearGradient id="XMLID_147_" gradientUnits="userSpaceOnUse" x1="-169.8338" y1="197.3425" x2="-112.4463" y2="197.3425" gradientTransform="matrix(-0.3782 0.9257 0.9257 0.3782 88.7858 184.4518)">
	<stop  offset="0" style="stop-color:#05A2D9"/>
	<stop  offset="0.2" style="stop-color:#31378B"/>
	<stop  offset="0.4" style="stop-color:#E21983"/>
	<stop  offset="0.6" style="stop-color:#E63130"/>
	<stop  offset="0.8" style="stop-color:#F7E423"/>
	<stop  offset="1" style="stop-color:#0C9B54"/>
</linearGradient>
<path id="XMLID_1_" class="st46" d="M361.3,112.3c-10.8,16.3-34.1,25.9-72.8,32.2c29.3-4.9,66.1-10.9,69.6-28
	C360.2,114,361.3,112.3,361.3,112.3z"/>
</svg>
