<svg xmlns="http://www.w3.org/2000/svg" viewBox="0 0 253 253"><defs><style>.cls-1{fill:#d11d27;}.cls-2{fill:#fff;}</style></defs><title>Asset 4</title><g id="Layer_2" data-name="Layer 2"><g id="Layer_1-2" data-name="Layer 1"><circle class="cls-1" cx="126.5" cy="126.5" r="126.5"/><path class="cls-2" d="M208,121.63a17,17,0,0,0-15.9,11l-32.79-4.89c0-.4,0-.8,0-1.21a32.78,32.78,0,0,0-12.74-26l21.8-35.78a17.22,17.22,0,0,0,5.54.93A17,17,0,1,0,162.17,61l-21.8,35.78a32.82,32.82,0,0,0-35.53,5.1L86.51,85.13a17.09,17.09,0,1,0-4.92,5.39l18.33,16.7a32.83,32.83,0,0,0-1.53,36.26l-29,22.3a17.13,17.13,0,1,0,4.44,5.8l29.05-22.31a32.84,32.84,0,0,0,38.73,6.41L158,180.38a17.11,17.11,0,1,0,6.07-4l-16.46-24.7a33,33,0,0,0,10.61-16.7L191,139.82a17,17,0,1,0,17-18.19Z"/></g></g></svg>