<svg xmlns="http://www.w3.org/2000/svg" viewBox="0 0 524 253"><defs><style>.cls-1{fill:#d11d27;}.cls-2{fill:#fff;}</style></defs><title>Asset 3</title><g id="Layer_2" data-name="Layer 2"><g id="Layer_1-2" data-name="Layer 1"><rect class="cls-1" width="524" height="253" rx="126.5"/><path class="cls-2" d="M126.5,16a110.5,110.5,0,0,0,0,221h104L290.31,16Z"/><path class="cls-1" d="M135,180.5a9.52,9.52,0,0,1-6.72-2.78l-43-43a9.5,9.5,0,0,1,13.44-13.44l35.83,35.83,72.31-82.38a9.5,9.5,0,0,1,14.28,12.54l-79,90a9.54,9.54,0,0,1-6.83,3.23Z"/><path class="cls-2" d="M387.8,126.5l41.49-42.35a9.5,9.5,0,0,0-13.58-13.3L374.5,112.92,333.29,70.85a9.5,9.5,0,1,0-13.58,13.3L361.2,126.5l-41.49,42.35a9.5,9.5,0,0,0,13.58,13.3l41.21-42.07,41.21,42.07a9.5,9.5,0,1,0,13.58-13.3Z"/></g></g></svg>