<svg xmlns="http://www.w3.org/2000/svg" viewBox="0 0 155.91 109.58"><defs><style>.cls-1{fill:#ea2127;}.cls-2{fill:#00a44f;}.cls-3{fill:#ffca05;}.cls-4{font-size:17.33px;font-family:BaiJamjuree-Medium, Bai Jamjuree;font-weight:500;letter-spacing:0em;}</style></defs><title>Asset 7</title><g id="Layer_2" data-name="Layer 2"><g id="Layer_1-2" data-name="Layer 1"><circle class="cls-1" cx="77.95" cy="37.24" r="24.19"/><polygon class="cls-1" points="52.78 46.48 50.71 46.17 49.78 44.3 48.86 46.17 46.79 46.48 48.28 47.94 47.93 50 49.78 49.03 51.64 50 51.28 47.94 52.78 46.48"/><polygon class="cls-1" points="55.66 55.22 54.73 53.35 53.81 55.22 51.73 55.52 53.23 56.98 52.88 59.05 54.73 58.08 56.59 59.05 56.23 56.98 57.73 55.52 55.66 55.22"/><polygon class="cls-1" points="109.12 46.48 107.05 46.17 106.12 44.3 105.2 46.17 103.13 46.48 104.62 47.94 104.27 50 106.12 49.03 107.98 50 107.62 47.94 109.12 46.48"/><polygon class="cls-1" points="102.1 55.22 101.17 53.35 100.25 55.22 98.18 55.52 99.68 56.98 99.32 59.05 101.17 58.08 103.03 59.05 102.67 56.98 104.17 55.52 102.1 55.22"/><path class="cls-2" d="M112.27,22.75a37.32,37.32,0,1,0,2.93,14.49A37.14,37.14,0,0,0,112.27,22.75Zm-1.45,28.38a35.83,35.83,0,1,1,2.8-13.89A35.54,35.54,0,0,1,110.82,51.13Z"/><path class="cls-2" d="M70.47,68.56l-.16-.1-.16-.09a2.32,2.32,0,0,0-.37-.13,1.48,1.48,0,0,0-.81,0,.55.55,0,0,0-.44.35.61.61,0,0,0,.22.57,1.68,1.68,0,0,0,.83.42,1.77,1.77,0,0,0,.5,0,1.19,1.19,0,0,0,.42-.11c.26-.13.36-.3.32-.51A.77.77,0,0,0,70.47,68.56Z"/><path class="cls-2" d="M93.38,65.63a.84.84,0,0,0-.58-.14,1.74,1.74,0,0,0-.73.2,1.6,1.6,0,0,0-.19.11l-.17.12a1.35,1.35,0,0,0-.26.28.55.55,0,0,0-.1.56.61.61,0,0,0,.54.29,1.53,1.53,0,0,0,.9-.2,1.42,1.42,0,0,0,.67-.63.94.94,0,0,0,.06-.18.43.43,0,0,0,0-.16A.35.35,0,0,0,93.38,65.63Z"/><path class="cls-2" d="M94.23,60l.88-.66c-.48,0-1,.06-1.41.08a28.08,28.08,0,0,1-6.34,3.35l-.3.12-.18.06-.4.14-.22-.1a2.37,2.37,0,0,1-.4-.5l-.68-.15a12.82,12.82,0,0,0,.59,1.6,1.4,1.4,0,0,0-.3-.15,1.7,1.7,0,0,0-.32-.1,2.19,2.19,0,0,0-.72,0,7,7,0,0,0-.69.14l-.43.11-.16,0a29.4,29.4,0,0,1-4,.52,28.92,28.92,0,0,1-4.56-.08,27.89,27.89,0,0,1-3.53-.56l-.5-.12-.25-.06-.24-.06-1-.28-.77-.25h0l-1.08-.39,0,0A27.88,27.88,0,0,1,60,58.6c.14.39.28.78.43,1.18l.13.19a1.46,1.46,0,0,0,.37.78l.28.24.54.37.23.17.19.18A1.15,1.15,0,0,1,62.38,63c-.52.1-.94.15-1.24.18a1.31,1.31,0,0,1-.54,0c-.13-.08-.21-.26-.25-.56a1.14,1.14,0,0,1,.12-.55L59.36,62a6.47,6.47,0,0,0,.21,1.23,1.39,1.39,0,0,0,.35.63,1.35,1.35,0,0,0,.24.25l.19.14.11.08.12.07.34.18a1.9,1.9,0,0,0,.85,0,11.57,11.57,0,0,0,1.62-.34,1.2,1.2,0,0,1,.86,0,2.11,2.11,0,0,1,.27.18,2.09,2.09,0,0,1,.25.26,1,1,0,0,1,.25.5l-1,2.36c.15.22.31.44.46.67l.24.33.24.33,2.13-5.46.53.2.14.05.13,0,.27.09c.37.12.72.25,1.09.34h0A30.74,30.74,0,0,0,72.9,65l0,.17c-1.66.08-3.46.25-5.48.43.14.25.3.49.45.74l.24.37.25.36a5.71,5.71,0,0,1,.58.21l.28.12.28.12.53.25.25.15.25.15a5.49,5.49,0,0,1,.75.52l.32.29c.09.1.19.19.27.29s.33.48.89,1.22a4.15,4.15,0,0,0,.34.24l.34.23.67-5.71c.3,0,.59.07.89.09l.79.06h.46A29.35,29.35,0,0,0,80,65.22l0,.24a52.05,52.05,0,0,0-4.94,1.75l.67.57.17.14.17.14.35.27.6.08.29,0,.28.05a8.36,8.36,0,0,1,1.12.29,5.53,5.53,0,0,1,1.13.53,4.14,4.14,0,0,1,.75.53,5.18,5.18,0,0,1,.5.6l.39.17.39.16-.59-4.54a3.4,3.4,0,0,1,1.72.17,1.34,1.34,0,0,1,.76.59l-.24,0A2.24,2.24,0,0,0,83,67a5.19,5.19,0,0,0-.6.17c-.36.25-.53.5-.49.74s.2.37.51.49a1.86,1.86,0,0,0,.48.1,2.32,2.32,0,0,0,.52,0,2.59,2.59,0,0,0,.68-.22,1.71,1.71,0,0,0,.48-.4,1,1,0,0,0,.25-.89,1.79,1.79,0,0,0-.21-.45,1.92,1.92,0,0,0-.55-.55,3.61,3.61,0,0,0-.39-.22,4.68,4.68,0,0,0-.45-.2c-.18-.07-.35-.12-.52-.17l-.26,0-.26,0a3.62,3.62,0,0,0-1,0l0-.17a28.45,28.45,0,0,0,3.29-.62,2.28,2.28,0,0,1,.63,0,1.81,1.81,0,0,1,.63.18.77.77,0,0,1,.35.45l1.22,4,1.56.36-2-5.65,1.1-.4.27-.11,0,0,.75-.31h0a28.34,28.34,0,0,0,3.33-1.72l.09.16-.23.21L92,61.8l-.46.44c-.31.3-.63.6-.95.93-.16.15-.33.31-.49.48l-.25.25-.25.25-.52.51c-.17.17-.34.36-.53.53l.83.27.85.25.15,0,.15-.06.29-.1a5.54,5.54,0,0,1,.58-.17l.28-.08.29-.06a5.67,5.67,0,0,1,.57-.1A4.12,4.12,0,0,1,93,65l.44,0a4.43,4.43,0,0,1,.83.07l.43.12,1,.25.42,0,.21,0,.21,0-3.22-4.79ZM65.37,64.42a5.06,5.06,0,0,0-.29-.48l-.13-.2a2,2,0,0,0-.65-.63.28.28,0,0,0-.12,0L64,63c-.17,0-.39,0-.67-.07h0a1.07,1.07,0,0,0,.12-.63,2.46,2.46,0,0,0-.09-.34,2.53,2.53,0,0,0-.19-.36l.7.37.34.19.36.17c.47.22.94.46,1.43.66Zm6.94,4.22a4.16,4.16,0,0,0-.5-.54,6.67,6.67,0,0,0-.61-.54l-.34-.25-.37-.25c-.26-.17-.53-.34-.82-.51l.75-.11.37,0,.38,0,.76-.08h.19l.2,0,.38,0Zm5.16-1.15.87-.4.17-.07.18-.07.41-.16.46-.16.52-.18.21,2.33A8.37,8.37,0,0,0,77.47,67.49Zm16.8-3.1-.18,0a1.08,1.08,0,0,0-.19,0l-.38,0a7.24,7.24,0,0,0-.81,0h-.43l-.45,0-.47.06-.24,0-.24,0,.24-.28c.09-.09.17-.19.25-.28s.34-.38.52-.55l.26-.28.26-.27.28-.27.28-.27Z"/><path class="cls-2" d="M48.36,26.36l.2-.53.21-.52L49,24.8l-.57.35-.56.36-.33.88a1.89,1.89,0,0,1-.33.29.56.56,0,0,1-.36.07,1.15,1.15,0,0,0-.49.23l-.39.31a10.77,10.77,0,0,0,1.67.53l.74.13a2.93,2.93,0,0,0-.72.29,2.28,2.28,0,0,0-.53.42l-.14.17-.22.29a1.88,1.88,0,0,0-.22.57,3.73,3.73,0,0,0-.1.63,2.62,2.62,0,0,0,0,.56,1.94,1.94,0,0,0,.27.84l-.23.22c-.16.15-.31.31-.46.48a10.75,10.75,0,0,0-.15,1.08c0,.14-.08.21-.11.23-.24.12-.43.12-.56,0l-.32.39c-.11.13-.22.26-.32.4a17.52,17.52,0,0,0,1.79.09h.74a1.59,1.59,0,0,0-.59.37,2.17,2.17,0,0,0-.44.61,3.34,3.34,0,0,0-.28.86c0,.16-.05.33-.07.51a5.49,5.49,0,0,0,0,.58,3.21,3.21,0,0,0,.25,1.3,1.94,1.94,0,0,0,.61.76,1.19,1.19,0,0,0,.78.27c.34,0,.59-.26.77-.7a.88.88,0,0,0,.06-.33,3.32,3.32,0,0,0-.25-.77,3,3,0,0,1-.24-.67c0-.16.05-.25.14-.25s.29.24.66.69l.68.86c.28-.35.57-.69.86-1-.21-.25-.41-.48-.6-.67a5.46,5.46,0,0,0-.52-.48,1.21,1.21,0,0,0-.83-.34,1,1,0,0,0-.74.46,2.18,2.18,0,0,0-.26,1.15,3.77,3.77,0,0,0,0,.51,1.72,1.72,0,0,1-.54-1.43,1.7,1.7,0,0,1,.08-.44,2,2,0,0,1,.18-.43,2.51,2.51,0,0,1,.32-.41,2.91,2.91,0,0,1,.46-.35,1.56,1.56,0,0,1,.89-.28l3,.31.24-.23.24-.22.49-.44-5.82-.72c0-.36.09-.73.15-1.1,0-.19,0-.37.09-.55V32a1.64,1.64,0,0,0,.4.39,1.56,1.56,0,0,0,.64.25,1.61,1.61,0,0,0,.62,0,1.66,1.66,0,0,0,.29-.1l.28-.17a2.18,2.18,0,0,0,.51-.54A2.85,2.85,0,0,0,50,31,2,2,0,0,0,50,30a1.82,1.82,0,0,0-.07-.25,1.18,1.18,0,0,0-.11-.19.66.66,0,0,0-.32-.22.8.8,0,0,0-.31,0,1,1,0,0,0-.72.79c-.13.55,0,.87.33,1l.23,0a.6.6,0,0,1-.28.19,1.18,1.18,0,0,1-.58,0,.88.88,0,0,1-.55-.48,1.12,1.12,0,0,1-.14-.46,1.49,1.49,0,0,1,0-.51,1.9,1.9,0,0,1,.73-1.05,1.4,1.4,0,0,1,1.29-.27l2.93.93.54-.34.55-.31-5.39-1.93C48.23,26.71,48.3,26.54,48.36,26.36Z"/><path class="cls-2" d="M58.73,16.24a1.26,1.26,0,0,0-.53-.35,2.07,2.07,0,0,0-.78-.11,1.39,1.39,0,0,0-.56.09h0a.37.37,0,0,0-.2.11,3.1,3.1,0,0,0-.2.39,5.37,5.37,0,0,1-.53,1.08q-.25.3-.45.12a1.28,1.28,0,0,1-.25-.73,1.23,1.23,0,0,1,.06-.8c.33,0,.51,0,.56,0a3.1,3.1,0,0,0,1.24-.53,11.94,11.94,0,0,0,1.21-.86A3.42,3.42,0,0,0,59,16a3.85,3.85,0,0,0,.9.72c.32.21.65.43,1,.65.06,0,.17,0,.36-.1a1.52,1.52,0,0,0,.35-.19.34.34,0,0,0,.09-.2A3.84,3.84,0,0,1,60.26,16a3.75,3.75,0,0,1-.36-.55,1.93,1.93,0,0,1-.32-1,3,3,0,0,1,.11-1.17h-.87l-.73,0c-.12.14-.21.28-.31.4l-.24.33c-.15.19-.26.33-.34.41a.93.93,0,0,1-.15.13l-.18.15-.46.3c-.37.24-.6.31-.69.23a.22.22,0,0,1,0-.1c.07-.18.13-.31.18-.41.61-.6,1.24-1.17,1.9-1.72.3-.26.61-.5.92-.75a1.49,1.49,0,0,1,.55-.27,1.35,1.35,0,0,1,.6,0,.66.66,0,0,1,.44.31l2.39,3.42.59.08.58.1-3.26-5,.87-.56.11-.06c.31.24.65.48,1,.74l1.2.8A6.29,6.29,0,0,0,65,12.4a5.15,5.15,0,0,0,.85.26,2.15,2.15,0,0,0,.45,0,2.74,2.74,0,0,0,.48,0,3.39,3.39,0,0,0,.48-.1,2.59,2.59,0,0,0,.42-.14A3.93,3.93,0,0,0,69,11.54a2.93,2.93,0,0,0,.37-.45,2.9,2.9,0,0,0,.23-.47,1.74,1.74,0,0,0,0-1A2,2,0,0,0,69.21,9a3,3,0,0,0-.51-.5,2.35,2.35,0,0,0-.59-.3A2.09,2.09,0,0,0,67.45,8h-.36a2.25,2.25,0,0,0-.36.06l-.39.09L66,8.3A2.3,2.3,0,0,0,65,9.16a1.06,1.06,0,0,0-.15,1.09,1.59,1.59,0,0,0,.17.25,1.16,1.16,0,0,0,.68.39,1.9,1.9,0,0,0,.41,0,2.45,2.45,0,0,0,.46-.15,1.79,1.79,0,0,0,.77-.56.82.82,0,0,0,.06-.74A1,1,0,0,0,67,9a1,1,0,0,1,.21-.1,1,1,0,0,1,.88.07,1,1,0,0,1,.5.58,1,1,0,0,1-.21.93,4.06,4.06,0,0,1-.51.56,2.16,2.16,0,0,1-.55.34,3.27,3.27,0,0,1-2.55,0,8.47,8.47,0,0,1-1.24-.59l-1.15-.7c-.27.06-.53.14-.8.21l.08-.06a2.61,2.61,0,0,0,.28-.17l.15-.08.33-.2h0a31.62,31.62,0,0,1,6.92-2.91h0q1.36-.39,2.76-.66C73,6,74,5.91,74.9,5.81a.42.42,0,0,1,.31.06.76.76,0,0,1,.25.4.7.7,0,0,1-.1.44A.91.91,0,0,1,75,7a1.91,1.91,0,0,0-.42-.23c-.19-.08-.43-.17-.71-.26a2.72,2.72,0,0,0-1.33-.09c-.79.14-1.22.52-1.27,1.11a.74.74,0,0,0,.35.7l.2.1A.79.79,0,0,0,72,8.4a1.54,1.54,0,0,0,.52,0A1,1,0,0,0,73.15,8a.8.8,0,0,0,.22-.62.47.47,0,0,0-.13-.24,3.19,3.19,0,0,1,.65.19l.16.08-.13.08-.28.18a5.08,5.08,0,0,0-.51.65,1.13,1.13,0,0,0-.13.74,1.18,1.18,0,0,0,.15.42.78.78,0,0,0,.45.33,1.36,1.36,0,0,0,.65.08,1.32,1.32,0,0,0,.67-.28.6.6,0,0,0,.27-.55.54.54,0,0,0-.23-.4.75.75,0,0,0-.52-.12l-.14,0a.9.9,0,0,1,.17-.32L74.74,8l.2-.13a1.47,1.47,0,0,1,.31-.1h0l.12,0s0,0,0,.14a.74.74,0,0,1,.12.3l.17,2-.1-.07a1.77,1.77,0,0,0-1.11-.15l-.4,0c-.21.06-.4.09-.58.13l-.46.08-.35,0a.78.78,0,0,1-.24,0,.73.73,0,0,1-.35-.25,1,1,0,0,1-.19-.43,1.73,1.73,0,0,1,0-.71l-.47-.14c-.11,0-.18,0-.22.15A2,2,0,0,0,71.2,10a1.77,1.77,0,0,0,.67,1,1.48,1.48,0,0,0,.85.31,2.83,2.83,0,0,0,1,0c.13,0,.35-.09.66-.19a3.86,3.86,0,0,1,.67-.16,1.3,1.3,0,0,1,.49,0l.2.07.17.12a2.93,2.93,0,0,1,.33.43l.24.17.24.17-.15-3.19a4.23,4.23,0,0,0-.11-1.08,1,1,0,0,0-.2-.29l.08-.09a1,1,0,0,0,.33-.65A1.91,1.91,0,0,0,76.38,6a2.62,2.62,0,0,0-.17-.27c.76,0,1.52-.06,2.27,0l-.08,5,.43.4.21.2.21.21.29-5.82.59,0,.59,0,.59.06.58.07-.48-.45L80.91,5l-.67,0-.66,0-.15-.45a2.72,2.72,0,0,0-.56-.86A3.2,3.2,0,0,0,78,2.92a2.89,2.89,0,0,0-.39-.2l-.38-.16a3.27,3.27,0,0,0-.67-.19l-.64-.09-.59,0a6.16,6.16,0,0,0-1,0,5.4,5.4,0,0,0-.58.09,5.45,5.45,0,0,0-.58.14c-.18,0-.37.12-.55.19s-.19.07-.28.12l-.26.13c-.62.31-.88.64-.82,1a.77.77,0,0,0,.25.41,1.37,1.37,0,0,0,.53.23,5.67,5.67,0,0,0,.66.11,4.58,4.58,0,0,0,.64,0l.37,0,1-.08a4.37,4.37,0,0,1,.5,0l.36,0q.3,0,.3.18s-.06.12-.19.22A32.26,32.26,0,0,0,69,6.15l-.16,0-.5.15-.3.09,0,0h0l-.57.19c-.2.06-.4.14-.6.21-.8.3-1.59.62-2.37,1a33.53,33.53,0,0,0-3.39,1.83h0l-.44.27-.14.09-.16.11-.25.16-.23,0a2,2,0,0,1-.52-.37l-.71.07c.36.5.71.95,1.05,1.34a1.34,1.34,0,0,0-.63,0,1.89,1.89,0,0,0-.56.2h0l-.06,0h0a5.63,5.63,0,0,0-.55.4l-.33.28-.11.11a32.41,32.41,0,0,0-5.84,6.31l-.13.19-.11.16-.21.12a.52.52,0,0,1-.4-.07h-.12c-.24.13-.47.28-.71.42l1.71,1,.53.23a2.86,2.86,0,0,0-.77.1,2.74,2.74,0,0,0-.75.32,3.11,3.11,0,0,0-.72.58,3.47,3.47,0,0,0-.3.37l-.13.2-.12.22a3.43,3.43,0,0,0-.05,3.26.53.53,0,0,0,.26.27.49.49,0,0,0,.47-.08.7.7,0,0,0,.35-.46l.06-.36.05-.26a2.11,2.11,0,0,1,.06-.26c.09-.21.27-.25.53-.12a.3.3,0,0,1,.18.19l.05.24.06.24.13.48c.15-.17.29-.35.45-.52l.45-.5a29,29,0,0,1-.46-3,1.84,1.84,0,0,1,1.14-.09l1.63,1.14-.1,0a4.15,4.15,0,0,0-.54.31l-.15.14-.15.15c-.1.1-.19.21-.28.31s-.17.22-.25.34a2.56,2.56,0,0,0-.22.35l-.21.36-.17.31-.28.5a3.12,3.12,0,0,1-.31.5c-.41.41-.79.56-1.15.41a.48.48,0,0,1-.2-.2,2.48,2.48,0,0,0-.6.42.15.15,0,0,0,0,.13.63.63,0,0,0,.21.13,5.05,5.05,0,0,0,.53.25,1.75,1.75,0,0,0,1.13.06,1.71,1.71,0,0,0,.48-.22,2.54,2.54,0,0,0,.44-.38A3.17,3.17,0,0,0,53.3,26a3.29,3.29,0,0,0,.29-.52l.11-.25.1-.22.19-.4.28-.54a4.2,4.2,0,0,1,.24-.38c.09-.11.17-.21.25-.29a1.23,1.23,0,0,1,.51-.33h.2l0,0H56a2.41,2.41,0,0,0,.95-.14l-.48-.3L52,19.45l.15-.23.16-.22.27-.37.32-.44c0-.05.09-.11.14-.17q.59-.76,1.23-1.5c0,.09,0,.16,0,.21a2.89,2.89,0,0,0,.12.81,1,1,0,0,0,.29.48,1.53,1.53,0,0,0,.3.19,1.4,1.4,0,0,0,.65.12,2.5,2.5,0,0,0,.75-.17,2.84,2.84,0,0,0,.34-.22l.29-.26a4.37,4.37,0,0,0,.32-.43l.16-.27c0-.1.11-.2.16-.32l.07-.09a.18.18,0,0,1,.2,0,.34.34,0,0,1,.2.12c.14.14.13.4-.05.74a1.62,1.62,0,0,1-.1.18,1.22,1.22,0,0,1-.12.19,4.07,4.07,0,0,1-.28.38,1.57,1.57,0,0,1-.44.36,2.17,2.17,0,0,1-.62.25,4.55,4.55,0,0,1-.59.1,2.51,2.51,0,0,1-.55,0,4.81,4.81,0,0,1-.82-.26,2.44,2.44,0,0,1-.88-.56,3.46,3.46,0,0,0-.69.39,6.29,6.29,0,0,0,2,1.19,3.88,3.88,0,0,0,1.39.17,3.12,3.12,0,0,0,2.12-1,2.8,2.8,0,0,0,.37-.5,2,2,0,0,0,.21-.56A1.82,1.82,0,0,0,59,16.6,1.11,1.11,0,0,0,58.73,16.24ZM75.56,3.75a2.65,2.65,0,0,0-.42-.06l-.47,0h-.2l-.4,0-.6,0-.8.1c-.4.06-.61,0-.62-.06s0-.15.19-.23a1.29,1.29,0,0,1,.26-.12l.38-.12a6.53,6.53,0,0,1,1.21-.25c.22,0,.43,0,.64-.05h.59l.54,0,.49.08.45.11a3.52,3.52,0,0,1,.39.16,2.85,2.85,0,0,1,.63.41,2.25,2.25,0,0,1,.65.79l.09.29H76.74a.92.92,0,0,0,0-.16A1,1,0,0,0,76.2,4,1.85,1.85,0,0,0,75.56,3.75ZM50.5,23.64a1.13,1.13,0,0,0-.49.46,1.35,1.35,0,0,1-.07-.7,2.43,2.43,0,0,1,.29-.83,1.25,1.25,0,0,1,.28-.37,1.7,1.7,0,0,1,.42-.31c0,.28.06.58.1.86s.07.57.12.85A1,1,0,0,0,50.5,23.64Z"/><path class="cls-2" d="M87.12,7c.77.24,1.54.51,2.29.8L89.34,8a13.43,13.43,0,0,0-2.67-.08c-.27,0-.59.06-.94.13l-.55.12c-.2.05-.41.1-.62.17l.38.67c.12.22.24.46.35.68l.29.11.27.12a2.6,2.6,0,0,1,.49.28,2.88,2.88,0,0,1,.43.33,4,4,0,0,1,.35.37,3.34,3.34,0,0,1,.69,1.92c0,.15.09.29.13.44l.12.44,2.33-5.47.68.31a1.38,1.38,0,0,1,.78.89.66.66,0,0,1-.07.54l-1.87,3.73c.13.38.26.75.38,1.13l2.86-5.24c.31.17.61.36.92.54l.46.28.22.14h0a1.13,1.13,0,0,0-.9.5,1.29,1.29,0,0,0-.05,1.14,1.94,1.94,0,0,0,.32.58,2.26,2.26,0,0,0,.5.47,1.84,1.84,0,0,0,.66.33,1.89,1.89,0,0,0,.85,0,1.19,1.19,0,0,0,.65-.38,1.16,1.16,0,0,0,.21-.5,1.49,1.49,0,0,0,0-.62,1.87,1.87,0,0,0-.3-.62,1.18,1.18,0,0,0-.23-.27l-.14-.13-.15-.11a2,2,0,0,0-.62-.3,2.48,2.48,0,0,0-.61-.07l-.06-.16-.13-.31c-.09-.2-.17-.41-.26-.61L94,9.19l-.51-.29-.07-.23A1.84,1.84,0,0,1,93.47,8l-.4-.6A16.48,16.48,0,0,0,92.39,9a1.58,1.58,0,0,0-.09-.31,1.24,1.24,0,0,0-.17-.27,1.34,1.34,0,0,0-.23-.25A1.28,1.28,0,0,0,91.68,8V8l-.06,0h0a5.43,5.43,0,0,0-.6-.31l-.41-.16-.18-.06c-.84-.36-1.7-.69-2.57-1l-.49-.15-.5-.15c-.32-.1-.66-.18-1-.27-.16,0-.33-.08-.5-.12s-.33-.09-.5-.12l-1-.2c.31.31.6.64.89,1C85.55,6.6,86.34,6.8,87.12,7Zm1,4.24a4.83,4.83,0,0,0-1.65-2.12,9.81,9.81,0,0,1,2.51-.1Zm7.12.33a1.51,1.51,0,0,1,.85.2.31.31,0,0,1,.08.49.74.74,0,0,1-.23.24,1.2,1.2,0,0,1-.61,0,1.71,1.71,0,0,1-.64-.2.25.25,0,0,1-.06-.4A.68.68,0,0,1,95.2,11.61Z"/><path class="cls-2" d="M94.61,15.64c0-.26-.08-.48-.11-.67a4.22,4.22,0,0,0-.12-.46c-.06-.21-.12-.42-.19-.61s-.14-.37-.2-.55-.14-.33-.2-.49l-.2-.44-.81,1.3a13.82,13.82,0,0,1,1.29,3.19l.12.63c0,.21.06.42.1.63l.5-.6c0-.19,0-.38,0-.55s0-.35,0-.51C94.68,16.19,94.65,15.89,94.61,15.64Z"/><path class="cls-2" d="M110.06,38.14l-1.25.12.17-.15c.21-.18.39-.35.55-.51a4.56,4.56,0,0,0,.38-.45,1.38,1.38,0,0,0,.3-.73c0-.07,0-.2-.07-.39a4.7,4.7,0,0,0-.16-.49,2.84,2.84,0,0,0-.2-.39,2.05,2.05,0,0,0-.24-.32,1.49,1.49,0,0,0-.28-.23,1.23,1.23,0,0,0,.29-.36s.09-.16.23-.45a1.72,1.72,0,0,0,.11-.51,2.21,2.21,0,0,0,0-.57c-.09-.67-.22-1.33-.35-2v0c0-.06,0-.12,0-.18-.07-.35-.16-.69-.25-1,0-.17-.09-.34-.13-.51l-.15-.52-.15-.51-.17-.51-.08-.25-.09-.25-.17-.51-.19-.5-.09-.25-.1-.25-.21-.49-.21-.49-.1-.24-.12-.25-.2-.44c-.42-.93-.89-1.84-1.39-2.73v0c-.2-.34-.41-.67-.61-1a1.19,1.19,0,0,1,0-.24,2.16,2.16,0,0,1,.37-.51l-.06-.72a11.87,11.87,0,0,0-1.33,1.05,1.59,1.59,0,0,0-.2-1.29v0h0l-.06-.08a1.3,1.3,0,0,0-.1-.15l-.22-.3-.27-.32a32.33,32.33,0,0,0-5.86-5.77l.21.65c.06.22.13.43.19.65a31.3,31.3,0,0,1,4.18,4.12l-.7.6a.43.43,0,0,0,0-.16c0-.1,0-.22,0-.35a1.7,1.7,0,0,0-.36-.76,1.12,1.12,0,0,0-.5-.3,1.17,1.17,0,0,0-.57-.05v-.15a2.74,2.74,0,0,0-.09-.39,2.83,2.83,0,0,0-.16-.36,2.37,2.37,0,0,0-.22-.33c-.09-.11-.19-.21-.29-.31a2.43,2.43,0,0,0-.32-.24,1.66,1.66,0,0,0-.33-.15,1.63,1.63,0,0,0-.7-.09,1.5,1.5,0,0,0-1,.56,1.56,1.56,0,0,0-.33,1.31,2.31,2.31,0,0,0,.27.7,3.53,3.53,0,0,0,.24.34c.09.11.2.21.31.32a2.21,2.21,0,0,0,.3.25.8.8,0,0,0,.16.08l.15.07a1,1,0,0,0,.62,0c.15,0,.28-.21.38-.53a.9.9,0,0,0-.25-1,1.08,1.08,0,0,0-.31-.23.91.91,0,0,0-.33-.1.59.59,0,0,0-.54.18.65.65,0,0,0-.13.23.63.63,0,0,1,0-.79.71.71,0,0,1,.66-.21,1.43,1.43,0,0,1,.78.38,1.51,1.51,0,0,1,.48.86,2.32,2.32,0,0,1,0,.55c0,.14-.12.23-.29.28.22.12.43.25.64.38.21-.29.37-.44.5-.47a.42.42,0,0,1,.36.16.82.82,0,0,1,.21.54.53.53,0,0,1-.14.47l-2.34,2c0,.4,0,.8,0,1.18l4.51-3.62.32.42h0v0l.15.2a1.49,1.49,0,0,1,.26.56,1.39,1.39,0,0,1,0,.61.72.72,0,0,1-.32.45l-3.4,2.38c0,.19-.06.39-.09.59s-.06.39-.1.58l5-3.24.21.33v0c.36.59.69,1.2,1,1.81a3.31,3.31,0,0,0-2.94.1,3,3,0,0,0-1.55,2.33,1.31,1.31,0,0,0,0,.52,2.14,2.14,0,0,0,.18.56,1.71,1.71,0,0,0,.27.41,1.28,1.28,0,0,0,.36.29.91.91,0,0,0,.81.09.71.71,0,0,0,.45-.72.72.72,0,0,0-.06-.49.93.93,0,0,0-.11-.19,1.29,1.29,0,0,0-.16-.18c-.34-.28-.63-.32-.89-.13a1.26,1.26,0,0,0-.2.31l0,.07a.31.31,0,0,1,0-.08,2.2,2.2,0,0,1,.26-1,1.68,1.68,0,0,1,.7-.67,5.79,5.79,0,0,1,.76-.31,2.15,2.15,0,0,1,1.5,0,2.86,2.86,0,0,1,.73.42,5.28,5.28,0,0,1,.71.71,5.62,5.62,0,0,1,.61,1l-2.8,1.18-.21.69c-.08.23-.15.46-.23.68a3.82,3.82,0,0,1,.83.17,2.5,2.5,0,0,1,.38.15,2.64,2.64,0,0,1,.37.2,3.72,3.72,0,0,1,.66.54,3.17,3.17,0,0,1,.3.34,2.7,2.7,0,0,1,.27.39,4.85,4.85,0,0,0-1.25.19,11.22,11.22,0,0,0-2.14,1l-.12.77c.77-.35,1.19-.54,1.27-.55a3.27,3.27,0,0,1,.47-.16,3.41,3.41,0,0,1,1.25-.05,5.75,5.75,0,0,1,1.52.44c.08-.27.16-.53.23-.81s.15-.54.22-.81a9.79,9.79,0,0,0-.73-1.09,5.79,5.79,0,0,0-.7-.75l-.31-.25-.27-.2c-.16-.13-.3-.23-.42-.31l1.85-.71a31.7,31.7,0,0,1,1.63,6.28,2,2,0,0,1,0,.35,1.37,1.37,0,0,1-.08.35,4.13,4.13,0,0,1-.27.36,2.08,2.08,0,0,0-.62-.76,1,1,0,0,0-.76-.29.88.88,0,0,0-.58.38,1.06,1.06,0,0,0-.16.34,1.17,1.17,0,0,0,0,.42,1.16,1.16,0,0,0,.07.31,2.3,2.3,0,0,0,.15.32,1.41,1.41,0,0,0,.43.47,1.46,1.46,0,0,0-.42,1.09,1.87,1.87,0,0,0,0,.35,1.07,1.07,0,0,0,.09.27.69.69,0,0,0,.32.35,1.85,1.85,0,0,0,.42.09.75.75,0,0,0,.52-.28,3.27,3.27,0,0,0,.56-.87.39.39,0,0,1,.2.2,1.89,1.89,0,0,1,.06.18,1.5,1.5,0,0,1,0,.24c0,.24-.13.54-.49.87s-.54.43-.68.43l-3.46-.09c-.26.3-.53.6-.8.89l5.73.28c0,.66-.08,1.31-.15,2,.29-.33.58-.67.86-1,0-.24,0-.48.05-.73a.63.63,0,0,1,.21-.35h.16a.47.47,0,0,0,.26-.11c.14-.19.33-.45.54-.79Zm-8.44-12.7a.65.65,0,0,0,.11.12S101.66,25.53,101.62,25.44Z"/><path class="cls-3" d="M68.91,25.27Z"/><path class="cls-3" d="M91.79,52.6c0-.12-.21-.64-.27-.87a10.74,10.74,0,0,1-.14-1.08,12,12,0,0,1,0-1.45,4.38,4.38,0,0,0,0-.84c0-.19-.19-.47-.24-.7s.15-.34.27-.59-.09-.62-.2-.85a2.28,2.28,0,0,1-.14-.9,1,1,0,0,0,0-.58,2,2,0,0,0-.11-.38,2.55,2.55,0,0,1-.08-.6c0-.34-.1-.3-.2-.33s0,0-.06-.32a1.9,1.9,0,0,0-.41-.87c-.19-.22-.13-.22-.1-.59a.7.7,0,0,0-.09-.53,3.28,3.28,0,0,1,0-1.14,2.76,2.76,0,0,0,.06-.62,6.21,6.21,0,0,0-.37-1.25c-.12-.36-.13-.23-.17-.45s.07-.28,0-.49-.18-.13-.18-.13l-.1.11s-.08,0-.32,0,0,0-.11-.1a.31.31,0,0,0-.11-.11.39.39,0,0,0-.15.12,1.26,1.26,0,0,1-.23.3c-.13.09-.25,0-.38,0s0,0-.13-.15-.15,0-.22,0-.19.11-.24.21a3,3,0,0,0,0,.84c0,.09,0,.14,0,.25a.33.33,0,0,1,0,.18c0,.07-.24.19-.53.44a2.33,2.33,0,0,0-.49.59c-.15.21,0,.71,0,1s.1.38,0,.57-.21.22-.36.44a.64.64,0,0,1-.82.19c-.29-.19-.22-.23-.28-.53s-.17-.51-.29-.92-.13-.32-.13-.32c-.61-.28-.47.25-.47.56s0,.51-.05.5-.16-.14-.25-.3,0-.17-.15-.56a5.23,5.23,0,0,1-.13-1.13A5.45,5.45,0,0,0,83,38c-.13-.29-.1-.25,0-.55s.08-.07.09-.16a.71.71,0,0,1-.08-.19s0-.08.08-.18.1-.14.24-.34a1.83,1.83,0,0,0,.2-.81c0-.27.09-.24.14-.36s.19,0,.44-.11.12-.11.16-.23a4.79,4.79,0,0,1,.17-.47c.08-.18.16,0,.23,0a1.89,1.89,0,0,0,.76.12c.27,0,.29,0,.29,0a1.88,1.88,0,0,1,0-.2l.1-.29a.8.8,0,0,0,.05-.16.1.1,0,0,1,.07-.07l.11.08a1.08,1.08,0,0,0,.41.21c.27.07.1,0,.15-.17s0,0-.07-.13a.84.84,0,0,1-.08-.2l.18-.07.19,0c.1,0,.11.09.19.27s.14.28.28.29.25-.2.28-.32a.79.79,0,0,0,.06-.25,2.11,2.11,0,0,1,.1-.4c0-.14.06,0,.12-.06s.13,0,.15,0a.2.2,0,0,0,.07-.19c0-.13-.07-.06-.07-.06l0-.29a2,2,0,0,0,.46,0c.27,0,.27-.08.27-.08s.06-.37.06-.4.08-.24.12-.36.08-.12.08-.12a1.56,1.56,0,0,0,.32,0,.4.4,0,0,0,.2-.06,3.73,3.73,0,0,0,0-.88c0-.19,0-.19.11-.33a.76.76,0,0,0,.06-.48c0-.24-.07-.16-.12-.32s0-.22.12-.24.2.07.62.22.57-.14.67-.33-.5-.72-.65-.91-.43-.23-.83-.36a4,4,0,0,1-.85-.44,3.34,3.34,0,0,0-1.4-.18,2.38,2.38,0,0,0-1.1.26c-.42.13-.28-.16-.38-.24s-.37,0-.45.16-.35.07-.53-.05a.45.45,0,0,0-.43,0c-.05,0-.08,0-.45-.21s-.43-.11-.52-.05-.16.1-.47,0-.3,0-.77,0-.34.1-.57.23a1.57,1.57,0,0,1-1-.09,2.08,2.08,0,0,0-1.24.09c-.08.09-.32.07-.32.07a3.74,3.74,0,0,1-.89-.17,3.92,3.92,0,0,0-.58-.21c-.22-.08-.52-.1-.79-.17l-.24-.06a2.32,2.32,0,0,0-.27-.26,1,1,0,0,0-.56-.09,2.36,2.36,0,0,1-.47-.06c-.17,0-.15-.08-.18-.1s0-.06,0-.16a3.11,3.11,0,0,1,0-.34,3.1,3.1,0,0,0,.11-.58,1.64,1.64,0,0,1,.22-.68.55.55,0,0,0-.17-.69c-.19-.21-.09-.27,0-.5s.38-.4.44-.71-.09-.42-.35-.63a2.09,2.09,0,0,1-.44-.5c-.1-.12-.07-.23-.08-.38a.52.52,0,0,0-.09-.25c0-.06-.16-.1-.22-.19a1.16,1.16,0,0,0-.2-.25c-.09-.09-.11,0-.24.07a.78.78,0,0,0-.34.53c0,.19.09.22.09.29a1.37,1.37,0,0,0-.07.41c0,.24-.74.17-1,.06s-.35-.13-.59-.21a4.08,4.08,0,0,1-1-.94c-.06-.1-.15-.73-.22-1a1,1,0,0,0-.39-.54.85.85,0,0,0-.69-.07c-.16.07-.1.33-.07.42s.31.22.44.31.27.27.26.32-.17.07-.37.07-.24-.15-.38-.25-.2,0-.27.11-.14.11-.14.11-.56-.67-.85-1a5.65,5.65,0,0,0-1.1-.85,2.12,2.12,0,0,1-.46-.29s0-.41,0-.44,0-.06-.14-.06a.27.27,0,0,0-.26.21,1.41,1.41,0,0,1-.23.43.94.94,0,0,0-.11.6c0,.08.25.06.33,0s.14-.14.32-.1.26.23.31.42-.17.34-.39.44-.28.21-.42.42a1.15,1.15,0,0,1-.66.56c-.43.14-.54.9-.57,1.1s-.19.24-.3.43a1.69,1.69,0,0,0,0,.84.45.45,0,0,0,.51.3.49.49,0,0,0,.29-.2.82.82,0,0,1,.19.17,3,3,0,0,0,.73.59c.34.2.51.71.82,1a1.24,1.24,0,0,0,1,.42c.15-.09.22-.2.43-.18a.73.73,0,0,0,.2,0h0s0,.25.08.56.1.22.23.36a2.77,2.77,0,0,1,.28.36,2.41,2.41,0,0,1,0,.74c-.08.17-.72.06-.83.06s-.13,0-.34-.17-.41.06-.67.13a.28.28,0,0,1-.35-.1s-.61,0-.61,0a3.48,3.48,0,0,1-.07.65,1.51,1.51,0,0,1-.24.7c-.15.18-.35.21-.45.31s.08.3.07.37-.24.05-.56-.19a.67.67,0,0,0-.59-.16s0,.05,0,.42a1.68,1.68,0,0,1-.44.85,1.23,1.23,0,0,0-.28.68c0,.23.24.37.49.66a7,7,0,0,0,1.65,1.14,3.83,3.83,0,0,0,1,.45,2.84,2.84,0,0,1,.87.19c.17.09.18.39.18.64s-.14.24-.25.39,0,.24.12.5.1.28,0,.52-.26.24-.45.43a2,2,0,0,0-.54.77,1.9,1.9,0,0,0,0,1c0,.41.63.69.63.69a3.81,3.81,0,0,1,.52.32.45.45,0,0,1-.08.25c0,.09-.16.32-.22.45a.79.79,0,0,0,0,.5c0,.29.2.34.2.34h1.28a1,1,0,0,1,0,.21c0,.07-.12.12-.2.16a1.92,1.92,0,0,0-.35.35,1.1,1.1,0,0,0-.19.61,1.58,1.58,0,0,0,.11.39.79.79,0,0,0,.13.26,2.5,2.5,0,0,1,.07.26.86.86,0,0,0,.19.29.28.28,0,0,1,.08.28c0,.14,0,.19-.19.26s-.1.27-.07.31.2.07.26.15,0,.16-.07.28a.54.54,0,0,0-.08.47.94.94,0,0,0,.26.37c.08.08,0,.44,0,.61a3.89,3.89,0,0,0-.08.51,2.21,2.21,0,0,0,.19.7c.09.2.26.32.31.43s0,.17,0,.3a1.23,1.23,0,0,0-.07.38A1,1,0,0,0,70,48a.43.43,0,0,1,0,.35c0,.08-.06,0-.19.2a1.64,1.64,0,0,0,0,.88.56.56,0,0,0,.25.36c.14.1.3.21.43.14s.07-.34,0-.47-.25-.15-.29-.2a3.22,3.22,0,0,1,0-.7c0-.08.13-.05.13,0s0,.22,0,.44a.74.74,0,0,0,.08.31s.22,0,.23,0l0-.07h.09s0,0,0,.06,0,0,0,0l.09,0v1s.1.11.17.11a.41.41,0,0,0,.27-.16.53.53,0,0,0,.08-.23.2.2,0,0,0,0-.14h0s0,0,0,0v-.11s0-.07.06-.09,0-.71,0-.81a.34.34,0,0,0-.09-.24c-.06-.06-.13-.05-.23-.42a1.44,1.44,0,0,1,.22-.91h.32a1.77,1.77,0,0,1,0,.24s0,0-.08.07,0,.13,0,.22a1.6,1.6,0,0,0,.37.42.65.65,0,0,1,.15.17v.51h-.52v.35a.72.72,0,0,0,.21.07c.11,0,.05.09.1.19s0,.16.1.24.31,0,.49,0a.43.43,0,0,0,.18-.42c0-.09,0-.08-.1-.14a.26.26,0,0,1-.07-.16,1.18,1.18,0,0,1,0-.33l.34,0s0-.2,0-.38,0-.18,0-.2L72.67,48a1.08,1.08,0,0,1-.11-.18c0-.07,0-.14,0-.25s.12-.08.14-.07.06.08.07.11a1.08,1.08,0,0,1,0,.18.51.51,0,0,0,.09.18s0,.11.08.12.07,0,.09-.06.06-.11.08-.11,0-.07,0-.07l0-.38H74l.08.09s.23,0,.29,0,.08.1.09.12l.07.09s.11,0,.11-.06-.06-.1-.1-.14,0-.12,0-.12l.1,0,.15.07a.65.65,0,0,0,0,.11s0,.09.07.1a.3.3,0,0,0,.15-.05s0-.17,0-.23.17-.07.19-.07,0,.06,0,.14v.27c0,.07,0,.08-.09.12s0,.12,0,.12.07,0,.1.07,0,.15,0,.19a.39.39,0,0,0,0,.15h.07V48.3a.25.25,0,0,1,0-.12.66.66,0,0,1,.49.1s.06.49.09.61a.38.38,0,0,0,.29.24,2.38,2.38,0,0,0,.85.24c.27,0,.37-.37.45-.44s.15,0,.19.12.26,0,.26,0l0-.39a2.19,2.19,0,0,0,.48,0c.18,0,.34-.3.42-.42a1.48,1.48,0,0,1,.45-.3c.13.37.6.11.6.11a2.23,2.23,0,0,0,1.19-1.7c0-.61.31-.5.31-.5.24.26,0,.87,0,.87a1.05,1.05,0,0,0-.33.88.26.26,0,0,0,.34,0c.62-.53.41-3,.41-3h1.33l.32-.16c.25-.12.2-.08.32-.2a1.71,1.71,0,0,0,.21-.48c0-.09.15,0,.26,0s.12-.09.28-.23.35.06.37.07.48.59.55.72.51.83.65,1.14a4.64,4.64,0,0,1,.27,1,2.21,2.21,0,0,0,.43.9c.11.15,0,.4.1.71a.79.79,0,0,1-.15.66.5.5,0,0,1-.15.07,10.63,10.63,0,0,0,0,1.14c0,.22.12.24.27.52a.8.8,0,0,1,0,.76c-.08.12-.08.13,0,.31s.45.09.53.28,0,.15.18.38.14.78.22,1.07a2.31,2.31,0,0,0,.44.82,2.4,2.4,0,0,1,.34.56c.09.2.28.54.42.8s.44.79.59,1,.3.21.34.07a1.76,1.76,0,0,0-.26-.76c-.11-.2-.13-.39-.26-.7a1.76,1.76,0,0,1-.17-.67,2.75,2.75,0,0,0-.39-.76.74.74,0,0,1-.09-.51,2.64,2.64,0,0,1,.07-.55c0-.24.65-.65.65-.65.45-.39.59.47.59.47s0,.13.3,0,.27-.13.38-.12.18.31.21.42a.64.64,0,0,0,.4.32C91.64,53.09,91.81,52.72,91.79,52.6ZM79.2,47.46a.83.83,0,0,1-.17.13,1.47,1.47,0,0,0-.25.25.57.57,0,0,1-.35.21c-.19,0-.27,0-.48,0s-.18.19-.34.22a1,1,0,0,1-.62,0c-.16-.09,0-.43.09-.57s.49,0,.55.07.18,0,.22-.08.1,0,.23,0a1.42,1.42,0,0,0,.8-.34.31.31,0,0,1,.32-.1.12.12,0,0,1,.07.1A.08.08,0,0,1,79.2,47.46Z"/><path class="cls-3" d="M75,48.23c0-.06,0-.22,0-.22l-.1-.06a.88.88,0,0,0-.23,0,.41.41,0,0,0-.13.34c0,.18,0,.3.06.42a.33.33,0,0,0,.33.16c.09,0,.24,0,.25-.13a1,1,0,0,0,0-.3S75,48.28,75,48.23Z"/><path class="cls-3" d="M74.16,48.46c0-.13.1-.3.14-.37s0-.28,0-.28a2.18,2.18,0,0,0-.36,0c-.14,0-.15.1-.18.2a1.3,1.3,0,0,0,0,.83.49.49,0,0,0,.59.33c.16,0,.13-.19,0-.36A.85.85,0,0,1,74.16,48.46Z"/><path class="cls-3" d="M73.92,49.24c-.15-.09-.25-.22-.32-.25s-.16-.46-.16-.46-.26-.08-.34,0,0,.21,0,.28A.55.55,0,0,1,73,49s-.07.12-.08.14,0,.1,0,.15,0,.07.08.13,0,.13,0,.22a.41.41,0,0,0,.12.32c.1.06.27-.11.25-.23a1,1,0,0,0-.16-.32.1.1,0,0,1,0-.14l.19.18s.31.22.45.2S74.06,49.34,73.92,49.24Z"/><path class="cls-3" d="M71.81,49.93a.14.14,0,0,1,0-.07l-.24,0s0,.09,0,.09a.16.16,0,0,1,.1,0s0,0,0,0,0,.09.08.09l.15,0,0,0L71.84,50S71.82,50,71.81,49.93Z"/><path class="cls-3" d="M78.83,49.07a2.24,2.24,0,0,0-.27,0c-.13,0-.1-.12-.13-.15a1.24,1.24,0,0,0-.19.07c-.08,0,0,.12,0,.16s.16.13.2.15a.64.64,0,0,0,.29,0,.56.56,0,0,0,.2-.08c.07,0,0-.07,0-.12S78.87,49.1,78.83,49.07Z"/><path class="cls-3" d="M79.12,48.31a1,1,0,0,0-.21.08.13.13,0,0,0-.07.12.43.43,0,0,0,0,.23c0,.06.18.14.26.1s.09-.12.15-.15a.39.39,0,0,0,.06-.32A.25.25,0,0,0,79.12,48.31Z"/><path class="cls-3" d="M80.06,48.55s.06-.2,0-.23a.43.43,0,0,0-.2-.07,1.16,1.16,0,0,0-.22.1l-.16.1s-.11.19,0,.27.18.14.3.05A1.21,1.21,0,0,0,80.06,48.55Z"/><path class="cls-3" d="M80.17,48.65a1.08,1.08,0,0,0-.08.2c0,.13-.07.13-.15.17a.22.22,0,0,0-.14.16c0,.07,0,.19.06.22s.41.07.48,0,.2-.33.13-.47S80.35,48.61,80.17,48.65Z"/><path class="cls-3" d="M82.74,44.89a1.31,1.31,0,0,0-.35-.11c-.07,0-.21,0-.24.15s-.05,1.86-.05,2-.12.63-.12.63-.39.12-.38.22-.1.48.19.36.26-.25.4-.35a2.16,2.16,0,0,0,.73-1,2.28,2.28,0,0,0-.15-.93c-.06-.18-.12-.3-.12-.34s0-.12,0-.11.07.2.19.29a.43.43,0,0,0,.32.06s0-.47-.09-.55A2.23,2.23,0,0,0,82.74,44.89Z"/><path class="cls-3" d="M84.84,44.46a.78.78,0,0,0-.28-.41s-.24-.15-.29.2a1.59,1.59,0,0,0,.08,1.18c.25.49.34.67.59.51s.41-.28.23-.69A4.2,4.2,0,0,1,84.84,44.46Z"/><text class="cls-4" transform="translate(0 100.71)">Ministry of Finance</text></g></g></svg>