<svg xmlns="http://www.w3.org/2000/svg" viewBox="0 0 144.94 144.94"><defs><style>.cls-1{fill:none;stroke:#2a2771;stroke-width:1.65px;}.cls-2{fill:#2a2771;}.cls-3{fill:#ec2224;}.cls-4{fill:#f5ea14;}</style></defs><title>Asset 17</title><g id="Layer_2" data-name="Layer 2"><g id="Layer_1-2" data-name="Layer 1"><circle class="cls-1" cx="72.47" cy="72.47" r="71.65" transform="translate(-30.02 72.47) rotate(-45)"/><path class="cls-2" d="M10.53,84.05a60,60,0,0,0,2.12,8.24c.42-.6.85-1.2,1.28-1.78-.16-.49-.3-1-.43-1.49l5.95-1.67a11.68,11.68,0,0,0,1.68-.54c1.38-.77,1.9-1.62,1.69-2.62-.16-.66-1.12-1.35-2.87-2.25a6.06,6.06,0,0,0-3.54-.47,3.1,3.1,0,0,0-1.79.8,1.63,1.63,0,0,0-.55,1.58,1.39,1.39,0,0,0,.76,1.06,2,2,0,0,0,1.43.14,1.58,1.58,0,0,0,1-.68,1.48,1.48,0,0,0,.24-1.09,5.08,5.08,0,0,1,2,.6c.8.41,1.25.79,1.34,1.19s-.07.51-.42.6l-7.37,1.86a67.05,67.05,0,0,1-1.38-7.3c-.5.59-1,1.2-1.49,1.82v.44a2.91,2.91,0,0,0-2.47,2A5.07,5.07,0,0,0,8,87.84a9.61,9.61,0,0,0,.3,1c0,.1.18.5.45,1.18a2.2,2.2,0,0,1,.07.83c0,.37-.1.6-.23.7a1.52,1.52,0,0,1-.41.27.78.78,0,0,1-.57-.15,2.33,2.33,0,0,0-.65.29.44.44,0,0,0,0,.36.72.72,0,0,0,.54.55,2.07,2.07,0,0,0,1.39,0,2.43,2.43,0,0,0,1.48-1.42,4.25,4.25,0,0,0,.21-3c-.05-.16-.14-.41-.25-.76-.28-.88-.49-1.59-.61-2.12-.22-.74-.06-1.22.46-1.42Z"/><path class="cls-2" d="M22.69,83.74a8.51,8.51,0,0,0,.38,2c.35,1.48,0,2.37-1.07,2.73a1.55,1.55,0,0,1-1,.07l-.72,1.1a16.18,16.18,0,0,0,2.07-.24,4.94,4.94,0,0,0,.55-.15c2.11-.72,2.83-2,2.36-3.8a28.16,28.16,0,0,1-.6-3,1.34,1.34,0,0,1,.47-1.09l.78-.54q.32-.37.6-.78L15.26,82c.62.37,1.25.73,1.88,1.08l6.2-1.18A2.07,2.07,0,0,0,22.69,83.74Z"/><path class="cls-2" d="M10.21,82.17a8.6,8.6,0,0,0,.39,1.52c.45-.62.9-1.23,1.38-1.83q0-.26-.06-.36a1.55,1.55,0,0,1,.26-1.09,1.74,1.74,0,0,1,.94-.72,5,5,0,0,1,.62-.15l8.81-1.05c.57-.5,1.15-1,1.72-1.44L11.53,78.24c-.09-.72-.11-1.44-.16-2.16-.57.56-1.13,1.13-1.69,1.72l.07.73a2.28,2.28,0,0,1-.27.27,5.64,5.64,0,0,1-1.26.41l-.71,1.07c1.31-.16,2.34-.31,3.09-.47l.4-.08A2.4,2.4,0,0,0,10.21,82.17Z"/><path class="cls-2" d="M14.86,73.11a2.46,2.46,0,0,1,.94-.32.86.86,0,0,1,.45.15.67.67,0,0,1,.43.57,6.47,6.47,0,0,1-.57.83l1.47.41c1-.94,1.42-1.57,1.41-2a1.2,1.2,0,0,0-.51-1,14.61,14.61,0,0,0-2.28-1.26,7.46,7.46,0,0,1-1-.59c.08,0,.1,0,.07-.1a.36.36,0,0,1-.06-.24.6.6,0,0,1,.38-.51.84.84,0,0,1,.39-.22,1.41,1.41,0,0,1,.49-.08l5.77.37,1.43-1.21L11.49,66.82c0-.68.15-1.36.23-2-.65.45-1.31.92-2,1.4a62.76,62.76,0,0,0,0,12.56c.53-.6,1.05-1.18,1.61-1.75l-.1-1.71.27-.23a4.14,4.14,0,0,0,.56-1.46,2,2,0,0,1,1.21-1.74,1.28,1.28,0,0,1,.48-.07,3.15,3.15,0,0,1,.51.2q.18.11.24,0a4.87,4.87,0,0,1-.67.35,2.47,2.47,0,0,0-1.28,1.09,2.07,2.07,0,0,0-.38,1.09A2,2,0,0,0,12.91,76a1.87,1.87,0,0,0,1.51.56c.78,0,1.25-.34,1.38-.93a1.91,1.91,0,0,0,.15-.75,1.17,1.17,0,0,0-.42-.8,1.23,1.23,0,0,0-.91-.39,1,1,0,0,0-.36.08A1,1,0,0,1,14.86,73.11Zm-.53-4.48-.13-.49a3.63,3.63,0,0,0-1.37,1,1.08,1.08,0,0,0-.21,1.11,7.34,7.34,0,0,0,.82,1.08,1.31,1.31,0,0,0,.21-.53c0-.17-.23-.26-.71-.27a2.41,2.41,0,0,0-1.69.61c0-.89,0-1.79.12-2.67Z"/><path class="cls-2" d="M12.16,53.7l-1.82,0a11.71,11.71,0,0,0-2.42,1.52,8.39,8.39,0,0,0-2.71,4.51,3.65,3.65,0,0,0,.06,1.69,5.09,5.09,0,0,0,.8,1.82A8.31,8.31,0,0,0,7.44,64.6,2.43,2.43,0,0,0,8.56,65a1.2,1.2,0,0,0,.77-.16A7.39,7.39,0,0,0,10,64.4c-.13.94-.25,1.87-.3,2.82.63-.49,1.24-1,1.9-1.43l.17-1.38L22.28,65.8c.63-.37,1.23-.73,1.88-1.06L12,62.81l.38-2.17c-.67.41-1.34.84-2,1.27L10.17,63l-.84.21c-.12,0-.4-.18-.82-.6a6.6,6.6,0,0,1-.76-.85l-.28-.58A3.66,3.66,0,0,1,7.29,59a5.6,5.6,0,0,1,2.13-3.36C10.34,55,11.25,54.32,12.16,53.7Z"/><path class="cls-2" d="M14.13,60.13a3.72,3.72,0,0,1,1-1.26,2.33,2.33,0,0,1,1.72-.35,2.16,2.16,0,0,0-.15.43A1.88,1.88,0,0,0,17,60.76a3,3,0,0,0,1.5.86,3.12,3.12,0,0,0,.44.05h.67a2.6,2.6,0,0,0,.57-.2,1.48,1.48,0,0,0,.87-1.13,2.37,2.37,0,0,0-.59-1.89,7,7,0,0,1,1.41-.81,3.17,3.17,0,0,1,1.43-.21c.23,0,.73,0,1.54.11l1.35-.37L14.35,53.24c.23-.67.44-1.35.69-2-.75.3-1.48.63-2.23,1A63,63,0,0,0,10.17,63c.62-.42,1.26-.82,1.88-1.21l.55-.12a4,4,0,0,0,.86-.54A4.2,4.2,0,0,0,14.13,60.13Zm6.41-3.4a18.1,18.1,0,0,0-1.76.68,3.68,3.68,0,0,0-1-.23,8.49,8.49,0,0,0-2.31,0,5,5,0,0,0-1.38.51c-.21.11-.62.36-1.25.78.27-1.28.65-2.53,1-3.78Z"/><path class="cls-2" d="M19.8,41.22c-.77.15-1.55.33-2.34.51A63.61,63.61,0,0,0,12.55,53l2-.9.24-.19.4-.08a1.74,1.74,0,0,0,1.15-1.09c.32-.73.61-1.15.88-1.26a2.75,2.75,0,0,1,2,.09c.28.41.57.82.88,1.23s.56.88.51,1-.3.18-.79.21a3.72,3.72,0,0,1-1.26-.21c.28.52.55,1,.85,1.54,1.79-.1,2.82-.25,3.09-.55A1.38,1.38,0,0,0,23,52a2.24,2.24,0,0,0,.11-.36c.08-.34-.59-1.35-2-3.19-.3-.42-.41-.78-.27-1.05a1.11,1.11,0,0,1,.65-.44,1.87,1.87,0,0,1,.89-.07l4.89,2.5c.8-.07,1.58-.14,2.37-.19l-11.06-6Zm-3.5,6.83c.52-1.16,1-2.31,1.62-3.43L20.61,46c-1.19.16-1.93.46-2.11.89a1.53,1.53,0,0,0,.07,1l.11.29A2.9,2.9,0,0,0,16.3,48.05Z"/><path class="cls-2" d="M26,40.5a4.1,4.1,0,0,1,1.61,0,13.53,13.53,0,0,1,4.6,2l.3.23c.52.07,1.05.16,1.57.25L23.9,35.17l1.38-1.75c-.8,0-1.6.13-2.41.21A63.82,63.82,0,0,0,16.79,43c.76-.22,1.55-.4,2.33-.57A57.79,57.79,0,0,1,23,36.45l3.9,2.84h-.08c-2.07-.4-3.55,0-4.26,1.14a2.35,2.35,0,0,0-.28,2.08,3.12,3.12,0,0,0,1.48,1.77c1.43.82,2.41.61,3.14-.49.55-.85.31-1.62-.71-2.31a2.64,2.64,0,0,0-1.42-.39A2.32,2.32,0,0,1,26,40.5Z"/><path class="cls-2" d="M31.71,29.78l-.85-.11c-.17,0-.27,0-.3.19a1.55,1.55,0,0,0,0,.29,6.45,6.45,0,0,0,1.62,2.71,6.77,6.77,0,0,0,2.14,1.48A3.21,3.21,0,0,0,38,33.73a6.93,6.93,0,0,0,.83-.91,6.46,6.46,0,0,1,1-1.07c.58-.45,1.24-.36,2,.3a3.2,3.2,0,0,0,.89.62l1.14.32-7.16-9.85a2,2,0,0,0-1.42-.65,2.18,2.18,0,0,0-1.5.2,3.3,3.3,0,0,0-1.31,2.21,6.11,6.11,0,0,0,0,2.52,4.92,4.92,0,0,0,1.12,2.41,3.37,3.37,0,0,0,1,.74,1.71,1.71,0,0,0,2-.22,2.27,2.27,0,0,0,.34-.35,1.21,1.21,0,0,0,.21-.93,2,2,0,0,0-.42-1,2.1,2.1,0,0,0-.94-.69.89.89,0,0,0-1,.15l-.13.14a3,3,0,0,1-.26-.93,4.81,4.81,0,0,1,.12-1.56,2.31,2.31,0,0,1,.63-1.31l0,0L40,30.1,39.66,30a3.14,3.14,0,0,0-2.18.85,6.55,6.55,0,0,0-1,1.08,2.83,2.83,0,0,1-.87.61,1.86,1.86,0,0,1-1,.26,3.09,3.09,0,0,1-1.78-1l-.26-.27A4.81,4.81,0,0,1,31.71,29.78Z"/><path class="cls-2" d="M43.49,18.5c1.66-.88,3.36-1.69,5.09-2.45-.71-.32-1.44-.64-2.18-1a63.42,63.42,0,0,0-11.06,6.46l2.28.55c1.46-1,2.94-2,4.47-2.82l.85,1.48a1.86,1.86,0,0,0-1.66-.09,1.62,1.62,0,0,0-.77,1.08,1.53,1.53,0,0,0,.31,1.32c.72,1,1.41,1.24,2.07.82a1.15,1.15,0,0,0,.48-.69,1.1,1.1,0,0,0-.11-.89,1.41,1.41,0,0,0-.45-.47c-.05,0-.06-.14,0-.35-.12.2-.15.34-.1.44l-.39-.43c-.2.12-.2.27,0,.47a3.18,3.18,0,0,0,.6.17,2.45,2.45,0,0,1,1.2.78A14.6,14.6,0,0,0,45.24,24a1.18,1.18,0,0,0,1.28.1A1.94,1.94,0,0,0,47.35,23a5,5,0,0,0,.52-1.67,2.71,2.71,0,0,1,.52.72,4,4,0,0,1,.29,1.22,3,3,0,0,1-.16,1.33,2.86,2.86,0,0,1-1.23,1.31,3.34,3.34,0,0,1-3.24-.06,7.93,7.93,0,0,1-1.86-1,22.33,22.33,0,0,1-2.39-2.25c-.77-.22-1.56-.41-2.34-.58L39.7,24.1c1,1,1.77,1.67,2.25,2l1.6,1.07a6.4,6.4,0,0,0,2.5,1A3.29,3.29,0,0,0,48.37,28c1.43-.71,2-2,1.81-3.81a7.81,7.81,0,0,0-.62-2.36,6.06,6.06,0,0,0-1.44-2,4.52,4.52,0,0,0-2-1.16c-.09,1-.12,1.73-.14,2.1a7.63,7.63,0,0,1-.15.82,2.59,2.59,0,0,1-.19.68c-.05,0-.11,0-.17-.07a.41.41,0,0,1,0-.09Z"/><path class="cls-2" d="M64.28,9.87,63.5,8.21a10,10,0,0,0-2.39-1.57,8.38,8.38,0,0,0-5.22-.59,3.32,3.32,0,0,0-1.52.77A5.82,5.82,0,0,0,53.05,8.3a6.6,6.6,0,0,0-.64,1.8,2.28,2.28,0,0,0,.12,1.18,1.14,1.14,0,0,0,.46.63,7.31,7.31,0,0,0,.66.41L51,13.23c.71.38,1.41.76,2.09,1.15l1.32-.44L57.5,24.08c.6.42,1.19.85,1.76,1.28L55.94,13.5c.7-.21,1.4-.41,2.12-.56-.65-.45-1.32-.9-2-1.31l-1.05.3-.54-.68c-.06-.12,0-.44.2-1a7.54,7.54,0,0,1,.46-1.06l.4-.5a3.44,3.44,0,0,1,1.9-1,5.41,5.41,0,0,1,3.94.53C62.37,8.7,63.34,9.27,64.28,9.87Z"/><path class="cls-2" d="M68.79,11.34c-.56-.55-1.14-1.09-1.73-1.64a63.56,63.56,0,0,0-12,2.21c.69.42,1.36.84,2,1.26,1.3-.29,2.59-.64,3.91-.86.54,2.82.83,4.33.88,4.51.51,1.1,1.12,1.59,1.84,1.46a2.29,2.29,0,0,0,1.09-.61,6.05,6.05,0,0,0,1.3-1.82,1.75,1.75,0,0,1,.37,1.09,2.8,2.8,0,0,1-.67,1.91,2.47,2.47,0,0,1-1.56.88,2.09,2.09,0,0,1-1.78-.39,6.56,6.56,0,0,1-.88-.87A9.05,9.05,0,0,1,60,16.1a15.6,15.6,0,0,1-1.13-2.71L57.52,13c.38,1.1.64,1.85.77,2.24a24.4,24.4,0,0,0,2,4.08,15,15,0,0,0,1.82,2.21,2.87,2.87,0,0,0,2.26.89,3.1,3.1,0,0,0,2-.8,3.87,3.87,0,0,0,1.16-2.32,8.38,8.38,0,0,0,.1-2.09,5.66,5.66,0,0,0-.8-2.47,3.42,3.42,0,0,0-1.75-1.57,6,6,0,0,0-.5.92,3.34,3.34,0,0,1-1.43,1.87L62.56,12Q65.66,11.54,68.79,11.34Z"/><path class="cls-2" d="M79.82,9.76,79.46,8a10.79,10.79,0,0,0-1.94-2.09A8.39,8.39,0,0,0,72.61,4,3.51,3.51,0,0,0,71,4.4a5.79,5.79,0,0,0-1.65,1.11,7.76,7.76,0,0,0-1.06,1.6,2.46,2.46,0,0,0-.17,1.17,1.22,1.22,0,0,0,.29.72c.18.2.36.38.54.56l-2.83.22c.6.54,1.19,1.08,1.75,1.63l1.39-.1.55,10.59c.48.55.94,1.12,1.39,1.68l-.32-12.32c.73,0,1.46-.06,2.19,0-.52-.61-1.06-1.17-1.61-1.75l-1.09,0L70,8.72c0-.13.11-.43.43-.91a8.7,8.7,0,0,1,.7-.91l.52-.39A3.35,3.35,0,0,1,73.71,6a5.41,5.41,0,0,1,3.7,1.48C78.24,8.19,79.05,8.94,79.82,9.76Z"/><path class="cls-2" d="M74.54,16.33a3.6,3.6,0,0,0-1.32,2.28,2.91,2.91,0,0,0,.51,2.25,2.21,2.21,0,0,0,1.62.59,4.25,4.25,0,0,0,2.6-.71,2.64,2.64,0,0,0,1.44-1.24,2.81,2.81,0,0,0,.49-1.22,1.94,1.94,0,0,0-.26-1.3,1.29,1.29,0,0,0-1-.66,1.11,1.11,0,0,0-1,.41,1.74,1.74,0,0,0-.49,1.07,1.35,1.35,0,0,0,.26.89.87.87,0,0,0,.2.18l-.09.13s0,.06-.16.09a2,2,0,0,0-.42.18,3.24,3.24,0,0,1-1,.42c-.74.09-1.1.16-1.09.16a.31.31,0,0,1-.35-.29c0-.42.4-1.09,1.38-1.85a17.1,17.1,0,0,0,2.89-2.58l.47-.6a2.75,2.75,0,0,0,.58-1.37A3.3,3.3,0,0,0,79.84,12l-.11-.35c.81.11,1.63.19,2.43.33-.35-.55-.71-1.06-1.09-1.59L80.54,10c-.18,0-.29.07-.33.28A3.32,3.32,0,0,0,80,8.5a3.1,3.1,0,0,0-1-1.38,4.88,4.88,0,0,0-1.59-.55c-.24,0-.71,0-1.38,0s-1.19.06-1.54,0a3.51,3.51,0,0,1-1.32-.22c-.28-.13-.44-.25-.47-.34a1.87,1.87,0,0,1-.16-.69A1.74,1.74,0,0,1,73,4.43c-.38-.14-.77-.26-1.15-.37A2.45,2.45,0,0,0,71.19,6a1.81,1.81,0,0,0,.41,1.2,3.79,3.79,0,0,0,2.88,1.61c.7,0,1.17,0,1.42,0,1.38,0,2.06.08,2,.06a5.47,5.47,0,0,1,.88.28.79.79,0,0,1,0,.64.55.55,0,0,1-.23.52L78,9.71a60.61,60.61,0,0,0-7.62-.2c.55.58,1.1,1.17,1.62,1.75.7,0,1.4,0,2.1,0a3.89,3.89,0,0,0-.94,2.5A2.74,2.74,0,0,0,73.44,15a1.82,1.82,0,0,0,1.37,1.08Zm2.28-1.77c0,.06-.13.14-.38.23a1.57,1.57,0,0,1-.73.11c-.57,0-.84-.38-.81-1.09a1.39,1.39,0,0,1,.49-1c.15-.13.18-.27.08-.4.48.75.93,1.5,1.36,2.25Zm1.45-2.05a1.27,1.27,0,0,1-.73,1.18l-1-2a1,1,0,0,1,.2-.13,1.27,1.27,0,0,1,.69-.13C78.05,11.51,78.33,11.86,78.27,12.51Z"/><path class="cls-2" d="M75.87,21.55a10,10,0,0,0-2.06-.21c-1.52-.09-2.29-.63-2.32-1.8a1.55,1.55,0,0,1,.23-1l-.85-1a16.7,16.7,0,0,0-.37,2.06,5.23,5.23,0,0,0,0,.56c.09,2.24,1.09,3.26,3,3.34a26.31,26.31,0,0,1,3,.27,1.29,1.29,0,0,1,.91.73c.09.3.2.61.3.92a9.19,9.19,0,0,0,.58.81L79.68,15c-.53.49-1.06,1-1.57,1.47l-.62,6.28A2.15,2.15,0,0,0,75.87,21.55Z"/><path class="cls-2" d="M93.25,12.84l0-1.83a10.64,10.64,0,0,0-1.44-2.48,8.23,8.23,0,0,0-4.41-2.85,3.23,3.23,0,0,0-1.69,0,5.73,5.73,0,0,0-1.85.75,7.73,7.73,0,0,0-1.38,1.31,2.31,2.31,0,0,0-.42,1.1,1.2,1.2,0,0,0,.13.77c.13.24.26.47.4.68-.93-.17-1.87-.25-2.81-.38.47.65.93,1.3,1.36,1.95.46.05.92.13,1.38.21L80.82,22.53c.35.64.68,1.28,1,1.92l2.34-12.1c.72.11,1.43.3,2.14.46-.38-.69-.78-1.39-1.2-2.09L84,10.53l-.18-.84c0-.13.2-.4.62-.8a9.16,9.16,0,0,1,.88-.75l.59-.27a3.64,3.64,0,0,1,2.16-.08A5.45,5.45,0,0,1,91.4,10C92.05,10.93,92.66,11.91,93.25,12.84Z"/><path class="cls-2" d="M95.38,15.67c-.27-.74-.55-1.49-.85-2.23A63.85,63.85,0,0,0,84,10.53c.42.68.83,1.33,1.22,2a65.76,65.76,0,0,1,6.47,1.76l-.1.3a15.68,15.68,0,0,0-7,2c.3.92.58,1.84.83,2.75a4.35,4.35,0,0,1,2.07,1.53A6.36,6.36,0,0,1,88.62,25c.09.62.17,1.25.25,1.87l4.34-12.07C93.94,15.08,94.65,15.39,95.38,15.67Zm-6.06,5.92a7.7,7.7,0,0,0-2-3.67,12,12,0,0,1,3.5-.91Z"/><path class="cls-2" d="M98.05,11.34a.86.86,0,0,1-.21-.94c.08-.19.42-.37,1-.53A10.93,10.93,0,0,0,98,9.05c-.22-.09-.48,0-.77.25a2.21,2.21,0,0,0-.66.93,2.52,2.52,0,0,0,.14,2.07,4.26,4.26,0,0,0,2.19,2c.14.07.4.17.76.3a16.68,16.68,0,0,1,2,.87,1.56,1.56,0,0,1,.79.73c.15.25.18.45.09.59,0-.09-.08-.14-.22-.16l-.69-.05A61.62,61.62,0,0,0,93.31,13c.3.72.59,1.44.85,2.19,1.32.5,2.62,1,3.9,1.63l-1.67,3.61.45.2,0,.1,0-.1c.05-.32.05-.49,0-.52s-.2.08-.41.32a3.12,3.12,0,0,0-.16,1.67A1.57,1.57,0,0,0,97,23.24a1.68,1.68,0,0,0,1,.13,6.13,6.13,0,0,0,2.06-.73,1.94,1.94,0,0,1-.23.87,3.66,3.66,0,0,1-1.07,1,2.45,2.45,0,0,1-2.47.2,2.3,2.3,0,0,1-1.22-1.45,1.39,1.39,0,0,1,0-.33L95,22.05a9.62,9.62,0,0,1,.07-2.8,13.33,13.33,0,0,1,.64-2.81l-.86-1.1a40.77,40.77,0,0,0-1.2,4.86c-.09.91-.15,1.52-.16,1.86a14.68,14.68,0,0,0,.19,2.85,3.2,3.2,0,0,0,3.45,2.54,3.55,3.55,0,0,0,2.26-1.17,9.1,9.1,0,0,0,1.39-1.74,5.31,5.31,0,0,0,.7-2.48c.06-1-.13-1.7-.55-1.94s-.82,0-1.54.4-1.13.62-1.23.57L98,21a.62.62,0,0,1-.06-.36l.11-.33,1.4-2.84A62.6,62.6,0,0,1,105,20.56c-.13-.79-.28-1.58-.46-2.35l-.74-.42a2.82,2.82,0,0,0,.26-2.58,4.08,4.08,0,0,0-1.82-1.93c-.55-.24-1.11-.49-1.68-.69L99,12l-.33-.12-.06,0A2.09,2.09,0,0,1,98.05,11.34Z"/><path class="cls-2" d="M108,27.17a2.3,2.3,0,0,0,.49-1.41,12.44,12.44,0,0,0-.2-1.44.9.9,0,0,1,.94.07c.25.16.34.64.26,1.44a3.07,3.07,0,0,1-.45,1.59l-4.76,5.73c0,.74-.07,1.5-.12,2.24L112.2,26c.54.47,1.09.93,1.61,1.41,0-.79,0-1.56,0-2.36-.3-.35-.44-.62-.39-.81l.14-.17a1.46,1.46,0,0,0,.32-.7,11.24,11.24,0,0,0-.15-1.67L112,24l-1.37,2,.06-.24c.31-2,.21-3.17-.21-3.5a2,2,0,0,0-.54-.23,3.16,3.16,0,0,0-2.6.15,8.69,8.69,0,0,0-.1-1.59,2.41,2.41,0,0,0-1-1.25c-.8-.53-1.64-1-2.48-1.5.17.79.34,1.58.48,2.35,1.12.67,1.45.86,1,.55a1.68,1.68,0,0,1,.65.87c0,.28,0,.53,0,.72a7.37,7.37,0,0,0-.78.12,2.87,2.87,0,0,0-2.1,1.31,2.28,2.28,0,0,0-.22.47c-.3.92-.18,1.56.38,1.92a1.93,1.93,0,0,0,1.92,0,1.74,1.74,0,0,0,.6,1.64,1.55,1.55,0,0,0,.77.27,1.3,1.3,0,0,0,.88-.18l-.09,0A2.28,2.28,0,0,0,108,27.17Z"/><path class="cls-2" d="M113.34,33.67a4,4,0,0,1-.33,1.56,13.72,13.72,0,0,1-2.94,4.1l-.29.25-.56,1.47L119,32.67c.49.56,1,1.13,1.42,1.72.11-.8.23-1.62.31-2.42a62.25,62.25,0,0,0-7.88-7.86c0,.81,0,1.6.07,2.39a63.64,63.64,0,0,1,5,5l-3.58,3.24,0-.08c.81-1.94.72-3.45-.23-4.4a2.47,2.47,0,0,0-2-.69,3,3,0,0,0-2,1.07c-1.07,1.2-1.13,2.27-.17,3.19.74.68,1.5.64,2.39-.23a2.6,2.6,0,0,0,.69-1.31A2.51,2.51,0,0,1,113.34,33.67Z"/><path class="cls-2" d="M116.62,46.13a2.87,2.87,0,0,1,.92-1.52,8.62,8.62,0,0,1,1.54-1.26,6.32,6.32,0,0,1,5.32-1.06,4.35,4.35,0,0,1,2.43,1.86c.27-.72.55-1.45.78-2.18a3.57,3.57,0,0,0-2.45-1.65A7.89,7.89,0,0,0,119,41.74a8.47,8.47,0,0,0-3.7,4.47,2,2,0,0,0,.19,1.59,1.56,1.56,0,0,0,1.2.72,2.62,2.62,0,0,0,1.67-.29,1.88,1.88,0,0,0,.85-.89.92.92,0,0,0,0-1c-.47-.83-1.19-1-2.16-.37a2.39,2.39,0,0,0-.45.45A.71.71,0,0,1,116.62,46.13Z"/><path class="cls-2" d="M126,53.68a1.7,1.7,0,0,0-.38-.6A2,2,0,0,0,124,53a1.76,1.76,0,0,0-1,.83,1.37,1.37,0,0,0-.15,1.12,1.54,1.54,0,0,0,1.12,1,3.19,3.19,0,0,0,1.78-.06A4.87,4.87,0,0,0,129,53.19a3.34,3.34,0,0,0,.36-2.62l.26-.1a51.16,51.16,0,0,1,1.66,4.94c.42-.67.86-1.36,1.24-2A63.24,63.24,0,0,0,127.07,41c-.23.78-.47,1.54-.72,2.29,1,1.86,1.9,3.75,2.7,5.69l-.39.16a13.38,13.38,0,0,0-5.83-3.68c-.44.84-.9,1.67-1.36,2.47a4.35,4.35,0,0,1-.68,4,7.9,7.9,0,0,1-.87,1.07c-.14.12-.52.41-1.15.86l-.64,1,9.17-3.53a2.12,2.12,0,0,1-.23,2,3,3,0,0,1-1,1.07A1.33,1.33,0,0,0,126,53.68Zm-3.75-1.85a6.55,6.55,0,0,0,1.46-3.61c.59.27.94.44,1,.5A8.32,8.32,0,0,1,126.59,50Z"/><path class="cls-2" d="M132.55,53.44a12.88,12.88,0,0,0-.63-1.45c-.35.69-.71,1.37-1.07,2a2.05,2.05,0,0,1,.11.34,1.57,1.57,0,0,1-.1,1.12,1.78,1.78,0,0,1-.82.85,3.35,3.35,0,0,1-.59.25L120.9,59c-.49.58-1,1.13-1.47,1.68l12.41-3.12.49,2.12c.47-.64.93-1.29,1.39-2l-.16-.71a1.67,1.67,0,0,1,.24-.31,5.26,5.26,0,0,1,1.17-.6l.52-1.16c-1.27.35-2.26.67-3,.94l-.38.14A2.44,2.44,0,0,0,132.55,53.44Z"/><path class="cls-2" d="M131.26,64.64a3.25,3.25,0,0,0,2-1,2.19,2.19,0,0,0,.63-2A2.31,2.31,0,0,0,132.63,60a3.21,3.21,0,0,0-4.07.86,2.34,2.34,0,0,0-.58,1.89,2,2,0,0,0,.26.75,2.85,2.85,0,0,0,.91.72A3.29,3.29,0,0,0,131.26,64.64Zm-11.52,3,1.78-.18a31.25,31.25,0,0,0,4.2-3.58,27,27,0,0,0,2.3-3l-3.37.7a21.34,21.34,0,0,1-3.26,4.51C120.84,66.59,120.29,67.12,119.74,67.63ZM131.63,63a1.88,1.88,0,0,1-.69,0,1.93,1.93,0,0,1-.83-.53,1.76,1.76,0,0,1-.54-.75c0-.21.13-.35.5-.42a1.71,1.71,0,0,1,1.29.17c.6.43.89.81.86,1.09S132,63,131.63,63Z"/><path class="cls-2" d="M134.81,82.61l1.8-.28a11.17,11.17,0,0,0,2.18-1.84,8.44,8.44,0,0,0,2.06-4.83,3.38,3.38,0,0,0-.31-1.66,5.47,5.47,0,0,0-1-1.69A8.56,8.56,0,0,0,138,71.18a2.25,2.25,0,0,0-1.16-.22,1.15,1.15,0,0,0-.74.26,7,7,0,0,0-.58.51c0-1,0-1.89-.09-2.83-.54.57-1.14,1.13-1.71,1.67l0,1.39L123.1,72c-.55.46-1.15.9-1.72,1.32l12.32.22c0,.73,0,1.46-.08,2.19.63-.5,1.24-1,1.83-1.54l0-1.09.81-.32c.12,0,.42.13.88.48A7.71,7.71,0,0,1,138,74l.37.54a3.4,3.4,0,0,1,.46,2.1,5.49,5.49,0,0,1-1.62,3.63C136.44,81.1,135.62,81.87,134.81,82.61Z"/><path class="cls-2" d="M132.11,86.43c.7-.4,1.41-.82,2.12-1.25a64.69,64.69,0,0,0,1.27-12.09c-.61.56-1.22,1.1-1.83,1.63a63.34,63.34,0,0,1-.81,8l-1.73-.29.09-.07.58-.26a1.62,1.62,0,0,0,.68-1.06,1,1,0,0,0-.24-.83,2.38,2.38,0,0,0-.64-.66l.13-.09a2.58,2.58,0,0,0,1.23-2,2.16,2.16,0,0,0-1.09-2,4.59,4.59,0,0,0-2.37-.71,4.06,4.06,0,0,0-2.64.7,2.72,2.72,0,0,0-1.12,2,1.7,1.7,0,0,0,1.12,1.76,2.79,2.79,0,0,0,1.42,0c.83-.16,1.27-.55,1.33-1.15a1.24,1.24,0,0,0-.36-1,1.6,1.6,0,0,0-1.09-.49,2.24,2.24,0,0,0-.45,0,1.17,1.17,0,0,1,1.17-.49,2,2,0,0,1,1.28.54,1.33,1.33,0,0,1,.45,1.15,1.57,1.57,0,0,1-.7,1.21,3.78,3.78,0,0,1-.9.39,1.19,1.19,0,0,1-.92-.13l.37,1.17a3.35,3.35,0,0,1,1.47.21.5.5,0,0,1,.27.5.94.94,0,0,1-.5.63,1.29,1.29,0,0,1-.87.2L122.26,81c-.65.34-1.29.66-1.93,1l12.24,2.4C132.45,85,132.26,85.73,132.11,86.43Z"/><path class="cls-2" d="M128.93,91.33a3,3,0,0,0,2.18-.07,2.35,2.35,0,0,0,1.39-1.5,2.58,2.58,0,0,0-.41-2.11,3,3,0,0,0-1.85-1.34,3.15,3.15,0,0,0-2.19.28,2.31,2.31,0,0,0-1.31,1.48,2.12,2.12,0,0,0-.1,1,3.08,3.08,0,0,0,.5.93A3.47,3.47,0,0,0,128.93,91.33Zm-8.28-3.49a4,4,0,0,0,1.85,1.27,3.34,3.34,0,0,0,2.16,0A1.93,1.93,0,0,0,126,87.89a2.17,2.17,0,0,0-.51-1.92,3.29,3.29,0,0,0-1.91-1.25,3.47,3.47,0,0,0-2.17.16,1.93,1.93,0,0,0-1.25,1.26A1.83,1.83,0,0,0,120.65,87.84ZM129.73,90a2,2,0,0,1-.61-.27,1.77,1.77,0,0,1-.45-.8,1.52,1.52,0,0,1-.14-.89c.06-.23.29-.3.69-.19a1.66,1.66,0,0,1,1.11.77,1.49,1.49,0,0,1,.26,1.1C130.49,90,130.2,90.09,129.73,90ZM123,87.8a1.54,1.54,0,0,1-.94-.69,1.4,1.4,0,0,1-.27-.89c.07-.26.43-.31,1.06-.14a2,2,0,0,1,1.15.62,1.12,1.12,0,0,1,.25.82C124.11,87.92,123.7,88,123,87.8Z"/><rect class="cls-1" x="28.59" y="99.53" width="88.23" height="21.18"/><path class="cls-2" d="M43,105.08A5.51,5.51,0,0,0,39.59,104a3.47,3.47,0,0,0-1.86.47l-.47.32a8.07,8.07,0,0,0-.66.75c-.31.4-.45.65-.42.76l.3.67h1L39,108.49H36.91v10.38l-1.56-1.45v-8.93H34L32.5,107h2.65c-.16-.16-.32-.33-.47-.51a.94.94,0,0,1-.22-.62,1.89,1.89,0,0,1,.23-1,6.82,6.82,0,0,1,1-1.29,5.28,5.28,0,0,1,1.47-.89,3.17,3.17,0,0,1,1.43-.3A8.42,8.42,0,0,1,43,103.76a11.8,11.8,0,0,1,1.9,1.62l.51,1.47Z"/><path class="cls-2" d="M38,108.49,36.47,107H48.88l1.62,1.53Zm9.16,7.77a4.38,4.38,0,0,1-4,.33,5.18,5.18,0,0,1-2-1.76,9.69,9.69,0,0,1-1.22-2,45.1,45.1,0,0,1-1.62-4.5l1.19.46c.43,1,.75,1.73.94,2.1a13.16,13.16,0,0,0,1.14,2,4.05,4.05,0,0,0,3.39,1.84,3,3,0,0,0,1.9-.81,1.77,1.77,0,0,0,.74-1.41,2.13,2.13,0,0,0-.41-1.22,1.35,1.35,0,0,0-1.09-.68l-.26,0a1.82,1.82,0,0,1,.26,1c0,1.1-.63,1.65-1.87,1.65a1.81,1.81,0,0,1-1.45-.61,2.25,2.25,0,0,1-.54-1.53,2,2,0,0,1,.81-1.66,2.79,2.79,0,0,1,1.85-.67,4.42,4.42,0,0,1,1,.14,3.93,3.93,0,0,1,2.87,3,4.23,4.23,0,0,1,.23,1.33A3.26,3.26,0,0,1,47.16,116.26Z"/><path class="cls-2" d="M49.64,108.49,48.11,107H60.52l1.62,1.53Zm9.16,7.77a4.38,4.38,0,0,1-4,.33,5.18,5.18,0,0,1-2-1.76,9.25,9.25,0,0,1-1.22-2,45.1,45.1,0,0,1-1.62-4.5l1.19.46c.43,1,.75,1.73.94,2.1a13.16,13.16,0,0,0,1.14,2,4.05,4.05,0,0,0,3.39,1.84,3,3,0,0,0,1.9-.81,1.77,1.77,0,0,0,.74-1.41,2.13,2.13,0,0,0-.41-1.22,1.35,1.35,0,0,0-1.09-.68l-.26,0a1.82,1.82,0,0,1,.26,1c0,1.1-.63,1.65-1.87,1.65a1.85,1.85,0,0,1-1.46-.61,2.3,2.3,0,0,1-.53-1.53,2,2,0,0,1,.81-1.66,2.79,2.79,0,0,1,1.85-.67,4.34,4.34,0,0,1,1,.14,3.93,3.93,0,0,1,2.88,3,4.23,4.23,0,0,1,.23,1.33A3.26,3.26,0,0,1,58.8,116.26Z"/><path class="cls-2" d="M62.87,107.9l0-.33q-.09-1-.09-2.64l.89.69a4.07,4.07,0,0,0,.26,1.08,1.6,1.6,0,0,0,.22.26h.69l1.51,1.53H64.25v10.79l-1.5-1.56v-7.49a2.53,2.53,0,0,0-.09-.54,1.47,1.47,0,0,0-.58-.86,1.62,1.62,0,0,0-1-.34h-.34l-1.51-1.41a14.29,14.29,0,0,1,1.47-.12A2.45,2.45,0,0,1,62.87,107.9Z"/><path class="cls-2" d="M74.69,108.49v10.59l-1.53-1.71v-4.61a1.33,1.33,0,0,0-.48-.63,1.13,1.13,0,0,0-.7-.32,1.07,1.07,0,0,0-.86.57c-1.13,1.68-1.89,2.54-2.27,2.59a2.31,2.31,0,0,1-.41,0,1.85,1.85,0,0,1-.94-.17c-.41-.12-1-.88-1.72-2.27L67,111.42a2.66,2.66,0,0,0,.27,1c.22.37.39.56.51.56s.41-.24.77-.72l.82-1.09a2.28,2.28,0,0,0-.71-1.62,2.78,2.78,0,0,0-1.47-.29,1.7,1.7,0,0,1-1.39-.58l-.21-.3-.24-.14L63.9,107H75.38l1.53,1.53Zm-4.34,1.84.23-.18a1.54,1.54,0,0,1,.85-.4c.46,0,1,.42,1.73,1.25v-2.51H69.52A2.25,2.25,0,0,1,70.35,110.33Z"/><path class="cls-2" d="M88.64,109.23l-.09-1.11c0-.71-.08-1.83-.08-3.37l1.17,1.1a1,1,0,0,0-.12.49c0,.39.15.61.45.68a1.23,1.23,0,0,0,.56-.09l1.58,1.53H89.93v10.73l-1.7-1.7.12-5.46a3.29,3.29,0,0,0-.51-1.54,4.15,4.15,0,0,0-1-1.3,1.88,1.88,0,0,0-1.39-.41,2.25,2.25,0,0,0-1.6.8h.59A2.49,2.49,0,0,1,86,110a1.86,1.86,0,0,1,.73,1.34,2.75,2.75,0,0,1-.45,1.53,8,8,0,0,1-1,1.39l-.7.77L83,113.36a11.16,11.16,0,0,0,1.35-1.27c.61-.59.91-1,.91-1.11s-.11-.2-.31-.2a3.12,3.12,0,0,0-.9.42,2.58,2.58,0,0,1-1.11.42,1,1,0,0,1-.49-.12,1.75,1.75,0,0,1-.9-1.52,2.76,2.76,0,0,1,.45-1.4,3,3,0,0,1,1-1.09,3.5,3.5,0,0,1,1.72-.41A4,4,0,0,1,88.64,109.23Z"/><path class="cls-2" d="M96,108.37a1.79,1.79,0,0,0-1,.32,1.26,1.26,0,0,0-.57.83,3.09,3.09,0,0,0,0,.58,13.74,13.74,0,0,0,.24,2.36,26.91,26.91,0,0,1,.45,2.88,3.36,3.36,0,0,1-1.86,2.93,3,3,0,0,1-1.41.51.71.71,0,0,1-.71-.51.45.45,0,0,1,0-.18c0-.2.15-.34.47-.44l.63-.19a5.37,5.37,0,0,0,.76-.64,3,3,0,0,0,.32-1.21,8.51,8.51,0,0,0-.37-1.82,11.21,11.21,0,0,1-.38-2.21A4.49,4.49,0,0,1,93,109.4c.24-.3.48-.61.69-.91H91.23L89.66,107h5.8l1.63,1.53C96.45,108.41,96.08,108.37,96,108.37Z"/><path class="cls-2" d="M97.71,107.9l0-.33a26.2,26.2,0,0,1-.1-2.64l.89.69a4.07,4.07,0,0,0,.26,1.08A1.72,1.72,0,0,0,99,107h.68l1.52,1.53H99.08v10.79l-1.5-1.56v-7.49a2.81,2.81,0,0,0-.08-.54,1.52,1.52,0,0,0-.58-.86,1.66,1.66,0,0,0-1-.34h-.35l-1.51-1.41a14.29,14.29,0,0,1,1.47-.12A2.48,2.48,0,0,1,97.71,107.9Z"/><path class="cls-2" d="M109.53,108.49v10.59L108,117.37v-4.61a1.47,1.47,0,0,0-.48-.63,1.15,1.15,0,0,0-.71-.32,1.08,1.08,0,0,0-.86.57c-1.13,1.68-1.89,2.54-2.27,2.59a2.25,2.25,0,0,1-.41,0,1.87,1.87,0,0,1-.94-.17c-.41-.12-1-.88-1.72-2.27l1.19-1.13a2.86,2.86,0,0,0,.26,1c.22.37.39.56.51.56s.41-.24.78-.72l.82-1.09a2.28,2.28,0,0,0-.72-1.62,2.73,2.73,0,0,0-1.47-.29,1.72,1.72,0,0,1-1.39-.58l-.2-.3-.25-.14L98.74,107h11.47l1.53,1.53Zm-4.34,1.84.22-.18a1.56,1.56,0,0,1,.86-.4c.46,0,1,.42,1.73,1.25v-2.51h-3.65A2.29,2.29,0,0,1,105.19,110.33Z"/><path class="cls-2" d="M58.78,135.14a3.68,3.68,0,0,1-1.75.55,2.66,2.66,0,0,1-1.06-.32,1.31,1.31,0,0,1-.85-1.23,1.65,1.65,0,0,1,.45-1.11,2.47,2.47,0,0,1,1.08-.7,1.91,1.91,0,0,1,.63-.09,2.72,2.72,0,0,1,1.83.56,1.52,1.52,0,0,0,.36-.94,1.71,1.71,0,0,0-.55-1,33.05,33.05,0,0,0-2.78-2.78,2.31,2.31,0,0,1-1-1.61,1.31,1.31,0,0,1,.73-1.22,1.21,1.21,0,0,1,.6-.18,1.06,1.06,0,0,1,.87.39,1.35,1.35,0,0,1,.33.9,2.39,2.39,0,0,1-.11.52,19.44,19.44,0,0,1,2.24,2.42A4.51,4.51,0,0,1,60.91,132,3.57,3.57,0,0,1,58.78,135.14Z"/><path class="cls-2" d="M64.2,126.78a7.39,7.39,0,0,0,1.49.54l1.68.49a4.66,4.66,0,0,1,2.11,1.46,4,4,0,0,1,.89,2.33,3.06,3.06,0,0,1-1.47,2.53,4,4,0,0,1-2.75,1l.36-2a1.18,1.18,0,0,0,0-.3,1.65,1.65,0,0,0-.57-1.25,2.63,2.63,0,0,0-.42-.4,4,4,0,0,0-.58-.14c-.14,0-.31.12-.51.41a1.92,1.92,0,0,0-.33,1,.56.56,0,0,0,.13.41c.81-.07,1.22.27,1.22,1a1.3,1.3,0,0,1-.26.82,1,1,0,0,1-.78.37,1.63,1.63,0,0,1-1.36-.69,2.43,2.43,0,0,1-.45-1.46,3.33,3.33,0,0,1,.76-2.13,2.38,2.38,0,0,1,3.84-.15,2.87,2.87,0,0,1,.81,2v.18l.38-.27a1.16,1.16,0,0,0,.44-.87,1.62,1.62,0,0,0-1-1.5l-2.6-1a7.37,7.37,0,0,1-1.91-1.06,2.38,2.38,0,0,1-1.11-1.81,1.33,1.33,0,0,1,0-.28c.2-.75.58-1.12,1.15-1.12a1,1,0,0,1,.79.33,1.06,1.06,0,0,1,.32.79A.84.84,0,0,1,64.2,126.78Z"/><path class="cls-2" d="M76,135.37a3.68,3.68,0,0,1-2.28-.89,6.6,6.6,0,0,1-1.88-2.41,15.7,15.7,0,0,1-1-2.9,11.45,11.45,0,0,1-.27-1.88l1,.42a10.3,10.3,0,0,0,.68,2.37,13.19,13.19,0,0,0,1.35,2.16,2.89,2.89,0,0,0,2.42,1.1,2.4,2.4,0,0,0,1.68-.6,2,2,0,0,0,.67-1.58,1.92,1.92,0,0,0-.2-.84,2.8,2.8,0,0,1-2.37,1.2,2.11,2.11,0,0,1-1.41-.53,2,2,0,0,1-.74-1.27l-.33-2.21a1.07,1.07,0,0,1-.62-.38,1.11,1.11,0,0,1-.24-.69.94.94,0,0,1,.38-.79,1.25,1.25,0,0,1,.89-.25c.89.06,1.34.59,1.34,1.6v2.8a.27.27,0,0,0,.33.3,1.22,1.22,0,0,0,.71-.35s.17-.22.52-.61a4,4,0,0,0,.81-1.52,4.36,4.36,0,0,1,2.11,3.67,4.45,4.45,0,0,1-.9,2.8A3.1,3.1,0,0,1,76,135.37Z"/><path class="cls-2" d="M83.71,135a3.4,3.4,0,0,1-2.65-.8,2.47,2.47,0,0,1-1-1.88,1.51,1.51,0,0,1,.08-.48,2.74,2.74,0,0,1,1.55-1.7A2.23,2.23,0,0,1,80.39,128a2.64,2.64,0,0,1,.93-2A3.85,3.85,0,0,1,84,125a3,3,0,0,1,2,.71,2.07,2.07,0,0,1,.51,2.92,3.2,3.2,0,0,1-.91.95,2.73,2.73,0,0,1,1.61,2.61,2.31,2.31,0,0,1-1.13,2.06A4.88,4.88,0,0,1,83.71,135Zm.94-3.69a2.36,2.36,0,0,0-1.2-.56q-.69.48-.93.69a1.34,1.34,0,0,0-.51,1,.88.88,0,0,0,.16.53,1.59,1.59,0,0,0,1.48.69,1.72,1.72,0,0,0,1.83-1.15A1.75,1.75,0,0,0,84.65,131.32Zm-1-5.16a1.84,1.84,0,0,0-1,.3,1,1,0,0,0-.55.84,1.42,1.42,0,0,0,.59,1.09,2.51,2.51,0,0,0,1.16.56,8.63,8.63,0,0,0,.93-.57,1.24,1.24,0,0,0,.56-.88,1.16,1.16,0,0,0-.53-1A1.92,1.92,0,0,0,83.69,126.16Z"/><path class="cls-3" d="M68.37,28.64s5,10.67-4.08,25.26-9.41,30,8.94,45.8c.32-7.06,3.3-18.19,9.1-28.7S83.43,41.19,68.37,28.64Z"/><path class="cls-4" d="M69.32,58.5h0c-2.67,4.55-4,8.75-4,12.76a17.24,17.24,0,0,0,.16,2.39,22.55,22.55,0,0,0,4.74,10.63,70.08,70.08,0,0,1,6-16.26,13.65,13.65,0,0,0,1.34-6.29,28.9,28.9,0,0,0-4.13-14A33.7,33.7,0,0,1,69.32,58.5Z"/></g></g></svg>