<svg xmlns="http://www.w3.org/2000/svg" viewBox="0 0 131.82 103.55"><defs><style>.cls-1{font-size:17.33px;font-family:BaiJamjuree-Medium, Bai Jamjuree;font-weight:500;letter-spacing:0em;}.cls-2{fill:#ea2127;}.cls-3{fill:#00a44f;}.cls-4{fill:#ffca05;}</style></defs><title>Asset 20</title><g id="Layer_2" data-name="Layer 2"><g id="Layer_1-2" data-name="Layer 1"><text class="cls-1" transform="translate(0 94.67)">Ministry of Land</text><circle class="cls-2" cx="65.91" cy="37.24" r="24.19"/><polygon class="cls-2" points="40.74 46.47 38.67 46.17 37.74 44.3 36.82 46.17 34.75 46.47 36.25 47.94 35.89 50 37.74 49.02 39.6 50 39.24 47.94 40.74 46.47"/><polygon class="cls-2" points="43.62 55.22 42.69 53.34 41.77 55.22 39.69 55.52 41.19 56.98 40.84 59.05 42.69 58.07 44.55 59.05 44.19 56.98 45.69 55.52 43.62 55.22"/><polygon class="cls-2" points="97.08 46.47 95.01 46.17 94.08 44.3 93.15 46.17 91.08 46.47 92.58 47.94 92.23 50 94.08 49.02 95.93 50 95.58 47.94 97.08 46.47"/><polygon class="cls-2" points="90.06 55.22 89.13 53.34 88.21 55.22 86.14 55.52 87.63 56.98 87.28 59.05 89.13 58.07 90.99 59.05 90.63 56.98 92.13 55.52 90.06 55.22"/><path class="cls-3" d="M100.23,22.75a37.44,37.44,0,1,0,2.92,14.49A37.14,37.14,0,0,0,100.23,22.75ZM98.78,51.12a35.8,35.8,0,1,1,2.8-13.88A35.47,35.47,0,0,1,98.78,51.12Z"/><path class="cls-3" d="M58.43,68.56l-.16-.1a.65.65,0,0,0-.16-.09,1.63,1.63,0,0,0-.37-.13,1.58,1.58,0,0,0-.81,0,.58.58,0,0,0-.44.36.58.58,0,0,0,.22.57,1.69,1.69,0,0,0,.82.42,1.84,1.84,0,0,0,.51,0,1.19,1.19,0,0,0,.42-.11c.25-.13.36-.3.32-.51A.77.77,0,0,0,58.43,68.56Z"/><path class="cls-3" d="M81.33,65.62a.81.81,0,0,0-.57-.13,1.78,1.78,0,0,0-.74.2l-.19.11-.16.12a1.14,1.14,0,0,0-.26.28.53.53,0,0,0-.1.55q.1.25.54.3a1.63,1.63,0,0,0,.9-.2,1.39,1.39,0,0,0,.67-.64l.06-.18a.43.43,0,0,0,0-.16A.37.37,0,0,0,81.33,65.62Z"/><path class="cls-3" d="M82.19,60l.88-.65-1.41.08a28.08,28.08,0,0,1-6.34,3.35l-.3.11-.18.07-.4.14-.22-.1a2.31,2.31,0,0,1-.4-.5l-.69-.15a13.65,13.65,0,0,0,.6,1.59,2.8,2.8,0,0,0-.3-.15,1.68,1.68,0,0,0-.32-.09,2,2,0,0,0-.72,0,7,7,0,0,0-.69.14l-.43.11-.17,0a28.34,28.34,0,0,1-8.51.45,27.89,27.89,0,0,1-3.53-.56l-.5-.12-.25-.06-.24-.06-1-.28-.78-.25h0l-1.07-.39-.06,0A28.59,28.59,0,0,1,48,58.6c.14.38.28.78.43,1.17a1.27,1.27,0,0,0,.13.19,1.49,1.49,0,0,0,.37.79,2.27,2.27,0,0,0,.28.23c.14.1.32.23.54.37l.23.18.19.18A1.15,1.15,0,0,1,50.34,63c-.52.09-.94.15-1.24.17a1.21,1.21,0,0,1-.54,0,.75.75,0,0,1-.25-.56,1.18,1.18,0,0,1,.12-.56L47.31,62a6.94,6.94,0,0,0,.22,1.22,1.5,1.5,0,0,0,.35.64,1.34,1.34,0,0,0,.24.24,1.57,1.57,0,0,0,.19.15l.11.07.12.08.34.18a2.07,2.07,0,0,0,.85,0,11.57,11.57,0,0,0,1.62-.34,1.2,1.2,0,0,1,.86,0,1.06,1.06,0,0,1,.27.18,2.09,2.09,0,0,1,.25.26.93.93,0,0,1,.25.49l-1,2.36c.15.23.31.45.46.67s.16.23.24.33l.24.33L55,63.45l.53.2.14.05.13,0,.27.09c.37.12.72.24,1.09.34h0a29.12,29.12,0,0,0,3.68.81l0,.18c-1.66.08-3.46.25-5.48.43l.45.74.24.37.25.36a5.71,5.71,0,0,1,.58.21l.28.12.28.11.53.26.25.15a2.07,2.07,0,0,1,.25.15,4.73,4.73,0,0,1,.75.52l.32.29c.09.1.19.19.27.29s.33.47.88,1.22l.35.24.34.23L62,65.14c.29,0,.59.07.89.09l.79,0,.23,0h.23a29.35,29.35,0,0,0,3.75-.09l0,.24A52.05,52.05,0,0,0,63,67.21l.67.57.17.14.17.14.35.27c.2,0,.4,0,.6.08l.29,0,.28.05a8.77,8.77,0,0,1,1.12.29,5.53,5.53,0,0,1,1.13.53,4.19,4.19,0,0,1,.75.52,7.06,7.06,0,0,1,.5.61l.39.16a3.2,3.2,0,0,0,.39.16l-.59-4.53a3.29,3.29,0,0,1,1.72.17,1.3,1.3,0,0,1,.76.59l-.24,0A1.8,1.8,0,0,0,71,67a3.48,3.48,0,0,0-.6.17c-.36.25-.53.5-.49.74s.19.37.5.48a1.66,1.66,0,0,0,.49.11,3.12,3.12,0,0,0,.52,0,2.59,2.59,0,0,0,.68-.23,1.68,1.68,0,0,0,.48-.39,1,1,0,0,0,.25-.89,1.79,1.79,0,0,0-.21-.45A1.92,1.92,0,0,0,72,66a3.61,3.61,0,0,0-.39-.22l-.45-.21c-.18-.06-.35-.12-.52-.16l-.26,0-.26,0a3.62,3.62,0,0,0-1,0l0-.17a30.74,30.74,0,0,0,3.29-.62,2.27,2.27,0,0,1,.63,0,1.9,1.9,0,0,1,.63.19.7.7,0,0,1,.34.44l1.23,4,1.55.36-2-5.65,1.1-.4.27-.11,0,0,.75-.31h0a26.27,26.27,0,0,0,3.34-1.71l.09.15a2.29,2.29,0,0,1-.23.21l-.23.22-.46.44c-.32.3-.63.6-1,.93-.17.15-.33.31-.49.47l-.25.25-.25.26c-.17.16-.35.33-.52.51s-.35.36-.53.53l.83.27.85.25.15,0,.14-.06.29-.1.58-.18.29-.07.29-.07.57-.1.48,0,.44,0a4.43,4.43,0,0,1,.83.07l.43.11c.24.07.59.15,1,.26l.42,0h.21l.21,0-3.23-4.79ZM53.33,64.41c-.1-.17-.19-.33-.29-.47l-.13-.2a2,2,0,0,0-.65-.63.28.28,0,0,0-.12,0l-.21,0L51.26,63h0a1.07,1.07,0,0,0,.12-.63A2.46,2.46,0,0,0,51.3,62a2.53,2.53,0,0,0-.19-.36l.7.37.34.18c.12.06.24.13.36.18.47.22.94.46,1.43.65Zm6.94,4.23a3.6,3.6,0,0,0-.5-.54,5.34,5.34,0,0,0-.61-.54l-.34-.25-.37-.26c-.26-.17-.53-.34-.82-.5l.75-.11.37,0,.38,0,.76-.08h.19l.19,0,.39,0Zm5.16-1.16c.46-.2.74-.34.87-.4l.17-.06.18-.08.4-.15.47-.16.52-.18.2,2.32A8.62,8.62,0,0,0,65.43,67.48Zm16.8-3.09-.18,0-.19,0-.38,0a5.44,5.44,0,0,0-.81,0h-.43l-.45,0-.47.06-.24,0-.25,0,.25-.28.25-.29c.17-.18.34-.37.52-.55l.26-.27.26-.28a3.45,3.45,0,0,1,.28-.26l.27-.27Z"/><path class="cls-3" d="M36.32,26.36l.2-.53.21-.52.22-.52-.57.35-.56.37-.33.88a2.53,2.53,0,0,1-.32.29.6.6,0,0,1-.37.07,1.15,1.15,0,0,0-.49.23l-.39.31a12,12,0,0,0,1.67.53l.74.13a2.93,2.93,0,0,0-.72.29,2,2,0,0,0-.53.42l-.14.17-.22.29a1.88,1.88,0,0,0-.22.57,3.79,3.79,0,0,0-.1.62,2.71,2.71,0,0,0,0,.57,2,2,0,0,0,.27.84l-.23.21c-.16.16-.31.32-.46.49a10.75,10.75,0,0,0-.15,1.08.52.52,0,0,1-.11.23c-.24.12-.43.12-.56,0l-.32.39-.32.39a15.53,15.53,0,0,0,1.79.1h.74a1.76,1.76,0,0,0-.59.38,2,2,0,0,0-.44.61,3.22,3.22,0,0,0-.28.86c0,.16-.05.33-.07.51a5.35,5.35,0,0,0,0,.58,3.21,3.21,0,0,0,.25,1.3,1.94,1.94,0,0,0,.61.76,1.19,1.19,0,0,0,.78.27c.34,0,.59-.26.77-.7a.88.88,0,0,0,.06-.33,3.18,3.18,0,0,0-.25-.77,3,3,0,0,1-.24-.67c0-.17.05-.25.14-.25s.29.24.66.69l.68.86c.28-.35.57-.69.86-1a8.46,8.46,0,0,0-.6-.67,5.46,5.46,0,0,0-.52-.48,1.21,1.21,0,0,0-.83-.34,1,1,0,0,0-.74.46A2.14,2.14,0,0,0,35,37.79a3.8,3.8,0,0,0,0,.52,1.73,1.73,0,0,1-.54-1.44,1.71,1.71,0,0,1,.08-.43,2,2,0,0,1,.18-.43,2.51,2.51,0,0,1,.32-.41,2.91,2.91,0,0,1,.46-.35,1.56,1.56,0,0,1,.89-.28l3,.31.24-.23.24-.23.49-.43-5.82-.72c0-.37.09-.74.15-1.1,0-.19.05-.37.09-.55V32a1.43,1.43,0,0,0,.4.38,1.45,1.45,0,0,0,.64.26,1.61,1.61,0,0,0,.62,0,1.15,1.15,0,0,0,.29-.11,2,2,0,0,0,.28-.16,2.18,2.18,0,0,0,.51-.54,2.85,2.85,0,0,0,.34-.76,1.91,1.91,0,0,0,.1-.52A1.87,1.87,0,0,0,38,30a1.82,1.82,0,0,0-.07-.25,1.18,1.18,0,0,0-.11-.19.6.6,0,0,0-.32-.22.65.65,0,0,0-.31,0,1,1,0,0,0-.72.79c-.13.55,0,.87.33.94l.23.05a.54.54,0,0,1-.28.19,1.07,1.07,0,0,1-.58,0,.87.87,0,0,1-.55-.49,1,1,0,0,1-.14-.45,1.49,1.49,0,0,1,0-.51,1.86,1.86,0,0,1,.73-1.05,1.4,1.4,0,0,1,1.29-.27l2.93.93.54-.34.55-.31-5.39-1.93C36.19,26.71,36.26,26.53,36.32,26.36Z"/><path class="cls-3" d="M46.69,16.24a1.26,1.26,0,0,0-.53-.35,2.28,2.28,0,0,0-.78-.12,1.56,1.56,0,0,0-.56.1h0a.37.37,0,0,0-.2.11,3.1,3.1,0,0,0-.2.39,5.37,5.37,0,0,1-.53,1.08q-.26.3-.45.12a1.31,1.31,0,0,1-.25-.73,1.23,1.23,0,0,1,.06-.8c.33,0,.51,0,.56,0a3,3,0,0,0,1.24-.54,10.48,10.48,0,0,0,1.21-.85A3.42,3.42,0,0,0,47,16a4.12,4.12,0,0,0,.9.72c.32.21.65.43,1,.65.06,0,.17,0,.36-.1a1.52,1.52,0,0,0,.35-.19.31.31,0,0,0,.08-.2,3.87,3.87,0,0,1-1.4-.91,3.75,3.75,0,0,1-.36-.55,2,2,0,0,1-.32-1,3,3,0,0,1,.11-1.17h-.87l-.73,0c-.12.14-.21.28-.31.4L45.5,14c-.15.19-.26.33-.34.41a.93.93,0,0,1-.15.13l-.18.15-.46.3c-.37.23-.6.31-.69.23a.22.22,0,0,1,0-.1c.07-.18.13-.31.18-.41.61-.6,1.24-1.17,1.9-1.73l.92-.74a1.49,1.49,0,0,1,.55-.27,1.21,1.21,0,0,1,.6,0,.66.66,0,0,1,.44.31l2.39,3.42.59.08.58.1-3.26-5,.87-.56.11-.06c.31.24.65.48,1,.74l1.2.8A6.94,6.94,0,0,0,53,12.4a5.15,5.15,0,0,0,.85.26,3.14,3.14,0,0,0,.45,0,2.74,2.74,0,0,0,.48,0,3.39,3.39,0,0,0,.48-.1,2.59,2.59,0,0,0,.42-.14,3.93,3.93,0,0,0,1.25-.88,3.66,3.66,0,0,0,.37-.45,2.62,2.62,0,0,0,.23-.48,1.7,1.7,0,0,0,0-1A2,2,0,0,0,57.17,9a2.72,2.72,0,0,0-.52-.5,2.13,2.13,0,0,0-.58-.3A2.09,2.09,0,0,0,55.41,8h-.36l-.36.06-.39.09L54,8.3a2.3,2.3,0,0,0-1.08.86,1.06,1.06,0,0,0-.15,1.09,1.59,1.59,0,0,0,.17.25,1.13,1.13,0,0,0,.68.39,1.9,1.9,0,0,0,.41,0,2.37,2.37,0,0,0,.45-.15,1.67,1.67,0,0,0,.77-.56.8.8,0,0,0,.07-.74A1,1,0,0,0,55,9a1,1,0,0,1,.21-.1,1,1,0,0,1,.88.07,1,1,0,0,1,.5.58,1,1,0,0,1-.21.93,4.06,4.06,0,0,1-.51.56,2.16,2.16,0,0,1-.55.34,3.27,3.27,0,0,1-2.55,0,8,8,0,0,1-1.24-.59l-1.15-.7c-.27.06-.54.14-.8.21l.08-.06a2.61,2.61,0,0,0,.28-.17l.15-.08.33-.2h0A31.62,31.62,0,0,1,57.3,6.87h0q1.37-.39,2.76-.66c.93-.17,1.86-.3,2.8-.4a.42.42,0,0,1,.31.06.76.76,0,0,1,.25.4.7.7,0,0,1-.1.44.91.91,0,0,1-.38.3,1.91,1.91,0,0,0-.42-.23c-.19-.08-.43-.17-.71-.26a2.73,2.73,0,0,0-1.33-.09c-.79.14-1.22.52-1.27,1.11a.74.74,0,0,0,.35.7,1.24,1.24,0,0,0,.2.1A.79.79,0,0,0,60,8.4a1.85,1.85,0,0,0,.52,0A1,1,0,0,0,61.11,8a.8.8,0,0,0,.22-.62.47.47,0,0,0-.13-.24,3.19,3.19,0,0,1,.65.19L62,7.4l-.13.08-.28.18a5.08,5.08,0,0,0-.51.65,1.07,1.07,0,0,0-.13.74,1.14,1.14,0,0,0,.15.41.75.75,0,0,0,.45.34,1.36,1.36,0,0,0,1.32-.2.6.6,0,0,0,.27-.55.54.54,0,0,0-.23-.4.71.71,0,0,0-.52-.12l-.14,0a.9.9,0,0,1,.17-.32L62.7,8a1.86,1.86,0,0,1,.2-.14,1.4,1.4,0,0,1,.3-.09h0l.12,0s0,0,0,.14a.74.74,0,0,1,.12.3l.16,2-.09-.07a1.77,1.77,0,0,0-1.11-.15l-.4,0-.58.13-.46.08-.35,0a.78.78,0,0,1-.24,0,.73.73,0,0,1-.35-.25,1,1,0,0,1-.19-.43,1.73,1.73,0,0,1,0-.71l-.47-.14c-.11,0-.18,0-.22.15A2,2,0,0,0,59.16,10a1.77,1.77,0,0,0,.67,1,1.48,1.48,0,0,0,.85.31,2.83,2.83,0,0,0,1,0c.13,0,.35-.09.66-.19a3.86,3.86,0,0,1,.67-.16,1.3,1.3,0,0,1,.49,0l.2.07.17.12a3.86,3.86,0,0,1,.33.43l.24.17.24.17L64.5,8.72a4.83,4.83,0,0,0-.11-1.08,1.24,1.24,0,0,0-.2-.29l.08-.09a1,1,0,0,0,.33-.65A1.91,1.91,0,0,0,64.34,6a2.62,2.62,0,0,0-.17-.27c.76,0,1.51-.06,2.27,0l-.09,5,.44.4.21.2.21.21.29-5.82.59,0,.59,0,.58.06.59.07-.48-.45L68.87,5,68.2,5l-.66,0-.16-.45a2.51,2.51,0,0,0-.55-.86A3.2,3.2,0,0,0,66,2.92a2.89,2.89,0,0,0-.39-.2l-.38-.16a3.27,3.27,0,0,0-.67-.19l-.65-.09-.58,0a6.16,6.16,0,0,0-1,0c-.2,0-.39,0-.59.09s-.38.08-.57.14-.37.12-.55.19l-.28.11-.26.14c-.62.31-.88.64-.82,1a.77.77,0,0,0,.25.41,1.3,1.3,0,0,0,.53.23,5.67,5.67,0,0,0,.66.11,4.58,4.58,0,0,0,.64,0l.37,0,1-.08a4.37,4.37,0,0,1,.5,0l.36,0q.3,0,.3.18s-.06.12-.19.22A32.15,32.15,0,0,0,57,6.15l-.16,0-.5.15-.3.09,0,0h0l-.57.19c-.2.06-.4.14-.6.21-.8.3-1.59.62-2.37,1a31.65,31.65,0,0,0-3.39,1.83h0l-.44.27-.14.09-.17.11-.24.16-.23,0a2.29,2.29,0,0,1-.52-.37l-.71.07a16.29,16.29,0,0,0,1.05,1.33,1.34,1.34,0,0,0-.63,0,1.89,1.89,0,0,0-.56.2h0l-.06,0h0a5.63,5.63,0,0,0-.55.4c-.11.08-.21.18-.33.28a1.14,1.14,0,0,1-.11.11,32.41,32.41,0,0,0-5.84,6.31l-.13.19-.11.16-.21.12a.5.5,0,0,1-.4-.08l-.12,0c-.24.13-.47.28-.71.42l1.71,1,.53.24a2.86,2.86,0,0,0-.77.1,2.74,2.74,0,0,0-.75.32,3.11,3.11,0,0,0-.72.58,3.47,3.47,0,0,0-.3.37l-.13.2-.12.22a3.43,3.43,0,0,0-.05,3.26.53.53,0,0,0,.26.27.49.49,0,0,0,.47-.08.75.75,0,0,0,.35-.46q0-.2.06-.36l0-.27a2.25,2.25,0,0,1,.06-.25c.09-.21.27-.25.53-.12a.31.31,0,0,1,.18.18l0,.25.06.24.13.48c.15-.17.29-.35.45-.52l.45-.5a29,29,0,0,1-.46-3,1.84,1.84,0,0,1,1.14-.09l1.63,1.14-.1,0a4.15,4.15,0,0,0-.54.31l-.15.14-.15.15a4.12,4.12,0,0,0-.28.31c-.09.11-.17.22-.25.34a2.56,2.56,0,0,0-.22.35l-.21.36-.17.31-.28.5a3.12,3.12,0,0,1-.31.5c-.41.41-.79.55-1.15.41a.48.48,0,0,1-.2-.2,2.48,2.48,0,0,0-.6.42.15.15,0,0,0,0,.13.63.63,0,0,0,.21.13,5.05,5.05,0,0,0,.53.25,1.75,1.75,0,0,0,1.13.06,1.71,1.71,0,0,0,.48-.22,2.54,2.54,0,0,0,.44-.38,3.82,3.82,0,0,0,.36-.46,3.29,3.29,0,0,0,.29-.52l.11-.25.1-.22.19-.4.28-.54a4.2,4.2,0,0,1,.24-.38c.09-.11.17-.21.25-.29a1.38,1.38,0,0,1,.51-.34H44a2.41,2.41,0,0,0,.95-.14l-.48-.3-4.54-3.17.15-.23.16-.22.27-.37.32-.44c0-.05.09-.11.14-.17q.59-.76,1.23-1.5c0,.09,0,.16,0,.21a2.89,2.89,0,0,0,.12.81,1.06,1.06,0,0,0,.29.48,2.2,2.2,0,0,0,.3.19,1.4,1.4,0,0,0,.65.12,2.5,2.5,0,0,0,.75-.17l.34-.22.29-.26a4.37,4.37,0,0,0,.32-.43l.16-.27c0-.1.11-.2.16-.32a.35.35,0,0,1,.07-.09.16.16,0,0,1,.2,0,.34.34,0,0,1,.2.12c.14.14.13.39-.05.74a1.62,1.62,0,0,1-.1.18,2,2,0,0,1-.12.19,3,3,0,0,1-.28.37,1.45,1.45,0,0,1-.44.37,2.17,2.17,0,0,1-.62.25,4.55,4.55,0,0,1-.59.1,2.51,2.51,0,0,1-.55,0,4.81,4.81,0,0,1-.82-.26,2.44,2.44,0,0,1-.88-.56,3.46,3.46,0,0,0-.69.39,6.29,6.29,0,0,0,2,1.19,3.88,3.88,0,0,0,1.39.17,3.12,3.12,0,0,0,2.12-1,2.8,2.8,0,0,0,.37-.5,2,2,0,0,0,.21-.56,1.81,1.81,0,0,0-.07-1.13A1.11,1.11,0,0,0,46.69,16.24ZM63.52,3.75a2.65,2.65,0,0,0-.42-.06l-.47,0h-.2l-.4,0-.6,0-.8.1c-.4.06-.61,0-.62-.06s.05-.15.18-.23l.27-.12.38-.12a6.53,6.53,0,0,1,1.21-.25c.22,0,.43,0,.64-.05h.59l.54,0,.49.08.45.11a3.52,3.52,0,0,1,.39.16,2.85,2.85,0,0,1,.63.41,2.25,2.25,0,0,1,.65.79l.09.29H64.7a.92.92,0,0,0,0-.16,1,1,0,0,0-.55-.8A1.85,1.85,0,0,0,63.52,3.75ZM38.46,23.64a1.13,1.13,0,0,0-.49.46,1.35,1.35,0,0,1-.07-.7,2.48,2.48,0,0,1,.29-.84,1.35,1.35,0,0,1,.28-.36,2,2,0,0,1,.42-.32c0,.29.06.58.1.87s.08.57.12.85A1,1,0,0,0,38.46,23.64Z"/><path class="cls-3" d="M75.07,7c.78.24,1.55.51,2.3.8L77.3,8a13.51,13.51,0,0,0-2.68-.08,7.62,7.62,0,0,0-.93.13l-.56.12-.61.16c.13.23.25.46.38.68s.24.45.35.68l.29.11.27.12a2.6,2.6,0,0,1,.49.28,3.5,3.5,0,0,1,.43.33c.12.12.24.24.35.37a3.32,3.32,0,0,1,.69,1.92c0,.15.09.29.13.44l.12.44,2.33-5.47.68.31a1.41,1.41,0,0,1,.78.89.66.66,0,0,1-.07.54l-1.88,3.73c.14.38.27.75.39,1.13L81.1,9.61c.32.17.62.36.93.54l.45.28.23.14h0a1.13,1.13,0,0,0-.9.5,1.27,1.27,0,0,0-.06,1.13,2.39,2.39,0,0,0,.32.59,2.57,2.57,0,0,0,.51.47,1.84,1.84,0,0,0,.66.33,1.89,1.89,0,0,0,.85,0,1.14,1.14,0,0,0,.65-.39,1.08,1.08,0,0,0,.21-.49,1.49,1.49,0,0,0,0-.62,1.87,1.87,0,0,0-.3-.62,1.49,1.49,0,0,0-.23-.27.86.86,0,0,0-.14-.13l-.15-.11a2.08,2.08,0,0,0-.62-.3,2.48,2.48,0,0,0-.61-.07,1.11,1.11,0,0,0-.07-.16l-.12-.31-.27-.61-.5-.3-.51-.29a1.83,1.83,0,0,1-.07-.23A2.09,2.09,0,0,1,81.42,8L81,7.44A14.25,14.25,0,0,0,80.35,9a1.12,1.12,0,0,0-.1-.31.92.92,0,0,0-.16-.27,1.34,1.34,0,0,0-.23-.25A1.28,1.28,0,0,0,79.64,8V8l-.06,0h0A4.86,4.86,0,0,0,79,7.65l-.4-.16-.18-.06c-.84-.36-1.7-.69-2.57-1l-.49-.15-.5-.15c-.32-.1-.66-.18-1-.27-.16,0-.33-.08-.5-.12s-.33-.09-.5-.12l-1-.2c.31.31.61.64.9,1C73.51,6.6,74.3,6.8,75.07,7Zm1,4.24a4.79,4.79,0,0,0-1.66-2.12,9.9,9.9,0,0,1,2.52-.1Zm7.11.33a1.53,1.53,0,0,1,.86.2.31.31,0,0,1,.08.49.74.74,0,0,1-.23.24,1.23,1.23,0,0,1-.62,0,1.71,1.71,0,0,1-.63-.2.26.26,0,0,1-.07-.41A.71.71,0,0,1,83.15,11.61Z"/><path class="cls-3" d="M82.57,15.64c0-.26-.08-.48-.12-.67a2.84,2.84,0,0,0-.11-.46c-.06-.21-.13-.42-.19-.61s-.14-.37-.2-.55-.14-.33-.2-.49l-.2-.44-.81,1.3A13.21,13.21,0,0,1,82,16.91q.08.32.12.63c0,.21.07.42.11.63l.5-.6c0-.19,0-.38,0-.55s0-.35,0-.51C82.64,16.19,82.61,15.89,82.57,15.64Z"/><path class="cls-3" d="M98,38.14l-1.25.12.18-.15a6.88,6.88,0,0,0,.54-.51,3.65,3.65,0,0,0,.39-.45,1.27,1.27,0,0,0,.29-.73,1.68,1.68,0,0,0-.07-.39,3.14,3.14,0,0,0-.15-.49,3.73,3.73,0,0,0-.2-.4c-.08-.11-.16-.22-.24-.31a1.49,1.49,0,0,0-.28-.23,1.07,1.07,0,0,0,.28-.36l.24-.45a1.72,1.72,0,0,0,.11-.51,2.21,2.21,0,0,0,0-.57c-.09-.67-.22-1.33-.35-2v0a.85.85,0,0,1,0-.17c-.07-.35-.17-.69-.25-1,0-.17-.09-.34-.14-.51s-.09-.35-.14-.52L96.75,28l-.17-.51-.08-.25L96.41,27l-.17-.5-.19-.5-.1-.25-.1-.25-.2-.49-.21-.49-.11-.24L95.22,24c-.07-.14-.13-.29-.2-.44-.42-.93-.89-1.84-1.39-2.73v0c-.2-.34-.41-.67-.62-1a2.42,2.42,0,0,1,0-.24,2,2,0,0,1,.37-.51l-.06-.72a13.14,13.14,0,0,0-1.33,1,1.57,1.57,0,0,0-.2-1.28v0h0L91.77,18l-.1-.15-.23-.3c-.08-.1-.16-.21-.26-.32a32.38,32.38,0,0,0-5.87-5.77c.08.22.15.43.22.65s.13.43.19.65a31.3,31.3,0,0,1,4.18,4.12l-.7.6V17.3c0-.1,0-.22,0-.35a1.62,1.62,0,0,0-.37-.76,1,1,0,0,0-.49-.3,1.32,1.32,0,0,0-.57-.06v-.14a2.74,2.74,0,0,0-.09-.39,2.83,2.83,0,0,0-.16-.36,3.78,3.78,0,0,0-.22-.33c-.09-.11-.19-.21-.29-.31a3.33,3.33,0,0,0-.32-.24,2.41,2.41,0,0,0-.33-.15,1.65,1.65,0,0,0-.7-.09,1.5,1.5,0,0,0-1,.56,1.56,1.56,0,0,0-.33,1.31,2.31,2.31,0,0,0,.27.7,3.53,3.53,0,0,0,.24.34,3.07,3.07,0,0,0,.31.32,2.21,2.21,0,0,0,.3.25l.15.08.16.07a1.09,1.09,0,0,0,.62,0c.15,0,.27-.21.38-.53a.89.89,0,0,0-.26-1,.93.93,0,0,0-.3-.23,1,1,0,0,0-.33-.1.57.57,0,0,0-.54.18.65.65,0,0,0-.13.23.63.63,0,0,1,0-.79.7.7,0,0,1,.66-.21,1.37,1.37,0,0,1,.78.38,1.43,1.43,0,0,1,.47.86,1.86,1.86,0,0,1,0,.55c0,.14-.11.23-.28.28l.64.38c.21-.29.37-.44.5-.47a.43.43,0,0,1,.36.16.87.87,0,0,1,.21.54.52.52,0,0,1-.14.46l-2.34,2c0,.39,0,.79,0,1.18l4.52-3.62.32.42h0v0c.06.09.12.16.15.2a1.67,1.67,0,0,1,.26.56,1.39,1.39,0,0,1,0,.61A.68.68,0,0,1,91,20l-3.4,2.39-.09.59c0,.2-.06.39-.1.58l5-3.24.21.33v0c.35.59.68,1.2,1,1.81a3.26,3.26,0,0,0-2.93.1,3,3,0,0,0-1.55,2.33,1.52,1.52,0,0,0,0,.52,3.09,3.09,0,0,0,.19.56,2.39,2.39,0,0,0,.26.41,1.48,1.48,0,0,0,.37.29.87.87,0,0,0,.81.08.7.7,0,0,0,.45-.71.72.72,0,0,0-.06-.49l-.11-.19-.16-.18c-.34-.28-.63-.32-.89-.13a1.22,1.22,0,0,0-.21.31l0,.07a.31.31,0,0,1,0-.08,2,2,0,0,1,.26-1,1.62,1.62,0,0,1,.7-.67,5.79,5.79,0,0,1,.76-.31,2.12,2.12,0,0,1,1.49,0,3.09,3.09,0,0,1,.74.42,4.72,4.72,0,0,1,.7.71,5.12,5.12,0,0,1,.62,1l-2.8,1.18-.21.69c-.08.23-.16.46-.23.68a3.15,3.15,0,0,1,.82.17,2.26,2.26,0,0,1,.39.15,2.64,2.64,0,0,1,.37.2,3.33,3.33,0,0,1,.66.54c.1.1.2.22.3.34s.18.25.27.39a4.85,4.85,0,0,0-1.25.19,11.22,11.22,0,0,0-2.14,1c0,.25-.08.51-.13.76.78-.34,1.2-.53,1.28-.54a2.9,2.9,0,0,1,.47-.16,3.41,3.41,0,0,1,1.25-.05,5.86,5.86,0,0,1,1.52.44c.08-.27.15-.54.23-.81l.21-.82a8.42,8.42,0,0,0-.72-1.08,5.2,5.2,0,0,0-.7-.75l-.31-.25L94,27.58l-.42-.3,1.85-.71a31.67,31.67,0,0,1,1.62,6.28,2.08,2.08,0,0,1,0,.35,1.37,1.37,0,0,1-.08.35,2.68,2.68,0,0,1-.28.36,2,2,0,0,0-.61-.76,1,1,0,0,0-.76-.29.9.9,0,0,0-.58.37,1,1,0,0,0-.16.35,1.17,1.17,0,0,0,0,.42,1.77,1.77,0,0,0,.08.31,2.3,2.3,0,0,0,.15.32,1.51,1.51,0,0,0,.42.47,1.44,1.44,0,0,0-.41,1.09,1.67,1.67,0,0,0,0,.34,1.58,1.58,0,0,0,.08.28.75.75,0,0,0,.33.35,1.75,1.75,0,0,0,.42.09.75.75,0,0,0,.52-.28,3.54,3.54,0,0,0,.56-.87.34.34,0,0,1,.19.2.75.75,0,0,1,.07.18,1.5,1.5,0,0,1,0,.24,1.16,1.16,0,0,1-.5.87c-.31.29-.54.43-.68.43l-3.45-.1c-.26.31-.53.61-.8.89l5.73.28q0,1-.15,2c.29-.33.58-.67.86-1,0-.24,0-.49,0-.73a.55.55,0,0,1,.21-.35h.16a.47.47,0,0,0,.26-.11c.14-.19.32-.45.53-.79Zm-8.44-12.7.11.12S89.62,25.53,89.57,25.44Z"/><path class="cls-4" d="M56.86,25.26h0Z"/><path class="cls-4" d="M79.75,52.6c0-.12-.21-.65-.27-.87a7,7,0,0,1-.14-1.08,12,12,0,0,1,0-1.45,5.43,5.43,0,0,0,0-.84c0-.19-.19-.47-.24-.71s.15-.33.27-.58-.1-.63-.2-.85a2.28,2.28,0,0,1-.14-.9,1,1,0,0,0,0-.58,1.31,1.31,0,0,0-.12-.38,3.4,3.4,0,0,1-.07-.6c0-.34-.1-.3-.2-.33s0,0-.06-.32a1.85,1.85,0,0,0-.41-.87c-.2-.22-.14-.22-.11-.6a.64.64,0,0,0-.09-.52A3.63,3.63,0,0,1,78,40a2.64,2.64,0,0,0,0-.62,5.71,5.71,0,0,0-.37-1.24c-.11-.36-.12-.23-.16-.46s.07-.27,0-.48S77.4,37,77.4,37l-.1.12s-.08,0-.32,0,0,0-.11-.11a.34.34,0,0,0-.11-.1.39.39,0,0,0-.15.12,1,1,0,0,1-.24.29c-.12.1-.25,0-.37,0s0,0-.13-.16-.15,0-.22,0-.19.12-.24.22a3,3,0,0,0,0,.84c0,.09,0,.14,0,.25s0,.1,0,.18-.25.18-.53.43a2.34,2.34,0,0,0-.49.6c-.15.21,0,.7,0,1s.1.38,0,.57-.21.22-.36.43a.63.63,0,0,1-.82.2c-.29-.19-.22-.23-.28-.53s-.17-.51-.29-.92-.13-.32-.13-.32c-.61-.28-.47.25-.47.55s0,.52,0,.51-.16-.14-.25-.3,0-.18-.15-.56a5.3,5.3,0,0,1-.13-1.13A5.23,5.23,0,0,0,71,38c-.13-.29-.1-.25,0-.55s.09-.07.1-.16a.71.71,0,0,1-.08-.19c0-.06,0-.08.07-.18a2.94,2.94,0,0,1,.25-.34,1.83,1.83,0,0,0,.2-.81c0-.27.08-.25.14-.37s.19,0,.44-.1.12-.11.16-.24a3,3,0,0,1,.17-.46c.08-.18.16,0,.22,0a2,2,0,0,0,.77.12c.27,0,.29,0,.29,0a1.88,1.88,0,0,1,0-.2l.1-.29c0-.12,0-.1,0-.16a.1.1,0,0,1,.06-.07l.12.08a1,1,0,0,0,.41.21c.27.07.1,0,.15-.17s0,0-.07-.13a.84.84,0,0,1-.08-.2,1.13,1.13,0,0,1,.18-.07l.19,0c.09,0,.11.09.19.27s.14.28.28.29.24-.2.28-.32a.86.86,0,0,0,.06-.25,2.11,2.11,0,0,1,.1-.4c0-.14,0,0,.11-.06s.14,0,.16,0,.09-.06.07-.19-.07-.06-.07-.06l0-.29a2,2,0,0,0,.46,0c.27,0,.26-.08.26-.08s.07-.37.07-.4.08-.24.12-.36.08-.12.08-.12a1.48,1.48,0,0,0,.32,0c.15,0,.15-.05.2-.06a3.81,3.81,0,0,0,0-.89c0-.18,0-.19.11-.32a.77.77,0,0,0,.06-.48c0-.24-.07-.16-.12-.32s0-.22.12-.24.2.07.62.21a.48.48,0,0,0,.66-.32c.1-.19-.49-.72-.64-.91s-.43-.23-.83-.36a4,4,0,0,1-.85-.44,3.34,3.34,0,0,0-1.4-.18,2.35,2.35,0,0,0-1.1.26c-.42.13-.29-.16-.38-.24s-.37,0-.45.16-.35.07-.53-.05a.45.45,0,0,0-.43,0s-.08,0-.45-.21-.43-.11-.52-.05-.16.09-.47,0-.31,0-.77,0-.34.1-.57.23a1.64,1.64,0,0,1-1-.09,2.07,2.07,0,0,0-1.24.09c-.08.09-.32.07-.32.07a3.74,3.74,0,0,1-.89-.17,3.6,3.6,0,0,0-.59-.21c-.22-.08-.51-.1-.78-.17l-.24-.06a2,2,0,0,0-.28-.26.94.94,0,0,0-.56-.09,2.35,2.35,0,0,1-.46-.06c-.17,0-.15-.08-.18-.1s0-.07,0-.16a3.11,3.11,0,0,1,0-.34,3.09,3.09,0,0,0,.11-.59,1.74,1.74,0,0,1,.22-.68.54.54,0,0,0-.17-.68c-.19-.21-.09-.27,0-.5s.37-.4.44-.71-.09-.42-.35-.63a2.09,2.09,0,0,1-.44-.5c-.1-.12-.07-.23-.08-.38a.52.52,0,0,0-.09-.25c0-.06-.16-.1-.22-.19a1.16,1.16,0,0,0-.2-.25c-.09-.09-.11,0-.24.07a.78.78,0,0,0-.34.53c0,.19.09.22.09.29a1.1,1.1,0,0,0-.07.41c0,.24-.74.17-1,.06a5.47,5.47,0,0,0-.6-.21,4.22,4.22,0,0,1-1-.94c-.06-.1-.15-.73-.22-1a1,1,0,0,0-.39-.54.87.87,0,0,0-.7-.07c-.15.06-.09.33-.06.42s.31.22.44.31.27.26.26.32-.17.07-.37.07-.24-.15-.38-.25-.2,0-.27.11-.14.1-.14.1-.56-.66-.85-1a6,6,0,0,0-1.1-.84,2.12,2.12,0,0,1-.46-.29s0-.41,0-.44,0-.06-.14-.06a.27.27,0,0,0-.26.21,1.53,1.53,0,0,1-.23.43.92.92,0,0,0-.11.59c0,.09.25.06.33,0s.14-.14.32-.1.26.23.31.42-.17.34-.39.44-.28.21-.42.42a1.15,1.15,0,0,1-.66.56c-.43.14-.54.9-.57,1.1s-.19.24-.3.43a1.58,1.58,0,0,0,0,.84.45.45,0,0,0,.51.3.49.49,0,0,0,.29-.2.82.82,0,0,1,.19.17,3,3,0,0,0,.73.59c.34.2.51.71.81,1a1.27,1.27,0,0,0,1,.42c.15-.09.22-.2.43-.19s.19,0,.19,0h0a4.56,4.56,0,0,1,.09.56c0,.32.1.22.23.36a2.77,2.77,0,0,1,.28.36,2.39,2.39,0,0,1,0,.74c-.08.17-.72.06-.83.06s-.13,0-.34-.17-.41.06-.67.13a.28.28,0,0,1-.35-.1,4.43,4.43,0,0,0-.61,0,3.48,3.48,0,0,1-.07.65,1.56,1.56,0,0,1-.24.7c-.15.18-.35.21-.45.31s.08.29.06.37-.23.05-.55-.2a.64.64,0,0,0-.59-.15s0,.05-.05.42a1.68,1.68,0,0,1-.44.85,1.23,1.23,0,0,0-.28.68c0,.23.24.37.49.66a7,7,0,0,0,1.65,1.14,3.83,3.83,0,0,0,1,.45,2.91,2.91,0,0,1,.87.19c.17.09.18.39.18.64s-.14.23-.25.39,0,.24.12.5.1.28.05.52-.26.24-.45.43a2,2,0,0,0-.54.77,1.9,1.9,0,0,0,0,1c0,.41.63.69.63.69a4.56,4.56,0,0,1,.52.32.45.45,0,0,1-.08.25c-.05.09-.16.32-.22.44a.82.82,0,0,0,0,.51c0,.29.2.34.2.34H57.5a.93.93,0,0,1,0,.2c0,.08-.12.13-.2.17a1.65,1.65,0,0,0-.35.35,1.07,1.07,0,0,0-.19.6,1.55,1.55,0,0,0,.11.4A.79.79,0,0,0,57,42a2,2,0,0,1,.07.26,1,1,0,0,0,.19.29.28.28,0,0,1,.08.28c0,.14-.05.18-.19.26s-.1.27-.07.31.2.07.26.15,0,.15-.07.27a.56.56,0,0,0-.08.47.91.91,0,0,0,.26.38c.08.08,0,.43,0,.61a2.72,2.72,0,0,0-.08.51,2,2,0,0,0,.19.7c.08.19.26.31.31.42s0,.18,0,.3a1.29,1.29,0,0,0-.07.38A1,1,0,0,0,58,48a.43.43,0,0,1,0,.35c0,.08-.06,0-.19.2a1.64,1.64,0,0,0,0,.88.59.59,0,0,0,.25.36c.14.1.29.21.43.13s.07-.34,0-.46-.25-.15-.29-.21a3.11,3.11,0,0,1,0-.69c0-.09.13-.05.13,0s0,.22.05.43a.52.52,0,0,0,.08.31s.22,0,.23,0a.17.17,0,0,1,0-.07l.09,0s0,0,0,.07,0,0,0,0l.09,0v1s.1.11.17.12a.43.43,0,0,0,.27-.17.46.46,0,0,0,.08-.23.19.19,0,0,0,0-.13h0s0,0,0,0v-.11s0-.07.06-.1,0-.7,0-.8a.32.32,0,0,0-.08-.24c-.06-.06-.13-.05-.23-.42a1.44,1.44,0,0,1,.22-.91h.32a1.7,1.7,0,0,1,0,.24s0,0-.08.07,0,.12,0,.22a1.6,1.6,0,0,0,.37.42.65.65,0,0,1,.15.17v.51h-.52v.35a1,1,0,0,0,.2.06c.12,0,.06.09.11.2s.05.16.1.24.31,0,.49,0a.43.43,0,0,0,.18-.42c0-.09,0-.08-.1-.14A.29.29,0,0,1,60.4,49a1.18,1.18,0,0,1,0-.33l.34,0s0-.21,0-.38,0-.18-.05-.2a1.09,1.09,0,0,0-.09-.11,1.08,1.08,0,0,1-.11-.18c0-.07,0-.14,0-.25a.11.11,0,0,1,.14-.08l.07.12a1.08,1.08,0,0,1,0,.18.6.6,0,0,0,.09.18s0,.1.08.11S61,48,61,48a.18.18,0,0,1,.08-.12s0-.07,0-.07l0-.38h.76a.44.44,0,0,0,.08.09s.23,0,.29,0,.08.11.09.13l.07.09s.11,0,.11-.06-.06-.11-.1-.14-.05-.12-.05-.12l.1,0,.15.06a.52.52,0,0,0,0,.11s0,.09.07.1a.28.28,0,0,0,.15,0s0-.18,0-.23.17-.07.19-.07,0,.06,0,.13,0,.21,0,.28,0,.08-.08.12,0,.12,0,.12.07,0,.1.07,0,.15,0,.19a.39.39,0,0,0,0,.15h.06V48.3a.18.18,0,0,1,0-.12.66.66,0,0,1,.49.1s.06.49.09.61a.38.38,0,0,0,.29.24,2.38,2.38,0,0,0,.85.24c.27,0,.37-.38.45-.44s.15,0,.19.12.26,0,.26,0l0-.39a1.84,1.84,0,0,0,.48,0c.18,0,.34-.29.42-.41a1.48,1.48,0,0,1,.45-.3c.13.37.6.11.6.11a2.23,2.23,0,0,0,1.19-1.7c0-.61.31-.5.31-.5.23.26,0,.86,0,.86a1.07,1.07,0,0,0-.33.89.26.26,0,0,0,.34,0c.62-.53.41-3,.41-3h1.33l.32-.16c.24-.12.2-.08.32-.2a1.71,1.71,0,0,0,.21-.48c0-.09.15,0,.26,0s.12-.08.28-.22.35,0,.37.06.48.6.55.73.51.83.65,1.14a4.64,4.64,0,0,1,.27,1,2.28,2.28,0,0,0,.43.9c.11.14,0,.4.1.71a.83.83,0,0,1-.15.66.68.68,0,0,1-.15.06,10.82,10.82,0,0,0,0,1.15c0,.22.12.24.27.52a.83.83,0,0,1,0,.76c-.08.12-.08.13,0,.31s.45.09.53.28,0,.15.17.38.15.78.23,1.07a2.3,2.3,0,0,0,.43.82,2.1,2.1,0,0,1,.34.56c.1.2.29.53.43.79s.44.8.59,1,.29.22.34.08a1.76,1.76,0,0,0-.26-.76,4.81,4.81,0,0,1-.26-.7,2,2,0,0,1-.18-.67c0-.21-.25-.53-.38-.76a.82.82,0,0,1-.1-.51,3.81,3.81,0,0,1,.08-.55c.05-.24.64-.65.64-.65.46-.39.6.47.6.47s0,.13.29,0,.28-.13.39-.13.17.31.2.43a.67.67,0,0,0,.4.32C79.59,53.09,79.77,52.72,79.75,52.6ZM67.16,47.46l-.17.13a1.18,1.18,0,0,0-.25.25.57.57,0,0,1-.36.21c-.18,0-.26,0-.47,0s-.18.2-.34.23a1,1,0,0,1-.62,0c-.16-.09,0-.43.09-.57s.49,0,.55.07.18,0,.22-.08.1,0,.23,0a1.45,1.45,0,0,0,.8-.34.33.33,0,0,1,.32-.11.14.14,0,0,1,.07.11A.08.08,0,0,1,67.16,47.46Z"/><path class="cls-4" d="M63,48.22,62.9,48l-.1,0s-.23,0-.23,0a.41.41,0,0,0-.13.34c0,.18,0,.3.06.42a.31.31,0,0,0,.33.15c.09,0,.24,0,.25-.12a1,1,0,0,0,0-.3S63,48.28,63,48.22Z"/><path class="cls-4" d="M62.12,48.46c0-.14.1-.3.14-.37s0-.28,0-.28a2.18,2.18,0,0,0-.36,0c-.14,0-.15.1-.18.19a1.34,1.34,0,0,0,0,.84.5.5,0,0,0,.59.33c.16,0,.13-.19,0-.36A.75.75,0,0,1,62.12,48.46Z"/><path class="cls-4" d="M61.87,49.24c-.14-.09-.24-.22-.31-.26s-.16-.45-.16-.45-.26-.09-.34,0,0,.21,0,.28S61,49,61,49s-.07.13-.08.15,0,.1,0,.14,0,.08.08.14,0,.13,0,.22a.37.37,0,0,0,.12.31c.1.07.26-.1.25-.23a1,1,0,0,0-.16-.31.1.1,0,0,1,.05-.14l.19.18s.31.22.45.2S62,49.34,61.87,49.24Z"/><path class="cls-4" d="M59.76,49.93a.32.32,0,0,1,0-.08l-.24,0s0,.1,0,.1a.16.16,0,0,1,.1,0s0,0,0,0,0,.09.08.09l.15,0,0,0L59.8,50S59.78,50,59.76,49.93Z"/><path class="cls-4" d="M66.79,49.07a2.24,2.24,0,0,0-.27,0c-.14,0-.1-.12-.13-.15a.94.94,0,0,0-.19.07c-.08,0,0,.12,0,.16s.17.13.21.15a1.12,1.12,0,0,0,.29,0,.56.56,0,0,0,.2-.08c.07,0,0-.07,0-.12S66.83,49.1,66.79,49.07Z"/><path class="cls-4" d="M67.08,48.3a1.5,1.5,0,0,0-.22.09.13.13,0,0,0-.06.12.4.4,0,0,0,0,.22c0,.07.18.15.26.11s.09-.13.15-.15a.39.39,0,0,0,.06-.32A.29.29,0,0,0,67.08,48.3Z"/><path class="cls-4" d="M68,48.54s.06-.19,0-.22a.35.35,0,0,0-.2-.07,1.16,1.16,0,0,0-.22.1l-.16.1s-.11.19,0,.27.18.13.29.05A1.32,1.32,0,0,0,68,48.54Z"/><path class="cls-4" d="M68.13,48.65a1.6,1.6,0,0,0-.09.2C68,49,68,49,67.9,49a.22.22,0,0,0-.14.16c0,.07,0,.19.06.22s.41.07.48,0,.2-.33.13-.47S68.31,48.61,68.13,48.65Z"/><path class="cls-4" d="M70.7,44.89a1.31,1.31,0,0,0-.35-.11c-.07,0-.21,0-.25.15s0,1.86,0,2-.12.63-.12.63-.4.12-.38.22-.1.47.19.36.26-.25.4-.35a2.16,2.16,0,0,0,.73-1,2.24,2.24,0,0,0-.15-.93c-.06-.18-.13-.31-.13-.34s0-.12.05-.11.07.2.19.29a.41.41,0,0,0,.32,0s0-.46-.09-.54A1.71,1.71,0,0,0,70.7,44.89Z"/><path class="cls-4" d="M72.8,44.46a.77.77,0,0,0-.29-.41s-.23-.15-.28.2a1.64,1.64,0,0,0,.07,1.18c.26.49.35.66.6.51s.41-.29.23-.7A3.58,3.58,0,0,1,72.8,44.46Z"/></g></g></svg>