<svg xmlns="http://www.w3.org/2000/svg" viewBox="0 0 142.06 126.52"><defs><style>.cls-1{font-size:17.33px;font-family:BaiJamjuree-Medium, Bai Jamjuree;font-weight:500;letter-spacing:0em;}.cls-2{fill:#ea2127;}.cls-3{fill:#00a44f;}.cls-4{fill:#ffca05;}</style></defs><title>Asset 19</title><g id="Layer_2" data-name="Layer 2"><g id="Layer_1-2" data-name="Layer 1"><text class="cls-1" transform="translate(0 96.85)">Ministry of Public<tspan x="11.22" y="20.8">Administration</tspan></text><circle class="cls-2" cx="71.03" cy="37.24" r="24.19"/><polygon class="cls-2" points="45.86 46.48 43.79 46.17 42.86 44.3 41.93 46.17 39.86 46.48 41.36 47.94 41.01 50 42.86 49.03 44.71 50 44.36 47.94 45.86 46.48"/><polygon class="cls-2" points="48.73 55.22 47.81 53.35 46.88 55.22 44.81 55.52 46.31 56.98 45.96 59.05 47.81 58.08 49.66 59.05 49.31 56.98 50.81 55.52 48.73 55.22"/><polygon class="cls-2" points="102.2 46.48 100.13 46.17 99.2 44.3 98.27 46.17 96.2 46.48 97.7 47.94 97.35 50 99.2 49.03 101.05 50 100.7 47.94 102.2 46.48"/><polygon class="cls-2" points="95.18 55.22 94.25 53.35 93.33 55.22 91.25 55.52 92.75 56.98 92.4 59.05 94.25 58.08 96.1 59.05 95.75 56.98 97.25 55.52 95.18 55.22"/><path class="cls-3" d="M105.35,22.75a37.44,37.44,0,1,0,2.92,14.49A37.17,37.17,0,0,0,105.35,22.75ZM103.9,51.13a35.83,35.83,0,1,1,2.8-13.89A35.54,35.54,0,0,1,103.9,51.13Z"/><path class="cls-3" d="M63.55,68.56l-.16-.1-.17-.09a1.91,1.91,0,0,0-.36-.13,1.48,1.48,0,0,0-.81,0,.53.53,0,0,0-.44.35.58.58,0,0,0,.22.57,1.64,1.64,0,0,0,.82.42,1.8,1.8,0,0,0,.5,0,1.18,1.18,0,0,0,.43-.11c.25-.13.36-.3.32-.51A.77.77,0,0,0,63.55,68.56Z"/><path class="cls-3" d="M86.45,65.63a.82.82,0,0,0-.58-.14,1.78,1.78,0,0,0-.73.2L85,65.8l-.17.12a1.69,1.69,0,0,0-.26.28.58.58,0,0,0-.1.56.63.63,0,0,0,.54.29,1.56,1.56,0,0,0,.91-.2,1.35,1.35,0,0,0,.66-.63.94.94,0,0,0,.06-.18.92.92,0,0,0,0-.16A.41.41,0,0,0,86.45,65.63Z"/><path class="cls-3" d="M87.31,60l.88-.66c-.48,0-1,.06-1.41.08a28.29,28.29,0,0,1-6.34,3.35l-.31.12-.17.06-.4.14-.22-.1a2.09,2.09,0,0,1-.4-.5l-.69-.15a12.79,12.79,0,0,0,.6,1.6,2.1,2.1,0,0,0-.3-.15,1.7,1.7,0,0,0-.32-.1,2.19,2.19,0,0,0-.72,0,7,7,0,0,0-.69.14l-.43.11-.17,0a29.19,29.19,0,0,1-4,.52,28.81,28.81,0,0,1-4.55-.08,27.89,27.89,0,0,1-3.53-.56l-.5-.12-.25-.06a2.27,2.27,0,0,1-.25-.06l-1-.28-.78-.25h0c-.36-.12-.72-.25-1.07-.39l-.06,0a28,28,0,0,1-7.22-4.08c.13.39.28.78.42,1.18,0,.06.09.12.13.19a1.55,1.55,0,0,0,.38.78l.28.24.54.37.23.17.19.18a1.36,1.36,0,0,1,.25.39,1.18,1.18,0,0,1,0,.9c-.52.1-1,.15-1.25.18a1.33,1.33,0,0,1-.54,0,.77.77,0,0,1-.24-.56,1.13,1.13,0,0,1,.11-.55L52.43,62a7.26,7.26,0,0,0,.22,1.23,1.39,1.39,0,0,0,.35.63,1.35,1.35,0,0,0,.24.25l.18.14.11.08.13.07.33.18a2,2,0,0,0,.86,0,11.87,11.87,0,0,0,1.62-.34,1.2,1.2,0,0,1,.86,0,1.51,1.51,0,0,1,.26.18,2.12,2.12,0,0,1,.26.26.92.92,0,0,1,.24.5l-1,2.36.46.67c.07.11.16.22.24.33l.24.33,2.13-5.46.53.2.13.05.14,0,.27.09c.36.12.72.25,1.09.34h0A31,31,0,0,0,66,65l0,.17c-1.66.08-3.45.25-5.48.43l.46.74.24.37.24.36a5.89,5.89,0,0,1,.59.21l.28.12.27.12.53.25.26.15.25.15a5.49,5.49,0,0,1,.75.52c.11.1.22.19.31.29l.28.29c0,.07.33.48.88,1.22.11.09.23.16.34.24l.35.23.66-5.71q.45.06.9.09c.26,0,.53,0,.79.06h.46A29.15,29.15,0,0,0,73,65.22l0,.24c-1.73.53-3.36,1.09-4.94,1.75l.67.57.18.14.17.14.35.27.59.08.29,0,.29.05a8.22,8.22,0,0,1,1.11.29,5.35,5.35,0,0,1,1.14.53,4.14,4.14,0,0,1,.75.53,5.56,5.56,0,0,1,.49.6l.39.17.4.16-.59-4.54a3.4,3.4,0,0,1,1.72.17,1.31,1.31,0,0,1,.75.59l-.23,0a2.24,2.24,0,0,0-.52,0,4.69,4.69,0,0,0-.6.17c-.36.25-.53.5-.5.74s.2.37.51.49a2,2,0,0,0,.49.1,2.32,2.32,0,0,0,.52,0,2.51,2.51,0,0,0,.67-.22,1.62,1.62,0,0,0,.49-.4A1,1,0,0,0,77.9,67a1.79,1.79,0,0,0-.21-.45,2,2,0,0,0-.56-.55,2.71,2.71,0,0,0-.38-.22,4.68,4.68,0,0,0-.45-.2,5.43,5.43,0,0,0-.53-.17l-.26,0-.25,0a3.62,3.62,0,0,0-1,0l0-.17a28.28,28.28,0,0,0,3.28-.62,2.32,2.32,0,0,1,.64,0,1.76,1.76,0,0,1,.62.18.7.7,0,0,1,.35.45l1.23,4,1.55.36-2-5.65,1.1-.4.27-.11,0,0,.75-.31h0a27.71,27.71,0,0,0,3.34-1.72l.09.16-.23.21L85,61.8c-.16.14-.31.29-.46.44-.32.3-.64.6-.95.93-.17.15-.33.31-.5.48l-.25.25-.25.25-.51.51c-.18.17-.35.36-.53.53l.83.27.85.25.15,0,.14-.06.29-.1c.2-.07.39-.12.58-.17l.29-.08.29-.06a5.67,5.67,0,0,1,.57-.1A4,4,0,0,1,86,65l.45,0a4.43,4.43,0,0,1,.83.07l.43.12,1,.25.42,0,.21,0,.21,0L86.4,60.59ZM58.44,64.42a5.1,5.1,0,0,0-.28-.48l-.13-.2-.13-.18a1.59,1.59,0,0,0-.52-.45.33.33,0,0,0-.13,0l-.2,0c-.17,0-.39,0-.67-.07h0a1.06,1.06,0,0,0,.11-.63,1.15,1.15,0,0,0-.09-.34,1.73,1.73,0,0,0-.18-.36l.69.37.35.19.35.17c.48.22,1,.46,1.43.66Zm7,4.22a5,5,0,0,0-.5-.54c-.19-.18-.39-.36-.61-.54l-.34-.25-.38-.25c-.25-.17-.52-.34-.82-.51l.75-.11.38,0,.38,0,.76-.08h.19l.19,0,.39,0Zm5.16-1.15.87-.4.17-.07.18-.07.4-.16.46-.16.52-.18.21,2.33A8.23,8.23,0,0,0,70.55,67.49Zm16.79-3.1-.17,0-.19,0-.38,0a7.24,7.24,0,0,0-.81,0h-.43l-.45,0-.47.06-.24,0-.25,0c.08-.09.17-.18.25-.28s.16-.19.25-.28.34-.38.51-.55l.27-.28.26-.27.27-.27a3.57,3.57,0,0,0,.28-.27Z"/><path class="cls-3" d="M41.44,26.36c.06-.18.13-.35.2-.53l.2-.52.22-.51-.56.35-.56.36c-.12.29-.22.59-.33.88a2.36,2.36,0,0,1-.33.29.59.59,0,0,1-.37.07,1.13,1.13,0,0,0-.48.23l-.39.31a10.77,10.77,0,0,0,1.67.53l.74.13a2.93,2.93,0,0,0-.72.29,2.59,2.59,0,0,0-.54.42l-.14.17-.21.29a1.88,1.88,0,0,0-.22.57,3.79,3.79,0,0,0-.11.63,2.61,2.61,0,0,0,0,.56,2.07,2.07,0,0,0,.26.84c-.07.07-.15.14-.22.22s-.31.31-.47.48c-.07.37-.11.73-.15,1.08,0,.14-.07.21-.1.23-.24.12-.43.12-.56,0l-.33.39c-.1.13-.21.26-.31.4a17.4,17.4,0,0,0,1.79.09h.73a1.55,1.55,0,0,0-.58.37,1.84,1.84,0,0,0-.44.61,3.34,3.34,0,0,0-.28.86c0,.16-.06.33-.08.51s0,.38,0,.58a3.21,3.21,0,0,0,.24,1.3,2,2,0,0,0,.62.76,1.19,1.19,0,0,0,.78.27c.34,0,.59-.26.76-.7a.61.61,0,0,0,.06-.33,2.54,2.54,0,0,0-.25-.77,2.72,2.72,0,0,1-.23-.67c0-.16,0-.25.13-.25s.3.24.67.69l.67.86c.29-.35.57-.69.87-1-.22-.25-.42-.48-.6-.67a7,7,0,0,0-.52-.48,1.22,1.22,0,0,0-.83-.34,1,1,0,0,0-.75.46,2.09,2.09,0,0,0-.25,1.15,2.64,2.64,0,0,0,0,.51,1.69,1.69,0,0,1-.54-1.43,2.24,2.24,0,0,1,.07-.44,1.62,1.62,0,0,1,.19-.43,2.06,2.06,0,0,1,.32-.41,2.91,2.91,0,0,1,.46-.35,1.54,1.54,0,0,1,.89-.28l3,.31.24-.23.25-.22.49-.44-5.83-.72c.05-.36.09-.73.16-1.1,0-.19,0-.37.08-.55V32a1.84,1.84,0,0,0,.4.39,1.57,1.57,0,0,0,1.26.22,1.42,1.42,0,0,0,.29-.1,2.61,2.61,0,0,0,.28-.17,2,2,0,0,0,.51-.54,2.43,2.43,0,0,0,.2-.35c0-.13.1-.26.15-.41a1.89,1.89,0,0,0,.09-.52,2.36,2.36,0,0,0,0-.53A1.83,1.83,0,0,0,43,29.7a1.14,1.14,0,0,0-.1-.19.66.66,0,0,0-.32-.22.81.81,0,0,0-.31,0,1,1,0,0,0-.72.79c-.13.55,0,.87.33,1l.22,0a.52.52,0,0,1-.27.19,1.18,1.18,0,0,1-.58,0,.86.86,0,0,1-.55-.48,1.31,1.31,0,0,1-.15-.46,1.51,1.51,0,0,1,0-.51,1.88,1.88,0,0,1,.72-1.05,1.41,1.41,0,0,1,1.29-.27l2.94.93.54-.34.55-.31-5.39-1.93C41.31,26.71,41.37,26.54,41.44,26.36Z"/><path class="cls-3" d="M51.81,16.24a1.33,1.33,0,0,0-.53-.35,2.1,2.1,0,0,0-.79-.11,1.34,1.34,0,0,0-.55.09h0a.37.37,0,0,0-.2.11,3.1,3.1,0,0,0-.2.39A5.37,5.37,0,0,1,49,17.44c-.18.2-.32.24-.46.12a1.29,1.29,0,0,1-.24-.73,1.16,1.16,0,0,1,.06-.8c.32,0,.51,0,.55,0a3.13,3.13,0,0,0,1.25-.53,11.94,11.94,0,0,0,1.21-.86,3.42,3.42,0,0,0,.7,1.39,4,4,0,0,0,.89.72c.33.21.65.43,1,.65,0,0,.17,0,.35-.1a1.63,1.63,0,0,0,.36-.19.43.43,0,0,0,.08-.2,3.87,3.87,0,0,1-1.4-.91,2.62,2.62,0,0,1-.36-.55,1.77,1.77,0,0,1-.32-1,3,3,0,0,1,.11-1.17H51.9l-.74,0-.3.4-.25.33a3.82,3.82,0,0,1-.34.41.86.86,0,0,1-.14.13l-.18.15-.46.3c-.38.24-.61.31-.69.23a.13.13,0,0,1,0-.1c.07-.18.13-.31.18-.41.61-.6,1.24-1.17,1.89-1.72l.92-.75a1.65,1.65,0,0,1,.55-.27,1.35,1.35,0,0,1,.6,0,.68.68,0,0,1,.45.31l2.39,3.42.58.08.58.1-3.25-5,.87-.56.1-.06c.31.24.66.48,1,.74l1.19.8a6.59,6.59,0,0,0,1.23.57,5.19,5.19,0,0,0,.86.26,2.12,2.12,0,0,0,.44,0,2.77,2.77,0,0,0,.49,0,3.39,3.39,0,0,0,.48-.1,2.59,2.59,0,0,0,.42-.14A3.93,3.93,0,0,0,62,11.54a3.66,3.66,0,0,0,.37-.45,2.19,2.19,0,0,0,.22-.47,1.66,1.66,0,0,0,0-1A1.93,1.93,0,0,0,62.29,9a2.72,2.72,0,0,0-.52-.5,2.19,2.19,0,0,0-.59-.3A2,2,0,0,0,60.53,8h-.36l-.37.06-.38.09-.31.11A2.3,2.3,0,0,0,58,9.16a1.06,1.06,0,0,0-.14,1.09,1.22,1.22,0,0,0,.85.64,1.92,1.92,0,0,0,.41,0,2.37,2.37,0,0,0,.45-.15,1.67,1.67,0,0,0,.77-.56.79.79,0,0,0,.06-.74A.87.87,0,0,0,60.07,9l.22-.1a1,1,0,0,1,.88.07,1,1,0,0,1,.5.58,1,1,0,0,1-.22.93,3.1,3.1,0,0,1-.51.56,2,2,0,0,1-.54.34,3.27,3.27,0,0,1-2.55,0,8,8,0,0,1-1.24-.59l-1.16-.7c-.27.06-.53.14-.8.21l.09-.06.28-.17.14-.08.34-.2h0a31.62,31.62,0,0,1,6.92-2.91h0q1.36-.39,2.76-.66C66.1,6,67,5.91,68,5.81a.44.44,0,0,1,.31.06.76.76,0,0,1,.25.4.7.7,0,0,1-.1.44.91.91,0,0,1-.38.3,2.32,2.32,0,0,0-.43-.23,6.63,6.63,0,0,0-.71-.26,2.72,2.72,0,0,0-1.33-.09c-.79.14-1.21.52-1.26,1.11a.72.72,0,0,0,.35.7,1.24,1.24,0,0,0,.2.1.79.79,0,0,0,.22.06,1.49,1.49,0,0,0,.51,0A1,1,0,0,0,66.23,8a.79.79,0,0,0,.21-.62.39.39,0,0,0-.12-.24,3.19,3.19,0,0,1,.65.19l.16.08L67,7.48l-.27.18a5.08,5.08,0,0,0-.51.65,1,1,0,0,0-.13.74,1.39,1.39,0,0,0,.14.42.85.85,0,0,0,.46.33,1.32,1.32,0,0,0,.64.08A1.29,1.29,0,0,0,68,9.6a.59.59,0,0,0,.28-.55.55.55,0,0,0-.24-.4.74.74,0,0,0-.52-.12l-.14,0a1.14,1.14,0,0,1,.18-.32L67.81,8l.2-.13a1.68,1.68,0,0,1,.31-.1h0l.12,0s0,0,0,.14a1,1,0,0,1,.13.3l.16,2-.1-.07a1.75,1.75,0,0,0-1.11-.15l-.39,0c-.21.06-.41.09-.58.13l-.47.08-.35,0a.75.75,0,0,1-.23,0,.69.69,0,0,1-.35-.25,1,1,0,0,1-.2-.43,2,2,0,0,1,0-.71l-.47-.14a.19.19,0,0,0-.23.15,2,2,0,0,0,0,1.07A1.77,1.77,0,0,0,65,11a1.48,1.48,0,0,0,.85.31,2.83,2.83,0,0,0,1,0l.66-.19a3.66,3.66,0,0,1,.67-.16,1.31,1.31,0,0,1,.49,0l.2.07.16.12a4.14,4.14,0,0,1,.34.43l.24.17.24.17-.15-3.19a4.83,4.83,0,0,0-.11-1.08,1.27,1.27,0,0,0-.21-.29l.09-.09a.89.89,0,0,0,.32-.65A1.61,1.61,0,0,0,69.46,6a2.62,2.62,0,0,0-.17-.27c.75,0,1.51-.06,2.27,0l-.09,5,.43.4.22.2.21.21.29-5.82.59,0,.58,0,.59.06.59.07-.49-.45L74,5l-.66,0-.66,0-.16-.45A2.51,2.51,0,0,0,72,3.63a3.2,3.2,0,0,0-.88-.71,3,3,0,0,0-.4-.2l-.37-.16a3.45,3.45,0,0,0-.67-.19L69,2.28l-.58,0a6.32,6.32,0,0,0-1,0,5.81,5.81,0,0,0-.58.09c-.19,0-.38.08-.57.14s-.37.12-.56.19-.18.07-.27.12l-.27.13c-.61.31-.87.64-.81,1a.75.75,0,0,0,.24.41,1.35,1.35,0,0,0,.54.23,5,5,0,0,0,.66.11,4.44,4.44,0,0,0,.63,0l.38,0,1-.08a4.33,4.33,0,0,1,.5,0l.36,0q.28,0,.3.18s-.07.12-.19.22a32.36,32.36,0,0,0-6.69,1.18L62,6.2l-.49.15-.31.09,0,0h0l-.56.19c-.21.06-.41.14-.61.21-.8.3-1.59.62-2.36,1a33.69,33.69,0,0,0-3.4,1.83h0l-.43.27-.14.09-.17.11-.24.16-.24,0a2.16,2.16,0,0,1-.51-.37l-.71.07a14.23,14.23,0,0,0,1,1.34,1.35,1.35,0,0,0-.63,0,1.8,1.8,0,0,0-.56.2h0l-.06,0h0c-.15.1-.33.23-.54.4a4.09,4.09,0,0,0-.33.28l-.12.11a32.67,32.67,0,0,0-5.83,6.31l-.14.19-.11.16-.2.12a.52.52,0,0,1-.4-.07h-.13l-.7.42,1.71,1,.53.23a2.93,2.93,0,0,0-.78.1,3,3,0,0,0-.75.32,3.59,3.59,0,0,0-.72.58c-.1.12-.2.24-.29.37l-.13.2-.12.22a3.46,3.46,0,0,0-.06,3.26.58.58,0,0,0,.27.27.5.5,0,0,0,.47-.08.73.73,0,0,0,.35-.46q0-.2.06-.36l.05-.26a1.38,1.38,0,0,1,0-.26q.14-.32.54-.12c.1,0,.16.11.17.19l.06.24.06.24.12.48.45-.52.46-.5a26.61,26.61,0,0,1-.46-3,1.82,1.82,0,0,1,1.14-.09l1.62,1.14-.09,0a3.58,3.58,0,0,0-.54.31l-.16.14-.14.15c-.1.1-.19.21-.28.31s-.17.22-.25.34-.16.23-.23.35l-.2.36-.18.31c-.1.2-.2.36-.28.5a2.68,2.68,0,0,1-.3.5c-.41.41-.8.56-1.15.41a.55.55,0,0,1-.21-.2,2.3,2.3,0,0,0-.59.42.12.12,0,0,0,0,.13.63.63,0,0,0,.21.13A5.18,5.18,0,0,0,44,27a1.75,1.75,0,0,0,1.13.06,1.49,1.49,0,0,0,.48-.22,2.27,2.27,0,0,0,.45-.38,4.06,4.06,0,0,0,.36-.46,4.3,4.3,0,0,0,.28-.52l.11-.25.11-.22.18-.4.29-.54a4.2,4.2,0,0,1,.24-.38,1.8,1.8,0,0,1,.25-.29,1.23,1.23,0,0,1,.51-.33h.19l0,0h.52a2.38,2.38,0,0,0,.95-.14c-.17-.12-.33-.22-.47-.3L45,19.45l.15-.23.16-.22.26-.37.33-.44.13-.17q.6-.76,1.23-1.5c0,.09,0,.16,0,.21a2.59,2.59,0,0,0,.11.81,1,1,0,0,0,.3.48,1.1,1.1,0,0,0,.3.19,1.36,1.36,0,0,0,.64.12,2.56,2.56,0,0,0,.76-.17l.34-.22.29-.26a3.2,3.2,0,0,0,.31-.43A1.75,1.75,0,0,0,50.5,17c.06-.1.11-.2.17-.32a.35.35,0,0,1,.06-.09.2.2,0,0,1,.21,0,.37.37,0,0,1,.2.12c.14.14.12.4,0,.74l-.1.18-.12.19c-.08.12-.18.25-.28.38a1.62,1.62,0,0,1-.45.36,2.06,2.06,0,0,1-.62.25,4.15,4.15,0,0,1-.58.1,2.51,2.51,0,0,1-.55,0,4.81,4.81,0,0,1-.82-.26,2.36,2.36,0,0,1-.88-.56,3.46,3.46,0,0,0-.69.39,6.38,6.38,0,0,0,2,1.19,3.93,3.93,0,0,0,1.39.17,3.12,3.12,0,0,0,2.13-1,2.8,2.8,0,0,0,.37-.5,2,2,0,0,0,.21-.56A1.89,1.89,0,0,0,52,16.6,1.31,1.31,0,0,0,51.81,16.24ZM68.63,3.75a2.52,2.52,0,0,0-.41-.06l-.48,0h-.2l-.39,0-.6,0-.8.1q-.6.09-.63-.06c0-.07,0-.15.19-.23l.27-.12L66,3.33a6.62,6.62,0,0,1,1.22-.25c.22,0,.43,0,.63-.05h.59l.55,0,.49.08.44.11.4.16a2.85,2.85,0,0,1,.63.41,2.25,2.25,0,0,1,.65.79l.09.29H69.81a1,1,0,0,0,0-.16,1,1,0,0,0-.55-.8A1.91,1.91,0,0,0,68.63,3.75Zm-25,19.89a1.08,1.08,0,0,0-.49.46,1.35,1.35,0,0,1-.08-.7,3,3,0,0,1,.29-.83,1.48,1.48,0,0,1,.29-.37,1.64,1.64,0,0,1,.41-.31c0,.28.07.58.1.86s.08.57.13.85A1,1,0,0,0,43.58,23.64Z"/><path class="cls-3" d="M80.19,7c.78.24,1.54.51,2.3.8L82.42,8a13.56,13.56,0,0,0-2.68-.08c-.27,0-.58.06-.93.13l-.56.12c-.19.05-.4.1-.61.17.13.22.25.45.37.67s.24.46.36.68l.29.11.27.12a3,3,0,0,1,.49.28,3.39,3.39,0,0,1,.42.33,4.17,4.17,0,0,1,.36.37,3.34,3.34,0,0,1,.69,1.92c0,.15.08.29.13.44l.12.44,2.33-5.47.67.31a1.39,1.39,0,0,1,.79.89.71.71,0,0,1-.07.54L83,13.72c.14.38.27.75.38,1.13l2.86-5.24.93.54.45.28.23.14h0a1.13,1.13,0,0,0-.9.5,1.29,1.29,0,0,0-.06,1.14,2.19,2.19,0,0,0,.32.58,2.5,2.5,0,0,0,.5.47,2,2,0,0,0,.67.33,1.89,1.89,0,0,0,.85,0,1.16,1.16,0,0,0,.64-.38,1.07,1.07,0,0,0,.22-.5,1.5,1.5,0,0,0,0-.62,1.67,1.67,0,0,0-.29-.62,2,2,0,0,0-.23-.27l-.14-.13-.15-.11a2,2,0,0,0-.63-.3,2.4,2.4,0,0,0-.6-.07,1.11,1.11,0,0,1-.07-.16l-.13-.31c-.08-.2-.17-.41-.26-.61l-.5-.3-.51-.29a1.83,1.83,0,0,1-.07-.23A2.09,2.09,0,0,1,86.54,8l-.39-.6A14.25,14.25,0,0,0,85.47,9a1.6,1.6,0,0,0-.1-.31,1.2,1.2,0,0,0-.16-.27A1.79,1.79,0,0,0,85,8.17,1.37,1.37,0,0,0,84.75,8V8l0,0h0a4.86,4.86,0,0,0-.61-.31l-.4-.16-.18-.06c-.85-.36-1.7-.69-2.58-1l-.49-.15-.49-.15c-.33-.1-.66-.18-1-.27l-.5-.12c-.17,0-.33-.09-.5-.12l-1-.2c.31.31.61.64.9,1C78.63,6.6,79.42,6.8,80.19,7Zm1,4.24A4.86,4.86,0,0,0,79.5,9.16,9.9,9.9,0,0,1,82,9.06Zm7.11.33a1.51,1.51,0,0,1,.85.2.32.32,0,0,1,.09.49.74.74,0,0,1-.23.24,1.23,1.23,0,0,1-.62,0,1.71,1.71,0,0,1-.63-.2.25.25,0,0,1-.07-.4A.7.7,0,0,1,88.27,11.61Z"/><path class="cls-3" d="M87.69,15.64c0-.26-.08-.48-.12-.67s-.08-.34-.11-.46-.13-.42-.2-.61-.13-.37-.2-.55-.13-.33-.2-.49a4.48,4.48,0,0,0-.2-.44l-.81,1.3a12.94,12.94,0,0,1,1.29,3.19c0,.22.09.42.12.63s.07.42.1.63l.51-.6c0-.19,0-.38,0-.55s0-.35,0-.51C87.76,16.19,87.73,15.89,87.69,15.64Z"/><path class="cls-3" d="M103.13,38.14l-1.25.12.18-.15a6.88,6.88,0,0,0,.54-.51,3.65,3.65,0,0,0,.39-.45,1.27,1.27,0,0,0,.29-.73,1.77,1.77,0,0,0-.07-.39,3.14,3.14,0,0,0-.15-.49,2.84,2.84,0,0,0-.21-.39,2,2,0,0,0-.23-.32,1.49,1.49,0,0,0-.28-.23,1.22,1.22,0,0,0,.28-.36l.24-.45a2.1,2.1,0,0,0,.11-.51,2.21,2.21,0,0,0,0-.57c-.09-.67-.22-1.33-.35-2l0,0,0-.18c-.08-.35-.17-.69-.25-1,0-.17-.09-.34-.14-.51s-.09-.35-.14-.52l-.16-.51-.16-.51-.08-.25-.09-.25-.18-.51-.18-.5-.1-.25-.1-.25-.2-.49-.21-.49-.11-.24-.11-.25-.21-.44c-.42-.93-.88-1.84-1.39-2.73v0c-.2-.34-.41-.67-.62-1a2.42,2.42,0,0,1,.05-.24,2.16,2.16,0,0,1,.37-.51c0-.24,0-.48-.07-.72a14,14,0,0,0-1.33,1.05,1.55,1.55,0,0,0-.2-1.29v0h0a.35.35,0,0,0,0-.08l-.1-.15-.23-.3-.26-.32a32.38,32.38,0,0,0-5.87-5.77c.07.22.15.43.21.65s.14.43.2.65A31.9,31.9,0,0,1,95,16.86l-.7.6V17.3c0-.1,0-.22,0-.35a1.51,1.51,0,0,0-.36-.76,1.06,1.06,0,0,0-.5-.3,1.13,1.13,0,0,0-.56-.05v-.15a2.74,2.74,0,0,0-.09-.39c0-.12-.1-.24-.16-.36a2.44,2.44,0,0,0-.23-.33,2.09,2.09,0,0,0-.29-.31,2.34,2.34,0,0,0-.31-.24,2.41,2.41,0,0,0-.33-.15,1.67,1.67,0,0,0-.7-.09,1.5,1.5,0,0,0-1,.56,1.56,1.56,0,0,0-.33,1.31,2.07,2.07,0,0,0,.27.7,3.53,3.53,0,0,0,.24.34c.09.11.19.21.3.32a3.09,3.09,0,0,0,.31.25l.15.08.15.07a1,1,0,0,0,.63,0c.15,0,.27-.21.38-.53a.89.89,0,0,0-.26-1,1,1,0,0,0-.63-.33.57.57,0,0,0-.54.18.65.65,0,0,0-.13.23.63.63,0,0,1,0-.79A.7.7,0,0,1,91,15a1.55,1.55,0,0,1,1.25,1.24,2.32,2.32,0,0,1,0,.55.34.34,0,0,1-.28.28l.64.38c.2-.29.37-.44.5-.47a.43.43,0,0,1,.36.16.87.87,0,0,1,.21.54.59.59,0,0,1-.14.47l-2.34,2c0,.4,0,.8,0,1.18l4.51-3.62.33.42h0v0l.15.2a1.7,1.7,0,0,1,.27.56,1.39,1.39,0,0,1,0,.61.76.76,0,0,1-.32.45l-3.4,2.38-.09.59c0,.2-.07.39-.1.58l5-3.24c.07.11.14.22.2.33v0c.36.59.69,1.2,1,1.81a3.31,3.31,0,0,0-2.94.1,3.06,3.06,0,0,0-1.55,2.33,1.83,1.83,0,0,0,0,.52,2.65,2.65,0,0,0,.19.56,1.69,1.69,0,0,0,.26.41,1.48,1.48,0,0,0,.37.29.9.9,0,0,0,.81.09.74.74,0,0,0,.45-.72.72.72,0,0,0-.06-.49l-.11-.19a1.41,1.41,0,0,0-.17-.18c-.33-.28-.63-.32-.88-.13a1,1,0,0,0-.21.31l0,.07a.31.31,0,0,1,0-.08,2.07,2.07,0,0,1,.25-1,1.74,1.74,0,0,1,.7-.67,6,6,0,0,1,.77-.31,2.12,2.12,0,0,1,1.49,0,2.86,2.86,0,0,1,.73.42,4.33,4.33,0,0,1,.71.71,5.1,5.1,0,0,1,.61,1L97.33,26.7c-.07.23-.14.46-.22.69s-.15.46-.23.68a3.7,3.7,0,0,1,.83.17,3.12,3.12,0,0,1,.39.15,2.08,2.08,0,0,1,.36.2,3.45,3.45,0,0,1,.67.54l.3.34.27.39a5,5,0,0,0-1.26.19,11.48,11.48,0,0,0-2.13,1c0,.26-.08.51-.13.77.78-.35,1.2-.54,1.28-.55a2.9,2.9,0,0,1,.47-.16,3.36,3.36,0,0,1,1.24-.05,5.81,5.81,0,0,1,1.53.44c.08-.27.15-.53.23-.81l.21-.81a7.63,7.63,0,0,0-.73-1.09,4.67,4.67,0,0,0-.7-.75l-.3-.25-.27-.2-.42-.31,1.85-.71a31.67,31.67,0,0,1,1.62,6.28,2.08,2.08,0,0,1,0,.35,1.37,1.37,0,0,1-.08.35,2.68,2.68,0,0,1-.28.36,2,2,0,0,0-.61-.76,1,1,0,0,0-.76-.29,1,1,0,0,0-.74.72,1.17,1.17,0,0,0,0,.42,1.18,1.18,0,0,0,.08.31,2.3,2.3,0,0,0,.15.32,1.39,1.39,0,0,0,.42.47,1.45,1.45,0,0,0-.41,1.09,1.87,1.87,0,0,0,0,.35,1.73,1.73,0,0,0,.08.27.69.69,0,0,0,.32.35,1.9,1.9,0,0,0,.43.09.77.77,0,0,0,.52-.28,3.54,3.54,0,0,0,.56-.87.37.37,0,0,1,.19.2.75.75,0,0,1,.07.18c0,.07,0,.15,0,.24a1.16,1.16,0,0,1-.5.87c-.31.29-.54.43-.68.43l-3.45-.09c-.26.3-.53.6-.81.89l5.74.28c0,.66-.08,1.31-.16,2,.3-.33.58-.67.87-1,0-.24,0-.48,0-.73a.64.64,0,0,1,.22-.35h.15a.42.42,0,0,0,.26-.11,8.57,8.57,0,0,0,.54-.79Zm-8.44-12.7.11.12S94.73,25.53,94.69,25.44Z"/><path class="cls-4" d="M62,25.27Z"/><path class="cls-4" d="M84.87,52.6c0-.12-.21-.64-.27-.87a8.27,8.27,0,0,1-.15-1.08c0-.36,0-1,0-1.45a5.43,5.43,0,0,0,0-.84c0-.19-.19-.47-.24-.7s.15-.34.27-.59-.1-.62-.2-.85a2.11,2.11,0,0,1-.14-.9,1,1,0,0,0,0-.58,1.42,1.42,0,0,0-.12-.38,3.4,3.4,0,0,1-.07-.6c0-.34-.1-.3-.2-.33s0,0-.06-.32a2,2,0,0,0-.41-.87c-.2-.22-.14-.22-.11-.59a.7.7,0,0,0-.09-.53,3.3,3.3,0,0,1,0-1.14,3.44,3.44,0,0,0,0-.62,5.62,5.62,0,0,0-.37-1.25c-.11-.36-.13-.23-.16-.45s.06-.28,0-.49-.17-.13-.17-.13a1.11,1.11,0,0,1-.11.11s-.07,0-.31,0-.06,0-.11-.1a.31.31,0,0,0-.11-.11.39.39,0,0,0-.15.12,1.11,1.11,0,0,1-.24.3c-.13.09-.25,0-.38,0s0,0-.13-.15-.15,0-.21,0-.19.11-.25.21a3.92,3.92,0,0,0,0,.84c0,.09,0,.14,0,.25a.44.44,0,0,1,0,.18c0,.07-.24.19-.52.44a2.65,2.65,0,0,0-.5.59c-.14.21,0,.71,0,1s.1.38,0,.57-.21.22-.36.44a.64.64,0,0,1-.82.19c-.3-.19-.22-.23-.28-.53s-.17-.51-.29-.92-.13-.32-.13-.32c-.62-.28-.47.25-.47.56s0,.51,0,.5-.16-.14-.25-.3,0-.17-.16-.56a5.18,5.18,0,0,1-.12-1.13A5.45,5.45,0,0,0,76.12,38c-.13-.29-.1-.25-.05-.55s.08-.07.1-.16a.71.71,0,0,1-.08-.19s0-.08.07-.18a4.09,4.09,0,0,1,.24-.34,1.71,1.71,0,0,0,.21-.81c0-.27.08-.24.13-.36s.2,0,.44-.11.13-.11.17-.23a3.1,3.1,0,0,1,.17-.47c.08-.18.15,0,.22,0a1.94,1.94,0,0,0,.77.12c.27,0,.28,0,.28,0l0-.2a1.68,1.68,0,0,1,.1-.29c0-.12,0-.1,0-.16a.12.12,0,0,1,.07-.07l.12.08a1,1,0,0,0,.4.21c.28.07.11,0,.15-.17s0,0-.06-.13a1.8,1.8,0,0,1-.09-.2,1.31,1.31,0,0,1,.19-.07l.18,0c.1,0,.12.09.2.27s.14.28.27.29.25-.2.29-.32a.79.79,0,0,0,.06-.25,2.11,2.11,0,0,1,.1-.4c0-.14.05,0,.11-.06s.14,0,.15,0a.2.2,0,0,0,.08-.19c0-.13-.07-.06-.07-.06l0-.29a1.89,1.89,0,0,0,.46,0c.27,0,.26-.08.26-.08s.07-.37.07-.4.08-.24.12-.36.08-.12.08-.12a1.43,1.43,0,0,0,.31,0,.52.52,0,0,0,.21-.06,4.36,4.36,0,0,0,0-.88c0-.19,0-.19.11-.33a.76.76,0,0,0,.06-.48c0-.24-.07-.16-.12-.32s0-.22.12-.24.19.07.62.22.56-.14.66-.33-.49-.72-.64-.91-.43-.23-.83-.36a4.38,4.38,0,0,1-.86-.44,3.29,3.29,0,0,0-1.4-.18,2.34,2.34,0,0,0-1.09.26c-.42.13-.29-.16-.39-.24s-.36,0-.44.16-.35.07-.53-.05a.45.45,0,0,0-.43,0c-.06,0-.09,0-.46-.21s-.42-.11-.51-.05-.17.1-.48,0-.3,0-.77,0-.33.1-.56.23a1.6,1.6,0,0,1-1-.09,2,2,0,0,0-1.23.09c-.08.09-.32.07-.32.07a3.74,3.74,0,0,1-.89-.17,4,4,0,0,0-.59-.21c-.22-.08-.51-.1-.78-.17l-.24-.06a2.84,2.84,0,0,0-.28-.26.94.94,0,0,0-.56-.09,2.24,2.24,0,0,1-.46-.06c-.17,0-.15-.08-.18-.1s0-.06,0-.16a1.88,1.88,0,0,1,.06-.34,3.1,3.1,0,0,0,.11-.58c0-.35.08-.33.21-.68a.54.54,0,0,0-.16-.69c-.19-.21-.09-.27,0-.5s.38-.4.45-.71-.09-.42-.36-.63a2,2,0,0,1-.43-.5c-.1-.12-.07-.23-.09-.38a.44.44,0,0,0-.08-.25c0-.06-.17-.1-.23-.19a1.1,1.1,0,0,0-.19-.25c-.09-.09-.11,0-.25.07a.81.81,0,0,0-.34.53c0,.19.09.22.09.29a1.18,1.18,0,0,0-.06.41c0,.24-.74.17-1,.06l-.6-.21a4.22,4.22,0,0,1-1-.94c-.06-.1-.15-.73-.22-1a1,1,0,0,0-.39-.54.88.88,0,0,0-.7-.07c-.15.07-.1.33-.07.42s.31.22.45.31a.66.66,0,0,1,.26.32c0,.05-.18.07-.37.07s-.25-.15-.38-.25-.21,0-.27.11-.15.11-.15.11-.55-.67-.84-1a5.67,5.67,0,0,0-1.11-.85,2.21,2.21,0,0,1-.45-.29s0-.41,0-.44,0-.06-.14-.06a.26.26,0,0,0-.26.21,1.67,1.67,0,0,1-.23.43.88.88,0,0,0-.11.6c0,.08.25.06.33,0s.14-.14.31-.1.27.23.32.42-.17.34-.39.44-.28.21-.43.42a1.1,1.1,0,0,1-.65.56c-.43.14-.55.9-.58,1.1s-.19.24-.29.43a1.59,1.59,0,0,0,0,.84.45.45,0,0,0,.51.3.49.49,0,0,0,.28-.2.65.65,0,0,1,.19.17,3.14,3.14,0,0,0,.74.59c.34.2.51.71.81,1a1.24,1.24,0,0,0,1,.42c.16-.09.22-.2.44-.18a.6.6,0,0,0,.19,0h0s.05.25.08.56.11.22.24.36a2.77,2.77,0,0,1,.28.36,2.18,2.18,0,0,1,0,.74c-.07.17-.71.06-.83.06s-.13,0-.33-.17-.42.06-.67.13a.28.28,0,0,1-.35-.1s-.61,0-.61,0a3.48,3.48,0,0,1-.07.65,1.51,1.51,0,0,1-.24.7c-.15.18-.35.21-.46.31s.09.3.07.37-.23.05-.56-.19a.67.67,0,0,0-.59-.16s0,.05,0,.42a1.68,1.68,0,0,1-.44.85,1.23,1.23,0,0,0-.28.68c0,.23.24.37.49.66a7,7,0,0,0,1.65,1.14,3.7,3.7,0,0,0,1,.45,3,3,0,0,1,.87.19c.16.09.18.39.18.64s-.14.24-.25.39,0,.24.11.5.11.28.06.52-.26.24-.46.43a2,2,0,0,0-.53.77,1.9,1.9,0,0,0,0,1c0,.41.62.69.62.69s.51.26.52.32a.37.37,0,0,1-.07.25c0,.09-.16.32-.22.45s-.07.21,0,.5.2.34.2.34h1.29s0,.13,0,.21-.12.12-.2.16a1.92,1.92,0,0,0-.35.35,1,1,0,0,0-.19.61,1.23,1.23,0,0,0,.11.39,1.06,1.06,0,0,0,.12.26c.05.08,0,.18.08.26a.86.86,0,0,0,.19.29.31.31,0,0,1,.08.28.28.28,0,0,1-.19.26.22.22,0,0,0-.07.31s.2.07.26.15,0,.16-.08.28a.62.62,0,0,0-.08.47,1.08,1.08,0,0,0,.27.37,1.34,1.34,0,0,1,0,.61,2.72,2.72,0,0,0-.08.51,2.19,2.19,0,0,0,.18.7c.09.2.27.32.32.43s0,.17,0,.3a1.23,1.23,0,0,0-.07.38,1,1,0,0,0,.13.45.53.53,0,0,1,0,.35c0,.08-.07,0-.19.2a1.55,1.55,0,0,0,0,.88.58.58,0,0,0,.24.36c.15.1.3.21.44.14s.07-.34,0-.47-.24-.15-.28-.2a3.2,3.2,0,0,1,0-.7c0-.08.14-.05.14,0s0,.22,0,.44a.66.66,0,0,0,.09.31s.22,0,.23,0a.14.14,0,0,1,0-.07h.09s0,0,0,.06,0,0,0,0l.09,0v1s.09.11.17.11a.41.41,0,0,0,.27-.16,1.06,1.06,0,0,0,.08-.23.16.16,0,0,0,0-.14h0s0,0,0,0a.4.4,0,0,0,0-.11s0-.07.07-.09,0-.71,0-.81a.33.33,0,0,0-.08-.24c-.06-.06-.13-.05-.23-.42a1.46,1.46,0,0,1,.21-.91h.32a.92.92,0,0,1,0,.24s0,0-.08.07a.23.23,0,0,0,0,.22,1.6,1.6,0,0,0,.37.42.51.51,0,0,1,.14.17v.51h-.51v.35a.73.73,0,0,0,.2.07c.11,0,.06.09.11.19s0,.16.1.24.3,0,.48,0a.42.42,0,0,0,.19-.42c0-.09,0-.08-.1-.14s0-.07-.08-.16a1.76,1.76,0,0,1,0-.33l.35,0,0-.38c0-.18,0-.18,0-.2l-.1-.11a.64.64,0,0,1-.1-.18c0-.07,0-.14,0-.25s.12-.08.14-.07.06.08.08.11,0,.14,0,.18a.38.38,0,0,0,.09.18s0,.11.08.12.07,0,.08-.06.06-.11.09-.11,0-.07,0-.07v-.38H67l.08.09s.23,0,.28,0,.08.1.1.12l.07.09s.1,0,.1-.06,0-.1-.09-.14,0-.12,0-.12l.1,0,.14.07a1,1,0,0,0,0,.11s0,.09.06.1a.3.3,0,0,0,.15-.05s0-.17,0-.23.16-.07.18-.07.06.06.06.14,0,.21,0,.27,0,.08-.09.12,0,.12,0,.12.07,0,.09.07,0,.15,0,.19a.39.39,0,0,0,0,.15h.06V48.3a.25.25,0,0,1,0-.12.65.65,0,0,1,.49.1s.06.49.1.61a.38.38,0,0,0,.28.24,2.5,2.5,0,0,0,.86.24c.26,0,.37-.37.44-.44s.15,0,.2.12.25,0,.25,0l0-.39a2.28,2.28,0,0,0,.49,0c.18,0,.34-.3.42-.42s.45-.3.45-.3c.13.37.59.11.59.11a2.23,2.23,0,0,0,1.2-1.7c0-.61.31-.5.31-.5.23.26,0,.87,0,.87a1,1,0,0,0-.33.88.26.26,0,0,0,.34,0c.62-.53.41-3,.41-3h1.33l.31-.16c.25-.12.21-.08.32-.2a1.78,1.78,0,0,0,.22-.48c0-.09.15,0,.25,0s.13-.09.29-.23.35.06.36.07a8,8,0,0,1,.56.72c.06.13.51.83.65,1.14a4.14,4.14,0,0,1,.26,1,2.34,2.34,0,0,0,.44.9c.11.15,0,.4.09.71a.8.8,0,0,1-.14.66.66.66,0,0,1-.15.07,10.63,10.63,0,0,0,0,1.14c0,.22.11.24.27.52a.86.86,0,0,1,0,.76c-.08.12-.08.13,0,.31s.44.09.53.28,0,.15.17.38.15.78.22,1.07a2.49,2.49,0,0,0,.44.82,2.1,2.1,0,0,1,.34.56c.09.2.29.54.43.8s.43.79.58,1,.3.21.34.07a1.73,1.73,0,0,0-.25-.76,4.81,4.81,0,0,1-.26-.7,1.81,1.81,0,0,1-.18-.67c0-.2-.26-.52-.38-.76a.82.82,0,0,1-.1-.51A3.57,3.57,0,0,1,82,52.6c.06-.24.65-.65.65-.65.46-.39.6.47.6.47s.05.13.29,0,.27-.13.39-.12.17.31.2.42a.64.64,0,0,0,.4.32C84.71,53.09,84.89,52.72,84.87,52.6Zm-12.6-5.14a1,1,0,0,1-.16.13,1,1,0,0,0-.25.25.6.6,0,0,1-.36.21c-.18,0-.27,0-.47,0s-.18.19-.34.22a1,1,0,0,1-.62,0c-.17-.09,0-.43.09-.57s.48,0,.54.07.19,0,.23-.08.09,0,.23,0a1.45,1.45,0,0,0,.8-.34.3.3,0,0,1,.31-.1.12.12,0,0,1,.08.1C72.36,47.45,72.27,47.46,72.27,47.46Z"/><path class="cls-4" d="M68.07,48.23c0-.06-.06-.22-.06-.22L67.92,48a1,1,0,0,0-.24,0,.42.42,0,0,0-.12.34c0,.18,0,.3.06.42a.32.32,0,0,0,.33.16c.09,0,.23,0,.24-.13a1,1,0,0,0,0-.3A2.25,2.25,0,0,1,68.07,48.23Z"/><path class="cls-4" d="M67.23,48.46c0-.13.1-.3.14-.37s0-.28,0-.28a2.09,2.09,0,0,0-.35,0c-.14,0-.15.1-.19.2a1.3,1.3,0,0,0,0,.83.5.5,0,0,0,.6.33c.15,0,.12-.19,0-.36A.88.88,0,0,1,67.23,48.46Z"/><path class="cls-4" d="M67,49.24c-.14-.09-.24-.22-.31-.25s-.17-.46-.17-.46-.25-.08-.34,0,0,.21,0,.28a.54.54,0,0,1-.09.2s-.06.12-.08.14a.72.72,0,0,0,0,.15s0,.07.09.13a.41.41,0,0,1,0,.22.35.35,0,0,0,.12.32c.09.06.26-.11.25-.23a1,1,0,0,0-.16-.32.1.1,0,0,1,0-.14l.18.18s.31.22.46.2S67.13,49.34,67,49.24Z"/><path class="cls-4" d="M64.88,49.93a.26.26,0,0,1,0-.07l-.24,0s-.06.09,0,.09.09,0,.09,0a.11.11,0,0,1,0,0s0,.09.07.09l.15,0s0,0,0,0L64.91,50S64.89,50,64.88,49.93Z"/><path class="cls-4" d="M71.91,49.07a2.28,2.28,0,0,0-.27,0c-.14,0-.1-.12-.14-.15a1.24,1.24,0,0,0-.19.07c-.08,0,0,.12,0,.16s.17.13.2.15a.68.68,0,0,0,.3,0,.46.46,0,0,0,.19-.08c.07,0,0-.07,0-.12S72,49.1,71.91,49.07Z"/><path class="cls-4" d="M72.19,48.31a1,1,0,0,0-.21.08.13.13,0,0,0-.06.12c0,.09,0,.16,0,.23s.18.14.26.1.09-.12.14-.15.11-.27.06-.32A.24.24,0,0,0,72.19,48.31Z"/><path class="cls-4" d="M73.14,48.55s.06-.2,0-.23a.43.43,0,0,0-.2-.07,1.16,1.16,0,0,0-.22.1l-.17.1s-.1.19,0,.27.18.14.3.05A1.35,1.35,0,0,0,73.14,48.55Z"/><path class="cls-4" d="M73.24,48.65a1.08,1.08,0,0,0-.08.2c0,.13-.07.13-.15.17a.21.21,0,0,0-.13.16c0,.07,0,.19.06.22s.41.07.48,0,.19-.33.13-.47S73.42,48.61,73.24,48.65Z"/><path class="cls-4" d="M75.82,44.89a1.6,1.6,0,0,0-.35-.11c-.07,0-.21,0-.25.15s0,1.86,0,2-.12.63-.12.63-.4.12-.39.22-.09.48.2.36.25-.25.4-.35a2.15,2.15,0,0,0,.72-1,2.14,2.14,0,0,0-.14-.93,2.58,2.58,0,0,1-.13-.34s0-.12,0-.11.08.2.19.29a.46.46,0,0,0,.33.06s0-.47-.1-.55A1.87,1.87,0,0,0,75.82,44.89Z"/><path class="cls-4" d="M77.91,44.46a.78.78,0,0,0-.28-.41s-.23-.15-.28.2a1.64,1.64,0,0,0,.07,1.18c.25.49.35.67.6.51s.41-.28.23-.69A4.44,4.44,0,0,1,77.91,44.46Z"/></g></g></svg>