<svg xmlns="http://www.w3.org/2000/svg" xmlns:xlink="http://www.w3.org/1999/xlink" viewBox="0 0 88.68 75.75"><defs><style>.cls-1{fill:url(#linear-gradient);}</style><linearGradient id="linear-gradient" x1="-151.8" y1="37.87" x2="610.24" y2="37.87" gradientUnits="userSpaceOnUse"><stop offset="0" stop-color="#b42025"/><stop offset="0.11" stop-color="#b82325"/><stop offset="0.23" stop-color="#c42c26"/><stop offset="0.34" stop-color="#d93b28"/><stop offset="0.44" stop-color="#ef4b2a"/><stop offset="0.57" stop-color="#cc3a25"/><stop offset="0.76" stop-color="#9c231f"/><stop offset="0.91" stop-color="#7f151b"/><stop offset="1" stop-color="#741019"/></linearGradient></defs><title>Asset 3</title><g id="Layer_2" data-name="Layer 2"><g id="Layer_1-2" data-name="Layer 1"><path class="cls-1" d="M64.66,74.16V61.34q-2.74,10.11-12.23,13-4.74,1.44-18.21,1.44Q12.5,75.75,6.53,71,0,65.9,0,52.24q0-13.87,6.52-19,5.15-4,16.46-5,3.49-.3,17.43-.3,9.8,0,13.38.84,7.88,1.83,10.08,8.32v-8A23.37,23.37,0,0,0,63.11,22q-1.44-4-9-4.89-1.65-.23-10.77-.23-9.54,0-10,.08-6.11.88-6.52,5.68H2.74q.34-6.73,2.33-10.6a18.52,18.52,0,0,1,7.34-7.28q6-3.48,17.49-4.39Q34.64,0,48,0,71.47,0,79.35,4.7q7.13,4.25,9,14.94a78.17,78.17,0,0,1,.34,9.48v45ZM43,42.76q-9,0-11.53.53Q24,44.8,24,50.9q0,6.39,7.37,7.76,2.45.47,13.78.46,9.27,0,12.55-.69,6.5-1.36,6.49-7.68t-8.53-7.69Q53.84,42.76,43,42.76Z"/></g></g></svg>