<svg width="559" height="251" viewBox="0 0 559 251" fill="none" xmlns="http://www.w3.org/2000/svg">
<mask id="mask0_22_427" style="mask-type:alpha" maskUnits="userSpaceOnUse" x="-11" y="0" width="570" height="251">
<g clip-path="url(#clip0_22_427)">
<path d="M50.624 122.777L49.6614 124.192L85.2392 169.462L86.9001 168.897L50.624 122.777Z" fill="black"/>
<path d="M552.904 7.79029L559 0H556.697L551.45 6.69626C550.305 6.02473 549.003 5.66689 547.675 5.65881C547.097 5.66857 546.522 5.7381 545.958 5.8663L544.693 0H542.995L544.372 6.45104C543.104 7.06777 542.034 8.02729 541.283 9.22084C540.533 10.4144 540.132 11.7942 540.126 13.2039C540.126 13.468 540.126 13.6943 540.126 13.9584L404.005 30.5953C404.005 30.4067 403.892 30.2369 403.854 30.0483L466.139 0H461.874L403.213 28.294C402.312 26.7277 400.879 25.5363 399.174 24.9365L406.308 0H404.421L397.38 24.5215C397.116 24.5215 396.871 24.5215 396.607 24.5215H396.493L394.889 0H393.209L394.832 24.7479C394.101 24.9318 393.401 25.2243 392.756 25.6155L379.941 0H378.053L391.435 26.5964C390.656 27.3388 390.044 28.2392 389.642 29.2372L335.096 1.62219L334.813 0H333.114L333.246 0.69792L331.868 0H328.093L333.624 2.79168L341.947 49.3071C340.987 49.5566 340.087 49.9956 339.299 50.5981C338.511 51.2007 337.852 51.9546 337.361 52.8155L270.489 21.4657L265.997 0H264.299L268.602 20.5792L224.663 0H220.605L269.036 22.6352L270.924 23.5029L336.662 54.3245C336.422 55.0554 336.294 55.8187 336.285 56.5881C336.291 57.5446 336.477 58.4915 336.832 59.3797L283.607 84.2785L270.905 23.5595L269.017 22.6918L281.795 83.8069L194.294 43.9312C194.952 42.1182 194.878 40.1208 194.089 38.3609C193.3 36.6011 191.858 35.2166 190.067 34.4999L201.504 0H199.617L188.292 34.066C187.924 34.003 187.552 33.9651 187.179 33.9528H186.933L172.91 0H171.136L185.291 34.2358C184.329 34.4844 183.425 34.9207 182.631 35.5196C181.837 36.1184 181.17 36.868 180.667 37.7254L129.594 14.4488L129.707 0H128.027L127.895 13.6755L97.904 0H93.7705L127.876 15.5429L127.48 57.6632L107.907 45.2705C107.904 44.0086 107.585 42.7677 106.978 41.6612C106.371 40.5547 105.496 39.618 104.433 38.9368C103.371 38.2556 102.154 37.8517 100.894 37.762C99.635 37.6723 98.3732 37.8996 97.2245 38.4233L77.8407 0H75.9533L94.6954 36.952L36.0722 0H32.9013L95.5447 39.4985C94.6939 40.202 94.0079 41.0835 93.535 42.0808C93.0622 43.0781 92.814 44.1669 92.8079 45.2705C92.8105 45.7521 92.861 46.2324 92.9589 46.704L19.5195 72.7723C18.8182 71.8497 17.9136 71.101 16.876 70.5842C15.8385 70.0674 14.6957 69.7963 13.5364 69.792L22.1808 0H20.4444L11.8 70.0183C11.0912 70.1898 10.4109 70.463 9.78046 70.8294L-9.11258 46.7795V49.4391L8.45927 71.7914C7.14005 73.0066 6.29697 74.6516 6.08113 76.4316L-9.01821 77.4691V79.3553L6.1755 78.3368C6.33461 79.6355 6.82894 80.8705 7.60993 81.9207L-9.11258 104.877V107.989L8.79901 83.1656C9.19993 83.4872 9.62954 83.7713 10.0825 84.0144L-3.45033 194.286C-4.91761 194.29 -6.3518 194.722 -7.57753 195.528C-8.80327 196.334 -9.76741 197.479 -10.3521 198.824C-10.9367 200.169 -11.1166 201.655 -10.8696 203.101C-10.6226 204.546 -9.95947 205.889 -8.96134 206.963C-7.96321 208.038 -6.67332 208.799 -5.2494 209.153C-3.82547 209.507 -2.32923 209.438 -0.943639 208.956C0.441952 208.473 1.65684 207.598 2.55246 206.436C3.44808 205.275 3.98562 203.878 4.09934 202.416L119.232 221.806C119.232 222.07 119.232 222.316 119.232 222.58C119.234 223.904 119.584 225.204 120.248 226.35C120.912 227.495 121.866 228.446 123.014 229.107C124.162 229.768 125.464 230.115 126.788 230.114C128.113 230.112 129.414 229.763 130.561 229.1C131.708 228.437 132.66 227.485 133.322 226.338C133.983 225.191 134.332 223.89 134.331 222.566C134.331 221.242 133.982 219.941 133.319 218.795C132.656 217.648 131.704 216.696 130.556 216.034L150.261 154.561C150.61 154.628 150.963 154.665 151.318 154.674C152.697 154.667 154.049 154.282 155.225 153.561C166.965 167.916 200.919 210.451 223.172 238.292C222.019 239.57 221.338 241.202 221.241 242.92C221.144 244.637 221.637 246.336 222.639 247.735C223.64 249.134 225.09 250.149 226.747 250.612C228.405 251.074 230.171 250.957 231.753 250.28C233.335 249.602 234.638 248.405 235.445 246.886C236.253 245.367 236.518 243.618 236.195 241.929C235.871 240.239 234.981 238.711 233.669 237.597C232.358 236.482 230.706 235.849 228.985 235.803L221.737 124.06C223.276 123.524 224.601 122.505 225.512 121.155L289.552 157.786C289.093 159.057 288.984 160.427 289.235 161.754C289.487 163.08 290.09 164.316 290.982 165.33C291.874 166.345 293.022 167.101 294.306 167.521C295.591 167.941 296.964 168.008 298.284 167.717C299.603 167.425 300.82 166.785 301.807 165.863C302.795 164.941 303.516 163.771 303.897 162.475C304.278 161.179 304.303 159.805 303.971 158.496C303.639 157.187 302.962 155.991 302.009 155.032L393.134 38.7062C394.223 39.2989 395.442 39.6102 396.682 39.6117C398.624 39.6138 400.492 38.8683 401.898 37.5299C403.304 36.1916 404.14 34.3633 404.232 32.425L540.635 15.7315C541.005 16.8169 541.618 17.8037 542.427 18.617C543.236 19.4303 544.219 20.0486 545.303 20.4251C546.387 20.8016 547.542 20.9263 548.681 20.7897C549.82 20.6531 550.913 20.2589 551.877 19.6369C552.841 19.0149 553.65 18.1816 554.244 17.2002C554.837 16.2188 555.199 15.1151 555.301 13.9731C555.404 12.8311 555.245 11.6807 554.836 10.6094C554.427 9.53802 553.779 8.57392 552.941 7.79029H552.904ZM335.473 3.77254L389.246 30.9348C389.179 31.3086 389.141 31.687 389.132 32.0666C389.131 32.9915 389.31 33.9079 389.661 34.7639L354.008 51.3442L350.44 53.023C349.799 51.8274 348.847 50.8267 347.684 50.1262C346.522 49.4258 345.192 49.0516 343.834 49.043H343.627L335.473 3.77254ZM283.852 85.6178L283.966 86.1648L337.738 61.0019C338.322 61.799 339.052 62.4776 339.89 63.0014L298.744 153.127C298.067 152.908 297.361 152.793 296.649 152.788H296.46L283.966 86.1459L283.664 86.278L283.947 86.1459L283.852 85.6178ZM281.229 85.4291L282.588 84.7501L281.248 85.4291L225.758 113.176C225.099 112.036 224.153 111.088 223.014 110.426C221.875 109.764 220.582 109.412 219.265 109.404C218.873 109.413 218.482 109.451 218.095 109.517L192.294 47.0058C192.786 46.5591 193.211 46.0446 193.558 45.4779L281.229 85.4291ZM154.923 140.47L172.363 87.8813L171.796 87.5229L172.344 87.8624L212.659 113.365C212.107 114.347 211.788 115.443 211.726 116.568C211.664 117.692 211.86 118.816 212.3 119.854L158.169 143.998C157.486 142.529 156.348 141.318 154.923 140.546V140.47ZM187.179 49.043C188.506 49.0349 189.809 48.6771 190.954 48.0056L216.509 109.951C215.394 110.384 214.398 111.075 213.603 111.969L172.91 86.2968L185.291 48.7978C185.907 48.9619 186.542 49.0443 187.179 49.043ZM129.556 16.3162L179.969 39.291C179.749 40.0063 179.635 40.7497 179.629 41.4979C179.635 42.8719 180.016 44.2182 180.731 45.3916C181.446 46.565 182.468 47.521 183.687 48.1565L171.381 85.3348L129.197 58.7384L129.556 16.3162ZM129.178 60.7001L170.192 86.6363L170.758 86.9759L153.3 139.886L170.834 87.0702L170.268 86.7307L153.205 139.829C151.666 139.42 150.035 139.526 148.562 140.131L128.801 101.066L129.178 60.7001ZM13.5364 84.8821C15.0357 84.8817 16.5009 84.4352 17.7454 83.5994L48.4914 122.702L49.454 121.268L18.9911 82.5431C20.3331 81.1415 21.0834 79.277 21.0861 77.337C21.09 76.325 20.8843 75.3232 20.4821 74.3944L93.544 48.4583C94.1272 49.721 95.0481 50.7981 96.2053 51.5706L49.3974 121.268L48.4348 122.702L-0.0718546 195.116C-0.620249 194.827 -1.204 194.612 -1.80828 194.474L11.649 84.6369C12.2646 84.8014 12.8992 84.8839 13.5364 84.8821ZM3.98609 200.624C3.89908 200.096 3.75999 199.577 3.57086 199.077L86.4473 170.99L85.2583 169.462L2.6649 197.436C2.30606 196.952 1.8946 196.509 1.43808 196.115L49.6616 124.192L50.6242 122.777L97.8096 52.344C99.2953 52.9238 100.936 52.9705 102.453 52.476L127.083 101.33V97.7653L104 51.8347C104.898 51.3482 105.684 50.6815 106.311 49.8765C106.938 49.0714 107.392 48.1454 107.643 47.1567L127.48 59.6627L127.14 97.7842V101.349L128.801 104.631L147.09 140.885C146.068 141.576 145.231 142.506 144.652 143.594C144.073 144.683 143.769 145.896 143.768 147.129C143.779 147.926 143.919 148.716 144.183 149.468L128.329 154.844L127.385 155.146L128.329 154.825L128.782 104.612L127.121 101.312L126.63 155.429V157.315L126.102 215.035C125.269 215.101 124.452 215.305 123.686 215.638L88.0894 170.368L126.612 157.315V155.429L86.9003 168.897L87.9195 170.217L86.8815 168.897L85.2394 169.462L86.4473 170.99L122.308 216.563C121.117 217.457 120.217 218.685 119.723 220.09L3.98609 200.624ZM128.858 215.355C128.504 215.258 128.145 215.183 127.782 215.129L128.31 156.806L144.957 151.147C145.819 152.491 147.079 153.533 148.562 154.127L128.858 215.355ZM227.268 235.935C226.215 236.137 225.218 236.562 224.342 237.179C201.032 207.923 168.475 167.142 156.508 152.599C157.252 151.895 157.845 151.047 158.251 150.107C158.657 149.166 158.866 148.153 158.868 147.129C158.863 146.673 158.819 146.219 158.735 145.771L213.244 121.457C213.943 122.395 214.851 123.158 215.896 123.685C216.941 124.212 218.094 124.489 219.265 124.494C219.529 124.494 219.775 124.494 220.02 124.494L227.268 235.935ZM226.305 119.646C226.638 118.786 226.811 117.871 226.815 116.949C226.805 116.239 226.697 115.535 226.494 114.855L282.418 86.9004L294.762 153.033C292.906 153.493 291.294 154.639 290.251 156.24L226.305 119.646ZM300.575 153.92L300.386 153.806L341.494 63.737C342.251 63.983 343.039 64.1165 343.834 64.1331C344.986 64.1323 346.122 63.8681 347.156 63.3608C348.19 62.8535 349.094 62.1165 349.799 61.2062C350.504 60.296 350.991 59.2366 351.223 58.1092C351.456 56.9818 351.427 55.8163 351.139 54.7018L354.8 52.9853L390.529 36.3673C390.856 36.8315 391.236 37.2557 391.662 37.6311L300.575 153.92Z" fill="black"/>
</g>
</mask>
<g mask="url(#mask0_22_427)">
<rect x="-54.3496" y="-30.4369" width="674.223" height="332.039" fill="#D42B29" fill-opacity="0.21"/>
</g>
<defs>
<clipPath id="clip0_22_427">
<rect width="570" height="250.874" fill="white" transform="translate(-11)"/>
</clipPath>
</defs>
</svg>
