<svg xmlns="http://www.w3.org/2000/svg" xmlns:xlink="http://www.w3.org/1999/xlink" viewBox="0 0 76.13 74.16"><defs><style>.cls-1{fill:url(#linear-gradient);}</style><linearGradient id="linear-gradient" x1="-407.02" y1="37.08" x2="355.02" y2="37.08" gradientUnits="userSpaceOnUse"><stop offset="0" stop-color="#b42025"/><stop offset="0.11" stop-color="#b82325"/><stop offset="0.23" stop-color="#c42c26"/><stop offset="0.34" stop-color="#d93b28"/><stop offset="0.44" stop-color="#ef4b2a"/><stop offset="0.57" stop-color="#cc3a25"/><stop offset="0.76" stop-color="#9c231f"/><stop offset="0.91" stop-color="#7f151b"/><stop offset="1" stop-color="#741019"/></linearGradient></defs><title>Asset 6</title><g id="Layer_2" data-name="Layer 2"><g id="Layer_1-2" data-name="Layer 1"><path class="cls-1" d="M0,74.16V1.58H23.22V17.79a56.14,56.14,0,0,1,2.47-6.73,16.71,16.71,0,0,1,4.1-5.53Q36.22,0,50.12,0,65.8,0,71.75,8.07q4.38,5.92,4.38,21c0,.82,0,2.39-.12,4.72H53.58V32.62q0-6.81-3.6-9.52-2.9-2.25-9.32-2.25-10.29,0-14.16,6.39Q24,31.35,24,40.7V74.16Z"/></g></g></svg>